<svg width="1200" height="675" viewBox="0 0 1200 675" fill="none" xmlns="http://www.w3.org/2000/svg">
<g clip-path="url(#clip0_577_6711)">
<rect width="1200" height="675" fill="white"/>
<rect width="1200" height="129" transform="matrix(1 0 0 -1 0 675)" fill="url(#paint0_linear_577_6711)"/>
<path d="M0 0H1200V129H0V0Z" fill="url(#paint1_linear_577_6711)"/>
<path d="M0 302H1200V431H0V302Z" fill="url(#paint2_linear_577_6711)"/>
<path d="M0 0L-2.95052e-05 675L100 675L100 4.37114e-06L0 0Z" fill="url(#paint3_linear_577_6711)"/>
<path d="M1200 0L1200 675L1118 675L1118 3.58434e-06L1200 0Z" fill="url(#paint4_linear_577_6711)"/>
<path d="M0 118H58V176H0V118Z" stroke="black" stroke-opacity="0.1"/>
<path d="M0 420H58V478H0V420Z" stroke="black" stroke-opacity="0.1"/>
<path d="M0 176H58V234H0V176Z" fill="#DD5823" fill-opacity="0.1" stroke="#DD5823"/>
<path d="M0 478H1200V536H0V478Z" fill="#2386DD" fill-opacity="0.2" stroke="#2386DD"/>
<path d="M0 234H58V292H0V234Z" stroke="black" stroke-opacity="0.1"/>
<path d="M0 536H58V594H0V536Z" stroke="black" stroke-opacity="0.1"/>
<path d="M58 118H116V176H58V118Z" stroke="black" stroke-opacity="0.1"/>
<path d="M58 420H116V478H58V420Z" stroke="black" stroke-opacity="0.1"/>
<path d="M58 176H116V234H58V176Z" fill="#DD5823" fill-opacity="0.1" stroke="#DD5823"/>
<path d="M58 234H116V292H58V234Z" stroke="black" stroke-opacity="0.1"/>
<path d="M58 536H116V594H58V536Z" stroke="black" stroke-opacity="0.1"/>
<path d="M116 118H174V176H116V118Z" stroke="black" stroke-opacity="0.1"/>
<path d="M116 420H174V478H116V420Z" stroke="black" stroke-opacity="0.1"/>
<path d="M116 176H174V234H116V176Z" fill="#DD5823" fill-opacity="0.1" stroke="#DD5823"/>
<path d="M116 234H174V292H116V234Z" stroke="black" stroke-opacity="0.1"/>
<path d="M116 536H174V594H116V536Z" stroke="black" stroke-opacity="0.1"/>
<path d="M174 118H232V176H174V118Z" fill="#DD5823" fill-opacity="0.1" stroke="#DD5823"/>
<path d="M174 420H232V478H174V420Z" stroke="black" stroke-opacity="0.1"/>
<path d="M174 176H232V234H174V176Z" stroke="black" stroke-opacity="0.1"/>
<path d="M174 234H232V292H174V234Z" stroke="black" stroke-opacity="0.1"/>
<path d="M174 536H232V594H174V536Z" stroke="black" stroke-opacity="0.1"/>
<path d="M232 118H290V176H232V118Z" fill="#DD5823" fill-opacity="0.1" stroke="#DD5823"/>
<path d="M232 420H290V478H232V420Z" stroke="black" stroke-opacity="0.1"/>
<path d="M232 176H290V234H232V176Z" stroke="black" stroke-opacity="0.1"/>
<path d="M232 234H290V292H232V234Z" stroke="black" stroke-opacity="0.1"/>
<path d="M232 536H290V594H232V536Z" stroke="black" stroke-opacity="0.1"/>
<path d="M290 118H348V176H290V118Z" stroke="black" stroke-opacity="0.1"/>
<path d="M290 420H348V478H290V420Z" stroke="black" stroke-opacity="0.1"/>
<path d="M290 176H348V234H290V176Z" fill="#DD5823" fill-opacity="0.1" stroke="#DD5823"/>
<path d="M290 234H348V292H290V234Z" stroke="black" stroke-opacity="0.1"/>
<path d="M290 536H348V594H290V536Z" stroke="black" stroke-opacity="0.1"/>
<path d="M348 118H406V176H348V118Z" stroke="black" stroke-opacity="0.1"/>
<path d="M348 420H406V478H348V420Z" stroke="black" stroke-opacity="0.1"/>
<path d="M348 176H406V234H348V176Z" stroke="black" stroke-opacity="0.1"/>
<path d="M348 234H406V292H348V234Z" fill="#DD5823" fill-opacity="0.1" stroke="#DD5823"/>
<path d="M348 536H406V594H348V536Z" stroke="black" stroke-opacity="0.1"/>
<path d="M406 118H464V176H406V118Z" stroke="black" stroke-opacity="0.1"/>
<path d="M406 420H464V478H406V420Z" stroke="black" stroke-opacity="0.1"/>
<path d="M406 176H464V234H406V176Z" stroke="black" stroke-opacity="0.1"/>
<path d="M406 234H464V292H406V234Z" fill="#DD5823" fill-opacity="0.1" stroke="#DD5823"/>
<path d="M406 536H464V594H406V536Z" stroke="black" stroke-opacity="0.1"/>
<path d="M464 118H522V176H464V118Z" stroke="black" stroke-opacity="0.1"/>
<path d="M464 420H522V478H464V420Z" stroke="black" stroke-opacity="0.1"/>
<path d="M464 176H522V234H464V176Z" fill="#DD5823" fill-opacity="0.1" stroke="#DD5823"/>
<path d="M464 234H522V292H464V234Z" stroke="black" stroke-opacity="0.1"/>
<path d="M464 536H522V594H464V536Z" stroke="black" stroke-opacity="0.1"/>
<path d="M522 118H580V176H522V118Z" stroke="black" stroke-opacity="0.1"/>
<path d="M522 420H580V478H522V420Z" stroke="black" stroke-opacity="0.1"/>
<path d="M522 176H580V234H522V176Z" fill="#DD5823" fill-opacity="0.1" stroke="#DD5823"/>
<path d="M522 234H580V292H522V234Z" stroke="black" stroke-opacity="0.1"/>
<path d="M522 536H580V594H522V536Z" stroke="black" stroke-opacity="0.1"/>
<path d="M580 118H638V176H580V118Z" stroke="black" stroke-opacity="0.1"/>
<path d="M580 420H638V478H580V420Z" stroke="black" stroke-opacity="0.1"/>
<path d="M580 176H638V234H580V176Z" fill="#DD5823" fill-opacity="0.1" stroke="#DD5823"/>
<path d="M580 234H638V292H580V234Z" stroke="black" stroke-opacity="0.1"/>
<path d="M580 536H638V594H580V536Z" stroke="black" stroke-opacity="0.1"/>
<path d="M638 118H696V176H638V118Z" stroke="black" stroke-opacity="0.1"/>
<path d="M638 420H696V478H638V420Z" stroke="black" stroke-opacity="0.1"/>
<path d="M638 176H696V234H638V176Z" stroke="black" stroke-opacity="0.1"/>
<path d="M638 234H696V292H638V234Z" fill="#DD5823" fill-opacity="0.1" stroke="#DD5823"/>
<path d="M638 536H696V594H638V536Z" stroke="black" stroke-opacity="0.1"/>
<path d="M696 118H754V176H696V118Z" stroke="black" stroke-opacity="0.1"/>
<path d="M696 420H754V478H696V420Z" stroke="black" stroke-opacity="0.1"/>
<path d="M696 176H754V234H696V176Z" fill="#DD5823" fill-opacity="0.1" stroke="#DD5823"/>
<path d="M696 234H754V292H696V234Z" stroke="black" stroke-opacity="0.1"/>
<path d="M696 536H754V594H696V536Z" stroke="black" stroke-opacity="0.1"/>
<path d="M754 118H812V176H754V118Z" stroke="black" stroke-opacity="0.1"/>
<path d="M754 420H812V478H754V420Z" stroke="black" stroke-opacity="0.1"/>
<path d="M754 176H812V234H754V176Z" fill="#DD5823" fill-opacity="0.1" stroke="#DD5823"/>
<path d="M754 234H812V292H754V234Z" stroke="black" stroke-opacity="0.1"/>
<path d="M754 536H812V594H754V536Z" stroke="black" stroke-opacity="0.1"/>
<path d="M812 118H870V176H812V118Z" stroke="black" stroke-opacity="0.1"/>
<path d="M812 420H870V478H812V420Z" stroke="black" stroke-opacity="0.1"/>
<path d="M812 176H870V234H812V176Z" fill="#DD5823" fill-opacity="0.1" stroke="#DD5823"/>
<path d="M812 234H870V292H812V234Z" stroke="black" stroke-opacity="0.1"/>
<path d="M812 536H870V594H812V536Z" stroke="black" stroke-opacity="0.1"/>
<path d="M870 118H928V176H870V118Z" fill="#DD5823" fill-opacity="0.1" stroke="#DD5823"/>
<path d="M870 420H928V478H870V420Z" stroke="black" stroke-opacity="0.1"/>
<path d="M870 176H928V234H870V176Z" stroke="black" stroke-opacity="0.1"/>
<path d="M870 234H928V292H870V234Z" stroke="black" stroke-opacity="0.1"/>
<path d="M870 536H928V594H870V536Z" stroke="black" stroke-opacity="0.1"/>
<path d="M928 118H986V176H928V118Z" stroke="black" stroke-opacity="0.1"/>
<path d="M928 420H986V478H928V420Z" stroke="black" stroke-opacity="0.1"/>
<path d="M928 176H986V234H928V176Z" fill="#DD5823" fill-opacity="0.1" stroke="#DD5823"/>
<path d="M928 234H986V292H928V234Z" stroke="black" stroke-opacity="0.1"/>
<path d="M928 536H986V594H928V536Z" stroke="black" stroke-opacity="0.1"/>
<path d="M986 118H1044V176H986V118Z" stroke="black" stroke-opacity="0.1"/>
<path d="M986 420H1044V478H986V420Z" stroke="black" stroke-opacity="0.1"/>
<path d="M986 176H1044V234H986V176Z" fill="#DD5823" fill-opacity="0.1" stroke="#DD5823"/>
<path d="M986 234H1044V292H986V234Z" stroke="black" stroke-opacity="0.1"/>
<path d="M986 536H1044V594H986V536Z" stroke="black" stroke-opacity="0.1"/>
<path d="M1044 118H1102V176H1044V118Z" stroke="black" stroke-opacity="0.1"/>
<path d="M1044 420H1102V478H1044V420Z" stroke="black" stroke-opacity="0.1"/>
<path d="M1044 176H1102V234H1044V176Z" fill="#DD5823" fill-opacity="0.1" stroke="#DD5823"/>
<path d="M1044 234H1102V292H1044V234Z" stroke="black" stroke-opacity="0.1"/>
<path d="M1044 536H1102V594H1044V536Z" stroke="black" stroke-opacity="0.1"/>
<path d="M1102 118H1160V176H1102V118Z" stroke="black" stroke-opacity="0.1"/>
<path d="M1102 420H1160V478H1102V420Z" stroke="black" stroke-opacity="0.1"/>
<path d="M1102 176H1160V234H1102V176Z" fill="#DD5823" fill-opacity="0.1" stroke="#DD5823"/>
<path d="M1102 234H1160V292H1102V234Z" stroke="black" stroke-opacity="0.1"/>
<path d="M1102 536H1160V594H1102V536Z" stroke="black" stroke-opacity="0.1"/>
<path d="M1160 118H1218V176H1160V118Z" stroke="black" stroke-opacity="0.1"/>
<path d="M1160 420H1218V478H1160V420Z" stroke="black" stroke-opacity="0.1"/>
<path d="M1160 176H1218V234H1160V176Z" fill="#DD5823" fill-opacity="0.1" stroke="#DD5823"/>
<path d="M1160 234H1218V292H1160V234Z" stroke="black" stroke-opacity="0.1"/>
<path d="M1160 536H1218V594H1160V536Z" stroke="black" stroke-opacity="0.1"/>
<path d="M43.036 85V61.57H51.088C53.86 61.57 55.939 62.076 57.325 63.088C58.711 64.1 59.404 65.695 59.404 67.873C59.404 68.885 59.184 69.776 58.744 70.546C58.304 71.316 57.677 71.921 56.863 72.361C56.049 72.779 55.081 72.988 53.959 72.988L53.926 72.79C55.928 72.79 57.501 73.329 58.645 74.407C59.811 75.463 60.394 76.849 60.394 78.565C60.394 80.699 59.701 82.305 58.315 83.383C56.929 84.461 54.96 85 52.408 85H43.036ZM45.874 82.228H52.408C54.014 82.228 55.246 81.898 56.104 81.238C56.984 80.578 57.424 79.632 57.424 78.4C57.424 77.168 56.984 76.211 56.104 75.529C55.246 74.825 54.014 74.473 52.408 74.473H45.874V82.228ZM45.874 71.701H51.088C52.804 71.701 54.124 71.382 55.048 70.744C55.972 70.084 56.434 69.171 56.434 68.005C56.434 66.773 55.983 65.86 55.081 65.266C54.201 64.65 52.87 64.342 51.088 64.342H45.874V71.701ZM71.1762 85.396C69.5262 85.396 68.0962 85.022 66.8862 84.274C65.6982 83.526 64.7742 82.47 64.1142 81.106C63.4762 79.72 63.1572 78.103 63.1572 76.255C63.1572 74.407 63.4762 72.801 64.1142 71.437C64.7742 70.073 65.6872 69.017 66.8532 68.269C68.0412 67.499 69.4382 67.114 71.0442 67.114C72.5622 67.114 73.9042 67.477 75.0702 68.203C76.2362 68.907 77.1382 69.941 77.7762 71.305C78.4362 72.669 78.7662 74.33 78.7662 76.288V77.113H66.0612C66.1712 78.983 66.6662 80.391 67.5462 81.337C68.4482 82.283 69.6582 82.756 71.1762 82.756C72.3202 82.756 73.2552 82.492 73.9812 81.964C74.7292 81.414 75.2462 80.699 75.5322 79.819L78.5022 80.05C78.0402 81.612 77.1602 82.899 75.8622 83.911C74.5862 84.901 73.0242 85.396 71.1762 85.396ZM66.0612 74.671H75.7302C75.5982 72.977 75.1032 71.734 74.2452 70.942C73.4092 70.15 72.3422 69.754 71.0442 69.754C69.7022 69.754 68.5912 70.172 67.7112 71.008C66.8532 71.822 66.3032 73.043 66.0612 74.671ZM82.9003 85V65.926C82.9003 64.628 83.2743 63.583 84.0223 62.791C84.7703 61.977 85.9363 61.57 87.5203 61.57H90.2923V64.012H87.7183C87.0363 64.012 86.5193 64.199 86.1673 64.573C85.8373 64.947 85.6723 65.464 85.6723 66.124V85H82.9003ZM80.5243 69.952V67.51H90.0613V69.952H80.5243ZM98.9246 85.396C97.3186 85.396 95.9106 85.022 94.7006 84.274C93.4906 83.526 92.5556 82.47 91.8956 81.106C91.2356 79.72 90.9056 78.103 90.9056 76.255C90.9056 74.385 91.2356 72.768 91.8956 71.404C92.5556 70.04 93.4906 68.984 94.7006 68.236C95.9106 67.488 97.3186 67.114 98.9246 67.114C100.531 67.114 101.928 67.488 103.116 68.236C104.326 68.984 105.261 70.04 105.921 71.404C106.581 72.768 106.911 74.385 106.911 76.255C106.911 78.103 106.581 79.72 105.921 81.106C105.261 82.47 104.326 83.526 103.116 84.274C101.928 85.022 100.531 85.396 98.9246 85.396ZM98.9246 82.756C100.531 82.756 101.774 82.184 102.654 81.04C103.556 79.874 104.007 78.279 104.007 76.255C104.007 74.231 103.556 72.647 102.654 71.503C101.774 70.337 100.531 69.754 98.9246 69.754C97.3186 69.754 96.0646 70.337 95.1626 71.503C94.2606 72.647 93.8096 74.231 93.8096 76.255C93.8096 78.279 94.2606 79.874 95.1626 81.04C96.0646 82.184 97.3186 82.756 98.9246 82.756ZM110.028 85V67.51H112.47L112.602 71.932L112.338 71.833C112.558 70.337 113.031 69.248 113.757 68.566C114.505 67.862 115.495 67.51 116.727 67.51H118.443V70.15H116.76C115.88 70.15 115.143 70.315 114.549 70.645C113.977 70.953 113.537 71.426 113.229 72.064C112.943 72.68 112.8 73.472 112.8 74.44V85H110.028ZM127.382 85.396C125.732 85.396 124.302 85.022 123.092 84.274C121.904 83.526 120.98 82.47 120.32 81.106C119.682 79.72 119.363 78.103 119.363 76.255C119.363 74.407 119.682 72.801 120.32 71.437C120.98 70.073 121.893 69.017 123.059 68.269C124.247 67.499 125.644 67.114 127.25 67.114C128.768 67.114 130.11 67.477 131.276 68.203C132.442 68.907 133.344 69.941 133.982 71.305C134.642 72.669 134.972 74.33 134.972 76.288V77.113H122.267C122.377 78.983 122.872 80.391 123.752 81.337C124.654 82.283 125.864 82.756 127.382 82.756C128.526 82.756 129.461 82.492 130.187 81.964C130.935 81.414 131.452 80.699 131.738 79.819L134.708 80.05C134.246 81.612 133.366 82.899 132.068 83.911C130.792 84.901 129.23 85.396 127.382 85.396ZM122.267 74.671H131.936C131.804 72.977 131.309 71.734 130.451 70.942C129.615 70.15 128.548 69.754 127.25 69.754C125.908 69.754 124.797 70.172 123.917 71.008C123.059 71.822 122.509 73.043 122.267 74.671Z" fill="black"/>
<path d="M46.138 387L40.726 369.51H43.762L47.854 384.096L52.012 369.51H54.982L59.14 384.096L63.265 369.51H66.301L60.889 387H57.391L53.497 373.701L49.603 387H46.138ZM68.6958 387V369.51H71.4678V387H68.6958ZM68.6298 366.771V363.537H71.5338V366.771H68.6298ZM81.1732 387C79.5892 387 78.4122 386.637 77.6422 385.911C76.8942 385.185 76.5202 384.052 76.5202 382.512V365.418H79.2922V382.446C79.2922 383.238 79.4682 383.788 79.8202 384.096C80.1722 384.404 80.7112 384.558 81.4372 384.558H83.9452V387H81.1732ZM73.9462 371.952V369.51H83.9452V371.952H73.9462ZM86.8407 387V363.57H89.6127V373.371L89.2827 373.305C89.5027 372.337 89.8767 371.545 90.4047 370.929C90.9327 370.313 91.5817 369.862 92.3517 369.576C93.1217 369.268 93.9687 369.114 94.8927 369.114C96.1467 369.114 97.2027 369.4 98.0607 369.972C98.9407 370.522 99.6007 371.303 100.041 372.315C100.503 373.305 100.734 374.449 100.734 375.747V387H97.9617V376.539C97.9617 374.845 97.6537 373.591 97.0377 372.777C96.4437 371.963 95.5307 371.556 94.2987 371.556C92.8907 371.556 91.7577 371.985 90.8997 372.843C90.0417 373.701 89.6127 374.944 89.6127 376.572V387H86.8407ZM117.895 387V366.837H110.701V363.57H128.653V366.837H121.459V387H117.895ZM135.461 387.396C133.745 387.396 132.26 387.022 131.006 386.274C129.774 385.526 128.817 384.459 128.135 383.073C127.475 381.687 127.145 380.07 127.145 378.222C127.145 376.374 127.475 374.768 128.135 373.404C128.817 372.018 129.774 370.951 131.006 370.203C132.238 369.433 133.69 369.048 135.362 369.048C136.946 369.048 138.343 369.422 139.553 370.17C140.763 370.896 141.698 371.952 142.358 373.338C143.04 374.724 143.381 376.396 143.381 378.354V379.245H130.775C130.863 380.961 131.314 382.248 132.128 383.106C132.964 383.964 134.086 384.393 135.494 384.393C136.528 384.393 137.386 384.151 138.068 383.667C138.75 383.183 139.223 382.534 139.487 381.72L143.117 381.951C142.655 383.579 141.742 384.899 140.378 385.911C139.036 386.901 137.397 387.396 135.461 387.396ZM130.775 376.605H139.685C139.575 375.043 139.124 373.888 138.332 373.14C137.562 372.392 136.572 372.018 135.362 372.018C134.108 372.018 133.074 372.414 132.26 373.206C131.468 373.976 130.973 375.109 130.775 376.605ZM146.265 387V369.444H149.466L149.565 373.8L149.169 373.668C149.367 372.7 149.708 371.875 150.192 371.193C150.698 370.511 151.314 369.983 152.04 369.609C152.766 369.235 153.558 369.048 154.416 369.048C155.912 369.048 157.133 369.477 158.079 370.335C159.025 371.171 159.619 372.326 159.861 373.8H159.3C159.498 372.766 159.828 371.908 160.29 371.226C160.774 370.522 161.39 369.983 162.138 369.609C162.886 369.235 163.733 369.048 164.679 369.048C165.911 369.048 166.956 369.312 167.814 369.84C168.694 370.346 169.354 371.094 169.794 372.084C170.256 373.074 170.487 374.284 170.487 375.714V387H166.989V376.572C166.989 375.054 166.714 373.91 166.164 373.14C165.614 372.37 164.778 371.985 163.656 371.985C162.93 371.985 162.292 372.172 161.742 372.546C161.192 372.92 160.763 373.459 160.455 374.163C160.169 374.867 160.026 375.714 160.026 376.704V387H156.693V376.704C156.693 375.208 156.44 374.053 155.934 373.239C155.45 372.403 154.614 371.985 153.426 371.985C152.678 371.985 152.029 372.172 151.479 372.546C150.951 372.92 150.533 373.47 150.225 374.196C149.917 374.9 149.763 375.736 149.763 376.704V387H146.265ZM174.19 391.95V369.444H177.49L177.589 373.206L177.193 373.008C177.633 371.71 178.359 370.731 179.371 370.071C180.383 369.389 181.549 369.048 182.869 369.048C184.585 369.048 185.993 369.477 187.093 370.335C188.215 371.171 189.04 372.282 189.568 373.668C190.118 375.054 190.393 376.572 190.393 378.222C190.393 379.872 190.118 381.39 189.568 382.776C189.04 384.162 188.215 385.284 187.093 386.142C185.993 386.978 184.585 387.396 182.869 387.396C181.989 387.396 181.164 387.242 180.394 386.934C179.624 386.626 178.964 386.197 178.414 385.647C177.886 385.075 177.512 384.404 177.292 383.634L177.688 383.238V391.95H174.19ZM182.242 384.36C183.65 384.36 184.75 383.821 185.542 382.743C186.356 381.665 186.763 380.158 186.763 378.222C186.763 376.286 186.356 374.779 185.542 373.701C184.75 372.623 183.65 372.084 182.242 372.084C181.318 372.084 180.515 372.315 179.833 372.777C179.151 373.217 178.623 373.899 178.249 374.823C177.875 375.747 177.688 376.88 177.688 378.222C177.688 379.564 177.864 380.697 178.216 381.621C178.59 382.545 179.118 383.238 179.8 383.7C180.504 384.14 181.318 384.36 182.242 384.36ZM200.512 387.396C198.84 387.396 197.377 387.022 196.123 386.274C194.869 385.526 193.901 384.459 193.219 383.073C192.537 381.687 192.196 380.07 192.196 378.222C192.196 376.352 192.537 374.735 193.219 373.371C193.901 372.007 194.869 370.951 196.123 370.203C197.377 369.433 198.84 369.048 200.512 369.048C202.184 369.048 203.647 369.433 204.901 370.203C206.155 370.951 207.123 372.007 207.805 373.371C208.487 374.735 208.828 376.352 208.828 378.222C208.828 380.07 208.487 381.687 207.805 383.073C207.123 384.459 206.155 385.526 204.901 386.274C203.647 387.022 202.184 387.396 200.512 387.396ZM200.512 384.36C202.008 384.36 203.163 383.821 203.977 382.743C204.791 381.643 205.198 380.136 205.198 378.222C205.198 376.308 204.791 374.812 203.977 373.734C203.163 372.634 202.008 372.084 200.512 372.084C199.038 372.084 197.883 372.634 197.047 373.734C196.233 374.812 195.826 376.308 195.826 378.222C195.826 380.136 196.233 381.643 197.047 382.743C197.883 383.821 199.038 384.36 200.512 384.36Z" fill="black"/>
<path opacity="0.5" d="M997.036 85V61.57H1001L1008.49 81.898L1015.95 61.57H1019.91V85H1017.07V66.85L1010.37 85H1006.57L999.874 66.85V85H997.036ZM1029.32 85.396C1027.51 85.396 1026.07 84.978 1024.99 84.142C1023.94 83.306 1023.41 82.14 1023.41 80.644C1023.41 79.148 1023.85 77.971 1024.73 77.113C1025.61 76.255 1027.01 75.65 1028.92 75.298L1035.12 74.143C1035.12 72.669 1034.77 71.569 1034.07 70.843C1033.39 70.117 1032.35 69.754 1030.97 69.754C1029.76 69.754 1028.8 70.029 1028.1 70.579C1027.39 71.107 1026.91 71.877 1026.64 72.889L1023.71 72.658C1024.04 71.008 1024.83 69.677 1026.08 68.665C1027.36 67.631 1028.99 67.114 1030.97 67.114C1033.21 67.114 1034.93 67.752 1036.11 69.028C1037.3 70.282 1037.9 72.02 1037.9 74.242V81.469C1037.9 81.865 1037.96 82.151 1038.09 82.327C1038.25 82.481 1038.49 82.558 1038.82 82.558H1039.51V85C1039.43 85.022 1039.28 85.033 1039.08 85.033C1038.89 85.055 1038.68 85.066 1038.46 85.066C1037.67 85.066 1037.02 84.945 1036.51 84.703C1036.03 84.439 1035.67 84.043 1035.45 83.515C1035.23 82.965 1035.12 82.25 1035.12 81.37L1035.45 81.436C1035.3 82.184 1034.93 82.866 1034.33 83.482C1033.74 84.076 1033 84.549 1032.12 84.901C1031.24 85.231 1030.31 85.396 1029.32 85.396ZM1029.58 82.954C1030.75 82.954 1031.74 82.734 1032.55 82.294C1033.39 81.832 1034.02 81.216 1034.46 80.446C1034.9 79.654 1035.12 78.774 1035.12 77.806V76.552L1029.45 77.608C1028.26 77.828 1027.44 78.169 1026.97 78.631C1026.53 79.071 1026.31 79.654 1026.31 80.38C1026.31 81.194 1026.6 81.832 1027.17 82.294C1027.77 82.734 1028.57 82.954 1029.58 82.954ZM1041.98 85V67.51H1044.53L1044.62 71.965L1044.29 71.668C1044.51 70.634 1044.9 69.787 1045.45 69.127C1046 68.445 1046.66 67.939 1047.43 67.609C1048.22 67.279 1049.07 67.114 1049.97 67.114C1051.31 67.114 1052.41 67.411 1053.27 68.005C1054.15 68.599 1054.8 69.402 1055.22 70.414C1055.66 71.404 1055.88 72.515 1055.88 73.747V85H1053.11V74.539C1053.11 73.461 1052.97 72.559 1052.71 71.833C1052.47 71.085 1052.07 70.524 1051.52 70.15C1050.97 69.754 1050.26 69.556 1049.38 69.556C1048.03 69.556 1046.92 69.985 1046.04 70.843C1045.19 71.679 1044.76 72.911 1044.76 74.539V85H1041.98ZM1060.13 89.95V87.508H1062.14C1062.76 87.508 1063.21 87.409 1063.5 87.211C1063.8 87.035 1064.03 86.738 1064.19 86.32L1064.82 84.67H1063.86L1057.46 67.51H1060.49L1065.71 82.096L1070.69 67.51H1073.73L1066.63 87.211C1066.3 88.157 1065.81 88.85 1065.15 89.29C1064.49 89.73 1063.57 89.95 1062.41 89.95H1060.13ZM1090.23 85.396C1088.71 85.396 1087.39 85.022 1086.27 84.274C1085.17 83.526 1084.32 82.47 1083.73 81.106C1083.13 79.742 1082.84 78.125 1082.84 76.255C1082.84 74.385 1083.13 72.768 1083.73 71.404C1084.32 70.04 1085.17 68.984 1086.27 68.236C1087.39 67.488 1088.71 67.114 1090.23 67.114C1091.4 67.114 1092.46 67.367 1093.43 67.873C1094.4 68.357 1095.12 69.05 1095.61 69.952V61.57H1098.38V85H1095.87L1095.77 82.36C1095.29 83.306 1094.55 84.054 1093.56 84.604C1092.57 85.132 1091.46 85.396 1090.23 85.396ZM1090.79 82.756C1091.82 82.756 1092.69 82.492 1093.4 81.964C1094.12 81.436 1094.67 80.688 1095.05 79.72C1095.42 78.73 1095.61 77.575 1095.61 76.255C1095.61 74.891 1095.42 73.725 1095.05 72.757C1094.67 71.789 1094.12 71.052 1093.4 70.546C1092.69 70.018 1091.82 69.754 1090.79 69.754C1089.25 69.754 1088.02 70.337 1087.09 71.503C1086.19 72.647 1085.74 74.231 1085.74 76.255C1085.74 78.257 1086.19 79.841 1087.09 81.007C1088.02 82.173 1089.25 82.756 1090.79 82.756ZM1107.39 85.396C1105.58 85.396 1104.14 84.978 1103.07 84.142C1102.01 83.306 1101.48 82.14 1101.48 80.644C1101.48 79.148 1101.92 77.971 1102.8 77.113C1103.68 76.255 1105.08 75.65 1106.99 75.298L1113.2 74.143C1113.2 72.669 1112.84 71.569 1112.14 70.843C1111.46 70.117 1110.42 69.754 1109.04 69.754C1107.83 69.754 1106.87 70.029 1106.17 70.579C1105.46 71.107 1104.98 71.877 1104.72 72.889L1101.78 72.658C1102.11 71.008 1102.9 69.677 1104.15 68.665C1105.43 67.631 1107.06 67.114 1109.04 67.114C1111.28 67.114 1113 67.752 1114.19 69.028C1115.37 70.282 1115.97 72.02 1115.97 74.242V81.469C1115.97 81.865 1116.03 82.151 1116.17 82.327C1116.32 82.481 1116.56 82.558 1116.89 82.558H1117.59V85C1117.5 85.022 1117.35 85.033 1117.16 85.033C1116.96 85.055 1116.75 85.066 1116.53 85.066C1115.74 85.066 1115.09 84.945 1114.58 84.703C1114.1 84.439 1113.75 84.043 1113.53 83.515C1113.31 82.965 1113.2 82.25 1113.2 81.37L1113.53 81.436C1113.37 82.184 1113 82.866 1112.4 83.482C1111.81 84.076 1111.07 84.549 1110.19 84.901C1109.31 85.231 1108.38 85.396 1107.39 85.396ZM1107.65 82.954C1108.82 82.954 1109.81 82.734 1110.62 82.294C1111.46 81.832 1112.1 81.216 1112.54 80.446C1112.98 79.654 1113.2 78.774 1113.2 77.806V76.552L1107.52 77.608C1106.33 77.828 1105.51 78.169 1105.05 78.631C1104.61 79.071 1104.39 79.654 1104.39 80.38C1104.39 81.194 1104.67 81.832 1105.24 82.294C1105.84 82.734 1106.64 82.954 1107.65 82.954ZM1120.14 89.95V87.508H1122.15C1122.77 87.508 1123.22 87.409 1123.5 87.211C1123.81 87.035 1124.04 86.738 1124.2 86.32L1124.82 84.67H1123.87L1117.47 67.51H1120.5L1125.72 82.096L1130.7 67.51H1133.73L1126.64 87.211C1126.31 88.157 1125.81 88.85 1125.15 89.29C1124.49 89.73 1123.58 89.95 1122.42 89.95H1120.14ZM1141.94 85.396C1140.38 85.396 1139.05 85.143 1137.95 84.637C1136.87 84.131 1136.02 83.438 1135.41 82.558C1134.81 81.656 1134.47 80.633 1134.39 79.489L1137.29 79.291C1137.47 80.347 1137.92 81.194 1138.64 81.832C1139.37 82.448 1140.47 82.756 1141.94 82.756C1143.13 82.756 1144.08 82.569 1144.78 82.195C1145.51 81.799 1145.87 81.172 1145.87 80.314C1145.87 79.852 1145.76 79.467 1145.54 79.159C1145.32 78.851 1144.89 78.587 1144.25 78.367C1143.61 78.125 1142.67 77.894 1141.41 77.674C1139.74 77.366 1138.42 76.992 1137.45 76.552C1136.51 76.09 1135.83 75.529 1135.41 74.869C1135.01 74.187 1134.81 73.384 1134.81 72.46C1134.81 70.898 1135.39 69.622 1136.53 68.632C1137.67 67.62 1139.3 67.114 1141.41 67.114C1142.84 67.114 1144.04 67.378 1145.01 67.906C1146 68.412 1146.77 69.094 1147.32 69.952C1147.89 70.788 1148.27 71.712 1148.44 72.724L1145.54 72.922C1145.41 72.306 1145.17 71.767 1144.81 71.305C1144.46 70.821 1144 70.447 1143.43 70.183C1142.86 69.897 1142.17 69.754 1141.38 69.754C1140.13 69.754 1139.2 69.996 1138.61 70.48C1138.02 70.964 1137.72 71.58 1137.72 72.328C1137.72 72.9 1137.85 73.373 1138.11 73.747C1138.4 74.099 1138.85 74.396 1139.47 74.638C1140.08 74.858 1140.91 75.056 1141.94 75.232C1143.72 75.54 1145.11 75.914 1146.1 76.354C1147.09 76.794 1147.78 77.333 1148.18 77.971C1148.58 78.609 1148.77 79.39 1148.77 80.314C1148.77 81.392 1148.47 82.316 1147.85 83.086C1147.26 83.834 1146.44 84.406 1145.41 84.802C1144.4 85.198 1143.24 85.396 1141.94 85.396Z" fill="black"/>
<path opacity="0.5" d="M1100.69 387V366.342H1093.4V363.57H1110.82V366.342H1103.53V387H1100.69ZM1118.47 385.152V369.378H1121.04V385.152H1118.47ZM1111.87 378.552V375.978H1127.64V378.552H1111.87ZM1139.21 387.528C1137.32 387.528 1135.68 387.033 1134.3 386.043C1132.91 385.053 1131.83 383.645 1131.06 381.819C1130.31 379.993 1129.94 377.826 1129.94 375.318C1129.94 372.81 1130.31 370.643 1131.06 368.817C1131.83 366.969 1132.91 365.55 1134.3 364.56C1135.68 363.548 1137.32 363.042 1139.21 363.042C1141.13 363.042 1142.78 363.548 1144.16 364.56C1145.55 365.55 1146.62 366.958 1147.36 368.784C1148.13 370.61 1148.52 372.788 1148.52 375.318C1148.52 377.826 1148.13 379.993 1147.36 381.819C1146.62 383.645 1145.55 385.053 1144.16 386.043C1142.78 387.033 1141.13 387.528 1139.21 387.528ZM1139.21 384.756C1141.24 384.756 1142.8 383.942 1143.9 382.314C1145 380.664 1145.55 378.332 1145.55 375.318C1145.55 373.294 1145.3 371.578 1144.79 370.17C1144.31 368.74 1143.59 367.662 1142.64 366.936C1141.72 366.188 1140.58 365.814 1139.21 365.814C1137.87 365.814 1136.73 366.188 1135.78 366.936C1134.86 367.662 1134.14 368.74 1133.64 370.17C1133.15 371.578 1132.91 373.294 1132.91 375.318C1132.91 378.332 1133.46 380.664 1134.56 382.314C1135.66 383.942 1137.21 384.756 1139.21 384.756Z" fill="black"/>
</g>
<defs>
<linearGradient id="paint0_linear_577_6711" x1="600" y1="0" x2="600" y2="129" gradientUnits="userSpaceOnUse">
<stop stop-color="white"/>
<stop offset="1" stop-color="white" stop-opacity="0"/>
</linearGradient>
<linearGradient id="paint1_linear_577_6711" x1="600" y1="0" x2="600" y2="129" gradientUnits="userSpaceOnUse">
<stop stop-color="white"/>
<stop offset="1" stop-color="white" stop-opacity="0"/>
</linearGradient>
<linearGradient id="paint2_linear_577_6711" x1="600" y1="302" x2="600" y2="431" gradientUnits="userSpaceOnUse">
<stop stop-color="white"/>
<stop offset="1" stop-color="white" stop-opacity="0"/>
</linearGradient>
<linearGradient id="paint3_linear_577_6711" x1="-1.47526e-05" y1="337.5" x2="100" y2="337.5" gradientUnits="userSpaceOnUse">
<stop stop-color="white"/>
<stop offset="1" stop-color="white" stop-opacity="0"/>
</linearGradient>
<linearGradient id="paint4_linear_577_6711" x1="1200" y1="337.5" x2="1118" y2="337.5" gradientUnits="userSpaceOnUse">
<stop stop-color="white"/>
<stop offset="1" stop-color="white" stop-opacity="0"/>
</linearGradient>
<clipPath id="clip0_577_6711">
<rect width="1200" height="675" fill="white"/>
</clipPath>
</defs>
</svg>
