<svg width="1200" height="675" viewBox="0 0 1200 675" fill="none" xmlns="http://www.w3.org/2000/svg">
<g clip-path="url(#clip0_515_21173)">
<rect width="1200" height="675" fill="white"/>
<rect x="742" y="99" width="630" height="382" rx="15" fill="#D9D9D9"/>
<rect x="757" y="113" width="600" height="353" rx="9" fill="white"/>
<path d="M223 486C223 459.49 244.49 438 271 438H436C462.51 438 484 459.49 484 486V705H223V486Z" fill="#D9D9D9"/>
<path d="M237 488C237 470.327 251.327 456 269 456H438C455.673 456 470 470.327 470 488V732H237V488Z" fill="white"/>
<path d="M148 4C148 -9.25484 158.745 -20 172 -20H345C358.255 -20 369 -9.25484 369 4V305C369 318.255 358.255 329 345 329H172C158.745 329 148 318.255 148 305V4Z" fill="#D9D9D9"/>
<rect opacity="0.3" x="252" y="507" width="206" height="138" rx="12" fill="#D9D9D9"/>
<path d="M164 30C164 20.0589 172.059 12 182 12H333C342.941 12 351 20.0589 351 30V175C351 184.941 342.941 193 333 193H182C172.059 193 164 184.941 164 175V30Z" fill="white"/>
<rect x="170" y="208" width="52" height="16" rx="8" fill="#C3C3C3"/>
<rect x="170" y="233" width="52" height="16" rx="8" fill="#C3C3C3"/>
<rect x="170" y="258" width="52" height="16" rx="8" fill="#C3C3C3"/>
<rect x="233" y="208" width="52" height="16" rx="8" fill="#C3C3C3"/>
<rect x="233" y="233" width="52" height="16" rx="8" fill="#C3C3C3"/>
<rect x="233" y="258" width="52" height="16" rx="8" fill="#C3C3C3"/>
<rect x="170" y="285" width="85" height="26" rx="8" fill="#C3C3C3"/>
<rect opacity="0.3" x="905" y="372" width="83" height="22" rx="8" fill="#C3C3C3"/>
<rect x="264" y="285" width="84" height="26" rx="8" fill="#C3C3C3"/>
<rect opacity="0.3" x="996" y="372" width="82" height="22" rx="8" fill="#C3C3C3"/>
<rect x="296" y="208" width="51" height="16" rx="8" fill="#C3C3C3"/>
<rect x="296" y="233" width="51" height="16" rx="8" fill="#C3C3C3"/>
<rect x="296" y="258" width="51" height="16" rx="8" fill="#C3C3C3"/>
<path d="M204.5 70L210.9 52.25H214.325L220.725 70H217.85L216.225 65.375H208.975L207.375 70H204.5ZM209.825 62.925H215.4L212.6 54.825L209.825 62.925ZM227.348 70.3C226.215 70.3 225.223 70.0167 224.373 69.45C223.54 68.8833 222.898 68.0833 222.448 67.05C222.015 66 221.798 64.7667 221.798 63.35C221.798 61.9333 222.023 60.7083 222.473 59.675C222.923 58.625 223.565 57.8167 224.398 57.25C225.231 56.6833 226.215 56.4 227.348 56.4C228.265 56.4 229.081 56.5917 229.798 56.975C230.515 57.3583 231.056 57.8917 231.423 58.575V52.25H234.073V70H231.598L231.523 68C231.156 68.7167 230.598 69.2833 229.848 69.7C229.115 70.1 228.281 70.3 227.348 70.3ZM228.048 68C228.765 68 229.373 67.8167 229.873 67.45C230.373 67.0833 230.756 66.55 231.023 65.85C231.29 65.15 231.423 64.3167 231.423 63.35C231.423 62.35 231.29 61.5083 231.023 60.825C230.756 60.125 230.373 59.6 229.873 59.25C229.373 58.8833 228.765 58.7 228.048 58.7C226.981 58.7 226.131 59.1167 225.498 59.95C224.865 60.7667 224.548 61.9 224.548 63.35C224.548 64.7833 224.865 65.9167 225.498 66.75C226.131 67.5833 226.981 68 228.048 68ZM242.314 70.3C241.181 70.3 240.189 70.0167 239.339 69.45C238.506 68.8833 237.864 68.0833 237.414 67.05C236.981 66 236.764 64.7667 236.764 63.35C236.764 61.9333 236.989 60.7083 237.439 59.675C237.889 58.625 238.531 57.8167 239.364 57.25C240.197 56.6833 241.181 56.4 242.314 56.4C243.231 56.4 244.047 56.5917 244.764 56.975C245.481 57.3583 246.022 57.8917 246.389 58.575V52.25H249.039V70H246.564L246.489 68C246.122 68.7167 245.564 69.2833 244.814 69.7C244.081 70.1 243.247 70.3 242.314 70.3ZM243.014 68C243.731 68 244.339 67.8167 244.839 67.45C245.339 67.0833 245.722 66.55 245.989 65.85C246.256 65.15 246.389 64.3167 246.389 63.35C246.389 62.35 246.256 61.5083 245.989 60.825C245.722 60.125 245.339 59.6 244.839 59.25C244.339 58.8833 243.731 58.7 243.014 58.7C241.947 58.7 241.097 59.1167 240.464 59.95C239.831 60.7667 239.514 61.9 239.514 63.35C239.514 64.7833 239.831 65.9167 240.464 66.75C241.097 67.5833 241.947 68 243.014 68ZM262.603 70.3C261.22 70.3 260.111 69.9833 259.278 69.35C258.461 68.7167 258.053 67.825 258.053 66.675C258.053 65.525 258.395 64.6333 259.078 64C259.778 63.35 260.853 62.8833 262.303 62.6L266.878 61.725C266.878 60.6917 266.636 59.925 266.153 59.425C265.67 58.9083 264.953 58.65 264.003 58.65C263.153 58.65 262.486 58.8417 262.003 59.225C261.52 59.5917 261.186 60.1417 261.003 60.875L258.278 60.7C258.528 59.3667 259.145 58.3167 260.128 57.55C261.128 56.7833 262.42 56.4 264.003 56.4C265.803 56.4 267.17 56.8833 268.103 57.85C269.053 58.8 269.528 60.1417 269.528 61.875V67.05C269.528 67.3667 269.578 67.5917 269.678 67.725C269.795 67.8417 269.978 67.9 270.228 67.9H270.703V70C270.62 70.0167 270.486 70.0333 270.303 70.05C270.12 70.0667 269.928 70.075 269.728 70.075C269.161 70.075 268.67 69.9833 268.253 69.8C267.853 69.6167 267.553 69.3167 267.353 68.9C267.153 68.4667 267.053 67.8917 267.053 67.175L267.328 67.3C267.195 67.8833 266.903 68.4 266.453 68.85C266.02 69.3 265.461 69.6583 264.778 69.925C264.111 70.175 263.386 70.3 262.603 70.3ZM263.028 68.2C263.828 68.2 264.511 68.05 265.078 67.75C265.645 67.4333 266.086 67 266.403 66.45C266.72 65.9 266.878 65.275 266.878 64.575V63.725L262.978 64.475C262.178 64.625 261.611 64.8667 261.278 65.2C260.961 65.5167 260.803 65.925 260.803 66.425C260.803 66.9917 260.995 67.4333 261.378 67.75C261.778 68.05 262.328 68.2 263.028 68.2ZM284.193 70C282.926 70 281.993 69.7083 281.393 69.125C280.793 68.5417 280.493 67.6333 280.493 66.4V53.575H283.143V66.2C283.143 66.8167 283.276 67.2417 283.543 67.475C283.809 67.7083 284.218 67.825 284.768 67.825H286.668V70H284.193ZM278.468 58.875V56.7H286.668V58.875H278.468ZM289.2 70V56.7H291.85V70H289.2ZM289.15 54.775V52.125H291.9V54.775H289.15ZM295.816 73.75V56.7H298.316L298.391 59.55L298.091 59.4C298.425 58.4167 298.975 57.675 299.741 57.175C300.508 56.6583 301.391 56.4 302.391 56.4C303.691 56.4 304.758 56.725 305.591 57.375C306.441 58.0083 307.066 58.85 307.466 59.9C307.883 60.95 308.091 62.1 308.091 63.35C308.091 64.6 307.883 65.75 307.466 66.8C307.066 67.85 306.441 68.7 305.591 69.35C304.758 69.9833 303.691 70.3 302.391 70.3C301.725 70.3 301.1 70.1833 300.516 69.95C299.933 69.7167 299.433 69.3917 299.016 68.975C298.616 68.5417 298.333 68.0333 298.166 67.45L298.466 67.15V73.75H295.816ZM301.916 68C302.983 68 303.816 67.5917 304.416 66.775C305.033 65.9583 305.341 64.8167 305.341 63.35C305.341 61.8833 305.033 60.7417 304.416 59.925C303.816 59.1083 302.983 58.7 301.916 58.7C301.216 58.7 300.608 58.875 300.091 59.225C299.575 59.5583 299.175 60.075 298.891 60.775C298.608 61.475 298.466 62.3333 298.466 63.35C298.466 64.3667 298.6 65.225 298.866 65.925C299.15 66.625 299.55 67.15 300.066 67.5C300.6 67.8333 301.216 68 301.916 68Z" fill="black"/>
<path opacity="0.33" d="M196.712 97.272C195.783 97.272 194.972 97.0963 194.281 96.745C193.59 96.3937 193.04 95.912 192.632 95.3C192.235 94.6767 192.003 93.957 191.935 93.141L193.465 93.039C193.544 93.6397 193.72 94.1497 193.992 94.569C194.264 94.9883 194.627 95.3057 195.08 95.521C195.545 95.7363 196.1 95.844 196.746 95.844C197.313 95.844 197.794 95.7703 198.191 95.623C198.588 95.4757 198.888 95.2603 199.092 94.977C199.307 94.6937 199.415 94.348 199.415 93.94C199.415 93.566 199.324 93.2373 199.143 92.954C198.973 92.6593 198.639 92.393 198.14 92.155C197.653 91.9057 196.927 91.662 195.964 91.424C195.035 91.186 194.292 90.9253 193.737 90.642C193.193 90.3587 192.796 90.013 192.547 89.605C192.309 89.197 192.19 88.6927 192.19 88.092C192.19 87.412 192.349 86.817 192.666 86.307C192.995 85.7857 193.459 85.3833 194.06 85.1C194.661 84.8053 195.375 84.658 196.202 84.658C197.086 84.658 197.845 84.828 198.48 85.168C199.115 85.4967 199.619 85.95 199.993 86.528C200.367 87.106 200.599 87.7633 200.69 88.5L199.16 88.602C199.092 88.1147 198.933 87.684 198.684 87.31C198.446 86.9247 198.117 86.6243 197.698 86.409C197.279 86.1937 196.769 86.086 196.168 86.086C195.42 86.086 194.825 86.2673 194.383 86.63C193.941 86.9813 193.72 87.446 193.72 88.024C193.72 88.398 193.805 88.7097 193.975 88.959C194.156 89.197 194.474 89.4123 194.927 89.605C195.38 89.7863 196.032 89.9847 196.882 90.2C197.891 90.4493 198.69 90.7497 199.279 91.101C199.88 91.441 200.305 91.8377 200.554 92.291C200.815 92.7443 200.945 93.26 200.945 93.838C200.945 94.5407 200.764 95.1527 200.401 95.674C200.038 96.184 199.54 96.5807 198.905 96.864C198.27 97.136 197.539 97.272 196.712 97.272ZM206.985 97.204C206.135 97.204 205.399 97.0113 204.775 96.626C204.163 96.2407 203.687 95.6967 203.347 94.994C203.019 94.28 202.854 93.447 202.854 92.495C202.854 91.543 203.019 90.7157 203.347 90.013C203.687 89.3103 204.158 88.7663 204.758 88.381C205.37 87.9843 206.09 87.786 206.917 87.786C207.699 87.786 208.391 87.973 208.991 88.347C209.592 88.7097 210.057 89.2423 210.385 89.945C210.725 90.6477 210.895 91.5033 210.895 92.512V92.937H204.35C204.407 93.9003 204.662 94.6257 205.115 95.113C205.58 95.6003 206.203 95.844 206.985 95.844C207.575 95.844 208.056 95.708 208.43 95.436C208.816 95.1527 209.082 94.7843 209.229 94.331L210.759 94.45C210.521 95.2547 210.068 95.9177 209.399 96.439C208.742 96.949 207.937 97.204 206.985 97.204ZM204.35 91.679H209.331C209.263 90.8063 209.008 90.166 208.566 89.758C208.136 89.35 207.586 89.146 206.917 89.146C206.226 89.146 205.654 89.3613 205.2 89.792C204.758 90.2113 204.475 90.8403 204.35 91.679ZM214.681 97C214.159 97 213.734 96.864 213.406 96.592C213.077 96.32 212.913 95.8893 212.913 95.3V84.93H214.341V95.181C214.341 95.3623 214.386 95.504 214.477 95.606C214.579 95.6967 214.72 95.742 214.902 95.742H215.684V97H214.681ZM220.864 97.204C220.014 97.204 219.278 97.0113 218.654 96.626C218.042 96.2407 217.566 95.6967 217.226 94.994C216.898 94.28 216.733 93.447 216.733 92.495C216.733 91.543 216.898 90.7157 217.226 90.013C217.566 89.3103 218.037 88.7663 218.637 88.381C219.249 87.9843 219.969 87.786 220.796 87.786C221.578 87.786 222.27 87.973 222.87 88.347C223.471 88.7097 223.936 89.2423 224.264 89.945C224.604 90.6477 224.774 91.5033 224.774 92.512V92.937H218.229C218.286 93.9003 218.541 94.6257 218.994 95.113C219.459 95.6003 220.082 95.844 220.864 95.844C221.454 95.844 221.935 95.708 222.309 95.436C222.695 95.1527 222.961 94.7843 223.108 94.331L224.638 94.45C224.4 95.2547 223.947 95.9177 223.278 96.439C222.621 96.949 221.816 97.204 220.864 97.204ZM218.229 91.679H223.21C223.142 90.8063 222.887 90.166 222.445 89.758C222.015 89.35 221.465 89.146 220.796 89.146C220.105 89.146 219.533 89.3613 219.079 89.792C218.637 90.2113 218.354 90.8403 218.229 91.679ZM230.228 97.204C229.389 97.204 228.658 97.0113 228.035 96.626C227.423 96.2407 226.947 95.6967 226.607 94.994C226.267 94.28 226.097 93.447 226.097 92.495C226.097 91.543 226.267 90.7157 226.607 90.013C226.947 89.3103 227.423 88.7663 228.035 88.381C228.658 87.9843 229.389 87.786 230.228 87.786C230.919 87.786 231.531 87.9107 232.064 88.16C232.608 88.398 233.05 88.7493 233.39 89.214C233.73 89.6787 233.951 90.2453 234.053 90.914L232.557 91.016C232.455 90.4153 232.194 89.9563 231.775 89.639C231.355 89.3103 230.84 89.146 230.228 89.146C229.4 89.146 228.754 89.4463 228.29 90.047C227.825 90.6363 227.593 91.4523 227.593 92.495C227.593 93.5377 227.825 94.3593 228.29 94.96C228.754 95.5493 229.4 95.844 230.228 95.844C230.84 95.844 231.355 95.674 231.775 95.334C232.194 94.994 232.455 94.484 232.557 93.804L234.053 93.906C233.951 94.5747 233.73 95.1583 233.39 95.657C233.05 96.1443 232.608 96.524 232.064 96.796C231.531 97.068 230.919 97.204 230.228 97.204ZM238.772 97C237.956 97 237.35 96.813 236.953 96.439C236.568 96.065 236.375 95.4813 236.375 94.688V85.882H237.803V94.654C237.803 95.062 237.894 95.3453 238.075 95.504C238.257 95.6627 238.534 95.742 238.908 95.742H240.2V97H238.772ZM235.049 89.248V87.99H240.2V89.248H235.049ZM248.812 97.204C247.883 97.204 247.141 96.9887 246.585 96.558C246.041 96.1273 245.769 95.5267 245.769 94.756C245.769 93.9853 245.996 93.379 246.449 92.937C246.903 92.495 247.622 92.1833 248.608 92.002L251.804 91.407C251.804 90.6477 251.623 90.081 251.26 89.707C250.909 89.333 250.376 89.146 249.662 89.146C249.039 89.146 248.546 89.2877 248.183 89.571C247.821 89.843 247.571 90.2397 247.435 90.761L245.922 90.642C246.092 89.792 246.5 89.1063 247.146 88.585C247.804 88.0523 248.642 87.786 249.662 87.786C250.818 87.786 251.702 88.1147 252.314 88.772C252.926 89.418 253.232 90.3133 253.232 91.458V95.181C253.232 95.385 253.266 95.5323 253.334 95.623C253.414 95.7023 253.538 95.742 253.708 95.742H254.065V97C254.02 97.0113 253.946 97.017 253.844 97.017C253.742 97.0283 253.635 97.034 253.521 97.034C253.113 97.034 252.779 96.9717 252.518 96.847C252.269 96.711 252.088 96.507 251.974 96.235C251.861 95.9517 251.804 95.5833 251.804 95.13L251.974 95.164C251.895 95.5493 251.702 95.9007 251.396 96.218C251.09 96.524 250.711 96.7677 250.257 96.949C249.804 97.119 249.322 97.204 248.812 97.204ZM248.948 95.946C249.549 95.946 250.059 95.8327 250.478 95.606C250.909 95.368 251.238 95.0507 251.464 94.654C251.691 94.246 251.804 93.7927 251.804 93.294V92.648L248.88 93.192C248.268 93.3053 247.843 93.481 247.605 93.719C247.379 93.9457 247.265 94.246 247.265 94.62C247.265 95.0393 247.413 95.368 247.707 95.606C248.013 95.8327 248.427 95.946 248.948 95.946ZM255.678 97V87.99H256.987L257.038 90.285L256.868 90.132C256.982 89.5993 257.18 89.163 257.463 88.823C257.747 88.4717 258.087 88.211 258.483 88.041C258.891 87.871 259.328 87.786 259.792 87.786C260.484 87.786 261.05 87.939 261.492 88.245C261.946 88.551 262.28 88.9647 262.495 89.486C262.722 89.996 262.835 90.5683 262.835 91.203V97H261.407V91.611C261.407 91.0557 261.339 90.591 261.203 90.217C261.079 89.8317 260.875 89.5427 260.591 89.35C260.308 89.146 259.94 89.044 259.486 89.044C258.795 89.044 258.223 89.265 257.769 89.707C257.327 90.1377 257.106 90.7723 257.106 91.611V97H255.678ZM272.237 97.204C271.308 97.204 270.566 96.9887 270.01 96.558C269.466 96.1273 269.194 95.5267 269.194 94.756C269.194 93.9853 269.421 93.379 269.874 92.937C270.328 92.495 271.047 92.1833 272.033 92.002L275.229 91.407C275.229 90.6477 275.048 90.081 274.685 89.707C274.334 89.333 273.801 89.146 273.087 89.146C272.464 89.146 271.971 89.2877 271.608 89.571C271.246 89.843 270.996 90.2397 270.86 90.761L269.347 90.642C269.517 89.792 269.925 89.1063 270.571 88.585C271.229 88.0523 272.067 87.786 273.087 87.786C274.243 87.786 275.127 88.1147 275.739 88.772C276.351 89.418 276.657 90.3133 276.657 91.458V95.181C276.657 95.385 276.691 95.5323 276.759 95.623C276.839 95.7023 276.963 95.742 277.133 95.742H277.49V97C277.445 97.0113 277.371 97.017 277.269 97.017C277.167 97.0283 277.06 97.034 276.946 97.034C276.538 97.034 276.204 96.9717 275.943 96.847C275.694 96.711 275.513 96.507 275.399 96.235C275.286 95.9517 275.229 95.5833 275.229 95.13L275.399 95.164C275.32 95.5493 275.127 95.9007 274.821 96.218C274.515 96.524 274.136 96.7677 273.682 96.949C273.229 97.119 272.747 97.204 272.237 97.204ZM272.373 95.946C272.974 95.946 273.484 95.8327 273.903 95.606C274.334 95.368 274.663 95.0507 274.889 94.654C275.116 94.246 275.229 93.7927 275.229 93.294V92.648L272.305 93.192C271.693 93.3053 271.268 93.481 271.03 93.719C270.804 93.9457 270.69 94.246 270.69 94.62C270.69 95.0393 270.838 95.368 271.132 95.606C271.438 95.8327 271.852 95.946 272.373 95.946ZM279.103 97V87.99H280.412L280.463 90.268L280.259 90.2C280.361 89.7013 280.537 89.2763 280.786 88.925C281.047 88.5623 281.364 88.2847 281.738 88.092C282.112 87.888 282.526 87.786 282.979 87.786C283.761 87.786 284.396 88.0013 284.883 88.432C285.382 88.8627 285.693 89.4633 285.818 90.234L285.546 90.217C285.637 89.6957 285.801 89.2593 286.039 88.908C286.288 88.5453 286.606 88.2677 286.991 88.075C287.376 87.8823 287.818 87.786 288.317 87.786C288.963 87.786 289.507 87.922 289.949 88.194C290.391 88.4547 290.725 88.84 290.952 89.35C291.179 89.86 291.292 90.4777 291.292 91.203V97H289.864V91.509C289.864 90.693 289.705 90.081 289.388 89.673C289.071 89.2537 288.6 89.044 287.977 89.044C287.558 89.044 287.189 89.146 286.872 89.35C286.566 89.554 286.328 89.8487 286.158 90.234C285.988 90.608 285.903 91.067 285.903 91.611V97H284.475V91.611C284.475 90.8063 284.333 90.1773 284.05 89.724C283.767 89.2707 283.291 89.044 282.622 89.044C282.203 89.044 281.834 89.146 281.517 89.35C281.211 89.554 280.967 89.8487 280.786 90.234C280.616 90.6193 280.531 91.0783 280.531 91.611V97H279.103ZM297.331 97.204C296.504 97.204 295.778 97.0113 295.155 96.626C294.532 96.2407 294.05 95.6967 293.71 94.994C293.37 94.28 293.2 93.447 293.2 92.495C293.2 91.5317 293.37 90.6987 293.71 89.996C294.05 89.2933 294.532 88.7493 295.155 88.364C295.778 87.9787 296.504 87.786 297.331 87.786C298.158 87.786 298.878 87.9787 299.49 88.364C300.113 88.7493 300.595 89.2933 300.935 89.996C301.275 90.6987 301.445 91.5317 301.445 92.495C301.445 93.447 301.275 94.28 300.935 94.994C300.595 95.6967 300.113 96.2407 299.49 96.626C298.878 97.0113 298.158 97.204 297.331 97.204ZM297.331 95.844C298.158 95.844 298.799 95.5493 299.252 94.96C299.717 94.3593 299.949 93.5377 299.949 92.495C299.949 91.4523 299.717 90.6363 299.252 90.047C298.799 89.4463 298.158 89.146 297.331 89.146C296.504 89.146 295.858 89.4463 295.393 90.047C294.928 90.6363 294.696 91.4523 294.696 92.495C294.696 93.5377 294.928 94.3593 295.393 94.96C295.858 95.5493 296.504 95.844 297.331 95.844ZM306.349 97.204C305.454 97.204 304.734 96.9037 304.19 96.303C303.658 95.691 303.391 94.8523 303.391 93.787V87.99H304.819V93.396C304.819 94.2687 304.972 94.9147 305.278 95.334C305.596 95.742 306.077 95.946 306.723 95.946C307.437 95.946 307.998 95.7193 308.406 95.266C308.814 94.8013 309.018 94.1667 309.018 93.362V87.99H310.446V97H309.086V94.773L309.307 94.892C309.126 95.6287 308.78 96.201 308.27 96.609C307.76 97.0057 307.12 97.204 306.349 97.204ZM313.17 97V87.99H314.479L314.53 90.285L314.36 90.132C314.473 89.5993 314.671 89.163 314.955 88.823C315.238 88.4717 315.578 88.211 315.975 88.041C316.383 87.871 316.819 87.786 317.284 87.786C317.975 87.786 318.542 87.939 318.984 88.245C319.437 88.551 319.771 88.9647 319.987 89.486C320.213 89.996 320.327 90.5683 320.327 91.203V97H318.899V91.611C318.899 91.0557 318.831 90.591 318.695 90.217C318.57 89.8317 318.366 89.5427 318.083 89.35C317.799 89.146 317.431 89.044 316.978 89.044C316.286 89.044 315.714 89.265 315.261 89.707C314.819 90.1377 314.598 90.7723 314.598 91.611V97H313.17ZM325.665 97C324.849 97 324.243 96.813 323.846 96.439C323.461 96.065 323.268 95.4813 323.268 94.688V85.882H324.696V94.654C324.696 95.062 324.787 95.3453 324.968 95.504C325.149 95.6627 325.427 95.742 325.801 95.742H327.093V97H325.665ZM321.942 89.248V87.99H327.093V89.248H321.942Z" fill="black"/>
<rect x="183" y="116" width="150" height="25" rx="12.5" fill="#EDEDED"/>
<rect x="247" y="149" width="86" height="25" rx="12.5" fill="#EDEDED"/>
<rect x="183" y="149" width="57" height="25" rx="12.5" fill="#EDEDED"/>
<rect width="1200" height="129" fill="url(#paint0_linear_515_21173)"/>
<rect width="1200" height="129" transform="matrix(1 0 0 -1 0 675)" fill="url(#paint1_linear_515_21173)"/>
<rect opacity="0.3" x="886" y="184" width="211" height="224" rx="13" fill="#D9D9D9"/>
<path opacity="0.45" d="M914.704 218.224C913.939 218.224 913.271 218.079 912.702 217.79C912.133 217.501 911.68 217.104 911.344 216.6C911.017 216.087 910.826 215.494 910.77 214.822L912.03 214.738C912.095 215.233 912.24 215.653 912.464 215.998C912.688 216.343 912.987 216.605 913.36 216.782C913.743 216.959 914.2 217.048 914.732 217.048C915.199 217.048 915.595 216.987 915.922 216.866C916.249 216.745 916.496 216.567 916.664 216.334C916.841 216.101 916.93 215.816 916.93 215.48C916.93 215.172 916.855 214.901 916.706 214.668C916.566 214.425 916.291 214.206 915.88 214.01C915.479 213.805 914.881 213.604 914.088 213.408C913.323 213.212 912.711 212.997 912.254 212.764C911.806 212.531 911.479 212.246 911.274 211.91C911.078 211.574 910.98 211.159 910.98 210.664C910.98 210.104 911.111 209.614 911.372 209.194C911.643 208.765 912.025 208.433 912.52 208.2C913.015 207.957 913.603 207.836 914.284 207.836C915.012 207.836 915.637 207.976 916.16 208.256C916.683 208.527 917.098 208.9 917.406 209.376C917.714 209.852 917.905 210.393 917.98 211L916.72 211.084C916.664 210.683 916.533 210.328 916.328 210.02C916.132 209.703 915.861 209.455 915.516 209.278C915.171 209.101 914.751 209.012 914.256 209.012C913.64 209.012 913.15 209.161 912.786 209.46C912.422 209.749 912.24 210.132 912.24 210.608C912.24 210.916 912.31 211.173 912.45 211.378C912.599 211.574 912.861 211.751 913.234 211.91C913.607 212.059 914.144 212.223 914.844 212.4C915.675 212.605 916.333 212.853 916.818 213.142C917.313 213.422 917.663 213.749 917.868 214.122C918.083 214.495 918.19 214.92 918.19 215.396C918.19 215.975 918.041 216.479 917.742 216.908C917.443 217.328 917.033 217.655 916.51 217.888C915.987 218.112 915.385 218.224 914.704 218.224ZM923.164 218.168C922.464 218.168 921.858 218.009 921.344 217.692C920.84 217.375 920.448 216.927 920.168 216.348C919.898 215.76 919.762 215.074 919.762 214.29C919.762 213.506 919.898 212.825 920.168 212.246C920.448 211.667 920.836 211.219 921.33 210.902C921.834 210.575 922.427 210.412 923.108 210.412C923.752 210.412 924.322 210.566 924.816 210.874C925.311 211.173 925.694 211.611 925.964 212.19C926.244 212.769 926.384 213.473 926.384 214.304V214.654H920.994C921.041 215.447 921.251 216.045 921.624 216.446C922.007 216.847 922.52 217.048 923.164 217.048C923.65 217.048 924.046 216.936 924.354 216.712C924.672 216.479 924.891 216.175 925.012 215.802L926.272 215.9C926.076 216.563 925.703 217.109 925.152 217.538C924.611 217.958 923.948 218.168 923.164 218.168ZM920.994 213.618H925.096C925.04 212.899 924.83 212.372 924.466 212.036C924.112 211.7 923.659 211.532 923.108 211.532C922.539 211.532 922.068 211.709 921.694 212.064C921.33 212.409 921.097 212.927 920.994 213.618ZM930.406 218C929.734 218 929.235 217.846 928.908 217.538C928.591 217.23 928.432 216.749 928.432 216.096V208.844H929.608V216.068C929.608 216.404 929.683 216.637 929.832 216.768C929.982 216.899 930.21 216.964 930.518 216.964H931.582V218H930.406ZM927.34 211.616V210.58H931.582V211.616H927.34ZM939.109 218.168C938.371 218.168 937.779 217.921 937.331 217.426C936.892 216.922 936.673 216.231 936.673 215.354V210.58H937.849V215.032C937.849 215.751 937.975 216.283 938.227 216.628C938.488 216.964 938.885 217.132 939.417 217.132C940.005 217.132 940.467 216.945 940.803 216.572C941.139 216.189 941.307 215.667 941.307 215.004V210.58H942.483V218H941.363V216.166L941.545 216.264C941.395 216.871 941.111 217.342 940.691 217.678C940.271 218.005 939.743 218.168 939.109 218.168ZM944.725 220.1V210.58H945.817L945.845 212.176L945.677 212.092C945.864 211.541 946.172 211.126 946.601 210.846C947.04 210.557 947.544 210.412 948.113 210.412C948.851 210.412 949.453 210.594 949.919 210.958C950.395 211.322 950.745 211.798 950.969 212.386C951.203 212.974 951.319 213.609 951.319 214.29C951.319 214.971 951.203 215.606 950.969 216.194C950.745 216.782 950.395 217.258 949.919 217.622C949.453 217.986 948.851 218.168 948.113 218.168C947.731 218.168 947.371 218.103 947.035 217.972C946.709 217.841 946.429 217.659 946.195 217.426C945.971 217.193 945.817 216.917 945.733 216.6L945.901 216.404V220.1H944.725ZM948.001 217.048C948.645 217.048 949.154 216.805 949.527 216.32C949.901 215.835 950.087 215.158 950.087 214.29C950.087 213.422 949.901 212.745 949.527 212.26C949.154 211.775 948.645 211.532 948.001 211.532C947.572 211.532 947.199 211.635 946.881 211.84C946.573 212.045 946.331 212.353 946.153 212.764C945.985 213.175 945.901 213.683 945.901 214.29C945.901 214.897 945.985 215.405 946.153 215.816C946.321 216.227 946.564 216.535 946.881 216.74C947.199 216.945 947.572 217.048 948.001 217.048ZM956.552 220.1V210.58H957.644L957.672 212.176L957.504 212.092C957.69 211.541 957.998 211.126 958.428 210.846C958.866 210.557 959.37 210.412 959.94 210.412C960.677 210.412 961.279 210.594 961.746 210.958C962.222 211.322 962.572 211.798 962.796 212.386C963.029 212.974 963.146 213.609 963.146 214.29C963.146 214.971 963.029 215.606 962.796 216.194C962.572 216.782 962.222 217.258 961.746 217.622C961.279 217.986 960.677 218.168 959.94 218.168C959.557 218.168 959.198 218.103 958.862 217.972C958.535 217.841 958.255 217.659 958.022 217.426C957.798 217.193 957.644 216.917 957.56 216.6L957.728 216.404V220.1H956.552ZM959.828 217.048C960.472 217.048 960.98 216.805 961.354 216.32C961.727 215.835 961.914 215.158 961.914 214.29C961.914 213.422 961.727 212.745 961.354 212.26C960.98 211.775 960.472 211.532 959.828 211.532C959.398 211.532 959.025 211.635 958.708 211.84C958.4 212.045 958.157 212.353 957.98 212.764C957.812 213.175 957.728 213.683 957.728 214.29C957.728 214.897 957.812 215.405 957.98 215.816C958.148 216.227 958.39 216.535 958.708 216.74C959.025 216.945 959.398 217.048 959.828 217.048ZM966.935 218.168C966.169 218.168 965.558 217.991 965.101 217.636C964.653 217.281 964.429 216.787 964.429 216.152C964.429 215.517 964.615 215.018 964.989 214.654C965.362 214.29 965.955 214.033 966.767 213.884L969.399 213.394C969.399 212.769 969.249 212.302 968.951 211.994C968.661 211.686 968.223 211.532 967.635 211.532C967.121 211.532 966.715 211.649 966.417 211.882C966.118 212.106 965.913 212.433 965.801 212.862L964.555 212.764C964.695 212.064 965.031 211.499 965.562 211.07C966.104 210.631 966.795 210.412 967.635 210.412C968.587 210.412 969.315 210.683 969.819 211.224C970.323 211.756 970.575 212.493 970.575 213.436V216.502C970.575 216.67 970.603 216.791 970.659 216.866C970.724 216.931 970.827 216.964 970.967 216.964H971.261V218C971.223 218.009 971.163 218.014 971.079 218.014C970.995 218.023 970.906 218.028 970.812 218.028C970.477 218.028 970.201 217.977 969.987 217.874C969.781 217.762 969.632 217.594 969.539 217.37C969.445 217.137 969.399 216.833 969.399 216.46L969.539 216.488C969.473 216.805 969.315 217.095 969.063 217.356C968.811 217.608 968.498 217.809 968.125 217.958C967.751 218.098 967.355 218.168 966.935 218.168ZM967.047 217.132C967.541 217.132 967.961 217.039 968.307 216.852C968.661 216.656 968.932 216.395 969.119 216.068C969.305 215.732 969.399 215.359 969.399 214.948V214.416L966.991 214.864C966.487 214.957 966.137 215.102 965.941 215.298C965.754 215.485 965.66 215.732 965.66 216.04C965.66 216.385 965.782 216.656 966.025 216.852C966.277 217.039 966.617 217.132 967.047 217.132ZM972.624 220.1V219.064H973.478C973.739 219.064 973.93 219.022 974.052 218.938C974.182 218.863 974.28 218.737 974.346 218.56L974.612 217.86H974.206L971.49 210.58H972.778L974.99 216.768L977.104 210.58H978.392L975.382 218.938C975.242 219.339 975.032 219.633 974.752 219.82C974.472 220.007 974.084 220.1 973.59 220.1H972.624ZM979.479 218V210.58H980.515L980.571 212.456L980.459 212.414C980.553 211.779 980.753 211.317 981.061 211.028C981.379 210.729 981.799 210.58 982.321 210.58H983.049V211.7H982.335C981.962 211.7 981.649 211.77 981.397 211.91C981.155 212.041 980.968 212.241 980.837 212.512C980.716 212.773 980.655 213.109 980.655 213.52V218H979.479ZM987.122 218.168C986.44 218.168 985.843 218.009 985.33 217.692C984.816 217.375 984.42 216.927 984.14 216.348C983.86 215.76 983.72 215.074 983.72 214.29C983.72 213.497 983.86 212.811 984.14 212.232C984.42 211.653 984.816 211.205 985.33 210.888C985.843 210.571 986.44 210.412 987.122 210.412C987.803 210.412 988.396 210.571 988.9 210.888C989.413 211.205 989.81 211.653 990.09 212.232C990.37 212.811 990.51 213.497 990.51 214.29C990.51 215.074 990.37 215.76 990.09 216.348C989.81 216.927 989.413 217.375 988.9 217.692C988.396 218.009 987.803 218.168 987.122 218.168ZM987.122 217.048C987.803 217.048 988.33 216.805 988.704 216.32C989.086 215.825 989.278 215.149 989.278 214.29C989.278 213.431 989.086 212.759 988.704 212.274C988.33 211.779 987.803 211.532 987.122 211.532C986.44 211.532 985.908 211.779 985.526 212.274C985.143 212.759 984.952 213.431 984.952 214.29C984.952 215.149 985.143 215.825 985.526 216.32C985.908 216.805 986.44 217.048 987.122 217.048ZM993.637 218C993.207 218 992.857 217.888 992.587 217.664C992.316 217.44 992.181 217.085 992.181 216.6V208.06H993.357V216.502C993.357 216.651 993.394 216.768 993.469 216.852C993.553 216.927 993.669 216.964 993.819 216.964H994.463V218H993.637ZM997.232 218C996.803 218 996.453 217.888 996.182 217.664C995.912 217.44 995.776 217.085 995.776 216.6V208.06H996.952V216.502C996.952 216.651 996.99 216.768 997.064 216.852C997.148 216.927 997.265 216.964 997.414 216.964H998.058V218H997.232Z" fill="black"/>
<path opacity="0.33" d="M316.376 489.256C315.501 489.256 314.739 489.091 314.088 488.76C313.437 488.429 312.92 487.976 312.536 487.4C312.163 486.813 311.944 486.136 311.88 485.368L313.32 485.272C313.395 485.837 313.56 486.317 313.816 486.712C314.072 487.107 314.413 487.405 314.84 487.608C315.277 487.811 315.8 487.912 316.408 487.912C316.941 487.912 317.395 487.843 317.768 487.704C318.141 487.565 318.424 487.363 318.616 487.096C318.819 486.829 318.92 486.504 318.92 486.12C318.92 485.768 318.835 485.459 318.664 485.192C318.504 484.915 318.189 484.664 317.72 484.44C317.261 484.205 316.579 483.976 315.672 483.752C314.797 483.528 314.099 483.283 313.576 483.016C313.064 482.749 312.691 482.424 312.456 482.04C312.232 481.656 312.12 481.181 312.12 480.616C312.12 479.976 312.269 479.416 312.568 478.936C312.877 478.445 313.315 478.067 313.88 477.8C314.445 477.523 315.117 477.384 315.896 477.384C316.728 477.384 317.443 477.544 318.04 477.864C318.637 478.173 319.112 478.6 319.464 479.144C319.816 479.688 320.035 480.307 320.12 481L318.68 481.096C318.616 480.637 318.467 480.232 318.232 479.88C318.008 479.517 317.699 479.235 317.304 479.032C316.909 478.829 316.429 478.728 315.864 478.728C315.16 478.728 314.6 478.899 314.184 479.24C313.768 479.571 313.56 480.008 313.56 480.552C313.56 480.904 313.64 481.197 313.8 481.432C313.971 481.656 314.269 481.859 314.696 482.04C315.123 482.211 315.736 482.397 316.536 482.6C317.485 482.835 318.237 483.117 318.792 483.448C319.357 483.768 319.757 484.141 319.992 484.568C320.237 484.995 320.36 485.48 320.36 486.024C320.36 486.685 320.189 487.261 319.848 487.752C319.507 488.232 319.037 488.605 318.44 488.872C317.843 489.128 317.155 489.256 316.376 489.256ZM326.045 489.192C325.245 489.192 324.552 489.011 323.965 488.648C323.389 488.285 322.941 487.773 322.621 487.112C322.312 486.44 322.157 485.656 322.157 484.76C322.157 483.864 322.312 483.085 322.621 482.424C322.941 481.763 323.384 481.251 323.949 480.888C324.525 480.515 325.202 480.328 325.981 480.328C326.717 480.328 327.368 480.504 327.933 480.856C328.498 481.197 328.936 481.699 329.245 482.36C329.565 483.021 329.725 483.827 329.725 484.776V485.176H323.565C323.618 486.083 323.858 486.765 324.285 487.224C324.722 487.683 325.309 487.912 326.045 487.912C326.6 487.912 327.053 487.784 327.405 487.528C327.768 487.261 328.018 486.915 328.157 486.488L329.597 486.6C329.373 487.357 328.946 487.981 328.317 488.472C327.698 488.952 326.941 489.192 326.045 489.192ZM323.565 483.992H328.253C328.189 483.171 327.949 482.568 327.533 482.184C327.128 481.8 326.61 481.608 325.981 481.608C325.33 481.608 324.792 481.811 324.365 482.216C323.949 482.611 323.682 483.203 323.565 483.992ZM331.546 489V480.52H332.778L332.826 482.68L332.666 482.536C332.772 482.035 332.959 481.624 333.226 481.304C333.492 480.973 333.812 480.728 334.186 480.568C334.57 480.408 334.98 480.328 335.418 480.328C336.068 480.328 336.602 480.472 337.018 480.76C337.444 481.048 337.759 481.437 337.962 481.928C338.175 482.408 338.282 482.947 338.282 483.544V489H336.938V483.928C336.938 483.405 336.874 482.968 336.746 482.616C336.628 482.253 336.436 481.981 336.17 481.8C335.903 481.608 335.556 481.512 335.13 481.512C334.479 481.512 333.94 481.72 333.514 482.136C333.098 482.541 332.89 483.139 332.89 483.928V489H331.546ZM343.663 489.192C342.927 489.192 342.287 489.011 341.743 488.648C341.21 488.285 340.799 487.773 340.511 487.112C340.223 486.451 340.079 485.667 340.079 484.76C340.079 483.853 340.223 483.069 340.511 482.408C340.799 481.747 341.21 481.235 341.743 480.872C342.287 480.509 342.927 480.328 343.663 480.328C344.228 480.328 344.746 480.451 345.215 480.696C345.684 480.931 346.036 481.267 346.271 481.704V477.64H347.615V489H346.399L346.351 487.72C346.116 488.179 345.759 488.541 345.279 488.808C344.799 489.064 344.26 489.192 343.663 489.192ZM343.935 487.912C344.436 487.912 344.858 487.784 345.199 487.528C345.551 487.272 345.818 486.909 345.999 486.44C346.18 485.96 346.271 485.4 346.271 484.76C346.271 484.099 346.18 483.533 345.999 483.064C345.818 482.595 345.551 482.237 345.199 481.992C344.858 481.736 344.436 481.608 343.935 481.608C343.188 481.608 342.591 481.891 342.143 482.456C341.706 483.011 341.487 483.779 341.487 484.76C341.487 485.731 341.706 486.499 342.143 487.064C342.591 487.629 343.188 487.912 343.935 487.912ZM355.003 489V479.752C355.003 479.123 355.184 478.616 355.547 478.232C355.909 477.837 356.475 477.64 357.243 477.64H358.587V478.824H357.339C357.008 478.824 356.757 478.915 356.587 479.096C356.427 479.277 356.347 479.528 356.347 479.848V489H355.003ZM353.851 481.704V480.52H358.475V481.704H353.851ZM363.267 489.192C362.424 489.192 361.747 488.909 361.235 488.344C360.734 487.768 360.483 486.979 360.483 485.976V480.52H361.827V485.608C361.827 486.429 361.971 487.037 362.259 487.432C362.558 487.816 363.011 488.008 363.619 488.008C364.291 488.008 364.819 487.795 365.203 487.368C365.587 486.931 365.779 486.333 365.779 485.576V480.52H367.123V489H365.843V486.904L366.051 487.016C365.88 487.709 365.555 488.248 365.075 488.632C364.595 489.005 363.992 489.192 363.267 489.192ZM369.686 489V480.52H370.918L370.966 482.68L370.806 482.536C370.913 482.035 371.1 481.624 371.366 481.304C371.633 480.973 371.953 480.728 372.326 480.568C372.71 480.408 373.121 480.328 373.558 480.328C374.209 480.328 374.742 480.472 375.158 480.76C375.585 481.048 375.9 481.437 376.102 481.928C376.316 482.408 376.422 482.947 376.422 483.544V489H375.078V483.928C375.078 483.405 375.014 482.968 374.886 482.616C374.769 482.253 374.577 481.981 374.31 481.8C374.044 481.608 373.697 481.512 373.27 481.512C372.62 481.512 372.081 481.72 371.654 482.136C371.238 482.541 371.03 483.139 371.03 483.928V489H369.686ZM381.804 489.192C381.068 489.192 380.428 489.011 379.884 488.648C379.35 488.285 378.94 487.773 378.652 487.112C378.364 486.451 378.22 485.667 378.22 484.76C378.22 483.853 378.364 483.069 378.652 482.408C378.94 481.747 379.35 481.235 379.884 480.872C380.428 480.509 381.068 480.328 381.804 480.328C382.369 480.328 382.886 480.451 383.356 480.696C383.825 480.931 384.177 481.267 384.412 481.704V477.64H385.756V489H384.54L384.492 487.72C384.257 488.179 383.9 488.541 383.42 488.808C382.94 489.064 382.401 489.192 381.804 489.192ZM382.076 487.912C382.577 487.912 382.998 487.784 383.34 487.528C383.692 487.272 383.958 486.909 384.14 486.44C384.321 485.96 384.412 485.4 384.412 484.76C384.412 484.099 384.321 483.533 384.14 483.064C383.958 482.595 383.692 482.237 383.34 481.992C382.998 481.736 382.577 481.608 382.076 481.608C381.329 481.608 380.732 481.891 380.284 482.456C379.846 483.011 379.628 483.779 379.628 484.76C379.628 485.731 379.846 486.499 380.284 487.064C380.732 487.629 381.329 487.912 382.076 487.912ZM391.243 489.192C390.486 489.192 389.84 489.069 389.307 488.824C388.784 488.579 388.374 488.243 388.075 487.816C387.787 487.379 387.622 486.883 387.579 486.328L388.987 486.232C389.072 486.744 389.291 487.155 389.643 487.464C389.995 487.763 390.528 487.912 391.243 487.912C391.819 487.912 392.278 487.821 392.619 487.64C392.971 487.448 393.147 487.144 393.147 486.728C393.147 486.504 393.094 486.317 392.987 486.168C392.88 486.019 392.672 485.891 392.363 485.784C392.054 485.667 391.595 485.555 390.987 485.448C390.176 485.299 389.536 485.117 389.067 484.904C388.608 484.68 388.278 484.408 388.075 484.088C387.883 483.757 387.787 483.368 387.787 482.92C387.787 482.163 388.064 481.544 388.619 481.064C389.174 480.573 389.963 480.328 390.987 480.328C391.68 480.328 392.262 480.456 392.731 480.712C393.211 480.957 393.584 481.288 393.851 481.704C394.128 482.109 394.31 482.557 394.395 483.048L392.987 483.144C392.923 482.845 392.806 482.584 392.635 482.36C392.464 482.125 392.24 481.944 391.963 481.816C391.686 481.677 391.355 481.608 390.971 481.608C390.363 481.608 389.915 481.725 389.627 481.96C389.339 482.195 389.195 482.493 389.195 482.856C389.195 483.133 389.259 483.363 389.387 483.544C389.526 483.715 389.744 483.859 390.043 483.976C390.342 484.083 390.742 484.179 391.243 484.264C392.107 484.413 392.779 484.595 393.259 484.808C393.739 485.021 394.075 485.283 394.267 485.592C394.459 485.901 394.555 486.28 394.555 486.728C394.555 487.251 394.406 487.699 394.107 488.072C393.819 488.435 393.424 488.712 392.923 488.904C392.432 489.096 391.872 489.192 391.243 489.192Z" fill="black"/>
<path opacity="0.4" d="M299.83 589.42V555.6H302.642V589.42H299.83ZM301.54 586.608C299.513 586.608 297.74 586.228 296.22 585.468C294.725 584.683 293.535 583.619 292.648 582.276C291.761 580.908 291.242 579.337 291.09 577.564L294.434 577.336C294.611 578.653 294.991 579.768 295.574 580.68C296.182 581.592 296.98 582.289 297.968 582.77C298.981 583.226 300.197 583.454 301.616 583.454C302.857 583.454 303.909 583.302 304.77 582.998C305.657 582.669 306.328 582.2 306.784 581.592C307.24 580.959 307.468 580.199 307.468 579.312C307.468 578.476 307.278 577.741 306.898 577.108C306.518 576.475 305.783 575.892 304.694 575.36C303.605 574.828 302.009 574.309 299.906 573.802C297.879 573.27 296.258 572.7 295.042 572.092C293.826 571.459 292.952 570.699 292.42 569.812C291.913 568.9 291.66 567.785 291.66 566.468C291.66 564.999 292.015 563.707 292.724 562.592C293.433 561.452 294.434 560.565 295.726 559.932C297.043 559.299 298.614 558.982 300.438 558.982C302.363 558.982 304.023 559.349 305.416 560.084C306.809 560.793 307.911 561.781 308.722 563.048C309.558 564.315 310.077 565.759 310.28 567.38L306.898 567.608C306.771 566.544 306.442 565.594 305.91 564.758C305.378 563.922 304.643 563.276 303.706 562.82C302.794 562.339 301.679 562.098 300.362 562.098C298.715 562.098 297.411 562.491 296.448 563.276C295.485 564.061 295.004 565.087 295.004 566.354C295.004 567.165 295.194 567.849 295.574 568.406C295.954 568.938 296.638 569.407 297.626 569.812C298.639 570.217 300.071 570.648 301.92 571.104C304.124 571.661 305.872 572.32 307.164 573.08C308.481 573.815 309.419 574.689 309.976 575.702C310.533 576.69 310.812 577.817 310.812 579.084C310.812 580.604 310.407 581.934 309.596 583.074C308.811 584.189 307.721 585.063 306.328 585.696C304.935 586.304 303.339 586.608 301.54 586.608ZM324.336 586.608C321.347 586.608 319.042 585.911 317.42 584.518C315.799 583.099 314.925 581.275 314.798 579.046L318.18 578.818C318.332 580.465 318.966 581.643 320.08 582.352C321.22 583.061 322.639 583.416 324.336 583.416C325.502 583.416 326.578 583.264 327.566 582.96C328.554 582.631 329.352 582.111 329.96 581.402C330.568 580.667 330.872 579.692 330.872 578.476C330.872 576.677 330.277 575.36 329.086 574.524C327.896 573.688 326.325 573.27 324.374 573.27H322.246V570.078H324.374C325.97 570.078 327.288 569.761 328.326 569.128C329.39 568.495 329.922 567.405 329.922 565.86C329.922 564.467 329.466 563.415 328.554 562.706C327.668 561.971 326.325 561.604 324.526 561.604C322.753 561.604 321.41 561.946 320.498 562.63C319.612 563.314 319.08 564.251 318.902 565.442L315.482 565.214C315.736 563.187 316.635 561.553 318.18 560.312C319.726 559.045 321.841 558.412 324.526 558.412C326.35 558.412 327.921 558.716 329.238 559.324C330.556 559.907 331.569 560.743 332.278 561.832C332.988 562.921 333.342 564.213 333.342 565.708C333.342 567.38 332.81 568.735 331.746 569.774C330.708 570.787 329.162 571.484 327.11 571.864V571.18C329.314 571.433 331.062 572.219 332.354 573.536C333.646 574.853 334.292 576.5 334.292 578.476C334.292 580.199 333.862 581.668 333 582.884C332.164 584.1 330.999 585.025 329.504 585.658C328.01 586.291 326.287 586.608 324.336 586.608ZM348.059 586.608C346.159 586.608 344.512 586.291 343.119 585.658C341.751 585.025 340.662 584.138 339.851 582.998C339.066 581.858 338.61 580.541 338.483 579.046L341.903 578.818C342.106 580.338 342.752 581.491 343.841 582.276C344.956 583.036 346.362 583.416 348.059 583.416C349.959 583.416 351.466 582.884 352.581 581.82C353.696 580.731 354.253 579.236 354.253 577.336C354.253 576.069 354 574.98 353.493 574.068C353.012 573.131 352.302 572.409 351.365 571.902C350.428 571.395 349.3 571.142 347.983 571.142C346.742 571.142 345.614 571.408 344.601 571.94C343.588 572.472 342.866 573.219 342.435 574.182H338.939L340.725 559.02H355.849V562.212H343.727L342.511 572.168L341.903 571.56C342.308 570.775 342.84 570.129 343.499 569.622C344.183 569.09 344.956 568.697 345.817 568.444C346.704 568.165 347.628 568.026 348.591 568.026C350.39 568.026 351.973 568.431 353.341 569.242C354.709 570.027 355.773 571.129 356.533 572.548C357.293 573.941 357.673 575.537 357.673 577.336C357.673 579.135 357.268 580.743 356.457 582.162C355.646 583.555 354.519 584.645 353.075 585.43C351.631 586.215 349.959 586.608 348.059 586.608ZM361.662 586V581.706H365.956V586H361.662ZM379.471 586.608C377.292 586.608 375.405 586.038 373.809 584.898C372.213 583.758 370.971 582.137 370.085 580.034C369.223 577.931 368.793 575.436 368.793 572.548C368.793 569.66 369.223 567.165 370.085 565.062C370.971 562.934 372.213 561.3 373.809 560.16C375.405 558.995 377.292 558.412 379.471 558.412C381.675 558.412 383.575 558.995 385.171 560.16C386.767 561.3 387.995 562.921 388.857 565.024C389.743 567.127 390.187 569.635 390.187 572.548C390.187 575.436 389.743 577.931 388.857 580.034C387.995 582.137 386.767 583.758 385.171 584.898C383.575 586.038 381.675 586.608 379.471 586.608ZM379.471 583.416C381.801 583.416 383.6 582.479 384.867 580.604C386.133 578.704 386.767 576.019 386.767 572.548C386.767 570.217 386.475 568.241 385.893 566.62C385.335 564.973 384.512 563.732 383.423 562.896C382.359 562.035 381.041 561.604 379.471 561.604C377.925 561.604 376.608 562.035 375.519 562.896C374.455 563.732 373.631 564.973 373.049 566.62C372.491 568.241 372.213 570.217 372.213 572.548C372.213 576.019 372.846 578.704 374.113 580.604C375.379 582.479 377.165 583.416 379.471 583.416ZM404.668 586.608C402.489 586.608 400.602 586.038 399.006 584.898C397.41 583.758 396.169 582.137 395.282 580.034C394.421 577.931 393.99 575.436 393.99 572.548C393.99 569.66 394.421 567.165 395.282 565.062C396.169 562.934 397.41 561.3 399.006 560.16C400.602 558.995 402.489 558.412 404.668 558.412C406.872 558.412 408.772 558.995 410.368 560.16C411.964 561.3 413.193 562.921 414.054 565.024C414.941 567.127 415.384 569.635 415.384 572.548C415.384 575.436 414.941 577.931 414.054 580.034C413.193 582.137 411.964 583.758 410.368 584.898C408.772 586.038 406.872 586.608 404.668 586.608ZM404.668 583.416C406.999 583.416 408.797 582.479 410.064 580.604C411.331 578.704 411.964 576.019 411.964 572.548C411.964 570.217 411.673 568.241 411.09 566.62C410.533 564.973 409.709 563.732 408.62 562.896C407.556 562.035 406.239 561.604 404.668 561.604C403.123 561.604 401.805 562.035 400.716 562.896C399.652 563.732 398.829 564.973 398.246 566.62C397.689 568.241 397.41 570.217 397.41 572.548C397.41 576.019 398.043 578.704 399.31 580.604C400.577 582.479 402.363 583.416 404.668 583.416Z" fill="black"/>
<rect x="905" y="232" width="173" height="40" rx="8" fill="white"/>
<rect x="905.5" y="232.5" width="172" height="39" rx="7.5" stroke="black" stroke-opacity="0.1"/>
<rect x="905" y="279" width="173" height="84" rx="8" fill="white"/>
<rect x="905.5" y="279.5" width="172" height="83" rx="7.5" stroke="black" stroke-opacity="0.1"/>
<path opacity="0.45" d="M960.12 343.1V333.58H961.212L961.24 335.176L961.072 335.092C961.259 334.541 961.567 334.126 961.996 333.846C962.435 333.557 962.939 333.412 963.508 333.412C964.245 333.412 964.847 333.594 965.314 333.958C965.79 334.322 966.14 334.798 966.364 335.386C966.597 335.974 966.714 336.609 966.714 337.29C966.714 337.971 966.597 338.606 966.364 339.194C966.14 339.782 965.79 340.258 965.314 340.622C964.847 340.986 964.245 341.168 963.508 341.168C963.125 341.168 962.766 341.103 962.43 340.972C962.103 340.841 961.823 340.659 961.59 340.426C961.366 340.193 961.212 339.917 961.128 339.6L961.296 339.404V343.1H960.12ZM963.396 340.048C964.04 340.048 964.549 339.805 964.922 339.32C965.295 338.835 965.482 338.158 965.482 337.29C965.482 336.422 965.295 335.745 964.922 335.26C964.549 334.775 964.04 334.532 963.396 334.532C962.967 334.532 962.593 334.635 962.276 334.84C961.968 335.045 961.725 335.353 961.548 335.764C961.38 336.175 961.296 336.683 961.296 337.29C961.296 337.897 961.38 338.405 961.548 338.816C961.716 339.227 961.959 339.535 962.276 339.74C962.593 339.945 962.967 340.048 963.396 340.048ZM971.207 341.168C970.507 341.168 969.901 341.009 969.387 340.692C968.883 340.375 968.491 339.927 968.211 339.348C967.941 338.76 967.805 338.074 967.805 337.29C967.805 336.506 967.941 335.825 968.211 335.246C968.491 334.667 968.879 334.219 969.373 333.902C969.877 333.575 970.47 333.412 971.151 333.412C971.795 333.412 972.365 333.566 972.859 333.874C973.354 334.173 973.737 334.611 974.007 335.19C974.287 335.769 974.427 336.473 974.427 337.304V337.654H969.037C969.084 338.447 969.294 339.045 969.667 339.446C970.05 339.847 970.563 340.048 971.207 340.048C971.693 340.048 972.089 339.936 972.397 339.712C972.715 339.479 972.934 339.175 973.055 338.802L974.315 338.9C974.119 339.563 973.746 340.109 973.195 340.538C972.654 340.958 971.991 341.168 971.207 341.168ZM969.037 336.618H973.139C973.083 335.899 972.873 335.372 972.509 335.036C972.155 334.7 971.702 334.532 971.151 334.532C970.582 334.532 970.111 334.709 969.737 335.064C969.373 335.409 969.14 335.927 969.037 336.618ZM976.02 341V333.58H977.056L977.112 335.456L977 335.414C977.094 334.779 977.294 334.317 977.602 334.028C977.92 333.729 978.34 333.58 978.862 333.58H979.59V334.7H978.876C978.503 334.7 978.19 334.77 977.938 334.91C977.696 335.041 977.509 335.241 977.378 335.512C977.257 335.773 977.196 336.109 977.196 336.52V341H976.02ZM984.825 341V333.58H985.903L985.945 335.456L985.777 335.4C985.861 334.989 986.006 334.639 986.211 334.35C986.426 334.051 986.687 333.823 986.995 333.664C987.303 333.496 987.644 333.412 988.017 333.412C988.661 333.412 989.184 333.589 989.585 333.944C989.996 334.299 990.252 334.793 990.355 335.428L990.131 335.414C990.206 334.985 990.341 334.625 990.537 334.336C990.742 334.037 991.004 333.809 991.321 333.65C991.638 333.491 992.002 333.412 992.413 333.412C992.945 333.412 993.393 333.524 993.757 333.748C994.121 333.963 994.396 334.28 994.583 334.7C994.77 335.12 994.863 335.629 994.863 336.226V341H993.687V336.478C993.687 335.806 993.556 335.302 993.295 334.966C993.034 334.621 992.646 334.448 992.133 334.448C991.788 334.448 991.484 334.532 991.223 334.7C990.971 334.868 990.775 335.111 990.635 335.428C990.495 335.736 990.425 336.114 990.425 336.562V341H989.249V336.562C989.249 335.899 989.132 335.381 988.899 335.008C988.666 334.635 988.274 334.448 987.723 334.448C987.378 334.448 987.074 334.532 986.813 334.7C986.561 334.868 986.36 335.111 986.211 335.428C986.071 335.745 986.001 336.123 986.001 336.562V341H984.825ZM999.836 341.168C999.155 341.168 998.558 341.009 998.044 340.692C997.531 340.375 997.134 339.927 996.854 339.348C996.574 338.76 996.434 338.074 996.434 337.29C996.434 336.497 996.574 335.811 996.854 335.232C997.134 334.653 997.531 334.205 998.044 333.888C998.558 333.571 999.155 333.412 999.836 333.412C1000.52 333.412 1001.11 333.571 1001.61 333.888C1002.13 334.205 1002.52 334.653 1002.8 335.232C1003.08 335.811 1003.22 336.497 1003.22 337.29C1003.22 338.074 1003.08 338.76 1002.8 339.348C1002.52 339.927 1002.13 340.375 1001.61 340.692C1001.11 341.009 1000.52 341.168 999.836 341.168ZM999.836 340.048C1000.52 340.048 1001.05 339.805 1001.42 339.32C1001.8 338.825 1001.99 338.149 1001.99 337.29C1001.99 336.431 1001.8 335.759 1001.42 335.274C1001.05 334.779 1000.52 334.532 999.836 334.532C999.155 334.532 998.623 334.779 998.24 335.274C997.858 335.759 997.666 336.431 997.666 337.29C997.666 338.149 997.858 338.825 998.24 339.32C998.623 339.805 999.155 340.048 999.836 340.048ZM1004.83 341V333.58H1005.91L1005.95 335.47L1005.81 335.344C1005.9 334.905 1006.06 334.546 1006.3 334.266C1006.53 333.977 1006.81 333.762 1007.14 333.622C1007.47 333.482 1007.83 333.412 1008.22 333.412C1008.78 333.412 1009.25 333.538 1009.62 333.79C1009.99 334.042 1010.26 334.383 1010.44 334.812C1010.63 335.232 1010.72 335.703 1010.72 336.226V341H1009.55V336.562C1009.55 336.105 1009.49 335.722 1009.38 335.414C1009.27 335.097 1009.11 334.859 1008.87 334.7C1008.64 334.532 1008.34 334.448 1007.96 334.448C1007.39 334.448 1006.92 334.63 1006.55 334.994C1006.19 335.349 1006 335.871 1006 336.562V341H1004.83ZM1015.12 341C1014.45 341 1013.95 340.846 1013.62 340.538C1013.3 340.23 1013.14 339.749 1013.14 339.096V331.844H1014.32V339.068C1014.32 339.404 1014.39 339.637 1014.54 339.768C1014.69 339.899 1014.92 339.964 1015.23 339.964H1016.29V341H1015.12ZM1012.05 334.616V333.58H1016.29V334.616H1012.05ZM1017.8 341V331.06H1018.98V335.218L1018.84 335.19C1018.93 334.779 1019.09 334.443 1019.31 334.182C1019.54 333.921 1019.81 333.729 1020.14 333.608C1020.47 333.477 1020.83 333.412 1021.22 333.412C1021.75 333.412 1022.2 333.533 1022.56 333.776C1022.93 334.009 1023.21 334.341 1023.4 334.77C1023.6 335.19 1023.7 335.675 1023.7 336.226V341H1022.52V336.562C1022.52 335.843 1022.39 335.311 1022.13 334.966C1021.88 334.621 1021.49 334.448 1020.97 334.448C1020.37 334.448 1019.89 334.63 1019.52 334.994C1019.16 335.358 1018.98 335.885 1018.98 336.576V341H1017.8Z" fill="black"/>
<path d="M918.93 258.1V257.064H919.532C919.775 257.064 919.971 257.003 920.12 256.882C920.269 256.77 920.344 256.56 920.344 256.252V248.58H921.52V256.308C921.52 256.961 921.375 257.423 921.086 257.694C920.797 257.965 920.316 258.1 919.644 258.1H918.93ZM920.316 247.418V246.046H921.548V247.418H920.316ZM926.518 256.168C925.837 256.168 925.239 256.009 924.726 255.692C924.213 255.375 923.816 254.927 923.536 254.348C923.256 253.76 923.116 253.074 923.116 252.29C923.116 251.497 923.256 250.811 923.536 250.232C923.816 249.653 924.213 249.205 924.726 248.888C925.239 248.571 925.837 248.412 926.518 248.412C927.199 248.412 927.792 248.571 928.296 248.888C928.809 249.205 929.206 249.653 929.486 250.232C929.766 250.811 929.906 251.497 929.906 252.29C929.906 253.074 929.766 253.76 929.486 254.348C929.206 254.927 928.809 255.375 928.296 255.692C927.792 256.009 927.199 256.168 926.518 256.168ZM926.518 255.048C927.199 255.048 927.727 254.805 928.1 254.32C928.483 253.825 928.674 253.149 928.674 252.29C928.674 251.431 928.483 250.759 928.1 250.274C927.727 249.779 927.199 249.532 926.518 249.532C925.837 249.532 925.305 249.779 924.922 250.274C924.539 250.759 924.348 251.431 924.348 252.29C924.348 253.149 924.539 253.825 924.922 254.32C925.305 254.805 925.837 255.048 926.518 255.048ZM931.509 256V246.06H932.685V250.218L932.545 250.19C932.638 249.779 932.797 249.443 933.021 249.182C933.245 248.921 933.52 248.729 933.847 248.608C934.173 248.477 934.533 248.412 934.925 248.412C935.457 248.412 935.905 248.533 936.269 248.776C936.642 249.009 936.922 249.341 937.109 249.77C937.305 250.19 937.403 250.675 937.403 251.226V256H936.227V251.562C936.227 250.843 936.096 250.311 935.835 249.966C935.583 249.621 935.195 249.448 934.673 249.448C934.075 249.448 933.595 249.63 933.231 249.994C932.867 250.358 932.685 250.885 932.685 251.576V256H931.509ZM939.37 256V248.58H940.448L940.49 250.47L940.35 250.344C940.443 249.905 940.607 249.546 940.84 249.266C941.073 248.977 941.353 248.762 941.68 248.622C942.016 248.482 942.375 248.412 942.758 248.412C943.327 248.412 943.794 248.538 944.158 248.79C944.531 249.042 944.807 249.383 944.984 249.812C945.171 250.232 945.264 250.703 945.264 251.226V256H944.088V251.562C944.088 251.105 944.032 250.722 943.92 250.414C943.817 250.097 943.649 249.859 943.416 249.7C943.183 249.532 942.879 249.448 942.506 249.448C941.937 249.448 941.465 249.63 941.092 249.994C940.728 250.349 940.546 250.871 940.546 251.562V256H939.37ZM955.233 256.952C954.766 257.148 954.276 257.293 953.763 257.386C953.249 257.489 952.703 257.54 952.125 257.54C951.051 257.54 950.132 257.339 949.367 256.938C948.611 256.546 948.027 255.972 947.617 255.216C947.215 254.46 947.015 253.555 947.015 252.5C947.015 251.548 947.164 250.68 947.463 249.896C947.761 249.112 948.186 248.435 948.737 247.866C949.297 247.287 949.955 246.844 950.711 246.536C951.467 246.219 952.302 246.06 953.217 246.06C954.271 246.06 955.191 246.265 955.975 246.676C956.759 247.087 957.365 247.665 957.795 248.412C958.224 249.159 958.439 250.041 958.439 251.058C958.439 251.805 958.327 252.463 958.103 253.032C957.879 253.601 957.571 254.049 957.179 254.376C956.787 254.693 956.334 254.852 955.821 254.852C955.391 254.852 955.037 254.726 954.757 254.474C954.486 254.222 954.337 253.881 954.309 253.452L954.519 253.396C954.407 253.667 954.229 253.919 953.987 254.152C953.744 254.385 953.469 254.572 953.161 254.712C952.853 254.843 952.535 254.908 952.209 254.908C951.658 254.908 951.191 254.801 950.809 254.586C950.435 254.371 950.151 254.073 949.955 253.69C949.759 253.307 949.661 252.864 949.661 252.36C949.661 251.735 949.782 251.165 950.025 250.652C950.277 250.139 950.622 249.733 951.061 249.434C951.509 249.126 952.031 248.972 952.629 248.972C953.123 248.972 953.543 249.084 953.889 249.308C954.243 249.523 954.467 249.807 954.561 250.162L954.421 250.302L954.519 249H955.541L955.317 251.94C955.307 252.145 955.289 252.379 955.261 252.64C955.242 252.901 955.233 253.116 955.233 253.284C955.233 253.489 955.289 253.648 955.401 253.76C955.513 253.872 955.681 253.928 955.905 253.928C956.381 253.928 956.754 253.676 957.025 253.172C957.295 252.668 957.431 251.977 957.431 251.1C957.431 250.232 957.267 249.495 956.941 248.888C956.614 248.281 956.133 247.824 955.499 247.516C954.873 247.199 954.103 247.04 953.189 247.04C952.423 247.04 951.723 247.171 951.089 247.432C950.454 247.693 949.908 248.067 949.451 248.552C948.993 249.028 948.639 249.597 948.387 250.26C948.144 250.923 948.023 251.66 948.023 252.472C948.023 253.34 948.181 254.082 948.499 254.698C948.825 255.305 949.297 255.767 949.913 256.084C950.529 256.401 951.275 256.56 952.153 256.56C952.657 256.56 953.151 256.509 953.637 256.406C954.131 256.313 954.584 256.177 954.995 256L955.233 256.952ZM952.349 253.984C952.815 253.984 953.193 253.872 953.483 253.648C953.781 253.415 954.001 253.121 954.141 252.766C954.29 252.402 954.365 252.029 954.365 251.646C954.365 251.319 954.309 251.025 954.197 250.764C954.094 250.493 953.921 250.283 953.679 250.134C953.445 249.975 953.133 249.896 952.741 249.896C952.321 249.896 951.966 250.008 951.677 250.232C951.397 250.447 951.182 250.736 951.033 251.1C950.883 251.455 950.809 251.847 950.809 252.276C950.809 252.761 950.921 253.167 951.145 253.494C951.378 253.821 951.779 253.984 952.349 253.984ZM962.908 256C962.236 256 961.737 255.846 961.41 255.538C961.093 255.23 960.934 254.749 960.934 254.096V246.844H962.11V254.068C962.11 254.404 962.185 254.637 962.334 254.768C962.484 254.899 962.712 254.964 963.02 254.964H964.084V256H962.908ZM959.842 249.616V248.58H964.084V249.616H959.842ZM968.354 256.168C967.654 256.168 967.047 256.009 966.534 255.692C966.03 255.375 965.638 254.927 965.358 254.348C965.087 253.76 964.952 253.074 964.952 252.29C964.952 251.506 965.087 250.825 965.358 250.246C965.638 249.667 966.025 249.219 966.52 248.902C967.024 248.575 967.617 248.412 968.298 248.412C968.942 248.412 969.511 248.566 970.006 248.874C970.501 249.173 970.883 249.611 971.154 250.19C971.434 250.769 971.574 251.473 971.574 252.304V252.654H966.184C966.231 253.447 966.441 254.045 966.814 254.446C967.197 254.847 967.71 255.048 968.354 255.048C968.839 255.048 969.236 254.936 969.544 254.712C969.861 254.479 970.081 254.175 970.202 253.802L971.462 253.9C971.266 254.563 970.893 255.109 970.342 255.538C969.801 255.958 969.138 256.168 968.354 256.168ZM966.184 251.618H970.286C970.23 250.899 970.02 250.372 969.656 250.036C969.301 249.7 968.849 249.532 968.298 249.532C967.729 249.532 967.257 249.709 966.884 250.064C966.52 250.409 966.287 250.927 966.184 251.618ZM973.167 256V248.58H974.245L974.287 250.456L974.119 250.4C974.203 249.989 974.348 249.639 974.553 249.35C974.768 249.051 975.029 248.823 975.337 248.664C975.645 248.496 975.986 248.412 976.359 248.412C977.003 248.412 977.526 248.589 977.927 248.944C978.338 249.299 978.594 249.793 978.697 250.428L978.473 250.414C978.548 249.985 978.683 249.625 978.879 249.336C979.084 249.037 979.346 248.809 979.663 248.65C979.98 248.491 980.344 248.412 980.755 248.412C981.287 248.412 981.735 248.524 982.099 248.748C982.463 248.963 982.738 249.28 982.925 249.7C983.112 250.12 983.205 250.629 983.205 251.226V256H982.029V251.478C982.029 250.806 981.898 250.302 981.637 249.966C981.376 249.621 980.988 249.448 980.475 249.448C980.13 249.448 979.826 249.532 979.565 249.7C979.313 249.868 979.117 250.111 978.977 250.428C978.837 250.736 978.767 251.114 978.767 251.562V256H977.591V251.562C977.591 250.899 977.474 250.381 977.241 250.008C977.008 249.635 976.616 249.448 976.065 249.448C975.72 249.448 975.416 249.532 975.155 249.7C974.903 249.868 974.702 250.111 974.553 250.428C974.413 250.745 974.343 251.123 974.343 251.562V256H973.167ZM985.171 258.1V248.58H986.263L986.291 250.176L986.123 250.092C986.309 249.541 986.617 249.126 987.047 248.846C987.485 248.557 987.989 248.412 988.559 248.412C989.296 248.412 989.898 248.594 990.365 248.958C990.841 249.322 991.191 249.798 991.415 250.386C991.648 250.974 991.765 251.609 991.765 252.29C991.765 252.971 991.648 253.606 991.415 254.194C991.191 254.782 990.841 255.258 990.365 255.622C989.898 255.986 989.296 256.168 988.559 256.168C988.176 256.168 987.817 256.103 987.481 255.972C987.154 255.841 986.874 255.659 986.641 255.426C986.417 255.193 986.263 254.917 986.179 254.6L986.347 254.404V258.1H985.171ZM988.447 255.048C989.091 255.048 989.599 254.805 989.973 254.32C990.346 253.835 990.533 253.158 990.533 252.29C990.533 251.422 990.346 250.745 989.973 250.26C989.599 249.775 989.091 249.532 988.447 249.532C988.017 249.532 987.644 249.635 987.327 249.84C987.019 250.045 986.776 250.353 986.599 250.764C986.431 251.175 986.347 251.683 986.347 252.29C986.347 252.897 986.431 253.405 986.599 253.816C986.767 254.227 987.009 254.535 987.327 254.74C987.644 254.945 988.017 255.048 988.447 255.048ZM996.258 256.168C995.577 256.168 994.98 256.009 994.466 255.692C993.953 255.375 993.556 254.927 993.276 254.348C992.996 253.76 992.856 253.074 992.856 252.29C992.856 251.497 992.996 250.811 993.276 250.232C993.556 249.653 993.953 249.205 994.466 248.888C994.98 248.571 995.577 248.412 996.258 248.412C996.94 248.412 997.532 248.571 998.036 248.888C998.55 249.205 998.946 249.653 999.226 250.232C999.506 250.811 999.646 251.497 999.646 252.29C999.646 253.074 999.506 253.76 999.226 254.348C998.946 254.927 998.55 255.375 998.036 255.692C997.532 256.009 996.94 256.168 996.258 256.168ZM996.258 255.048C996.94 255.048 997.467 254.805 997.84 254.32C998.223 253.825 998.414 253.149 998.414 252.29C998.414 251.431 998.223 250.759 997.84 250.274C997.467 249.779 996.94 249.532 996.258 249.532C995.577 249.532 995.045 249.779 994.662 250.274C994.28 250.759 994.088 251.431 994.088 252.29C994.088 253.149 994.28 253.825 994.662 254.32C995.045 254.805 995.577 255.048 996.258 255.048ZM1000.88 256V254.418H1002.46V256H1000.88ZM1003.74 256L1006.47 252.192L1003.88 248.58H1005.25L1007.2 251.38L1009.09 248.58H1010.49L1007.93 252.22L1010.61 256H1009.24L1007.2 253.004L1005.14 256H1003.74ZM1012.02 258.1V257.064H1012.87C1013.13 257.064 1013.32 257.022 1013.44 256.938C1013.57 256.863 1013.67 256.737 1013.74 256.56L1014 255.86H1013.6L1010.88 248.58H1012.17L1014.38 254.768L1016.5 248.58H1017.78L1014.77 256.938C1014.63 257.339 1014.42 257.633 1014.14 257.82C1013.86 258.007 1013.48 258.1 1012.98 258.1H1012.02ZM1018.58 256V254.824L1023.27 249.616H1018.72V248.58H1024.56V249.756L1019.87 254.964H1024.67V256H1018.58Z" fill="black"/>
<path d="M947.84 322.16V300.8H949.616V322.16H947.84ZM948.92 320.384C947.64 320.384 946.52 320.144 945.56 319.664C944.616 319.168 943.864 318.496 943.304 317.648C942.744 316.784 942.416 315.792 942.32 314.672L944.432 314.528C944.544 315.36 944.784 316.064 945.152 316.64C945.536 317.216 946.04 317.656 946.664 317.96C947.304 318.248 948.072 318.392 948.968 318.392C949.752 318.392 950.416 318.296 950.96 318.104C951.52 317.896 951.944 317.6 952.232 317.216C952.52 316.816 952.664 316.336 952.664 315.776C952.664 315.248 952.544 314.784 952.304 314.384C952.064 313.984 951.6 313.616 950.912 313.28C950.224 312.944 949.216 312.616 947.888 312.296C946.608 311.96 945.584 311.6 944.816 311.216C944.048 310.816 943.496 310.336 943.16 309.776C942.84 309.2 942.68 308.496 942.68 307.664C942.68 306.736 942.904 305.92 943.352 305.216C943.8 304.496 944.432 303.936 945.248 303.536C946.08 303.136 947.072 302.936 948.224 302.936C949.44 302.936 950.488 303.168 951.368 303.632C952.248 304.08 952.944 304.704 953.456 305.504C953.984 306.304 954.312 307.216 954.44 308.24L952.304 308.384C952.224 307.712 952.016 307.112 951.68 306.584C951.344 306.056 950.88 305.648 950.288 305.36C949.712 305.056 949.008 304.904 948.176 304.904C947.136 304.904 946.312 305.152 945.704 305.648C945.096 306.144 944.792 306.792 944.792 307.592C944.792 308.104 944.912 308.536 945.152 308.888C945.392 309.224 945.824 309.52 946.448 309.776C947.088 310.032 947.992 310.304 949.16 310.592C950.552 310.944 951.656 311.36 952.472 311.84C953.304 312.304 953.896 312.856 954.248 313.496C954.6 314.12 954.776 314.832 954.776 315.632C954.776 316.592 954.52 317.432 954.008 318.152C953.512 318.856 952.824 319.408 951.944 319.808C951.064 320.192 950.056 320.384 948.92 320.384ZM960.606 320V307.376H957.054V305.6H958.494C959.118 305.6 959.614 305.52 959.982 305.36C960.366 305.2 960.638 304.928 960.798 304.544C960.958 304.16 961.038 303.632 961.038 302.96H962.67V320H960.606ZM973.014 320.384C971.638 320.384 970.446 320.024 969.438 319.304C968.43 318.584 967.646 317.56 967.086 316.232C966.542 314.904 966.27 313.328 966.27 311.504C966.27 309.68 966.542 308.104 967.086 306.776C967.646 305.432 968.43 304.4 969.438 303.68C970.446 302.944 971.638 302.576 973.014 302.576C974.406 302.576 975.606 302.944 976.614 303.68C977.622 304.4 978.398 305.424 978.942 306.752C979.502 308.08 979.782 309.664 979.782 311.504C979.782 313.328 979.502 314.904 978.942 316.232C978.398 317.56 977.622 318.584 976.614 319.304C975.606 320.024 974.406 320.384 973.014 320.384ZM973.014 318.368C974.486 318.368 975.622 317.776 976.422 316.592C977.222 315.392 977.622 313.696 977.622 311.504C977.622 310.032 977.438 308.784 977.07 307.76C976.718 306.72 976.198 305.936 975.51 305.408C974.838 304.864 974.006 304.592 973.014 304.592C972.038 304.592 971.206 304.864 970.518 305.408C969.846 305.936 969.326 306.72 968.958 307.76C968.606 308.784 968.43 310.032 968.43 311.504C968.43 313.696 968.83 315.392 969.63 316.592C970.43 317.776 971.558 318.368 973.014 318.368ZM981.644 323.744L982.796 320H981.572V317.288H984.284V319.664L982.844 323.744H981.644ZM992.819 320.384C991.443 320.384 990.251 320.024 989.243 319.304C988.235 318.584 987.451 317.56 986.891 316.232C986.347 314.904 986.075 313.328 986.075 311.504C986.075 309.68 986.347 308.104 986.891 306.776C987.451 305.432 988.235 304.4 989.243 303.68C990.251 302.944 991.443 302.576 992.819 302.576C994.211 302.576 995.411 302.944 996.419 303.68C997.427 304.4 998.203 305.424 998.747 306.752C999.307 308.08 999.587 309.664 999.587 311.504C999.587 313.328 999.307 314.904 998.747 316.232C998.203 317.56 997.427 318.584 996.419 319.304C995.411 320.024 994.211 320.384 992.819 320.384ZM992.819 318.368C994.291 318.368 995.427 317.776 996.227 316.592C997.027 315.392 997.427 313.696 997.427 311.504C997.427 310.032 997.243 308.784 996.875 307.76C996.523 306.72 996.003 305.936 995.315 305.408C994.643 304.864 993.811 304.592 992.819 304.592C991.843 304.592 991.011 304.864 990.323 305.408C989.651 305.936 989.131 306.72 988.763 307.76C988.411 308.784 988.235 310.032 988.235 311.504C988.235 313.696 988.635 315.392 989.435 316.592C990.235 317.776 991.363 318.368 992.819 318.368ZM1008.73 320.384C1007.36 320.384 1006.17 320.024 1005.16 319.304C1004.15 318.584 1003.37 317.56 1002.81 316.232C1002.26 314.904 1001.99 313.328 1001.99 311.504C1001.99 309.68 1002.26 308.104 1002.81 306.776C1003.37 305.432 1004.15 304.4 1005.16 303.68C1006.17 302.944 1007.36 302.576 1008.73 302.576C1010.13 302.576 1011.33 302.944 1012.33 303.68C1013.34 304.4 1014.12 305.424 1014.66 306.752C1015.22 308.08 1015.5 309.664 1015.5 311.504C1015.5 313.328 1015.22 314.904 1014.66 316.232C1014.12 317.56 1013.34 318.584 1012.33 319.304C1011.33 320.024 1010.13 320.384 1008.73 320.384ZM1008.73 318.368C1010.21 318.368 1011.34 317.776 1012.14 316.592C1012.94 315.392 1013.34 313.696 1013.34 311.504C1013.34 310.032 1013.16 308.784 1012.79 307.76C1012.44 306.72 1011.92 305.936 1011.23 305.408C1010.56 304.864 1009.73 304.592 1008.73 304.592C1007.76 304.592 1006.93 304.864 1006.24 305.408C1005.57 305.936 1005.05 306.72 1004.68 307.76C1004.33 308.784 1004.15 310.032 1004.15 311.504C1004.15 313.696 1004.55 315.392 1005.35 316.592C1006.15 317.776 1007.28 318.368 1008.73 318.368ZM1024.65 320.384C1023.27 320.384 1022.08 320.024 1021.07 319.304C1020.06 318.584 1019.28 317.56 1018.72 316.232C1018.18 314.904 1017.9 313.328 1017.9 311.504C1017.9 309.68 1018.18 308.104 1018.72 306.776C1019.28 305.432 1020.06 304.4 1021.07 303.68C1022.08 302.944 1023.27 302.576 1024.65 302.576C1026.04 302.576 1027.24 302.944 1028.25 303.68C1029.26 304.4 1030.03 305.424 1030.58 306.752C1031.14 308.08 1031.42 309.664 1031.42 311.504C1031.42 313.328 1031.14 314.904 1030.58 316.232C1030.03 317.56 1029.26 318.584 1028.25 319.304C1027.24 320.024 1026.04 320.384 1024.65 320.384ZM1024.65 318.368C1026.12 318.368 1027.26 317.776 1028.06 316.592C1028.86 315.392 1029.26 313.696 1029.26 311.504C1029.26 310.032 1029.07 308.784 1028.7 307.76C1028.35 306.72 1027.83 305.936 1027.14 305.408C1026.47 304.864 1025.64 304.592 1024.65 304.592C1023.67 304.592 1022.84 304.864 1022.15 305.408C1021.48 305.936 1020.96 306.72 1020.59 307.76C1020.24 308.784 1020.06 310.032 1020.06 311.504C1020.06 313.696 1020.46 315.392 1021.26 316.592C1022.06 317.776 1023.19 318.368 1024.65 318.368Z" fill="black"/>
<circle cx="773.5" cy="128.5" r="4.5" fill="#D9D9D9"/>
<circle cx="787.5" cy="128.5" r="4.5" fill="#D9D9D9"/>
<circle cx="801.5" cy="128.5" r="4.5" fill="#D9D9D9"/>
<rect width="101" height="99" transform="translate(547 295)" fill="white"/>
<path fill-rule="evenodd" clip-rule="evenodd" d="M648 394H547V295H648V394ZM581.412 322.473C580.799 322.473 580.256 322.857 580.062 323.427L575.722 336.192C575.56 336.668 575.921 337.158 576.432 337.158H589.036C589.546 337.158 589.907 337.649 589.746 338.125L580.416 365.561C580.254 366.037 580.615 366.527 581.126 366.527H594.642C595.255 366.527 595.798 366.143 595.991 365.573L605.331 338.112C605.524 337.542 606.068 337.157 606.681 337.157H619.311C619.924 337.157 620.468 336.772 620.661 336.203L625.001 323.439C625.163 322.963 624.802 322.473 624.291 322.473H581.412Z" fill="#202020"/>
<path opacity="0.3" d="M886 305H705.5C700.529 305 696.5 309.029 696.5 314V340C696.5 344.971 692.471 349 687.5 349H648" stroke="black" stroke-width="2" stroke-dasharray="6 6"/>
<path opacity="0.3" d="M458.002 579.5L591.002 579.5C595.972 579.5 600.002 575.471 600.002 570.5L600 394" stroke="black" stroke-width="2" stroke-dasharray="6 6"/>
<path opacity="0.3" d="M351 129H458.059C463.029 129 467.059 133.029 467.059 138V340C467.059 344.971 471.088 349 476.059 349H547" stroke="black" stroke-width="2" stroke-dasharray="6 6"/>
<path d="M0 0L-2.95052e-05 675L100 675L100 4.37114e-06L0 0Z" fill="url(#paint2_linear_515_21173)"/>
<path d="M1200 0L1200 675L1118 675L1118 3.58434e-06L1200 0Z" fill="url(#paint3_linear_515_21173)"/>
<rect x="533" y="181" width="134.2" height="91" rx="10" fill="#EDEDED"/>
<path d="M575.684 254V234.83H578.006V254H575.684ZM582.361 254V239.69H584.44L584.521 243.335L584.251 243.092C584.431 242.246 584.746 241.553 585.196 241.013C585.646 240.455 586.186 240.041 586.816 239.771C587.464 239.501 588.157 239.366 588.895 239.366C589.993 239.366 590.893 239.609 591.595 240.095C592.315 240.581 592.846 241.238 593.188 242.066C593.548 242.876 593.728 243.785 593.728 244.793V254H591.46V245.441C591.46 244.559 591.352 243.821 591.136 243.227C590.938 242.615 590.614 242.156 590.164 241.85C589.714 241.526 589.129 241.364 588.409 241.364C587.311 241.364 586.402 241.715 585.682 242.417C584.98 243.101 584.629 244.109 584.629 245.441V254H582.361ZM602.404 254.324C601.126 254.324 600.037 254.117 599.137 253.703C598.255 253.289 597.562 252.722 597.058 252.002C596.572 251.264 596.293 250.427 596.221 249.491L598.597 249.329C598.741 250.193 599.11 250.886 599.704 251.408C600.298 251.912 601.198 252.164 602.404 252.164C603.376 252.164 604.15 252.011 604.726 251.705C605.32 251.381 605.617 250.868 605.617 250.166C605.617 249.788 605.527 249.473 605.347 249.221C605.167 248.969 604.816 248.753 604.294 248.573C603.772 248.375 602.998 248.186 601.972 248.006C600.604 247.754 599.524 247.448 598.732 247.088C597.958 246.71 597.4 246.251 597.058 245.711C596.734 245.153 596.572 244.496 596.572 243.74C596.572 242.462 597.04 241.418 597.976 240.608C598.912 239.78 600.244 239.366 601.972 239.366C603.142 239.366 604.123 239.582 604.915 240.014C605.725 240.428 606.355 240.986 606.805 241.688C607.273 242.372 607.579 243.128 607.723 243.956L605.347 244.118C605.239 243.614 605.041 243.173 604.753 242.795C604.465 242.399 604.087 242.093 603.619 241.877C603.151 241.643 602.593 241.526 601.945 241.526C600.919 241.526 600.163 241.724 599.677 242.12C599.191 242.516 598.948 243.02 598.948 243.632C598.948 244.1 599.056 244.487 599.272 244.793C599.506 245.081 599.875 245.324 600.379 245.522C600.883 245.702 601.558 245.864 602.404 246.008C603.862 246.26 604.996 246.566 605.806 246.926C606.616 247.286 607.183 247.727 607.507 248.249C607.831 248.771 607.993 249.41 607.993 250.166C607.993 251.048 607.741 251.804 607.237 252.434C606.751 253.046 606.085 253.514 605.239 253.838C604.411 254.162 603.466 254.324 602.404 254.324ZM615.233 254C613.937 254 612.974 253.703 612.344 253.109C611.732 252.515 611.426 251.588 611.426 250.328V236.342H613.694V250.274C613.694 250.922 613.838 251.372 614.126 251.624C614.414 251.876 614.855 252.002 615.449 252.002H617.501V254H615.233ZM609.32 241.688V239.69H617.501V241.688H609.32ZM623.626 254.324C622.15 254.324 620.971 253.982 620.089 253.298C619.225 252.614 618.793 251.66 618.793 250.436C618.793 249.212 619.153 248.249 619.873 247.547C620.593 246.845 621.736 246.35 623.302 246.062L628.378 245.117C628.378 243.911 628.09 243.011 627.514 242.417C626.956 241.823 626.11 241.526 624.976 241.526C623.986 241.526 623.203 241.751 622.627 242.201C622.051 242.633 621.655 243.263 621.439 244.091L619.036 243.902C619.306 242.552 619.954 241.463 620.98 240.635C622.024 239.789 623.356 239.366 624.976 239.366C626.812 239.366 628.216 239.888 629.188 240.932C630.16 241.958 630.646 243.38 630.646 245.198V251.111C630.646 251.435 630.7 251.669 630.808 251.813C630.934 251.939 631.132 252.002 631.402 252.002H631.969V254C631.897 254.018 631.78 254.027 631.618 254.027C631.456 254.045 631.285 254.054 631.105 254.054C630.457 254.054 629.926 253.955 629.512 253.757C629.116 253.541 628.828 253.217 628.648 252.785C628.468 252.335 628.378 251.75 628.378 251.03L628.648 251.084C628.522 251.696 628.216 252.254 627.73 252.758C627.244 253.244 626.641 253.631 625.921 253.919C625.201 254.189 624.436 254.324 623.626 254.324ZM623.842 252.326C624.796 252.326 625.606 252.146 626.272 251.786C626.956 251.408 627.478 250.904 627.838 250.274C628.198 249.626 628.378 248.906 628.378 248.114V247.088L623.734 247.952C622.762 248.132 622.087 248.411 621.709 248.789C621.349 249.149 621.169 249.626 621.169 250.22C621.169 250.886 621.403 251.408 621.871 251.786C622.357 252.146 623.014 252.326 623.842 252.326ZM633.99 254V239.69H636.069L636.15 243.335L635.88 243.092C636.06 242.246 636.375 241.553 636.825 241.013C637.275 240.455 637.815 240.041 638.445 239.771C639.093 239.501 639.786 239.366 640.524 239.366C641.622 239.366 642.522 239.609 643.224 240.095C643.944 240.581 644.475 241.238 644.817 242.066C645.177 242.876 645.357 243.785 645.357 244.793V254H643.089V245.441C643.089 244.559 642.981 243.821 642.765 243.227C642.567 242.615 642.243 242.156 641.793 241.85C641.343 241.526 640.758 241.364 640.038 241.364C638.94 241.364 638.031 241.715 637.311 242.417C636.609 243.101 636.258 244.109 636.258 245.441V254H633.99ZM653.296 254C652 254 651.037 253.703 650.407 253.109C649.795 252.515 649.489 251.588 649.489 250.328V236.342H651.757V250.274C651.757 250.922 651.901 251.372 652.189 251.624C652.477 251.876 652.918 252.002 653.512 252.002H655.564V254H653.296ZM647.383 241.688V239.69H655.564V241.688H647.383Z" fill="black"/>
<g opacity="0.5">
<path d="M552.491 218V201.098H546.524V198.83H560.78V201.098H554.813V218H552.491ZM567.038 216.488V203.582H569.144V216.488H567.038ZM561.638 211.088V208.982H574.544V211.088H561.638ZM576.693 218C576.693 216.65 576.9 215.435 577.314 214.355C577.746 213.257 578.493 212.213 579.555 211.223C580.635 210.233 582.129 209.234 584.037 208.226C584.919 207.758 585.63 207.326 586.17 206.93C586.71 206.534 587.106 206.111 587.358 205.661C587.61 205.211 587.736 204.662 587.736 204.014C587.736 203.348 587.592 202.772 587.304 202.286C587.016 201.782 586.584 201.386 586.008 201.098C585.45 200.81 584.748 200.666 583.902 200.666C582.552 200.666 581.481 201.017 580.689 201.719C579.915 202.421 579.429 203.42 579.231 204.716L576.801 204.554C577.017 202.682 577.737 201.188 578.961 200.072C580.185 198.956 581.832 198.398 583.902 198.398C585.216 198.398 586.341 198.632 587.277 199.1C588.213 199.568 588.924 200.225 589.41 201.071C589.914 201.899 590.166 202.862 590.166 203.96C590.166 204.932 590.004 205.778 589.68 206.498C589.356 207.2 588.807 207.857 588.033 208.469C587.277 209.081 586.233 209.738 584.901 210.44C583.173 211.358 581.859 212.285 580.959 213.221C580.077 214.157 579.609 214.994 579.555 215.732H590.166V218H576.693ZM604.696 218.324C603.454 218.324 602.374 218.018 601.456 217.406C600.556 216.794 599.863 215.93 599.377 214.814C598.891 213.698 598.648 212.375 598.648 210.845C598.648 209.315 598.891 207.992 599.377 206.876C599.863 205.76 600.556 204.896 601.456 204.284C602.374 203.672 603.454 203.366 604.696 203.366C605.65 203.366 606.523 203.573 607.315 203.987C608.107 204.383 608.701 204.95 609.097 205.688V198.83H611.365V218H609.313L609.232 215.84C608.836 216.614 608.233 217.226 607.423 217.676C606.613 218.108 605.704 218.324 604.696 218.324ZM605.155 216.164C606.001 216.164 606.712 215.948 607.288 215.516C607.882 215.084 608.332 214.472 608.638 213.68C608.944 212.87 609.097 211.925 609.097 210.845C609.097 209.729 608.944 208.775 608.638 207.983C608.332 207.191 607.882 206.588 607.288 206.174C606.712 205.742 606.001 205.526 605.155 205.526C603.895 205.526 602.887 206.003 602.131 206.957C601.393 207.893 601.024 209.189 601.024 210.845C601.024 212.483 601.393 213.779 602.131 214.733C602.887 215.687 603.895 216.164 605.155 216.164ZM618.735 218.324C617.259 218.324 616.08 217.982 615.198 217.298C614.334 216.614 613.902 215.66 613.902 214.436C613.902 213.212 614.262 212.249 614.982 211.547C615.702 210.845 616.845 210.35 618.411 210.062L623.487 209.117C623.487 207.911 623.199 207.011 622.623 206.417C622.065 205.823 621.219 205.526 620.085 205.526C619.095 205.526 618.312 205.751 617.736 206.201C617.16 206.633 616.764 207.263 616.548 208.091L614.145 207.902C614.415 206.552 615.063 205.463 616.089 204.635C617.133 203.789 618.465 203.366 620.085 203.366C621.921 203.366 623.325 203.888 624.297 204.932C625.269 205.958 625.755 207.38 625.755 209.198V215.111C625.755 215.435 625.809 215.669 625.917 215.813C626.043 215.939 626.241 216.002 626.511 216.002H627.078V218C627.006 218.018 626.889 218.027 626.727 218.027C626.565 218.045 626.394 218.054 626.214 218.054C625.566 218.054 625.035 217.955 624.621 217.757C624.225 217.541 623.937 217.217 623.757 216.785C623.577 216.335 623.487 215.75 623.487 215.03L623.757 215.084C623.631 215.696 623.325 216.254 622.839 216.758C622.353 217.244 621.75 217.631 621.03 217.919C620.31 218.189 619.545 218.324 618.735 218.324ZM618.951 216.326C619.905 216.326 620.715 216.146 621.381 215.786C622.065 215.408 622.587 214.904 622.947 214.274C623.307 213.626 623.487 212.906 623.487 212.114V211.088L618.843 211.952C617.871 212.132 617.196 212.411 616.818 212.789C616.458 213.149 616.278 213.626 616.278 214.22C616.278 214.886 616.512 215.408 616.98 215.786C617.466 216.146 618.123 216.326 618.951 216.326ZM629.167 222.05V220.052H630.814C631.318 220.052 631.687 219.971 631.921 219.809C632.173 219.665 632.362 219.422 632.488 219.08L633.001 217.73H632.218L626.98 203.69H629.464L633.73 215.624L637.807 203.69H640.291L634.486 219.809C634.216 220.583 633.811 221.15 633.271 221.51C632.731 221.87 631.984 222.05 631.03 222.05H629.167ZM647.007 218.324C645.729 218.324 644.64 218.117 643.74 217.703C642.858 217.289 642.165 216.722 641.661 216.002C641.175 215.264 640.896 214.427 640.824 213.491L643.2 213.329C643.344 214.193 643.713 214.886 644.307 215.408C644.901 215.912 645.801 216.164 647.007 216.164C647.979 216.164 648.753 216.011 649.329 215.705C649.923 215.381 650.22 214.868 650.22 214.166C650.22 213.788 650.13 213.473 649.95 213.221C649.77 212.969 649.419 212.753 648.897 212.573C648.375 212.375 647.601 212.186 646.575 212.006C645.207 211.754 644.127 211.448 643.335 211.088C642.561 210.71 642.003 210.251 641.661 209.711C641.337 209.153 641.175 208.496 641.175 207.74C641.175 206.462 641.643 205.418 642.579 204.608C643.515 203.78 644.847 203.366 646.575 203.366C647.745 203.366 648.726 203.582 649.518 204.014C650.328 204.428 650.958 204.986 651.408 205.688C651.876 206.372 652.182 207.128 652.326 207.956L649.95 208.118C649.842 207.614 649.644 207.173 649.356 206.795C649.068 206.399 648.69 206.093 648.222 205.877C647.754 205.643 647.196 205.526 646.548 205.526C645.522 205.526 644.766 205.724 644.28 206.12C643.794 206.516 643.551 207.02 643.551 207.632C643.551 208.1 643.659 208.487 643.875 208.793C644.109 209.081 644.478 209.324 644.982 209.522C645.486 209.702 646.161 209.864 647.007 210.008C648.465 210.26 649.599 210.566 650.409 210.926C651.219 211.286 651.786 211.727 652.11 212.249C652.434 212.771 652.596 213.41 652.596 214.166C652.596 215.048 652.344 215.804 651.84 216.434C651.354 217.046 650.688 217.514 649.842 217.838C649.014 218.162 648.069 218.324 647.007 218.324Z" fill="black"/>
<path d="M546.2 209.414H653.784V210.764H546.2V209.414Z" fill="black"/>
</g>
<path d="M556.976 233.67C557.024 233.444 556.997 233.208 556.897 232.999C556.797 232.79 556.631 232.62 556.425 232.515C556.219 232.41 555.984 232.376 555.756 232.419C555.529 232.461 555.322 232.578 555.167 232.75L543.267 246.05C543.132 246.201 543.044 246.388 543.013 246.588C542.981 246.789 543.009 246.994 543.091 247.179C543.174 247.364 543.309 247.521 543.479 247.631C543.649 247.741 543.847 247.8 544.05 247.8H553.251L551.424 256.33C551.376 256.557 551.403 256.792 551.503 257.001C551.603 257.21 551.768 257.38 551.975 257.485C552.181 257.59 552.416 257.624 552.644 257.581C552.871 257.539 553.078 257.422 553.233 257.25L565.133 243.95C565.268 243.799 565.356 243.612 565.387 243.412C565.419 243.211 565.391 243.006 565.308 242.821C565.226 242.636 565.091 242.479 564.921 242.369C564.751 242.259 564.553 242.2 564.35 242.2H555.149L556.976 233.67Z" fill="black"/>
<path d="M556.976 233.67C557.024 233.444 556.997 233.208 556.897 232.999C556.797 232.79 556.631 232.62 556.425 232.515C556.219 232.41 555.984 232.376 555.756 232.419C555.529 232.461 555.322 232.578 555.167 232.75L543.267 246.05C543.132 246.201 543.044 246.388 543.013 246.588C542.981 246.789 543.009 246.994 543.091 247.179C543.174 247.364 543.309 247.521 543.479 247.631C543.649 247.741 543.847 247.8 544.05 247.8H553.251L551.424 256.33C551.376 256.557 551.403 256.792 551.503 257.001C551.603 257.21 551.768 257.38 551.975 257.485C552.181 257.59 552.416 257.624 552.644 257.581C552.871 257.539 553.078 257.422 553.233 257.25L565.133 243.95C565.268 243.799 565.356 243.612 565.387 243.412C565.419 243.211 565.391 243.006 565.308 242.821C565.226 242.636 565.091 242.479 564.921 242.369C564.751 242.259 564.553 242.2 564.35 242.2H555.149L556.976 233.67Z" fill="#2386DD"/>
</g>
<defs>
<linearGradient id="paint0_linear_515_21173" x1="600" y1="0" x2="600" y2="129" gradientUnits="userSpaceOnUse">
<stop stop-color="white"/>
<stop offset="1" stop-color="white" stop-opacity="0"/>
</linearGradient>
<linearGradient id="paint1_linear_515_21173" x1="600" y1="0" x2="600" y2="129" gradientUnits="userSpaceOnUse">
<stop stop-color="white"/>
<stop offset="1" stop-color="white" stop-opacity="0"/>
</linearGradient>
<linearGradient id="paint2_linear_515_21173" x1="-1.47526e-05" y1="337.5" x2="100" y2="337.5" gradientUnits="userSpaceOnUse">
<stop stop-color="white"/>
<stop offset="1" stop-color="white" stop-opacity="0"/>
</linearGradient>
<linearGradient id="paint3_linear_515_21173" x1="1200" y1="337.5" x2="1118" y2="337.5" gradientUnits="userSpaceOnUse">
<stop stop-color="white"/>
<stop offset="1" stop-color="white" stop-opacity="0"/>
</linearGradient>
<clipPath id="clip0_515_21173">
<rect width="1200" height="675" fill="white"/>
</clipPath>
</defs>
</svg>
