<svg width="1200" height="675" viewBox="0 0 1200 675" fill="none" xmlns="http://www.w3.org/2000/svg">
<g clip-path="url(#clip0_577_6908)">
<rect width="1200" height="675" fill="white"/>
<circle cx="581.5" cy="571.5" r="498.5" stroke="black" stroke-opacity="0.1" stroke-width="1.5"/>
<ellipse cx="581.5" cy="572" rx="434.5" ry="434" stroke="black" stroke-opacity="0.1" stroke-width="1.5"/>
<ellipse cx="581.5" cy="572" rx="381.5" ry="381" stroke="black" stroke-opacity="0.1" stroke-width="1.5"/>
<circle cx="581.5" cy="571.5" r="321.5" stroke="black" stroke-opacity="0.1" stroke-width="1.5"/>
<circle cx="581.5" cy="565.5" r="251.5" stroke="black" stroke-opacity="0.1" stroke-width="1.5"/>
<circle cx="588" cy="565" r="188" stroke="black" stroke-opacity="0.1" stroke-width="1.5"/>
<circle cx="587.5" cy="557.5" r="117.5" stroke="black" stroke-opacity="0.1" stroke-width="1.5"/>
<rect x="273.5" y="231.5" width="37" height="37" rx="18.5" fill="#DFDFDF" stroke="#A4A4A4" stroke-width="3"/>
<rect x="737.5" y="358.5" width="37" height="37" rx="18.5" fill="#DFDFDF" stroke="#A4A4A4" stroke-width="3"/>
<rect x="401.5" y="490.5" width="37" height="37" rx="18.5" fill="#DFDFDF" stroke="#A4A4A4" stroke-width="3"/>
<rect x="822.5" y="119.5" width="37" height="37" rx="18.5" fill="#DFDFDF" stroke="#A4A4A4" stroke-width="3"/>
<rect x="471.5" y="104.5" width="67" height="67" rx="33.5" fill="#DD5823" fill-opacity="0.14" stroke="#DD5823" stroke-width="3"/>
<rect x="904.5" y="406.5" width="67" height="67" rx="33.5" fill="#30A46C" fill-opacity="0.15" stroke="#30A46C" stroke-width="3"/>
<path fill-rule="evenodd" clip-rule="evenodd" d="M938 455.2C942.031 455.2 945.897 453.599 948.748 450.748C951.598 447.898 953.2 444.031 953.2 440C953.2 435.969 951.598 432.103 948.748 429.252C945.897 426.401 942.031 424.8 938 424.8C933.969 424.8 930.102 426.401 927.252 429.252C924.401 432.103 922.8 435.969 922.8 440C922.8 444.031 924.401 447.898 927.252 450.748C930.102 453.599 933.969 455.2 938 455.2ZM945.328 436.563C945.438 436.411 945.517 436.24 945.561 436.058C945.605 435.876 945.612 435.687 945.583 435.502C945.554 435.317 945.488 435.14 945.39 434.98C945.292 434.821 945.164 434.682 945.013 434.572C944.861 434.462 944.69 434.383 944.508 434.339C944.326 434.295 944.137 434.288 943.952 434.317C943.767 434.346 943.59 434.412 943.43 434.51C943.27 434.607 943.132 434.736 943.022 434.887L936.404 443.988L932.832 440.416C932.7 440.28 932.543 440.172 932.369 440.097C932.195 440.022 932.008 439.983 931.819 439.982C931.63 439.98 931.442 440.016 931.267 440.088C931.092 440.16 930.933 440.266 930.799 440.399C930.665 440.533 930.56 440.692 930.488 440.868C930.417 441.043 930.381 441.23 930.382 441.42C930.384 441.609 930.423 441.796 930.498 441.97C930.573 442.143 930.682 442.301 930.818 442.432L935.568 447.182C935.713 447.328 935.889 447.44 936.082 447.511C936.275 447.583 936.482 447.611 936.687 447.595C936.892 447.579 937.092 447.519 937.271 447.418C937.451 447.318 937.607 447.18 937.728 447.013L945.328 436.563Z" fill="#30A46C"/>
<rect x="175.5" y="421.5" width="67" height="67" rx="33.5" fill="#EAB60A" fill-opacity="0.2" stroke="#EAB60A" stroke-width="3"/>
<path fill-rule="evenodd" clip-rule="evenodd" d="M502.546 122.865C503.858 120.59 507.142 120.59 508.454 122.865L520.7 144.071C522.013 146.347 520.369 149.19 517.744 149.19H493.254C490.627 149.19 488.985 146.347 490.3 144.071L502.546 122.865ZM505.5 127.75C505.888 127.75 506.26 127.904 506.534 128.178C506.808 128.453 506.962 128.825 506.962 129.212V136.037C506.962 136.425 506.808 136.797 506.534 137.072C506.26 137.346 505.888 137.5 505.5 137.5C505.112 137.5 504.74 137.346 504.466 137.072C504.191 136.797 504.037 136.425 504.037 136.037V129.212C504.037 128.825 504.191 128.453 504.466 128.178C504.74 127.904 505.112 127.75 505.5 127.75ZM505.5 145.3C506.017 145.3 506.513 145.094 506.879 144.729C507.244 144.363 507.45 143.867 507.45 143.35C507.45 142.833 507.244 142.337 506.879 141.971C506.513 141.605 506.017 141.4 505.5 141.4C504.983 141.4 504.487 141.605 504.121 141.971C503.755 142.337 503.55 142.833 503.55 143.35C503.55 143.867 503.755 144.363 504.121 144.729C504.487 145.094 504.983 145.3 505.5 145.3Z" fill="#DD5823"/>
<path fill-rule="evenodd" clip-rule="evenodd" d="M209.161 440.362C208.975 440.208 208.741 440.124 208.5 440.124C208.258 440.124 208.025 440.208 207.839 440.362C203.944 443.603 199.098 445.486 194.037 445.725C193.809 445.732 193.59 445.819 193.42 445.97C193.249 446.121 193.137 446.328 193.103 446.554C192.967 447.58 192.9 448.615 192.9 449.65C192.9 459.718 199.257 468.3 208.176 471.601C208.385 471.678 208.615 471.678 208.824 471.601C217.743 468.3 224.1 459.718 224.1 449.65C224.1 448.601 224.032 447.566 223.897 446.552C223.863 446.326 223.75 446.119 223.579 445.967C223.408 445.816 223.19 445.729 222.961 445.723C217.9 445.483 213.056 443.603 209.161 440.362ZM208.5 447.7C208.888 447.7 209.26 447.854 209.534 448.128C209.808 448.403 209.962 448.775 209.962 449.163V455.988C209.962 456.375 209.808 456.747 209.534 457.022C209.26 457.296 208.888 457.45 208.5 457.45C208.112 457.45 207.74 457.296 207.466 457.022C207.191 456.747 207.037 456.375 207.037 455.988V449.163C207.037 448.775 207.191 448.403 207.466 448.128C207.74 447.854 208.112 447.7 208.5 447.7ZM208.5 465.25C209.017 465.25 209.513 465.045 209.879 464.679C210.244 464.313 210.45 463.817 210.45 463.3C210.45 462.783 210.244 462.287 209.879 461.921C209.513 461.556 209.017 461.35 208.5 461.35C207.983 461.35 207.487 461.556 207.121 461.921C206.755 462.287 206.55 462.783 206.55 463.3C206.55 463.817 206.755 464.313 207.121 464.679C207.487 465.045 207.983 465.25 208.5 465.25Z" fill="#D6A200"/>
</g>
<defs>
<clipPath id="clip0_577_6908">
<rect width="1200" height="675" fill="white"/>
</clipPath>
</defs>
</svg>
