<svg width="1200" height="675" viewBox="0 0 1200 675" fill="none" xmlns="http://www.w3.org/2000/svg">
<g clip-path="url(#clip0_683_6416)">
<rect width="1200" height="675" fill="white"/>
<path d="M0 0H618V675H0V0Z" fill="black" fill-opacity="0.05"/>
<rect width="1200" height="129" transform="matrix(1 0 0 -1 0 675)" fill="url(#paint0_linear_683_6416)"/>
<path d="M0 0H1200V129H0V0Z" fill="url(#paint1_linear_683_6416)"/>
<rect width="200" height="50" transform="translate(209 54)" fill="black" fill-opacity="0.05"/>
<path opacity="0.5" d="M232.9 87.368C231.612 87.368 230.516 87.0383 229.611 86.379C228.722 85.7197 228.039 84.7537 227.564 83.481C227.104 82.2083 226.874 80.6673 226.874 78.858C226.874 77.018 227.104 75.4617 227.564 74.189C228.039 72.9163 228.722 71.9503 229.611 71.291C230.516 70.6317 231.612 70.302 232.9 70.302C234.188 70.302 235.277 70.6317 236.166 71.291C237.071 71.9503 237.753 72.9163 238.213 74.189C238.688 75.4617 238.926 77.018 238.926 78.858C238.926 80.6673 238.688 82.2083 238.213 83.481C237.753 84.7537 237.071 85.7197 236.166 86.379C235.277 87.0383 234.188 87.368 232.9 87.368ZM232.9 85.436C233.743 85.436 234.456 85.1907 235.039 84.7C235.637 84.194 236.089 83.4503 236.396 82.469C236.703 81.4877 236.856 80.284 236.856 78.858C236.856 77.432 236.703 76.2283 236.396 75.247C236.089 74.2503 235.637 73.499 235.039 72.993C234.456 72.487 233.743 72.234 232.9 72.234C232.057 72.234 231.336 72.487 230.738 72.993C230.155 73.499 229.711 74.2503 229.404 75.247C229.097 76.2283 228.944 77.432 228.944 78.858C228.944 80.284 229.097 81.4877 229.404 82.469C229.711 83.4503 230.155 84.194 230.738 84.7C231.336 85.1907 232.057 85.436 232.9 85.436ZM245.702 87V72.602H240.711V70.67H252.671V72.602H247.68V87H245.702ZM254.962 87V70.67H256.94V78.605L255.928 77.823H265.036L264.024 78.605V70.67H266.002V87H264.024V78.973L265.036 79.755H255.928L256.94 78.973V87H254.962ZM269.443 87V70.67H279.379V72.602H271.421V77.869H279.103V79.755H271.421V85.068H279.563V87H269.443ZM282.774 87V70.67H287.742C289.459 70.67 290.816 71.107 291.813 71.981C292.81 72.8397 293.308 74.028 293.308 75.546C293.308 76.3127 293.132 76.995 292.779 77.593C292.426 78.1757 291.974 78.6357 291.422 78.973C290.87 79.3103 290.303 79.502 289.72 79.548L289.628 79.272C290.717 79.3333 291.529 79.594 292.066 80.054C292.618 80.514 292.94 81.2653 293.032 82.308L293.446 87H291.468L291.077 82.561C291.031 82.055 290.908 81.6487 290.709 81.342C290.525 81.02 290.226 80.79 289.812 80.652C289.413 80.4987 288.861 80.422 288.156 80.422H284.752V87H282.774ZM284.752 78.49H287.742C288.877 78.49 289.743 78.237 290.341 77.731C290.939 77.2097 291.238 76.4813 291.238 75.546C291.238 74.5953 290.939 73.867 290.341 73.361C289.743 72.855 288.877 72.602 287.742 72.602H284.752V78.49ZM315.692 87.368C314.389 87.368 313.285 87.023 312.38 86.333C311.475 85.643 310.785 84.6617 310.31 83.389C309.85 82.1163 309.62 80.606 309.62 78.858C309.62 77.0947 309.85 75.5767 310.31 74.304C310.785 73.0313 311.475 72.05 312.38 71.36C313.285 70.6547 314.389 70.302 315.692 70.302C317.133 70.302 318.36 70.7773 319.372 71.728C320.384 72.6633 321.059 73.9743 321.396 75.661L319.28 75.799C319.019 74.6183 318.567 73.729 317.923 73.131C317.294 72.533 316.551 72.234 315.692 72.234C314.818 72.234 314.082 72.4947 313.484 73.016C312.901 73.522 312.457 74.2733 312.15 75.27C311.843 76.2513 311.69 77.4473 311.69 78.858C311.69 80.2533 311.843 81.4417 312.15 82.423C312.457 83.4043 312.901 84.1557 313.484 84.677C314.082 85.183 314.818 85.436 315.692 85.436C316.643 85.436 317.448 85.1063 318.107 84.447C318.766 83.7877 319.211 82.8063 319.441 81.503L321.534 81.618C321.243 83.412 320.583 84.8227 319.556 85.85C318.529 86.862 317.241 87.368 315.692 87.368ZM323.917 87V70.67H325.895V78.605L324.883 77.823H333.991L332.979 78.605V70.67H334.957V87H332.979V78.973L333.991 79.755H324.883L325.895 78.973V87H323.917ZM336.926 87L341.894 70.67H344.562L349.53 87H347.414L343.228 72.464L339.042 87H336.926ZM339.433 82.354L340.123 80.422H346.333L347.023 82.354H339.433ZM351.959 87V85.068H356.03V72.602H351.959V70.67H362.079V72.602H358.008V85.068H362.079V87H351.959ZM365.52 87V70.67H368.326L374.122 84.746V70.67H376.1V87H373.294L367.498 72.924V87H365.52ZM384.854 87.368C383.704 87.368 382.685 87.1303 381.795 86.655C380.906 86.1797 380.193 85.528 379.656 84.7C379.12 83.8567 378.805 82.883 378.713 81.779L380.783 81.641C380.891 82.4537 381.121 83.1437 381.473 83.711C381.841 84.2783 382.309 84.7077 382.876 84.999C383.459 85.2903 384.134 85.436 384.9 85.436C385.667 85.436 386.311 85.344 386.832 85.16C387.354 84.9607 387.745 84.677 388.005 84.309C388.281 83.9257 388.419 83.4733 388.419 82.952C388.419 82.4307 388.297 81.9783 388.051 81.595C387.821 81.1963 387.377 80.8283 386.717 80.491C386.073 80.1537 385.115 79.8087 383.842 79.456C382.708 79.134 381.788 78.7813 381.082 78.398C380.392 78.0147 379.886 77.547 379.564 76.995C379.258 76.443 379.104 75.7607 379.104 74.948C379.104 74.028 379.319 73.223 379.748 72.533C380.193 71.8277 380.822 71.2833 381.634 70.9C382.447 70.5013 383.413 70.302 384.532 70.302C385.652 70.302 386.61 70.532 387.407 70.992C388.205 71.4367 388.833 72.05 389.293 72.832C389.769 73.614 390.068 74.5033 390.19 75.5L388.12 75.638C388.028 74.9787 387.837 74.396 387.545 73.89C387.254 73.3687 386.855 72.9623 386.349 72.671C385.843 72.3797 385.222 72.234 384.486 72.234C383.474 72.234 382.669 72.4793 382.071 72.97C381.473 73.4453 381.174 74.074 381.174 74.856C381.174 75.362 381.282 75.7837 381.496 76.121C381.726 76.443 382.125 76.7343 382.692 76.995C383.26 77.2403 384.057 77.5087 385.084 77.8C386.418 78.168 387.476 78.582 388.258 79.042C389.056 79.502 389.623 80.054 389.96 80.698C390.313 81.3267 390.489 82.0933 390.489 82.998C390.489 83.8567 390.252 84.6157 389.776 85.275C389.301 85.9343 388.642 86.448 387.798 86.816C386.955 87.184 385.974 87.368 384.854 87.368Z" fill="black"/>
<path d="M554 297.045L504.968 255.942C504.56 255.6 504.2 255.205 503.896 254.768L432.928 152.689C429.897 148.329 423.114 149.765 422.11 154.979L387.478 334.816C386.934 337.641 384.463 339.682 381.586 339.682H309.832C307.467 339.682 305.323 341.07 304.356 343.228L277.596 402.948C276.629 405.106 274.485 406.495 272.12 406.495H213.155C210.791 406.495 208.647 405.106 207.68 402.948L186.907 356.591C184.528 351.281 176.742 352.126 175.557 357.823L155.094 456.222C154.515 459.005 152.062 461 149.22 461H56" stroke="black" stroke-width="2" stroke-dasharray="4 4"/>
<path d="M685 483L1197 483" stroke="#2386DD" stroke-width="2"/>
<rect x="54.5" y="451.5" width="20" height="21" rx="2.5" fill="black" stroke="#F2F2F2" stroke-width="3"/>
<rect x="114.5" y="450.5" width="20" height="21" rx="2.5" fill="black" stroke="#F2F2F2" stroke-width="3"/>
<rect x="161.5" y="380.5" width="20" height="20" rx="2.5" fill="black" stroke="#F2F2F2" stroke-width="3"/>
<rect x="208.5" y="395.5" width="20" height="20" rx="2.5" fill="black" stroke="#F2F2F2" stroke-width="3"/>
<rect x="682.5" y="471.5" width="21" height="21" rx="2.5" fill="#2386DD" stroke="#F2F2F2" stroke-width="3"/>
<rect x="729.5" y="471.5" width="21" height="21" rx="2.5" fill="#2386DD" stroke="#F2F2F2" stroke-width="3"/>
<rect x="775.5" y="471.5" width="21" height="21" rx="2.5" fill="#2386DD" stroke="#F2F2F2" stroke-width="3"/>
<rect x="821.5" y="471.5" width="21" height="21" rx="2.5" fill="#2386DD" stroke="#F2F2F2" stroke-width="3"/>
<rect x="868.5" y="471.5" width="21" height="21" rx="2.5" fill="#2386DD" stroke="#F2F2F2" stroke-width="3"/>
<rect x="915.5" y="471.5" width="21" height="21" rx="2.5" fill="#2386DD" stroke="#F2F2F2" stroke-width="3"/>
<rect x="961.5" y="471.5" width="21" height="21" rx="2.5" fill="#2386DD" stroke="#F2F2F2" stroke-width="3"/>
<rect x="1008.5" y="471.5" width="21" height="21" rx="2.5" fill="#2386DD" stroke="#F2F2F2" stroke-width="3"/>
<rect x="1055.5" y="471.5" width="21" height="21" rx="2.5" fill="#2386DD" stroke="#F2F2F2" stroke-width="3"/>
<rect x="1101.5" y="471.5" width="21" height="21" rx="2.5" fill="#2386DD" stroke="#F2F2F2" stroke-width="3"/>
<rect x="1147.5" y="471.5" width="21" height="21" rx="2.5" fill="#2386DD" stroke="#F2F2F2" stroke-width="3"/>
<rect x="1194.5" y="471.5" width="21" height="21" rx="2.5" fill="#2386DD" stroke="#F2F2F2" stroke-width="3"/>
<rect x="255.5" y="395.5" width="20" height="20" rx="2.5" fill="black" stroke="#F2F2F2" stroke-width="3"/>
<rect x="302.5" y="330.5" width="20" height="21" rx="2.5" fill="black" stroke="#F2F2F2" stroke-width="3"/>
<rect x="349.5" y="330.5" width="20" height="21" rx="2.5" fill="black" stroke="#F2F2F2" stroke-width="3"/>
<rect x="396.5" y="245.5" width="20" height="20" rx="2.5" fill="black" stroke="#F2F2F2" stroke-width="3"/>
<rect x="443.5" y="172.5" width="20" height="20" rx="2.5" fill="black" stroke="#F2F2F2" stroke-width="3"/>
<rect x="490.5" y="245.5" width="20" height="20" rx="2.5" fill="black" stroke="#F2F2F2" stroke-width="3"/>
<rect x="543.5" y="283.5" width="20" height="21" rx="2.5" fill="black" stroke="#F2F2F2" stroke-width="3"/>
<path opacity="0.5" d="M130.59 601V580.837H123.396V577.57H141.348V580.837H134.154V601H130.59ZM141.992 601V583.444H145.193L145.325 588.097L145.028 587.998C145.27 586.414 145.754 585.259 146.48 584.533C147.228 583.807 148.229 583.444 149.483 583.444H151.166V586.579H149.483C148.603 586.579 147.866 586.722 147.272 587.008C146.678 587.294 146.227 587.734 145.919 588.328C145.633 588.922 145.49 589.692 145.49 590.638V601H141.992ZM157.979 601.396C156.153 601.396 154.69 600.978 153.59 600.142C152.512 599.306 151.973 598.129 151.973 596.611C151.973 595.093 152.424 593.916 153.326 593.08C154.25 592.222 155.669 591.606 157.583 591.232L163.622 590.077C163.622 588.713 163.303 587.701 162.665 587.041C162.027 586.359 161.081 586.018 159.827 586.018C158.705 586.018 157.825 586.271 157.187 586.777C156.549 587.261 156.109 587.987 155.867 588.955L152.27 588.724C152.6 586.964 153.414 585.578 154.712 584.566C156.032 583.554 157.737 583.048 159.827 583.048C162.203 583.048 164.007 583.686 165.239 584.962C166.493 586.216 167.12 587.987 167.12 590.275V597.106C167.12 597.524 167.186 597.821 167.318 597.997C167.472 598.151 167.714 598.228 168.044 598.228H168.671V601C168.561 601.022 168.385 601.044 168.143 601.066C167.901 601.088 167.648 601.099 167.384 601.099C166.636 601.099 165.987 600.978 165.437 600.736C164.909 600.494 164.513 600.098 164.249 599.548C163.985 598.976 163.853 598.217 163.853 597.271L164.216 597.436C164.04 598.206 163.655 598.888 163.061 599.482C162.489 600.076 161.752 600.549 160.85 600.901C159.97 601.231 159.013 601.396 157.979 601.396ZM158.54 598.624C159.596 598.624 160.498 598.426 161.246 598.03C161.994 597.612 162.577 597.04 162.995 596.314C163.413 595.588 163.622 594.763 163.622 593.839V592.717L158.474 593.707C157.418 593.905 156.67 594.224 156.23 594.664C155.812 595.082 155.603 595.621 155.603 596.281C155.603 597.029 155.856 597.612 156.362 598.03C156.89 598.426 157.616 598.624 158.54 598.624ZM170.965 601V583.444H174.166L174.298 588.13L173.869 587.899C174.067 586.755 174.441 585.831 174.991 585.127C175.541 584.423 176.212 583.906 177.004 583.576C177.796 583.224 178.654 583.048 179.578 583.048C180.898 583.048 181.987 583.345 182.845 583.939C183.725 584.511 184.385 585.303 184.825 586.315C185.287 587.305 185.518 588.438 185.518 589.714V601H182.02V590.77C182.02 589.736 181.91 588.867 181.69 588.163C181.47 587.459 181.107 586.92 180.601 586.546C180.095 586.172 179.435 585.985 178.621 585.985C177.389 585.985 176.388 586.392 175.618 587.206C174.848 588.02 174.463 589.208 174.463 590.77V601H170.965ZM196.18 601.396C194.53 601.396 193.133 601.143 191.989 600.637C190.867 600.131 189.998 599.438 189.382 598.558C188.766 597.656 188.414 596.622 188.326 595.456L191.923 595.291C192.099 596.259 192.517 597.029 193.177 597.601C193.837 598.173 194.838 598.459 196.18 598.459C197.28 598.459 198.149 598.283 198.787 597.931C199.425 597.579 199.744 597.018 199.744 596.248C199.744 595.83 199.634 595.478 199.414 595.192C199.216 594.884 198.82 594.631 198.226 594.433C197.632 594.213 196.752 594.004 195.586 593.806C193.848 593.476 192.484 593.091 191.494 592.651C190.504 592.211 189.8 591.65 189.382 590.968C188.964 590.286 188.755 589.461 188.755 588.493C188.755 586.887 189.349 585.578 190.537 584.566C191.747 583.554 193.485 583.048 195.751 583.048C197.269 583.048 198.545 583.312 199.579 583.84C200.613 584.346 201.416 585.039 201.988 585.919C202.582 586.777 202.956 587.745 203.11 588.823L199.513 589.021C199.403 588.405 199.183 587.877 198.853 587.437C198.545 586.975 198.127 586.623 197.599 586.381C197.071 586.117 196.444 585.985 195.718 585.985C194.596 585.985 193.76 586.205 193.21 586.645C192.66 587.085 192.385 587.657 192.385 588.361C192.385 588.889 192.506 589.318 192.748 589.648C193.012 589.978 193.43 590.253 194.002 590.473C194.574 590.671 195.333 590.847 196.279 591.001C198.105 591.309 199.535 591.694 200.569 592.156C201.603 592.596 202.329 593.146 202.747 593.806C203.165 594.466 203.374 595.269 203.374 596.215C203.374 597.315 203.066 598.25 202.45 599.02C201.834 599.79 200.987 600.384 199.909 600.802C198.831 601.198 197.588 601.396 196.18 601.396ZM211.526 601.396C209.7 601.396 208.237 600.978 207.137 600.142C206.059 599.306 205.52 598.129 205.52 596.611C205.52 595.093 205.971 593.916 206.873 593.08C207.797 592.222 209.216 591.606 211.13 591.232L217.169 590.077C217.169 588.713 216.85 587.701 216.212 587.041C215.574 586.359 214.628 586.018 213.374 586.018C212.252 586.018 211.372 586.271 210.734 586.777C210.096 587.261 209.656 587.987 209.414 588.955L205.817 588.724C206.147 586.964 206.961 585.578 208.259 584.566C209.579 583.554 211.284 583.048 213.374 583.048C215.75 583.048 217.554 583.686 218.786 584.962C220.04 586.216 220.667 587.987 220.667 590.275V597.106C220.667 597.524 220.733 597.821 220.865 597.997C221.019 598.151 221.261 598.228 221.591 598.228H222.218V601C222.108 601.022 221.932 601.044 221.69 601.066C221.448 601.088 221.195 601.099 220.931 601.099C220.183 601.099 219.534 600.978 218.984 600.736C218.456 600.494 218.06 600.098 217.796 599.548C217.532 598.976 217.4 598.217 217.4 597.271L217.763 597.436C217.587 598.206 217.202 598.888 216.608 599.482C216.036 600.076 215.299 600.549 214.397 600.901C213.517 601.231 212.56 601.396 211.526 601.396ZM212.087 598.624C213.143 598.624 214.045 598.426 214.793 598.03C215.541 597.612 216.124 597.04 216.542 596.314C216.96 595.588 217.169 594.763 217.169 593.839V592.717L212.021 593.707C210.965 593.905 210.217 594.224 209.777 594.664C209.359 595.082 209.15 595.621 209.15 596.281C209.15 597.029 209.403 597.612 209.909 598.03C210.437 598.426 211.163 598.624 212.087 598.624ZM231.609 601.396C229.937 601.396 228.474 601.022 227.22 600.274C225.966 599.526 224.998 598.459 224.316 597.073C223.634 595.687 223.293 594.07 223.293 592.222C223.293 590.374 223.634 588.768 224.316 587.404C224.998 586.018 225.966 584.951 227.22 584.203C228.474 583.433 229.937 583.048 231.609 583.048C233.039 583.048 234.304 583.301 235.404 583.807C236.526 584.291 237.428 585.006 238.11 585.952C238.814 586.898 239.265 588.053 239.463 589.417L235.8 589.615C235.624 588.471 235.162 587.602 234.414 587.008C233.666 586.392 232.731 586.084 231.609 586.084C230.135 586.084 228.98 586.634 228.144 587.734C227.33 588.812 226.923 590.308 226.923 592.222C226.923 594.136 227.33 595.643 228.144 596.743C228.98 597.821 230.135 598.36 231.609 598.36C232.731 598.36 233.666 598.052 234.414 597.436C235.162 596.798 235.624 595.841 235.8 594.565L239.463 594.763C239.265 596.105 238.814 597.271 238.11 598.261C237.428 599.251 236.526 600.021 235.404 600.571C234.304 601.121 233.039 601.396 231.609 601.396ZM248.082 601C246.41 601 245.178 600.615 244.386 599.845C243.594 599.075 243.198 597.876 243.198 596.248V579.319H246.696V595.984C246.696 596.798 246.872 597.359 247.224 597.667C247.576 597.975 248.115 598.129 248.841 598.129H251.349V601H248.082ZM240.525 586.315V583.444H251.349V586.315H240.525ZM254.032 601V583.444H257.53V601H254.032ZM253.966 580.903V577.405H257.596V580.903H253.966ZM268.72 601.396C267.048 601.396 265.585 601.022 264.331 600.274C263.077 599.526 262.109 598.459 261.427 597.073C260.745 595.687 260.404 594.07 260.404 592.222C260.404 590.352 260.745 588.735 261.427 587.371C262.109 586.007 263.077 584.951 264.331 584.203C265.585 583.433 267.048 583.048 268.72 583.048C270.392 583.048 271.855 583.433 273.109 584.203C274.363 584.951 275.331 586.007 276.013 587.371C276.695 588.735 277.036 590.352 277.036 592.222C277.036 594.07 276.695 595.687 276.013 597.073C275.331 598.459 274.363 599.526 273.109 600.274C271.855 601.022 270.392 601.396 268.72 601.396ZM268.72 598.36C270.216 598.36 271.371 597.821 272.185 596.743C272.999 595.643 273.406 594.136 273.406 592.222C273.406 590.308 272.999 588.812 272.185 587.734C271.371 586.634 270.216 586.084 268.72 586.084C267.246 586.084 266.091 586.634 265.255 587.734C264.441 588.812 264.034 590.308 264.034 592.222C264.034 594.136 264.441 595.643 265.255 596.743C266.091 597.821 267.246 598.36 268.72 598.36ZM279.911 601V583.444H283.112L283.244 588.13L282.815 587.899C283.013 586.755 283.387 585.831 283.937 585.127C284.487 584.423 285.158 583.906 285.95 583.576C286.742 583.224 287.6 583.048 288.524 583.048C289.844 583.048 290.933 583.345 291.791 583.939C292.671 584.511 293.331 585.303 293.771 586.315C294.233 587.305 294.464 588.438 294.464 589.714V601H290.966V590.77C290.966 589.736 290.856 588.867 290.636 588.163C290.416 587.459 290.053 586.92 289.547 586.546C289.041 586.172 288.381 585.985 287.567 585.985C286.335 585.985 285.334 586.392 284.564 587.206C283.794 588.02 283.409 589.208 283.409 590.77V601H279.911ZM307.895 601V582.322C307.895 580.87 308.302 579.715 309.116 578.857C309.93 577.999 311.206 577.57 312.944 577.57H316.046V580.441H313.406C312.724 580.441 312.218 580.628 311.888 581.002C311.558 581.354 311.393 581.86 311.393 582.52V601H307.895ZM305.453 586.513V583.675H315.782V586.513H305.453ZM324.893 601.396C323.177 601.396 321.692 601.022 320.438 600.274C319.206 599.526 318.249 598.459 317.567 597.073C316.907 595.687 316.577 594.07 316.577 592.222C316.577 590.374 316.907 588.768 317.567 587.404C318.249 586.018 319.206 584.951 320.438 584.203C321.67 583.433 323.122 583.048 324.794 583.048C326.378 583.048 327.775 583.422 328.985 584.17C330.195 584.896 331.13 585.952 331.79 587.338C332.472 588.724 332.813 590.396 332.813 592.354V593.245H320.207C320.295 594.961 320.746 596.248 321.56 597.106C322.396 597.964 323.518 598.393 324.926 598.393C325.96 598.393 326.818 598.151 327.5 597.667C328.182 597.183 328.655 596.534 328.919 595.72L332.549 595.951C332.087 597.579 331.174 598.899 329.81 599.911C328.468 600.901 326.829 601.396 324.893 601.396ZM320.207 590.605H329.117C329.007 589.043 328.556 587.888 327.764 587.14C326.994 586.392 326.004 586.018 324.794 586.018C323.54 586.018 322.506 586.414 321.692 587.206C320.9 587.976 320.405 589.109 320.207 590.605ZM342.925 601.396C341.209 601.396 339.724 601.022 338.47 600.274C337.238 599.526 336.281 598.459 335.599 597.073C334.939 595.687 334.609 594.07 334.609 592.222C334.609 590.374 334.939 588.768 335.599 587.404C336.281 586.018 337.238 584.951 338.47 584.203C339.702 583.433 341.154 583.048 342.826 583.048C344.41 583.048 345.807 583.422 347.017 584.17C348.227 584.896 349.162 585.952 349.822 587.338C350.504 588.724 350.845 590.396 350.845 592.354V593.245H338.239C338.327 594.961 338.778 596.248 339.592 597.106C340.428 597.964 341.55 598.393 342.958 598.393C343.992 598.393 344.85 598.151 345.532 597.667C346.214 597.183 346.687 596.534 346.951 595.72L350.581 595.951C350.119 597.579 349.206 598.899 347.842 599.911C346.5 600.901 344.861 601.396 342.925 601.396ZM338.239 590.605H347.149C347.039 589.043 346.588 587.888 345.796 587.14C345.026 586.392 344.036 586.018 342.826 586.018C341.572 586.018 340.538 586.414 339.724 587.206C338.932 587.976 338.437 589.109 338.239 590.605ZM360.494 601.396C358.844 601.396 357.447 601.143 356.303 600.637C355.181 600.131 354.312 599.438 353.696 598.558C353.08 597.656 352.728 596.622 352.64 595.456L356.237 595.291C356.413 596.259 356.831 597.029 357.491 597.601C358.151 598.173 359.152 598.459 360.494 598.459C361.594 598.459 362.463 598.283 363.101 597.931C363.739 597.579 364.058 597.018 364.058 596.248C364.058 595.83 363.948 595.478 363.728 595.192C363.53 594.884 363.134 594.631 362.54 594.433C361.946 594.213 361.066 594.004 359.9 593.806C358.162 593.476 356.798 593.091 355.808 592.651C354.818 592.211 354.114 591.65 353.696 590.968C353.278 590.286 353.069 589.461 353.069 588.493C353.069 586.887 353.663 585.578 354.851 584.566C356.061 583.554 357.799 583.048 360.065 583.048C361.583 583.048 362.859 583.312 363.893 583.84C364.927 584.346 365.73 585.039 366.302 585.919C366.896 586.777 367.27 587.745 367.424 588.823L363.827 589.021C363.717 588.405 363.497 587.877 363.167 587.437C362.859 586.975 362.441 586.623 361.913 586.381C361.385 586.117 360.758 585.985 360.032 585.985C358.91 585.985 358.074 586.205 357.524 586.645C356.974 587.085 356.699 587.657 356.699 588.361C356.699 588.889 356.82 589.318 357.062 589.648C357.326 589.978 357.744 590.253 358.316 590.473C358.888 590.671 359.647 590.847 360.593 591.001C362.419 591.309 363.849 591.694 364.883 592.156C365.917 592.596 366.643 593.146 367.061 593.806C367.479 594.466 367.688 595.269 367.688 596.215C367.688 597.315 367.38 598.25 366.764 599.02C366.148 599.79 365.301 600.384 364.223 600.802C363.145 601.198 361.902 601.396 360.494 601.396ZM380.037 601V582.322C380.037 580.87 380.444 579.715 381.258 578.857C382.072 577.999 383.348 577.57 385.086 577.57H388.188V580.441H385.548C384.866 580.441 384.36 580.628 384.03 581.002C383.7 581.354 383.535 581.86 383.535 582.52V601H380.037ZM377.595 586.513V583.675H387.924V586.513H377.595ZM395.085 601C393.941 601 393.017 600.703 392.313 600.109C391.609 599.515 391.257 598.569 391.257 597.271V577.57H394.755V596.941C394.755 597.337 394.854 597.634 395.052 597.832C395.272 598.03 395.58 598.129 395.976 598.129H397.362V601H395.085ZM405.381 601.396C403.621 601.396 402.213 600.813 401.157 599.647C400.123 598.459 399.606 596.82 399.606 594.73V583.444H403.104V593.839C403.104 595.423 403.379 596.589 403.929 597.337C404.479 598.085 405.315 598.459 406.437 598.459C407.713 598.459 408.703 598.052 409.407 597.238C410.133 596.402 410.496 595.236 410.496 593.74V583.444H413.994V601H410.727L410.661 596.413L411.156 596.611C410.848 598.151 410.199 599.339 409.209 600.175C408.219 600.989 406.943 601.396 405.381 601.396ZM425.186 601.396C423.514 601.396 422.051 601.022 420.797 600.274C419.543 599.526 418.575 598.459 417.893 597.073C417.211 595.687 416.87 594.07 416.87 592.222C416.87 590.374 417.211 588.768 417.893 587.404C418.575 586.018 419.543 584.951 420.797 584.203C422.051 583.433 423.514 583.048 425.186 583.048C426.616 583.048 427.881 583.301 428.981 583.807C430.103 584.291 431.005 585.006 431.687 585.952C432.391 586.898 432.842 588.053 433.04 589.417L429.377 589.615C429.201 588.471 428.739 587.602 427.991 587.008C427.243 586.392 426.308 586.084 425.186 586.084C423.712 586.084 422.557 586.634 421.721 587.734C420.907 588.812 420.5 590.308 420.5 592.222C420.5 594.136 420.907 595.643 421.721 596.743C422.557 597.821 423.712 598.36 425.186 598.36C426.308 598.36 427.243 598.052 427.991 597.436C428.739 596.798 429.201 595.841 429.377 594.565L433.04 594.763C432.842 596.105 432.391 597.271 431.687 598.261C431.005 599.251 430.103 600.021 428.981 600.571C427.881 601.121 426.616 601.396 425.186 601.396ZM441.659 601C439.987 601 438.755 600.615 437.963 599.845C437.171 599.075 436.775 597.876 436.775 596.248V579.319H440.273V595.984C440.273 596.798 440.449 597.359 440.801 597.667C441.153 597.975 441.692 598.129 442.418 598.129H444.926V601H441.659ZM434.102 586.315V583.444H444.926V586.315H434.102ZM453.449 601.396C451.689 601.396 450.281 600.813 449.225 599.647C448.191 598.459 447.674 596.82 447.674 594.73V583.444H451.172V593.839C451.172 595.423 451.447 596.589 451.997 597.337C452.547 598.085 453.383 598.459 454.505 598.459C455.781 598.459 456.771 598.052 457.475 597.238C458.201 596.402 458.564 595.236 458.564 593.74V583.444H462.062V601H458.795L458.729 596.413L459.224 596.611C458.916 598.151 458.267 599.339 457.277 600.175C456.287 600.989 455.011 601.396 453.449 601.396ZM471.267 601.396C469.441 601.396 467.978 600.978 466.878 600.142C465.8 599.306 465.261 598.129 465.261 596.611C465.261 595.093 465.712 593.916 466.614 593.08C467.538 592.222 468.957 591.606 470.871 591.232L476.91 590.077C476.91 588.713 476.591 587.701 475.953 587.041C475.315 586.359 474.369 586.018 473.115 586.018C471.993 586.018 471.113 586.271 470.475 586.777C469.837 587.261 469.397 587.987 469.155 588.955L465.558 588.724C465.888 586.964 466.702 585.578 468 584.566C469.32 583.554 471.025 583.048 473.115 583.048C475.491 583.048 477.295 583.686 478.527 584.962C479.781 586.216 480.408 587.987 480.408 590.275V597.106C480.408 597.524 480.474 597.821 480.606 597.997C480.76 598.151 481.002 598.228 481.332 598.228H481.959V601C481.849 601.022 481.673 601.044 481.431 601.066C481.189 601.088 480.936 601.099 480.672 601.099C479.924 601.099 479.275 600.978 478.725 600.736C478.197 600.494 477.801 600.098 477.537 599.548C477.273 598.976 477.141 598.217 477.141 597.271L477.504 597.436C477.328 598.206 476.943 598.888 476.349 599.482C475.777 600.076 475.04 600.549 474.138 600.901C473.258 601.231 472.301 601.396 471.267 601.396ZM471.828 598.624C472.884 598.624 473.786 598.426 474.534 598.03C475.282 597.612 475.865 597.04 476.283 596.314C476.701 595.588 476.91 594.763 476.91 593.839V592.717L471.762 593.707C470.706 593.905 469.958 594.224 469.518 594.664C469.1 595.082 468.891 595.621 468.891 596.281C468.891 597.029 469.144 597.612 469.65 598.03C470.178 598.426 470.904 598.624 471.828 598.624ZM490.082 601C488.41 601 487.178 600.615 486.386 599.845C485.594 599.075 485.198 597.876 485.198 596.248V579.319H488.696V595.984C488.696 596.798 488.872 597.359 489.224 597.667C489.576 597.975 490.115 598.129 490.841 598.129H493.349V601H490.082ZM482.525 586.315V583.444H493.349V586.315H482.525ZM502.968 601.396C501.252 601.396 499.767 601.022 498.513 600.274C497.281 599.526 496.324 598.459 495.642 597.073C494.982 595.687 494.652 594.07 494.652 592.222C494.652 590.374 494.982 588.768 495.642 587.404C496.324 586.018 497.281 584.951 498.513 584.203C499.745 583.433 501.197 583.048 502.869 583.048C504.453 583.048 505.85 583.422 507.06 584.17C508.27 584.896 509.205 585.952 509.865 587.338C510.547 588.724 510.888 590.396 510.888 592.354V593.245H498.282C498.37 594.961 498.821 596.248 499.635 597.106C500.471 597.964 501.593 598.393 503.001 598.393C504.035 598.393 504.893 598.151 505.575 597.667C506.257 597.183 506.73 596.534 506.994 595.72L510.624 595.951C510.162 597.579 509.249 598.899 507.885 599.911C506.543 600.901 504.904 601.396 502.968 601.396ZM498.282 590.605H507.192C507.082 589.043 506.631 587.888 505.839 587.14C505.069 586.392 504.079 586.018 502.869 586.018C501.615 586.018 500.581 586.414 499.767 587.206C498.975 587.976 498.48 589.109 498.282 590.605Z" fill="black"/>
<rect width="172" height="50" transform="translate(836 54)" fill="black" fill-opacity="0.05"/>
<path opacity="0.5" d="M855.484 87L853.69 70.67H855.76L857.278 85.85H857.048L858.842 72.51H860.958L862.752 85.85H862.522L864.04 70.67H866.11L864.316 87H861.326L859.624 74.12H860.176L858.474 87H855.484ZM868.631 87V85.068H872.702V72.602H868.631V70.67H878.751V72.602H874.68V85.068H878.751V87H868.631ZM886.493 87V72.602H881.502V70.67H893.462V72.602H888.471V87H886.493ZM895.753 87V70.67H897.731V78.605L896.719 77.823H905.827L904.815 78.605V70.67H906.793V87H904.815V78.973L905.827 79.755H896.719L897.731 78.973V87H895.753ZM927.866 87V72.602H922.875V70.67H934.835V72.602H929.844V87H927.866ZM937.816 87V70.67H947.752V72.602H939.794V77.869H947.476V79.755H939.794V85.068H947.936V87H937.816ZM955.563 85.16L952.481 72.51H952.665V87H950.687V70.67H953.677L956.897 84.102H955.977L959.197 70.67H962.187V87H960.209V72.51H960.393L957.311 85.16H955.563ZM965.398 87V70.67H970.366C971.501 70.67 972.49 70.8693 973.333 71.268C974.176 71.6667 974.828 72.2417 975.288 72.993C975.748 73.729 975.978 74.6183 975.978 75.661C975.978 76.7037 975.748 77.6007 975.288 78.352C974.828 79.088 974.176 79.6553 973.333 80.054C972.49 80.4527 971.501 80.652 970.366 80.652H967.376V87H965.398ZM967.376 78.72H970.136C971.424 78.72 972.375 78.4593 972.988 77.938C973.601 77.4013 973.908 76.6423 973.908 75.661C973.908 74.6643 973.601 73.9053 972.988 73.384C972.375 72.8627 971.424 72.602 970.136 72.602H967.376V78.72ZM984.019 87.368C982.731 87.368 981.635 87.0383 980.73 86.379C979.841 85.7197 979.158 84.7537 978.683 83.481C978.223 82.2083 977.993 80.6673 977.993 78.858C977.993 77.018 978.223 75.4617 978.683 74.189C979.158 72.9163 979.841 71.9503 980.73 71.291C981.635 70.6317 982.731 70.302 984.019 70.302C985.307 70.302 986.396 70.6317 987.285 71.291C988.19 71.9503 988.872 72.9163 989.332 74.189C989.807 75.4617 990.045 77.018 990.045 78.858C990.045 80.6673 989.807 82.2083 989.332 83.481C988.872 84.7537 988.19 85.7197 987.285 86.379C986.396 87.0383 985.307 87.368 984.019 87.368ZM984.019 85.436C984.862 85.436 985.575 85.1907 986.158 84.7C986.756 84.194 987.208 83.4503 987.515 82.469C987.822 81.4877 987.975 80.284 987.975 78.858C987.975 77.432 987.822 76.2283 987.515 75.247C987.208 74.2503 986.756 73.499 986.158 72.993C985.575 72.487 984.862 72.234 984.019 72.234C983.176 72.234 982.455 72.487 981.857 72.993C981.274 73.499 980.83 74.2503 980.523 75.247C980.216 76.2283 980.063 77.432 980.063 78.858C980.063 80.284 980.216 81.4877 980.523 82.469C980.83 83.4503 981.274 84.194 981.857 84.7C982.455 85.1907 983.176 85.436 984.019 85.436Z" fill="black"/>
<path opacity="0.5" d="M742.144 601.528C740.032 601.528 738.173 601.044 736.567 600.076C734.961 599.086 733.707 597.678 732.805 595.852C731.903 594.026 731.452 591.848 731.452 589.318C731.452 586.81 731.892 584.643 732.772 582.817C733.674 580.969 734.928 579.55 736.534 578.56C738.14 577.548 740.021 577.042 742.177 577.042C745.081 577.042 747.336 577.768 748.942 579.22C750.548 580.672 751.593 582.685 752.077 585.259L748.348 585.457C748.04 583.851 747.38 582.597 746.368 581.695C745.356 580.771 743.959 580.309 742.177 580.309C740.747 580.309 739.504 580.672 738.448 581.398C737.414 582.124 736.6 583.158 736.006 584.5C735.434 585.842 735.148 587.448 735.148 589.318C735.148 591.188 735.434 592.794 736.006 594.136C736.6 595.478 737.425 596.501 738.481 597.205C739.537 597.909 740.758 598.261 742.144 598.261C744.036 598.261 745.499 597.766 746.533 596.776C747.589 595.764 748.249 594.378 748.513 592.618L752.242 592.816C751.956 594.598 751.384 596.138 750.526 597.436C749.668 598.734 748.535 599.746 747.127 600.472C745.719 601.176 744.058 601.528 742.144 601.528ZM762.31 601.396C760.638 601.396 759.175 601.022 757.921 600.274C756.667 599.526 755.699 598.459 755.017 597.073C754.335 595.687 753.994 594.07 753.994 592.222C753.994 590.352 754.335 588.735 755.017 587.371C755.699 586.007 756.667 584.951 757.921 584.203C759.175 583.433 760.638 583.048 762.31 583.048C763.982 583.048 765.445 583.433 766.699 584.203C767.953 584.951 768.921 586.007 769.603 587.371C770.285 588.735 770.626 590.352 770.626 592.222C770.626 594.07 770.285 595.687 769.603 597.073C768.921 598.459 767.953 599.526 766.699 600.274C765.445 601.022 763.982 601.396 762.31 601.396ZM762.31 598.36C763.806 598.36 764.961 597.821 765.775 596.743C766.589 595.643 766.996 594.136 766.996 592.222C766.996 590.308 766.589 588.812 765.775 587.734C764.961 586.634 763.806 586.084 762.31 586.084C760.836 586.084 759.681 586.634 758.845 587.734C758.031 588.812 757.624 590.308 757.624 592.222C757.624 594.136 758.031 595.643 758.845 596.743C759.681 597.821 760.836 598.36 762.31 598.36ZM773.501 601V583.444H776.702L776.834 588.13L776.405 587.899C776.603 586.755 776.977 585.831 777.527 585.127C778.077 584.423 778.748 583.906 779.54 583.576C780.332 583.224 781.19 583.048 782.114 583.048C783.434 583.048 784.523 583.345 785.381 583.939C786.261 584.511 786.921 585.303 787.361 586.315C787.823 587.305 788.054 588.438 788.054 589.714V601H784.556V590.77C784.556 589.736 784.446 588.867 784.226 588.163C784.006 587.459 783.643 586.92 783.137 586.546C782.631 586.172 781.971 585.985 781.157 585.985C779.925 585.985 778.924 586.392 778.154 587.206C777.384 588.02 776.999 589.208 776.999 590.77V601H773.501ZM798.716 601.396C797.066 601.396 795.669 601.143 794.525 600.637C793.403 600.131 792.534 599.438 791.918 598.558C791.302 597.656 790.95 596.622 790.862 595.456L794.459 595.291C794.635 596.259 795.053 597.029 795.713 597.601C796.373 598.173 797.374 598.459 798.716 598.459C799.816 598.459 800.685 598.283 801.323 597.931C801.961 597.579 802.28 597.018 802.28 596.248C802.28 595.83 802.17 595.478 801.95 595.192C801.752 594.884 801.356 594.631 800.762 594.433C800.168 594.213 799.288 594.004 798.122 593.806C796.384 593.476 795.02 593.091 794.03 592.651C793.04 592.211 792.336 591.65 791.918 590.968C791.5 590.286 791.291 589.461 791.291 588.493C791.291 586.887 791.885 585.578 793.073 584.566C794.283 583.554 796.021 583.048 798.287 583.048C799.805 583.048 801.081 583.312 802.115 583.84C803.149 584.346 803.952 585.039 804.524 585.919C805.118 586.777 805.492 587.745 805.646 588.823L802.049 589.021C801.939 588.405 801.719 587.877 801.389 587.437C801.081 586.975 800.663 586.623 800.135 586.381C799.607 586.117 798.98 585.985 798.254 585.985C797.132 585.985 796.296 586.205 795.746 586.645C795.196 587.085 794.921 587.657 794.921 588.361C794.921 588.889 795.042 589.318 795.284 589.648C795.548 589.978 795.966 590.253 796.538 590.473C797.11 590.671 797.869 590.847 798.815 591.001C800.641 591.309 802.071 591.694 803.105 592.156C804.139 592.596 804.865 593.146 805.283 593.806C805.701 594.466 805.91 595.269 805.91 596.215C805.91 597.315 805.602 598.25 804.986 599.02C804.37 599.79 803.523 600.384 802.445 600.802C801.367 601.198 800.124 601.396 798.716 601.396ZM814.878 601C813.206 601 811.974 600.615 811.182 599.845C810.39 599.075 809.994 597.876 809.994 596.248V579.319H813.492V595.984C813.492 596.798 813.668 597.359 814.02 597.667C814.372 597.975 814.911 598.129 815.637 598.129H818.145V601H814.878ZM807.321 586.315V583.444H818.145V586.315H807.321ZM825.648 601.396C823.822 601.396 822.359 600.978 821.259 600.142C820.181 599.306 819.642 598.129 819.642 596.611C819.642 595.093 820.093 593.916 820.995 593.08C821.919 592.222 823.338 591.606 825.252 591.232L831.291 590.077C831.291 588.713 830.972 587.701 830.334 587.041C829.696 586.359 828.75 586.018 827.496 586.018C826.374 586.018 825.494 586.271 824.856 586.777C824.218 587.261 823.778 587.987 823.536 588.955L819.939 588.724C820.269 586.964 821.083 585.578 822.381 584.566C823.701 583.554 825.406 583.048 827.496 583.048C829.872 583.048 831.676 583.686 832.908 584.962C834.162 586.216 834.789 587.987 834.789 590.275V597.106C834.789 597.524 834.855 597.821 834.987 597.997C835.141 598.151 835.383 598.228 835.713 598.228H836.34V601C836.23 601.022 836.054 601.044 835.812 601.066C835.57 601.088 835.317 601.099 835.053 601.099C834.305 601.099 833.656 600.978 833.106 600.736C832.578 600.494 832.182 600.098 831.918 599.548C831.654 598.976 831.522 598.217 831.522 597.271L831.885 597.436C831.709 598.206 831.324 598.888 830.73 599.482C830.158 600.076 829.421 600.549 828.519 600.901C827.639 601.231 826.682 601.396 825.648 601.396ZM826.209 598.624C827.265 598.624 828.167 598.426 828.915 598.03C829.663 597.612 830.246 597.04 830.664 596.314C831.082 595.588 831.291 594.763 831.291 593.839V592.717L826.143 593.707C825.087 593.905 824.339 594.224 823.899 594.664C823.481 595.082 823.272 595.621 823.272 596.281C823.272 597.029 823.525 597.612 824.031 598.03C824.559 598.426 825.285 598.624 826.209 598.624ZM838.633 601V583.444H841.834L841.966 588.13L841.537 587.899C841.735 586.755 842.109 585.831 842.659 585.127C843.209 584.423 843.88 583.906 844.672 583.576C845.464 583.224 846.322 583.048 847.246 583.048C848.566 583.048 849.655 583.345 850.513 583.939C851.393 584.511 852.053 585.303 852.493 586.315C852.955 587.305 853.186 588.438 853.186 589.714V601H849.688V590.77C849.688 589.736 849.578 588.867 849.358 588.163C849.138 587.459 848.775 586.92 848.269 586.546C847.763 586.172 847.103 585.985 846.289 585.985C845.057 585.985 844.056 586.392 843.286 587.206C842.516 588.02 842.131 589.208 842.131 590.77V601H838.633ZM862.945 601C861.273 601 860.041 600.615 859.249 599.845C858.457 599.075 858.061 597.876 858.061 596.248V579.319H861.559V595.984C861.559 596.798 861.735 597.359 862.087 597.667C862.439 597.975 862.978 598.129 863.704 598.129H866.212V601H862.945ZM855.388 586.315V583.444H866.212V586.315H855.388ZM882.888 601.528C880.49 601.528 878.62 600.989 877.278 599.911C875.936 598.811 875.265 597.26 875.265 595.258C875.265 594.246 875.408 593.344 875.694 592.552C876.002 591.76 876.497 591.012 877.179 590.308C877.861 589.582 878.785 588.834 879.951 588.064C879.445 587.426 879.016 586.832 878.664 586.282C878.312 585.71 878.037 585.138 877.839 584.566C877.663 583.972 877.575 583.334 877.575 582.652C877.575 580.914 878.114 579.55 879.192 578.56C880.292 577.548 881.81 577.042 883.746 577.042C885.044 577.042 886.144 577.262 887.046 577.702C887.948 578.12 888.63 578.725 889.092 579.517C889.554 580.287 889.785 581.2 889.785 582.256C889.785 583.554 889.389 584.698 888.597 585.688C887.827 586.678 886.573 587.723 884.835 588.823L889.62 594.895C890.346 593.905 890.709 592.409 890.709 590.407L894.24 590.737C894.196 592.035 893.954 593.289 893.514 594.499C893.096 595.709 892.546 596.71 891.864 597.502L894.801 601H890.643L889.554 599.68C888.894 600.23 887.992 600.67 886.848 601C885.726 601.352 884.406 601.528 882.888 601.528ZM883.251 598.327C884.241 598.327 885.066 598.217 885.726 597.997C886.386 597.777 886.892 597.491 887.244 597.139L881.931 590.506C880.875 591.232 880.116 591.947 879.654 592.651C879.192 593.333 878.961 594.136 878.961 595.06C878.961 596.05 879.302 596.842 879.984 597.436C880.688 598.03 881.777 598.327 883.251 598.327ZM882.987 586.513C883.735 586.051 884.34 585.622 884.802 585.226C885.264 584.808 885.594 584.379 885.792 583.939C885.99 583.499 886.089 583.026 886.089 582.52C886.089 581.816 885.88 581.277 885.462 580.903C885.066 580.507 884.505 580.309 883.779 580.309C882.987 580.309 882.36 580.518 881.898 580.936C881.458 581.354 881.238 581.948 881.238 582.718C881.238 583.114 881.293 583.51 881.403 583.906C881.513 584.28 881.689 584.676 881.931 585.094C882.195 585.512 882.547 585.985 882.987 586.513ZM904.62 601V583.444H907.821L907.953 588.13L907.524 587.899C907.722 586.755 908.096 585.831 908.646 585.127C909.196 584.423 909.867 583.906 910.659 583.576C911.451 583.224 912.309 583.048 913.233 583.048C914.553 583.048 915.642 583.345 916.5 583.939C917.38 584.511 918.04 585.303 918.48 586.315C918.942 587.305 919.173 588.438 919.173 589.714V601H915.675V590.77C915.675 589.736 915.565 588.867 915.345 588.163C915.125 587.459 914.762 586.92 914.256 586.546C913.75 586.172 913.09 585.985 912.276 585.985C911.044 585.985 910.043 586.392 909.273 587.206C908.503 588.02 908.118 589.208 908.118 590.77V601H904.62ZM930.298 601.396C928.582 601.396 927.097 601.022 925.843 600.274C924.611 599.526 923.654 598.459 922.972 597.073C922.312 595.687 921.982 594.07 921.982 592.222C921.982 590.374 922.312 588.768 922.972 587.404C923.654 586.018 924.611 584.951 925.843 584.203C927.075 583.433 928.527 583.048 930.199 583.048C931.783 583.048 933.18 583.422 934.39 584.17C935.6 584.896 936.535 585.952 937.195 587.338C937.877 588.724 938.218 590.396 938.218 592.354V593.245H925.612C925.7 594.961 926.151 596.248 926.965 597.106C927.801 597.964 928.923 598.393 930.331 598.393C931.365 598.393 932.223 598.151 932.905 597.667C933.587 597.183 934.06 596.534 934.324 595.72L937.954 595.951C937.492 597.579 936.579 598.899 935.215 599.911C933.873 600.901 932.234 601.396 930.298 601.396ZM925.612 590.605H934.522C934.412 589.043 933.961 587.888 933.169 587.14C932.399 586.392 931.409 586.018 930.199 586.018C928.945 586.018 927.911 586.414 927.097 587.206C926.305 587.976 925.81 589.109 925.612 590.605ZM948.164 606.346C946.778 606.346 945.557 606.137 944.501 605.719C943.445 605.301 942.576 604.707 941.894 603.937C941.212 603.189 940.75 602.309 940.508 601.297L944.138 601.066C944.38 601.792 944.798 602.364 945.392 602.782C946.008 603.222 946.932 603.442 948.164 603.442C949.616 603.442 950.727 603.134 951.497 602.518C952.289 601.902 952.685 600.967 952.685 599.713V597.172C952.267 598.074 951.596 598.789 950.672 599.317C949.748 599.845 948.714 600.109 947.57 600.109C946.096 600.109 944.787 599.746 943.643 599.02C942.499 598.294 941.608 597.293 940.97 596.017C940.332 594.741 940.013 593.267 940.013 591.595C940.013 589.901 940.321 588.416 940.937 587.14C941.575 585.864 942.455 584.863 943.577 584.137C944.721 583.411 946.008 583.048 947.438 583.048C948.692 583.048 949.792 583.334 950.738 583.906C951.706 584.478 952.399 585.248 952.817 586.216V583.444H956.183V599.614C956.183 601.066 955.853 602.287 955.193 603.277C954.555 604.289 953.631 605.048 952.421 605.554C951.233 606.082 949.814 606.346 948.164 606.346ZM948.131 597.139C949.495 597.139 950.584 596.644 951.398 595.654C952.234 594.664 952.663 593.3 952.685 591.562C952.707 590.418 952.531 589.439 952.157 588.625C951.783 587.789 951.244 587.151 950.54 586.711C949.858 586.249 949.055 586.018 948.131 586.018C946.701 586.018 945.59 586.524 944.798 587.536C944.028 588.526 943.643 589.868 943.643 591.562C943.643 593.278 944.039 594.642 944.831 595.654C945.645 596.644 946.745 597.139 948.131 597.139ZM964.315 601C963.171 601 962.247 600.703 961.543 600.109C960.839 599.515 960.487 598.569 960.487 597.271V577.57H963.985V596.941C963.985 597.337 964.084 597.634 964.282 597.832C964.502 598.03 964.81 598.129 965.206 598.129H966.592V601H964.315ZM968.883 601V583.444H972.381V601H968.883ZM968.817 580.903V577.405H972.447V580.903H968.817ZM983.406 606.346C982.02 606.346 980.799 606.137 979.743 605.719C978.687 605.301 977.818 604.707 977.136 603.937C976.454 603.189 975.992 602.309 975.75 601.297L979.38 601.066C979.622 601.792 980.04 602.364 980.634 602.782C981.25 603.222 982.174 603.442 983.406 603.442C984.858 603.442 985.969 603.134 986.739 602.518C987.531 601.902 987.927 600.967 987.927 599.713V597.172C987.509 598.074 986.838 598.789 985.914 599.317C984.99 599.845 983.956 600.109 982.812 600.109C981.338 600.109 980.029 599.746 978.885 599.02C977.741 598.294 976.85 597.293 976.212 596.017C975.574 594.741 975.255 593.267 975.255 591.595C975.255 589.901 975.563 588.416 976.179 587.14C976.817 585.864 977.697 584.863 978.819 584.137C979.963 583.411 981.25 583.048 982.68 583.048C983.934 583.048 985.034 583.334 985.98 583.906C986.948 584.478 987.641 585.248 988.059 586.216V583.444H991.425V599.614C991.425 601.066 991.095 602.287 990.435 603.277C989.797 604.289 988.873 605.048 987.663 605.554C986.475 606.082 985.056 606.346 983.406 606.346ZM983.373 597.139C984.737 597.139 985.826 596.644 986.64 595.654C987.476 594.664 987.905 593.3 987.927 591.562C987.949 590.418 987.773 589.439 987.399 588.625C987.025 587.789 986.486 587.151 985.782 586.711C985.1 586.249 984.297 586.018 983.373 586.018C981.943 586.018 980.832 586.524 980.04 587.536C979.27 588.526 978.885 589.868 978.885 591.562C978.885 593.278 979.281 594.642 980.073 595.654C980.887 596.644 981.987 597.139 983.373 597.139ZM995.31 601V583.444H998.808V601H995.31ZM995.244 580.903V577.405H998.874V580.903H995.244ZM1011.26 601.396C1010.05 601.396 1008.97 601.132 1008.02 600.604C1007.1 600.054 1006.38 599.306 1005.88 598.36L1005.78 601H1002.51V577.57H1006.01V585.919C1006.47 585.149 1007.15 584.478 1008.06 583.906C1008.98 583.334 1010.05 583.048 1011.26 583.048C1012.78 583.048 1014.1 583.422 1015.22 584.17C1016.34 584.918 1017.2 585.985 1017.79 587.371C1018.41 588.735 1018.72 590.352 1018.72 592.222C1018.72 594.092 1018.41 595.72 1017.79 597.106C1017.2 598.47 1016.34 599.526 1015.22 600.274C1014.1 601.022 1012.78 601.396 1011.26 601.396ZM1010.7 598.36C1012.04 598.36 1013.11 597.821 1013.9 596.743C1014.69 595.643 1015.09 594.136 1015.09 592.222C1015.09 590.308 1014.69 588.812 1013.9 587.734C1013.11 586.634 1012.05 586.084 1010.73 586.084C1009.74 586.084 1008.89 586.326 1008.19 586.81C1007.48 587.294 1006.95 587.998 1006.57 588.922C1006.2 589.824 1006.01 590.924 1006.01 592.222C1006.01 593.476 1006.2 594.565 1006.57 595.489C1006.95 596.413 1007.48 597.128 1008.19 597.634C1008.89 598.118 1009.73 598.36 1010.7 598.36ZM1025.6 601C1024.45 601 1023.53 600.703 1022.82 600.109C1022.12 599.515 1021.77 598.569 1021.77 597.271V577.57H1025.27V596.941C1025.27 597.337 1025.37 597.634 1025.56 597.832C1025.78 598.03 1026.09 598.129 1026.49 598.129H1027.87V601H1025.6ZM1037.42 601.396C1035.71 601.396 1034.22 601.022 1032.97 600.274C1031.74 599.526 1030.78 598.459 1030.1 597.073C1029.44 595.687 1029.11 594.07 1029.11 592.222C1029.11 590.374 1029.44 588.768 1030.1 587.404C1030.78 586.018 1031.74 584.951 1032.97 584.203C1034.2 583.433 1035.65 583.048 1037.32 583.048C1038.91 583.048 1040.31 583.422 1041.52 584.17C1042.73 584.896 1043.66 585.952 1044.32 587.338C1045 588.724 1045.34 590.396 1045.34 592.354V593.245H1032.74C1032.83 594.961 1033.28 596.248 1034.09 597.106C1034.93 597.964 1036.05 598.393 1037.46 598.393C1038.49 598.393 1039.35 598.151 1040.03 597.667C1040.71 597.183 1041.19 596.534 1041.45 595.72L1045.08 595.951C1044.62 597.579 1043.7 598.899 1042.34 599.911C1041 600.901 1039.36 601.396 1037.42 601.396ZM1032.74 590.605H1041.65C1041.54 589.043 1041.09 587.888 1040.29 587.14C1039.52 586.392 1038.53 586.018 1037.32 586.018C1036.07 586.018 1035.04 586.414 1034.22 587.206C1033.43 587.976 1032.94 589.109 1032.74 590.605ZM1057.7 601V582.322C1057.7 580.87 1058.1 579.715 1058.92 578.857C1059.73 577.999 1061.01 577.57 1062.75 577.57H1065.85V580.441H1063.21C1062.53 580.441 1062.02 580.628 1061.69 581.002C1061.36 581.354 1061.19 581.86 1061.19 582.52V601H1057.7ZM1055.25 586.513V583.675H1065.58V586.513H1055.25ZM1074.7 601.396C1072.98 601.396 1071.49 601.022 1070.24 600.274C1069.01 599.526 1068.05 598.459 1067.37 597.073C1066.71 595.687 1066.38 594.07 1066.38 592.222C1066.38 590.374 1066.71 588.768 1067.37 587.404C1068.05 586.018 1069.01 584.951 1070.24 584.203C1071.47 583.433 1072.92 583.048 1074.6 583.048C1076.18 583.048 1077.58 583.422 1078.79 584.17C1080 584.896 1080.93 585.952 1081.59 587.338C1082.27 588.724 1082.62 590.396 1082.62 592.354V593.245H1070.01C1070.1 594.961 1070.55 596.248 1071.36 597.106C1072.2 597.964 1073.32 598.393 1074.73 598.393C1075.76 598.393 1076.62 598.151 1077.3 597.667C1077.98 597.183 1078.46 596.534 1078.72 595.72L1082.35 595.951C1081.89 597.579 1080.98 598.899 1079.61 599.911C1078.27 600.901 1076.63 601.396 1074.7 601.396ZM1070.01 590.605H1078.92C1078.81 589.043 1078.36 587.888 1077.57 587.14C1076.8 586.392 1075.81 586.018 1074.6 586.018C1073.34 586.018 1072.31 586.414 1071.49 587.206C1070.7 587.976 1070.21 589.109 1070.01 590.605ZM1092.73 601.396C1091.01 601.396 1089.53 601.022 1088.27 600.274C1087.04 599.526 1086.08 598.459 1085.4 597.073C1084.74 595.687 1084.41 594.07 1084.41 592.222C1084.41 590.374 1084.74 588.768 1085.4 587.404C1086.08 586.018 1087.04 584.951 1088.27 584.203C1089.5 583.433 1090.96 583.048 1092.63 583.048C1094.21 583.048 1095.61 583.422 1096.82 584.17C1098.03 584.896 1098.96 585.952 1099.62 587.338C1100.31 588.724 1100.65 590.396 1100.65 592.354V593.245H1088.04C1088.13 594.961 1088.58 596.248 1089.39 597.106C1090.23 597.964 1091.35 598.393 1092.76 598.393C1093.79 598.393 1094.65 598.151 1095.33 597.667C1096.02 597.183 1096.49 596.534 1096.75 595.72L1100.38 595.951C1099.92 597.579 1099.01 598.899 1097.64 599.911C1096.3 600.901 1094.66 601.396 1092.73 601.396ZM1088.04 590.605H1096.95C1096.84 589.043 1096.39 587.888 1095.6 587.14C1094.83 586.392 1093.84 586.018 1092.63 586.018C1091.37 586.018 1090.34 586.414 1089.53 587.206C1088.73 587.976 1088.24 589.109 1088.04 590.605ZM1110.3 601.396C1108.65 601.396 1107.25 601.143 1106.11 600.637C1104.98 600.131 1104.11 599.438 1103.5 598.558C1102.88 597.656 1102.53 596.622 1102.44 595.456L1106.04 595.291C1106.22 596.259 1106.63 597.029 1107.29 597.601C1107.95 598.173 1108.95 598.459 1110.3 598.459C1111.4 598.459 1112.27 598.283 1112.9 597.931C1113.54 597.579 1113.86 597.018 1113.86 596.248C1113.86 595.83 1113.75 595.478 1113.53 595.192C1113.33 594.884 1112.94 594.631 1112.34 594.433C1111.75 594.213 1110.87 594.004 1109.7 593.806C1107.96 593.476 1106.6 593.091 1105.61 592.651C1104.62 592.211 1103.92 591.65 1103.5 590.968C1103.08 590.286 1102.87 589.461 1102.87 588.493C1102.87 586.887 1103.47 585.578 1104.65 584.566C1105.86 583.554 1107.6 583.048 1109.87 583.048C1111.39 583.048 1112.66 583.312 1113.7 583.84C1114.73 584.346 1115.53 585.039 1116.1 585.919C1116.7 586.777 1117.07 587.745 1117.23 588.823L1113.63 589.021C1113.52 588.405 1113.3 587.877 1112.97 587.437C1112.66 586.975 1112.24 586.623 1111.72 586.381C1111.19 586.117 1110.56 585.985 1109.83 585.985C1108.71 585.985 1107.88 586.205 1107.33 586.645C1106.78 587.085 1106.5 587.657 1106.5 588.361C1106.5 588.889 1106.62 589.318 1106.86 589.648C1107.13 589.978 1107.55 590.253 1108.12 590.473C1108.69 590.671 1109.45 590.847 1110.4 591.001C1112.22 591.309 1113.65 591.694 1114.69 592.156C1115.72 592.596 1116.45 593.146 1116.86 593.806C1117.28 594.466 1117.49 595.269 1117.49 596.215C1117.49 597.315 1117.18 598.25 1116.57 599.02C1115.95 599.79 1115.1 600.384 1114.03 600.802C1112.95 601.198 1111.7 601.396 1110.3 601.396Z" fill="black"/>
<path d="M0 0L-2.95052e-05 675L94 675L94 4.10887e-06L0 0Z" fill="url(#paint2_linear_683_6416)"/>
<path d="M1200 0L1200 675L1100 675L1100 4.37114e-06L1200 0Z" fill="url(#paint3_linear_683_6416)"/>
</g>
<defs>
<linearGradient id="paint0_linear_683_6416" x1="600" y1="0" x2="600" y2="129" gradientUnits="userSpaceOnUse">
<stop stop-color="white"/>
<stop offset="1" stop-color="white" stop-opacity="0"/>
</linearGradient>
<linearGradient id="paint1_linear_683_6416" x1="600" y1="0" x2="600" y2="129" gradientUnits="userSpaceOnUse">
<stop stop-color="white"/>
<stop offset="1" stop-color="white" stop-opacity="0"/>
</linearGradient>
<linearGradient id="paint2_linear_683_6416" x1="-1.47526e-05" y1="337.5" x2="94" y2="337.5" gradientUnits="userSpaceOnUse">
<stop stop-color="white"/>
<stop offset="1" stop-color="white" stop-opacity="0"/>
</linearGradient>
<linearGradient id="paint3_linear_683_6416" x1="1200" y1="337.5" x2="1100" y2="337.5" gradientUnits="userSpaceOnUse">
<stop stop-color="white"/>
<stop offset="1" stop-color="white" stop-opacity="0"/>
</linearGradient>
<clipPath id="clip0_683_6416">
<rect width="1200" height="675" fill="white"/>
</clipPath>
</defs>
</svg>
