<svg width="1200" height="675" viewBox="0 0 1200 675" fill="none" xmlns="http://www.w3.org/2000/svg">
<g clip-path="url(#clip0_683_6457)">
<rect width="1200" height="675" fill="white"/>
<path d="M-87.9922 63C-87.9922 59.6863 -85.3059 57 -81.9922 57H153.008C156.322 57 159.008 59.6863 159.008 63V169C159.008 172.314 156.322 175 153.008 175H-81.9922C-85.3059 175 -87.9922 172.314 -87.9922 169V63Z" fill="#2386DD" fill-opacity="0.1"/>
<path d="M-1 103.002C-0.475056 103.002 0.0401161 103.141 0.495117 103.402L0.496094 103.401L7.49609 107.401L7.5 107.404L7.66699 107.508C8.0483 107.763 8.36726 108.102 8.59766 108.501C8.86078 108.956 8.99946 109.473 9 109.999V118.001C8.99945 118.527 8.86082 119.044 8.59766 119.499C8.3344 119.954 7.95556 120.333 7.5 120.596L7.49609 120.599L0.496094 124.599L0.495117 124.598C0.0401383 124.859 -0.475087 124.998 -1 124.998C-1.5252 124.998 -2.04094 124.86 -2.49609 124.598V124.599L-9.49609 120.599L-9.5 120.596C-9.95556 120.333 -10.3344 119.954 -10.5977 119.499C-10.8608 119.044 -10.9995 118.527 -11 118.001V109.999L-10.9932 109.802C-10.9626 109.344 -10.8278 108.899 -10.5977 108.501C-10.3344 108.046 -9.95552 107.667 -9.5 107.404L-9.49609 107.401L-2.49609 103.401V103.402C-2.04091 103.14 -1.52523 103.002 -1 103.002ZM-1 105.002C-1.17551 105.002 -1.348 105.048 -1.5 105.136L-1.50391 105.138L-8.50098 109.135L-8.5 109.136C-8.65187 109.223 -8.77845 109.35 -8.86621 109.502C-8.95377 109.654 -8.99982 109.826 -9 110.001V117.999L-8.99121 118.13C-8.97399 118.259 -8.93185 118.384 -8.86621 118.498C-8.77923 118.649 -8.65398 118.774 -8.50391 118.861L-1.50391 122.861L-1.5 122.864C-1.34802 122.952 -1.17547 122.998 -1 122.998C-0.824528 122.998 -0.65198 122.952 -0.5 122.864L-0.496094 122.861L6.50391 118.861C6.65398 118.774 6.77923 118.649 6.86621 118.498C6.95364 118.347 6.99962 118.175 7 118V110.001L6.99121 109.87C6.97402 109.741 6.93183 109.616 6.86621 109.502C6.77845 109.35 6.65187 109.223 6.5 109.136V109.135L-0.496094 105.138L-0.5 105.136C-0.651999 105.048 -0.824494 105.002 -1 105.002Z" fill="#2386DD"/>
<path d="M7.2013 108.133C7.68014 107.858 8.29134 108.023 8.56654 108.502C8.84172 108.981 8.67718 109.592 8.19837 109.867L-0.501823 114.867C-0.810199 115.044 -1.1895 115.044 -1.49792 114.867L-10.1981 109.867C-10.6769 109.592 -10.8422 108.981 -10.5673 108.502C-10.2921 108.023 -9.68082 107.858 -9.20202 108.133L-1.00085 112.846L7.2013 108.133Z" fill="#2386DD"/>
<path opacity="0.5" d="M71.1641 122.165C71.1641 121.015 71.3404 119.98 71.6931 119.06C72.0611 118.125 72.6974 117.235 73.6021 116.392C74.5221 115.549 75.7947 114.698 77.4201 113.839C78.1714 113.44 78.7771 113.072 79.2371 112.735C79.6971 112.398 80.0344 112.037 80.2491 111.654C80.4637 111.271 80.5711 110.803 80.5711 110.251C80.5711 109.684 80.4484 109.193 80.2031 108.779C79.9577 108.35 79.5897 108.012 79.0991 107.767C78.6237 107.522 78.0257 107.399 77.3051 107.399C76.1551 107.399 75.2427 107.698 74.5681 108.296C73.9087 108.894 73.4947 109.745 73.3261 110.849L71.2561 110.711C71.4401 109.116 72.0534 107.844 73.0961 106.893C74.1387 105.942 75.5417 105.467 77.3051 105.467C78.4244 105.467 79.3827 105.666 80.1801 106.065C80.9774 106.464 81.5831 107.023 81.9971 107.744C82.4264 108.449 82.6411 109.27 82.6411 110.205C82.6411 111.033 82.5031 111.754 82.2271 112.367C81.9511 112.965 81.4834 113.525 80.8241 114.046C80.1801 114.567 79.2907 115.127 78.1561 115.725C77.1747 116.246 76.3467 116.775 75.6721 117.312C75.0127 117.849 74.5067 118.37 74.1541 118.876C73.8167 119.367 73.6327 119.819 73.6021 120.233H82.6641V122.165H71.1641Z" fill="black"/>
<path opacity="0.5" d="M62.985 122.533C61.2217 122.533 59.8647 122.111 58.914 121.268C57.9634 120.409 57.4497 119.305 57.373 117.956L59.42 117.818C59.512 118.815 59.88 119.528 60.524 119.957C61.1834 120.386 62.0037 120.601 62.985 120.601C63.6444 120.601 64.2654 120.509 64.848 120.325C65.4307 120.126 65.8984 119.811 66.251 119.382C66.619 118.937 66.803 118.347 66.803 117.611C66.803 116.89 66.642 116.3 66.32 115.84C65.998 115.365 65.5534 115.02 64.986 114.805C64.434 114.575 63.8054 114.46 63.1 114.46H61.812V112.528H63.1C63.6674 112.528 64.1887 112.444 64.664 112.275C65.1394 112.106 65.515 111.838 65.791 111.47C66.0824 111.087 66.228 110.588 66.228 109.975C66.228 109.132 65.9597 108.495 65.423 108.066C64.8864 107.621 64.112 107.399 63.1 107.399C62.0727 107.399 61.2907 107.606 60.754 108.02C60.2327 108.434 59.9184 109.001 59.811 109.722L57.741 109.584C57.8944 108.357 58.431 107.368 59.351 106.617C60.271 105.85 61.5207 105.467 63.1 105.467C64.158 105.467 65.078 105.651 65.86 106.019C66.642 106.372 67.24 106.878 67.654 107.537C68.0834 108.196 68.298 108.978 68.298 109.883C68.298 110.895 67.976 111.715 67.332 112.344C66.7034 112.957 65.768 113.379 64.526 113.609V113.195C65.86 113.348 66.918 113.824 67.7 114.621C68.482 115.418 68.873 116.415 68.873 117.611C68.873 118.654 68.62 119.543 68.114 120.279C67.608 121.015 66.9104 121.575 66.021 121.958C65.1317 122.341 64.1197 122.533 62.985 122.533Z" fill="black"/>
<path opacity="0.5" d="M49.2855 122.533C48.2275 122.533 47.2999 122.341 46.5025 121.958C45.7205 121.575 45.0919 121.038 44.6165 120.348C44.1565 119.658 43.8882 118.861 43.8115 117.956L45.8815 117.818C46.0042 118.738 46.3645 119.436 46.9625 119.911C47.5759 120.371 48.3502 120.601 49.2855 120.601C50.3435 120.601 51.1869 120.279 51.8155 119.635C52.4595 118.976 52.7815 118.071 52.7815 116.921C52.7815 116.154 52.6435 115.495 52.3675 114.943C52.0915 114.376 51.6929 113.946 51.1715 113.655C50.6655 113.348 50.0522 113.195 49.3315 113.195C48.6875 113.195 48.0665 113.356 47.4685 113.678C46.8859 113.985 46.4642 114.429 46.2035 115.012H44.0875L45.1685 105.835H53.8625V107.767H46.9855L46.2495 113.793L45.8815 113.425C46.1269 112.95 46.4489 112.559 46.8475 112.252C47.2462 111.945 47.6832 111.715 48.1585 111.562C48.6492 111.393 49.1322 111.309 49.6075 111.309C50.6502 111.309 51.5625 111.554 52.3445 112.045C53.1419 112.52 53.7552 113.18 54.1845 114.023C54.6292 114.866 54.8515 115.832 54.8515 116.921C54.8515 118.01 54.6139 118.983 54.1385 119.842C53.6632 120.685 53.0039 121.345 52.1605 121.82C51.3325 122.295 50.3742 122.533 49.2855 122.533Z" fill="black"/>
<path opacity="0.5" d="M29.791 122.165C29.791 121.015 29.9673 119.98 30.32 119.06C30.688 118.125 31.3243 117.235 32.229 116.392C33.149 115.549 34.4217 114.698 36.047 113.839C36.7983 113.44 37.404 113.072 37.864 112.735C38.324 112.398 38.6613 112.037 38.876 111.654C39.0907 111.271 39.198 110.803 39.198 110.251C39.198 109.684 39.0754 109.193 38.83 108.779C38.5847 108.35 38.2167 108.012 37.726 107.767C37.2507 107.522 36.6527 107.399 35.932 107.399C34.782 107.399 33.8697 107.698 33.195 108.296C32.5357 108.894 32.1217 109.745 31.953 110.849L29.883 110.711C30.067 109.116 30.6804 107.844 31.723 106.893C32.7657 105.942 34.1687 105.467 35.932 105.467C37.0513 105.467 38.0097 105.666 38.807 106.065C39.6043 106.464 40.21 107.023 40.624 107.744C41.0533 108.449 41.268 109.27 41.268 110.205C41.268 111.033 41.13 111.754 40.854 112.367C40.578 112.965 40.1104 113.525 39.451 114.046C38.807 114.567 37.9177 115.127 36.783 115.725C35.8017 116.246 34.9737 116.775 34.299 117.312C33.6397 117.849 33.1337 118.37 32.781 118.876C32.4437 119.367 32.2597 119.819 32.229 120.233H41.291V122.165H29.791Z" fill="black"/>
<path opacity="0.5" d="M21.612 122.533C19.8487 122.533 18.4917 122.111 17.541 121.268C16.5903 120.409 16.0767 119.305 16 117.956L18.047 117.818C18.139 118.815 18.507 119.528 19.151 119.957C19.8103 120.386 20.6307 120.601 21.612 120.601C22.2713 120.601 22.8923 120.509 23.475 120.325C24.0577 120.126 24.5253 119.811 24.878 119.382C25.246 118.937 25.43 118.347 25.43 117.611C25.43 116.89 25.269 116.3 24.947 115.84C24.625 115.365 24.1803 115.02 23.613 114.805C23.061 114.575 22.4323 114.46 21.727 114.46H20.439V112.528H21.727C22.2943 112.528 22.8157 112.444 23.291 112.275C23.7663 112.106 24.142 111.838 24.418 111.47C24.7093 111.087 24.855 110.588 24.855 109.975C24.855 109.132 24.5867 108.495 24.05 108.066C23.5133 107.621 22.739 107.399 21.727 107.399C20.6997 107.399 19.9177 107.606 19.381 108.02C18.8597 108.434 18.5453 109.001 18.438 109.722L16.368 109.584C16.5213 108.357 17.058 107.368 17.978 106.617C18.898 105.85 20.1477 105.467 21.727 105.467C22.785 105.467 23.705 105.651 24.487 106.019C25.269 106.372 25.867 106.878 26.281 107.537C26.7103 108.196 26.925 108.978 26.925 109.883C26.925 110.895 26.603 111.715 25.959 112.344C25.3303 112.957 24.395 113.379 23.153 113.609V113.195C24.487 113.348 25.545 113.824 26.327 114.621C27.109 115.418 27.5 116.415 27.5 117.611C27.5 118.654 27.247 119.543 26.741 120.279C26.235 121.015 25.5373 121.575 24.648 121.958C23.7587 122.341 22.7467 122.533 21.612 122.533Z" fill="black"/>
<path opacity="0.3" d="M177.85 122.818L176.678 121.662L181.503 116.837H169.008V115.163H181.503L176.678 110.354L177.85 109.182L184.668 116L177.85 122.818Z" fill="black"/>
<path d="M195 63C195 59.6863 197.686 57 201 57H436C439.314 57 442 59.6863 442 63V169C442 172.314 439.314 175 436 175H201C197.686 175 195 172.314 195 169V63Z" fill="#2386DD" fill-opacity="0.1"/>
<path d="M282 103.002C282.525 103.002 283.04 103.141 283.495 103.402L283.496 103.401L290.496 107.401L290.5 107.404L290.667 107.508C291.048 107.763 291.367 108.102 291.598 108.501C291.861 108.956 291.999 109.473 292 109.999V118.001C291.999 118.527 291.861 119.044 291.598 119.499C291.334 119.954 290.956 120.333 290.5 120.596L290.496 120.599L283.496 124.599L283.495 124.598C283.04 124.859 282.525 124.998 282 124.998C281.475 124.998 280.959 124.86 280.504 124.598V124.599L273.504 120.599L273.5 120.596C273.044 120.333 272.666 119.954 272.402 119.499C272.139 119.044 272.001 118.527 272 118.001V109.999L272.007 109.802C272.037 109.344 272.172 108.899 272.402 108.501C272.666 108.046 273.044 107.667 273.5 107.404L273.504 107.401L280.504 103.401V103.402C280.959 103.14 281.475 103.002 282 103.002ZM282 105.002C281.824 105.002 281.652 105.048 281.5 105.136L281.496 105.138L274.499 109.135L274.5 109.136C274.348 109.223 274.222 109.35 274.134 109.502C274.046 109.654 274 109.826 274 110.001V117.999L274.009 118.13C274.026 118.259 274.068 118.384 274.134 118.498C274.221 118.649 274.346 118.774 274.496 118.861L281.496 122.861L281.5 122.864C281.652 122.952 281.825 122.998 282 122.998C282.175 122.998 282.348 122.952 282.5 122.864L282.504 122.861L289.504 118.861C289.654 118.774 289.779 118.649 289.866 118.498C289.954 118.347 290 118.175 290 118V110.001L289.991 109.87C289.974 109.741 289.932 109.616 289.866 109.502C289.778 109.35 289.652 109.223 289.5 109.136V109.135L282.504 105.138L282.5 105.136C282.348 105.048 282.176 105.002 282 105.002Z" fill="#2386DD"/>
<path d="M290.201 108.133C290.68 107.858 291.291 108.023 291.567 108.502C291.842 108.981 291.677 109.592 291.198 109.867L282.498 114.867C282.19 115.044 281.811 115.044 281.502 114.867L272.802 109.867C272.323 109.592 272.158 108.981 272.433 108.502C272.708 108.023 273.319 107.858 273.798 108.133L281.999 112.846L290.201 108.133Z" fill="#2386DD"/>
<path d="M281 124V114C281 113.448 281.448 113 282 113C282.552 113 283 113.448 283 114V124C283 124.552 282.552 125 282 125C281.448 125 281 124.552 281 124Z" fill="#2386DD"/>
<path opacity="0.5" d="M359.776 122.533C358.013 122.533 356.656 122.111 355.705 121.268C354.754 120.409 354.241 119.305 354.164 117.956L356.211 117.818C356.303 118.815 356.671 119.528 357.315 119.957C357.974 120.386 358.795 120.601 359.776 120.601C360.435 120.601 361.056 120.509 361.639 120.325C362.222 120.126 362.689 119.811 363.042 119.382C363.41 118.937 363.594 118.347 363.594 117.611C363.594 116.89 363.433 116.3 363.111 115.84C362.789 115.365 362.344 115.02 361.777 114.805C361.225 114.575 360.596 114.46 359.891 114.46H358.603V112.528H359.891C360.458 112.528 360.98 112.444 361.455 112.275C361.93 112.106 362.306 111.838 362.582 111.47C362.873 111.087 363.019 110.588 363.019 109.975C363.019 109.132 362.751 108.495 362.214 108.066C361.677 107.621 360.903 107.399 359.891 107.399C358.864 107.399 358.082 107.606 357.545 108.02C357.024 108.434 356.709 109.001 356.602 109.722L354.532 109.584C354.685 108.357 355.222 107.368 356.142 106.617C357.062 105.85 358.312 105.467 359.891 105.467C360.949 105.467 361.869 105.651 362.651 106.019C363.433 106.372 364.031 106.878 364.445 107.537C364.874 108.196 365.089 108.978 365.089 109.883C365.089 110.895 364.767 111.715 364.123 112.344C363.494 112.957 362.559 113.379 361.317 113.609V113.195C362.651 113.348 363.709 113.824 364.491 114.621C365.273 115.418 365.664 116.415 365.664 117.611C365.664 118.654 365.411 119.543 364.905 120.279C364.399 121.015 363.701 121.575 362.812 121.958C361.923 122.341 360.911 122.533 359.776 122.533Z" fill="black"/>
<path opacity="0.5" d="M345.985 122.533C344.222 122.533 342.865 122.111 341.914 121.268C340.963 120.409 340.45 119.305 340.373 117.956L342.42 117.818C342.512 118.815 342.88 119.528 343.524 119.957C344.183 120.386 345.004 120.601 345.985 120.601C346.644 120.601 347.265 120.509 347.848 120.325C348.431 120.126 348.898 119.811 349.251 119.382C349.619 118.937 349.803 118.347 349.803 117.611C349.803 116.89 349.642 116.3 349.32 115.84C348.998 115.365 348.553 115.02 347.986 114.805C347.434 114.575 346.805 114.46 346.1 114.46H344.812V112.528H346.1C346.667 112.528 347.189 112.444 347.664 112.275C348.139 112.106 348.515 111.838 348.791 111.47C349.082 111.087 349.228 110.588 349.228 109.975C349.228 109.132 348.96 108.495 348.423 108.066C347.886 107.621 347.112 107.399 346.1 107.399C345.073 107.399 344.291 107.606 343.754 108.02C343.233 108.434 342.918 109.001 342.811 109.722L340.741 109.584C340.894 108.357 341.431 107.368 342.351 106.617C343.271 105.85 344.521 105.467 346.1 105.467C347.158 105.467 348.078 105.651 348.86 106.019C349.642 106.372 350.24 106.878 350.654 107.537C351.083 108.196 351.298 108.978 351.298 109.883C351.298 110.895 350.976 111.715 350.332 112.344C349.703 112.957 348.768 113.379 347.526 113.609V113.195C348.86 113.348 349.918 113.824 350.7 114.621C351.482 115.418 351.873 116.415 351.873 117.611C351.873 118.654 351.62 119.543 351.114 120.279C350.608 121.015 349.91 121.575 349.021 121.958C348.132 122.341 347.12 122.533 345.985 122.533Z" fill="black"/>
<path opacity="0.5" d="M332.286 122.533C331.228 122.533 330.3 122.341 329.503 121.958C328.721 121.575 328.092 121.038 327.617 120.348C327.157 119.658 326.888 118.861 326.812 117.956L328.882 117.818C329.004 118.738 329.365 119.436 329.963 119.911C330.576 120.371 331.35 120.601 332.286 120.601C333.344 120.601 334.187 120.279 334.816 119.635C335.46 118.976 335.782 118.071 335.782 116.921C335.782 116.154 335.644 115.495 335.368 114.943C335.092 114.376 334.693 113.946 334.172 113.655C333.666 113.348 333.052 113.195 332.332 113.195C331.688 113.195 331.067 113.356 330.469 113.678C329.886 113.985 329.464 114.429 329.204 115.012H327.088L328.169 105.835H336.863V107.767H329.986L329.25 113.793L328.882 113.425C329.127 112.95 329.449 112.559 329.848 112.252C330.246 111.945 330.683 111.715 331.159 111.562C331.649 111.393 332.132 111.309 332.608 111.309C333.65 111.309 334.563 111.554 335.345 112.045C336.142 112.52 336.755 113.18 337.185 114.023C337.629 114.866 337.852 115.832 337.852 116.921C337.852 118.01 337.614 118.983 337.139 119.842C336.663 120.685 336.004 121.345 335.161 121.82C334.333 122.295 333.374 122.533 332.286 122.533Z" fill="black"/>
<path opacity="0.5" d="M312.791 122.165C312.791 121.015 312.967 119.98 313.32 119.06C313.688 118.125 314.324 117.235 315.229 116.392C316.149 115.549 317.422 114.698 319.047 113.839C319.798 113.44 320.404 113.072 320.864 112.735C321.324 112.398 321.661 112.037 321.876 111.654C322.091 111.271 322.198 110.803 322.198 110.251C322.198 109.684 322.075 109.193 321.83 108.779C321.585 108.35 321.217 108.012 320.726 107.767C320.251 107.522 319.653 107.399 318.932 107.399C317.782 107.399 316.87 107.698 316.195 108.296C315.536 108.894 315.122 109.745 314.953 110.849L312.883 110.711C313.067 109.116 313.68 107.844 314.723 106.893C315.766 105.942 317.169 105.467 318.932 105.467C320.051 105.467 321.01 105.666 321.807 106.065C322.604 106.464 323.21 107.023 323.624 107.744C324.053 108.449 324.268 109.27 324.268 110.205C324.268 111.033 324.13 111.754 323.854 112.367C323.578 112.965 323.11 113.525 322.451 114.046C321.807 114.567 320.918 115.127 319.783 115.725C318.802 116.246 317.974 116.775 317.299 117.312C316.64 117.849 316.134 118.37 315.781 118.876C315.444 119.367 315.26 119.819 315.229 120.233H324.291V122.165H312.791Z" fill="black"/>
<path opacity="0.5" d="M304.612 122.533C302.849 122.533 301.492 122.111 300.541 121.268C299.59 120.409 299.077 119.305 299 117.956L301.047 117.818C301.139 118.815 301.507 119.528 302.151 119.957C302.81 120.386 303.631 120.601 304.612 120.601C305.271 120.601 305.892 120.509 306.475 120.325C307.058 120.126 307.525 119.811 307.878 119.382C308.246 118.937 308.43 118.347 308.43 117.611C308.43 116.89 308.269 116.3 307.947 115.84C307.625 115.365 307.18 115.02 306.613 114.805C306.061 114.575 305.432 114.46 304.727 114.46H303.439V112.528H304.727C305.294 112.528 305.816 112.444 306.291 112.275C306.766 112.106 307.142 111.838 307.418 111.47C307.709 111.087 307.855 110.588 307.855 109.975C307.855 109.132 307.587 108.495 307.05 108.066C306.513 107.621 305.739 107.399 304.727 107.399C303.7 107.399 302.918 107.606 302.381 108.02C301.86 108.434 301.545 109.001 301.438 109.722L299.368 109.584C299.521 108.357 300.058 107.368 300.978 106.617C301.898 105.85 303.148 105.467 304.727 105.467C305.785 105.467 306.705 105.651 307.487 106.019C308.269 106.372 308.867 106.878 309.281 107.537C309.71 108.196 309.925 108.978 309.925 109.883C309.925 110.895 309.603 111.715 308.959 112.344C308.33 112.957 307.395 113.379 306.153 113.609V113.195C307.487 113.348 308.545 113.824 309.327 114.621C310.109 115.418 310.5 116.415 310.5 117.611C310.5 118.654 310.247 119.543 309.741 120.279C309.235 121.015 308.537 121.575 307.648 121.958C306.759 122.341 305.747 122.533 304.612 122.533Z" fill="black"/>
<path opacity="0.3" d="M460.51 122.818L459.338 121.662L464.163 116.837H451.668V115.163H464.163L459.338 110.354L460.51 109.182L467.328 116L460.51 122.818Z" fill="black"/>
<path d="M477 63C477 59.6863 479.686 57 483 57H718C721.314 57 724 59.6863 724 63V169C724 172.314 721.314 175 718 175H483C479.686 175 477 172.314 477 169V63Z" fill="#2386DD" fill-opacity="0.1"/>
<path d="M565 103.002C565.525 103.002 566.04 103.141 566.495 103.402L566.496 103.401L573.496 107.401L573.5 107.404L573.667 107.508C574.048 107.763 574.367 108.102 574.598 108.501C574.861 108.956 574.999 109.473 575 109.999V118.001C574.999 118.527 574.861 119.044 574.598 119.499C574.334 119.954 573.956 120.333 573.5 120.596L573.496 120.599L566.496 124.599L566.495 124.598C566.04 124.859 565.525 124.998 565 124.998C564.475 124.998 563.959 124.86 563.504 124.598V124.599L556.504 120.599L556.5 120.596C556.044 120.333 555.666 119.954 555.402 119.499C555.139 119.044 555.001 118.527 555 118.001V109.999L555.007 109.802C555.037 109.344 555.172 108.899 555.402 108.501C555.666 108.046 556.044 107.667 556.5 107.404L556.504 107.401L563.504 103.401V103.402C563.959 103.14 564.475 103.002 565 103.002ZM565 105.002C564.824 105.002 564.652 105.048 564.5 105.136L564.496 105.138L557.499 109.135L557.5 109.136C557.348 109.223 557.222 109.35 557.134 109.502C557.046 109.654 557 109.826 557 110.001V117.999L557.009 118.13C557.026 118.259 557.068 118.384 557.134 118.498C557.221 118.649 557.346 118.774 557.496 118.861L564.496 122.861L564.5 122.864C564.652 122.952 564.825 122.998 565 122.998C565.175 122.998 565.348 122.952 565.5 122.864L565.504 122.861L572.504 118.861C572.654 118.774 572.779 118.649 572.866 118.498C572.954 118.347 573 118.175 573 118V110.001L572.991 109.87C572.974 109.741 572.932 109.616 572.866 109.502C572.778 109.35 572.652 109.223 572.5 109.136V109.135L565.504 105.138L565.5 105.136C565.348 105.048 565.176 105.002 565 105.002Z" fill="#2386DD"/>
<path d="M573.201 108.133C573.68 107.858 574.291 108.023 574.567 108.502C574.842 108.981 574.677 109.592 574.198 109.867L565.498 114.867C565.19 115.044 564.811 115.044 564.502 114.867L555.802 109.867C555.323 109.592 555.158 108.981 555.433 108.502C555.708 108.023 556.319 107.858 556.798 108.133L564.999 112.846L573.201 108.133Z" fill="#2386DD"/>
<path d="M564 124V114C564 113.448 564.448 113 565 113C565.552 113 566 113.448 566 114V124C566 124.552 565.552 125 565 125C564.448 125 564 124.552 564 124Z" fill="#2386DD"/>
<path opacity="0.5" d="M644.938 122.165V118.623H636.934V116.829L644.8 105.835H646.916V116.691H648.894V118.623H646.916V122.165H644.938ZM638.958 116.691H644.938V108.595L638.958 116.691Z" fill="black"/>
<path opacity="0.5" d="M628.985 122.533C627.222 122.533 625.865 122.111 624.914 121.268C623.963 120.409 623.45 119.305 623.373 117.956L625.42 117.818C625.512 118.815 625.88 119.528 626.524 119.957C627.183 120.386 628.004 120.601 628.985 120.601C629.644 120.601 630.265 120.509 630.848 120.325C631.431 120.126 631.898 119.811 632.251 119.382C632.619 118.937 632.803 118.347 632.803 117.611C632.803 116.89 632.642 116.3 632.32 115.84C631.998 115.365 631.553 115.02 630.986 114.805C630.434 114.575 629.805 114.46 629.1 114.46H627.812V112.528H629.1C629.667 112.528 630.189 112.444 630.664 112.275C631.139 112.106 631.515 111.838 631.791 111.47C632.082 111.087 632.228 110.588 632.228 109.975C632.228 109.132 631.96 108.495 631.423 108.066C630.886 107.621 630.112 107.399 629.1 107.399C628.073 107.399 627.291 107.606 626.754 108.02C626.233 108.434 625.918 109.001 625.811 109.722L623.741 109.584C623.894 108.357 624.431 107.368 625.351 106.617C626.271 105.85 627.521 105.467 629.1 105.467C630.158 105.467 631.078 105.651 631.86 106.019C632.642 106.372 633.24 106.878 633.654 107.537C634.083 108.196 634.298 108.978 634.298 109.883C634.298 110.895 633.976 111.715 633.332 112.344C632.703 112.957 631.768 113.379 630.526 113.609V113.195C631.86 113.348 632.918 113.824 633.7 114.621C634.482 115.418 634.873 116.415 634.873 117.611C634.873 118.654 634.62 119.543 634.114 120.279C633.608 121.015 632.91 121.575 632.021 121.958C631.132 122.341 630.12 122.533 628.985 122.533Z" fill="black"/>
<path opacity="0.5" d="M615.286 122.533C614.228 122.533 613.3 122.341 612.503 121.958C611.721 121.575 611.092 121.038 610.617 120.348C610.157 119.658 609.888 118.861 609.812 117.956L611.882 117.818C612.004 118.738 612.365 119.436 612.963 119.911C613.576 120.371 614.35 120.601 615.286 120.601C616.344 120.601 617.187 120.279 617.816 119.635C618.46 118.976 618.782 118.071 618.782 116.921C618.782 116.154 618.644 115.495 618.368 114.943C618.092 114.376 617.693 113.946 617.172 113.655C616.666 113.348 616.052 113.195 615.332 113.195C614.688 113.195 614.067 113.356 613.469 113.678C612.886 113.985 612.464 114.429 612.204 115.012H610.088L611.169 105.835H619.863V107.767H612.986L612.25 113.793L611.882 113.425C612.127 112.95 612.449 112.559 612.848 112.252C613.246 111.945 613.683 111.715 614.159 111.562C614.649 111.393 615.132 111.309 615.608 111.309C616.65 111.309 617.563 111.554 618.345 112.045C619.142 112.52 619.755 113.18 620.185 114.023C620.629 114.866 620.852 115.832 620.852 116.921C620.852 118.01 620.614 118.983 620.139 119.842C619.663 120.685 619.004 121.345 618.161 121.82C617.333 122.295 616.374 122.533 615.286 122.533Z" fill="black"/>
<path opacity="0.5" d="M595.791 122.165C595.791 121.015 595.967 119.98 596.32 119.06C596.688 118.125 597.324 117.235 598.229 116.392C599.149 115.549 600.422 114.698 602.047 113.839C602.798 113.44 603.404 113.072 603.864 112.735C604.324 112.398 604.661 112.037 604.876 111.654C605.091 111.271 605.198 110.803 605.198 110.251C605.198 109.684 605.075 109.193 604.83 108.779C604.585 108.35 604.217 108.012 603.726 107.767C603.251 107.522 602.653 107.399 601.932 107.399C600.782 107.399 599.87 107.698 599.195 108.296C598.536 108.894 598.122 109.745 597.953 110.849L595.883 110.711C596.067 109.116 596.68 107.844 597.723 106.893C598.766 105.942 600.169 105.467 601.932 105.467C603.051 105.467 604.01 105.666 604.807 106.065C605.604 106.464 606.21 107.023 606.624 107.744C607.053 108.449 607.268 109.27 607.268 110.205C607.268 111.033 607.13 111.754 606.854 112.367C606.578 112.965 606.11 113.525 605.451 114.046C604.807 114.567 603.918 115.127 602.783 115.725C601.802 116.246 600.974 116.775 600.299 117.312C599.64 117.849 599.134 118.37 598.781 118.876C598.444 119.367 598.26 119.819 598.229 120.233H607.291V122.165H595.791Z" fill="black"/>
<path opacity="0.5" d="M587.612 122.533C585.849 122.533 584.492 122.111 583.541 121.268C582.59 120.409 582.077 119.305 582 117.956L584.047 117.818C584.139 118.815 584.507 119.528 585.151 119.957C585.81 120.386 586.631 120.601 587.612 120.601C588.271 120.601 588.892 120.509 589.475 120.325C590.058 120.126 590.525 119.811 590.878 119.382C591.246 118.937 591.43 118.347 591.43 117.611C591.43 116.89 591.269 116.3 590.947 115.84C590.625 115.365 590.18 115.02 589.613 114.805C589.061 114.575 588.432 114.46 587.727 114.46H586.439V112.528H587.727C588.294 112.528 588.816 112.444 589.291 112.275C589.766 112.106 590.142 111.838 590.418 111.47C590.709 111.087 590.855 110.588 590.855 109.975C590.855 109.132 590.587 108.495 590.05 108.066C589.513 107.621 588.739 107.399 587.727 107.399C586.7 107.399 585.918 107.606 585.381 108.02C584.86 108.434 584.545 109.001 584.438 109.722L582.368 109.584C582.521 108.357 583.058 107.368 583.978 106.617C584.898 105.85 586.148 105.467 587.727 105.467C588.785 105.467 589.705 105.651 590.487 106.019C591.269 106.372 591.867 106.878 592.281 107.537C592.71 108.196 592.925 108.978 592.925 109.883C592.925 110.895 592.603 111.715 591.959 112.344C591.33 112.957 590.395 113.379 589.153 113.609V113.195C590.487 113.348 591.545 113.824 592.327 114.621C593.109 115.418 593.5 116.415 593.5 117.611C593.5 118.654 593.247 119.543 592.741 120.279C592.235 121.015 591.537 121.575 590.648 121.958C589.759 122.341 588.747 122.533 587.612 122.533Z" fill="black"/>
<path opacity="0.3" d="M743.171 122.818L742 121.662L746.824 116.837H734.329V115.163H746.824L742 110.354L743.171 109.182L749.99 116L743.171 122.818Z" fill="black"/>
<path d="M760 63C760 59.6863 762.686 57 766 57H1001C1004.31 57 1007 59.6863 1007 63V169C1007 172.314 1004.31 175 1001 175H766C762.686 175 760 172.314 760 169V63Z" fill="#2386DD" fill-opacity="0.1"/>
<path d="M847 103.002C847.525 103.002 848.04 103.141 848.495 103.402L848.496 103.401L855.496 107.401L855.5 107.404L855.667 107.508C856.048 107.763 856.367 108.102 856.598 108.501C856.861 108.956 856.999 109.473 857 109.999V118.001C856.999 118.527 856.861 119.044 856.598 119.499C856.334 119.954 855.956 120.333 855.5 120.596L855.496 120.599L848.496 124.599L848.495 124.598C848.04 124.859 847.525 124.998 847 124.998C846.475 124.998 845.959 124.86 845.504 124.598V124.599L838.504 120.599L838.5 120.596C838.044 120.333 837.666 119.954 837.402 119.499C837.139 119.044 837.001 118.527 837 118.001V109.999L837.007 109.802C837.037 109.344 837.172 108.899 837.402 108.501C837.666 108.046 838.044 107.667 838.5 107.404L838.504 107.401L845.504 103.401V103.402C845.959 103.14 846.475 103.002 847 103.002ZM847 105.002C846.824 105.002 846.652 105.048 846.5 105.136L846.496 105.138L839.499 109.135L839.5 109.136C839.348 109.223 839.222 109.35 839.134 109.502C839.046 109.654 839 109.826 839 110.001V117.999L839.009 118.13C839.026 118.259 839.068 118.384 839.134 118.498C839.221 118.649 839.346 118.774 839.496 118.861L846.496 122.861L846.5 122.864C846.652 122.952 846.825 122.998 847 122.998C847.175 122.998 847.348 122.952 847.5 122.864L847.504 122.861L854.504 118.861C854.654 118.774 854.779 118.649 854.866 118.498C854.954 118.347 855 118.175 855 118V110.001L854.991 109.87C854.974 109.741 854.932 109.616 854.866 109.502C854.778 109.35 854.652 109.223 854.5 109.136V109.135L847.504 105.138L847.5 105.136C847.348 105.048 847.176 105.002 847 105.002Z" fill="#2386DD"/>
<path d="M855.201 108.133C855.68 107.858 856.291 108.023 856.567 108.502C856.842 108.981 856.677 109.592 856.198 109.867L847.498 114.867C847.19 115.044 846.811 115.044 846.502 114.867L837.802 109.867C837.323 109.592 837.158 108.981 837.433 108.502C837.708 108.023 838.319 107.858 838.798 108.133L846.999 112.846L855.201 108.133Z" fill="#2386DD"/>
<path d="M846 124V114C846 113.448 846.448 113 847 113C847.552 113 848 113.448 848 114V124C848 124.552 847.552 125 847 125C846.448 125 846 124.552 846 124Z" fill="#2386DD"/>
<path opacity="0.5" d="M924.869 122.533C923.811 122.533 922.883 122.341 922.086 121.958C921.304 121.575 920.675 121.038 920.2 120.348C919.74 119.658 919.471 118.861 919.395 117.956L921.465 117.818C921.587 118.738 921.948 119.436 922.546 119.911C923.159 120.371 923.933 120.601 924.869 120.601C925.927 120.601 926.77 120.279 927.399 119.635C928.043 118.976 928.365 118.071 928.365 116.921C928.365 116.154 928.227 115.495 927.951 114.943C927.675 114.376 927.276 113.946 926.755 113.655C926.249 113.348 925.635 113.195 924.915 113.195C924.271 113.195 923.65 113.356 923.052 113.678C922.469 113.985 922.047 114.429 921.787 115.012H919.671L920.752 105.835H929.446V107.767H922.569L921.833 113.793L921.465 113.425C921.71 112.95 922.032 112.559 922.431 112.252C922.829 111.945 923.266 111.715 923.742 111.562C924.232 111.393 924.715 111.309 925.191 111.309C926.233 111.309 927.146 111.554 927.928 112.045C928.725 112.52 929.338 113.18 929.768 114.023C930.212 114.866 930.435 115.832 930.435 116.921C930.435 118.01 930.197 118.983 929.722 119.842C929.246 120.685 928.587 121.345 927.744 121.82C926.916 122.295 925.957 122.533 924.869 122.533Z" fill="black"/>
<path opacity="0.5" d="M910.985 122.533C909.222 122.533 907.865 122.111 906.914 121.268C905.963 120.409 905.45 119.305 905.373 117.956L907.42 117.818C907.512 118.815 907.88 119.528 908.524 119.957C909.183 120.386 910.004 120.601 910.985 120.601C911.644 120.601 912.265 120.509 912.848 120.325C913.431 120.126 913.898 119.811 914.251 119.382C914.619 118.937 914.803 118.347 914.803 117.611C914.803 116.89 914.642 116.3 914.32 115.84C913.998 115.365 913.553 115.02 912.986 114.805C912.434 114.575 911.805 114.46 911.1 114.46H909.812V112.528H911.1C911.667 112.528 912.189 112.444 912.664 112.275C913.139 112.106 913.515 111.838 913.791 111.47C914.082 111.087 914.228 110.588 914.228 109.975C914.228 109.132 913.96 108.495 913.423 108.066C912.886 107.621 912.112 107.399 911.1 107.399C910.073 107.399 909.291 107.606 908.754 108.02C908.233 108.434 907.918 109.001 907.811 109.722L905.741 109.584C905.894 108.357 906.431 107.368 907.351 106.617C908.271 105.85 909.521 105.467 911.1 105.467C912.158 105.467 913.078 105.651 913.86 106.019C914.642 106.372 915.24 106.878 915.654 107.537C916.083 108.196 916.298 108.978 916.298 109.883C916.298 110.895 915.976 111.715 915.332 112.344C914.703 112.957 913.768 113.379 912.526 113.609V113.195C913.86 113.348 914.918 113.824 915.7 114.621C916.482 115.418 916.873 116.415 916.873 117.611C916.873 118.654 916.62 119.543 916.114 120.279C915.608 121.015 914.91 121.575 914.021 121.958C913.132 122.341 912.12 122.533 910.985 122.533Z" fill="black"/>
<path opacity="0.5" d="M897.286 122.533C896.228 122.533 895.3 122.341 894.503 121.958C893.721 121.575 893.092 121.038 892.617 120.348C892.157 119.658 891.888 118.861 891.812 117.956L893.882 117.818C894.004 118.738 894.365 119.436 894.963 119.911C895.576 120.371 896.35 120.601 897.286 120.601C898.344 120.601 899.187 120.279 899.816 119.635C900.46 118.976 900.782 118.071 900.782 116.921C900.782 116.154 900.644 115.495 900.368 114.943C900.092 114.376 899.693 113.946 899.172 113.655C898.666 113.348 898.052 113.195 897.332 113.195C896.688 113.195 896.067 113.356 895.469 113.678C894.886 113.985 894.464 114.429 894.204 115.012H892.088L893.169 105.835H901.863V107.767H894.986L894.25 113.793L893.882 113.425C894.127 112.95 894.449 112.559 894.848 112.252C895.246 111.945 895.683 111.715 896.159 111.562C896.649 111.393 897.132 111.309 897.608 111.309C898.65 111.309 899.563 111.554 900.345 112.045C901.142 112.52 901.755 113.18 902.185 114.023C902.629 114.866 902.852 115.832 902.852 116.921C902.852 118.01 902.614 118.983 902.139 119.842C901.663 120.685 901.004 121.345 900.161 121.82C899.333 122.295 898.374 122.533 897.286 122.533Z" fill="black"/>
<path opacity="0.5" d="M877.791 122.165C877.791 121.015 877.967 119.98 878.32 119.06C878.688 118.125 879.324 117.235 880.229 116.392C881.149 115.549 882.422 114.698 884.047 113.839C884.798 113.44 885.404 113.072 885.864 112.735C886.324 112.398 886.661 112.037 886.876 111.654C887.091 111.271 887.198 110.803 887.198 110.251C887.198 109.684 887.075 109.193 886.83 108.779C886.585 108.35 886.217 108.012 885.726 107.767C885.251 107.522 884.653 107.399 883.932 107.399C882.782 107.399 881.87 107.698 881.195 108.296C880.536 108.894 880.122 109.745 879.953 110.849L877.883 110.711C878.067 109.116 878.68 107.844 879.723 106.893C880.766 105.942 882.169 105.467 883.932 105.467C885.051 105.467 886.01 105.666 886.807 106.065C887.604 106.464 888.21 107.023 888.624 107.744C889.053 108.449 889.268 109.27 889.268 110.205C889.268 111.033 889.13 111.754 888.854 112.367C888.578 112.965 888.11 113.525 887.451 114.046C886.807 114.567 885.918 115.127 884.783 115.725C883.802 116.246 882.974 116.775 882.299 117.312C881.64 117.849 881.134 118.37 880.781 118.876C880.444 119.367 880.26 119.819 880.229 120.233H889.291V122.165H877.791Z" fill="black"/>
<path opacity="0.5" d="M869.612 122.533C867.849 122.533 866.492 122.111 865.541 121.268C864.59 120.409 864.077 119.305 864 117.956L866.047 117.818C866.139 118.815 866.507 119.528 867.151 119.957C867.81 120.386 868.631 120.601 869.612 120.601C870.271 120.601 870.892 120.509 871.475 120.325C872.058 120.126 872.525 119.811 872.878 119.382C873.246 118.937 873.43 118.347 873.43 117.611C873.43 116.89 873.269 116.3 872.947 115.84C872.625 115.365 872.18 115.02 871.613 114.805C871.061 114.575 870.432 114.46 869.727 114.46H868.439V112.528H869.727C870.294 112.528 870.816 112.444 871.291 112.275C871.766 112.106 872.142 111.838 872.418 111.47C872.709 111.087 872.855 110.588 872.855 109.975C872.855 109.132 872.587 108.495 872.05 108.066C871.513 107.621 870.739 107.399 869.727 107.399C868.7 107.399 867.918 107.606 867.381 108.02C866.86 108.434 866.545 109.001 866.438 109.722L864.368 109.584C864.521 108.357 865.058 107.368 865.978 106.617C866.898 105.85 868.148 105.467 869.727 105.467C870.785 105.467 871.705 105.651 872.487 106.019C873.269 106.372 873.867 106.878 874.281 107.537C874.71 108.196 874.925 108.978 874.925 109.883C874.925 110.895 874.603 111.715 873.959 112.344C873.33 112.957 872.395 113.379 871.153 113.609V113.195C872.487 113.348 873.545 113.824 874.327 114.621C875.109 115.418 875.5 116.415 875.5 117.611C875.5 118.654 875.247 119.543 874.741 120.279C874.235 121.015 873.537 121.575 872.648 121.958C871.759 122.341 870.747 122.533 869.612 122.533Z" fill="black"/>
<path opacity="0.3" d="M1025.83 122.818L1024.66 121.662L1029.49 116.837H1016.99V115.163H1029.49L1024.66 110.354L1025.83 109.182L1032.65 116L1025.83 122.818Z" fill="black"/>
<path d="M1043 63C1043 59.6863 1045.69 57 1049 57H1284C1287.31 57 1290 59.6863 1290 63V169C1290 172.314 1287.31 175 1284 175H1049C1045.69 175 1043 172.314 1043 169V63Z" fill="#2386DD" fill-opacity="0.1"/>
<path d="M1130 103.002C1130.52 103.002 1131.04 103.141 1131.5 103.402L1131.5 103.401L1138.5 107.401L1138.5 107.404L1138.67 107.508C1139.05 107.763 1139.37 108.102 1139.6 108.501C1139.86 108.956 1140 109.473 1140 109.999V118.001C1140 118.527 1139.86 119.044 1139.6 119.499C1139.33 119.954 1138.96 120.333 1138.5 120.596L1138.5 120.599L1131.5 124.599L1131.5 124.598C1131.04 124.859 1130.52 124.998 1130 124.998C1129.47 124.998 1128.96 124.86 1128.5 124.598V124.599L1121.5 120.599L1121.5 120.596C1121.04 120.333 1120.67 119.954 1120.4 119.499C1120.14 119.044 1120 118.527 1120 118.001V109.999L1120.01 109.802C1120.04 109.344 1120.17 108.899 1120.4 108.501C1120.67 108.046 1121.04 107.667 1121.5 107.404L1121.5 107.401L1128.5 103.401V103.402C1128.96 103.14 1129.47 103.002 1130 103.002ZM1130 105.002C1129.82 105.002 1129.65 105.048 1129.5 105.136L1129.5 105.138L1122.5 109.135L1122.5 109.136C1122.35 109.223 1122.22 109.35 1122.13 109.502C1122.05 109.654 1122 109.826 1122 110.001V117.999L1122.01 118.13C1122.03 118.259 1122.07 118.384 1122.13 118.498C1122.22 118.649 1122.35 118.774 1122.5 118.861L1129.5 122.861L1129.5 122.864C1129.65 122.952 1129.82 122.998 1130 122.998C1130.18 122.998 1130.35 122.952 1130.5 122.864L1130.5 122.861L1137.5 118.861C1137.65 118.774 1137.78 118.649 1137.87 118.498C1137.95 118.347 1138 118.175 1138 118V110.001L1137.99 109.87C1137.97 109.741 1137.93 109.616 1137.87 109.502C1137.78 109.35 1137.65 109.223 1137.5 109.136V109.135L1130.5 105.138L1130.5 105.136C1130.35 105.048 1130.18 105.002 1130 105.002Z" fill="#2386DD"/>
<path d="M1138.2 108.133C1138.68 107.858 1139.29 108.023 1139.57 108.502C1139.84 108.981 1139.68 109.592 1139.2 109.867L1130.5 114.867C1130.19 115.044 1129.81 115.044 1129.5 114.867L1120.8 109.867C1120.32 109.592 1120.16 108.981 1120.43 108.502C1120.71 108.023 1121.32 107.858 1121.8 108.133L1130 112.846L1138.2 108.133Z" fill="#2386DD"/>
<path d="M1129 124V114C1129 113.448 1129.45 113 1130 113C1130.55 113 1131 113.448 1131 114V124C1131 124.552 1130.55 125 1130 125C1129.45 125 1129 124.552 1129 124Z" fill="#2386DD"/>
<path opacity="0.5" d="M1193.99 122.533C1192.22 122.533 1190.86 122.111 1189.91 121.268C1188.96 120.409 1188.45 119.305 1188.37 117.956L1190.42 117.818C1190.51 118.815 1190.88 119.528 1191.52 119.957C1192.18 120.386 1193 120.601 1193.99 120.601C1194.64 120.601 1195.27 120.509 1195.85 120.325C1196.43 120.126 1196.9 119.811 1197.25 119.382C1197.62 118.937 1197.8 118.347 1197.8 117.611C1197.8 116.89 1197.64 116.3 1197.32 115.84C1197 115.365 1196.55 115.02 1195.99 114.805C1195.43 114.575 1194.81 114.46 1194.1 114.46H1192.81V112.528H1194.1C1194.67 112.528 1195.19 112.444 1195.66 112.275C1196.14 112.106 1196.52 111.838 1196.79 111.47C1197.08 111.087 1197.23 110.588 1197.23 109.975C1197.23 109.132 1196.96 108.495 1196.42 108.066C1195.89 107.621 1195.11 107.399 1194.1 107.399C1193.07 107.399 1192.29 107.606 1191.75 108.02C1191.23 108.434 1190.92 109.001 1190.81 109.722L1188.74 109.584C1188.89 108.357 1189.43 107.368 1190.35 106.617C1191.27 105.85 1192.52 105.467 1194.1 105.467C1195.16 105.467 1196.08 105.651 1196.86 106.019C1197.64 106.372 1198.24 106.878 1198.65 107.537C1199.08 108.196 1199.3 108.978 1199.3 109.883C1199.3 110.895 1198.98 111.715 1198.33 112.344C1197.7 112.957 1196.77 113.379 1195.53 113.609V113.195C1196.86 113.348 1197.92 113.824 1198.7 114.621C1199.48 115.418 1199.87 116.415 1199.87 117.611C1199.87 118.654 1199.62 119.543 1199.11 120.279C1198.61 121.015 1197.91 121.575 1197.02 121.958C1196.13 122.341 1195.12 122.533 1193.99 122.533Z" fill="black"/>
<path opacity="0.5" d="M1180.29 122.533C1179.23 122.533 1178.3 122.341 1177.5 121.958C1176.72 121.575 1176.09 121.038 1175.62 120.348C1175.16 119.658 1174.89 118.861 1174.81 117.956L1176.88 117.818C1177.01 118.738 1177.37 119.436 1177.96 119.911C1178.58 120.371 1179.35 120.601 1180.29 120.601C1181.34 120.601 1182.19 120.279 1182.82 119.635C1183.46 118.976 1183.78 118.071 1183.78 116.921C1183.78 116.154 1183.64 115.495 1183.37 114.943C1183.09 114.376 1182.69 113.946 1182.17 113.655C1181.67 113.348 1181.05 113.195 1180.33 113.195C1179.69 113.195 1179.07 113.356 1178.47 113.678C1177.89 113.985 1177.47 114.429 1177.2 115.012H1175.09L1176.17 105.835H1184.86V107.767H1177.99L1177.25 113.793L1176.88 113.425C1177.13 112.95 1177.45 112.559 1177.85 112.252C1178.25 111.945 1178.68 111.715 1179.16 111.562C1179.65 111.393 1180.13 111.309 1180.61 111.309C1181.65 111.309 1182.56 111.554 1183.35 112.045C1184.14 112.52 1184.76 113.18 1185.19 114.023C1185.63 114.866 1185.85 115.832 1185.85 116.921C1185.85 118.01 1185.61 118.983 1185.14 119.842C1184.66 120.685 1184 121.345 1183.16 121.82C1182.33 122.295 1181.38 122.533 1180.29 122.533Z" fill="black"/>
<path opacity="0.5" d="M1160.79 122.165C1160.79 121.015 1160.97 119.98 1161.32 119.06C1161.69 118.125 1162.32 117.235 1163.23 116.392C1164.15 115.549 1165.42 114.698 1167.05 113.839C1167.8 113.44 1168.4 113.072 1168.86 112.735C1169.32 112.398 1169.66 112.037 1169.88 111.654C1170.09 111.271 1170.2 110.803 1170.2 110.251C1170.2 109.684 1170.08 109.193 1169.83 108.779C1169.58 108.35 1169.22 108.012 1168.73 107.767C1168.25 107.522 1167.65 107.399 1166.93 107.399C1165.78 107.399 1164.87 107.698 1164.2 108.296C1163.54 108.894 1163.12 109.745 1162.95 110.849L1160.88 110.711C1161.07 109.116 1161.68 107.844 1162.72 106.893C1163.77 105.942 1165.17 105.467 1166.93 105.467C1168.05 105.467 1169.01 105.666 1169.81 106.065C1170.6 106.464 1171.21 107.023 1171.62 107.744C1172.05 108.449 1172.27 109.27 1172.27 110.205C1172.27 111.033 1172.13 111.754 1171.85 112.367C1171.58 112.965 1171.11 113.525 1170.45 114.046C1169.81 114.567 1168.92 115.127 1167.78 115.725C1166.8 116.246 1165.97 116.775 1165.3 117.312C1164.64 117.849 1164.13 118.37 1163.78 118.876C1163.44 119.367 1163.26 119.819 1163.23 120.233H1172.29V122.165H1160.79Z" fill="black"/>
<path opacity="0.5" d="M1152.61 122.533C1150.85 122.533 1149.49 122.111 1148.54 121.268C1147.59 120.409 1147.08 119.305 1147 117.956L1149.05 117.818C1149.14 118.815 1149.51 119.528 1150.15 119.957C1150.81 120.386 1151.63 120.601 1152.61 120.601C1153.27 120.601 1153.89 120.509 1154.48 120.325C1155.06 120.126 1155.53 119.811 1155.88 119.382C1156.25 118.937 1156.43 118.347 1156.43 117.611C1156.43 116.89 1156.27 116.3 1155.95 115.84C1155.63 115.365 1155.18 115.02 1154.61 114.805C1154.06 114.575 1153.43 114.46 1152.73 114.46H1151.44V112.528H1152.73C1153.29 112.528 1153.82 112.444 1154.29 112.275C1154.77 112.106 1155.14 111.838 1155.42 111.47C1155.71 111.087 1155.86 110.588 1155.86 109.975C1155.86 109.132 1155.59 108.495 1155.05 108.066C1154.51 107.621 1153.74 107.399 1152.73 107.399C1151.7 107.399 1150.92 107.606 1150.38 108.02C1149.86 108.434 1149.55 109.001 1149.44 109.722L1147.37 109.584C1147.52 108.357 1148.06 107.368 1148.98 106.617C1149.9 105.85 1151.15 105.467 1152.73 105.467C1153.79 105.467 1154.71 105.651 1155.49 106.019C1156.27 106.372 1156.87 106.878 1157.28 107.537C1157.71 108.196 1157.93 108.978 1157.93 109.883C1157.93 110.895 1157.6 111.715 1156.96 112.344C1156.33 112.957 1155.4 113.379 1154.15 113.609V113.195C1155.49 113.348 1156.55 113.824 1157.33 114.621C1158.11 115.418 1158.5 116.415 1158.5 117.611C1158.5 118.654 1158.25 119.543 1157.74 120.279C1157.24 121.015 1156.54 121.575 1155.65 121.958C1154.76 122.341 1153.75 122.533 1152.61 122.533Z" fill="black"/>
<path d="M436 515.5V518H201V515.5H436ZM440 510.5V210.5C440 207.825 438.319 205.64 436.206 205.506L436 205.5H201C198.791 205.5 197 207.739 197 210.5V510.5C197 513.261 198.791 515.5 201 515.5V518C197.79 518 195.168 514.849 195.008 510.886L195 510.5V210.5C195 206.358 197.686 203 201 203H436L436.309 203.01C439.479 203.211 442 206.487 442 210.5V510.5L441.992 510.886C441.837 514.721 439.377 517.796 436.309 517.99L436 518V515.5C438.209 515.5 440 513.261 440 510.5Z" fill="black" fill-opacity="0.1"/>
<path d="M153 515.5V518H-82V515.5H153ZM157 510.5V210.5C157 207.825 155.319 205.64 153.206 205.506L153 205.5H-82C-84.2091 205.5 -86 207.739 -86 210.5V510.5C-86 513.261 -84.2091 515.5 -82 515.5V518C-85.2102 518 -87.8316 514.849 -87.9922 510.886L-88 510.5V210.5C-88 206.358 -85.3137 203 -82 203H153L153.309 203.01C156.479 203.211 159 206.487 159 210.5V510.5L158.992 510.886C158.837 514.721 156.377 517.796 153.309 517.99L153 518V515.5C155.209 515.5 157 513.261 157 510.5Z" fill="black" fill-opacity="0.1"/>
<path d="M718 515.5V518H483V515.5H718ZM722 510.5V210.5C722 207.825 720.319 205.64 718.206 205.506L718 205.5H483C480.791 205.5 479 207.739 479 210.5V510.5C479 513.261 480.791 515.5 483 515.5V518C479.79 518 477.168 514.849 477.008 510.886L477 510.5V210.5C477 206.358 479.686 203 483 203H718L718.309 203.01C721.479 203.211 724 206.487 724 210.5V510.5L723.992 510.886C723.837 514.721 721.377 517.796 718.309 517.99L718 518V515.5C720.209 515.5 722 513.261 722 510.5Z" fill="black" fill-opacity="0.1"/>
<path d="M1000 515.5V518H765V515.5H1000ZM1004 510.5V210.5C1004 207.825 1002.32 205.64 1000.21 205.506L1000 205.5H765C762.791 205.5 761 207.739 761 210.5V510.5C761 513.261 762.791 515.5 765 515.5V518C761.79 518 759.168 514.849 759.008 510.886L759 510.5V210.5C759 206.358 761.686 203 765 203H1000L1000.31 203.01C1003.48 203.211 1006 206.487 1006 210.5V510.5L1005.99 510.886C1005.84 514.721 1003.38 517.796 1000.31 517.99L1000 518V515.5C1002.21 515.5 1004 513.261 1004 510.5Z" fill="black" fill-opacity="0.1"/>
<path d="M1282 515.5V518H1047V515.5H1282ZM1286 510.5V210.5C1286 207.825 1284.32 205.64 1282.21 205.506L1282 205.5H1047C1044.79 205.5 1043 207.739 1043 210.5V510.5C1043 513.261 1044.79 515.5 1047 515.5V518C1043.79 518 1041.17 514.849 1041.01 510.886L1041 510.5V210.5C1041 206.358 1043.69 203 1047 203H1282L1282.31 203.01C1285.48 203.211 1288 206.487 1288 210.5V510.5L1287.99 510.886C1287.84 514.721 1285.38 517.796 1282.31 517.99L1282 518V515.5C1284.21 515.5 1286 513.261 1286 510.5Z" fill="black" fill-opacity="0.1"/>
<path opacity="0.3" d="M1264 231V235H1066V231H1264Z" fill="url(#paint0_linear_683_6457)"/>
<path opacity="0.3" d="M1264 254V258H1066V254H1264Z" fill="url(#paint1_linear_683_6457)"/>
<path opacity="0.3" d="M1264 278V282H1066V278H1264Z" fill="url(#paint2_linear_683_6457)"/>
<path opacity="0.3" d="M1264 301V305H1066V301H1264Z" fill="url(#paint3_linear_683_6457)"/>
<path opacity="0.3" d="M1264 324V328H1066V324H1264Z" fill="url(#paint4_linear_683_6457)"/>
<path opacity="0.3" d="M1264 346V350H1066V346H1264Z" fill="url(#paint5_linear_683_6457)"/>
<path opacity="0.3" d="M1264 370V374H1066V370H1264Z" fill="url(#paint6_linear_683_6457)"/>
<path opacity="0.3" d="M1264 395V399H1066V395H1264Z" fill="url(#paint7_linear_683_6457)"/>
<path d="M1262 418C1263.1 418 1264 418.895 1264 420C1264 421.105 1263.1 422 1262 422H1068C1066.9 422 1066 421.105 1066 420C1066 418.895 1066.9 418 1068 418H1262Z" fill="url(#paint8_linear_683_6457)"/>
<path opacity="0.3" d="M417 232V236H219V232H417Z" fill="url(#paint9_linear_683_6457)"/>
<path opacity="0.3" d="M134 232V236H-64V232H134Z" fill="url(#paint10_linear_683_6457)"/>
<path d="M698 232C699.105 232 700 232.895 700 234C700 235.105 699.105 236 698 236H504C502.895 236 502 235.105 502 234C502 232.895 502.895 232 504 232H698Z" fill="url(#paint11_linear_683_6457)"/>
<path opacity="0.3" d="M982 232V236H784V232H982Z" fill="url(#paint12_linear_683_6457)"/>
<path opacity="0.3" d="M417 255V259H219V255H417Z" fill="url(#paint13_linear_683_6457)"/>
<path opacity="0.3" d="M134 255V259H-64V255H134Z" fill="url(#paint14_linear_683_6457)"/>
<path opacity="0.3" d="M700 255V259H502V255H700Z" fill="url(#paint15_linear_683_6457)"/>
<path opacity="0.3" d="M982 255V259H784V255H982Z" fill="url(#paint16_linear_683_6457)"/>
<path opacity="0.3" d="M417 278V282H219V278H417Z" fill="url(#paint17_linear_683_6457)"/>
<path d="M132 278C133.105 278 134 278.895 134 280C134 281.105 133.105 282 132 282H-62C-63.1046 282 -64 281.105 -64 280C-64 278.895 -63.1046 278 -62 278H132Z" fill="url(#paint18_linear_683_6457)"/>
<path opacity="0.3" d="M700 278V282H502V278H700Z" fill="url(#paint19_linear_683_6457)"/>
<path d="M980 278C981.105 278 982 278.895 982 280C982 281.105 981.105 282 980 282H786C784.895 282 784 281.105 784 280C784 278.895 784.895 278 786 278H980Z" fill="url(#paint20_linear_683_6457)"/>
<path opacity="0.3" d="M417 301V305H219V301H417Z" fill="url(#paint21_linear_683_6457)"/>
<path opacity="0.3" d="M134 301V305H-64V301H134Z" fill="url(#paint22_linear_683_6457)"/>
<path opacity="0.3" d="M700 301V305H502V301H700Z" fill="url(#paint23_linear_683_6457)"/>
<path opacity="0.3" d="M982 301V305H784V301H982Z" fill="url(#paint24_linear_683_6457)"/>
<path opacity="0.3" d="M417 324V328H219V324H417Z" fill="url(#paint25_linear_683_6457)"/>
<path opacity="0.3" d="M134 324V328H-64V324H134Z" fill="url(#paint26_linear_683_6457)"/>
<path opacity="0.3" d="M700 324V328H502V324H700Z" fill="url(#paint27_linear_683_6457)"/>
<path opacity="0.3" d="M982 324V328H784V324H982Z" fill="url(#paint28_linear_683_6457)"/>
<path d="M415 348C416.105 348 417 348.895 417 350C417 351.105 416.105 352 415 352H221C219.895 352 219 351.105 219 350C219 348.895 219.895 348 221 348H415Z" fill="url(#paint29_linear_683_6457)"/>
<path opacity="0.3" d="M134 348V352H-64V348H134Z" fill="url(#paint30_linear_683_6457)"/>
<path d="M698 348C699.105 348 700 348.895 700 350C700 351.105 699.105 352 698 352H504C502.895 352 502 351.105 502 350C502 348.895 502.895 348 504 348H698Z" fill="url(#paint31_linear_683_6457)"/>
<path opacity="0.3" d="M982 348V352H784V348H982Z" fill="url(#paint32_linear_683_6457)"/>
<path opacity="0.3" d="M700 371V375H502V371H700Z" fill="url(#paint33_linear_683_6457)"/>
<path opacity="0.3" d="M982 371V375H784V371H982Z" fill="url(#paint34_linear_683_6457)"/>
<path opacity="0.3" d="M700 395V399H502V395H700Z" fill="url(#paint35_linear_683_6457)"/>
<path opacity="0.3" d="M982 395V399H784V395H982Z" fill="url(#paint36_linear_683_6457)"/>
<path opacity="0.3" d="M700 419V423H502V419H700Z" fill="url(#paint37_linear_683_6457)"/>
<path opacity="0.3" d="M982 419V423H784V419H982Z" fill="url(#paint38_linear_683_6457)"/>
<path opacity="0.3" d="M700 443V447H502V443H700Z" fill="url(#paint39_linear_683_6457)"/>
<path d="M980 443C981.105 443 982 443.895 982 445C982 446.105 981.105 447 980 447H786C784.895 447 784 446.105 784 445C784 443.895 784.895 443 786 443H980Z" fill="url(#paint40_linear_683_6457)"/>
<path opacity="0.3" d="M700 466V470H502V466H700Z" fill="url(#paint41_linear_683_6457)"/>
<path opacity="0.3" d="M982 466V470H784V466H982Z" fill="url(#paint42_linear_683_6457)"/>
<path opacity="0.3" d="M698 490C699.105 490 700 490.895 700 492C700 493.105 699.105 494 698 494H504C502.895 494 502 493.105 502 492C502 490.895 502.895 490 504 490H698Z" fill="url(#paint43_linear_683_6457)"/>
<path opacity="0.3" d="M982 490V494H784V490H982Z" fill="url(#paint44_linear_683_6457)"/>
<path opacity="0.3" d="M417 371V375H219V371H417Z" fill="url(#paint45_linear_683_6457)"/>
<path opacity="0.3" d="M134 371V375H-64V371H134Z" fill="url(#paint46_linear_683_6457)"/>
<path opacity="0.3" d="M417 394V398H219V394H417Z" fill="url(#paint47_linear_683_6457)"/>
<path opacity="0.3" d="M134 394V398H-64V394H134Z" fill="url(#paint48_linear_683_6457)"/>
<path opacity="0.3" d="M417 417V421H219V417H417Z" fill="url(#paint49_linear_683_6457)"/>
<path opacity="0.3" d="M134 417V421H-64V417H134Z" fill="url(#paint50_linear_683_6457)"/>
<path opacity="0.3" d="M134 464V468H-64V464H134Z" fill="url(#paint51_linear_683_6457)"/>
<path opacity="0.3" d="M417 440V444H219V440H417Z" fill="url(#paint52_linear_683_6457)"/>
<path opacity="0.3" d="M134 440V444H-64V440H134Z" fill="url(#paint53_linear_683_6457)"/>
<path opacity="0.3" d="M134 487V491H-64V487H134Z" fill="url(#paint54_linear_683_6457)"/>
<path opacity="0.6" d="M196 204L298.209 175H354.324L440 204H196Z" fill="black" fill-opacity="0.05"/>
<path opacity="0.6" d="M-84 204L18.2094 175H74.3244L160 204H-84Z" fill="black" fill-opacity="0.05"/>
<path opacity="0.6" d="M480 204L582.209 175H638.324L724 204H480Z" fill="black" fill-opacity="0.05"/>
<path opacity="0.6" d="M764 204L866.209 175H922.324L1008 204H764Z" fill="black" fill-opacity="0.05"/>
<path opacity="0.6" d="M1048 204L1150.21 175H1206.32L1292 204H1048Z" fill="black" fill-opacity="0.05"/>
<path d="M0 0H1200V129H0V0Z" fill="url(#paint55_linear_683_6457)"/>
<path d="M0 675H1200V546H0V675Z" fill="url(#paint56_linear_683_6457)"/>
<path d="M0 0L-2.95052e-05 675L94 675L94 4.10887e-06L0 0Z" fill="url(#paint57_linear_683_6457)"/>
<path d="M1200 0L1200 675L1106 675L1106 4.10887e-06L1200 0Z" fill="url(#paint58_linear_683_6457)"/>
<rect width="114" height="54" transform="translate(62 568)" fill="black" fill-opacity="0.06"/>
<path opacity="0.5" d="M80.086 604.416C78.786 604.416 77.6333 604.147 76.628 603.61C75.6227 603.073 74.8167 602.336 74.21 601.4C73.6033 600.447 73.248 599.346 73.144 598.098L75.484 597.942C75.6053 598.861 75.8653 599.641 76.264 600.282C76.68 600.923 77.2087 601.409 77.85 601.738C78.5087 602.067 79.2713 602.232 80.138 602.232C81.0047 602.232 81.7327 602.128 82.322 601.92C82.9113 601.695 83.3533 601.374 83.648 600.958C83.96 600.525 84.116 600.013 84.116 599.424C84.116 598.835 83.9773 598.323 83.7 597.89C83.44 597.439 82.9373 597.023 82.192 596.642C81.464 596.261 80.3807 595.871 78.942 595.472C77.6593 595.108 76.6193 594.709 75.822 594.276C75.042 593.843 74.47 593.314 74.106 592.69C73.7593 592.066 73.586 591.295 73.586 590.376C73.586 589.336 73.8287 588.426 74.314 587.646C74.8167 586.849 75.5273 586.233 76.446 585.8C77.3647 585.349 78.4567 585.124 79.722 585.124C80.9873 585.124 82.0707 585.384 82.972 585.904C83.8733 586.407 84.584 587.1 85.104 587.984C85.6413 588.868 85.9793 589.873 86.118 591L83.778 591.156C83.674 590.411 83.4573 589.752 83.128 589.18C82.7987 588.591 82.348 588.131 81.776 587.802C81.204 587.473 80.502 587.308 79.67 587.308C78.526 587.308 77.616 587.585 76.94 588.14C76.264 588.677 75.926 589.388 75.926 590.272C75.926 590.844 76.0473 591.321 76.29 591.702C76.55 592.066 77.0007 592.395 77.642 592.69C78.2833 592.967 79.1847 593.271 80.346 593.6C81.854 594.016 83.05 594.484 83.934 595.004C84.8353 595.524 85.4767 596.148 85.858 596.876C86.2567 597.587 86.456 598.453 86.456 599.476C86.456 600.447 86.1873 601.305 85.65 602.05C85.1127 602.795 84.3673 603.376 83.414 603.792C82.4607 604.208 81.3513 604.416 80.086 604.416ZM89.9298 604V585.54H101.162V587.724H92.1658V593.678H100.85V595.81H92.1658V601.816H101.37V604H89.9298ZM105.78 604V585.54H108.016V602.96L106.898 601.816H117.22V604H105.78ZM121.11 604V585.54H132.342V587.724H123.346V593.678H132.03V595.81H123.346V601.816H132.55V604H121.11ZM142.211 604.416C140.738 604.416 139.49 604.026 138.467 603.246C137.445 602.466 136.665 601.357 136.127 599.918C135.607 598.479 135.347 596.772 135.347 594.796C135.347 592.803 135.607 591.087 136.127 589.648C136.665 588.209 137.445 587.1 138.467 586.32C139.49 585.523 140.738 585.124 142.211 585.124C143.841 585.124 145.227 585.661 146.371 586.736C147.515 587.793 148.278 589.275 148.659 591.182L146.267 591.338C145.973 590.003 145.461 588.998 144.733 588.322C144.023 587.646 143.182 587.308 142.211 587.308C141.223 587.308 140.391 587.603 139.715 588.192C139.057 588.764 138.554 589.613 138.207 590.74C137.861 591.849 137.687 593.201 137.687 594.796C137.687 596.373 137.861 597.717 138.207 598.826C138.554 599.935 139.057 600.785 139.715 601.374C140.391 601.946 141.223 602.232 142.211 602.232C143.286 602.232 144.196 601.859 144.941 601.114C145.687 600.369 146.189 599.259 146.449 597.786L148.815 597.916C148.486 599.944 147.741 601.539 146.579 602.7C145.418 603.844 143.962 604.416 142.211 604.416ZM156.631 604V587.724H150.989V585.54H164.509V587.724H158.867V604H156.631Z" fill="black"/>
<g opacity="0.5">
<path d="M201.418 604C200.083 604 199.087 603.688 198.428 603.064C197.769 602.44 197.44 601.487 197.44 600.204V586.996H199.624V600.204C199.624 600.845 199.771 601.322 200.066 601.634C200.361 601.929 200.811 602.076 201.418 602.076H205.11V604H201.418ZM192.89 592.144V590.22H205.11V592.144H192.89ZM213.108 604V590.22H214.928L215.136 593.704L214.928 593.652C215.101 592.473 215.474 591.607 216.046 591.052C216.635 590.497 217.415 590.22 218.386 590.22H221.22V592.196H218.412C217.736 592.196 217.164 592.335 216.696 592.612C216.245 592.872 215.898 593.262 215.656 593.782C215.413 594.285 215.292 594.917 215.292 595.68V604H213.108ZM209.52 604V602.076H219.66V604H209.52ZM209.52 592.144V590.22H214.304V592.144H209.52ZM228.75 604.312C227.883 604.312 227.103 604.156 226.41 603.844C225.716 603.532 225.17 603.099 224.772 602.544C224.373 601.972 224.174 601.313 224.174 600.568C224.174 599.389 224.52 598.479 225.214 597.838C225.924 597.179 227.034 596.703 228.542 596.408L233.17 595.472C233.17 594.293 232.901 593.418 232.364 592.846C231.844 592.274 231.09 591.988 230.102 591.988C229.148 591.988 228.403 592.205 227.866 592.638C227.328 593.054 226.956 593.661 226.748 594.458L224.434 594.276C224.694 592.976 225.309 591.927 226.28 591.13C227.268 590.315 228.542 589.908 230.102 589.908C231.766 589.908 233.057 590.411 233.976 591.416C234.894 592.404 235.354 593.773 235.354 595.524V601.244C235.354 601.556 235.423 601.773 235.562 601.894C235.7 602.015 235.908 602.076 236.186 602.076H237.07V604C236.966 604.017 236.801 604.026 236.576 604.026C236.35 604.043 236.134 604.052 235.926 604.052C235.336 604.052 234.834 603.957 234.418 603.766C234.019 603.575 233.716 603.272 233.508 602.856C233.3 602.423 233.187 601.868 233.17 601.192H233.586C233.464 601.781 233.17 602.319 232.702 602.804C232.251 603.272 231.679 603.645 230.986 603.922C230.292 604.182 229.547 604.312 228.75 604.312ZM228.958 602.388C229.894 602.388 230.674 602.232 231.298 601.92C231.922 601.591 232.39 601.14 232.702 600.568C233.014 599.979 233.17 599.303 233.17 598.54V597.344L228.958 598.176C228.022 598.349 227.372 598.618 227.008 598.982C226.644 599.329 226.462 599.788 226.462 600.36C226.462 601.001 226.678 601.504 227.112 601.868C227.562 602.215 228.178 602.388 228.958 602.388ZM240.543 604V590.22H242.545L242.623 593.73L242.363 593.496C242.537 592.681 242.849 592.014 243.299 591.494C243.767 590.957 244.322 590.558 244.963 590.298C245.605 590.038 246.281 589.908 246.991 589.908C248.049 589.908 248.924 590.142 249.617 590.61C250.328 591.078 250.865 591.711 251.229 592.508C251.593 593.288 251.775 594.163 251.775 595.134V604H249.591V595.758C249.591 594.475 249.34 593.505 248.837 592.846C248.335 592.17 247.563 591.832 246.523 591.832C245.813 591.832 245.171 591.988 244.599 592.3C244.027 592.595 243.568 593.037 243.221 593.626C242.892 594.198 242.727 594.909 242.727 595.758V604H240.543ZM262.009 604.312C260.813 604.312 259.782 604.104 258.915 603.688C258.049 603.272 257.364 602.717 256.861 602.024C256.376 601.313 256.099 600.525 256.029 599.658L258.317 599.502C258.456 600.351 258.829 601.019 259.435 601.504C260.059 601.989 260.917 602.232 262.009 602.232C263.032 602.232 263.821 602.085 264.375 601.79C264.947 601.495 265.233 601.036 265.233 600.412C265.233 600.013 265.138 599.684 264.947 599.424C264.757 599.164 264.401 598.947 263.881 598.774C263.361 598.583 262.599 598.401 261.593 598.228C260.259 597.985 259.21 597.691 258.447 597.344C257.702 596.98 257.173 596.529 256.861 595.992C256.549 595.455 256.393 594.813 256.393 594.068C256.393 593.271 256.593 592.56 256.991 591.936C257.39 591.312 257.979 590.818 258.759 590.454C259.539 590.09 260.493 589.908 261.619 589.908C262.763 589.908 263.717 590.116 264.479 590.532C265.259 590.931 265.875 591.468 266.325 592.144C266.776 592.803 267.071 593.531 267.209 594.328L264.921 594.484C264.817 593.999 264.618 593.574 264.323 593.21C264.046 592.829 263.673 592.534 263.205 592.326C262.755 592.101 262.217 591.988 261.593 591.988C260.588 591.988 259.843 592.187 259.357 592.586C258.872 592.985 258.629 593.479 258.629 594.068C258.629 594.536 258.742 594.909 258.967 595.186C259.193 595.463 259.557 595.689 260.059 595.862C260.562 596.018 261.229 596.165 262.061 596.304C263.483 596.529 264.583 596.824 265.363 597.188C266.143 597.535 266.689 597.968 267.001 598.488C267.313 599.008 267.469 599.649 267.469 600.412C267.469 601.227 267.227 601.929 266.741 602.518C266.273 603.09 265.623 603.532 264.791 603.844C263.977 604.156 263.049 604.312 262.009 604.312ZM275.519 604.312C274.652 604.312 273.872 604.156 273.179 603.844C272.486 603.532 271.94 603.099 271.541 602.544C271.142 601.972 270.943 601.313 270.943 600.568C270.943 599.389 271.29 598.479 271.983 597.838C272.694 597.179 273.803 596.703 275.311 596.408L279.939 595.472C279.939 594.293 279.67 593.418 279.133 592.846C278.613 592.274 277.859 591.988 276.871 591.988C275.918 591.988 275.172 592.205 274.635 592.638C274.098 593.054 273.725 593.661 273.517 594.458L271.203 594.276C271.463 592.976 272.078 591.927 273.049 591.13C274.037 590.315 275.311 589.908 276.871 589.908C278.535 589.908 279.826 590.411 280.745 591.416C281.664 592.404 282.123 593.773 282.123 595.524V601.244C282.123 601.556 282.192 601.773 282.331 601.894C282.47 602.015 282.678 602.076 282.955 602.076H283.839V604C283.735 604.017 283.57 604.026 283.345 604.026C283.12 604.043 282.903 604.052 282.695 604.052C282.106 604.052 281.603 603.957 281.187 603.766C280.788 603.575 280.485 603.272 280.277 602.856C280.069 602.423 279.956 601.868 279.939 601.192H280.355C280.234 601.781 279.939 602.319 279.471 602.804C279.02 603.272 278.448 603.645 277.755 603.922C277.062 604.182 276.316 604.312 275.519 604.312ZM275.727 602.388C276.663 602.388 277.443 602.232 278.067 601.92C278.691 601.591 279.159 601.14 279.471 600.568C279.783 599.979 279.939 599.303 279.939 598.54V597.344L275.727 598.176C274.791 598.349 274.141 598.618 273.777 598.982C273.413 599.329 273.231 599.788 273.231 600.36C273.231 601.001 273.448 601.504 273.881 601.868C274.332 602.215 274.947 602.388 275.727 602.388ZM293.293 604.312C292.01 604.312 290.892 604.017 289.939 603.428C288.986 602.839 288.249 602.007 287.729 600.932C287.209 599.84 286.949 598.566 286.949 597.11C286.949 595.654 287.209 594.389 287.729 593.314C288.249 592.239 288.986 591.407 289.939 590.818C290.892 590.211 292.01 589.908 293.293 589.908C294.316 589.908 295.226 590.099 296.023 590.48C296.82 590.844 297.479 591.381 297.999 592.092C298.519 592.803 298.874 593.669 299.065 594.692L296.777 594.848C296.569 593.929 296.153 593.227 295.529 592.742C294.922 592.239 294.177 591.988 293.293 591.988C292.028 591.988 291.031 592.447 290.303 593.366C289.592 594.267 289.237 595.515 289.237 597.11C289.237 598.705 289.592 599.961 290.303 600.88C291.031 601.781 292.028 602.232 293.293 602.232C294.177 602.232 294.94 601.972 295.581 601.452C296.24 600.932 296.673 600.152 296.881 599.112L299.169 599.268C298.978 600.291 298.614 601.183 298.077 601.946C297.54 602.691 296.864 603.272 296.049 603.688C295.234 604.104 294.316 604.312 293.293 604.312ZM310.547 604C309.212 604 308.215 603.688 307.557 603.064C306.898 602.44 306.569 601.487 306.569 600.204V586.996H308.753V600.204C308.753 600.845 308.9 601.322 309.195 601.634C309.489 601.929 309.94 602.076 310.547 602.076H314.239V604H310.547ZM302.019 592.144V590.22H314.239V592.144H302.019ZM323.927 604V590.22H326.111V604H323.927ZM318.389 604V602.076H330.869V604H318.389ZM318.649 592.144V590.22H326.111V592.144H318.649ZM323.719 588.062V585.514H326.007V588.062H323.719ZM339.698 604.312C338.433 604.312 337.324 604.017 336.37 603.428C335.434 602.839 334.706 602.007 334.186 600.932C333.666 599.84 333.406 598.566 333.406 597.11C333.406 595.637 333.666 594.363 334.186 593.288C334.706 592.213 335.434 591.381 336.37 590.792C337.324 590.203 338.433 589.908 339.698 589.908C340.964 589.908 342.064 590.203 343 590.792C343.954 591.381 344.69 592.213 345.21 593.288C345.73 594.363 345.99 595.637 345.99 597.11C345.99 598.566 345.73 599.84 345.21 600.932C344.69 602.007 343.954 602.839 343 603.428C342.064 604.017 340.964 604.312 339.698 604.312ZM339.698 602.232C340.964 602.232 341.943 601.781 342.636 600.88C343.347 599.961 343.702 598.705 343.702 597.11C343.702 595.515 343.347 594.267 342.636 593.366C341.943 592.447 340.964 591.988 339.698 591.988C338.433 591.988 337.445 592.447 336.734 593.366C336.041 594.267 335.694 595.515 335.694 597.11C335.694 598.705 336.041 599.961 336.734 600.88C337.445 601.781 338.433 602.232 339.698 602.232ZM349.672 604V590.22H351.674L351.752 593.73L351.492 593.496C351.666 592.681 351.978 592.014 352.428 591.494C352.896 590.957 353.451 590.558 354.092 590.298C354.734 590.038 355.41 589.908 356.12 589.908C357.178 589.908 358.053 590.142 358.746 590.61C359.457 591.078 359.994 591.711 360.358 592.508C360.722 593.288 360.904 594.163 360.904 595.134V604H358.72V595.758C358.72 594.475 358.469 593.505 357.966 592.846C357.464 592.17 356.692 591.832 355.652 591.832C354.942 591.832 354.3 591.988 353.728 592.3C353.156 592.595 352.697 593.037 352.35 593.626C352.021 594.198 351.856 594.909 351.856 595.758V604H349.672ZM365.158 606.028V604H376.598V606.028H365.158ZM381.268 604V585.54H383.452V593.262L383.192 593.21C383.365 592.447 383.66 591.823 384.076 591.338C384.492 590.853 385.003 590.497 385.61 590.272C386.217 590.029 386.875 589.908 387.586 589.908C388.574 589.908 389.406 590.133 390.082 590.584C390.775 591.017 391.295 591.633 391.642 592.43C392.006 593.21 392.188 594.111 392.188 595.134V604H390.004V595.758C390.004 594.423 389.761 593.435 389.276 592.794C388.808 592.153 388.089 591.832 387.118 591.832C386.009 591.832 385.116 592.17 384.44 592.846C383.781 593.522 383.452 594.501 383.452 595.784V604H381.268ZM400.238 604.312C399.371 604.312 398.591 604.156 397.898 603.844C397.204 603.532 396.658 603.099 396.26 602.544C395.861 601.972 395.662 601.313 395.662 600.568C395.662 599.389 396.008 598.479 396.702 597.838C397.412 597.179 398.522 596.703 400.03 596.408L404.658 595.472C404.658 594.293 404.389 593.418 403.852 592.846C403.332 592.274 402.578 591.988 401.59 591.988C400.636 591.988 399.891 592.205 399.354 592.638C398.816 593.054 398.444 593.661 398.236 594.458L395.922 594.276C396.182 592.976 396.797 591.927 397.768 591.13C398.756 590.315 400.03 589.908 401.59 589.908C403.254 589.908 404.545 590.411 405.464 591.416C406.382 592.404 406.842 593.773 406.842 595.524V601.244C406.842 601.556 406.911 601.773 407.05 601.894C407.188 602.015 407.396 602.076 407.674 602.076H408.558V604C408.454 604.017 408.289 604.026 408.064 604.026C407.838 604.043 407.622 604.052 407.414 604.052C406.824 604.052 406.322 603.957 405.906 603.766C405.507 603.575 405.204 603.272 404.996 602.856C404.788 602.423 404.675 601.868 404.658 601.192H405.074C404.952 601.781 404.658 602.319 404.19 602.804C403.739 603.272 403.167 603.645 402.474 603.922C401.78 604.182 401.035 604.312 400.238 604.312ZM400.446 602.388C401.382 602.388 402.162 602.232 402.786 601.92C403.41 601.591 403.878 601.14 404.19 600.568C404.502 599.979 404.658 599.303 404.658 598.54V597.344L400.446 598.176C399.51 598.349 398.86 598.618 398.496 598.982C398.132 599.329 397.95 599.788 397.95 600.36C397.95 601.001 398.166 601.504 398.6 601.868C399.05 602.215 399.666 602.388 400.446 602.388ZM417.908 604.312C416.712 604.312 415.68 604.104 414.814 603.688C413.947 603.272 413.262 602.717 412.76 602.024C412.274 601.313 411.997 600.525 411.928 599.658L414.216 599.502C414.354 600.351 414.727 601.019 415.334 601.504C415.958 601.989 416.816 602.232 417.908 602.232C418.93 602.232 419.719 602.085 420.274 601.79C420.846 601.495 421.132 601.036 421.132 600.412C421.132 600.013 421.036 599.684 420.846 599.424C420.655 599.164 420.3 598.947 419.78 598.774C419.26 598.583 418.497 598.401 417.492 598.228C416.157 597.985 415.108 597.691 414.346 597.344C413.6 596.98 413.072 596.529 412.76 595.992C412.448 595.455 412.292 594.813 412.292 594.068C412.292 593.271 412.491 592.56 412.89 591.936C413.288 591.312 413.878 590.818 414.658 590.454C415.438 590.09 416.391 589.908 417.518 589.908C418.662 589.908 419.615 590.116 420.378 590.532C421.158 590.931 421.773 591.468 422.224 592.144C422.674 592.803 422.969 593.531 423.108 594.328L420.82 594.484C420.716 593.999 420.516 593.574 420.222 593.21C419.944 592.829 419.572 592.534 419.104 592.326C418.653 592.101 418.116 591.988 417.492 591.988C416.486 591.988 415.741 592.187 415.256 592.586C414.77 592.985 414.528 593.479 414.528 594.068C414.528 594.536 414.64 594.909 414.866 595.186C415.091 595.463 415.455 595.689 415.958 595.862C416.46 596.018 417.128 596.165 417.96 596.304C419.381 596.529 420.482 596.824 421.262 597.188C422.042 597.535 422.588 597.968 422.9 598.488C423.212 599.008 423.368 599.649 423.368 600.412C423.368 601.227 423.125 601.929 422.64 602.518C422.172 603.09 421.522 603.532 420.69 603.844C419.875 604.156 418.948 604.312 417.908 604.312ZM428.038 604V585.54H430.222V593.262L429.962 593.21C430.135 592.447 430.43 591.823 430.846 591.338C431.262 590.853 431.773 590.497 432.38 590.272C432.986 590.029 433.645 589.908 434.356 589.908C435.344 589.908 436.176 590.133 436.852 590.584C437.545 591.017 438.065 591.633 438.412 592.43C438.776 593.21 438.958 594.111 438.958 595.134V604H436.774V595.758C436.774 594.423 436.531 593.435 436.046 592.794C435.578 592.153 434.858 591.832 433.888 591.832C432.778 591.832 431.886 592.17 431.21 592.846C430.551 593.522 430.222 594.501 430.222 595.784V604H428.038Z" fill="black"/>
</g>
<rect width="98" height="54" transform="translate(473 568)" fill="black" fill-opacity="0.06"/>
<path opacity="0.5" d="M485.808 604L483.78 585.54H486.12L487.836 602.7H487.576L489.604 587.62H491.996L494.024 602.7H493.764L495.48 585.54H497.82L495.792 604H492.412L490.488 589.44H491.112L489.188 604H485.808ZM500.15 604V585.54H502.386V594.51L501.242 593.626H511.538L510.394 594.51V585.54H512.63V604H510.394V594.926L511.538 595.81H501.242L502.386 594.926V604H500.15ZM516.52 604V585.54H527.752V587.724H518.756V593.678H527.44V595.81H518.756V601.816H527.96V604H516.52ZM531.59 604V585.54H537.206C539.147 585.54 540.681 586.034 541.808 587.022C542.934 587.993 543.498 589.336 543.498 591.052C543.498 591.919 543.298 592.69 542.9 593.366C542.501 594.025 541.99 594.545 541.366 594.926C540.742 595.307 540.1 595.524 539.442 595.576L539.338 595.264C540.568 595.333 541.487 595.628 542.094 596.148C542.718 596.668 543.082 597.517 543.186 598.696L543.654 604H541.418L540.976 598.982C540.924 598.41 540.785 597.951 540.56 597.604C540.352 597.24 540.014 596.98 539.546 596.824C539.095 596.651 538.471 596.564 537.674 596.564H533.826V604H531.59ZM533.826 594.38H537.206C538.488 594.38 539.468 594.094 540.144 593.522C540.82 592.933 541.158 592.109 541.158 591.052C541.158 589.977 540.82 589.154 540.144 588.582C539.468 588.01 538.488 587.724 537.206 587.724H533.826V594.38ZM547.699 604V585.54H558.931V587.724H549.935V593.678H558.619V595.81H549.935V601.816H559.139V604H547.699Z" fill="black"/>
<path opacity="0.5" d="M592.102 604V589.336C592.102 588.105 592.414 587.169 593.038 586.528C593.679 585.869 594.65 585.54 595.95 585.54H600.37V587.464H595.95C595.413 587.464 594.997 587.637 594.702 587.984C594.425 588.313 594.286 588.764 594.286 589.336V604H592.102ZM588.41 592.144V590.22H600.11V592.144H588.41ZM608.108 604V590.22H609.928L610.136 593.704L609.928 593.652C610.101 592.473 610.474 591.607 611.046 591.052C611.635 590.497 612.415 590.22 613.386 590.22H616.22V592.196H613.412C612.736 592.196 612.164 592.335 611.696 592.612C611.245 592.872 610.898 593.262 610.656 593.782C610.413 594.285 610.292 594.917 610.292 595.68V604H608.108ZM604.52 604V602.076H614.66V604H604.52ZM604.52 592.144V590.22H609.304V592.144H604.52ZM625.57 604.312C624.304 604.312 623.195 604.017 622.242 603.428C621.306 602.839 620.578 602.007 620.058 600.932C619.538 599.84 619.278 598.566 619.278 597.11C619.278 595.637 619.538 594.363 620.058 593.288C620.578 592.213 621.306 591.381 622.242 590.792C623.195 590.203 624.304 589.908 625.57 589.908C626.835 589.908 627.936 590.203 628.872 590.792C629.825 591.381 630.562 592.213 631.082 593.288C631.602 594.363 631.862 595.637 631.862 597.11C631.862 598.566 631.602 599.84 631.082 600.932C630.562 602.007 629.825 602.839 628.872 603.428C627.936 604.017 626.835 604.312 625.57 604.312ZM625.57 602.232C626.835 602.232 627.814 601.781 628.508 600.88C629.218 599.961 629.574 598.705 629.574 597.11C629.574 595.515 629.218 594.267 628.508 593.366C627.814 592.447 626.835 591.988 625.57 591.988C624.304 591.988 623.316 592.447 622.606 593.366C621.912 594.267 621.566 595.515 621.566 597.11C621.566 598.705 621.912 599.961 622.606 600.88C623.316 601.781 624.304 602.232 625.57 602.232ZM634.399 604V590.22H636.401L636.479 593.288L636.219 593.236C636.375 592.213 636.705 591.407 637.207 590.818C637.727 590.211 638.386 589.908 639.183 589.908C639.998 589.908 640.622 590.203 641.055 590.792C641.506 591.381 641.783 592.248 641.887 593.392H641.627C641.783 592.317 642.13 591.468 642.667 590.844C643.222 590.22 643.915 589.908 644.747 589.908C645.857 589.908 646.663 590.289 647.165 591.052C647.668 591.815 647.919 593.08 647.919 594.848V604H645.735V595.16C645.735 593.929 645.605 593.071 645.345 592.586C645.085 592.083 644.678 591.832 644.123 591.832C643.759 591.832 643.439 591.953 643.161 592.196C642.884 592.421 642.659 592.785 642.485 593.288C642.329 593.791 642.251 594.432 642.251 595.212V604H640.067V595.16C640.067 593.981 639.937 593.132 639.677 592.612C639.435 592.092 639.027 591.832 638.455 591.832C638.091 591.832 637.771 591.953 637.493 592.196C637.216 592.421 636.991 592.785 636.817 593.288C636.661 593.791 636.583 594.432 636.583 595.212V604H634.399ZM651.029 606.028V604H662.469V606.028H651.029ZM670.519 604.312C669.652 604.312 668.872 604.156 668.179 603.844C667.486 603.532 666.94 603.099 666.541 602.544C666.142 601.972 665.943 601.313 665.943 600.568C665.943 599.389 666.29 598.479 666.983 597.838C667.694 597.179 668.803 596.703 670.311 596.408L674.939 595.472C674.939 594.293 674.67 593.418 674.133 592.846C673.613 592.274 672.859 591.988 671.871 591.988C670.918 591.988 670.172 592.205 669.635 592.638C669.098 593.054 668.725 593.661 668.517 594.458L666.203 594.276C666.463 592.976 667.078 591.927 668.049 591.13C669.037 590.315 670.311 589.908 671.871 589.908C673.535 589.908 674.826 590.411 675.745 591.416C676.664 592.404 677.123 593.773 677.123 595.524V601.244C677.123 601.556 677.192 601.773 677.331 601.894C677.47 602.015 677.678 602.076 677.955 602.076H678.839V604C678.735 604.017 678.57 604.026 678.345 604.026C678.12 604.043 677.903 604.052 677.695 604.052C677.106 604.052 676.603 603.957 676.187 603.766C675.788 603.575 675.485 603.272 675.277 602.856C675.069 602.423 674.956 601.868 674.939 601.192H675.355C675.234 601.781 674.939 602.319 674.471 602.804C674.02 603.272 673.448 603.645 672.755 603.922C672.062 604.182 671.316 604.312 670.519 604.312ZM670.727 602.388C671.663 602.388 672.443 602.232 673.067 601.92C673.691 601.591 674.159 601.14 674.471 600.568C674.783 599.979 674.939 599.303 674.939 598.54V597.344L670.727 598.176C669.791 598.349 669.141 598.618 668.777 598.982C668.413 599.329 668.231 599.788 668.231 600.36C668.231 601.001 668.448 601.504 668.881 601.868C669.332 602.215 669.947 602.388 670.727 602.388ZM687.071 604.312C685.858 604.312 684.809 604.017 683.925 603.428C683.041 602.839 682.356 602.007 681.871 600.932C681.403 599.857 681.169 598.583 681.169 597.11C681.169 595.637 681.403 594.363 681.871 593.288C682.356 592.213 683.041 591.381 683.925 590.792C684.809 590.203 685.858 589.908 687.071 589.908C688.042 589.908 688.891 590.142 689.619 590.61C690.347 591.061 690.876 591.572 691.205 592.144V585.54H693.389V604H691.413L691.335 601.92C690.954 602.665 690.39 603.255 689.645 603.688C688.9 604.104 688.042 604.312 687.071 604.312ZM687.201 602.232C688.033 602.232 688.744 602.024 689.333 601.608C689.94 601.192 690.399 600.603 690.711 599.84C691.04 599.06 691.205 598.15 691.205 597.11C691.205 596.035 691.04 595.117 690.711 594.354C690.399 593.591 689.94 593.011 689.333 592.612C688.726 592.196 687.998 591.988 687.149 591.988C686.022 591.988 685.121 592.447 684.445 593.366C683.786 594.267 683.457 595.515 683.457 597.11C683.457 598.687 683.786 599.935 684.445 600.854C685.121 601.773 686.04 602.232 687.201 602.232ZM702.661 604.312C701.447 604.312 700.399 604.017 699.515 603.428C698.631 602.839 697.946 602.007 697.461 600.932C696.993 599.857 696.759 598.583 696.759 597.11C696.759 595.637 696.993 594.363 697.461 593.288C697.946 592.213 698.631 591.381 699.515 590.792C700.399 590.203 701.447 589.908 702.661 589.908C703.631 589.908 704.481 590.142 705.209 590.61C705.937 591.061 706.465 591.572 706.795 592.144V585.54H708.979V604H707.003L706.925 601.92C706.543 602.665 705.98 603.255 705.235 603.688C704.489 604.104 703.631 604.312 702.661 604.312ZM702.791 602.232C703.623 602.232 704.333 602.024 704.923 601.608C705.529 601.192 705.989 600.603 706.301 599.84C706.63 599.06 706.795 598.15 706.795 597.11C706.795 596.035 706.63 595.117 706.301 594.354C705.989 593.591 705.529 593.011 704.923 592.612C704.316 592.196 703.588 591.988 702.739 591.988C701.612 591.988 700.711 592.447 700.035 593.366C699.376 594.267 699.047 595.515 699.047 597.11C699.047 598.687 699.376 599.935 700.035 600.854C700.711 601.773 701.629 602.232 702.791 602.232ZM717.237 604V590.22H719.057L719.265 593.704L719.057 593.652C719.23 592.473 719.603 591.607 720.175 591.052C720.764 590.497 721.544 590.22 722.515 590.22H725.349V592.196H722.541C721.865 592.196 721.293 592.335 720.825 592.612C720.374 592.872 720.027 593.262 719.785 593.782C719.542 594.285 719.421 594.917 719.421 595.68V604H717.237ZM713.649 604V602.076H723.789V604H713.649ZM713.649 592.144V590.22H718.433V592.144H713.649ZM734.932 604.312C733.632 604.312 732.506 604.017 731.552 603.428C730.616 602.839 729.888 602.007 729.368 600.932C728.866 599.84 728.614 598.566 728.614 597.11C728.614 595.654 728.866 594.389 729.368 593.314C729.888 592.239 730.608 591.407 731.526 590.818C732.462 590.211 733.563 589.908 734.828 589.908C736.024 589.908 737.082 590.194 738 590.766C738.919 591.321 739.638 592.135 740.158 593.21C740.678 594.285 740.938 595.593 740.938 597.136V597.786H730.902C730.989 599.259 731.379 600.369 732.072 601.114C732.783 601.859 733.736 602.232 734.932 602.232C735.834 602.232 736.57 602.024 737.142 601.608C737.732 601.175 738.139 600.611 738.364 599.918L740.704 600.1C740.34 601.331 739.647 602.345 738.624 603.142C737.619 603.922 736.388 604.312 734.932 604.312ZM730.902 595.862H738.546C738.442 594.527 738.052 593.548 737.376 592.924C736.7 592.3 735.851 591.988 734.828 591.988C733.771 591.988 732.896 592.317 732.202 592.976C731.526 593.617 731.093 594.579 730.902 595.862ZM750.548 604.312C749.352 604.312 748.321 604.104 747.454 603.688C746.588 603.272 745.903 602.717 745.4 602.024C744.915 601.313 744.638 600.525 744.568 599.658L746.856 599.502C746.995 600.351 747.368 601.019 747.974 601.504C748.598 601.989 749.456 602.232 750.548 602.232C751.571 602.232 752.36 602.085 752.914 601.79C753.486 601.495 753.772 601.036 753.772 600.412C753.772 600.013 753.677 599.684 753.486 599.424C753.296 599.164 752.94 598.947 752.42 598.774C751.9 598.583 751.138 598.401 750.132 598.228C748.798 597.985 747.749 597.691 746.986 597.344C746.241 596.98 745.712 596.529 745.4 595.992C745.088 595.455 744.932 594.813 744.932 594.068C744.932 593.271 745.132 592.56 745.53 591.936C745.929 591.312 746.518 590.818 747.298 590.454C748.078 590.09 749.032 589.908 750.158 589.908C751.302 589.908 752.256 590.116 753.018 590.532C753.798 590.931 754.414 591.468 754.864 592.144C755.315 592.803 755.61 593.531 755.748 594.328L753.46 594.484C753.356 593.999 753.157 593.574 752.862 593.21C752.585 592.829 752.212 592.534 751.744 592.326C751.294 592.101 750.756 591.988 750.132 591.988C749.127 591.988 748.382 592.187 747.896 592.586C747.411 592.985 747.168 593.479 747.168 594.068C747.168 594.536 747.281 594.909 747.506 595.186C747.732 595.463 748.096 595.689 748.598 595.862C749.101 596.018 749.768 596.165 750.6 596.304C752.022 596.529 753.122 596.824 753.902 597.188C754.682 597.535 755.228 597.968 755.54 598.488C755.852 599.008 756.008 599.649 756.008 600.412C756.008 601.227 755.766 601.929 755.28 602.518C754.812 603.09 754.162 603.532 753.33 603.844C752.516 604.156 751.588 604.312 750.548 604.312ZM766.138 604.312C764.942 604.312 763.911 604.104 763.044 603.688C762.177 603.272 761.493 602.717 760.99 602.024C760.505 601.313 760.227 600.525 760.158 599.658L762.446 599.502C762.585 600.351 762.957 601.019 763.564 601.504C764.188 601.989 765.046 602.232 766.138 602.232C767.161 602.232 767.949 602.085 768.504 601.79C769.076 601.495 769.362 601.036 769.362 600.412C769.362 600.013 769.267 599.684 769.076 599.424C768.885 599.164 768.53 598.947 768.01 598.774C767.49 598.583 766.727 598.401 765.722 598.228C764.387 597.985 763.339 597.691 762.576 597.344C761.831 596.98 761.302 596.529 760.99 595.992C760.678 595.455 760.522 594.813 760.522 594.068C760.522 593.271 760.721 592.56 761.12 591.936C761.519 591.312 762.108 590.818 762.888 590.454C763.668 590.09 764.621 589.908 765.748 589.908C766.892 589.908 767.845 590.116 768.608 590.532C769.388 590.931 770.003 591.468 770.454 592.144C770.905 592.803 771.199 593.531 771.338 594.328L769.05 594.484C768.946 593.999 768.747 593.574 768.452 593.21C768.175 592.829 767.802 592.534 767.334 592.326C766.883 592.101 766.346 591.988 765.722 591.988C764.717 591.988 763.971 592.187 763.486 592.586C763.001 592.985 762.758 593.479 762.758 594.068C762.758 594.536 762.871 594.909 763.096 595.186C763.321 595.463 763.685 595.689 764.188 595.862C764.691 596.018 765.358 596.165 766.19 596.304C767.611 596.529 768.712 596.824 769.492 597.188C770.272 597.535 770.818 597.968 771.13 598.488C771.442 599.008 771.598 599.649 771.598 600.412C771.598 601.227 771.355 601.929 770.87 602.518C770.402 603.09 769.752 603.532 768.92 603.844C768.105 604.156 767.178 604.312 766.138 604.312ZM791.338 594.536V592.508H802.778V594.536H791.338ZM791.338 599.918V597.89H802.778V599.918H791.338ZM827.458 594.042L827.094 587.516V585.54H829.382V587.516L829.018 594.042H827.458ZM839.147 601.348L846.427 588.088L848.507 588.192L841.227 601.452L839.147 601.348ZM843.827 604.416C842.493 604.416 841.331 604.026 840.343 603.246C839.373 602.466 838.627 601.357 838.107 599.918C837.587 598.479 837.327 596.772 837.327 594.796C837.327 592.803 837.587 591.087 838.107 589.648C838.627 588.209 839.373 587.1 840.343 586.32C841.331 585.523 842.493 585.124 843.827 585.124C845.179 585.124 846.341 585.523 847.311 586.32C848.282 587.1 849.027 588.209 849.547 589.648C850.067 591.087 850.327 592.803 850.327 594.796C850.327 596.772 850.067 598.479 849.547 599.918C849.027 601.357 848.282 602.466 847.311 603.246C846.341 604.026 845.179 604.416 843.827 604.416ZM843.827 602.232C844.694 602.232 845.431 601.929 846.037 601.322C846.661 600.715 847.138 599.857 847.467 598.748C847.814 597.621 847.987 596.304 847.987 594.796C847.987 593.253 847.814 591.927 847.467 590.818C847.138 589.691 846.661 588.825 846.037 588.218C845.431 587.611 844.694 587.308 843.827 587.308C842.978 587.308 842.241 587.611 841.617 588.218C840.993 588.825 840.508 589.691 840.161 590.818C839.832 591.927 839.667 593.253 839.667 594.796C839.667 596.304 839.832 597.621 840.161 598.748C840.508 599.857 840.993 600.715 841.617 601.322C842.241 601.929 842.978 602.232 843.827 602.232ZM853.021 604L858.091 596.928L853.281 590.22H855.829L859.443 595.42L862.979 590.22H865.579L860.795 596.98L865.813 604H863.265L859.443 598.436L855.621 604H853.021ZM868.507 604C868.507 602.7 868.706 601.53 869.105 600.49C869.521 599.433 870.24 598.427 871.263 597.474C872.303 596.521 873.742 595.559 875.579 594.588C876.428 594.137 877.113 593.721 877.633 593.34C878.153 592.959 878.534 592.551 878.777 592.118C879.02 591.685 879.141 591.156 879.141 590.532C879.141 589.891 879.002 589.336 878.725 588.868C878.448 588.383 878.032 588.001 877.477 587.724C876.94 587.447 876.264 587.308 875.449 587.308C874.149 587.308 873.118 587.646 872.355 588.322C871.61 588.998 871.142 589.96 870.951 591.208L868.611 591.052C868.819 589.249 869.512 587.811 870.691 586.736C871.87 585.661 873.456 585.124 875.449 585.124C876.714 585.124 877.798 585.349 878.699 585.8C879.6 586.251 880.285 586.883 880.753 587.698C881.238 588.495 881.481 589.423 881.481 590.48C881.481 591.416 881.325 592.231 881.013 592.924C880.701 593.6 880.172 594.233 879.427 594.822C878.699 595.411 877.694 596.044 876.411 596.72C875.302 597.309 874.366 597.907 873.603 598.514C872.858 599.121 872.286 599.71 871.887 600.282C871.506 600.837 871.298 601.348 871.263 601.816H881.507V604H868.507ZM890.649 604.416C889.176 604.416 887.928 604.026 886.905 603.246C885.882 602.466 885.102 601.357 884.565 599.918C884.045 598.479 883.785 596.772 883.785 594.796C883.785 592.803 884.045 591.087 884.565 589.648C885.102 588.209 885.882 587.1 886.905 586.32C887.928 585.523 889.176 585.124 890.649 585.124C892.278 585.124 893.665 585.661 894.809 586.736C895.953 587.793 896.716 589.275 897.097 591.182L894.705 591.338C894.41 590.003 893.899 588.998 893.171 588.322C892.46 587.646 891.62 587.308 890.649 587.308C889.661 587.308 888.829 587.603 888.153 588.192C887.494 588.764 886.992 589.613 886.645 590.74C886.298 591.849 886.125 593.201 886.125 594.796C886.125 596.373 886.298 597.717 886.645 598.826C886.992 599.935 887.494 600.785 888.153 601.374C888.829 601.946 889.661 602.232 890.649 602.232C891.724 602.232 892.634 601.859 893.379 601.114C894.124 600.369 894.627 599.259 894.887 597.786L897.253 597.916C896.924 599.944 896.178 601.539 895.017 602.7C893.856 603.844 892.4 604.416 890.649 604.416ZM905.771 604V590.324H900.935V588.4H903.431C904.089 588.4 904.618 588.305 905.017 588.114C905.433 587.923 905.727 587.62 905.901 587.204C906.091 586.788 906.187 586.233 906.187 585.54H908.007V604H905.771ZM899.947 604V601.816H912.427V604H899.947ZM919.489 604V589.336C919.489 588.105 919.801 587.169 920.425 586.528C921.066 585.869 922.037 585.54 923.337 585.54H927.757V587.464H923.337C922.799 587.464 922.383 587.637 922.089 587.984C921.811 588.313 921.673 588.764 921.673 589.336V604H919.489ZM915.797 592.144V590.22H927.497V592.144H915.797ZM939.764 604V600.828H942.988V604H939.764ZM951.334 604V600.828H954.558V604H951.334ZM962.878 604V600.828H966.102V604H962.878ZM983.72 604V590.324H978.884V588.4H981.38C982.039 588.4 982.567 588.305 982.966 588.114C983.382 587.923 983.677 587.62 983.85 587.204C984.041 586.788 984.136 586.233 984.136 585.54H985.956V604H983.72ZM977.896 604V601.816H990.376V604H977.896ZM997.906 604.312C997.039 604.312 996.259 604.156 995.566 603.844C994.872 603.532 994.326 603.099 993.928 602.544C993.529 601.972 993.33 601.313 993.33 600.568C993.33 599.389 993.676 598.479 994.37 597.838C995.08 597.179 996.19 596.703 997.698 596.408L1002.33 595.472C1002.33 594.293 1002.06 593.418 1001.52 592.846C1001 592.274 1000.25 591.988 999.258 591.988C998.304 591.988 997.559 592.205 997.022 592.638C996.484 593.054 996.112 593.661 995.904 594.458L993.59 594.276C993.85 592.976 994.465 591.927 995.436 591.13C996.424 590.315 997.698 589.908 999.258 589.908C1000.92 589.908 1002.21 590.411 1003.13 591.416C1004.05 592.404 1004.51 593.773 1004.51 595.524V601.244C1004.51 601.556 1004.58 601.773 1004.72 601.894C1004.86 602.015 1005.06 602.076 1005.34 602.076H1006.23V604C1006.12 604.017 1005.96 604.026 1005.73 604.026C1005.51 604.043 1005.29 604.052 1005.08 604.052C1004.49 604.052 1003.99 603.957 1003.57 603.766C1003.18 603.575 1002.87 603.272 1002.66 602.856C1002.46 602.423 1002.34 601.868 1002.33 601.192H1002.74C1002.62 601.781 1002.33 602.319 1001.86 602.804C1001.41 603.272 1000.84 603.645 1000.14 603.922C999.448 604.182 998.703 604.312 997.906 604.312ZM998.114 602.388C999.05 602.388 999.83 602.232 1000.45 601.92C1001.08 601.591 1001.55 601.14 1001.86 600.568C1002.17 599.979 1002.33 599.303 1002.33 598.54V597.344L998.114 598.176C997.178 598.349 996.528 598.618 996.164 598.982C995.8 599.329 995.618 599.788 995.618 600.36C995.618 601.001 995.834 601.504 996.268 601.868C996.718 602.215 997.334 602.388 998.114 602.388ZM1015.37 604.416C1013.89 604.416 1012.65 604.026 1011.62 603.246C1010.6 602.466 1009.82 601.357 1009.28 599.918C1008.76 598.479 1008.5 596.772 1008.5 594.796C1008.5 592.803 1008.76 591.087 1009.28 589.648C1009.82 588.209 1010.6 587.1 1011.62 586.32C1012.65 585.523 1013.89 585.124 1015.37 585.124C1017 585.124 1018.38 585.661 1019.53 586.736C1020.67 587.793 1021.43 589.275 1021.82 591.182L1019.42 591.338C1019.13 590.003 1018.62 588.998 1017.89 588.322C1017.18 587.646 1016.34 587.308 1015.37 587.308C1014.38 587.308 1013.55 587.603 1012.87 588.192C1012.21 588.764 1011.71 589.613 1011.36 590.74C1011.02 591.849 1010.84 593.201 1010.84 594.796C1010.84 596.373 1011.02 597.717 1011.36 598.826C1011.71 599.935 1012.21 600.785 1012.87 601.374C1013.55 601.946 1014.38 602.232 1015.37 602.232C1016.44 602.232 1017.35 601.859 1018.1 601.114C1018.84 600.369 1019.35 599.259 1019.61 597.786L1021.97 597.916C1021.64 599.944 1020.9 601.539 1019.74 602.7C1018.57 603.844 1017.12 604.416 1015.37 604.416ZM1024.41 604C1024.41 602.7 1024.6 601.53 1025 600.49C1025.42 599.433 1026.14 598.427 1027.16 597.474C1028.2 596.521 1029.64 595.559 1031.48 594.588C1032.33 594.137 1033.01 593.721 1033.53 593.34C1034.05 592.959 1034.43 592.551 1034.68 592.118C1034.92 591.685 1035.04 591.156 1035.04 590.532C1035.04 589.891 1034.9 589.336 1034.62 588.868C1034.35 588.383 1033.93 588.001 1033.38 587.724C1032.84 587.447 1032.16 587.308 1031.35 587.308C1030.05 587.308 1029.02 587.646 1028.25 588.322C1027.51 588.998 1027.04 589.96 1026.85 591.208L1024.51 591.052C1024.72 589.249 1025.41 587.811 1026.59 586.736C1027.77 585.661 1029.35 585.124 1031.35 585.124C1032.61 585.124 1033.7 585.349 1034.6 585.8C1035.5 586.251 1036.18 586.883 1036.65 587.698C1037.14 588.495 1037.38 589.423 1037.38 590.48C1037.38 591.416 1037.22 592.231 1036.91 592.924C1036.6 593.6 1036.07 594.233 1035.33 594.822C1034.6 595.411 1033.59 596.044 1032.31 596.72C1031.2 597.309 1030.26 597.907 1029.5 598.514C1028.76 599.121 1028.18 599.71 1027.79 600.282C1027.4 600.837 1027.2 601.348 1027.16 601.816H1037.41V604H1024.41ZM1045.72 594.042L1045.35 587.516V585.54H1047.64V587.516L1047.28 594.042H1045.72Z" fill="black"/>
</g>
<defs>
<linearGradient id="paint0_linear_683_6457" x1="1066" y1="234" x2="1264" y2="234" gradientUnits="userSpaceOnUse">
<stop/>
<stop offset="1" stop-opacity="0.4"/>
</linearGradient>
<linearGradient id="paint1_linear_683_6457" x1="1066" y1="257" x2="1264" y2="257" gradientUnits="userSpaceOnUse">
<stop/>
<stop offset="1" stop-opacity="0.4"/>
</linearGradient>
<linearGradient id="paint2_linear_683_6457" x1="1066" y1="281" x2="1264" y2="281" gradientUnits="userSpaceOnUse">
<stop/>
<stop offset="1" stop-opacity="0.4"/>
</linearGradient>
<linearGradient id="paint3_linear_683_6457" x1="1066" y1="304" x2="1264" y2="304" gradientUnits="userSpaceOnUse">
<stop/>
<stop offset="1" stop-opacity="0.4"/>
</linearGradient>
<linearGradient id="paint4_linear_683_6457" x1="1066" y1="327" x2="1264" y2="327" gradientUnits="userSpaceOnUse">
<stop/>
<stop offset="1" stop-opacity="0.4"/>
</linearGradient>
<linearGradient id="paint5_linear_683_6457" x1="1066" y1="349" x2="1264" y2="349" gradientUnits="userSpaceOnUse">
<stop/>
<stop offset="1" stop-opacity="0.4"/>
</linearGradient>
<linearGradient id="paint6_linear_683_6457" x1="1066" y1="373" x2="1264" y2="373" gradientUnits="userSpaceOnUse">
<stop/>
<stop offset="1" stop-opacity="0.4"/>
</linearGradient>
<linearGradient id="paint7_linear_683_6457" x1="1066" y1="398" x2="1264" y2="398" gradientUnits="userSpaceOnUse">
<stop/>
<stop offset="1" stop-opacity="0.4"/>
</linearGradient>
<linearGradient id="paint8_linear_683_6457" x1="1066" y1="421" x2="1264" y2="421" gradientUnits="userSpaceOnUse">
<stop stop-color="#2386DD"/>
<stop offset="1" stop-color="#73D6F5"/>
</linearGradient>
<linearGradient id="paint9_linear_683_6457" x1="219" y1="235" x2="417" y2="235" gradientUnits="userSpaceOnUse">
<stop/>
<stop offset="1" stop-opacity="0.4"/>
</linearGradient>
<linearGradient id="paint10_linear_683_6457" x1="-64" y1="235" x2="134" y2="235" gradientUnits="userSpaceOnUse">
<stop/>
<stop offset="1" stop-opacity="0.4"/>
</linearGradient>
<linearGradient id="paint11_linear_683_6457" x1="502" y1="235" x2="700" y2="235" gradientUnits="userSpaceOnUse">
<stop stop-color="#2386DD"/>
<stop offset="1" stop-color="#73D6F5"/>
</linearGradient>
<linearGradient id="paint12_linear_683_6457" x1="784" y1="235" x2="982" y2="235" gradientUnits="userSpaceOnUse">
<stop/>
<stop offset="1" stop-opacity="0.4"/>
</linearGradient>
<linearGradient id="paint13_linear_683_6457" x1="219" y1="258" x2="417" y2="258" gradientUnits="userSpaceOnUse">
<stop/>
<stop offset="1" stop-opacity="0.4"/>
</linearGradient>
<linearGradient id="paint14_linear_683_6457" x1="-64" y1="258" x2="134" y2="258" gradientUnits="userSpaceOnUse">
<stop/>
<stop offset="1" stop-opacity="0.4"/>
</linearGradient>
<linearGradient id="paint15_linear_683_6457" x1="502" y1="258" x2="700" y2="258" gradientUnits="userSpaceOnUse">
<stop/>
<stop offset="1" stop-opacity="0.4"/>
</linearGradient>
<linearGradient id="paint16_linear_683_6457" x1="784" y1="258" x2="982" y2="258" gradientUnits="userSpaceOnUse">
<stop/>
<stop offset="1" stop-opacity="0.4"/>
</linearGradient>
<linearGradient id="paint17_linear_683_6457" x1="219" y1="281" x2="417" y2="281" gradientUnits="userSpaceOnUse">
<stop/>
<stop offset="1" stop-opacity="0.4"/>
</linearGradient>
<linearGradient id="paint18_linear_683_6457" x1="-64" y1="281" x2="134" y2="281" gradientUnits="userSpaceOnUse">
<stop stop-color="#2386DD"/>
<stop offset="1" stop-color="#73D6F5"/>
</linearGradient>
<linearGradient id="paint19_linear_683_6457" x1="502" y1="281" x2="700" y2="281" gradientUnits="userSpaceOnUse">
<stop/>
<stop offset="1" stop-opacity="0.4"/>
</linearGradient>
<linearGradient id="paint20_linear_683_6457" x1="784" y1="281" x2="982" y2="281" gradientUnits="userSpaceOnUse">
<stop stop-color="#2386DD"/>
<stop offset="1" stop-color="#73D6F5"/>
</linearGradient>
<linearGradient id="paint21_linear_683_6457" x1="219" y1="304" x2="417" y2="304" gradientUnits="userSpaceOnUse">
<stop/>
<stop offset="1" stop-opacity="0.4"/>
</linearGradient>
<linearGradient id="paint22_linear_683_6457" x1="-64" y1="304" x2="134" y2="304" gradientUnits="userSpaceOnUse">
<stop/>
<stop offset="1" stop-opacity="0.4"/>
</linearGradient>
<linearGradient id="paint23_linear_683_6457" x1="502" y1="304" x2="700" y2="304" gradientUnits="userSpaceOnUse">
<stop/>
<stop offset="1" stop-opacity="0.4"/>
</linearGradient>
<linearGradient id="paint24_linear_683_6457" x1="784" y1="304" x2="982" y2="304" gradientUnits="userSpaceOnUse">
<stop/>
<stop offset="1" stop-opacity="0.4"/>
</linearGradient>
<linearGradient id="paint25_linear_683_6457" x1="219" y1="327" x2="417" y2="327" gradientUnits="userSpaceOnUse">
<stop/>
<stop offset="1" stop-opacity="0.4"/>
</linearGradient>
<linearGradient id="paint26_linear_683_6457" x1="-64" y1="327" x2="134" y2="327" gradientUnits="userSpaceOnUse">
<stop/>
<stop offset="1" stop-opacity="0.4"/>
</linearGradient>
<linearGradient id="paint27_linear_683_6457" x1="502" y1="327" x2="700" y2="327" gradientUnits="userSpaceOnUse">
<stop/>
<stop offset="1" stop-opacity="0.4"/>
</linearGradient>
<linearGradient id="paint28_linear_683_6457" x1="784" y1="327" x2="982" y2="327" gradientUnits="userSpaceOnUse">
<stop/>
<stop offset="1" stop-opacity="0.4"/>
</linearGradient>
<linearGradient id="paint29_linear_683_6457" x1="219" y1="351" x2="417" y2="351" gradientUnits="userSpaceOnUse">
<stop stop-color="#2386DD"/>
<stop offset="1" stop-color="#73D6F5"/>
</linearGradient>
<linearGradient id="paint30_linear_683_6457" x1="-64" y1="351" x2="134" y2="351" gradientUnits="userSpaceOnUse">
<stop/>
<stop offset="1" stop-opacity="0.4"/>
</linearGradient>
<linearGradient id="paint31_linear_683_6457" x1="502" y1="351" x2="700" y2="351" gradientUnits="userSpaceOnUse">
<stop stop-color="#2386DD"/>
<stop offset="1" stop-color="#73D6F5"/>
</linearGradient>
<linearGradient id="paint32_linear_683_6457" x1="784" y1="351" x2="982" y2="351" gradientUnits="userSpaceOnUse">
<stop/>
<stop offset="1" stop-opacity="0.4"/>
</linearGradient>
<linearGradient id="paint33_linear_683_6457" x1="502" y1="374" x2="700" y2="374" gradientUnits="userSpaceOnUse">
<stop/>
<stop offset="1" stop-opacity="0.4"/>
</linearGradient>
<linearGradient id="paint34_linear_683_6457" x1="784" y1="374" x2="982" y2="374" gradientUnits="userSpaceOnUse">
<stop/>
<stop offset="1" stop-opacity="0.4"/>
</linearGradient>
<linearGradient id="paint35_linear_683_6457" x1="502" y1="398" x2="700" y2="398" gradientUnits="userSpaceOnUse">
<stop/>
<stop offset="1" stop-opacity="0.4"/>
</linearGradient>
<linearGradient id="paint36_linear_683_6457" x1="784" y1="398" x2="982" y2="398" gradientUnits="userSpaceOnUse">
<stop/>
<stop offset="1" stop-opacity="0.4"/>
</linearGradient>
<linearGradient id="paint37_linear_683_6457" x1="502" y1="422" x2="700" y2="422" gradientUnits="userSpaceOnUse">
<stop/>
<stop offset="1" stop-opacity="0.4"/>
</linearGradient>
<linearGradient id="paint38_linear_683_6457" x1="784" y1="422" x2="982" y2="422" gradientUnits="userSpaceOnUse">
<stop/>
<stop offset="1" stop-opacity="0.4"/>
</linearGradient>
<linearGradient id="paint39_linear_683_6457" x1="502" y1="446" x2="700" y2="446" gradientUnits="userSpaceOnUse">
<stop/>
<stop offset="1" stop-opacity="0.4"/>
</linearGradient>
<linearGradient id="paint40_linear_683_6457" x1="784" y1="446" x2="982" y2="446" gradientUnits="userSpaceOnUse">
<stop stop-color="#2386DD"/>
<stop offset="1" stop-color="#73D6F5"/>
</linearGradient>
<linearGradient id="paint41_linear_683_6457" x1="502" y1="469" x2="700" y2="469" gradientUnits="userSpaceOnUse">
<stop/>
<stop offset="1" stop-opacity="0.4"/>
</linearGradient>
<linearGradient id="paint42_linear_683_6457" x1="784" y1="469" x2="982" y2="469" gradientUnits="userSpaceOnUse">
<stop/>
<stop offset="1" stop-opacity="0.4"/>
</linearGradient>
<linearGradient id="paint43_linear_683_6457" x1="502" y1="493" x2="700" y2="493" gradientUnits="userSpaceOnUse">
<stop/>
<stop offset="1" stop-opacity="0.4"/>
</linearGradient>
<linearGradient id="paint44_linear_683_6457" x1="784" y1="493" x2="982" y2="493" gradientUnits="userSpaceOnUse">
<stop/>
<stop offset="1" stop-opacity="0.4"/>
</linearGradient>
<linearGradient id="paint45_linear_683_6457" x1="219" y1="374" x2="417" y2="374" gradientUnits="userSpaceOnUse">
<stop/>
<stop offset="1" stop-opacity="0.4"/>
</linearGradient>
<linearGradient id="paint46_linear_683_6457" x1="-64" y1="374" x2="134" y2="374" gradientUnits="userSpaceOnUse">
<stop/>
<stop offset="1" stop-opacity="0.4"/>
</linearGradient>
<linearGradient id="paint47_linear_683_6457" x1="219" y1="397" x2="417" y2="397" gradientUnits="userSpaceOnUse">
<stop/>
<stop offset="1" stop-opacity="0.4"/>
</linearGradient>
<linearGradient id="paint48_linear_683_6457" x1="-64" y1="397" x2="134" y2="397" gradientUnits="userSpaceOnUse">
<stop/>
<stop offset="1" stop-opacity="0.4"/>
</linearGradient>
<linearGradient id="paint49_linear_683_6457" x1="219" y1="420" x2="417" y2="420" gradientUnits="userSpaceOnUse">
<stop/>
<stop offset="1" stop-opacity="0.4"/>
</linearGradient>
<linearGradient id="paint50_linear_683_6457" x1="-64" y1="420" x2="134" y2="420" gradientUnits="userSpaceOnUse">
<stop/>
<stop offset="1" stop-opacity="0.4"/>
</linearGradient>
<linearGradient id="paint51_linear_683_6457" x1="-64" y1="467" x2="134" y2="467" gradientUnits="userSpaceOnUse">
<stop/>
<stop offset="1" stop-opacity="0.4"/>
</linearGradient>
<linearGradient id="paint52_linear_683_6457" x1="219" y1="443" x2="417" y2="443" gradientUnits="userSpaceOnUse">
<stop/>
<stop offset="1" stop-opacity="0.4"/>
</linearGradient>
<linearGradient id="paint53_linear_683_6457" x1="-64" y1="443" x2="134" y2="443" gradientUnits="userSpaceOnUse">
<stop/>
<stop offset="1" stop-opacity="0.4"/>
</linearGradient>
<linearGradient id="paint54_linear_683_6457" x1="-64" y1="490" x2="134" y2="490" gradientUnits="userSpaceOnUse">
<stop/>
<stop offset="1" stop-opacity="0.4"/>
</linearGradient>
<linearGradient id="paint55_linear_683_6457" x1="600" y1="0" x2="600" y2="129" gradientUnits="userSpaceOnUse">
<stop stop-color="white"/>
<stop offset="1" stop-color="white" stop-opacity="0"/>
</linearGradient>
<linearGradient id="paint56_linear_683_6457" x1="600" y1="675" x2="600" y2="546" gradientUnits="userSpaceOnUse">
<stop stop-color="white"/>
<stop offset="1" stop-color="white" stop-opacity="0"/>
</linearGradient>
<linearGradient id="paint57_linear_683_6457" x1="-1.47526e-05" y1="337.5" x2="94" y2="337.5" gradientUnits="userSpaceOnUse">
<stop stop-color="white"/>
<stop offset="1" stop-color="white" stop-opacity="0"/>
</linearGradient>
<linearGradient id="paint58_linear_683_6457" x1="1200" y1="337.5" x2="1106" y2="337.5" gradientUnits="userSpaceOnUse">
<stop stop-color="white"/>
<stop offset="1" stop-color="white" stop-opacity="0"/>
</linearGradient>
<clipPath id="clip0_683_6457">
<rect width="1200" height="675" fill="white"/>
</clipPath>
</defs>
</svg>
