<svg preserveAspectRatio="none" width="100%" height="100%" overflow="visible" style="display: block;" viewBox="0 0 136.268 84.8121" fill="none" xmlns="http://www.w3.org/2000/svg">
<g id="Group">
<g id="Vector">
<mask id="path-1-inside-1_0_26" fill="white">
<path d="M134.699 36.9397C129.845 49.9702 116.722 59.9265 104.832 66.3132C116.307 59.4179 129.486 48.4373 133.073 35.0518C134.641 28.9856 133.74 23.0361 129.844 18.0478C120.42 6.3596 100.977 4.60155 86.9338 5.46866C86.0846 5.54966 83.9156 5.69973 83.0818 5.78192C81.8538 5.94153 80.465 6.06897 79.2418 6.23096C78.4342 6.3727 76.2212 6.66452 75.4195 6.81102C74.2118 7.03971 72.823 7.27793 71.6188 7.51615C70.8672 7.69243 68.6005 8.15576 67.843 8.34276C67.2391 8.4988 65.9528 8.81205 65.3429 8.96809C64.1447 9.24442 62.183 9.83997 60.9978 10.1639C59.8568 10.4927 58.4489 10.9679 57.3138 11.3157C52.2636 12.9868 47.2312 15.0081 42.4466 17.3093C41.2507 17.8953 39.0806 18.9709 37.8978 19.6355L36.7734 20.237C36.5852 20.3347 36.4006 20.4407 36.2184 20.5479L35.6681 20.8671L33.4669 22.1416L29.3505 14.8902C38.965 9.7816 49.3061 5.94391 59.8925 3.43666C60.4761 3.29492 62.682 2.79109 63.199 2.68866C64.1459 2.50404 65.5704 2.21579 66.5233 2.02998C69.5653 1.49161 72.8444 0.981824 75.9115 0.67214C77.5325 0.489903 79.7158 0.308857 81.3131 0.218334C82.1337 0.14806 83.2152 0.105181 84.0204 0.0837413L86.7301 0.000364847C87.6568 -0.00320843 89.9092 0.0206134 90.7977 0.0218045C105.512 0.346972 125.426 4.30735 133.472 18.0013C136.881 23.9079 137.028 30.6174 134.699 36.9385"/>
</mask>
<path d="M134.699 36.9397C129.845 49.9702 116.722 59.9265 104.832 66.3132C116.307 59.4179 129.486 48.4373 133.073 35.0518C134.641 28.9856 133.74 23.0361 129.844 18.0478C120.42 6.3596 100.977 4.60155 86.9338 5.46866C86.0846 5.54966 83.9156 5.69973 83.0818 5.78192C81.8538 5.94153 80.465 6.06897 79.2418 6.23096C78.4342 6.3727 76.2212 6.66452 75.4195 6.81102C74.2118 7.03971 72.823 7.27793 71.6188 7.51615C70.8672 7.69243 68.6005 8.15576 67.843 8.34276C67.2391 8.4988 65.9528 8.81205 65.3429 8.96809C64.1447 9.24442 62.183 9.83997 60.9978 10.1639C59.8568 10.4927 58.4489 10.9679 57.3138 11.3157C52.2636 12.9868 47.2312 15.0081 42.4466 17.3093C41.2507 17.8953 39.0806 18.9709 37.8978 19.6355L36.7734 20.237C36.5852 20.3347 36.4006 20.4407 36.2184 20.5479L35.6681 20.8671L33.4669 22.1416L29.3505 14.8902C38.965 9.7816 49.3061 5.94391 59.8925 3.43666C60.4761 3.29492 62.682 2.79109 63.199 2.68866C64.1459 2.50404 65.5704 2.21579 66.5233 2.02998C69.5653 1.49161 72.8444 0.981824 75.9115 0.67214C77.5325 0.489903 79.7158 0.308857 81.3131 0.218334C82.1337 0.14806 83.2152 0.105181 84.0204 0.0837413L86.7301 0.000364847C87.6568 -0.00320843 89.9092 0.0206134 90.7977 0.0218045C105.512 0.346972 125.426 4.30735 133.472 18.0013C136.881 23.9079 137.028 30.6174 134.699 36.9385" fill="var(--fill-0, #121212)"/>
<path d="M104.832 66.3132L104.394 65.5845L105.235 67.0621L104.832 66.3132ZM133.073 35.0518L133.894 35.2719L133.896 35.2645L133.073 35.0518ZM129.844 18.0478L130.514 17.5244L130.506 17.5142L129.844 18.0478ZM86.9338 5.46866L86.8814 4.62015L86.8673 4.62103L86.8531 4.62238L86.9338 5.46866ZM83.0818 5.78192L82.9984 4.93589L82.9853 4.93719L82.9723 4.93888L83.0818 5.78192ZM79.2418 6.23096L79.1302 5.38819L79.1124 5.39054L79.0948 5.39363L79.2418 6.23096ZM75.4196 6.81102L75.2667 5.97473L75.2614 5.97574L75.4196 6.81102ZM71.6188 7.51615L71.4538 6.68218L71.4392 6.68508L71.4246 6.68848L71.6188 7.51615ZM67.843 8.34276L67.6393 7.51737L67.6303 7.51967L67.843 8.34276ZM65.3429 8.96809L65.534 9.79647L65.5438 9.79419L65.5536 9.79168L65.3429 8.96809ZM60.9978 10.1639L60.7736 9.34383L60.7625 9.34704L60.9978 10.1639ZM57.3138 11.3157L57.0647 10.5029L57.0557 10.5057L57.0467 10.5086L57.3138 11.3157ZM42.4466 17.3093L42.0781 16.5432L42.0725 16.5459L42.4466 17.3093ZM37.8978 19.6355L38.2988 20.3851L38.3066 20.3809L38.3143 20.3766L37.8978 19.6355ZM36.7734 20.237L37.1651 20.9916L37.1744 20.9866L36.7734 20.237ZM36.2184 20.5479L36.6449 21.2832L36.6494 21.2806L36.2184 20.5479ZM35.6681 20.8671L36.0941 21.6028L36.0947 21.6024L35.6681 20.8671ZM33.4669 22.1416L32.7276 22.5612L33.1509 23.3069L33.8929 22.8773L33.4669 22.1416ZM29.3505 14.8902L28.9516 14.1395L28.1797 14.5496L28.6112 15.3099L29.3505 14.8902ZM59.8925 3.43666L60.0884 4.26392L60.0931 4.26277L59.8925 3.43666ZM63.199 2.68866L63.0363 1.85424L63.0337 1.85475L63.199 2.68866ZM66.5233 2.02998L66.3751 1.19287L66.3678 1.19416L66.3606 1.19557L66.5233 2.02998ZM75.9115 0.67214L75.9969 1.51802L76.0064 1.51694L75.9115 0.67214ZM81.3131 0.218334L81.3612 1.0671L81.3734 1.06641L81.3856 1.06536L81.3131 0.218334ZM84.0204 0.0837413L84.043 0.933573L84.0466 0.933465L84.0204 0.0837413ZM86.7301 0.000364847L86.7269 -0.849755L86.7154 -0.849711L86.704 -0.849359L86.7301 0.000364847ZM90.7977 0.0218045L90.8165 -0.828114L90.8077 -0.828309L90.7989 -0.828321L90.7977 0.0218045ZM133.472 18.0013L134.208 17.5764L134.205 17.5707L133.472 18.0013ZM134.699 36.9397L133.902 36.6429C129.161 49.3713 116.275 59.2013 104.43 65.5642L104.832 66.3132L105.235 67.0621C117.168 60.6517 130.529 50.5691 135.496 37.2364L134.699 36.9397ZM104.832 66.3132L105.27 67.0418C111.05 63.5686 117.276 59.0571 122.518 53.7115C127.755 48.37 132.049 42.1549 133.894 35.2719L133.073 35.0518L132.252 34.8317C130.509 41.3342 126.421 47.3021 121.303 52.5211C116.19 57.7361 110.089 62.1625 104.394 65.5845L104.832 66.3132ZM133.073 35.0518L133.896 35.2645C135.521 28.9765 134.593 22.7472 130.514 17.5245L129.844 18.0478L129.174 18.5711C132.887 23.3249 133.76 28.9946 132.25 34.8391L133.073 35.0518ZM129.844 18.0478L130.506 17.5142C125.627 11.4635 118.202 8.03581 110.312 6.22148C102.412 4.40516 93.9533 4.18348 86.8814 4.62015L86.9338 5.46866L86.9862 6.31717C93.9573 5.88673 102.242 6.11052 109.931 7.87849C117.628 9.64845 124.637 12.9439 129.182 18.5814L129.844 18.0478ZM86.9338 5.46866L86.8531 4.62238C86.4384 4.66193 85.6941 4.71894 84.9368 4.77722C84.1889 4.83478 83.4267 4.89367 82.9984 4.93589L83.0818 5.78192L83.1652 6.62795C83.5707 6.58798 84.3099 6.53074 85.0672 6.47246C85.8151 6.41491 86.58 6.35639 87.0145 6.31495L86.9338 5.46866ZM83.0818 5.78192L82.9723 4.93888C82.3681 5.01741 81.7227 5.08823 81.0668 5.16054C80.4147 5.23244 79.7525 5.30578 79.1302 5.38819L79.2418 6.23096L79.3534 7.07373C79.9543 6.99416 80.5981 6.92278 81.2532 6.85055C81.9046 6.77874 82.5676 6.70604 83.1914 6.62496L83.0818 5.78192ZM79.2418 6.23096L79.0948 5.39363C78.7073 5.46165 77.9697 5.56761 77.2069 5.67781C76.4607 5.78561 75.6872 5.8979 75.2667 5.97475L75.4196 6.81102L75.5724 7.6473C75.9535 7.57764 76.6873 7.47077 77.45 7.3606C78.1959 7.25283 78.9687 7.14202 79.3887 7.06829L79.2418 6.23096ZM75.4196 6.81102L75.2614 5.97574C74.0818 6.1991 72.6552 6.44451 71.4538 6.68218L71.6188 7.51615L71.7838 8.35011C72.9907 8.11135 74.3418 7.88033 75.5777 7.64631L75.4196 6.81102ZM71.6188 7.51615L71.4246 6.68848C71.0597 6.77408 70.3178 6.93133 69.5556 7.09404C68.8069 7.25388 68.0345 7.41986 67.6393 7.51741L67.843 8.34276L68.0468 9.16812C68.4091 9.07867 69.1487 8.91948 69.9106 8.75683C70.659 8.59705 71.4263 8.4345 71.8129 8.34381L71.6188 7.51615ZM67.843 8.34276L67.6303 7.51967C67.0016 7.68212 65.786 7.97722 65.1322 8.14449L65.3429 8.96809L65.5536 9.79168C66.1196 9.64689 67.4766 9.31548 68.0557 9.16586L67.843 8.34276ZM65.3429 8.96809L65.1519 8.1397C63.9341 8.42054 61.9125 9.03259 60.7736 9.3439L60.9978 10.1639L61.222 10.984C62.4534 10.6473 64.3552 10.0683 65.534 9.79647L65.3429 8.96809ZM60.9978 10.1639L60.7625 9.34704C59.6215 9.67575 58.1556 10.1687 57.0647 10.5029L57.3138 11.3157L57.5628 12.1286C58.7422 11.7672 60.092 11.3096 61.2332 10.9808L60.9978 10.1639ZM57.3138 11.3157L57.0467 10.5086C51.963 12.1908 46.8967 14.2257 42.0781 16.5432L42.4466 17.3093L42.8151 18.0754C47.5657 15.7906 52.5641 13.7828 57.5808 12.1228L57.3138 11.3157ZM42.4466 17.3093L42.0725 16.5459C40.8819 17.1294 38.6889 18.2158 37.4813 18.8944L37.8978 19.6355L38.3143 20.3766C39.4722 19.726 41.6196 18.6613 42.8207 18.0727L42.4466 17.3093ZM37.8978 19.6355L37.4968 18.8859L36.3724 19.4874L36.7734 20.237L37.1744 20.9866L38.2988 20.3851L37.8978 19.6355ZM36.7734 20.237L36.3818 19.4824C36.1734 19.5906 35.9735 19.7056 35.7873 19.8151L36.2184 20.5479L36.6494 21.2806C36.8277 21.1757 36.997 21.0788 37.165 20.9916L36.7734 20.237ZM36.2184 20.5479L35.7918 19.8125L35.2415 20.1317L35.6681 20.8671L36.0947 21.6024L36.6449 21.2832L36.2184 20.5479ZM35.6681 20.8671L35.2421 20.1314L33.041 21.4058L33.4669 22.1416L33.8929 22.8773L36.0941 21.6028L35.6681 20.8671ZM33.4669 22.1416L34.2063 21.7219L30.0898 14.4705L29.3505 14.8902L28.6112 15.3099L32.7276 22.5612L33.4669 22.1416ZM29.3505 14.8902L29.7494 15.6409C39.2972 10.5678 49.5698 6.7551 60.0884 4.2639L59.8925 3.43666L59.6966 2.60942C49.0424 5.13272 38.6328 8.99544 28.9516 14.1395L29.3505 14.8902ZM59.8925 3.43666L60.0931 4.26277C60.6731 4.12192 62.8651 3.62146 63.3642 3.52257L63.199 2.68866L63.0337 1.85475C62.4989 1.96072 60.2792 2.46792 59.6919 2.61055L59.8925 3.43666ZM63.199 2.68866L63.3616 3.52307C63.8373 3.43034 64.4321 3.31173 65.0251 3.19348C65.6193 3.075 66.2117 2.95688 66.686 2.86439L66.5233 2.02998L66.3606 1.19557C65.882 1.2889 65.2857 1.4078 64.6926 1.52605C64.0985 1.64454 63.5076 1.76235 63.0363 1.85424L63.199 2.68866ZM66.5233 2.02998L66.6714 2.8671C69.7032 2.33054 72.9593 1.82467 75.9969 1.51797L75.9115 0.67214L75.8261 -0.173685C72.7295 0.138977 69.4274 0.65268 66.3751 1.19287L66.5233 2.02998ZM75.9115 0.67214L76.0064 1.51694C77.6111 1.33656 79.7787 1.15678 81.3612 1.0671L81.3131 0.218334L81.265 -0.63043C79.6529 -0.53907 77.454 -0.35675 75.8165 -0.172665L75.9115 0.67214ZM81.3131 0.218334L81.3856 1.06536C82.1809 0.99726 83.2424 0.954884 84.043 0.933566L84.0204 0.0837413L83.9978 -0.766084C83.188 -0.744522 82.0866 -0.70114 81.2405 -0.628692L81.3131 0.218334ZM84.0204 0.0837413L84.0466 0.933465L86.7563 0.850089L86.7301 0.000364847L86.704 -0.849359L83.9943 -0.765983L84.0204 0.0837413ZM86.7301 0.000364847L86.7334 0.850485C87.6645 0.846894 89.8845 0.870707 90.7966 0.87193L90.7977 0.0218045L90.7989 -0.828321C89.9338 -0.82948 87.6491 -0.853311 86.7269 -0.849755L86.7301 0.000364847ZM90.7977 0.0218045L90.7789 0.871723C98.0785 1.03303 106.641 2.09654 114.355 4.80052C122.074 7.50656 128.856 11.8233 132.739 18.432L133.472 18.0013L134.205 17.5707C130.042 10.4853 122.844 5.97493 114.917 3.196C106.984 0.415007 98.2317 -0.664253 90.8165 -0.828114L90.7977 0.0218045ZM133.472 18.0013L132.736 18.4263C135.999 24.081 136.157 30.5218 133.901 36.6446L134.699 36.9385L135.497 37.2323C137.898 30.7129 137.763 23.7348 134.208 17.5764L133.472 18.0013Z" fill="var(--stroke-0, #121212)" mask="url(#path-1-inside-1_0_26)"/>
</g>
<path id="Vector_2" d="M17.4014 28.209C10.8539 34.0584 5.26251 41.1134 2.95215 49.045L2.95117 49.0459C1.13253 55.3809 1.95798 61.75 6.09375 67.0332L6.09766 67.0381C10.894 72.9817 18.2119 76.3753 26.0508 78.1778C33.8941 79.9813 42.3057 80.2031 49.3506 79.7686V79.7696L49.3643 79.7676C49.7858 79.7276 50.5344 79.6704 51.2881 79.6124C52.0372 79.5546 52.7926 79.4958 53.2168 79.4541V79.4551L53.2295 79.4532C53.8385 79.374 54.4884 79.3027 55.1426 79.2305C55.7949 79.1585 56.4521 79.0856 57.0684 79.004L57.0771 79.003L57.0859 79.001C57.4841 78.9315 58.2293 78.8251 58.9863 78.7159C59.735 78.6078 60.4968 78.496 60.9092 78.4209C62.8906 78.0692 65.2673 77.6207 67.2461 77.167L67.2451 77.1661C68.9034 76.8103 70.6316 76.3564 72.2588 75.9424L72.2676 75.9405L72.2764 75.9375C72.921 75.7441 75.3035 75.0964 75.9951 74.878L75.998 74.877C76.8668 74.5947 78.1775 74.1928 79.0625 73.9073C79.4982 73.7746 80.073 73.5733 80.626 73.376C81.1879 73.1755 81.7269 72.98 82.1025 72.8565L82.1113 72.8536C86.9459 71.1424 91.7076 69.063 96.2773 66.7608C97.3816 66.2151 98.6059 65.5201 99.6641 64.9678L99.6719 64.9629C100.645 64.4274 101.695 63.8001 102.615 63.2696L106.3 69.7666C97.031 74.6507 87.0871 78.3342 76.9141 80.8145C76.5421 80.8921 73.9742 81.4982 73.623 81.5733L73.6191 81.5743C72.6707 81.786 71.6393 81.9742 70.6328 82.17L69.6387 82.3692C66.6064 82.9047 63.3446 83.4112 60.2979 83.7178L60.293 83.7188C58.6814 83.9001 56.5052 84.0801 54.918 84.169L54.9053 84.17C54.0985 84.2392 53.0254 84.2824 52.2236 84.3038H52.2227L49.5146 84.3858C48.5864 84.3891 46.3664 84.3668 45.4688 84.3643H45.4697C38.1431 84.2012 29.5375 83.134 21.7725 80.4122C14.247 77.7743 7.55183 73.5971 3.5459 67.2256L3.16699 66.6026C-1.19106 59.0327 0.0104247 50.5904 4.21484 43.1622C7.51478 37.4026 12.1491 32.4545 17.4014 28.209Z" fill="var(--fill-0, #121212)" stroke="var(--stroke-0, #121212)" stroke-width="0.850126"/>
</g>
</svg>
