<svg preserveAspectRatio="none" width="100%" height="100%" overflow="visible" style="display: block;" viewBox="0 0 106.887 66.2965" fill="none" xmlns="http://www.w3.org/2000/svg">
<path id="Vector" d="M14.9238 11.9014C9.43526 17.283 4.89837 23.5572 2.87402 30.5068V30.5078C1.04931 36.8639 1.87553 43.2609 6.0293 48.5674V48.5684L6.49316 49.125C11.3061 54.7478 18.4302 57.993 26.0332 59.7412C33.8865 61.547 42.3059 61.7688 49.3555 61.334H49.3643L49.3721 61.333C49.7928 61.2931 50.5408 61.2359 51.2949 61.1777C52.0435 61.12 52.7994 61.0613 53.2246 61.0195L53.2402 61.0176C53.8483 60.9385 54.497 60.8671 55.1514 60.7949C55.8036 60.723 56.4617 60.6502 57.0791 60.5684L57.0898 60.5674L57.0996 60.5654C57.4963 60.4962 58.2402 60.3896 58.998 60.2803C59.746 60.1723 60.5096 60.0607 60.9238 59.9854C62.9032 59.634 65.2777 59.185 67.2568 58.7314L67.2578 58.7324C68.9193 58.3761 70.6507 57.9199 72.2783 57.5059L72.2998 57.5C72.9371 57.3087 75.3298 56.6582 76.0195 56.4404L76.0234 56.4385C76.893 56.1559 78.1889 55.7588 79.0791 55.4717L79.0801 55.4727C79.5187 55.3393 80.0979 55.1347 80.6533 54.9365C81.2162 54.7357 81.7536 54.541 82.1279 54.418L82.1387 54.4141C86.9768 52.7016 91.7421 50.6219 96.3145 48.3184L96.3135 48.3174C96.8651 48.0447 97.4488 47.7353 98.0254 47.4238L99.7012 46.5234L99.7109 46.5186C100.658 45.9971 101.684 45.3861 102.585 44.8652L106.188 51.2178C96.9468 56.0793 87.0326 59.7484 76.8926 62.2207C76.5023 62.3028 73.9499 62.905 73.6064 62.9785L73.6016 62.9795C72.3387 63.2614 70.9381 63.5 69.6309 63.7725C66.5978 64.3082 63.3361 64.8156 60.29 65.1221H60.2842C58.6741 65.3032 56.4989 65.4834 54.9131 65.5723L54.9053 65.5732L54.8984 65.5742C54.0941 65.6432 53.023 65.6857 52.2217 65.707H52.2197L49.5127 65.7891C48.5841 65.7924 46.3707 65.7701 45.4707 65.7676H45.4717C38.1505 65.6046 29.5535 64.5376 21.7988 61.8193C14.0422 59.1004 7.17929 54.7486 3.23828 48.0498H3.23926C-1.10269 40.5108 0.0905161 32.0979 4.28711 24.6846L4.28613 24.6836C7.03948 19.8789 10.7255 15.6402 14.9238 11.9014Z" fill="var(--fill-0, white)" stroke="var(--stroke-0, #121212)" stroke-width="1.01241"/>
</svg>
