<svg preserveAspectRatio="none" width="100%" height="100%" overflow="visible" style="display: block;" viewBox="0 0 106.918 66.3132" fill="none" xmlns="http://www.w3.org/2000/svg">
<g id="Vector">
<mask id="path-1-inside-1_0_29" fill="white">
<path d="M105.348 36.9397C100.495 49.9702 87.3713 59.9265 75.4818 66.3132C86.9568 59.4179 100.135 48.4373 103.723 35.0518C105.29 28.9856 104.39 23.0361 100.494 18.0478C91.0696 6.3596 71.6262 4.60155 57.5833 5.46866C56.734 5.54966 54.5651 5.69973 53.7313 5.78192C52.5033 5.94153 51.1145 6.06897 49.8912 6.23096C49.0837 6.3727 46.8706 6.66452 46.069 6.81102C44.8612 7.03971 43.4724 7.27793 42.2682 7.51615C41.5167 7.69243 39.25 8.15576 38.4925 8.34276C37.8886 8.4988 36.6022 8.81205 35.9924 8.96809C34.7941 9.24442 32.8324 9.83997 31.6473 10.1639C30.5062 10.4927 29.0983 10.9679 27.9632 11.3157C22.913 12.9868 17.8807 15.0081 13.096 17.3093C11.9002 17.8953 9.73002 18.9709 8.54727 19.6355L7.42288 20.237C7.23469 20.3347 7.05007 20.4407 6.86783 20.5479L6.31755 20.8671L4.11641 22.1416L0 14.8902C9.61448 9.7816 19.9555 5.94391 30.5419 3.43666C31.1256 3.29492 33.3315 2.79109 33.8484 2.68866C34.7953 2.50404 36.2199 2.21579 37.1728 2.02998C40.2148 1.49161 43.4939 0.981824 46.5609 0.67214C48.182 0.489903 50.3653 0.308857 51.9625 0.218334C52.7832 0.14806 53.8647 0.105181 54.6699 0.0837413L57.3796 0.000364847C58.3063 -0.00320843 60.5586 0.0206134 61.4472 0.0218045C76.1619 0.346972 96.0758 4.30735 104.122 18.0013C107.53 23.9079 107.677 30.6174 105.348 36.9385"/>
</mask>
<path d="M105.348 36.9397C100.495 49.9702 87.3713 59.9265 75.4818 66.3132C86.9568 59.4179 100.135 48.4373 103.723 35.0518C105.29 28.9856 104.39 23.0361 100.494 18.0478C91.0696 6.3596 71.6262 4.60155 57.5833 5.46866C56.734 5.54966 54.5651 5.69973 53.7313 5.78192C52.5033 5.94153 51.1145 6.06897 49.8912 6.23096C49.0837 6.3727 46.8706 6.66452 46.069 6.81102C44.8612 7.03971 43.4724 7.27793 42.2682 7.51615C41.5167 7.69243 39.25 8.15576 38.4925 8.34276C37.8886 8.4988 36.6022 8.81205 35.9924 8.96809C34.7941 9.24442 32.8324 9.83997 31.6473 10.1639C30.5062 10.4927 29.0983 10.9679 27.9632 11.3157C22.913 12.9868 17.8807 15.0081 13.096 17.3093C11.9002 17.8953 9.73002 18.9709 8.54727 19.6355L7.42288 20.237C7.23469 20.3347 7.05007 20.4407 6.86783 20.5479L6.31755 20.8671L4.11641 22.1416L0 14.8902C9.61448 9.7816 19.9555 5.94391 30.5419 3.43666C31.1256 3.29492 33.3315 2.79109 33.8484 2.68866C34.7953 2.50404 36.2199 2.21579 37.1728 2.02998C40.2148 1.49161 43.4939 0.981824 46.5609 0.67214C48.182 0.489903 50.3653 0.308857 51.9625 0.218334C52.7832 0.14806 53.8647 0.105181 54.6699 0.0837413L57.3796 0.000364847C58.3063 -0.00320843 60.5586 0.0206134 61.4472 0.0218045C76.1619 0.346972 96.0758 4.30735 104.122 18.0013C107.53 23.9079 107.677 30.6174 105.348 36.9385" fill="var(--fill-0, white)"/>
<path d="M75.4818 66.3132L74.9604 65.4454L75.9609 67.205L75.4818 66.3132ZM103.723 35.0518L104.7 35.3139L104.703 35.3051L103.723 35.0518ZM100.494 18.0478L101.291 17.4246L101.287 17.4184L101.282 17.4123L100.494 18.0478ZM57.5833 5.46866L57.5209 4.45818L57.504 4.45922L57.4872 4.46083L57.5833 5.46866ZM53.7313 5.78192L53.632 4.7744L53.6164 4.77594L53.6008 4.77796L53.7313 5.78192ZM49.8912 6.23096L49.7583 5.22732L49.7372 5.23011L49.7162 5.2338L49.8912 6.23096ZM46.069 6.81102L45.887 5.81509L45.8807 5.81629L46.069 6.81102ZM42.2682 7.51615L42.0718 6.52299L42.0543 6.52643L42.0371 6.53049L42.2682 7.51615ZM38.4925 8.34276L38.2498 7.35981L38.2392 7.36255L38.4925 8.34276ZM35.9924 8.96809L36.2199 9.9546L36.2316 9.95189L36.2433 9.9489L35.9924 8.96809ZM31.6473 10.1639L31.3803 9.18728L31.367 9.1911L31.6473 10.1639ZM27.9632 11.3157L27.6666 10.3477L27.6559 10.351L27.6452 10.3546L27.9632 11.3157ZM13.096 17.3093L12.6572 16.3969L12.6505 16.4002L13.096 17.3093ZM8.54727 19.6355L9.02482 20.5282L9.03408 20.5232L9.04323 20.5181L8.54727 19.6355ZM7.42288 20.237L7.88928 21.1357L7.90043 21.1297L7.42288 20.237ZM6.86783 20.5479L7.37584 21.4236L7.38114 21.4205L6.86783 20.5479ZM6.31755 20.8671L6.82484 21.7432L6.82555 21.7428L6.31755 20.8671ZM4.11641 22.1416L3.23597 22.6414L3.74005 23.5293L4.6237 23.0177L4.11641 22.1416ZM0 14.8902L-0.475041 13.9962L-1.39438 14.4846L-0.880436 15.39L0 14.8902ZM30.5419 3.43666L30.7753 4.42183L30.7809 4.42047L30.5419 3.43666ZM33.8484 2.68866L33.6547 1.69496L33.6516 1.69556L33.8484 2.68866ZM37.1728 2.02998L36.9963 1.03307L36.9876 1.03461L36.979 1.03629L37.1728 2.02998ZM46.5609 0.67214L46.6626 1.67949L46.674 1.67821L46.5609 0.67214ZM51.9625 0.218334L52.0198 1.22912L52.0344 1.22829L52.0489 1.22705L51.9625 0.218334ZM54.6699 0.0837413L54.6968 1.0958L54.701 1.09567L54.6699 0.0837413ZM57.3796 0.000364847L57.3757 -1.01203L57.3621 -1.01198L57.3485 -1.01156L57.3796 0.000364847ZM61.4472 0.0218045L61.4695 -0.990355L61.459 -0.990587L61.4485 -0.990601L61.4472 0.0218045ZM104.122 18.0013L104.998 17.4952L104.994 17.4885L104.122 18.0013ZM105.348 36.9397L104.4 36.5863C99.68 49.257 86.8396 59.0629 75.0027 65.4213L75.4818 66.3132L75.9609 67.205C87.903 60.7901 101.309 50.6834 106.297 37.2931L105.348 36.9397ZM75.4818 66.3132L76.0033 67.1809C81.7916 63.7028 88.0292 59.1831 93.2828 53.8251C98.5317 48.472 102.846 42.2332 104.7 35.3139L103.723 35.0518L102.745 34.7897C101.012 41.2559 96.943 47.2001 91.8371 52.4075C86.736 57.61 80.647 62.0283 74.9604 65.4454L75.4818 66.3132ZM103.723 35.0518L104.703 35.3051C106.338 28.9748 105.406 22.6921 101.291 17.4246L100.494 18.0478L99.6956 18.671C103.374 23.38 104.242 28.9963 102.742 34.7985L103.723 35.0518ZM100.494 18.0478L101.282 17.4123C96.3713 11.3222 88.9065 7.88189 80.9974 6.06332C73.078 4.24239 64.6024 4.02092 57.5209 4.45818L57.5833 5.46866L57.6457 6.47915C64.6072 6.04929 72.8747 6.27329 80.5437 8.03664C88.2229 9.80236 95.1918 13.0852 99.7054 18.6832L100.494 18.0478ZM57.5833 5.46866L57.4872 4.46083C57.0743 4.5002 56.3321 4.55707 55.5738 4.61542C54.8268 4.67291 54.0625 4.73196 53.632 4.7744L53.7313 5.78192L53.8306 6.78944C54.2339 6.74969 54.9709 6.69262 55.7292 6.63427C56.4761 6.57678 57.243 6.51811 57.6794 6.4765L57.5833 5.46866ZM53.7313 5.78192L53.6008 4.77796C52.9985 4.85624 52.3548 4.92689 51.6985 4.99924C51.0467 5.0711 50.3827 5.14463 49.7583 5.22732L49.8912 6.23096L50.0241 7.23461C50.623 7.1553 51.265 7.08411 51.9204 7.01186C52.5714 6.94009 53.2361 6.86721 53.8618 6.78588L53.7313 5.78192ZM49.8912 6.23096L49.7162 5.2338C49.3318 5.30126 48.5976 5.40676 47.8331 5.5172C47.0885 5.62477 46.3112 5.73758 45.887 5.81511L46.069 6.81102L46.251 7.80693C46.6284 7.73796 47.3584 7.63161 48.1226 7.52121C48.867 7.41368 49.6431 7.3024 50.0662 7.22813L49.8912 6.23096ZM46.069 6.81102L45.8807 5.81629C44.7064 6.03863 43.2727 6.28542 42.0718 6.52299L42.2682 7.51615L42.4647 8.50931C43.6722 8.27044 45.0161 8.04079 46.2574 7.80575L46.069 6.81102ZM42.2682 7.51615L42.0371 6.53049C41.6742 6.6156 40.9347 6.77235 40.1712 6.93534C39.4238 7.09491 38.6482 7.26154 38.2498 7.35986L38.4925 8.34276L38.7351 9.32567C39.0943 9.23699 39.8308 9.07845 40.594 8.91553C41.3411 8.75604 42.1107 8.59298 42.4994 8.50181L42.2682 7.51615ZM38.4925 8.34276L38.2392 7.36255C37.6058 7.52622 36.4036 7.81786 35.7414 7.98728L35.9924 8.96809L36.2433 9.9489C36.8009 9.80625 38.1714 9.47137 38.7457 9.32298L38.4925 8.34276ZM35.9924 8.96809L35.7649 7.98157C34.5434 8.26326 32.5103 8.87846 31.3803 9.18737L31.6473 10.1639L31.9142 11.1405C33.1545 10.8015 35.0449 10.2256 36.2199 9.9546L35.9924 8.96809ZM31.6473 10.1639L31.367 9.1911C30.2261 9.51981 28.7491 10.0161 27.6666 10.3477L27.9632 11.3157L28.2598 12.2837C29.4476 11.9198 30.7864 11.4656 31.9276 11.1368L31.6473 10.1639ZM27.9632 11.3157L27.6452 10.3546C22.5551 12.0389 17.4823 14.0763 12.6572 16.3969L13.096 17.3093L13.5349 18.2217C18.279 15.9399 23.271 13.9348 28.2813 12.2769L27.9632 11.3157ZM13.096 17.3093L12.6505 16.4002C11.4609 16.9832 9.26365 18.0716 8.0513 18.7529L8.54727 19.6355L9.04323 20.5181C10.1964 19.8701 12.3395 18.8075 13.5415 18.2184L13.096 17.3093ZM8.54727 19.6355L8.06971 18.7428L6.94532 19.3443L7.42288 20.237L7.90043 21.1297L9.02482 20.5282L8.54727 19.6355ZM7.42288 20.237L6.95652 19.3384C6.7443 19.4485 6.54145 19.5653 6.35452 19.6752L6.86783 20.5479L7.38114 21.4205C7.55869 21.3161 7.72507 21.2208 7.88924 21.1356L7.42288 20.237ZM6.86783 20.5479L6.35983 19.6721L5.80955 19.9914L6.31755 20.8671L6.82555 21.7428L7.37583 21.4236L6.86783 20.5479ZM6.31755 20.8671L5.81026 19.9909L3.60912 21.2654L4.11641 22.1416L4.6237 23.0177L6.82484 21.7432L6.31755 20.8671ZM4.11641 22.1416L4.99684 21.6418L0.880436 14.3904L0 14.8902L-0.880436 15.39L3.23597 22.6414L4.11641 22.1416ZM0 14.8902L0.475041 15.7842C10.0101 10.7178 20.2696 6.90995 30.7753 4.42182L30.5419 3.43666L30.3086 2.45151C19.6415 4.97787 9.21885 8.84538 -0.475041 13.9962L0 14.8902ZM30.5419 3.43666L30.7809 4.42047C31.3601 4.27979 33.5496 3.77997 34.0452 3.68175L33.8484 2.68866L33.6516 1.69556C33.1134 1.80221 30.891 2.31005 30.303 2.45285L30.5419 3.43666ZM33.8484 2.68866L34.0422 3.68235C34.5182 3.58954 35.1134 3.47085 35.7063 3.35263C36.3006 3.23413 36.8926 3.11608 37.3665 3.02367L37.1728 2.02998L36.979 1.03629C36.5 1.1297 35.9033 1.24868 35.3104 1.36691C34.7161 1.48541 34.1256 1.60315 33.6547 1.69496L33.8484 2.68866ZM37.1728 2.02998L37.3492 3.0269C40.379 2.49068 43.6307 1.98556 46.6626 1.67943L46.5609 0.67214L46.4592 -0.335145C43.357 -0.0219138 40.0506 0.492537 36.9963 1.03307L37.1728 2.02998ZM46.5609 0.67214L46.674 1.67821C48.2755 1.49817 50.4401 1.31865 52.0198 1.22912L51.9625 0.218334L51.9052 -0.792451C50.2904 -0.700931 48.0885 -0.518368 46.4478 -0.33393L46.5609 0.67214ZM51.9625 0.218334L52.0489 1.22705C52.8393 1.15936 53.8971 1.11708 54.6968 1.09579L54.6699 0.0837413L54.6429 -0.928307C53.8323 -0.906722 52.727 -0.863244 51.8761 -0.790381L51.9625 0.218334ZM54.6699 0.0837413L54.701 1.09567L57.4107 1.01229L57.3796 0.000364847L57.3485 -1.01156L54.6387 -0.928187L54.6699 0.0837413ZM57.3796 0.000364847L57.3835 1.01276C58.3155 1.00917 60.5292 1.03298 61.4458 1.03421L61.4472 0.0218045L61.4485 -0.990601C60.588 -0.991755 58.2971 -1.01559 57.3757 -1.01203L57.3796 0.000364847ZM61.4472 0.0218045L61.4248 1.03396C68.7133 1.19503 77.2576 2.25704 84.9503 4.95367C92.65 7.65275 99.3925 11.951 103.249 18.5142L104.122 18.0013L104.994 17.4885C100.805 10.3576 93.5675 5.82875 85.6201 3.04285C77.6658 0.254512 68.8958 -0.82625 61.4695 -0.990355L61.4472 0.0218045ZM104.122 18.0013L103.245 18.5074C106.481 24.1141 106.64 30.5035 104.398 36.5885L105.348 36.9385L106.298 37.2884C108.714 30.7312 108.58 23.7018 104.998 17.4953L104.122 18.0013Z" fill="var(--stroke-0, #121212)" mask="url(#path-1-inside-1_0_29)"/>
</g>
</svg>
