<svg preserveAspectRatio="none" width="100%" height="100%" overflow="visible" style="display: block;" viewBox="0 0 102.461 23.2394" fill="none" xmlns="http://www.w3.org/2000/svg">
<g id="Group">
<path id="Vector" d="M7.59678 22.8789H1.56033L7.15488 5.44249H0L1.56033 0.331523H21.4944L19.9341 5.44249H13.1616L7.59678 22.8789Z" fill="var(--fill-0, white)"/>
<path id="Vector_2" d="M30.0587 22.8789H15.7489L22.9336 0.331523H37.1849L35.8307 4.63017H27.5574L26.0554 9.47076H34.0643L32.71 13.7099H24.6714L23.1694 18.5802H31.3843L30.0598 22.8789H30.0587Z" fill="var(--fill-0, white)"/>
<path id="Vector_3" d="M36.5369 22.8789H31.738L38.9524 0.331523H46.9613L46.6957 12.4771L54.4986 0.331523H63.2733L56.0887 22.8789H50.082L54.9404 7.45663L44.9591 22.8789H41.3966L41.5442 7.39708L36.5381 22.8789H36.5369Z" fill="var(--fill-0, white)"/>
<path id="Vector_4" d="M70.0275 4.51106L67.7013 11.7862H68.3492C69.8214 11.7862 71.0482 11.4361 72.0297 10.7345C73.0111 10.0127 73.6496 8.99075 73.9438 7.66864C74.1987 6.52639 74.0617 5.71406 73.5317 5.23405C73.0016 4.75285 72.1178 4.51225 70.8815 4.51225H70.0275V4.51106ZM64.1983 22.8789H58.1618L65.3465 0.331523H72.6776C74.3654 0.331523 75.8185 0.612622 77.0358 1.17363C78.2722 1.71438 79.175 2.49693 79.7444 3.51888C80.3328 4.52059 80.5293 5.69382 80.3328 7.03617C80.0779 8.80018 79.4097 10.3534 78.3306 11.6957C77.2514 13.0381 75.8471 14.0803 74.12 14.8223C72.412 15.5441 70.4979 15.905 68.379 15.905H66.4065L64.1983 22.8801V22.8789Z" fill="var(--fill-0, white)"/>
<path id="Vector_5" d="M94.7214 21.4361C92.7192 22.6391 90.5895 23.2394 88.3324 23.2394H88.274C86.2718 23.2394 84.584 22.7879 83.2095 21.8863C81.8552 20.9644 80.8833 19.7221 80.2949 18.1582C79.7256 16.5955 79.5886 14.8815 79.8828 13.0174C80.2556 10.6722 81.1096 8.50796 82.4448 6.52361C83.78 4.53925 85.4488 2.95629 87.451 1.77354C89.4532 0.590783 91.5924 0 93.8698 0H93.9281C96.009 0 97.7265 0.451425 99.0808 1.35308C100.455 2.25474 101.407 3.48751 101.937 5.05022C102.486 6.59388 102.604 8.32692 102.291 10.2505C101.918 12.5148 101.064 14.6492 99.7287 16.6538C98.3935 18.6382 96.726 20.2319 94.7226 21.4337L94.7214 21.4361ZM86.3885 17.5579C86.9186 18.5798 87.8417 19.0908 89.1566 19.0908H89.215C90.2941 19.0908 91.2958 18.6799 92.2177 17.858C93.1599 17.0159 93.9555 15.8939 94.6023 14.4908C95.2693 13.0877 95.76 11.525 96.0745 9.80149C96.3687 8.11848 96.2508 6.7654 95.7207 5.74344C95.1907 4.70124 94.2783 4.18073 92.9824 4.18073H92.924C91.9235 4.18073 90.9516 4.60119 90.0094 5.44329C89.0864 6.28539 88.2824 7.41692 87.5951 8.84028C86.9078 10.2636 86.4076 11.8061 86.0931 13.47C85.7787 15.1531 85.8776 16.5169 86.3873 17.5591L86.3885 17.5579Z" fill="var(--fill-0, white)"/>
</g>
</svg>
