<svg width="49" height="69" viewBox="0 0 49 69" fill="none" xmlns="http://www.w3.org/2000/svg">
<g clip-path="url(#clip0_856_1568)">
<path d="M47.6285 47.0755C41.2002 39.484 30.3268 26.0844 23.9198 18.4756C23.3936 17.8469 22.9561 17.8118 22.3277 18.349C21.0787 19.4683 19.8335 20.5545 18.5363 21.6581C17.4395 22.6099 17.4318 22.7968 18.3628 23.8907L36.7339 46.1118C37.5475 47.0675 37.5399 47.2544 36.6241 48.0583C33.0827 51.1339 29.5353 54.2072 25.9823 57.2789C25.1226 58.0303 24.7892 57.9876 24.0336 57.0843C21.4854 54.04 18.9468 50.9898 16.3852 47.9495C13.756 44.8271 11.1108 41.7128 8.4495 38.6061L4.67928 34.178C4.60038 34.086 4.49562 34.0207 4.37891 33.9905C4.26222 33.9603 4.13916 33.9669 4.02623 34.009C3.9133 34.0515 3.81585 34.1275 3.74689 34.2272C3.67793 34.3269 3.64077 34.4457 3.64035 34.5674L3.5035 44.2999C3.50223 44.4429 3.55298 44.5813 3.64614 44.689L3.8119 44.8838V44.9052C10.2961 52.4964 16.6107 60.0879 23.1122 67.6791C24.0297 68.7322 24.288 68.7575 25.3404 67.8562C32.7153 61.4976 40.104 55.1507 47.5071 48.8157C48.1605 48.2258 48.2029 47.7546 47.6285 47.0755Z" fill="#3F3FF9"/>
<path d="M24.1435 49.9366C24.6948 50.612 25.2017 50.6063 25.8224 50.0691C27.0734 48.9302 28.3995 47.8287 29.6466 46.6664C30.539 45.9289 30.5584 45.5959 29.7988 44.6986L11.5664 23.1704C10.8185 22.2614 10.8359 21.8819 11.7264 21.1091C15.1959 18.0985 18.6706 15.0893 22.1504 12.0813C23.1817 11.2014 23.4477 11.2287 24.3073 12.2526L37.0599 27.4352C37.6729 28.1671 38.2863 28.8977 38.9008 29.6271C38.9228 29.6983 38.9589 29.7646 39.0067 29.8216L43.3707 34.9271C43.4492 35.0194 43.554 35.0852 43.6706 35.1157C43.7872 35.1459 43.9103 35.1396 44.0233 35.0972C44.1362 35.0547 44.2337 34.9784 44.3023 34.8784C44.3712 34.7784 44.4079 34.6596 44.4076 34.538L44.5446 24.8055C44.5449 24.6626 44.4943 24.5244 44.4017 24.4162L43.6308 23.5014C43.6141 23.483 43.596 23.4661 43.5768 23.4507C37.2776 16.021 31.42 8.88708 25.0572 1.45536C24.2264 0.482116 24.1956 0.519098 23.2626 1.31327C15.8712 7.64328 8.48238 13.9759 1.09609 20.3111C0.132324 21.15 0.0918457 21.3699 0.903333 22.3296C5.32765 27.6085 9.75451 32.8836 14.184 38.1546C16.0787 40.4164 22.214 47.6555 24.1435 49.9366Z" fill="#3F3FF9"/>
</g>
<defs>
<clipPath id="clip0_856_1568">
<rect width="48.006" height="68.0813" fill="white" transform="translate(0.234131 0.706451)"/>
</clipPath>
</defs>
</svg>
