<svg width="116" height="116" viewBox="0 0 116 116" fill="none" xmlns="http://www.w3.org/2000/svg">
<g filter="url(#filter0_d_1376_875)">
<path d="M93.1287 17.5527L22.7155 17.5527C20.3486 17.5527 18.4297 19.472 18.4297 21.8395V92.2661C18.4297 94.6336 20.3486 96.5527 22.7155 96.5527L93.1287 96.5527C95.4959 96.5527 97.4146 94.6336 97.4146 92.2661V21.8395C97.4146 19.472 95.4959 17.5527 93.1287 17.5527Z" fill="url(#paint0_radial_1376_875)"/>
<path d="M93.1287 17.5527L22.7155 17.5527C20.3486 17.5527 18.4297 19.472 18.4297 21.8395V92.2661C18.4297 94.6336 20.3486 96.5527 22.7155 96.5527L93.1287 96.5527C95.4959 96.5527 97.4146 94.6336 97.4146 92.2661V21.8395C97.4146 19.472 95.4959 17.5527 93.1287 17.5527Z" fill="white" fill-opacity="0.02"/>
<path d="M87.6174 24.291L28.8377 24.291C26.8091 24.291 25.1641 25.9361 25.1641 27.9653V86.7562C25.1641 88.7857 26.8091 90.4305 28.8377 90.4305H87.6174C89.6464 90.4305 91.2911 88.7857 91.2911 86.7562V27.9653C91.2911 25.9361 89.6464 24.291 87.6174 24.291Z" fill="url(#paint1_radial_1376_875)"/>
<path d="M87.6174 24.291L28.8377 24.291C26.8091 24.291 25.1641 25.9361 25.1641 27.9653V86.7562C25.1641 88.7857 26.8091 90.4305 28.8377 90.4305H87.6174C89.6464 90.4305 91.2911 88.7857 91.2911 86.7562V27.9653C91.2911 25.9361 89.6464 24.291 87.6174 24.291Z" fill="white" fill-opacity="0.07"/>
<path d="M46.2402 39.7578C44.8586 39.7578 43.5576 39.864 42.4184 40.0509C41.3594 40.2247 40.6514 41.1817 40.6514 42.2548C40.6514 43.3277 41.3592 44.2845 42.4178 44.4583C43.5571 44.6452 44.8584 44.7512 46.2402 44.7512C47.9605 44.7512 49.5563 44.5869 50.8696 44.3062C51.8192 44.1035 52.4269 43.2255 52.4269 42.2546C52.4269 41.2835 51.8192 40.4055 50.8696 40.2028C49.5563 39.9221 47.9605 39.7578 46.2402 39.7578Z" fill="#A52B00"/>
<path d="M54.6881 42.8198C54.684 42.7395 54.6414 42.6676 54.6065 42.5952L54.4312 42.2316C54.4141 42.1965 54.4075 42.1573 54.4075 42.1182C54.4075 41.86 54.2915 41.6107 54.0751 41.3753C53.5659 40.8209 52.7451 41.3654 52.7451 42.1182V43.2679C52.7451 43.4748 53.0018 43.593 53.1855 43.498C53.4365 43.3683 53.7043 43.624 53.5944 43.8844C53.5029 44.1012 53.4044 44.3201 53.3149 44.5079C52.9426 45.1881 52.8076 45.7796 52.825 45.809C52.8362 45.8279 52.9632 45.6317 53.1506 45.3138C53.5865 44.6929 54.4124 43.5068 54.5776 43.2045C54.6732 43.0289 54.6923 42.9019 54.6881 42.8198Z" fill="#A52B00"/>
<path d="M38.2349 42.1512C38.2349 42.1773 38.2362 42.2034 38.2387 42.2293C38.254 42.3989 38.254 42.5759 38.1709 42.7245C38.1575 42.7484 38.1417 42.7714 38.1325 42.7973C38.109 42.8616 38.0881 43.0108 38.2433 43.2519C38.4324 43.5457 39.3798 44.696 39.8798 45.2985C40.0946 45.6074 40.2398 45.7976 40.2526 45.7794C40.2727 45.7505 40.1192 45.1704 39.6929 44.5087C39.6714 44.4703 39.6494 44.4306 39.627 44.39C39.4524 44.0699 39.776 43.6936 40.1161 43.825C40.3522 43.9161 40.6516 43.7541 40.6516 43.5012V42.1512C40.6516 41.2297 39.7198 40.5342 38.9664 41.0649C38.4967 41.3958 38.2349 41.7637 38.2349 42.1512Z" fill="#A52B00"/>
<path d="M45.9684 34.2399L45.5356 34.9633C45.4959 35.0296 45.4265 35.0726 45.3497 35.0794C45.2747 35.0862 45.201 35.0572 45.1505 35.001L44.5858 34.3746C44.525 34.2987 44.4274 34.2665 44.3348 34.2882C44.242 34.3099 44.1672 34.3841 44.134 34.4683L43.8446 35.2878C43.822 35.3519 43.7652 35.4001 43.7003 35.4196C43.6254 35.4422 43.5449 35.4339 43.4828 35.3867L42.8163 34.8815C42.7445 34.8334 42.6346 34.8161 42.5563 34.8499C42.4657 34.8983 42.4045 34.9716 42.3858 35.0679L42.2478 35.9194C42.2351 35.9969 42.191 36.0627 42.1232 36.1024C42.0624 36.1382 41.9841 36.1388 41.92 36.1086L41.1734 35.7562C41.0883 35.7095 40.9808 35.7187 40.9053 35.7799C40.8283 35.8271 40.7824 35.9258 40.7772 36.0213L40.8057 36.8899C40.8081 36.9636 40.7816 37.0329 40.726 37.0818C40.671 37.1305 40.592 37.1477 40.5205 37.1305L39.7205 36.9394C39.6231 36.907 39.5312 36.9423 39.4566 37.0165C39.3945 37.0761 39.3631 37.1874 39.3848 37.28L39.5788 38.1264C39.5946 38.1953 39.5788 38.2642 39.5349 38.3195C39.486 38.3811 39.4098 38.4224 39.3313 38.4193L38.5072 38.386C38.412 38.3807 38.3214 38.4292 38.2747 38.5145C38.2279 38.5999 38.2106 38.7096 38.2593 38.8002L38.5976 39.5721C38.629 39.6436 38.6193 39.7285 38.5827 39.7976C38.5483 39.8628 38.4884 39.9075 38.4157 39.9203L37.6114 40.0618C37.5041 40.0714 37.4295 40.1456 37.3962 40.2294C37.3639 40.3272 37.3731 40.4345 37.4207 40.5118L37.9611 41.2801C37.9706 41.2935 37.9675 41.3126 37.9666 41.3288C37.9662 41.3393 37.9633 41.3486 37.9561 41.356L36.5212 42.8752C36.4448 42.9561 36.3505 43.034 36.3345 43.1441C36.3198 43.2455 36.3474 43.4019 36.5153 43.6235C36.8191 44.0031 38.3874 45.531 39.2161 46.3384C39.3451 46.4883 39.459 46.6171 39.5527 46.7187C39.7227 46.9036 39.8263 46.8461 39.7363 46.6114C39.6189 46.3055 39.3837 45.8389 38.9792 45.3303C38.5592 44.7105 38.0386 43.8254 37.9188 43.421C37.8784 43.2854 37.9574 43.1591 38.066 43.0685C38.1588 42.9912 38.2946 42.8962 38.475 42.8157C38.4605 42.8036 38.4605 42.8036 38.475 42.8157C38.475 42.8157 46.0329 46.3018 53.151 43.0151C53.35 42.9232 53.5602 42.8423 53.7794 42.8405C54.157 42.8374 54.4409 42.9548 54.6072 43.0487C54.7252 43.1156 54.8233 43.2209 54.8095 43.3559C54.768 43.755 54.426 44.667 54.1385 45.3171C53.6372 46.241 53.565 46.965 53.6078 46.9883C53.6357 46.9993 53.8149 46.7261 54.074 46.284C54.714 45.402 55.9065 43.7135 56.1277 43.3017C56.2578 43.0638 56.2562 42.9107 56.2231 42.8172C56.1876 42.7172 56.0857 42.6608 56 42.5981L54.5319 41.5199C54.4885 41.4879 54.4554 41.4479 54.4411 41.396C54.4246 41.3365 54.4422 41.2707 54.4766 41.2198L54.9626 40.5065C55.0243 40.4337 55.028 40.3248 54.9929 40.2333C54.9578 40.1412 54.8852 40.08 54.7889 40.0613L53.9716 39.9198C53.8976 39.9071 53.834 39.8597 53.8024 39.7915C53.7728 39.7278 53.7706 39.6546 53.798 39.5898L54.1361 38.7921C54.1829 38.7067 54.1732 38.5988 54.1111 38.5097C54.064 38.4327 53.9786 38.386 53.8847 38.3941L53.0709 38.4187C52.9889 38.4211 52.9103 38.3831 52.8577 38.3204C52.8118 38.2657 52.7967 38.1929 52.8123 38.1231L53.002 37.28C53.0207 37.1836 52.9981 37.077 52.9384 37.0149C52.8643 36.9399 52.7664 36.9081 52.6736 36.9298L51.8873 37.1266C51.8072 37.1466 51.7242 37.1306 51.663 37.0753C51.6119 37.0292 51.584 36.9594 51.5856 36.8907L51.6062 36.0213C51.6115 35.9258 51.563 35.8352 51.4897 35.774C51.4035 35.7139 51.308 35.7086 51.2176 35.7573L50.4778 36.1066C50.4113 36.138 50.3346 36.1373 50.2709 36.1007C50.202 36.0607 50.152 35.9925 50.1397 35.914L50.0079 35.078C49.9982 34.9705 49.924 34.8959 49.8396 34.8624C49.7544 34.8159 49.6469 34.8251 49.571 34.8861L48.8979 35.3872C48.8417 35.4291 48.7737 35.4427 48.7066 35.4234C48.6351 35.403 48.5717 35.3492 48.5469 35.2792L48.2623 34.4725C48.2276 34.3808 48.1535 34.306 48.0567 34.2873C47.9604 34.2689 47.8689 34.3038 47.7943 34.3781L47.2318 35.0096C47.1826 35.0649 47.1144 35.0927 47.0413 35.0802C46.9687 35.0679 46.8976 35.026 46.8599 34.9626L46.4283 34.2404C46.3798 34.15 46.2945 34.1032 46.1997 34.098C46.1043 34.0927 46.0147 34.1546 45.9684 34.2399Z" fill="url(#paint2_linear_1376_875)"/>
<path d="M43.5826 45.0013C43.5942 45.0013 43.5885 44.9772 43.5801 44.9695C43.5722 44.9623 43.5874 44.9597 43.5979 44.9588L44.9648 44.8467C45.4635 44.8059 45.7138 44.2271 45.3237 43.9135C43.8059 42.6928 42.6233 43.9111 42.2828 44.3306C42.2264 44.4 42.1992 44.4875 42.1992 44.577V44.6194C42.1992 44.8302 42.3701 45.0013 42.5812 45.0013H43.5826Z" fill="black"/>
<path d="M48.9488 44.9701C48.9374 44.9701 48.9429 44.9464 48.9515 44.9388C48.9594 44.9315 48.944 44.9284 48.9335 44.9278L47.5944 44.8297C47.1238 44.7951 46.8794 44.2538 47.2313 43.9392C48.7685 42.5646 49.919 43.8617 50.2512 44.2977C50.3054 44.3688 50.3324 44.4561 50.3324 44.5456V44.5849C50.3324 44.7977 50.1599 44.9701 49.9471 44.9701H48.9488Z" fill="black"/>
<path d="M53.1229 42.25C52.9483 42.25 52.7927 42.368 52.7173 42.5254C52.5295 42.9168 52.047 43.6755 50.8965 44.4682C50.8447 44.5039 50.7857 44.5296 50.7244 44.5443C50.4945 44.5989 50.256 44.4927 50.1095 44.3071C49.7494 43.8499 48.9784 43.1338 47.9477 43.6373C47.522 43.8453 47.4883 44.8236 47.9593 44.8736C48.2601 44.9054 48.9045 45.3429 48.6805 45.5463C48.564 45.6521 48.4225 45.7653 48.2559 45.8721C47.6552 46.2578 47.4468 47.063 48.1592 47.0189C48.7549 46.9821 49.4929 46.6832 50.34 45.8339C50.5658 45.6077 50.8304 45.4186 51.1137 45.2705C51.8107 44.9061 53.1256 44.0522 53.4709 42.6629C53.5251 42.4448 53.3476 42.25 53.1229 42.25Z" fill="url(#paint3_linear_1376_875)"/>
<path d="M47.56 41.0264C47.6267 40.8919 47.719 40.7706 47.8401 40.6817C48.0751 40.5097 48.524 40.2892 49.0014 40.6299C49.1627 40.7451 49.2733 40.9167 49.3431 41.1021C49.4754 41.4534 49.6276 42.0657 49.2875 42.4631C49.2472 42.5102 49.1993 42.5495 49.1482 42.5842C48.9336 42.7301 48.3024 43.0956 47.8391 42.7158C47.7096 42.6096 47.6032 42.4742 47.5216 42.3281C47.3877 42.0883 47.2541 41.6418 47.56 41.0264Z" fill="black"/>
<path d="M43.8724 41.2405C44.0361 40.798 44.4378 40.4483 44.9091 40.4676C45.2829 40.4827 45.7029 40.6576 45.8902 41.2936C45.8962 41.3138 45.9014 41.3342 45.9056 41.3548C45.946 41.5521 46.125 42.6631 45.105 42.904C44.91 42.9501 44.7035 42.9317 44.5188 42.8533C44.1234 42.6853 43.4992 42.25 43.8724 41.2405Z" fill="black"/>
<path d="M45.1188 41.4262C45.1188 41.9335 44.8448 42.3449 44.5067 42.3449C44.1686 42.3449 43.8945 41.9335 43.8945 41.4262C43.8945 40.9192 44.1686 40.5078 44.5067 40.5078C44.8448 40.5078 45.1188 40.9192 45.1188 41.4262Z" fill="white"/>
<path d="M48.735 41.468C48.6992 41.9742 48.3974 42.3654 48.0597 42.3417C47.7225 42.3182 47.4778 41.8884 47.5132 41.3827C47.5487 40.8765 47.8506 40.4853 48.1878 40.5088C48.5255 40.5325 48.7701 40.9621 48.735 41.468Z" fill="white"/>
<path d="M41.6348 45.4385C41.9718 45.6349 42.3399 45.8402 42.6023 46.1287C43.7612 47.4017 44.5936 47.3506 45.1169 47.0292C45.5478 46.7641 45.2681 46.204 44.7972 46.019C44.7246 45.9907 44.6546 45.9609 44.5868 45.9302C44.0978 45.7088 44.8771 45.0482 45.4129 45.0124C45.9311 44.978 45.5888 44.3972 45.1733 44.0852C44.2977 43.4277 43.5309 43.5698 42.9782 43.8827C42.3454 44.2412 41.5957 44.4703 41.1712 43.8799C41.0867 43.7625 41.006 43.6403 40.9298 43.5181C40.8649 43.4136 40.7651 43.3351 40.6472 43.3004C40.2251 43.176 39.8813 43.6267 40.1426 43.9808C40.7534 44.8077 41.271 45.2266 41.6348 45.4385Z" fill="url(#paint4_linear_1376_875)"/>
<path opacity="0.5" d="M38.0919 81.8558L39.5739 77.875V81.8558H40.1736V77.0195H39.3181L37.8431 80.9936L36.3746 77.0195H35.4922V81.8558H36.0986V77.875L37.5739 81.8558H38.0919ZM42.0293 81.9166C42.5069 81.9166 42.8981 81.7349 43.1133 81.4585C43.1875 81.7957 43.4971 81.9232 44.0362 81.8558V81.3707C43.8001 81.4247 43.659 81.351 43.659 81.1217V79.404C43.659 78.6495 43.1739 78.2657 42.386 78.2657C41.6651 78.2657 41.1468 78.6765 40.9783 79.2489L41.551 79.3972C41.6583 79.0064 41.9213 78.7973 42.3658 78.7973C42.8373 78.7973 43.0594 79.0268 43.0594 79.431V79.5793L42.2039 79.7542C41.4161 79.9161 40.8704 80.2055 40.8704 80.9065C40.8704 81.5394 41.3891 81.9166 42.0293 81.9166ZM43.0594 80.6568C43.0594 81.1081 42.6217 81.4247 42.1028 81.4247C41.719 81.4247 41.47 81.2228 41.47 80.8795C41.47 80.4549 41.8336 80.3066 42.3726 80.1987L43.0594 80.0508V80.6568ZM45.9177 81.93C46.4094 81.93 46.8 81.6943 47.0086 81.3442V81.8558H47.615V77.0195H47.0086V78.8447C46.8 78.5012 46.4094 78.2657 45.9177 78.2657C44.941 78.2657 44.3819 79.0942 44.3819 80.0975C44.3819 81.0947 44.941 81.93 45.9177 81.93ZM47.022 79.9766V80.2257C47.022 81.0339 46.5235 81.3977 46.0253 81.3977C45.3653 81.3977 44.9949 80.8525 44.9949 80.0975C44.9949 79.3364 45.3653 78.7973 46.0253 78.7973C46.5235 78.7973 47.022 79.155 47.022 79.9766ZM49.9572 81.93C50.6577 81.93 51.1896 81.546 51.4052 80.9198L50.8732 80.7309C50.7652 81.1487 50.4287 81.4045 49.9572 81.4045C49.3444 81.4045 48.9201 80.9334 48.8865 80.1921H51.4322V79.9902C51.4322 79.0132 50.9135 78.2657 49.9302 78.2657C48.9736 78.2657 48.307 79.047 48.307 80.0975C48.307 81.1825 48.9804 81.93 49.9572 81.93ZM49.9234 78.784C50.5364 78.784 50.8056 79.2285 50.8192 79.7272H48.9201C49.0276 79.128 49.4113 78.784 49.9234 78.784ZM53.4459 77.7199H54.1056V77.0195H53.4459V77.7199ZM54.0786 78.3327H53.4729V81.8558H54.0786V78.3327ZM55.0232 81.8558H55.6296V79.7542C55.6296 79.1684 56.0741 78.8311 56.5118 78.8311C57.0373 78.8311 57.2457 79.2017 57.2457 79.6934V81.8558H57.8521V79.5321C57.8521 78.784 57.4278 78.2657 56.6803 78.2657C56.1818 78.2657 55.8319 78.5213 55.6296 78.8109V78.3327H55.0232V81.8558ZM60.9258 79.9834H61.7075L62.8861 81.8558H63.8695L62.623 79.9161C63.3306 79.7474 63.7481 79.2623 63.7481 78.5012C63.7481 77.5244 63.0744 77.0195 61.9969 77.0195H60.0637V81.8558H60.9258V79.9834ZM60.9258 79.2421V77.7602H61.9497C62.5695 77.7602 62.8995 78.0229 62.8995 78.5012C62.8995 78.9729 62.5695 79.2421 61.9497 79.2421H60.9258ZM67.2408 78.3195H66.4321V80.4214C66.4321 80.9266 66.0685 81.1959 65.705 81.1959C65.2671 81.1959 65.0788 80.9198 65.0788 80.4887V78.3195H64.2701V80.6636C64.2701 81.4247 64.7282 81.93 65.4694 81.93C65.9275 81.93 66.2302 81.7147 66.4321 81.4787V81.8558H67.2408V78.3195ZM67.6544 81.1825C67.9714 81.6676 68.6244 81.93 69.278 81.93C70.0794 81.93 70.7324 81.4719 70.7324 80.7579C70.7324 79.9497 69.9783 79.8215 69.3787 79.6934C68.9342 79.5995 68.6783 79.5523 68.6783 79.296C68.6783 79.0604 68.8942 78.9121 69.224 78.9121C69.6147 78.9121 69.9513 79.0942 70.1536 79.4106L70.6988 78.9189C70.443 78.5281 69.8905 78.2521 69.2712 78.2521C68.4563 78.2521 67.8905 78.7238 67.8905 79.3702C67.8905 80.1245 68.53 80.2662 69.0893 80.3808C69.6483 80.4955 69.9445 80.5286 69.9445 80.8321C69.9445 81.1487 69.6281 81.27 69.2848 81.27C68.874 81.27 68.4699 81.0407 68.2608 80.6974L67.6544 81.1825ZM71.3601 80.9666C71.3601 81.6878 71.7236 81.8962 72.397 81.8962C72.6061 81.8962 72.8077 81.876 72.956 81.849V81.1689C72.8347 81.1825 72.761 81.1891 72.6263 81.1891C72.3366 81.1891 72.1548 81.1555 72.1548 80.8389V79.0064H72.8955V78.3195H72.1548V77.2819H71.3601V78.3195H70.8682V79.0064H71.3601V80.9666Z" fill="white"/>
<path d="M37.8285 67.0095H39.8882L42.9956 71.9465H45.5876L42.3029 66.8318C44.1674 66.3878 45.2684 65.1093 45.2684 63.1024C45.2684 60.5273 43.4925 59.1953 40.6515 59.1953H35.5557V71.9465H37.8285V67.0095ZM37.8285 65.0558V61.1487H40.5273C42.161 61.1487 43.0307 61.8413 43.0307 63.1024C43.0307 64.3451 42.161 65.0558 40.5273 65.0558H37.8285ZM50.658 72.1423C52.5229 72.1423 53.9967 71.1653 54.6535 69.5314L52.8244 68.8387C52.5403 69.7977 51.7061 70.3304 50.658 70.3304C49.2914 70.3304 48.3323 69.3536 48.1724 67.7553H54.7066V67.0447C54.7066 64.4873 53.2685 62.4449 50.5696 62.4449C47.9769 62.4449 46.1304 64.5586 46.1304 67.2932C46.1304 70.1705 47.9947 72.1423 50.658 72.1423ZM50.5516 64.2387C51.9011 64.2387 52.5403 65.1271 52.558 66.157H48.279C48.5987 64.8958 49.4506 64.2387 50.5516 64.2387ZM56.3234 69.602C56.3234 71.5025 57.2822 72.053 59.0574 72.053C59.6079 72.053 60.1406 72.0001 60.5318 71.9288V70.1349C60.2119 70.1705 60.0164 70.1883 59.6614 70.1883C58.8981 70.1883 58.4183 70.0996 58.4183 69.265V64.4344H60.3718V62.6226H58.4183V59.8875H56.3234V62.6226H55.0267V64.4344H56.3234V69.602ZM61.95 71.9465H64.0806V66.4768C64.0806 65.1444 65.0574 64.4344 66.0164 64.4344C67.188 64.4344 67.6501 65.2692 67.6501 66.4233V71.9465H69.7807V65.802C69.7807 63.7946 68.6084 62.4449 66.6555 62.4449C65.4479 62.4449 64.6133 62.9956 64.0806 63.6174V59.1953H61.95V71.9465Z" fill="white"/>
<path d="M92.8156 93.9732C93.8299 93.9732 94.6524 93.1504 94.6524 92.1359C94.6524 91.1209 93.8299 90.2988 92.8156 90.2988C91.8006 90.2988 90.9785 91.1209 90.9785 92.1359C90.9785 93.1504 91.8006 93.9732 92.8156 93.9732Z" fill="#626262" stroke="#626262" stroke-width="0.219402"/>
<path d="M92.8135 91.2168V93.0541" stroke="#3D3D3D" stroke-width="0.219402" stroke-linecap="round"/>
<path d="M91.8955 92.1348H93.7326" stroke="#3D3D3D" stroke-width="0.219402" stroke-linecap="round"/>
<path d="M94.9569 92.1353C94.9569 90.9519 93.9975 89.9922 92.8142 89.9922C91.6303 89.9922 90.6709 90.9519 90.6709 92.1353C90.6709 93.3194 91.6303 94.2789 92.8142 94.2789C93.9975 94.2789 94.9569 93.3194 94.9569 92.1353Z" stroke="#434343" stroke-width="0.219402"/>
<path d="M22.9806 93.9732C23.9949 93.9732 24.8174 93.1504 24.8174 92.1359C24.8174 91.1209 23.9949 90.2988 22.9806 90.2988C21.9659 90.2988 21.1436 91.1209 21.1436 92.1359C21.1436 93.1504 21.9659 93.9732 22.9806 93.9732Z" fill="#626262" stroke="#626262" stroke-width="0.219402"/>
<path d="M22.9795 91.2168V93.0541" stroke="#3D3D3D" stroke-width="0.219402" stroke-linecap="round"/>
<path d="M22.0615 92.1348H23.8984" stroke="#3D3D3D" stroke-width="0.219402" stroke-linecap="round"/>
<path d="M25.1228 92.1353C25.1228 90.9519 24.1634 89.9922 22.9801 89.9922C21.7963 89.9922 20.8369 90.9519 20.8369 92.1353C20.8369 93.3194 21.7963 94.2789 22.9801 94.2789C24.1634 94.2789 25.1228 93.3194 25.1228 92.1353Z" stroke="#434343" stroke-width="0.219402"/>
<path d="M22.9806 23.9401C23.9949 23.9401 24.8174 23.1175 24.8174 22.1028C24.8174 21.0881 23.9949 20.2656 22.9806 20.2656C21.9659 20.2656 21.1436 21.0881 21.1436 22.1028C21.1436 23.1175 21.9659 23.9401 22.9806 23.9401Z" fill="#626262" stroke="#626262" stroke-width="0.219402"/>
<path d="M22.9805 21.1875V23.0246" stroke="#3D3D3D" stroke-width="0.219402" stroke-linecap="round"/>
<path d="M22.0615 22.1035H23.8984" stroke="#3D3D3D" stroke-width="0.219402" stroke-linecap="round"/>
<path d="M25.1228 22.1063C25.1228 20.9226 24.1634 19.9629 22.9801 19.9629C21.7963 19.9629 20.8369 20.9226 20.8369 22.1063C20.8369 23.2902 21.7963 24.2496 22.9801 24.2496C24.1634 24.2496 25.1228 23.2902 25.1228 22.1063Z" stroke="#434343" stroke-width="0.219402"/>
<path d="M92.8156 23.9401C93.8299 23.9401 94.6524 23.1175 94.6524 22.1028C94.6524 21.0881 93.8299 20.2656 92.8156 20.2656C91.8006 20.2656 90.9785 21.0881 90.9785 22.1028C90.9785 23.1175 91.8006 23.9401 92.8156 23.9401Z" fill="#626262" stroke="#626262" stroke-width="0.219402"/>
<path d="M92.8135 21.1875V23.0246" stroke="#3D3D3D" stroke-width="0.219402" stroke-linecap="round"/>
<path d="M91.8955 22.1035H93.7326" stroke="#3D3D3D" stroke-width="0.219402" stroke-linecap="round"/>
<path d="M94.9569 22.1063C94.9569 20.9226 93.9975 19.9629 92.8142 19.9629C91.6303 19.9629 90.6709 20.9226 90.6709 22.1063C90.6709 23.2902 91.6303 24.2496 92.8142 24.2496C93.9975 24.2496 94.9569 23.2902 94.9569 22.1063Z" stroke="#434343" stroke-width="0.219402"/>
</g>
<defs>
<filter id="filter0_d_1376_875" x="-0.000112534" y="0.000543892" width="115.844" height="115.86" filterUnits="userSpaceOnUse" color-interpolation-filters="sRGB">
<feFlood flood-opacity="0" result="BackgroundImageFix"/>
<feColorMatrix in="SourceAlpha" type="matrix" values="0 0 0 0 0 0 0 0 0 0 0 0 0 0 0 0 0 0 127 0" result="hardAlpha"/>
<feOffset dy="0.87761"/>
<feGaussianBlur stdDeviation="9.2149"/>
<feComposite in2="hardAlpha" operator="out"/>
<feColorMatrix type="matrix" values="0 0 0 0 0 0 0 0 0 0 0 0 0 0 0 0 0 0 0.04 0"/>
<feBlend mode="normal" in2="BackgroundImageFix" result="effect1_dropShadow_1376_875"/>
<feBlend mode="normal" in="SourceGraphic" in2="effect1_dropShadow_1376_875" result="shape"/>
</filter>
<radialGradient id="paint0_radial_1376_875" cx="0" cy="0" r="1" gradientTransform="matrix(-29.3903 67.6703 -67.6573 -29.3958 87.3117 28.8822)" gradientUnits="userSpaceOnUse">
<stop stop-color="#383838"/>
<stop offset="1" stop-color="#212121"/>
</radialGradient>
<radialGradient id="paint1_radial_1376_875" cx="0" cy="0" r="1" gradientTransform="matrix(-24.6058 56.6543 -56.6436 -24.6106 82.8331 33.776)" gradientUnits="userSpaceOnUse">
<stop stop-color="#383838"/>
<stop offset="1" stop-color="#212121"/>
</radialGradient>
<linearGradient id="paint2_linear_1376_875" x1="46.685" y1="47.5943" x2="45.509" y2="34.1583" gradientUnits="userSpaceOnUse">
<stop stop-color="#F74C00"/>
<stop offset="0.33" stop-color="#F74C00"/>
<stop offset="1" stop-color="#F49600"/>
</linearGradient>
<linearGradient id="paint3_linear_1376_875" x1="50.0296" y1="47.0231" x2="50.0296" y2="42.25" gradientUnits="userSpaceOnUse">
<stop stop-color="#CC3A00"/>
<stop offset="0.15" stop-color="#CC3A00"/>
<stop offset="0.74" stop-color="#F74C00"/>
<stop offset="1" stop-color="#F74C00"/>
</linearGradient>
<linearGradient id="paint4_linear_1376_875" x1="42.7557" y1="47.2225" x2="42.7557" y2="42.9531" gradientUnits="userSpaceOnUse">
<stop stop-color="#CC3A00"/>
<stop offset="0.15" stop-color="#CC3A00"/>
<stop offset="0.74" stop-color="#F74C00"/>
<stop offset="1" stop-color="#F74C00"/>
</linearGradient>
</defs>
</svg>
