<svg width="79" height="79" viewBox="0 0 79 79" fill="none" xmlns="http://www.w3.org/2000/svg">
<path d="M74.6991 0L4.28581 0C1.91889 0 0 1.91927 0 4.28681V74.7133C0 77.0809 1.91889 79 4.28581 79L74.6991 79C77.0662 79 78.9849 77.0809 78.9849 74.7133V4.28681C78.9849 1.91927 77.0662 0 74.6991 0Z" fill="url(#paint0_radial_1381_914)"/>
<path d="M74.6991 0L4.28581 0C1.91889 0 0 1.91927 0 4.28681V74.7133C0 77.0809 1.91889 79 4.28581 79L74.6991 79C77.0662 79 78.9849 77.0809 78.9849 74.7133V4.28681C78.9849 1.91927 77.0662 0 74.6991 0Z" fill="white" fill-opacity="0.02"/>
<path d="M69.1877 6.73828L10.408 6.73828C8.37945 6.73828 6.73438 8.38336 6.73438 10.4126V69.2035C6.73438 71.2329 8.37945 72.8778 10.408 72.8778H69.1877C71.2167 72.8778 72.8614 71.2329 72.8614 69.2035V10.4126C72.8614 8.38336 71.2167 6.73828 69.1877 6.73828Z" fill="url(#paint1_radial_1381_914)"/>
<path d="M69.1877 6.73828L10.408 6.73828C8.37945 6.73828 6.73438 8.38336 6.73438 10.4126V69.2035C6.73438 71.2329 8.37945 72.8778 10.408 72.8778H69.1877C71.2167 72.8778 72.8614 71.2329 72.8614 69.2035V10.4126C72.8614 8.38336 71.2167 6.73828 69.1877 6.73828Z" fill="white" fill-opacity="0.07"/>
<path d="M27.8105 22.2051C26.4289 22.2051 25.1279 22.3113 23.9887 22.4982C22.9297 22.672 22.2217 23.629 22.2217 24.7021C22.2217 25.775 22.9295 26.7318 23.9881 26.9056C25.1274 27.0925 26.4287 27.1985 27.8105 27.1985C29.5308 27.1985 31.1266 27.0341 32.4399 26.7535C33.3895 26.5508 33.9972 25.6727 33.9972 24.7019C33.9972 23.7308 33.3895 22.8528 32.4399 22.65C31.1266 22.3694 29.5308 22.2051 27.8105 22.2051Z" fill="#A52B00"/>
<path d="M36.2585 25.2671C36.2543 25.1868 36.2117 25.1148 36.1768 25.0424L36.0015 24.6789C35.9844 24.6438 35.9778 24.6045 35.9778 24.5655C35.9778 24.3072 35.8618 24.058 35.6454 23.8226C35.1362 23.2681 34.3154 23.8127 34.3154 24.5655V25.7151C34.3154 25.922 34.5721 26.0403 34.7558 25.9453C35.0068 25.8156 35.2747 26.0712 35.1647 26.3316C35.0732 26.5484 34.9747 26.7674 34.8852 26.9552C34.5129 27.6353 34.378 28.2268 34.3953 28.2562C34.4065 28.2751 34.5335 28.079 34.7209 27.7611C35.1568 27.1401 35.9827 25.9541 36.1479 25.6517C36.2435 25.4762 36.2626 25.3492 36.2585 25.2671Z" fill="#A52B00"/>
<path d="M19.8052 24.5984C19.8052 24.6246 19.8066 24.6507 19.809 24.6766C19.8243 24.8462 19.8243 25.0232 19.7412 25.1717C19.7278 25.1957 19.712 25.2187 19.7028 25.2446C19.6793 25.3089 19.6585 25.4581 19.8136 25.6992C20.0027 25.993 20.9501 27.1433 21.4501 27.7458C21.6649 28.0547 21.8101 28.2449 21.8229 28.2267C21.843 28.1977 21.6895 27.6176 21.2632 26.9559C21.2417 26.9175 21.2197 26.8778 21.1973 26.8372C21.0227 26.5171 21.3463 26.1408 21.6864 26.2723C21.9225 26.3633 22.222 26.2014 22.222 25.9484V24.5984C22.222 23.677 21.2902 22.9815 20.5367 23.5122C20.067 23.843 19.8052 24.211 19.8052 24.5984Z" fill="#A52B00"/>
<path d="M27.5388 16.6872L27.1059 17.4106C27.0662 17.4768 26.9968 17.5198 26.92 17.5266C26.845 17.5334 26.7713 17.5045 26.7208 17.4483L26.1561 16.8219C26.0953 16.746 25.9977 16.7137 25.9051 16.7355C25.8123 16.7572 25.7375 16.8313 25.7043 16.9156L25.4149 17.7351C25.3923 17.7991 25.3355 17.8474 25.2706 17.8669C25.1958 17.8895 25.1152 17.8812 25.0531 17.834L24.3866 17.3287C24.3149 17.2807 24.2049 17.2633 24.1266 17.2971C24.036 17.3456 23.9748 17.4189 23.9561 17.5152L23.8181 18.3667C23.8054 18.4442 23.7613 18.51 23.6935 18.5497C23.6327 18.5855 23.5544 18.5861 23.4903 18.5558L22.7437 18.2035C22.6586 18.1567 22.5511 18.166 22.4756 18.2272C22.3986 18.2743 22.3527 18.3731 22.3475 18.4685L22.376 19.3371C22.3784 19.4109 22.3519 19.4802 22.2964 19.5291C22.2413 19.5778 22.1623 19.5949 22.0908 19.5778L21.2908 19.3867C21.1934 19.3542 21.1015 19.3896 21.0269 19.4637C20.9648 19.5234 20.9334 19.6346 20.9551 19.7272L21.1491 20.5737C21.1649 20.6426 21.1491 20.7115 21.1052 20.7668C21.0563 20.8284 20.9802 20.8697 20.9016 20.8666L20.0775 20.8332C19.9823 20.828 19.8917 20.8765 19.845 20.9618C19.7982 21.0472 19.7809 21.1569 19.8296 21.2475L20.1679 22.0193C20.1993 22.0908 20.1897 22.1758 20.153 22.2449C20.1186 22.31 20.0587 22.3548 19.986 22.3675L19.1817 22.509C19.0744 22.5187 18.9998 22.5928 18.9665 22.6767C18.9342 22.7745 18.9434 22.8818 18.9911 22.959L19.5314 23.7274C19.5409 23.7408 19.5378 23.7598 19.5369 23.7761C19.5365 23.7866 19.5336 23.7958 19.5264 23.8033L18.0915 25.3224C18.0152 25.4034 17.9208 25.4813 17.9048 25.5914C17.8901 25.6928 17.9177 25.8492 18.0856 26.0708C18.3895 26.4504 19.9577 27.9783 20.7864 28.7857C20.9154 28.9355 21.0293 29.0643 21.123 29.1659C21.293 29.3509 21.3966 29.2934 21.3066 29.0586C21.1892 28.7528 20.954 28.2861 20.5495 27.7775C20.1295 27.1577 19.6089 26.2727 19.4891 25.8683C19.4487 25.7327 19.5277 25.6063 19.6363 25.5157C19.7291 25.4385 19.8649 25.3435 20.0453 25.263C20.0308 25.2509 20.0308 25.2509 20.0453 25.263C20.0453 25.263 27.6033 28.7491 34.7213 25.4624C34.9203 25.3705 35.1305 25.2895 35.3497 25.2878C35.7273 25.2847 36.0112 25.4021 36.1775 25.496C36.2955 25.5629 36.3936 25.6682 36.3798 25.8031C36.3383 26.2022 35.9963 27.1143 35.7089 27.7644C35.2075 28.6883 35.1353 29.4123 35.1781 29.4356C35.206 29.4465 35.3852 29.1734 35.6444 28.7313C36.2844 27.8493 37.4768 26.1608 37.698 25.7489C37.8281 25.5111 37.8265 25.358 37.7934 25.2645C37.7579 25.1645 37.6561 25.1081 37.5703 25.0453L36.1023 23.9672C36.0588 23.9351 36.0257 23.8952 36.0114 23.8432C35.995 23.7838 36.0125 23.7179 36.047 23.667L36.5329 22.9538C36.5946 22.8809 36.5983 22.7721 36.5632 22.6806C36.5281 22.5885 36.4555 22.5272 36.3592 22.5086L35.5419 22.3671C35.468 22.3544 35.4043 22.307 35.3727 22.2387C35.3431 22.1751 35.3409 22.1018 35.3683 22.0371L35.7064 21.2393C35.7532 21.154 35.7435 21.0461 35.6814 20.957C35.6343 20.88 35.5489 20.8332 35.455 20.8414L34.6413 20.8659C34.5592 20.8683 34.4806 20.8304 34.428 20.7676C34.3821 20.713 34.367 20.6402 34.3826 20.5704L34.5724 19.7272C34.591 19.6309 34.5684 19.5243 34.5087 19.4622C34.4346 19.3872 34.3367 19.3553 34.2439 19.3771L33.4576 19.5739C33.3775 19.5938 33.2946 19.5778 33.2333 19.5225C33.1822 19.4765 33.1544 19.4067 33.1559 19.338L33.1765 18.4685C33.1818 18.3731 33.1333 18.2825 33.06 18.2213C32.9738 18.1611 32.8784 18.1559 32.788 18.2046L32.0481 18.5539C31.9817 18.5852 31.9049 18.5846 31.8412 18.5479C31.7723 18.508 31.7223 18.4398 31.71 18.3612L31.5782 17.5253C31.5685 17.4178 31.4944 17.3432 31.4099 17.3096C31.3248 17.2631 31.2173 17.2723 31.1413 17.3333L30.4682 17.8344C30.412 17.8764 30.344 17.89 30.2769 17.8706C30.2054 17.8502 30.142 17.7965 30.1172 17.7265L29.8326 16.9198C29.7979 16.828 29.7238 16.7532 29.627 16.7346C29.5307 16.7162 29.4392 16.751 29.3646 16.8254L28.8021 17.4569C28.7529 17.5121 28.6847 17.54 28.6116 17.5275C28.539 17.5152 28.4679 17.4733 28.4302 17.4099L27.9986 16.6876C27.9501 16.5972 27.8648 16.5505 27.77 16.5452C27.6746 16.54 27.585 16.6018 27.5388 16.6872Z" fill="url(#paint2_linear_1381_914)"/>
<path d="M25.1529 27.4486C25.1645 27.4486 25.1588 27.4245 25.1505 27.4168C25.1426 27.4096 25.1577 27.4069 25.1682 27.406L26.5351 27.2939C27.0338 27.2531 27.2841 26.6743 26.894 26.3608C25.3762 25.1401 24.1936 26.3584 23.8531 26.7779C23.7967 26.8472 23.7695 26.9348 23.7695 27.0243V27.0666C23.7695 27.2775 23.9404 27.4486 24.1515 27.4486H25.1529Z" fill="black"/>
<path d="M30.5191 27.4174C30.5077 27.4174 30.5132 27.3937 30.5218 27.386C30.5297 27.3788 30.5143 27.3757 30.5038 27.3751L29.1648 27.277C28.6941 27.2423 28.4497 26.7011 28.8016 26.3864C30.3388 25.0119 31.4893 26.309 31.8215 26.7449C31.8757 26.816 31.9027 26.9033 31.9027 26.9929V27.0321C31.9027 27.245 31.7302 27.4174 31.5174 27.4174H30.5191Z" fill="black"/>
<path d="M34.6933 24.6973C34.5186 24.6973 34.3631 24.8153 34.2876 24.9726C34.0998 25.364 33.6173 26.1227 32.4668 26.9154C32.415 26.9512 32.356 26.9769 32.2948 26.9916C32.0648 27.0462 31.8263 26.94 31.6798 26.7544C31.3197 26.2971 30.5488 25.581 29.518 26.0845C29.0924 26.2925 29.0586 27.2709 29.5296 27.3209C29.8304 27.3527 30.4748 27.7902 30.2508 27.9936C30.1343 28.0993 29.9928 28.2125 29.8263 28.3194C29.2255 28.7051 29.0171 29.5103 29.7295 29.4662C30.3252 29.4293 31.0632 29.1305 31.9104 28.2812C32.1361 28.055 32.4007 27.8659 32.684 27.7178C33.381 27.3534 34.6959 26.4994 35.0412 25.1102C35.0954 24.8921 34.9179 24.6973 34.6933 24.6973Z" fill="url(#paint3_linear_1381_914)"/>
<path d="M29.1303 23.4737C29.197 23.3392 29.2893 23.2179 29.4105 23.129C29.6454 22.957 30.0943 22.7365 30.5718 23.0772C30.733 23.1924 30.8436 23.364 30.9134 23.5494C31.0457 23.9006 31.1979 24.513 30.8579 24.9103C30.8175 24.9575 30.7697 24.9968 30.7185 25.0314C30.504 25.1773 29.8727 25.5429 29.4094 25.1631C29.2799 25.0569 29.1735 24.9215 29.0919 24.7754C28.9581 24.5356 28.8244 24.0891 29.1303 23.4737Z" fill="black"/>
<path d="M25.4427 23.6878C25.6064 23.2452 26.0081 22.8955 26.4794 22.9148C26.8533 22.93 27.2732 23.1048 27.4606 23.7409C27.4665 23.7611 27.4717 23.7815 27.4759 23.8021C27.5163 23.9993 27.6953 25.1104 26.6753 25.3513C26.4803 25.3974 26.2738 25.3789 26.0891 25.3006C25.6937 25.1325 25.0695 24.6972 25.4427 23.6878Z" fill="black"/>
<path d="M26.6891 23.8735C26.6891 24.3808 26.4151 24.7921 26.077 24.7921C25.7389 24.7921 25.4648 24.3808 25.4648 23.8735C25.4648 23.3665 25.7389 22.9551 26.077 22.9551C26.4151 22.9551 26.6891 23.3665 26.6891 23.8735Z" fill="white"/>
<path d="M30.3053 23.9153C30.2696 24.4215 29.9677 24.8127 29.63 24.789C29.2928 24.7655 29.0481 24.3357 29.0835 23.83C29.119 23.3238 29.4209 22.9326 29.7581 22.9561C30.0958 22.9798 30.3404 23.4094 30.3053 23.9153Z" fill="white"/>
<path d="M23.2051 27.8858C23.5421 28.0821 23.9102 28.2875 24.1727 28.576C25.3315 29.849 26.1639 29.7979 26.6872 29.4764C27.1181 29.2114 26.8384 28.6513 26.3676 28.4663C26.2949 28.438 26.2249 28.4082 26.1571 28.3774C25.6681 28.1561 26.4474 27.4954 26.9832 27.4597C27.5014 27.4252 27.1592 26.8445 26.7436 26.5325C25.868 25.8749 25.1012 26.0171 24.5485 26.33C23.9157 26.6885 23.166 26.9175 22.7415 26.3271C22.657 26.2097 22.5763 26.0875 22.5001 25.9653C22.4352 25.8609 22.3354 25.7824 22.2176 25.7477C21.7954 25.6233 21.4516 26.0739 21.7129 26.4281C22.3237 27.255 22.8413 27.6738 23.2051 27.8858Z" fill="url(#paint4_linear_1381_914)"/>
<path opacity="0.5" d="M19.6622 64.3031L21.1443 60.3222V64.3031H21.7439V59.4668H20.8884L19.4134 63.4408L17.9449 59.4668H17.0625V64.3031H17.6689V60.3222L19.1442 64.3031H19.6622ZM23.5996 64.3639C24.0772 64.3639 24.4684 64.1822 24.6837 63.9057C24.7578 64.243 25.0674 64.3704 25.6065 64.3031V63.818C25.3704 63.872 25.2293 63.7982 25.2293 63.569V61.8513C25.2293 61.0967 24.7442 60.713 23.9563 60.713C23.2354 60.713 22.7172 61.1237 22.5487 61.6961L23.1213 61.8445C23.2286 61.4537 23.4916 61.2446 23.9362 61.2446C24.4077 61.2446 24.6297 61.4741 24.6297 61.8782V62.0266L23.7742 62.2014C22.9864 62.3633 22.4407 62.6527 22.4407 63.3537C22.4407 63.9867 22.9594 64.3639 23.5996 64.3639ZM24.6297 63.1041C24.6297 63.5554 24.192 63.872 23.6731 63.872C23.2894 63.872 23.0403 63.6701 23.0403 63.3267C23.0403 62.9022 23.4039 62.7539 23.943 62.6459L24.6297 62.4981V63.1041ZM27.4881 64.3772C27.9797 64.3772 28.3703 64.1416 28.5789 63.7914V64.3031H29.1854V59.4668H28.5789V61.292C28.3703 60.9484 27.9797 60.713 27.4881 60.713C26.5113 60.713 25.9522 61.5415 25.9522 62.5448C25.9522 63.542 26.5113 64.3772 27.4881 64.3772ZM28.5923 62.4239V62.6729C28.5923 63.4812 28.0938 63.845 27.5956 63.845C26.9356 63.845 26.5653 63.2998 26.5653 62.5448C26.5653 61.7837 26.9356 61.2446 27.5956 61.2446C28.0938 61.2446 28.5923 61.6022 28.5923 62.4239ZM31.5275 64.3772C32.228 64.3772 32.7599 63.9933 32.9755 63.3671L32.4435 63.1782C32.3355 63.5959 31.999 63.8518 31.5275 63.8518C30.9147 63.8518 30.4904 63.3807 30.4568 62.6394H33.0025V62.4375C33.0025 61.4605 32.4839 60.713 31.5005 60.713C30.5439 60.713 29.8774 61.4943 29.8774 62.5448C29.8774 63.6297 30.5507 64.3772 31.5275 64.3772ZM31.4937 61.2312C32.1067 61.2312 32.3759 61.6757 32.3895 62.1744H30.4904C30.5979 61.5753 30.9816 61.2312 31.4937 61.2312ZM35.0162 60.1671H35.6759V59.4668H35.0162V60.1671ZM35.649 60.7799H35.0432V64.3031H35.649V60.7799ZM36.5935 64.3031H37.1999V62.2014C37.1999 61.6156 37.6444 61.2784 38.0821 61.2784C38.6076 61.2784 38.816 61.649 38.816 62.1406V64.3031H39.4225V61.9794C39.4225 61.2312 38.9981 60.713 38.2506 60.713C37.7521 60.713 37.4022 60.9686 37.1999 61.2582V60.7799H36.5935V64.3031ZM42.4961 62.4307H43.2778L44.4564 64.3031H45.4398L44.1934 62.3633C44.9009 62.1946 45.3185 61.7095 45.3185 60.9484C45.3185 59.9716 44.6447 59.4668 43.5672 59.4668H41.634V64.3031H42.4961V62.4307ZM42.4961 61.6893V60.2075H43.52C44.1398 60.2075 44.4698 60.4701 44.4698 60.9484C44.4698 61.4201 44.1398 61.6893 43.52 61.6893H42.4961ZM48.8111 60.7668H48.0024V62.8686C48.0024 63.3739 47.6389 63.6431 47.2753 63.6431C46.8374 63.6431 46.6491 63.3671 46.6491 62.936V60.7668H45.8404V63.1108C45.8404 63.872 46.2985 64.3772 47.0397 64.3772C47.4978 64.3772 47.8006 64.162 48.0024 63.9259V64.3031H48.8111V60.7668ZM49.2247 63.6297C49.5417 64.1148 50.1947 64.3772 50.8483 64.3772C51.6497 64.3772 52.3027 63.9191 52.3027 63.2052C52.3027 62.3969 51.5486 62.2688 50.949 62.1406C50.5045 62.0467 50.2486 61.9996 50.2486 61.7433C50.2486 61.5077 50.4645 61.3594 50.7943 61.3594C51.1851 61.3594 51.5216 61.5415 51.7239 61.8578L52.2691 61.3662C52.0133 60.9754 51.4608 60.6994 50.8415 60.6994C50.0266 60.6994 49.4608 61.1711 49.4608 61.8175C49.4608 62.5718 50.1003 62.7135 50.6596 62.828C51.2186 62.9428 51.5148 62.9759 51.5148 63.2793C51.5148 63.5959 51.1984 63.7173 50.8551 63.7173C50.4444 63.7173 50.0402 63.488 49.8311 63.1446L49.2247 63.6297ZM52.9304 63.4138C52.9304 64.135 53.2939 64.3435 53.9673 64.3435C54.1764 64.3435 54.378 64.3233 54.5263 64.2963V63.6161C54.405 63.6297 54.3313 63.6363 54.1966 63.6363C53.907 63.6363 53.7251 63.6027 53.7251 63.2862V61.4537H54.4658V60.7668H53.7251V59.7292H52.9304V60.7668H52.4385V61.4537H52.9304V63.4138Z" fill="white"/>
<path d="M19.3988 49.4568H21.4585L24.5659 54.3938H27.1579L23.8733 49.2791C25.7377 48.835 26.8387 47.5566 26.8387 45.5497C26.8387 42.9746 25.0629 41.6426 22.2218 41.6426H17.126V54.3938H19.3988V49.4568ZM19.3988 47.503V43.5959H22.0976C23.7313 43.5959 24.601 44.2886 24.601 45.5497C24.601 46.7924 23.7313 47.503 22.0976 47.503H19.3988ZM32.2283 54.5895C34.0932 54.5895 35.567 53.6125 36.2239 51.9786L34.3947 51.286C34.1106 52.245 33.2764 52.7777 32.2283 52.7777C30.8617 52.7777 29.9027 51.8009 29.7427 50.2026H36.277V49.4919C36.277 46.9346 34.8388 44.8921 32.1399 44.8921C29.5472 44.8921 27.7007 47.0059 27.7007 49.7405C27.7007 52.6177 29.565 54.5895 32.2283 54.5895ZM32.1219 46.686C33.4715 46.686 34.1106 47.5743 34.1283 48.6042H29.8493C30.169 47.3431 31.0209 46.686 32.1219 46.686ZM37.8937 52.0493C37.8937 53.9497 38.8525 54.5002 40.6277 54.5002C41.1782 54.5002 41.7109 54.4473 42.1021 54.376V52.5822C41.7822 52.6177 41.5867 52.6355 41.2317 52.6355C40.4684 52.6355 39.9886 52.5469 39.9886 51.7123V46.8817H41.9421V45.0699H39.9886V42.3348H37.8937V45.0699H36.5971V46.8817H37.8937V52.0493ZM43.5203 54.3938H45.6509V48.9241C45.6509 47.5917 46.6277 46.8817 47.5867 46.8817C48.7583 46.8817 49.2204 47.7165 49.2204 48.8706V54.3938H51.351V48.2492C51.351 46.2419 50.1787 44.8921 48.2258 44.8921C47.0182 44.8921 46.1836 45.4428 45.6509 46.0646V41.6426H43.5203V54.3938Z" fill="white"/>
<path d="M74.3859 76.4204C75.4002 76.4204 76.2227 75.5977 76.2227 74.5832C76.2227 73.5682 75.4002 72.7461 74.3859 72.7461C73.3709 72.7461 72.5488 73.5682 72.5488 74.5832C72.5488 75.5977 73.3709 76.4204 74.3859 76.4204Z" fill="#626262"/>
<path d="M4.55092 76.4204C5.56522 76.4204 6.38776 75.5977 6.38776 74.5832C6.38776 73.5682 5.56522 72.7461 4.55092 72.7461C3.53619 72.7461 2.71387 73.5682 2.71387 74.5832C2.71387 75.5977 3.53619 76.4204 4.55092 76.4204Z" fill="#626262"/>
<path d="M4.55092 6.38736C5.56522 6.38736 6.38776 5.56482 6.38776 4.55008C6.38776 3.53537 5.56522 2.71289 4.55092 2.71289C3.53619 2.71289 2.71387 3.53537 2.71387 4.55008C2.71387 5.56482 3.53619 6.38736 4.55092 6.38736Z" fill="#626262"/>
<path d="M74.3859 6.38736C75.4002 6.38736 76.2227 5.56482 76.2227 4.55008C76.2227 3.53537 75.4002 2.71289 74.3859 2.71289C73.3709 2.71289 72.5488 3.53537 72.5488 4.55008C72.5488 5.56482 73.3709 6.38736 74.3859 6.38736Z" fill="#626262"/>
<defs>
<radialGradient id="paint0_radial_1381_914" cx="0" cy="0" r="1" gradientTransform="matrix(-29.3903 67.6703 -67.6573 -29.3958 68.882 11.3295)" gradientUnits="userSpaceOnUse">
<stop stop-color="#383838"/>
<stop offset="1" stop-color="#212121"/>
</radialGradient>
<radialGradient id="paint1_radial_1381_914" cx="0" cy="0" r="1" gradientTransform="matrix(-24.6058 56.6543 -56.6436 -24.6106 64.4034 16.2233)" gradientUnits="userSpaceOnUse">
<stop stop-color="#383838"/>
<stop offset="1" stop-color="#212121"/>
</radialGradient>
<linearGradient id="paint2_linear_1381_914" x1="28.2553" y1="30.0416" x2="27.0793" y2="16.6056" gradientUnits="userSpaceOnUse">
<stop stop-color="#F74C00"/>
<stop offset="0.33" stop-color="#F74C00"/>
<stop offset="1" stop-color="#F49600"/>
</linearGradient>
<linearGradient id="paint3_linear_1381_914" x1="31.5999" y1="29.4704" x2="31.5999" y2="24.6973" gradientUnits="userSpaceOnUse">
<stop stop-color="#CC3A00"/>
<stop offset="0.15" stop-color="#CC3A00"/>
<stop offset="0.74" stop-color="#F74C00"/>
<stop offset="1" stop-color="#F74C00"/>
</linearGradient>
<linearGradient id="paint4_linear_1381_914" x1="24.326" y1="29.6697" x2="24.326" y2="25.4004" gradientUnits="userSpaceOnUse">
<stop stop-color="#CC3A00"/>
<stop offset="0.15" stop-color="#CC3A00"/>
<stop offset="0.74" stop-color="#F74C00"/>
<stop offset="1" stop-color="#F74C00"/>
</linearGradient>
</defs>
</svg>
