<svg width="96" height="20" viewBox="0 0 96 20" fill="none" xmlns="http://www.w3.org/2000/svg">
<path d="M18.515 19.1352V0.473282H22.071V19.1352H18.515Z" fill="#232323"/>
<path d="M30.243 19.5267C26.0856 19.5267 23.2356 16.4468 23.2356 12.4535C23.2356 8.46006 26.0856 5.3802 30.243 5.3802C34.4004 5.3802 37.2505 8.46006 37.2505 12.4535C37.2505 16.4468 34.4004 19.5267 30.243 19.5267ZM30.243 16.8123C32.4132 16.8123 33.6422 15.0635 33.6422 12.4535C33.6422 9.8434 32.4132 8.06856 30.243 8.06856C28.0467 8.06856 26.8439 9.8434 26.8439 12.4535C26.8439 15.0635 28.0467 16.8123 30.243 16.8123Z" fill="#232323"/>
<path d="M44.6035 19.5267C40.3677 19.5267 37.7268 16.4468 37.7268 12.4535C37.7268 8.46006 40.3415 5.3802 44.4205 5.3802C47.8981 5.3802 50.0421 7.38994 50.5128 10.2871H47.0352C46.7999 9.11258 45.8847 8.22516 44.5774 8.22516C42.4333 8.22516 41.3351 9.8695 41.3351 12.4535C41.3351 14.9852 42.3549 16.6818 44.5251 16.6818C45.9632 16.6818 46.9829 15.9248 47.2182 14.411H50.6435C50.4082 17.256 48.1857 19.5267 44.6035 19.5267Z" fill="#232323"/>
<path d="M60.5094 19.1352L56.7442 13.0277L55.2015 14.6198V19.1352H51.6716V0.473282H55.2015V10.8091L59.9603 5.7456H64.2223L59.2804 10.8352L64.8236 19.1352H60.5094Z" fill="#232323"/>
<path d="M73.4849 19.1352C73.2757 18.8742 73.145 18.2478 73.0665 17.6475H73.0142C72.3344 18.6654 71.367 19.4484 69.066 19.4484C66.3205 19.4484 64.3857 18.0129 64.3857 15.3506C64.3857 12.4013 66.7912 11.4616 69.772 11.044C71.9945 10.7308 73.0142 10.5481 73.0142 9.53019C73.0142 8.56447 72.256 7.93805 70.7656 7.93805C69.0921 7.93805 68.2816 8.53837 68.177 9.8173H65.0132C65.1178 7.46824 66.8696 5.4063 70.7917 5.4063C74.8184 5.4063 76.4395 7.20724 76.4395 10.3393V17.1516C76.4395 18.1695 76.5964 18.7698 76.9101 19.0047V19.1352H73.4849ZM69.9289 16.9689C71.9683 16.9689 73.0927 15.716 73.0927 14.411V12.4013C72.4651 12.7667 71.4977 12.9755 70.6087 13.1843C68.7522 13.6019 67.8371 14.0195 67.8371 15.2723C67.8371 16.5252 68.6738 16.9689 69.9289 16.9689Z" fill="#232323"/>
<path d="M78.1773 19.1352V5.7456H81.7333V19.1352H78.1773ZM78.1773 3.65755V0.473282H81.7333V3.65755H78.1773Z" fill="#232323"/>
<path d="M88.5219 19.5267C85.1489 19.5267 82.848 16.7862 82.848 12.4535C82.848 8.27736 85.2274 5.3802 88.5742 5.3802C90.4568 5.3802 91.6334 6.24151 92.3655 7.36384H92.444V0.473282H96V19.1352H92.5747V17.3865H92.5224C91.738 18.6654 90.4045 19.5267 88.5219 19.5267ZM89.3063 16.5513C91.4243 16.5513 92.5224 14.9852 92.5224 12.5318C92.5224 9.9739 91.6857 8.25126 89.4109 8.25126C87.4499 8.25126 86.4563 9.9739 86.4563 12.4535C86.4563 15.0374 87.476 16.5513 89.3063 16.5513Z" fill="#232323"/>
<path fill-rule="evenodd" clip-rule="evenodd" d="M12.9552 3.51901H0.175949V0.477364H12.9552C15.3474 0.477364 17.2867 2.41383 17.2867 4.80258C17.2867 7.19133 15.3474 9.1278 12.9552 9.1278H3.68766C3.33332 9.1278 3.04608 9.41462 3.04608 9.76844C3.04608 10.1223 3.33332 10.4091 3.68766 10.4091H12.9556C15.3476 10.4091 17.2867 12.3454 17.2867 14.7339C17.2867 17.1225 15.3476 19.0587 12.9556 19.0587H0.175949V16.0171H12.9556C13.6653 16.0171 14.2407 15.4426 14.2407 14.7339C14.2407 14.0252 13.6653 13.4507 12.9556 13.4507H3.68766C1.65102 13.4507 0 11.8021 0 9.76844C0 7.73477 1.65102 6.08615 3.68766 6.08615H12.9552C13.6651 6.08615 14.2407 5.51147 14.2407 4.80258C14.2407 4.09369 13.6651 3.51901 12.9552 3.51901Z" fill="#232323"/>
</svg>
