<svg width="1005" height="318" viewBox="0 0 1005 318" fill="none" xmlns="http://www.w3.org/2000/svg">
<path d="M361.242 72.6527L412.307 72.6252C431.105 72.6159 449.615 71.1923 466.494 80.7558C497.853 98.5221 489.86 144.384 455.788 153.48C484.95 163.014 495.463 181.876 488.599 211.459C475.819 246.583 433.237 244.07 402.891 244.083C388.995 244.125 375.099 244.091 361.203 243.979C360.599 187.759 360.92 128.929 361.242 72.6527ZM456.005 214.199C465.966 203.938 467.235 182.954 456.503 173.904C440.686 160.565 406.648 166.439 387.041 165.378C386.219 183.73 387.555 203.627 386.846 221.837L417.767 221.918C429.613 221.937 446.687 222.807 456.005 214.199ZM386.869 143.64L413.928 143.768C426.678 143.806 441.24 144.803 451.794 136.298C456.875 131.123 459.48 125.585 459.448 118.276C459.304 84.8883 408.462 96.0272 387.04 94.2556C386.372 110.423 387.268 127.461 386.869 143.64Z" fill="black"/>
<path d="M798.784 121.873C801.384 121.503 806.306 121.463 808.971 121.767C825.714 123.676 831.873 128.752 841.977 140.883C841.899 135.79 841.894 130.698 841.957 125.605C850.01 125.509 858.068 125.546 866.121 125.715L866.125 207.121C866.125 224.367 867.411 244.674 863.618 261.363C858.274 284.894 838.321 297.361 815.345 298.848C791.639 300.382 766.573 294.032 757.823 268.982C756.155 264.259 756.017 259.341 755.772 254.312L763.319 254.228L779.91 254.281C780.98 282.372 814.57 286.692 832.477 271.564C844.676 261.258 841.761 238.13 842.07 222.831C840.691 224.519 839.17 226.479 837.664 228.007C813.481 252.979 766.465 242.495 755.222 209.253C742.493 171.626 755.095 128.412 798.784 121.873ZM813.329 222.168C857.258 216.805 852.174 135.831 805.659 141.456C805.546 141.477 805.433 141.497 805.32 141.518C763.275 145.281 764.693 226.916 813.329 222.168Z" fill="black"/>
<path d="M711.283 72.6807C719.434 72.6134 727.59 72.6193 735.741 72.6983C736.408 129.502 735.741 187.115 735.839 244.005C727.634 244.1 719.424 244.087 711.219 243.964C711.155 238.839 711.371 233.505 711.509 228.365C696.085 250.336 670.17 252.729 647.499 241.741C637.267 236.6 628.287 225.567 624.307 214.881C608.894 173.503 627.909 116.858 680.142 121.94C694.186 123.305 703.029 130.137 711.411 140.806C710.9 118.693 711.155 94.8513 711.283 72.6807ZM682.885 228.656C710.105 223.078 716.259 194.565 711.622 170.956C708.064 152.831 694.117 138.64 674.749 141.513C632.232 145.173 633.508 233.477 682.487 228.697C682.62 228.684 682.752 228.67 682.885 228.656Z" fill="black"/>
<path d="M932.408 121.873C934.302 121.668 936.206 121.569 938.11 121.576C952.778 121.618 966.425 125.52 976.906 136.224C991.613 151.245 994.067 169.902 993.969 189.9C964.874 190.469 934.469 189.861 905.182 190.016C905.3 202.682 910.031 214.914 920.154 222.812C932.692 232.599 958.99 230.838 965.791 214.857C966.866 212.337 967.514 209.439 969.011 207.058C969.447 206.359 971.921 206.501 972.735 206.469C979.424 206.46 986.112 206.496 992.801 206.578C990.077 229.406 973.246 244.044 951.04 247.295C929.512 250.446 904.672 244.731 891.82 225.808C876.632 203.036 876.573 165.556 893.282 143.51C903.612 129.884 915.836 124.162 932.408 121.873ZM905.354 172.491C916.243 172.63 927.127 172.665 938.017 172.594L968.466 172.615C967.607 153.691 957.027 138.436 936.353 140.535C916.101 142.512 908.951 153.581 905.354 172.491Z" fill="black"/>
<path d="M562.147 121.842C566.049 121.469 568.389 121.598 572.286 121.784C572.374 129.734 572.33 137.684 572.163 145.633C553.535 143.343 535.791 149.46 532.051 169.895C530.319 179.349 530.977 189.817 530.977 199.461L530.982 243.994C522.845 244.11 514.709 244.097 506.573 243.954L506.504 237.501L506.563 125.683C513.993 125.339 523.39 125.598 530.967 125.606C531.006 131.973 530.962 138.341 530.834 144.707C539.574 130.615 544.688 124.718 562.147 121.842Z" fill="black"/>
<path d="M580.604 125.695C588.112 125.356 597.357 125.596 604.997 125.607L605.022 243.987C596.886 244.104 588.745 244.095 580.604 243.961C580.098 205.02 580.481 164.694 580.604 125.695Z" fill="black"/>
<path d="M87.0189 236.806C87.3045 236.835 102.153 243.464 104.387 244.268C99.9534 257.036 95.8141 272.563 90.8966 284.815C89.5245 284.125 86.9953 283.246 85.4692 282.672C77.5641 279.654 73.3047 277.261 65.8481 273.621L87.0189 236.806Z" fill="black"/>
<path d="M219.726 177.626C230.948 179.632 250.846 183.475 261.497 186.564C259.236 195.597 257.224 201.853 253.706 210.453C253.257 211.377 253.128 211.865 252.179 212.313C241.598 208.278 224.849 200.376 214.107 195.331C216.404 189.321 218.019 183.817 219.726 177.626Z" fill="black"/>
<path d="M43.7233 177.891C44.7411 178.223 49.1795 193.092 49.9651 195.287C48.9629 195.874 47.9572 196.337 46.8917 196.793C35.1395 201.827 23.6013 207.601 11.7298 212.326L10.8271 211.913C7.46645 201.992 4.72321 197.131 3.04736 186.357C12.7498 183.827 33.9845 179.182 43.7233 177.891Z" fill="black"/>
<path d="M59.3603 211.982C61.7928 213.699 69.0427 222.702 71.991 225.556C65.0467 233.296 50.4752 250.443 43.4006 256.796L41.2125 254.853C35.2073 249.35 29.8502 243.179 25.2451 236.46C32.787 230.494 41.0514 225.085 48.7298 219.26C52.0485 216.742 55.7392 213.959 59.3603 211.982Z" fill="black"/>
<path d="M175.974 236.983L176.776 237.04C178.558 238.477 196.596 270.135 197.4 273.101C196.315 275.734 183.042 280.914 180.208 282.104L172.735 284.809C172.53 283.741 172.245 282.702 171.935 281.663C168.176 269.043 163.519 256.702 159.866 244.047C166.125 241.99 170.257 240.223 175.974 236.983Z" fill="black"/>
<path d="M204.454 211.74C206.477 212.602 215.155 219.16 217.379 220.797L238.787 236.36C235.041 242.608 228.761 249.145 223.601 254.196L220.606 257.077C213.153 249.235 199.057 232.14 191.81 225.636C195.807 222.313 200.935 215.898 204.454 211.74Z" fill="black"/>
<path d="M140.436 248.063L140.919 248.096C142.042 249.187 141.849 252.646 142.054 254.498L145.847 290.188C138.184 291.359 131.707 291.07 124.003 290.874L118.199 290.213C119.427 276.13 120.99 262.079 122.889 248.07C128.732 248.44 134.593 248.438 140.436 248.063Z" fill="black"/>
<path d="M579.141 81.7682C580.103 80.2288 580.442 79.13 582.395 78.7654C588.97 77.539 596.851 78.4439 603.623 78.6064C604.364 82.7899 605.086 100.018 603.191 103.111C599.923 103.68 584.333 104.27 581.227 103.516C579.872 102.341 579.691 101.522 579.175 99.8059L579.141 81.7682Z" fill="black"/>
<path d="M579.141 81.7682C579.161 80.5394 578.974 78.521 579.696 77.6627C583.837 76.9594 600.826 77.4227 605.905 77.4737C605.925 86.5956 605.89 95.717 605.802 104.838C601.974 104.862 582.282 105.205 579.509 104.644C578.964 102.76 579.097 101.74 579.175 99.8059C579.691 101.522 579.872 102.341 581.227 103.516C584.333 104.27 599.923 103.68 603.191 103.111C605.086 100.018 604.364 82.7899 603.623 78.6064C596.851 78.4439 588.97 77.539 582.395 78.7654C580.442 79.13 580.103 80.2287 579.141 81.7682Z" fill="black" fill-opacity="0.972549"/>
<path d="M0 148.899C1.06054 144.895 1.0856 142.215 1.68302 138.218C2.47935 132.978 3.58733 127.791 5.00105 122.683C14.5166 89.5057 36.5965 61.3485 66.5469 44.1968C96.1463 26.9655 133.313 22.6614 166.3 31.4299C200.093 40.5367 228.911 62.6416 246.465 92.9203C258.16 112.968 264.223 135.801 264.014 159.009C249.991 159.059 235.669 159.191 221.656 159C222.247 136.004 211.898 113.091 196.184 96.5464C180.136 79.9839 158.236 70.3708 135.182 69.7706C83.6196 68.5388 43.8993 106.904 42.599 158.314C42.5925 158.555 42.591 158.796 42.5948 159.037L0 159.113V148.899Z" fill="black"/>
</svg>
