<svg width="385" height="65" viewBox="0 0 385 65" fill="none" xmlns="http://www.w3.org/2000/svg">
<path d="M55.3862 0H9.4562C4.23502 0 0 4.24531 0 9.47917V55.5208C0 60.7547 4.23502 65 9.4562 65H55.3862C60.6074 65 64.8424 60.7547 64.8424 55.5208V9.47917C64.8424 4.24531 60.6074 0 55.3862 0ZM44.2617 46.0417H20.5807C17.9668 46.0417 16.3457 43.1979 17.6696 40.9432L29.5642 20.6375C30.8745 18.4031 34.0963 18.4099 35.393 20.651L47.1797 40.9568C48.49 43.2115 46.8623 46.0417 44.2617 46.0417Z" fill="black"/>
<path d="M174.002 20.3937C163.472 20.3937 157.549 26.8667 157.549 38.35C157.549 49.8333 163.472 56.2927 174.002 56.2927C181.824 56.2927 187.687 52.9547 189.538 45.588C189.686 44.9922 189.227 44.4099 188.626 44.4099H183.952C183.513 44.4099 183.134 44.7078 183.04 45.1344C182.642 46.8406 180.96 51.0114 174.002 51.0114C168.917 51.0114 165.282 47.6734 164.283 41.7489C164.188 41.1734 164.634 40.6453 165.215 40.6453H189.517C190.037 40.6453 190.456 40.2255 190.456 39.7042V38.675C190.456 26.9344 184.533 20.3937 174.002 20.3937ZM182.871 35.7703H165.208C164.627 35.7703 164.182 35.2489 164.276 34.6802C165.215 28.9656 168.68 25.7495 174.077 25.7495C179.474 25.7495 182.871 28.9656 183.803 34.6802C183.898 35.2557 183.452 35.7703 182.871 35.7703Z" fill="black"/>
<path d="M155.483 21.2401H151.929C148.701 21.2401 145.722 22.9667 144.108 25.7698C143.662 26.5553 142.467 26.2303 142.467 25.3297V22.1407C142.467 21.6193 142.048 21.1995 141.528 21.1995H136.361C135.841 21.1995 135.422 21.6193 135.422 22.1407V54.5594C135.422 55.0808 135.841 55.5006 136.361 55.5006H141.528C142.048 55.5006 142.467 55.0808 142.467 54.5594V34.3688C142.467 30.4756 145.614 27.3204 149.491 27.3204H152.99C153.307 27.3204 153.598 27.1443 153.753 26.8735L156.252 22.5672C156.597 21.9782 156.171 21.2469 155.489 21.2469L155.483 21.2401Z" fill="black"/>
<path d="M126.907 21.1859H121.936C121.417 21.1859 120.997 21.6073 120.997 22.127V54.5593C120.997 55.0791 121.417 55.5005 121.936 55.5005H126.907C127.426 55.5005 127.846 55.0791 127.846 54.5593V22.127C127.846 21.6073 127.426 21.1859 126.907 21.1859Z" fill="black"/>
<path d="M127.129 9.45883H121.699C121.15 9.45883 120.706 9.90446 120.706 10.4541V16.2432C120.706 16.7929 121.15 17.2385 121.699 17.2385H127.129C127.678 17.2385 128.122 16.7929 128.122 16.2432V10.4541C128.122 9.90446 127.678 9.45883 127.129 9.45883Z" fill="black"/>
<path d="M114.456 9.45892H84.696C84.176 9.45892 83.7573 9.87871 83.7573 10.4001V54.5459C83.7573 55.0672 84.176 55.487 84.696 55.487H89.9174C90.4374 55.487 90.8561 55.0672 90.8561 54.5459V34.3079C90.8561 33.8203 91.2548 33.4276 91.7342 33.4276L108.337 33.4006C108.62 33.4006 108.884 33.2787 109.059 33.0552L111.471 28.8709C111.977 28.2547 111.538 27.3271 110.748 27.3271H96.3543C95.6315 27.3271 94.9425 27.5912 94.3954 28.0787C93.747 28.661 92.8893 29.4261 92.4906 29.7849C91.8558 30.3469 90.8629 29.8933 90.8629 29.0469V16.7917C90.8629 16.2704 91.2816 15.8506 91.8019 15.8506H111.91C112.227 15.8506 112.518 15.6813 112.673 15.4105L115.206 10.9688C115.679 10.3527 115.24 9.45215 114.456 9.45215V9.45892Z" fill="black"/>
<path d="M316.851 43.2927H311.927C311.496 43.2927 311.131 43.5838 311.022 43.9969C309.982 48.1135 306.917 50.4224 302.553 50.4224C296.365 50.4224 292.671 46.1297 292.671 38.3432C292.671 30.5568 296.292 26.2641 302.553 26.2641C308.812 26.2641 310.508 30.6854 310.963 32.4323C311.069 32.8385 311.448 33.1297 311.867 33.1297H316.832C317.425 33.1297 317.872 32.5812 317.764 31.9989C316.298 24.5307 310.814 20.3937 302.288 20.3937C291.69 20.3937 285.835 26.8599 285.835 38.3364C285.835 49.813 291.698 56.2792 302.288 56.2792C310.833 56.2792 316.38 52.0135 317.782 44.4031C317.891 43.8208 317.438 43.2859 316.851 43.2859V43.2927Z" fill="black"/>
<path d="M337.605 37.1245C337.258 36.7385 337.285 36.1495 337.665 35.8042L352.105 22.5875C352.652 22.0932 352.303 21.1859 351.558 21.1859H345.378C345.148 21.1859 344.92 21.2739 344.744 21.4297L331.679 33.3938C331.24 33.8 330.533 33.4818 330.533 32.8859V10.3932C330.533 9.87185 330.119 9.45883 329.599 9.45883H324.616C324.096 9.45883 323.684 9.87185 323.684 10.3932V54.5661C323.684 55.0875 324.096 55.5005 324.616 55.5005H329.599C330.119 55.5005 330.533 55.0875 330.533 54.5661V40.2932C330.533 39.6568 331.316 39.3589 331.733 39.8328L345.332 55.1891C345.508 55.3854 345.762 55.5073 346.028 55.5073H352.295C352.991 55.5073 353.357 54.6813 352.888 54.1599L337.597 37.1245H337.605Z" fill="black"/>
<path d="M371.418 35.2557C364.306 33.9286 362.665 33.001 362.665 30.1641C362.665 27.3271 365.623 25.5464 369.319 25.5464C375.803 25.5464 376.984 29.3448 377.187 31.0646C377.241 31.5385 377.653 31.8839 378.119 31.8839H382.88C383.435 31.8839 383.866 31.4099 383.82 30.8615C383.292 24.287 378.154 20.4073 369.319 20.4073C361.416 20.4073 355.956 24.2328 355.956 30.4417C355.956 35.7161 358.727 39.149 369.384 40.9365C376.762 42.1281 377.74 43.374 377.74 46.2854C377.74 49.5219 374.909 51.1672 370.305 51.1672C363.307 51.174 362.172 46.9828 362.018 45.1141C361.983 44.6198 361.576 44.2406 361.078 44.2406H356.268C355.721 44.2406 355.282 44.7078 355.331 45.2562C355.864 52.9818 361.896 56.313 370.162 56.313C378.43 56.313 384.575 52.6161 384.575 45.8927C384.575 40.0901 381.677 37.2531 371.413 35.2693L371.418 35.2557Z" fill="black"/>
<path d="M241.038 9.45883H236.067C235.548 9.45883 235.128 9.88019 235.128 10.4V54.5526C235.128 55.0723 235.548 55.4938 236.067 55.4938H241.038C241.557 55.4938 241.977 55.0723 241.977 54.5526V10.4C241.977 9.88019 241.557 9.45883 241.038 9.45883Z" fill="black"/>
<path d="M264.759 20.3937C254.161 20.3937 247.839 28.1125 247.839 38.3364C247.839 48.5604 254.161 56.2792 264.759 56.2792C275.356 56.2792 281.677 48.5604 281.677 38.3364C281.677 28.1125 275.356 20.3937 264.759 20.3937ZM264.759 50.6797C257.977 50.6797 254.816 45.4661 254.816 38.3364C254.816 31.2068 257.97 25.9932 264.759 25.9932C271.548 25.9932 274.701 31.2068 274.701 38.3364C274.701 45.4661 271.548 50.6797 264.759 50.6797Z" fill="black"/>
<path d="M215.268 20.4547C210.648 20.4614 206.926 22.2151 204.731 25.2755C204.36 25.7833 203.556 25.5125 203.556 24.8895V10.4068C203.556 9.8854 203.137 9.46561 202.617 9.46561H197.653C197.133 9.46561 196.714 9.8854 196.714 10.4068V54.5526C196.714 55.0739 197.133 55.4937 197.653 55.4937H202.354C202.874 55.4937 203.293 55.0739 203.293 54.5526V50.8557C203.293 50.2396 204.09 50.0297 204.421 50.5443C206.629 54.0312 210.425 56.225 215.14 56.225C224.488 56.225 230.209 49.6234 230.209 38.3432C230.209 27.063 224.421 20.4614 215.268 20.4614V20.4547ZM213.364 50.551C207.237 50.551 203.617 45.8656 203.617 38.3432C203.617 30.8208 207.237 26.0677 213.364 26.0677C219.49 26.0677 223.245 30.814 223.245 38.3432C223.245 45.8724 219.557 50.551 213.364 50.551Z" fill="black"/>
</svg>
