<svg xmlns="http://www.w3.org/2000/svg" width="96" height="28" viewBox="0 0 96 28" fill="currentColor"><path fill-rule="evenodd" clip-rule="evenodd" d="M14 0C6.26782 0 0 6.26782 0 14C0 21.7322 6.26782 28 14 28C16.6376 28 19.1065 27.2695 21.2128 26.001H14C7.3729 26.001 1.99903 20.6288 1.99903 14C1.99903 7.3712 7.3729 1.99903 14 1.99903C20.6271 1.99903 26.001 7.3729 26.001 14C26.001 14.6811 25.9448 15.3486 25.8341 15.999H27.857C27.8808 15.8322 27.9029 15.6653 27.9217 15.4967C27.9285 15.4286 27.9353 15.3605 27.9404 15.2907C27.9591 15.1017 27.9728 14.911 27.9813 14.7203C27.9881 14.6011 27.9932 14.4819 27.9949 14.361C27.9983 14.2418 28 14.1209 28 14C28 6.26782 21.7322 0 14 0ZM14 6.00256C9.58304 6.00256 6.00216 9.58344 6.00216 14.0004C6.00216 18.419 9.58304 21.9999 14 21.9999H25.4901C24.9895 22.7184 24.4225 23.3893 23.7976 24.0006H14C8.47796 24.0006 4.00143 19.5224 4.00143 14.0004C4.00143 8.47835 8.47626 4.00012 14 4.00012C19.5237 4.00012 24.0002 8.47835 24.0002 14.0004C24.0002 14.6849 23.9321 15.3541 23.801 15.9994H21.7475C21.9126 15.3609 21.9995 14.69 21.9995 14.0004C21.9995 9.58344 18.4169 6.00256 14 6.00256ZM14 10.0023C11.7915 10.0023 10.002 11.7919 10.002 14.0004C10.002 16.2088 11.7915 18.0001 14 18.0001H27.4194C27.215 18.6914 26.9579 19.3589 26.6531 19.9992H14C10.6882 19.9992 8.00123 17.3122 8.00123 14.0004C8.00123 10.6885 10.6865 8.00159 14 8.00159C17.3136 8.00159 19.9988 10.6885 19.9988 14.0004C19.9988 14.7019 19.8779 15.3745 19.6565 15.9994H17.4634C17.8057 15.412 17.9998 14.7292 17.9998 14.0004C17.9998 11.7919 16.2085 10.0023 14 10.0023ZM45.0596 5.32276C49.8491 5.32276 53.537 9.05857 53.537 13.896C53.537 18.8052 49.8491 22.565 45.0596 22.565C40.2462 22.565 36.5822 18.8052 36.5822 13.896C36.5822 9.05857 40.2462 5.32276 45.0596 5.32276ZM45.0596 7.54988C41.6112 7.54988 38.953 10.3278 38.953 13.896C38.953 17.536 41.6112 20.3379 45.0596 20.3379C48.508 20.3379 51.1662 17.536 51.1662 13.896C51.1662 10.3278 48.508 7.54988 45.0596 7.54988ZM78.2719 5.56249H80.4751V22.3258H78.2719V19.931C77.4098 21.6073 75.8772 22.5652 73.8177 22.5652C70.6566 22.5652 68.1421 19.8592 68.1421 16.4826C68.1421 13.106 70.6566 10.3999 73.8177 10.3999C75.8772 10.3999 77.4098 11.3578 78.2719 13.0341V5.56249ZM74.2727 20.4578C76.5716 20.4578 78.2719 18.7815 78.2719 16.4826C78.2719 14.1836 76.5716 12.5073 74.2727 12.5073C72.0456 12.5073 70.2974 14.2554 70.2974 16.4826C70.2974 18.7097 72.0456 20.4578 74.2727 20.4578ZM88.3406 10.4001C91.7172 10.4001 94.3753 13.0583 94.3753 16.5067C94.3753 19.9312 91.7172 22.5654 88.3406 22.5654C84.94 22.5654 82.3058 19.9312 82.3058 16.5067C82.3058 13.0583 84.94 10.4001 88.3406 10.4001ZM88.3406 12.5075C86.1374 12.5075 84.4611 14.2317 84.4611 16.5067C84.4611 18.7338 86.1374 20.458 88.3406 20.458C90.5198 20.458 92.22 18.7338 92.22 16.5067C92.22 14.2317 90.5198 12.5075 88.3406 12.5075ZM66.3931 15.6446C66.3931 12.4117 64.5252 10.4001 61.5078 10.4001C59.8315 10.4001 58.5144 11.2382 57.772 12.6751V10.6396H55.5449V22.326H57.772V15.8841C57.772 13.8485 59.0412 12.5075 61.0049 12.5075C62.9447 12.5075 64.1899 13.8485 64.1899 15.8841V22.326H66.3931V15.6446Z"/></svg>