<svg width="97" height="20" viewBox="0 0 97 20" fill="none" xmlns="http://www.w3.org/2000/svg" class="w-auto h-[22px] machine:hidden max-lg:h-5"><path d="M91.4978 15.0803V0.781669C91.4978 0.276028 91.7731 0 92.2774 0H96.2205C96.7247 0 97 0.276028 97 0.781669V15.0803C97 15.586 96.7247 15.862 96.2205 15.862H92.2774C91.7731 15.862 91.4978 15.586 91.4978 15.0803Z" fill="#202020"></path><path d="M74.9454 12.3216V7.83896C74.9454 5.3794 76.4124 3.9079 78.8658 3.9079H86.0645C88.7469 3.9079 90.2139 5.3789 90.2139 8.06857V10.0225C90.2139 10.5513 89.8244 10.9419 89.297 10.9419H81.5251C80.8371 10.9419 80.4476 11.333 80.4476 12.0223V12.2525C80.4476 12.9423 80.8371 13.3329 81.5251 13.3329H83.6342C84.3222 13.3329 84.7117 12.9423 84.7117 12.4134V12.2757C84.7117 11.77 84.987 11.494 85.4913 11.494H89.4344C89.9387 11.494 90.2139 11.77 90.2139 12.2757V12.3216C90.2139 14.4824 88.609 16.0917 86.454 16.0917H78.7052C76.5045 16.0917 74.9454 14.5283 74.9454 12.3216ZM80.906 8.50558H84.2533C84.5512 8.50558 84.7117 8.3446 84.7117 8.04586V7.72391C84.7117 7.05729 84.3222 6.66621 83.6569 6.66621H81.5019C80.8371 6.66621 80.4471 7.0568 80.4471 7.72391V8.04586C80.4471 8.3446 80.6081 8.50558 80.906 8.50558Z" fill="#202020"></path><path d="M68.1593 15.0803V0.781669C68.1593 0.276028 68.4346 0 68.9388 0H72.8819C73.3862 0 73.6615 0.276028 73.6615 0.781669V15.0803C73.6615 15.586 73.3862 15.862 72.8819 15.862H68.9388C68.4346 15.862 68.1593 15.586 68.1593 15.0803Z" fill="#202020"></path><path d="M61.3738 15.0803V0.781669C61.3738 0.276028 61.649 0 62.1533 0H66.0964C66.6007 0 66.876 0.276028 66.876 0.781669V15.0803C66.876 15.586 66.6007 15.862 66.0964 15.862H62.1533C61.649 15.862 61.3738 15.586 61.3738 15.0803Z" fill="#202020"></path><path d="M45.0956 12.5058C45.0956 10.4827 46.6774 8.91987 48.9245 8.91987H53.6703C54.1977 8.91987 54.5872 8.52928 54.5872 8.00043V7.77032C54.5872 7.05779 54.1977 6.6667 53.4866 6.6667H52.2028C51.4922 6.6667 51.1021 6.94273 51.1021 7.54022V7.63206C51.1021 7.93081 50.9416 8.09178 50.6437 8.09178H46.5627C46.0584 8.09178 45.7831 7.93081 45.7831 7.40196C45.7831 5.44803 47.3191 3.9079 49.4972 3.9079H56.3749C58.553 3.9079 60.089 5.44803 60.089 7.63206V15.0804C60.089 15.586 59.8137 15.8621 59.3094 15.8621H56.1917C55.6874 15.8621 55.4121 15.586 55.4121 15.1263H55.3432C54.9073 15.586 53.8761 16.0917 52.2254 16.0917H48.8782C46.6774 16.0917 45.0956 14.5056 45.0956 12.5058ZM54.5872 12.5976V11.9537C54.5872 11.5631 54.3809 11.3562 53.9914 11.3562H51.4926C50.9652 11.3562 50.5757 11.7473 50.5757 12.2757C50.5757 12.804 50.9652 13.1951 51.4926 13.1951H53.9914C54.3814 13.1951 54.5872 12.9882 54.5872 12.5976Z" fill="#202020"></path><path d="M31.7531 15.0804V4.91967C31.7531 4.41403 32.0284 4.138 32.5326 4.138H35.9257C36.4299 4.138 36.7052 4.41403 36.7052 4.91967V5.08065C37.6222 4.18393 38.2412 3.90839 39.2502 3.90839H42.0932C43.8586 3.90839 45.0735 5.12657 45.0735 6.8968V7.3106C45.0735 7.81624 44.7982 8.09227 44.2939 8.09227H40.0298C39.7318 8.09227 39.5713 7.93129 39.5713 7.63255V7.60934C39.5713 7.14962 39.3192 6.8968 38.8149 6.8968H38.1501C37.5079 6.8968 37.2558 7.14962 37.2558 8.06906V15.0804C37.2558 15.586 36.9805 15.862 36.4762 15.862H32.5331C32.0289 15.862 31.7531 15.586 31.7531 15.0804Z" fill="#202020"></path><path d="M15.4754 12.5058C15.4754 10.4827 17.0572 8.91987 19.3042 8.91987H24.05C24.5774 8.91987 24.967 8.52928 24.967 8.00043V7.77032C24.967 7.05779 24.5774 6.6667 23.8663 6.6667H22.5825C21.8719 6.6667 21.4819 6.94273 21.4819 7.54022V7.63206C21.4819 7.93081 21.3213 8.09178 21.0234 8.09178H16.9424C16.4381 8.09178 16.1629 7.93081 16.1629 7.40196C16.1629 5.44803 17.6988 3.9079 19.877 3.9079H26.7546C28.9327 3.9079 30.4687 5.44803 30.4687 7.63206V15.0804C30.4687 15.586 30.1934 15.8621 29.6891 15.8621H26.5714C26.0671 15.8621 25.7918 15.586 25.7918 15.1263H25.7229C25.2871 15.586 24.2559 16.0917 22.6052 16.0917H19.2579C17.0572 16.0917 15.4754 14.5056 15.4754 12.5058ZM24.9665 12.5976V11.9537C24.9665 11.5631 24.7601 11.3562 24.3706 11.3562H21.8719C21.3445 11.3562 20.9549 11.7473 20.9549 12.2757C20.9549 12.804 21.345 13.1951 21.8719 13.1951H24.3706C24.7606 13.1951 24.9665 12.9882 24.9665 12.5976Z" fill="#202020"></path><path d="M0 19.2183V4.91967C0 4.41403 0.275283 4.138 0.779557 4.138H4.63105C5.13533 4.138 5.41061 4.41403 5.41061 4.91967V5.14978H5.52535C6.21331 4.34539 6.64864 3.90839 8.84943 3.90839H10.4312C13.0678 3.90839 14.6727 5.51765 14.6727 7.70168V12.2994C14.6727 14.4834 13.0678 16.0922 10.8902 16.0922H8.04722C6.99238 16.0922 6.02963 15.7016 5.57115 15.1954H5.50221V19.2183C5.50221 19.724 5.22692 20 4.72265 20H0.779557C0.275283 20 0 19.724 0 19.2183ZM9.14736 12.1379V7.86216C9.14736 7.08049 8.73468 6.6667 7.95513 6.6667H6.69395C5.91439 6.6667 5.50171 7.08049 5.50171 7.86216V12.1379C5.50171 12.9196 5.91439 13.3333 6.69395 13.3333H7.95513C8.73468 13.3333 9.14736 12.9196 9.14736 12.1379Z" fill="#202020"></path></svg>