<svg xmlns="http://www.w3.org/2000/svg" viewBox="0 0 442.44 168.88">
<g transform="translate(-31.878028,194.078905) scale(0.100000,-0.100000)"
fill="#000000" stroke="none">
<path d="M342 1928 l-23 -13 0 -803 c1 -442 3 -808 7 -813 6 -11 274 -12 291
-1 10 6 13 84 15 312 l3 305 115 2 c80 2 120 -1 130 -10 16 -13 60 -73 60 -82
0 -3 16 -28 35 -55 19 -27 35 -54 35 -58 0 -5 9 -17 20 -27 11 -10 20 -25 20
-32 0 -8 8 -25 18 -38 9 -12 23 -31 29 -41 7 -11 24 -36 38 -57 14 -21 25 -42
25 -47 0 -6 4 -10 9 -10 5 0 13 -10 17 -22 4 -13 18 -36 32 -53 14 -16 31 -45
39 -63 l13 -32 165 0 c196 0 198 1 137 89 -22 32 -43 68 -46 79 -4 11 -13 23
-21 26 -8 3 -15 10 -15 16 0 6 -16 33 -35 60 -19 27 -35 52 -35 55 0 3 -16 28
-35 55 -19 27 -35 52 -35 55 0 3 -16 28 -35 55 -19 27 -35 54 -35 58 0 5 -9
17 -19 26 -44 40 -36 95 14 96 58 0 255 170 255 220 0 9 6 22 12 28 52 52 59
312 12 437 -40 104 -219 255 -302 255 -15 0 -39 8 -52 18 -33 23 -818 32 -858
10z m788 -280 c13 -10 31 -18 38 -18 7 0 31 -18 51 -41 114 -121 76 -304 -78
-375 -53 -24 -58 -24 -280 -22 l-226 3 -3 225 c-1 123 0 231 3 238 8 22 462
13 495 -10z"/>
<path d="M3736 1924 c-15 -14 -16 -96 -14 -819 2 -442 6 -806 10 -810 14 -14
260 -8 269 7 5 7 9 178 9 380 0 202 4 369 9 372 5 3 11 20 15 38 6 32 72 118
90 118 5 0 17 7 26 15 13 12 40 16 98 16 93 0 121 -14 169 -85 l28 -41 3 -405
c2 -223 7 -409 12 -413 6 -7 178 -12 263 -8 29 2 26 875 -4 964 -11 34 -27 69
-35 78 -8 8 -14 20 -14 24 0 17 -114 116 -140 122 -14 3 -33 13 -43 22 -31 26
-268 21 -322 -8 -21 -11 -45 -21 -52 -21 -7 0 -13 -4 -13 -8 0 -13 -72 -62
-82 -56 -4 3 -8 120 -8 259 0 241 -1 255 -19 265 -33 17 -237 13 -255 -6z"/>
<path d="M3003 1838 c-4 -7 -10 -85 -13 -173 l-5 -160 -55 3 c-89 6 -104 -13
-108 -130 -4 -122 1 -129 93 -131 l70 -2 6 -375 c7 -462 5 -457 137 -562 47
-37 265 -58 354 -35 68 18 69 21 66 138 l-3 104 -100 5 c-75 4 -107 10 -128
24 l-27 18 2 342 3 341 115 3 c76 2 117 7 122 15 4 7 8 58 8 114 0 135 0 135
-139 132 l-106 -3 -5 162 c-4 130 -8 165 -20 172 -23 15 -257 13 -267 -2z"/>
<path d="M2161 1513 c-29 -2 -63 -10 -75 -18 -11 -7 -36 -16 -53 -20 -18 -4
-33 -10 -33 -15 0 -4 -12 -12 -28 -18 -29 -10 -164 -139 -184 -177 -52 -94
-66 -125 -72 -160 -4 -22 -12 -45 -18 -52 -15 -18 -22 -241 -9 -288 5 -22 17
-65 25 -95 13 -49 27 -82 71 -159 47 -84 198 -198 300 -228 134 -38 280 -42
345 -8 16 8 40 15 54 15 14 0 28 5 31 10 4 6 21 17 38 25 54 25 127 83 155
122 14 21 38 57 54 79 15 23 28 49 28 57 0 20 -38 47 -66 47 -12 0 -27 7 -34
15 -7 8 -22 15 -34 15 -12 0 -31 7 -42 15 -30 23 -71 19 -80 -7 -8 -29 -72
-108 -93 -116 -9 -3 -21 -11 -28 -18 -33 -32 -232 -28 -288 6 -77 48 -156 178
-160 265 0 6 148 12 415 15 l415 5 3 114 c2 94 -1 125 -18 175 -11 33 -20 67
-20 77 0 9 -7 22 -15 29 -8 7 -15 19 -15 27 0 19 -62 96 -119 149 -103 96
-245 133 -450 117z m196 -259 c17 -8 35 -14 40 -14 10 -1 51 -36 76 -66 22
-27 39 -114 23 -120 -25 -10 -506 -9 -507 1 -3 21 3 38 17 52 8 8 14 21 14 29
0 15 87 104 102 104 6 0 24 6 41 14 58 27 135 26 194 0z"/>
</g>
</svg>
