<svg width="97" height="30" viewBox="0 0 97 30" fill="none" xmlns="http://www.w3.org/2000/svg">
  <path d="M36.5761 8.06195H41.8182V25.6028H46.8496V8.06195H52.0917V3.66031H36.5761V8.06195ZM53.9086 3.66031V25.6028H58.94V16.9377L65.6478 25.6028H72.0067L64.3905 16.5164C67.109 15.6782 68.9326 13.4422 68.9326 10.1574C68.9326 5.82602 65.8562 3.66031 61.7332 3.66031H53.9086ZM58.94 13.372V7.64285H59.4973C61.3843 7.64285 63.6905 7.78331 63.6905 10.5086C63.6905 13.2338 61.4546 13.372 59.4973 13.372H58.94ZM91.224 25.6051H96.2554L94.2981 3.66031H88.988L84.0948 16.3079L79.2038 3.66031H73.8236L71.8663 25.6028H76.8999L77.9488 12.604H78.019L82.5634 25.5326H85.5673L90.1094 12.604H90.2498L91.224 25.6051Z" fill="currentColor"></path>
  <path d="M26.835 12.2119C26.2622 12.2122 25.7082 12.4157 25.2714 12.7861C24.8346 13.1565 24.5434 13.6699 24.4495 14.2349H18.0158C17.9393 13.61 17.6907 13.0186 17.2977 12.5268L22.3495 7.47497C22.7126 7.70072 23.146 7.78508 23.5673 7.71197C23.9885 7.63886 24.3682 7.4134 24.6339 7.0785C24.8997 6.7436 25.0331 6.32266 25.0086 5.89582C24.9841 5.46897 24.8035 5.06603 24.5012 4.76371C24.1989 4.46139 23.796 4.2808 23.3691 4.25633C22.9423 4.23185 22.5213 4.36519 22.1864 4.63097C21.8515 4.89676 21.6261 5.27641 21.553 5.69766C21.4798 6.11891 21.5642 6.55233 21.79 6.91542L16.7381 11.9672C16.2463 11.5742 15.6549 11.3256 15.0301 11.2491V4.80635C15.6292 4.70711 16.1692 4.38616 16.5426 3.90722C16.9161 3.42829 17.0958 2.8264 17.046 2.22111C16.9962 1.61581 16.7206 1.05138 16.2739 0.639898C15.8272 0.22842 15.2421 0 14.6347 0C14.0274 0 13.4423 0.22842 12.9956 0.639898C12.5489 1.05138 12.2732 1.61581 12.2235 2.22111C12.1737 2.8264 12.3534 3.42829 12.7268 3.90722C13.1003 4.38616 13.6403 4.70711 14.2394 4.80635V11.2423C13.6088 11.3112 13.01 11.5552 12.5109 11.9468L7.47953 6.91542C7.70529 6.55233 7.78964 6.11891 7.71653 5.69766C7.64342 5.27641 7.41796 4.89676 7.08306 4.63097C6.74816 4.36519 6.32722 4.23185 5.90038 4.25633C5.47353 4.2808 5.07059 4.46139 4.76827 4.76371C4.46595 5.06603 4.28536 5.46897 4.26089 5.89582C4.23641 6.32266 4.36976 6.7436 4.63554 7.0785C4.90132 7.4134 5.28097 7.63886 5.70222 7.71197C6.12347 7.78508 6.55689 7.70072 6.91998 7.47497L11.9491 12.5041C11.5496 13.0012 11.299 13.6013 11.2265 14.2349H4.81091C4.71167 13.6351 4.39047 13.0946 3.9111 12.7207C3.43174 12.3468 2.82927 12.1668 2.22337 12.2166C1.61747 12.2664 1.05246 12.5423 0.640559 12.9894C0.228657 13.4365 0 14.0222 0 14.6302C0 15.2381 0.228657 15.8238 0.640559 16.271C1.05246 16.7181 1.61747 16.994 2.22337 17.0437C2.82927 17.0935 3.43174 16.9136 3.9111 16.5397C4.39047 16.1658 4.71167 15.6253 4.81091 15.0255H11.2265C11.2987 15.6592 11.5493 16.2594 11.9491 16.7562L6.91998 21.7854C6.55689 21.5596 6.12347 21.4753 5.70222 21.5484C5.28097 21.6215 4.90132 21.847 4.63554 22.1819C4.36976 22.5168 4.23641 22.9377 4.26089 23.3645C4.28536 23.7914 4.46595 24.1943 4.76827 24.4967C5.07059 24.799 5.47353 24.9796 5.90038 25.004C6.32722 25.0285 6.74816 24.8952 7.08306 24.6294C7.41796 24.3636 7.64342 23.9839 7.71653 23.5627C7.78964 23.1415 7.70529 22.708 7.47953 22.3449L12.5087 17.3158C13.0068 17.7135 13.6064 17.9639 14.2394 18.0385V24.4518C13.6396 24.551 13.0991 24.8722 12.7252 25.3516C12.3513 25.8309 12.1714 26.4334 12.2212 27.0393C12.271 27.6452 12.5468 28.2102 12.994 28.6221C13.4411 29.034 14.0268 29.2627 14.6347 29.2627C15.2427 29.2627 15.8284 29.034 16.2755 28.6221C16.7227 28.2102 16.9985 27.6452 17.0483 27.0393C17.0981 26.4334 16.9182 25.8309 16.5443 25.3516C16.1704 24.8722 15.6298 24.551 15.0301 24.4518V18.0407C15.6633 17.967 16.2631 17.7165 16.7608 17.3181L21.79 22.3449C21.5642 22.708 21.4798 23.1415 21.553 23.5627C21.6261 23.9839 21.8515 24.3636 22.1864 24.6294C22.5213 24.8952 22.9423 25.0285 23.3691 25.004C23.796 24.9796 24.1989 24.799 24.5012 24.4967C24.8035 24.1943 24.9841 23.7914 25.0086 23.3645C25.0331 22.9377 24.8997 22.5168 24.6339 22.1819C24.3682 21.847 23.9885 21.6215 23.5673 21.5484C23.146 21.4753 22.7126 21.5596 22.3495 21.7854L17.3204 16.754C17.7119 16.2549 17.956 15.6561 18.0249 15.0255H24.4608C24.5362 15.4815 24.7405 15.9065 25.0498 16.25C25.359 16.5935 25.7602 16.8413 26.2058 16.9639C26.6515 17.0866 27.1229 17.0791 27.5644 16.9422C28.0059 16.8053 28.399 16.5448 28.697 16.1916C28.9951 15.8383 29.1858 15.407 29.2464 14.9488C29.3071 14.4906 29.2352 14.0246 29.0394 13.6059C28.8435 13.1873 28.5317 12.8335 28.1411 12.5864C27.7504 12.3394 27.2972 12.2094 26.835 12.2119Z" fill="currentColor"></path>
</svg>