<svg fill="currentColor" width="74" height="24" viewBox="0 0 74 24" xmlns="http://www.w3.org/2000/svg">
  <g clipPath="url(#clip0_visa)">
    <path d="M28.0377 0.423806L18.3696 23.6369H12.0619L7.30423 5.11179C7.01539 3.97076 6.76423 3.55274 5.88577 3.07202C4.45231 2.28901 2.08385 1.55477 0 1.09883L0.141538 0.423806H10.295C11.5892 0.423806 12.7527 1.2908 13.0465 2.79064L15.5592 16.2229L21.7692 0.423806H28.0377ZM52.7527 16.058C52.7781 9.93138 44.3342 9.59387 44.3923 6.85702C44.4104 6.02408 45.1985 5.1385 46.9235 4.91246C47.7785 4.79983 50.1342 4.7139 52.8062 5.95131L53.8542 1.02877C52.4185 0.504313 50.5712 -0.000404358 48.2727 -0.000404358C42.3746 -0.000404358 38.2238 3.15485 38.1888 7.67292C38.1508 11.0147 41.1515 12.8796 43.4123 13.99C45.7381 15.1272 46.5185 15.8579 46.5096 16.8751C46.4931 18.4322 44.6546 19.1196 42.9365 19.1467C39.9373 19.1932 38.1969 18.33 36.8096 17.681L35.7281 22.7664C37.1223 23.4101 39.6958 23.9717 42.3638 24C48.6327 24 52.7335 20.8838 52.7527 16.058ZM68.3273 23.6373H73.8462L69.0288 0.423806H63.935C62.7896 0.423806 61.8235 1.09496 61.3958 2.12684L52.4415 23.6369H58.7073L59.9515 20.1693H67.6073L68.3277 23.6369L68.3273 23.6373ZM61.6692 15.412L64.81 6.69639L66.6177 15.412H61.6696H61.6692ZM36.5638 0.423806L31.6296 23.6369H25.6627L30.5988 0.423806H36.5638Z" fill="currentColor"/>
  </g>
  <defs>
    <clipPath id="clip0_visa">
      <rect width="73.8462" height="24" fill="currentColor"/>
    </clipPath>
  </defs>
</svg>



