<svg preserveAspectRatio="none" width="100%" height="100%" overflow="visible" style="display: block;" viewBox="0 0 55.1479 44.759" fill="none" xmlns="http://www.w3.org/2000/svg">
<g id="Group">
<path id="Vector" d="M28.1834 0.154095C29.6038 0.180917 31.0233 0.292844 32.4305 0.494916H32.4314C34.039 0.729242 35.63 1.08061 37.1853 1.55156C40.2959 2.49252 43.269 3.92304 45.9031 5.84062L45.9041 5.8416C47.2196 6.80066 48.4498 7.88112 49.5555 9.08085C50.6606 10.28 51.6415 11.5973 52.4549 13.0144C52.861 13.7228 53.2262 14.4561 53.5437 15.2098C53.8609 15.9637 54.1271 16.7395 54.3435 17.5281C54.7765 19.1058 55.0002 20.7427 55.0008 22.3797C54.9996 24.0166 54.7765 25.653 54.3435 27.2312C54.1272 28.0196 53.8607 28.7948 53.5437 29.5486C53.3059 30.114 53.0409 30.6682 52.7518 31.2088L52.4549 31.7439C51.6414 33.1612 50.6607 34.4792 49.5555 35.6785C48.4498 36.8783 47.2196 37.9587 45.9041 38.9178H45.9031C43.2689 40.836 40.296 42.2658 37.1853 43.2068C35.63 43.6778 34.0391 44.0301 32.4314 44.2644H32.4305C31.0232 44.4665 29.6042 44.5785 28.1834 44.6053L27.574 44.6121C25.9505 44.6093 24.3258 44.4954 22.7176 44.2644H22.7166C21.1089 44.0301 19.5181 43.6778 17.9627 43.2068C14.852 42.2658 11.8782 40.8355 9.24394 38.9178C7.92839 37.9587 6.69829 36.8783 5.59257 35.6785C4.48734 34.4792 3.5066 33.1612 2.69316 31.7439C2.28704 31.0356 1.9218 30.3022 1.60429 29.5486C1.28728 28.7948 1.02084 28.0197 0.804485 27.2312C0.371575 25.6531 0.14783 24.0167 0.147258 22.3797C0.148383 20.7427 0.371567 19.1064 0.804485 17.5281C1.02089 16.7395 1.28718 15.9637 1.60429 15.2098C1.92127 14.4561 2.28645 13.7228 2.69316 13.0144C3.50656 11.5973 4.48743 10.28 5.59257 9.08085C6.69828 7.8811 7.9284 6.80068 9.24394 5.8416V5.84062C11.8782 3.92228 14.852 2.49257 17.9627 1.55156C19.518 1.08061 21.109 0.729237 22.7166 0.494916H22.7176C24.3259 0.263969 25.9499 0.150062 27.574 0.147259L28.1834 0.154095ZM26.9744 0.695111C25.5755 0.721203 24.178 0.831209 22.7937 1.03007L22.7947 1.03105C21.2132 1.26166 19.6478 1.60776 18.1189 2.07109C15.0625 2.99606 12.1441 4.40018 9.56327 6.2791C8.27427 7.21826 7.07047 8.27628 5.99101 9.44804C4.9116 10.6192 3.95558 11.9039 3.16386 13.284C2.76796 13.9738 2.41254 14.687 2.10429 15.4197C1.79667 16.1522 1.53722 16.9053 1.32695 17.6717C0.906578 19.2034 0.690357 20.7911 0.68925 22.3797C0.69038 23.9683 0.906548 25.5559 1.32695 27.0877C1.53723 27.8541 1.79666 28.6071 2.10429 29.3396C2.4125 30.0722 2.76803 30.7846 3.16386 31.4744C3.95567 32.8542 4.91148 34.14 5.99101 35.3113C7.07105 36.4831 8.27424 37.5405 9.56327 38.4803C12.1435 40.3597 15.0619 41.7633 18.1189 42.6883C19.6484 43.1516 21.2133 43.4977 22.7947 43.7283C24.377 43.9555 25.9751 44.0673 27.574 44.0701L28.1736 44.0633C29.5723 44.0372 30.9693 43.9271 32.3533 43.7283C33.9348 43.4977 35.5002 43.1516 37.0291 42.6883C40.0856 41.7633 43.0039 40.3592 45.5848 38.4803C46.8738 37.5411 48.0775 36.4831 49.157 35.3113C50.2366 34.14 51.1924 32.8547 51.9842 31.4744C52.38 30.7846 52.7355 30.0722 53.0437 29.3396C53.3514 28.6071 53.6108 27.8541 53.8211 27.0877C54.2415 25.5559 54.4567 23.9683 54.4578 22.3797C54.4567 20.7911 54.2414 19.2034 53.8211 17.6717C53.6108 16.9053 53.3514 16.1522 53.0437 15.4197C52.7355 14.687 52.3801 13.9739 51.9842 13.284C51.1924 11.9044 50.2364 10.6192 49.157 9.44804C48.077 8.2763 46.8737 7.21881 45.5848 6.2791C43.0045 4.39967 40.0861 2.99606 37.0291 2.07109C35.4997 1.60776 33.9348 1.26166 32.3533 1.03105C30.771 0.803825 29.1729 0.692045 27.574 0.689252L26.9744 0.695111Z" fill="var(--fill-0, white)" stroke="var(--stroke-0, white)" stroke-width="0.294719"/>
</g>
</svg>
