<svg preserveAspectRatio="none" width="100%" height="100%" overflow="visible" style="display: block;" viewBox="0 0 39.4252 49.9526" fill="none" xmlns="http://www.w3.org/2000/svg">
<g id="Group">
<g id="Vector">
<mask id="path-1-outside-1_0_4" maskUnits="userSpaceOnUse" x="-0.705281" y="-0.70528" width="41" height="51" fill="black">
<rect fill="white" x="-0.705281" y="-0.70528" width="41" height="51"/>
<path d="M6.17503 32.678C4.74213 30.2304 3.52787 27.6528 2.58246 24.9791C2.1117 23.6417 1.7062 22.2809 1.38605 20.9005C1.06477 19.5201 0.821585 18.1213 0.68047 16.7119C0.54047 15.3031 0.499195 13.8831 0.589553 12.4709C0.681027 11.0598 0.906925 9.65603 1.31019 8.30301C1.71569 6.95334 2.30636 5.65279 3.13074 4.51244C3.18038 4.43988 3.23448 4.37066 3.28803 4.30089C3.34157 4.23168 3.394 4.16079 3.44922 4.09269C3.56301 3.95873 3.6701 3.81974 3.79058 3.69192L3.96739 3.49656L4.15145 3.30845L4.24404 3.21468L4.33998 3.12481L4.53185 2.94508L4.73097 2.77316L4.83081 2.6872L4.934 2.60571L5.14037 2.44272L5.35344 2.28867L5.45997 2.21164L5.56985 2.13907L5.78961 1.99451L6.01551 1.85943L6.12818 1.79189L6.24364 1.72937L6.47511 1.60434L6.7116 1.48936L6.82985 1.43187C6.86945 1.41345 6.91017 1.3967 6.95032 1.37884L7.19184 1.27446C7.51813 1.14608 7.84721 1.0244 8.18633 0.932298C8.86012 0.736378 9.55732 0.624184 10.2573 0.570599C11.6607 0.470686 13.0774 0.633673 14.4445 0.975835C15.8143 1.31576 17.1385 1.83152 18.4046 2.45947C19.6719 3.08742 20.8822 3.82867 22.0368 4.64808C23.1919 5.46748 24.2879 6.36893 25.331 7.32788C25.8519 7.80791 26.3606 8.30134 26.8548 8.80984C27.3484 9.31834 27.8286 9.84023 28.2955 10.3727C30.1623 12.5066 31.8161 14.8264 33.2501 17.2735C34.683 19.7211 35.8973 22.2987 36.8427 24.9724C37.3135 26.3098 37.719 27.6706 38.0391 29.051C38.3604 30.4314 38.6036 31.8301 38.7447 33.2395C38.8847 34.6484 38.926 36.0684 38.8356 37.4806C38.7441 38.8916 38.5182 40.2954 38.115 41.6485C37.7095 42.9981 37.1188 44.2987 36.2944 45.439C36.2448 45.5116 36.1907 45.5808 36.1371 45.6506C36.0836 45.7198 36.0312 45.7907 35.9759 45.8588C35.8622 45.9928 35.7551 46.1317 35.6346 46.2596L35.4578 46.4549L35.2737 46.643L35.1811 46.7368L35.0852 46.8267L34.8933 47.0064L34.6942 47.1783L34.5943 47.2637L34.4912 47.3452L34.2848 47.5082L34.0717 47.6623L33.9652 47.7393L33.8553 47.8118L33.6355 47.9564L33.4097 48.0915L33.297 48.159L33.1815 48.2215L32.9501 48.3466L32.7136 48.4616L32.5953 48.5191C32.5557 48.5375 32.515 48.5542 32.4748 48.5721L32.2333 48.6765C31.907 48.8048 31.578 48.9265 31.2388 49.0186C30.565 49.2145 29.8678 49.3267 29.1678 49.3803C27.7645 49.4802 26.3478 49.3172 24.9807 48.9751C23.6108 48.6352 22.2867 48.1194 21.0205 47.4915C19.7533 46.8635 18.5429 46.1222 17.3884 45.3028C16.2332 44.4834 15.1372 43.582 14.0942 42.623C13.5732 42.143 13.0646 41.6496 12.5704 41.1411C12.0768 40.6326 11.5965 40.1107 11.1297 39.5782C9.26282 37.4443 7.60905 35.1245 6.17503 32.6775L5.9614 32.803C7.40323 35.2629 9.06537 37.595 10.9434 39.7417C11.4136 40.2776 11.8966 40.8028 12.393 41.3147C12.89 41.826 13.402 42.3227 13.9263 42.8061C14.976 43.7718 16.0804 44.6794 17.245 45.5055C18.4085 46.3316 19.63 47.0795 20.9107 47.7142C22.1902 48.3483 23.5305 48.8707 24.921 49.2162C26.3087 49.5634 27.7511 49.7303 29.1857 49.6282C29.9019 49.5734 30.6158 49.459 31.3069 49.2575C31.6544 49.1632 31.9924 49.0382 32.3276 48.9064L32.5752 48.7993C32.6165 48.7808 32.6578 48.7641 32.6991 48.7451L32.8207 48.686L33.0633 48.5676L33.3009 48.4392L33.4197 48.375L33.5357 48.3058L33.7677 48.1674L33.9931 48.0189L34.1057 47.9447L34.2151 47.866L34.4337 47.7075L34.6457 47.54L34.7516 47.4563L34.8543 47.3687L35.059 47.1923L35.2559 47.0075L35.354 46.9149L35.4488 46.8189L35.6379 46.6257L35.8192 46.4259C35.9425 46.2947 36.0524 46.1524 36.1689 46.0151C36.2253 45.9447 36.2788 45.8727 36.334 45.8019C36.3887 45.7304 36.4445 45.6595 36.4952 45.5853C36.9147 45.0009 37.2806 44.3791 37.5851 43.7293C37.8907 43.0802 38.1484 42.4081 38.352 41.721C38.7614 40.3468 38.9901 38.9246 39.0821 37.4979C39.1731 36.0706 39.1318 34.6372 38.9907 33.2167C38.8484 31.7955 38.6036 30.3861 38.2801 28.9963C37.9577 27.6059 37.5494 26.2367 37.0759 24.8915C36.1254 22.2016 34.9039 19.61 33.4638 17.1496C32.0219 14.6897 30.3598 12.3576 28.4818 10.2109C28.0116 9.67501 27.5286 9.14977 27.0321 8.63792C26.5352 8.12663 26.0232 7.62985 25.4988 7.14647C24.4491 6.18083 23.3448 5.27323 22.1801 4.44713C21.0166 3.62103 19.7951 2.87308 18.5145 2.23843C17.235 1.60434 15.8947 1.08189 14.5042 0.736378C13.1164 0.389192 11.674 0.222298 10.2395 0.324444C9.5233 0.379145 8.80936 0.493571 8.11829 0.695073C7.7708 0.789405 7.43279 0.914436 7.09758 1.04617L6.84993 1.15334C6.80865 1.17176 6.76738 1.1885 6.7261 1.20748L6.60451 1.26665L6.36188 1.38498L6.12427 1.51336L6.00547 1.57755L5.88945 1.64676L5.65742 1.78519L5.43208 1.93367L5.31942 2.0079L5.21009 2.08661L4.99145 2.24513L4.7795 2.41258L4.67352 2.49631L4.57089 2.58394L4.36619 2.76032L4.1693 2.94508L4.07113 3.03774L3.97631 3.13374L3.78723 3.32687L3.60596 3.5267C3.48269 3.65787 3.37281 3.80021 3.25624 3.93752C3.1999 4.00785 3.14636 4.07985 3.09114 4.15074C3.03648 4.22219 2.9807 4.29308 2.92994 4.36731C2.5105 4.95172 2.14461 5.57353 1.84007 6.22325C1.53441 6.87241 1.27672 7.54445 1.07314 8.23157C0.663739 9.6058 0.435053 11.028 0.343022 12.4547C0.252106 13.882 0.293381 15.3154 0.434496 16.7359C0.576727 18.1571 0.821586 19.5665 1.14509 20.9563C1.46748 22.3467 1.87577 23.7159 2.34931 25.0611C3.29974 27.751 4.52125 30.3426 5.9614 32.803L6.17503 32.6775V32.678Z"/>
</mask>
<path d="M6.17503 32.678C4.74213 30.2304 3.52787 27.6528 2.58246 24.9791C2.1117 23.6417 1.7062 22.2809 1.38605 20.9005C1.06477 19.5201 0.821585 18.1213 0.68047 16.7119C0.54047 15.3031 0.499195 13.8831 0.589553 12.4709C0.681027 11.0598 0.906925 9.65603 1.31019 8.30301C1.71569 6.95334 2.30636 5.65279 3.13074 4.51244C3.18038 4.43988 3.23448 4.37066 3.28803 4.30089C3.34157 4.23168 3.394 4.16079 3.44922 4.09269C3.56301 3.95873 3.6701 3.81974 3.79058 3.69192L3.96739 3.49656L4.15145 3.30845L4.24404 3.21468L4.33998 3.12481L4.53185 2.94508L4.73097 2.77316L4.83081 2.6872L4.934 2.60571L5.14037 2.44272L5.35344 2.28867L5.45997 2.21164L5.56985 2.13907L5.78961 1.99451L6.01551 1.85943L6.12818 1.79189L6.24364 1.72937L6.47511 1.60434L6.7116 1.48936L6.82985 1.43187C6.86945 1.41345 6.91017 1.3967 6.95032 1.37884L7.19184 1.27446C7.51813 1.14608 7.84721 1.0244 8.18633 0.932298C8.86012 0.736378 9.55732 0.624184 10.2573 0.570599C11.6607 0.470686 13.0774 0.633673 14.4445 0.975835C15.8143 1.31576 17.1385 1.83152 18.4046 2.45947C19.6719 3.08742 20.8822 3.82867 22.0368 4.64808C23.1919 5.46748 24.2879 6.36893 25.331 7.32788C25.8519 7.80791 26.3606 8.30134 26.8548 8.80984C27.3484 9.31834 27.8286 9.84023 28.2955 10.3727C30.1623 12.5066 31.8161 14.8264 33.2501 17.2735C34.683 19.7211 35.8973 22.2987 36.8427 24.9724C37.3135 26.3098 37.719 27.6706 38.0391 29.051C38.3604 30.4314 38.6036 31.8301 38.7447 33.2395C38.8847 34.6484 38.926 36.0684 38.8356 37.4806C38.7441 38.8916 38.5182 40.2954 38.115 41.6485C37.7095 42.9981 37.1188 44.2987 36.2944 45.439C36.2448 45.5116 36.1907 45.5808 36.1371 45.6506C36.0836 45.7198 36.0312 45.7907 35.9759 45.8588C35.8622 45.9928 35.7551 46.1317 35.6346 46.2596L35.4578 46.4549L35.2737 46.643L35.1811 46.7368L35.0852 46.8267L34.8933 47.0064L34.6942 47.1783L34.5943 47.2637L34.4912 47.3452L34.2848 47.5082L34.0717 47.6623L33.9652 47.7393L33.8553 47.8118L33.6355 47.9564L33.4097 48.0915L33.297 48.159L33.1815 48.2215L32.9501 48.3466L32.7136 48.4616L32.5953 48.5191C32.5557 48.5375 32.515 48.5542 32.4748 48.5721L32.2333 48.6765C31.907 48.8048 31.578 48.9265 31.2388 49.0186C30.565 49.2145 29.8678 49.3267 29.1678 49.3803C27.7645 49.4802 26.3478 49.3172 24.9807 48.9751C23.6108 48.6352 22.2867 48.1194 21.0205 47.4915C19.7533 46.8635 18.5429 46.1222 17.3884 45.3028C16.2332 44.4834 15.1372 43.582 14.0942 42.623C13.5732 42.143 13.0646 41.6496 12.5704 41.1411C12.0768 40.6326 11.5965 40.1107 11.1297 39.5782C9.26282 37.4443 7.60905 35.1245 6.17503 32.6775L5.9614 32.803C7.40323 35.2629 9.06537 37.595 10.9434 39.7417C11.4136 40.2776 11.8966 40.8028 12.393 41.3147C12.89 41.826 13.402 42.3227 13.9263 42.8061C14.976 43.7718 16.0804 44.6794 17.245 45.5055C18.4085 46.3316 19.63 47.0795 20.9107 47.7142C22.1902 48.3483 23.5305 48.8707 24.921 49.2162C26.3087 49.5634 27.7511 49.7303 29.1857 49.6282C29.9019 49.5734 30.6158 49.459 31.3069 49.2575C31.6544 49.1632 31.9924 49.0382 32.3276 48.9064L32.5752 48.7993C32.6165 48.7808 32.6578 48.7641 32.6991 48.7451L32.8207 48.686L33.0633 48.5676L33.3009 48.4392L33.4197 48.375L33.5357 48.3058L33.7677 48.1674L33.9931 48.0189L34.1057 47.9447L34.2151 47.866L34.4337 47.7075L34.6457 47.54L34.7516 47.4563L34.8543 47.3687L35.059 47.1923L35.2559 47.0075L35.354 46.9149L35.4488 46.8189L35.6379 46.6257L35.8192 46.4259C35.9425 46.2947 36.0524 46.1524 36.1689 46.0151C36.2253 45.9447 36.2788 45.8727 36.334 45.8019C36.3887 45.7304 36.4445 45.6595 36.4952 45.5853C36.9147 45.0009 37.2806 44.3791 37.5851 43.7293C37.8907 43.0802 38.1484 42.4081 38.352 41.721C38.7614 40.3468 38.9901 38.9246 39.0821 37.4979C39.1731 36.0706 39.1318 34.6372 38.9907 33.2167C38.8484 31.7955 38.6036 30.3861 38.2801 28.9963C37.9577 27.6059 37.5494 26.2367 37.0759 24.8915C36.1254 22.2016 34.9039 19.61 33.4638 17.1496C32.0219 14.6897 30.3598 12.3576 28.4818 10.2109C28.0116 9.67501 27.5286 9.14977 27.0321 8.63792C26.5352 8.12663 26.0232 7.62985 25.4988 7.14647C24.4491 6.18083 23.3448 5.27323 22.1801 4.44713C21.0166 3.62103 19.7951 2.87308 18.5145 2.23843C17.235 1.60434 15.8947 1.08189 14.5042 0.736378C13.1164 0.389192 11.674 0.222298 10.2395 0.324444C9.5233 0.379145 8.80936 0.493571 8.11829 0.695073C7.7708 0.789405 7.43279 0.914436 7.09758 1.04617L6.84993 1.15334C6.80865 1.17176 6.76738 1.1885 6.7261 1.20748L6.60451 1.26665L6.36188 1.38498L6.12427 1.51336L6.00547 1.57755L5.88945 1.64676L5.65742 1.78519L5.43208 1.93367L5.31942 2.0079L5.21009 2.08661L4.99145 2.24513L4.7795 2.41258L4.67352 2.49631L4.57089 2.58394L4.36619 2.76032L4.1693 2.94508L4.07113 3.03774L3.97631 3.13374L3.78723 3.32687L3.60596 3.5267C3.48269 3.65787 3.37281 3.80021 3.25624 3.93752C3.1999 4.00785 3.14636 4.07985 3.09114 4.15074C3.03648 4.22219 2.9807 4.29308 2.92994 4.36731C2.5105 4.95172 2.14461 5.57353 1.84007 6.22325C1.53441 6.87241 1.27672 7.54445 1.07314 8.23157C0.663739 9.6058 0.435053 11.028 0.343022 12.4547C0.252106 13.882 0.293381 15.3154 0.434496 16.7359C0.576727 18.1571 0.821586 19.5665 1.14509 20.9563C1.46748 22.3467 1.87577 23.7159 2.34931 25.0611C3.29974 27.751 4.52125 30.3426 5.9614 32.803L6.17503 32.6775V32.678Z" fill="var(--fill-0, white)"/>
<path d="M6.17503 32.6775L6.10035 32.5504L5.88672 32.676L5.9614 32.803L6.03608 32.9301L6.24971 32.8045L6.17503 32.6775ZM6.17503 32.678L5.92069 32.8269L6.46975 33.7648V32.678H6.17503ZM2.58246 24.9791L2.30446 25.0769L2.3046 25.0773L2.58246 24.9791ZM1.38605 20.9005L1.67314 20.8339L1.67309 20.8337L1.38605 20.9005ZM0.68047 16.7119L0.387195 16.7411L0.387217 16.7413L0.68047 16.7119ZM0.589553 12.4709L0.295452 12.4519L0.295436 12.4521L0.589553 12.4709ZM1.31019 8.30302L1.02793 8.21821L1.02775 8.21883L1.31019 8.30302ZM3.13074 4.51244L3.36966 4.68516L3.37398 4.67885L3.13074 4.51244ZM3.28803 4.30089L3.05492 4.12055L3.05422 4.12146L3.28803 4.30089ZM3.44922 4.09269L3.22454 3.90185L3.22031 3.90707L3.44922 4.09269ZM3.79058 3.69192L4.00509 3.89411L4.00909 3.88969L3.79058 3.69192ZM3.96739 3.49656L3.75658 3.29028L3.74887 3.29879L3.96739 3.49656ZM4.15145 3.30845L3.94173 3.10139L3.94081 3.10233L4.15145 3.30845ZM4.24404 3.21468L4.04241 2.99942L4.03432 3.00761L4.24404 3.21468ZM4.33998 3.12481L4.54146 3.33991L4.54146 3.3399L4.33998 3.12481ZM4.53185 2.94508L4.33909 2.72182L4.33037 2.72999L4.53185 2.94508ZM4.73097 2.77316L4.53868 2.54982L4.53837 2.55009L4.73097 2.77316ZM4.83081 2.6872L4.64798 2.45571L4.63852 2.46386L4.83081 2.6872ZM4.934 2.60571L4.75133 2.37442L4.75133 2.37442L4.934 2.60571ZM5.14037 2.44272L4.96753 2.20368L4.95771 2.21144L5.14037 2.44272ZM5.35344 2.28867L5.52612 2.5275L5.52613 2.52749L5.35344 2.28867ZM5.45997 2.21164L5.29742 1.96548L5.28728 1.97281L5.45997 2.21164ZM5.56985 2.13907L5.40788 1.89285L5.40744 1.89314L5.56985 2.13907ZM5.78961 1.99451L5.63822 1.74133L5.62764 1.74829L5.78961 1.99451ZM6.01551 1.85943L6.16676 2.11237L6.16704 2.11221L6.01551 1.85943ZM6.12818 1.79189L5.98772 1.53247L5.97665 1.53911L6.12818 1.79189ZM6.24364 1.72937L6.10357 1.47007L6.10331 1.47021L6.24364 1.72937ZM6.47511 1.60434L6.34612 1.33905L6.33504 1.34503L6.47511 1.60434ZM6.7116 1.48936L6.84047 1.75441L6.84047 1.75441L6.7116 1.48936ZM6.82985 1.43187L6.70553 1.1646L6.70098 1.16681L6.82985 1.43187ZM6.95032 1.37884L6.8334 1.10829L6.83055 1.10955L6.95032 1.37884ZM7.19184 1.27446L7.08387 1.00005L7.07492 1.00393L7.19184 1.27446ZM8.18633 0.932298L8.26359 1.21676L8.26862 1.2153L8.18633 0.932298ZM10.2573 0.570599L10.2364 0.27662L10.2348 0.27674L10.2573 0.570599ZM14.4445 0.975835L14.3729 1.26174L14.3735 1.26188L14.4445 0.975835ZM18.4046 2.45947L18.2737 2.7235L18.2738 2.72354L18.4046 2.45947ZM22.0368 4.64808L21.8662 4.88842L21.8663 4.88846L22.0368 4.64808ZM25.331 7.32788L25.5307 7.11114L25.5304 7.11092L25.331 7.32788ZM26.8548 8.80984L27.0663 8.60456L27.0661 8.60444L26.8548 8.80984ZM28.2955 10.3727L28.5173 10.1787L28.5171 10.1784L28.2955 10.3727ZM33.2501 17.2735L33.5045 17.1246L33.5044 17.1245L33.2501 17.2735ZM36.8427 24.9724L37.1207 24.8745L37.1206 24.8741L36.8427 24.9724ZM38.0391 29.051L37.752 29.1176L37.7521 29.1178L38.0391 29.051ZM38.7447 33.2395L39.038 33.2104L39.0379 33.2102L38.7447 33.2395ZM38.8356 37.4806L39.1297 37.4996L39.1297 37.4994L38.8356 37.4806ZM38.115 41.6485L38.3972 41.7333L38.3974 41.7326L38.115 41.6485ZM36.2944 45.439L36.0555 45.2663L36.0512 45.2726L36.2944 45.439ZM36.1371 45.6506L36.3702 45.8309L36.3709 45.83L36.1371 45.6506ZM35.9759 45.8588L36.2006 46.0496L36.2049 46.0444L35.9759 45.8588ZM35.6346 46.2596L35.4201 46.0574L35.4161 46.0618L35.6346 46.2596ZM35.4578 46.4549L35.6686 46.6612L35.6763 46.6527L35.4578 46.4549ZM35.2737 46.643L35.4834 46.8501L35.4844 46.8491L35.2737 46.643ZM35.1811 46.7368L35.3828 46.952L35.3908 46.9439L35.1811 46.7368ZM35.0852 46.8267L34.8837 46.6116V46.6116L35.0852 46.8267ZM34.8933 47.0064L35.0861 47.2297L35.0948 47.2215L34.8933 47.0064ZM34.6942 47.1783L34.8858 47.4023L34.8868 47.4014L34.6942 47.1783ZM34.5943 47.2637L34.7772 47.4952L34.7859 47.4877L34.5943 47.2637ZM34.4912 47.3452L34.6738 47.5765H34.6738L34.4912 47.3452ZM34.2848 47.5082L34.4576 47.7472L34.4675 47.7395L34.2848 47.5082ZM34.0717 47.6623L33.899 47.4234L33.899 47.4234L34.0717 47.6623ZM33.9652 47.7393L34.1277 47.9854L34.1379 47.9781L33.9652 47.7393ZM33.8553 47.8118L34.0173 48.0581L34.0177 48.0578L33.8553 47.8118ZM33.6356 47.9564L33.7869 48.2096L33.7975 48.2026L33.6356 47.9564ZM33.4097 48.0915L33.2584 47.8385L33.2581 47.8387L33.4097 48.0915ZM33.297 48.159L33.4374 48.4184L33.4485 48.4118L33.297 48.159ZM33.1815 48.2216L33.3216 48.4809L33.3219 48.4807L33.1815 48.2216ZM32.9501 48.3466L33.079 48.6119L33.0901 48.6059L32.9501 48.3466ZM32.7136 48.4616L32.8424 48.7266H32.8424L32.7136 48.4616ZM32.5953 48.5191L32.7196 48.7863L32.7242 48.7841L32.5953 48.5191ZM32.4748 48.5721L32.5918 48.8426L32.5946 48.8414L32.4748 48.5721ZM32.2333 48.6765L32.3413 48.9509L32.3502 48.947L32.2333 48.6765ZM31.2388 49.0186L31.1616 48.7342L31.1565 48.7356L31.2388 49.0186ZM29.1678 49.3803L29.1888 49.6743L29.1903 49.6742L29.1678 49.3803ZM24.9807 48.9751L25.0522 48.6892L25.0517 48.689L24.9807 48.9751ZM21.0205 47.4915L21.1515 47.2274L21.1514 47.2274L21.0205 47.4915ZM17.3884 45.3028L17.5589 45.0625L17.5589 45.0625L17.3884 45.3028ZM14.0942 42.623L13.8945 42.8398L13.8947 42.84L14.0942 42.623ZM12.5704 41.1411L12.3589 41.3464L12.359 41.3465L12.5704 41.1411ZM11.1297 39.5782L10.9079 39.7722L10.9081 39.7725L11.1297 39.5782ZM6.17503 32.6775L6.4293 32.5284L5.88031 31.5916V32.6775H6.17503ZM5.9614 32.803L5.70705 32.9519L5.70714 32.9521L5.9614 32.803ZM10.9434 39.7417L10.7216 39.9358L10.7218 39.9361L10.9434 39.7417ZM12.393 41.3147L12.1814 41.5199L12.1817 41.5201L12.393 41.3147ZM13.9263 42.8061L13.7265 43.0228L13.7268 43.023L13.9263 42.8061ZM17.245 45.5055L17.4156 45.2652L17.4155 45.2651L17.245 45.5055ZM20.9107 47.7142L20.7798 47.9782V47.9782L20.9107 47.7142ZM24.921 49.2162L24.9925 48.9303L24.9921 48.9302L24.921 49.2162ZM29.1857 49.6282L29.2066 49.9221L29.2081 49.922L29.1857 49.6282ZM31.3069 49.2575L31.2296 48.973L31.2244 48.9746L31.3069 49.2575ZM32.3276 48.9064L32.4354 49.1809L32.4446 49.1769L32.3276 48.9064ZM32.5752 48.7993L32.6923 49.0698L32.6953 49.0684L32.5752 48.7993ZM32.6991 48.7451L32.8222 49.013L32.828 49.0101L32.6991 48.7451ZM32.8207 48.686L32.9496 48.951L32.9499 48.9508L32.8207 48.686ZM33.0633 48.5676L33.1926 48.8327L33.2034 48.8269L33.0633 48.5676ZM33.3009 48.4392L33.1608 48.1799L33.1608 48.1799L33.3009 48.4392ZM33.4197 48.375L33.5599 48.6346L33.5707 48.6281L33.4197 48.375ZM33.5357 48.3058L33.3847 48.0527L33.3847 48.0527L33.5357 48.3058ZM33.7677 48.1674L33.9189 48.4208L33.9299 48.4135L33.7677 48.1674ZM33.9931 48.0189L34.1552 48.265V48.265L33.9931 48.0189ZM34.1058 47.9447L34.268 48.191L34.2779 48.1839L34.1058 47.9447ZM34.2151 47.866L34.3873 48.1052L34.3881 48.1046L34.2151 47.866ZM34.4337 47.7075L34.6069 47.9463L34.6164 47.9387L34.4337 47.7075ZM34.7516 47.4563L34.9345 47.6877L34.943 47.6804L34.7516 47.4563ZM34.8543 47.3687L35.0457 47.5928L35.0466 47.5919L34.8543 47.3687ZM35.059 47.1923L35.2515 47.4157L35.2606 47.4072L35.059 47.1923ZM35.2559 47.0075L35.4575 47.2224L35.4582 47.2218L35.2559 47.0075ZM35.354 46.9149L35.5565 47.1293L35.5637 47.122L35.354 46.9149ZM35.4488 46.8189L35.6585 47.026L35.6594 47.025L35.4488 46.8189ZM35.6379 46.6257L35.8487 46.8321L35.8562 46.8237L35.6379 46.6257ZM35.8192 46.4259L35.6044 46.224L35.6009 46.2279L35.8192 46.4259ZM36.1689 46.0151L36.3937 46.2059L36.399 46.1993L36.1689 46.0151ZM36.334 45.8019L36.5665 45.983L36.5681 45.9809L36.334 45.8019ZM36.4952 45.5853L36.2557 45.4134L36.2519 45.4189L36.4952 45.5853ZM37.5851 43.7293L37.3185 43.6038L37.3182 43.6043L37.5851 43.7293ZM38.352 41.721L38.0696 41.6369L38.0694 41.6373L38.352 41.721ZM39.0821 37.4979L39.3763 37.5168L39.3763 37.5166L39.0821 37.4979ZM38.9907 33.2167L39.2839 33.1875L39.2839 33.1873L38.9907 33.2167ZM38.2801 28.9963L37.993 29.0629L37.993 29.0631L38.2801 28.9963ZM37.0759 24.8915L37.3539 24.7936L37.3537 24.7933L37.0759 24.8915ZM33.4638 17.1495L33.7181 17.0007L33.718 17.0005L33.4638 17.1495ZM28.4818 10.2109L28.7036 10.0168L28.7033 10.0165L28.4818 10.2109ZM27.0321 8.63792L27.2437 8.43274L27.2435 8.4325L27.0321 8.63792ZM25.4988 7.14647L25.6986 6.92979L25.6984 6.92957L25.4988 7.14647ZM22.1801 4.44713L22.0095 4.68744L22.0096 4.68752L22.1801 4.44713ZM18.5145 2.23843L18.6454 1.97436L18.6454 1.97436L18.5145 2.23843ZM14.5042 0.736378L14.4326 1.02229L14.4331 1.0224L14.5042 0.736378ZM10.2395 0.324444L10.2185 0.0304652L10.217 0.0305808L10.2395 0.324444ZM8.11829 0.695073L8.19551 0.979547L8.20079 0.97801L8.11829 0.695073ZM7.09758 1.04617L6.98972 0.771707L6.98053 0.775687L7.09758 1.04617ZM6.84993 1.15334L6.73287 0.882839L6.72982 0.884201L6.84993 1.15334ZM6.7261 1.20748L6.60295 0.939644L6.59715 0.942468L6.7261 1.20748ZM6.60451 1.26665L6.47556 1.00163L6.47532 1.00175L6.60451 1.26665ZM6.36188 1.38498L6.23258 1.11986L6.22179 1.12569L6.36188 1.38498ZM6.12427 1.51336L6.26437 1.77265L6.26437 1.77265L6.12427 1.51336ZM6.00547 1.57755L5.86525 1.31802L5.85447 1.32445L6.00547 1.57755ZM5.88945 1.64676L5.73846 1.39366L5.73845 1.39366L5.88945 1.64676ZM5.65742 1.78519L5.50627 1.53184L5.49527 1.53909L5.65742 1.78519ZM5.43208 1.93367L5.26993 1.68757L5.26993 1.68757L5.43208 1.93367ZM5.31942 2.0079L5.15712 1.76159L5.14723 1.76872L5.31942 2.0079ZM5.21009 2.08661L5.0379 1.84742L5.0371 1.848L5.21009 2.08661ZM4.99145 2.24513L4.81831 2.00632L4.80875 2.01387L4.99145 2.24513ZM4.7795 2.41258L4.9622 2.64384L4.9622 2.64384L4.7795 2.41258ZM4.67352 2.49631L4.49069 2.26488L4.48214 2.27218L4.67352 2.49631ZM4.57089 2.58394L4.37951 2.35981L4.37851 2.36067L4.57089 2.58394ZM4.36619 2.76032L4.17364 2.53686L4.16452 2.54541L4.36619 2.76032ZM4.1693 2.94508L3.96763 2.73017L3.96701 2.73076L4.1693 2.94508ZM4.07113 3.03774L3.86871 2.82328L3.86145 2.83064L4.07113 3.03774ZM3.97631 3.13374L3.76662 2.92664L3.76572 2.92756L3.97631 3.13374ZM3.78723 3.32687L3.57649 3.12054L3.56895 3.12886L3.78723 3.32687ZM3.60596 3.5267L3.82076 3.72856L3.82424 3.72472L3.60596 3.5267ZM3.25624 3.93752L3.03147 3.7467L3.02621 3.75327L3.25624 3.93752ZM3.09114 4.15074L2.85863 3.96962L2.85707 3.97166L3.09114 4.15074ZM2.92994 4.36731L3.16944 4.5392L3.17323 4.53365L2.92994 4.36731ZM1.84007 6.22325L2.10671 6.3488L2.10693 6.34833L1.84007 6.22325ZM1.07314 8.23157L1.35559 8.31571L1.35572 8.31529L1.07314 8.23157ZM0.343022 12.4547L0.0489138 12.4358L0.0488987 12.436L0.343022 12.4547ZM0.434496 16.7359L0.141221 16.7651L0.141242 16.7653L0.434496 16.7359ZM1.14509 20.9563L1.43219 20.8897L1.43214 20.8895L1.14509 20.9563ZM2.34931 25.0611L2.07131 25.159L2.07143 25.1593L2.34931 25.0611ZM6.17503 32.678L6.42937 32.5291C5.00533 30.0967 3.79915 27.5359 2.86032 24.8808L2.58246 24.9791L2.3046 25.0773C3.25659 27.7696 4.47892 30.3642 5.92069 32.8269L6.17503 32.678ZM2.58246 24.9791L2.86046 24.8812C2.39287 23.5529 1.99057 22.2025 1.67314 20.8339L1.38605 20.9005L1.09895 20.9671C1.42184 22.3592 1.83053 23.7305 2.30446 25.0769L2.58246 24.9791ZM1.38605 20.9005L1.67309 20.8337C1.35433 19.4641 1.11342 18.0779 0.973722 16.6826L0.68047 16.7119L0.387217 16.7413C0.529745 18.1648 0.775219 19.5762 1.099 20.9673L1.38605 20.9005ZM0.68047 16.7119L0.973744 16.6828C0.835096 15.2876 0.794476 13.8837 0.883671 12.4897L0.589553 12.4709L0.295436 12.4521C0.203915 13.8825 0.245845 15.3187 0.387195 16.7411L0.68047 16.7119ZM0.589553 12.4709L0.883655 12.49C0.973935 11.0973 1.19665 9.71577 1.59263 8.3872L1.31019 8.30302L1.02775 8.21883C0.617198 9.5963 0.388119 11.0224 0.295452 12.4519L0.589553 12.4709ZM1.31019 8.30302L1.59245 8.38782C1.99047 7.06301 2.56816 5.79371 3.36958 4.6851L3.13074 4.51244L2.89189 4.33978C2.04456 5.51188 1.4409 6.84368 1.02793 8.21821L1.31019 8.30302ZM3.13074 4.51244L3.37398 4.67885C3.41791 4.61464 3.46578 4.55335 3.52183 4.48032L3.28803 4.30089L3.05422 4.12146C3.00318 4.18797 2.94285 4.26512 2.88749 4.34603L3.13074 4.51244ZM3.28803 4.30089L3.52113 4.48123C3.58018 4.4049 3.62547 4.34327 3.67814 4.27832L3.44922 4.09269L3.22031 3.90707C3.16254 3.97831 3.10297 4.05845 3.05492 4.12056L3.28803 4.30089ZM3.44922 4.09269L3.67385 4.28348C3.80033 4.13458 3.89092 4.01515 4.00504 3.89407L3.79058 3.69192L3.57611 3.48978C3.44928 3.62434 3.32569 3.78288 3.2246 3.9019L3.44922 4.09269ZM3.79058 3.69192L4.00909 3.88969L4.1859 3.69432L3.96739 3.49656L3.74887 3.29879L3.57206 3.49416L3.79058 3.69192ZM3.96739 3.49656L4.17803 3.70268L4.3621 3.51458L4.15145 3.30845L3.94081 3.10233L3.75674 3.29044L3.96739 3.49656ZM4.15145 3.30845L4.36117 3.51552L4.45376 3.42175L4.24404 3.21468L4.03432 3.00761L3.94173 3.10139L4.15145 3.30845ZM4.24404 3.21468L4.44552 3.42977L4.54146 3.33991L4.33998 3.12481L4.1385 2.90972L4.04256 2.99959L4.24404 3.21468ZM4.33998 3.12481L4.54146 3.3399L4.73333 3.16017L4.53185 2.94508L4.33037 2.72999L4.1385 2.90972L4.33998 3.12481ZM4.53185 2.94508L4.72445 3.16816L4.92357 2.99624L4.73097 2.77316L4.53837 2.55009L4.33925 2.722L4.53185 2.94508ZM4.73097 2.77316L4.92326 2.99651L5.0231 2.91055L4.83081 2.6872L4.63852 2.46386L4.53868 2.54982L4.73097 2.77316ZM4.83081 2.6872L5.01348 2.91849L5.11666 2.83699L4.934 2.60571L4.75133 2.37442L4.64815 2.45592L4.83081 2.6872ZM4.934 2.60571L5.11666 2.837L5.32303 2.67401L5.14037 2.44272L4.95771 2.21144L4.75133 2.37442L4.934 2.60571ZM5.14037 2.44272L5.31306 2.68155L5.52612 2.5275L5.35344 2.28867L5.18076 2.04984L4.96769 2.20389L5.14037 2.44272ZM5.35344 2.28867L5.52613 2.52749L5.63266 2.45047L5.45997 2.21164L5.28728 1.97281L5.18075 2.04984L5.35344 2.28867ZM5.45997 2.21164L5.62238 2.45757L5.73226 2.38501L5.56985 2.13907L5.40744 1.89314L5.29756 1.9657L5.45997 2.21164ZM5.56985 2.13907L5.73183 2.38529L5.95159 2.24073L5.78961 1.99451L5.62764 1.74829L5.40788 1.89286L5.56985 2.13907ZM5.78961 1.99451L5.94087 2.24745L6.16676 2.11237L6.01551 1.85943L5.86425 1.60648L5.63836 1.74156L5.78961 1.99451ZM6.01551 1.85943L6.16704 2.11221L6.27971 2.04467L6.12818 1.79189L5.97665 1.53911L5.86398 1.60665L6.01551 1.85943ZM6.12818 1.79189L6.26851 2.05106L6.38396 1.98854L6.24364 1.72937L6.10331 1.47021L5.98785 1.53272L6.12818 1.79189ZM6.24364 1.72937L6.3837 1.98868L6.61517 1.86365L6.47511 1.60434L6.33504 1.34503L6.10357 1.47007L6.24364 1.72937ZM6.47511 1.60434L6.60398 1.86939L6.84047 1.75441L6.7116 1.48936L6.58273 1.22431L6.34624 1.33929L6.47511 1.60434ZM6.7116 1.48936L6.84047 1.75441L6.95872 1.69692L6.82985 1.43187L6.70098 1.16681L6.58273 1.22431L6.7116 1.48936ZM6.82985 1.43187L6.95414 1.69909C6.99285 1.68108 7.01759 1.67148 7.07009 1.64812L6.95032 1.37884L6.83055 1.10955C6.80275 1.12192 6.74604 1.14581 6.70555 1.16464L6.82985 1.43187ZM6.95032 1.37884L7.06725 1.64937L7.30876 1.54499L7.19184 1.27446L7.07492 1.00393L6.8334 1.1083L6.95032 1.37884ZM7.19184 1.27446L7.29974 1.54871C7.62323 1.42144 7.94032 1.3045 8.26358 1.21671L8.18633 0.932298L8.10909 0.647881C7.7541 0.74429 7.41304 0.870718 7.08393 1.0002L7.19184 1.27446ZM8.18633 0.932298L8.26862 1.2153C8.91924 1.02611 9.59588 0.916814 10.2798 0.864459L10.2573 0.570599L10.2348 0.27674C9.51877 0.331555 8.80099 0.446645 8.10404 0.6493L8.18633 0.932298ZM10.2573 0.570599L10.2783 0.864574C11.6452 0.76725 13.0304 0.925726 14.3729 1.26174L14.4445 0.975835L14.516 0.689935C13.1244 0.341621 11.6761 0.174122 10.2364 0.276624L10.2573 0.570599ZM14.4445 0.975835L14.3735 1.26188C15.719 1.59577 17.023 2.10322 18.2737 2.7235L18.4046 2.45947L18.5356 2.19544C17.254 1.55982 15.9097 1.03576 14.5155 0.689792L14.4445 0.975835ZM18.4046 2.45947L18.2738 2.72354C19.5253 3.34371 20.7224 4.07666 21.8662 4.88842L22.0368 4.64808L22.2074 4.40773C21.042 3.58068 19.8184 2.83112 18.5355 2.19539L18.4046 2.45947ZM22.0368 4.64808L21.8663 4.88846C23.01 5.69978 24.0964 6.59319 25.1315 7.54484L25.331 7.32788L25.5304 7.11092C24.4795 6.14468 23.3738 5.23518 22.2073 4.4077L22.0368 4.64808ZM25.331 7.32788L25.1312 7.54462C25.6485 8.02124 26.1533 8.51089 26.6434 9.01524L26.8548 8.80984L27.0661 8.60444C26.5679 8.09179 26.0553 7.59459 25.5307 7.11114L25.331 7.32788ZM26.8548 8.80984L26.6433 9.01512C27.1333 9.51986 27.6101 10.0381 28.0739 10.567L28.2955 10.3727L28.5171 10.1784C28.0471 9.64239 27.5635 9.11682 27.0663 8.60456L26.8548 8.80984ZM28.2955 10.3727L28.0737 10.5668C29.9277 12.686 31.5707 14.9906 32.9959 17.4225L33.2501 17.2735L33.5044 17.1245C32.0615 14.6623 30.397 12.3273 28.5173 10.1787L28.2955 10.3727ZM33.2501 17.2735L32.9958 17.4224C34.4198 19.8548 35.626 22.4156 36.5648 25.0706L36.8427 24.9724L37.1206 24.8741C36.1686 22.1819 34.9462 19.5873 33.5045 17.1246L33.2501 17.2735ZM36.8427 24.9724L36.5647 25.0702C37.0323 26.3986 37.4346 27.749 37.752 29.1176L38.0391 29.051L38.3262 28.9844C38.0033 27.5922 37.5946 26.2209 37.1207 24.8745L36.8427 24.9724ZM38.0391 29.051L37.7521 29.1178C38.0708 30.4874 38.3117 31.8736 38.4514 33.2689L38.7447 33.2395L39.0379 33.2102C38.8954 31.7867 38.6499 30.3753 38.3262 28.9842L38.0391 29.051ZM38.7447 33.2395L38.4514 33.2687C38.5901 34.6639 38.6307 36.0677 38.5415 37.4617L38.8356 37.4806L39.1297 37.4994C39.2212 36.069 39.1793 34.6328 39.038 33.2104L38.7447 33.2395ZM38.8356 37.4806L38.5415 37.4615C38.4512 38.8542 38.2285 40.2357 37.8325 41.5643L38.115 41.6485L38.3974 41.7326C38.808 40.3552 39.037 38.9291 39.1297 37.4996L38.8356 37.4806ZM38.115 41.6485L37.8327 41.5637C37.4347 42.8885 36.857 44.1578 36.0556 45.2664L36.2944 45.439L36.5333 45.6117C37.3806 44.4396 37.9843 43.1078 38.3972 41.7333L38.115 41.6485ZM36.2944 45.439L36.0512 45.2726C36.0073 45.3368 35.9594 45.3981 35.9033 45.4712L36.1371 45.6506L36.3709 45.83C36.422 45.7635 36.4823 45.6864 36.5377 45.6054L36.2944 45.439ZM36.1371 45.6506L35.904 45.4703C35.845 45.5466 35.7997 45.6082 35.747 45.6732L35.9759 45.8588L36.2049 46.0444C36.2626 45.9732 36.3222 45.893 36.3702 45.8309L36.1371 45.6506ZM35.9759 45.8588L35.7513 45.668C35.6248 45.8169 35.5342 45.9363 35.4201 46.0574L35.6346 46.2596L35.8491 46.4617C35.9759 46.3271 36.0995 46.1686 36.2006 46.0496L35.9759 45.8588ZM35.6346 46.2596L35.4161 46.0618L35.2393 46.2572L35.4578 46.4549L35.6763 46.6527L35.8531 46.4573L35.6346 46.2596ZM35.4578 46.4549L35.2471 46.2488L35.0631 46.4369L35.2737 46.643L35.4844 46.8491L35.6684 46.661L35.4578 46.4549ZM35.2737 46.643L35.064 46.436L34.9714 46.5297L35.1811 46.7368L35.3908 46.9439L35.4834 46.8501L35.2737 46.643ZM35.1811 46.7368L34.9796 46.5217L34.8837 46.6116L35.0852 46.8267L35.2867 47.0418L35.3826 46.9519L35.1811 46.7368ZM35.0852 46.8267L34.8837 46.6116L34.6918 46.7913L34.8933 47.0064L35.0948 47.2215L35.2867 47.0418L35.0852 46.8267ZM34.8933 47.0064L34.7007 46.7833L34.5016 46.9552L34.6942 47.1783L34.8868 47.4014L35.0859 47.2295L34.8933 47.0064ZM34.6942 47.1783L34.5026 46.9543L34.4028 47.0397L34.5943 47.2637L34.7859 47.4877L34.8858 47.4023L34.6942 47.1783ZM34.5943 47.2637L34.4117 47.0324L34.3085 47.1139L34.4912 47.3452L34.6738 47.5765L34.777 47.495L34.5943 47.2637ZM34.4912 47.3452L34.3085 47.1139L34.1021 47.2769L34.2848 47.5082L34.4675 47.7395L34.6738 47.5765L34.4912 47.3452ZM34.2848 47.5082L34.1121 47.2694L33.899 47.4234L34.0717 47.6623L34.2444 47.9011L34.4575 47.747L34.2848 47.5082ZM34.0717 47.6623L33.899 47.4234L33.7925 47.5005L33.9652 47.7393L34.1379 47.9781L34.2444 47.9011L34.0717 47.6623ZM33.9652 47.7393L33.8028 47.4933L33.6929 47.5659L33.8553 47.8118L34.0177 48.0578L34.1276 47.9852L33.9652 47.7393ZM33.8553 47.8118L33.6933 47.5656L33.4736 47.7102L33.6356 47.9564L33.7975 48.2026L34.0173 48.0581L33.8553 47.8118ZM33.6356 47.9564L33.4843 47.7035L33.2584 47.8385L33.4097 48.0915L33.5609 48.3444L33.7868 48.2094L33.6356 47.9564ZM33.4097 48.0915L33.2581 47.8387L33.1454 47.9063L33.297 48.159L33.4485 48.4118L33.5612 48.3443L33.4097 48.0915ZM33.297 48.159L33.1567 47.8999L33.0412 47.9624L33.1815 48.2216L33.3219 48.4807L33.4373 48.4182L33.297 48.159ZM33.1815 48.2216L33.0415 47.9622L32.81 48.0873L32.9501 48.3466L33.0901 48.6059L33.3216 48.4809L33.1815 48.2216ZM32.9501 48.3466L32.8212 48.0815L32.5847 48.1965L32.7136 48.4616L32.8424 48.7266L33.0789 48.6116L32.9501 48.3466ZM32.7136 48.4616L32.5847 48.1965L32.4664 48.254L32.5953 48.5191L32.7242 48.7841L32.8424 48.7266L32.7136 48.4616ZM32.5953 48.5191L32.471 48.2518C32.4323 48.2698 32.4076 48.2794 32.3551 48.3028L32.4748 48.5721L32.5946 48.8414C32.6224 48.829 32.6791 48.8051 32.7196 48.7863L32.5953 48.5191ZM32.4748 48.5721L32.3579 48.3015L32.1164 48.4059L32.2333 48.6765L32.3502 48.947L32.5918 48.8426L32.4748 48.5721ZM32.2333 48.6765L32.1254 48.4022C31.8019 48.5295 31.4848 48.6464 31.1616 48.7342L31.2388 49.0186L31.3161 49.303C31.6711 49.2066 32.0121 49.0802 32.3412 48.9507L32.2333 48.6765ZM31.2388 49.0186L31.1565 48.7356C30.5059 48.9248 29.8293 49.0341 29.1453 49.0865L29.1678 49.3803L29.1903 49.6742C29.9064 49.6194 30.6242 49.5043 31.3211 49.3016L31.2388 49.0186ZM29.1678 49.3803L29.1469 49.0863C27.7799 49.1837 26.3947 49.0252 25.0522 48.6892L24.9807 48.9751L24.9091 49.261C26.3008 49.6093 27.7491 49.7768 29.1888 49.6743L29.1678 49.3803ZM24.9807 48.9751L25.0517 48.689C23.7061 48.3552 22.4022 47.8477 21.1515 47.2274L21.0205 47.4915L20.8896 47.7555C22.1712 48.3911 23.5155 48.9152 24.9097 49.2611L24.9807 48.9751ZM21.0205 47.4915L21.1514 47.2274C19.8999 46.6072 18.7027 45.8743 17.5589 45.0625L17.3884 45.3028L17.2178 45.5432C18.3831 46.3702 19.6067 47.1198 20.8897 47.7555L21.0205 47.4915ZM17.3884 45.3028L17.5589 45.0625C16.4151 44.2511 15.3288 43.3577 14.2937 42.4061L14.0942 42.623L13.8947 42.84C14.9457 43.8062 16.0513 44.7157 17.2179 45.5432L17.3884 45.3028ZM14.0942 42.623L14.2939 42.4063C13.7767 41.9297 13.2719 41.44 12.7817 40.9357L12.5704 41.1411L12.359 41.3465C12.8572 41.8591 13.3698 42.3563 13.8945 42.8398L14.0942 42.623ZM12.5704 41.1411L12.7818 40.9358C12.2919 40.4311 11.815 39.9128 11.3513 39.3839L11.1297 39.5782L10.9081 39.7725C11.378 40.3085 11.8616 40.8341 12.3589 41.3464L12.5704 41.1411ZM11.1297 39.5782L11.3515 39.3841C9.49751 37.2649 7.85446 34.9604 6.4293 32.5284L6.17503 32.6775L5.92075 32.8265C7.36363 35.2886 9.02814 37.6236 10.9079 39.7722L11.1297 39.5782ZM5.9614 32.803L5.70714 32.9521C7.15781 35.427 8.83068 37.7743 10.7216 39.9358L10.9434 39.7417L11.1652 39.5477C9.30007 37.4157 7.64865 35.0988 6.21566 32.654L5.9614 32.803ZM10.9434 39.7417L10.7218 39.9361C11.1951 40.4754 11.6814 41.0043 12.1814 41.5199L12.393 41.3147L12.6046 41.1095C12.1118 40.6014 11.6321 40.0798 11.1649 39.5473L10.9434 39.7417ZM12.393 41.3147L12.1817 41.5201C12.6827 42.0355 13.1986 42.536 13.7265 43.0228L13.9263 42.8061L14.1261 42.5894C13.6055 42.1094 13.0973 41.6164 12.6043 41.1093L12.393 41.3147ZM13.9263 42.8061L13.7268 43.023C14.7845 43.9961 15.8986 44.9117 17.0745 45.7458L17.245 45.5055L17.4155 45.2651C16.2623 44.447 15.1675 43.5475 14.1258 42.5892L13.9263 42.8061ZM17.245 45.5055L17.0744 45.7458C18.2487 46.5796 19.4835 47.3358 20.7798 47.9782L20.9107 47.7142L21.0415 47.4501C19.7766 46.8232 18.5683 46.0836 17.4156 45.2652L17.245 45.5055ZM20.9107 47.7142L20.7798 47.9782C22.0747 48.62 23.4351 49.1507 24.8499 49.5022L24.921 49.2162L24.9921 48.9302C23.6259 48.5907 22.3056 48.0765 21.0415 47.4501L20.9107 47.7142ZM24.921 49.2162L24.8495 49.5021C26.2617 49.8554 27.7357 50.0269 29.2066 49.9221L29.1857 49.6282L29.1648 49.3342C27.7666 49.4337 26.3557 49.2714 24.9925 48.9303L24.921 49.2162ZM29.1857 49.6282L29.2081 49.922C29.9403 49.8661 30.6749 49.7488 31.3894 49.5405L31.3069 49.2575L31.2244 48.9746C30.5567 49.1693 29.8634 49.2808 29.1632 49.3343L29.1857 49.6282ZM31.3069 49.2575L31.3841 49.542C31.7475 49.4433 32.0975 49.3135 32.4354 49.1807L32.3276 48.9064L32.2198 48.6321C31.8872 48.7628 31.5613 48.8831 31.2297 48.9731L31.3069 49.2575ZM32.3276 48.9064L32.4446 49.1769L32.6923 49.0697L32.5752 48.7993L32.4582 48.5288L32.2105 48.6359L32.3276 48.9064ZM32.5752 48.7993L32.6953 49.0684C32.718 49.0583 32.7853 49.0298 32.8222 49.0129L32.6991 48.7451L32.5759 48.4773C32.5303 48.4984 32.515 48.5034 32.4551 48.5301L32.5752 48.7993ZM32.6991 48.7451L32.828 49.0101L32.9496 48.951L32.8207 48.686L32.6917 48.4209L32.5701 48.4801L32.6991 48.7451ZM32.8207 48.686L32.9499 48.9508L33.1925 48.8325L33.0633 48.5676L32.9341 48.3027L32.6915 48.4211L32.8207 48.686ZM33.0633 48.5676L33.2034 48.8269L33.441 48.6985L33.3009 48.4392L33.1608 48.1799L32.9232 48.3083L33.0633 48.5676ZM33.3009 48.4392L33.441 48.6985L33.5598 48.6343L33.4197 48.375L33.2796 48.1158L33.1608 48.1799L33.3009 48.4392ZM33.4197 48.375L33.5707 48.6281L33.6867 48.5589L33.5357 48.3058L33.3847 48.0527L33.2687 48.122L33.4197 48.375ZM33.5357 48.3058L33.6867 48.5589L33.9187 48.4205L33.7677 48.1674L33.6167 47.9143L33.3847 48.0527L33.5357 48.3058ZM33.7677 48.1674L33.9299 48.4135L34.1552 48.265L33.9931 48.0189L33.8309 47.7728L33.6056 47.9213L33.7677 48.1674ZM33.9931 48.0189L34.1552 48.265L34.2679 48.1908L34.1058 47.9447L33.9436 47.6986L33.8309 47.7728L33.9931 48.0189ZM34.1058 47.9447L34.2779 48.1839L34.3873 48.1052L34.2151 47.866L34.0429 47.6268L33.9336 47.7055L34.1058 47.9447ZM34.2151 47.866L34.3881 48.1046L34.6067 47.9461L34.4337 47.7075L34.2607 47.4689L34.0421 47.6274L34.2151 47.866ZM34.4337 47.7075L34.6164 47.9387L34.8284 47.7713L34.6457 47.54L34.463 47.3088L34.251 47.4762L34.4337 47.7075ZM34.6457 47.54L34.8284 47.7713L34.9343 47.6875L34.7516 47.4563L34.5689 47.225L34.463 47.3088L34.6457 47.54ZM34.7516 47.4563L34.943 47.6804L35.0456 47.5928L34.8543 47.3687L34.6629 47.1445L34.5603 47.2322L34.7516 47.4563ZM34.8543 47.3687L35.0466 47.5919L35.2513 47.4155L35.059 47.1923L34.8666 46.969L34.6619 47.1454L34.8543 47.3687ZM35.059 47.1923L35.2606 47.4072L35.4575 47.2224L35.2559 47.0075L35.0542 46.7926L34.8573 46.9774L35.059 47.1923ZM35.2559 47.0075L35.4582 47.2218L35.5563 47.1292L35.354 46.9149L35.1517 46.7005L35.0536 46.7932L35.2559 47.0075ZM35.354 46.9149L35.5637 47.122L35.6585 47.026L35.4488 46.8189L35.2392 46.6117L35.1443 46.7078L35.354 46.9149ZM35.4488 46.8189L35.6594 47.025L35.8485 46.8319L35.6379 46.6257L35.4273 46.4195L35.2383 46.6127L35.4488 46.8189ZM35.6379 46.6257L35.8562 46.8237L36.0375 46.6239L35.8192 46.4259L35.6009 46.2279L35.4196 46.4277L35.6379 46.6257ZM35.8192 46.4259L36.034 46.6277C36.1634 46.49 36.2894 46.3285 36.3936 46.2058L36.1689 46.0151L35.9443 45.8243C35.8153 45.9762 35.7215 46.0995 35.6044 46.2241L35.8192 46.4259ZM36.1689 46.0151L36.399 46.1993C36.4559 46.1283 36.5178 46.0455 36.5665 45.983L36.334 45.8019L36.1015 45.6207C36.0398 45.6999 35.9947 45.7612 35.9389 45.8308L36.1689 46.0151ZM36.334 45.8019L36.5681 45.9809C36.6193 45.914 36.682 45.8343 36.7385 45.7516L36.4952 45.5853L36.2519 45.4189C36.2069 45.4848 36.1581 45.5468 36.1 45.6228L36.334 45.8019ZM36.4952 45.5853L36.7347 45.7571C37.1645 45.1583 37.5396 44.5208 37.852 43.8544L37.5851 43.7293L37.3182 43.6043C37.0215 44.2373 36.6648 44.8435 36.2558 45.4134L36.4952 45.5853ZM37.5851 43.7293L37.8517 43.8549C38.1636 43.1926 38.4266 42.5066 38.6346 41.8048L38.352 41.721L38.0694 41.6373C37.8702 42.3097 37.6179 42.9678 37.3185 43.6038L37.5851 43.7293ZM38.352 41.721L38.6345 41.8052C39.0511 40.4065 39.283 38.962 39.3763 37.5168L39.0821 37.4979L38.788 37.4789C38.6972 38.8871 38.4717 40.2871 38.0696 41.6369L38.352 41.721ZM39.0821 37.4979L39.3763 37.5166C39.4683 36.0713 39.4264 34.6217 39.2839 33.1875L38.9907 33.2167L38.6974 33.2458C38.8371 34.6527 38.8778 36.0699 38.788 37.4791L39.0821 37.4979ZM38.9907 33.2167L39.2839 33.1873C39.1403 31.7521 38.8931 30.3301 38.5671 28.9295L38.2801 28.9963L37.993 29.0631C38.314 30.4422 38.5566 31.839 38.6974 33.246L38.9907 33.2167ZM38.2801 28.9963L38.5672 28.9297C38.242 27.5275 37.8306 26.1478 37.3539 24.7936L37.0759 24.8915L36.7979 24.9893C37.2682 26.3255 37.6733 27.6843 37.993 29.0629L38.2801 28.9963ZM37.0759 24.8915L37.3537 24.7933C36.3967 22.0847 35.1671 19.4762 33.7181 17.0007L33.4638 17.1495L33.2094 17.2984C34.6407 19.7438 35.8541 22.3185 36.798 24.9896L37.0759 24.8915ZM33.4638 17.1495L33.718 17.0005C32.2674 14.5255 30.5945 12.1783 28.7036 10.0168L28.4818 10.2109L28.26 10.4049C30.1251 12.5369 31.7765 14.8538 33.2095 17.2986L33.4638 17.1495ZM28.4818 10.2109L28.7033 10.0165C28.2301 9.47719 27.7438 8.94832 27.2437 8.43274L27.0321 8.63792L26.8206 8.8431C27.3134 9.35121 27.7931 9.87284 28.2603 10.4052L28.4818 10.2109ZM27.0321 8.63792L27.2435 8.4325C26.7425 7.91709 26.2266 7.41656 25.6986 6.92979L25.4988 7.14647L25.2991 7.36316C25.8197 7.84315 26.3279 8.33618 26.8208 8.84334L27.0321 8.63792ZM25.4988 7.14647L25.6984 6.92957C24.6406 5.95653 23.5266 5.04089 22.3507 4.20675L22.1801 4.44713L22.0096 4.68752C23.1629 5.50558 24.2576 6.40513 25.2993 7.36338L25.4988 7.14647ZM22.1801 4.44713L22.3508 4.20683C21.1764 3.37303 19.9417 2.61677 18.6454 1.97436L18.5145 2.23843L18.3836 2.5025C19.6486 3.12938 20.8569 3.86904 22.0095 4.68744L22.1801 4.44713ZM18.5145 2.23843L18.6454 1.97436C17.3504 1.33263 15.99 0.801903 14.5752 0.450356L14.5042 0.736378L14.4331 1.0224C15.7993 1.36187 17.1195 1.87605 18.3836 2.5025L18.5145 2.23843ZM14.5042 0.736378L14.5757 0.450471C13.1634 0.0971452 11.6895 -0.0742676 10.2185 0.0304691L10.2395 0.324444L10.2604 0.618419C11.6586 0.518863 13.0694 0.681239 14.4326 1.02228L14.5042 0.736378ZM10.2395 0.324444L10.217 0.0305808C9.48487 0.0865031 8.75024 0.203818 8.03579 0.412136L8.11829 0.695073L8.20079 0.97801C8.86848 0.783324 9.56173 0.671787 10.2619 0.618307L10.2395 0.324444ZM8.11829 0.695073L8.04108 0.410648C7.67769 0.509296 7.32767 0.639089 6.98978 0.771866L7.09758 1.04617L7.20537 1.32047C7.53792 1.18978 7.86391 1.06951 8.1955 0.979498L8.11829 0.695073ZM7.09758 1.04617L6.98053 0.775687L6.73288 0.882857L6.84993 1.15334L6.96698 1.42381L7.21463 1.31664L7.09758 1.04617ZM6.84993 1.15334L6.72982 0.884201C6.70719 0.894302 6.63985 0.922757 6.60298 0.939709L6.7261 1.20748L6.84922 1.47525C6.8949 1.45424 6.91012 1.44921 6.97004 1.42247L6.84993 1.15334ZM6.7261 1.20748L6.59715 0.942468L6.47556 1.00163L6.60451 1.26665L6.73346 1.53166L6.85505 1.47249L6.7261 1.20748ZM6.60451 1.26665L6.47532 1.00175L6.23269 1.12009L6.36188 1.38498L6.49107 1.64987L6.7337 1.53154L6.60451 1.26665ZM6.36188 1.38498L6.22179 1.12569L5.98418 1.25407L6.12427 1.51336L6.26437 1.77265L6.50198 1.64427L6.36188 1.38498ZM6.12427 1.51336L5.98418 1.25407L5.86537 1.31826L6.00547 1.57755L6.14556 1.83684L6.26437 1.77265L6.12427 1.51336ZM6.00547 1.57755L5.85447 1.32445L5.73846 1.39366L5.88945 1.64676L6.04045 1.89986L6.15646 1.83065L6.00547 1.57755ZM5.88945 1.64676L5.73845 1.39366L5.50643 1.53209L5.65742 1.78519L5.80842 2.03829L6.04045 1.89986L5.88945 1.64676ZM5.65742 1.78519L5.49527 1.53909L5.26993 1.68757L5.43208 1.93367L5.59424 2.17977L5.81958 2.03129L5.65742 1.78519ZM5.43208 1.93367L5.26993 1.68757L5.15726 1.76181L5.31942 2.0079L5.48157 2.254L5.59424 2.17976L5.43208 1.93367ZM5.31942 2.0079L5.14723 1.76872L5.0379 1.84742L5.21009 2.08661L5.38228 2.32579L5.49161 2.24709L5.31942 2.0079ZM5.21009 2.08661L5.0371 1.848L4.81845 2.00652L4.99145 2.24513L5.16444 2.48373L5.38309 2.32521L5.21009 2.08661ZM4.99145 2.24513L4.80875 2.01387L4.59679 2.18133L4.7795 2.41258L4.9622 2.64384L5.17415 2.47638L4.99145 2.24513ZM4.7795 2.41258L4.5968 2.18133L4.49082 2.26505L4.67352 2.49631L4.85622 2.72756L4.9622 2.64384L4.7795 2.41258ZM4.67352 2.49631L4.48214 2.27218L4.37951 2.35981L4.57089 2.58394L4.76227 2.80807L4.8649 2.72044L4.67352 2.49631ZM4.57089 2.58394L4.37851 2.36067L4.17381 2.53706L4.36619 2.76032L4.55857 2.98359L4.76327 2.80721L4.57089 2.58394ZM4.36619 2.76032L4.16452 2.54541L3.96763 2.73017L4.1693 2.94508L4.37097 3.16L4.56786 2.97524L4.36619 2.76032ZM4.1693 2.94508L3.96701 2.73076L3.86884 2.82341L4.07113 3.03774L4.27343 3.25206L4.3716 3.15941L4.1693 2.94508ZM4.07113 3.03774L3.86145 2.83064L3.76662 2.92665L3.97631 3.13374L4.186 3.34084L4.28082 3.24484L4.07113 3.03774ZM3.97631 3.13374L3.76572 2.92756L3.57664 3.12069L3.78723 3.32687L3.99782 3.53305L4.1869 3.33993L3.97631 3.13374ZM3.78723 3.32687L3.56895 3.12886L3.38767 3.32868L3.60596 3.5267L3.82424 3.72472L4.00551 3.52489L3.78723 3.32687ZM3.60596 3.5267L3.39119 3.32487C3.26173 3.46263 3.13576 3.62405 3.03156 3.74678L3.25624 3.93752L3.48091 4.12826C3.60986 3.97637 3.70365 3.85311 3.82072 3.72853L3.60596 3.5267ZM3.25624 3.93752L3.02621 3.75327C2.9693 3.82432 2.90739 3.90704 2.85863 3.96963L3.09114 4.15074L3.32364 4.33185C3.38533 4.25266 3.4305 4.19138 3.48626 4.12177L3.25624 3.93752ZM3.09114 4.15074L2.85707 3.97166C2.80586 4.0386 2.74315 4.11834 2.68665 4.20097L2.92994 4.36731L3.17323 4.53365C3.21825 4.46782 3.2671 4.40578 3.32521 4.32982L3.09114 4.15074ZM2.92994 4.36731L2.69051 4.19547C2.26069 4.79434 1.88557 5.43177 1.57321 6.09817L1.84007 6.22325L2.10693 6.34833C2.40365 5.71529 2.76031 5.10911 3.16938 4.53916L2.92994 4.36731ZM1.84007 6.22325L1.57343 6.0977C1.26159 6.75999 0.998511 7.446 0.790563 8.14784L1.07314 8.23157L1.35572 8.31529C1.55494 7.64291 1.80724 6.98482 2.10671 6.3488L1.84007 6.22325ZM1.07314 8.23157L0.790688 8.14742C0.374017 9.54606 0.142139 10.9906 0.0489139 12.4358L0.343022 12.4547L0.637129 12.4737C0.727967 11.0655 0.953461 9.66554 1.35559 8.31571L1.07314 8.23157ZM0.343022 12.4547L0.0488987 12.436C-0.0431672 13.8813 -0.00125179 15.3309 0.141221 16.7651L0.434496 16.7359L0.727772 16.7068C0.588014 15.2999 0.547379 13.8827 0.637145 12.4735L0.343022 12.4547ZM0.434496 16.7359L0.141242 16.7653C0.284883 18.2005 0.532025 19.6225 0.858044 21.0231L1.14509 20.9563L1.43214 20.8895C1.11115 19.5104 0.868571 18.1136 0.72775 16.7066L0.434496 16.7359ZM1.14509 20.9563L0.857988 21.0229C1.18312 22.4251 1.5946 23.8048 2.07131 25.159L2.34931 25.0611L2.62731 24.9633C2.15693 23.6271 1.75184 22.2683 1.43219 20.8897L1.14509 20.9563ZM2.34931 25.0611L2.07143 25.1593C3.02846 27.8679 4.25806 30.4764 5.70705 32.9519L5.9614 32.803L6.21575 32.6542C4.78444 30.2088 3.57103 27.6341 2.62719 24.963L2.34931 25.0611ZM6.17503 32.6775H5.88031V32.678H6.17503H6.46975V32.6775H6.17503Z" fill="var(--stroke-0, white)" mask="url(#path-1-outside-1_0_4)"/>
</g>
</g>
</svg>
