<svg preserveAspectRatio="none" width="100%" height="100%" overflow="visible" style="display: block;" viewBox="0 0 39.4257 49.9526" fill="none" xmlns="http://www.w3.org/2000/svg">
<g id="Group">
<g id="Vector">
<mask id="path-1-outside-1_0_6" maskUnits="userSpaceOnUse" x="-0.705281" y="-0.70528" width="41" height="51" fill="black">
<rect fill="white" x="-0.705281" y="-0.70528" width="41" height="51"/>
<path d="M5.96165 17.1495C4.5215 19.61 3.29999 22.2016 2.34956 24.8915C1.87601 26.2367 1.46773 27.6064 1.14534 28.9963C0.821832 30.3861 0.576973 31.7955 0.434743 33.2166C0.293628 34.6378 0.251795 36.0706 0.343268 37.4979C0.4353 38.9246 0.663986 40.3468 1.07339 41.721C1.27697 42.4081 1.53466 43.0802 1.84032 43.7293C2.14486 44.3796 2.51075 45.0014 2.93019 45.5853C2.98095 45.6595 3.03617 45.7304 3.09139 45.8018C3.1466 45.8727 3.20015 45.9453 3.25648 46.0151C3.37306 46.1524 3.48294 46.2947 3.6062 46.4259L3.78748 46.6257L3.97656 46.8188L4.07138 46.9149L4.16955 47.0075L4.36644 47.1923L4.57114 47.3687L4.67377 47.4563L4.77975 47.54L4.9917 47.7075L5.21034 47.866L5.31966 47.9447L5.43233 48.0189L5.65767 48.1674L5.8897 48.3058L6.00572 48.375L6.12452 48.4392L6.36213 48.5676L6.60476 48.6859L6.72635 48.7451C6.76707 48.7641 6.8089 48.7814 6.85017 48.7993L7.09782 48.9064C7.43248 49.0382 7.77105 49.1632 8.11853 49.2575C8.81017 49.4585 9.52355 49.5734 10.2397 49.6281C11.6743 49.7303 13.1167 49.5634 14.5044 49.2162C15.8949 48.8713 17.2352 48.3488 18.5147 47.7142C19.7954 47.0795 21.0169 46.3316 22.1804 45.5055C23.345 44.6799 24.4488 43.7718 25.4991 42.8061C26.024 42.3233 26.536 41.826 27.0324 41.3147C27.5288 40.8028 28.0118 40.2781 28.482 39.7417C30.36 37.595 32.0222 35.2629 33.464 32.803C34.9042 30.3426 36.1257 27.751 37.0761 25.0611C37.5496 23.7159 37.9579 22.3462 38.2803 20.9563C38.6038 19.5665 38.8487 18.1571 38.9909 16.7359C39.132 15.3148 39.1739 13.882 39.0824 12.4547C38.9904 11.028 38.7617 9.6058 38.3523 8.23157C38.1487 7.54445 37.891 6.87241 37.5853 6.22325C37.2808 5.57297 36.9149 4.95117 36.4955 4.36731C36.4447 4.29308 36.3895 4.22219 36.3343 4.15074C36.2791 4.07985 36.2255 4.00729 36.1692 3.93752C36.0526 3.80021 35.9427 3.65787 35.8195 3.5267L35.6382 3.32687L35.4491 3.13374L35.3543 3.03774L35.2561 2.94508L35.0592 2.76032L34.8545 2.58394L34.7519 2.49631L34.6459 2.41258L34.434 2.24513L34.2153 2.08661L34.106 2.0079L33.9933 1.93367L33.768 1.78519L33.536 1.64676L33.4199 1.57755L33.3011 1.51336L33.0635 1.38498L32.8209 1.26665L32.6993 1.20748C32.6586 1.1885 32.6168 1.1712 32.5755 1.15334L32.3278 1.04617C31.9932 0.914436 31.6546 0.789405 31.3071 0.695073C30.6155 0.494129 29.9021 0.379145 29.1859 0.324444C27.7514 0.222298 26.309 0.389192 24.9213 0.736378C23.5307 1.08133 22.1904 1.60378 20.9109 2.23843C19.6303 2.87308 18.4088 3.62103 17.2453 4.44713C16.0807 5.27268 14.9768 6.18083 13.9266 7.14647C13.4017 7.6293 12.8897 8.12663 12.3933 8.63792C11.8968 9.14977 11.4138 9.67445 10.9436 10.2109C9.06562 12.3576 7.40348 14.6897 5.96165 17.1495L6.17527 17.2751C7.60929 14.8281 9.26307 12.5083 11.1299 10.3744C11.5973 9.84135 12.0776 9.32001 12.5706 8.81151C13.0643 8.30301 13.5729 7.80959 14.0944 7.32955C15.1375 6.37061 16.2335 5.46915 17.3886 4.64975C18.5426 3.83035 19.7535 3.08909 21.0208 2.46114C22.2869 1.83375 23.6111 1.31744 24.9809 0.97751C26.348 0.635348 27.7647 0.471802 29.1681 0.572274C29.8686 0.625859 30.5653 0.737494 31.2391 0.933972C31.5776 1.02607 31.9073 1.14831 32.2336 1.27613L32.4751 1.38051C32.5152 1.39837 32.556 1.41512 32.5956 1.43354L32.7138 1.49103L32.9503 1.60602L33.1818 1.73105L33.2972 1.79356L33.4099 1.8611L33.6358 1.99618L33.8556 2.14075L33.9654 2.21331L34.072 2.29034L34.285 2.4444L34.4914 2.60738L34.5946 2.68888L34.6944 2.77484L34.8936 2.94676L35.0854 3.12649L35.1814 3.21635L35.274 3.31013L35.458 3.49823L35.6348 3.6936C35.7547 3.82142 35.8624 3.96096 35.9762 4.09437C36.0308 4.16302 36.0833 4.23335 36.1374 4.30257C36.1909 4.37234 36.245 4.44155 36.2947 4.51411C37.119 5.65447 37.7092 6.95502 38.1152 8.30469C38.5185 9.65715 38.7444 11.0615 38.8359 12.4726C38.9262 13.8842 38.8849 15.3042 38.7449 16.7136C38.6038 18.123 38.3612 19.5224 38.0394 20.9022C37.7192 22.2831 37.3137 23.6439 36.843 24.9808C35.8981 27.655 34.6833 30.2321 33.2504 32.6797C31.8164 35.1267 30.1626 37.4465 28.2957 39.5804C27.8283 40.1135 27.3481 40.6348 26.855 41.1433C26.3614 41.6518 25.8527 42.1452 25.3312 42.6253C24.2882 43.5842 23.1922 44.4857 22.037 45.3051C20.883 46.1245 19.6721 46.8657 18.4049 47.4937C17.1387 48.1211 15.8146 48.6374 14.4447 48.9773C13.0776 49.3195 11.6609 49.483 10.2576 49.3825C9.55701 49.329 8.86036 49.2173 8.18658 49.0209C7.84802 48.9288 7.51838 48.8065 7.19209 48.6787L6.95057 48.5743C6.91041 48.5564 6.86969 48.5397 6.83009 48.5213L6.71185 48.4638L6.47535 48.3488L6.24388 48.2238L6.12842 48.1613L6.01575 48.0937L5.78986 47.9586L5.5701 47.8141L5.46022 47.7415L5.35369 47.6645L5.14062 47.5104L4.93424 47.3474L4.83106 47.2659L4.73122 47.1805L4.5321 47.0086L4.34023 46.8289L4.24429 46.739L4.1517 46.6453L3.96763 46.4571L3.79082 46.2618C3.6709 46.134 3.56325 45.9944 3.44947 45.861C3.39481 45.7924 3.34238 45.722 3.28828 45.6528C3.23473 45.583 3.18063 45.5138 3.13098 45.4413C2.30661 44.3009 1.71649 43.0004 1.31044 41.6507C0.907172 40.2982 0.681274 38.8939 0.5898 37.4828C0.499442 36.0712 0.540717 34.6512 0.680716 33.2418C0.821831 31.8324 1.06446 30.433 1.38629 29.0532C1.70645 27.6723 2.11195 26.3115 2.5827 24.9746C3.52756 22.3004 4.74237 19.7233 6.17527 17.2757L5.96165 17.1501V17.1495Z"/>
</mask>
<path d="M5.96165 17.1495C4.5215 19.61 3.29999 22.2016 2.34956 24.8915C1.87601 26.2367 1.46773 27.6064 1.14534 28.9963C0.821832 30.3861 0.576973 31.7955 0.434743 33.2166C0.293628 34.6378 0.251795 36.0706 0.343268 37.4979C0.4353 38.9246 0.663986 40.3468 1.07339 41.721C1.27697 42.4081 1.53466 43.0802 1.84032 43.7293C2.14486 44.3796 2.51075 45.0014 2.93019 45.5853C2.98095 45.6595 3.03617 45.7304 3.09139 45.8018C3.1466 45.8727 3.20015 45.9453 3.25648 46.0151C3.37306 46.1524 3.48294 46.2947 3.6062 46.4259L3.78748 46.6257L3.97656 46.8188L4.07138 46.9149L4.16955 47.0075L4.36644 47.1923L4.57114 47.3687L4.67377 47.4563L4.77975 47.54L4.9917 47.7075L5.21034 47.866L5.31966 47.9447L5.43233 48.0189L5.65767 48.1674L5.8897 48.3058L6.00572 48.375L6.12452 48.4392L6.36213 48.5676L6.60476 48.6859L6.72635 48.7451C6.76707 48.7641 6.8089 48.7814 6.85017 48.7993L7.09782 48.9064C7.43248 49.0382 7.77105 49.1632 8.11853 49.2575C8.81017 49.4585 9.52355 49.5734 10.2397 49.6281C11.6743 49.7303 13.1167 49.5634 14.5044 49.2162C15.8949 48.8713 17.2352 48.3488 18.5147 47.7142C19.7954 47.0795 21.0169 46.3316 22.1804 45.5055C23.345 44.6799 24.4488 43.7718 25.4991 42.8061C26.024 42.3233 26.536 41.826 27.0324 41.3147C27.5288 40.8028 28.0118 40.2781 28.482 39.7417C30.36 37.595 32.0222 35.2629 33.464 32.803C34.9042 30.3426 36.1257 27.751 37.0761 25.0611C37.5496 23.7159 37.9579 22.3462 38.2803 20.9563C38.6038 19.5665 38.8487 18.1571 38.9909 16.7359C39.132 15.3148 39.1739 13.882 39.0824 12.4547C38.9904 11.028 38.7617 9.6058 38.3523 8.23157C38.1487 7.54445 37.891 6.87241 37.5853 6.22325C37.2808 5.57297 36.9149 4.95117 36.4955 4.36731C36.4447 4.29308 36.3895 4.22219 36.3343 4.15074C36.2791 4.07985 36.2255 4.00729 36.1692 3.93752C36.0526 3.80021 35.9427 3.65787 35.8195 3.5267L35.6382 3.32687L35.4491 3.13374L35.3543 3.03774L35.2561 2.94508L35.0592 2.76032L34.8545 2.58394L34.7519 2.49631L34.6459 2.41258L34.434 2.24513L34.2153 2.08661L34.106 2.0079L33.9933 1.93367L33.768 1.78519L33.536 1.64676L33.4199 1.57755L33.3011 1.51336L33.0635 1.38498L32.8209 1.26665L32.6993 1.20748C32.6586 1.1885 32.6168 1.1712 32.5755 1.15334L32.3278 1.04617C31.9932 0.914436 31.6546 0.789405 31.3071 0.695073C30.6155 0.494129 29.9021 0.379145 29.1859 0.324444C27.7514 0.222298 26.309 0.389192 24.9213 0.736378C23.5307 1.08133 22.1904 1.60378 20.9109 2.23843C19.6303 2.87308 18.4088 3.62103 17.2453 4.44713C16.0807 5.27268 14.9768 6.18083 13.9266 7.14647C13.4017 7.6293 12.8897 8.12663 12.3933 8.63792C11.8968 9.14977 11.4138 9.67445 10.9436 10.2109C9.06562 12.3576 7.40348 14.6897 5.96165 17.1495L6.17527 17.2751C7.60929 14.8281 9.26307 12.5083 11.1299 10.3744C11.5973 9.84135 12.0776 9.32001 12.5706 8.81151C13.0643 8.30301 13.5729 7.80959 14.0944 7.32955C15.1375 6.37061 16.2335 5.46915 17.3886 4.64975C18.5426 3.83035 19.7535 3.08909 21.0208 2.46114C22.2869 1.83375 23.6111 1.31744 24.9809 0.97751C26.348 0.635348 27.7647 0.471802 29.1681 0.572274C29.8686 0.625859 30.5653 0.737494 31.2391 0.933972C31.5776 1.02607 31.9073 1.14831 32.2336 1.27613L32.4751 1.38051C32.5152 1.39837 32.556 1.41512 32.5956 1.43354L32.7138 1.49103L32.9503 1.60602L33.1818 1.73105L33.2972 1.79356L33.4099 1.8611L33.6358 1.99618L33.8556 2.14075L33.9654 2.21331L34.072 2.29034L34.285 2.4444L34.4914 2.60738L34.5946 2.68888L34.6944 2.77484L34.8936 2.94676L35.0854 3.12649L35.1814 3.21635L35.274 3.31013L35.458 3.49823L35.6348 3.6936C35.7547 3.82142 35.8624 3.96096 35.9762 4.09437C36.0308 4.16302 36.0833 4.23335 36.1374 4.30257C36.1909 4.37234 36.245 4.44155 36.2947 4.51411C37.119 5.65447 37.7092 6.95502 38.1152 8.30469C38.5185 9.65715 38.7444 11.0615 38.8359 12.4726C38.9262 13.8842 38.8849 15.3042 38.7449 16.7136C38.6038 18.123 38.3612 19.5224 38.0394 20.9022C37.7192 22.2831 37.3137 23.6439 36.843 24.9808C35.8981 27.655 34.6833 30.2321 33.2504 32.6797C31.8164 35.1267 30.1626 37.4465 28.2957 39.5804C27.8283 40.1135 27.3481 40.6348 26.855 41.1433C26.3614 41.6518 25.8527 42.1452 25.3312 42.6253C24.2882 43.5842 23.1922 44.4857 22.037 45.3051C20.883 46.1245 19.6721 46.8657 18.4049 47.4937C17.1387 48.1211 15.8146 48.6374 14.4447 48.9773C13.0776 49.3195 11.6609 49.483 10.2576 49.3825C9.55701 49.329 8.86036 49.2173 8.18658 49.0209C7.84802 48.9288 7.51838 48.8065 7.19209 48.6787L6.95057 48.5743C6.91041 48.5564 6.86969 48.5397 6.83009 48.5213L6.71185 48.4638L6.47535 48.3488L6.24388 48.2238L6.12842 48.1613L6.01575 48.0937L5.78986 47.9586L5.5701 47.8141L5.46022 47.7415L5.35369 47.6645L5.14062 47.5104L4.93424 47.3474L4.83106 47.2659L4.73122 47.1805L4.5321 47.0086L4.34023 46.8289L4.24429 46.739L4.1517 46.6453L3.96763 46.4571L3.79082 46.2618C3.6709 46.134 3.56325 45.9944 3.44947 45.861C3.39481 45.7924 3.34238 45.722 3.28828 45.6528C3.23473 45.583 3.18063 45.5138 3.13098 45.4413C2.30661 44.3009 1.71649 43.0004 1.31044 41.6507C0.907172 40.2982 0.681274 38.8939 0.5898 37.4828C0.499442 36.0712 0.540717 34.6512 0.680716 33.2418C0.821831 31.8324 1.06446 30.433 1.38629 29.0532C1.70645 27.6723 2.11195 26.3115 2.5827 24.9746C3.52756 22.3004 4.74237 19.7233 6.17527 17.2757L5.96165 17.1501V17.1495Z" fill="var(--fill-0, white)"/>
<path d="M5.96165 17.1495L5.70739 17.0005L5.7073 17.0007L5.96165 17.1495ZM2.34956 24.8915L2.07167 24.7933L2.07156 24.7936L2.34956 24.8915ZM1.14534 28.9963L1.43238 29.0631L1.43243 29.0629L1.14534 28.9963ZM0.434743 33.2166L0.141489 33.1873L0.141466 33.1875L0.434743 33.2166ZM0.343268 37.4979L0.0491528 37.5167L0.0491607 37.5168L0.343268 37.4979ZM1.07339 41.721L1.35596 41.6373L1.35584 41.6369L1.07339 41.721ZM1.84032 43.7293L2.10722 43.6043L2.10696 43.6038L1.84032 43.7293ZM2.93019 45.5853L3.17355 45.4189L3.16955 45.4133L2.93019 45.5853ZM3.09139 45.8018L2.85819 45.9821L2.85888 45.983L3.09139 45.8018ZM3.25648 46.0151L3.02711 46.2003L3.03181 46.2058L3.25648 46.0151ZM3.6062 46.4259L3.82452 46.2278L3.82097 46.2241L3.6062 46.4259ZM3.78748 46.6257L3.56903 46.8239L3.57689 46.8319L3.78748 46.6257ZM3.97656 46.8188L3.76597 47.025L3.76687 47.0259L3.97656 46.8188ZM4.07138 46.9149L3.86156 47.1221L3.86909 47.1292L4.07138 46.9149ZM4.16955 47.0075L3.96725 47.2218L3.96788 47.2224L4.16955 47.0075ZM4.36644 47.1923L4.16459 47.4074L4.17405 47.4155L4.36644 47.1923ZM4.57114 47.3686L4.37875 47.5919L4.37976 47.5928L4.57114 47.3686ZM4.67377 47.4563L4.48226 47.6806L4.49107 47.6875L4.67377 47.4563ZM4.77975 47.54L4.96245 47.3088L4.96245 47.3088L4.77975 47.54ZM4.9917 47.7075L4.80884 47.9389L4.8187 47.9461L4.9917 47.7075ZM5.21034 47.866L5.03734 48.1046L5.03815 48.1052L5.21034 47.866ZM5.31966 47.9447L5.14733 48.1841L5.1575 48.1908L5.31966 47.9447ZM5.43233 48.0189L5.27017 48.265H5.27017L5.43233 48.0189ZM5.65767 48.1674L5.49535 48.4137L5.50667 48.4205L5.65767 48.1674ZM5.8897 48.3058L5.7387 48.5589H5.7387L5.8897 48.3058ZM6.00572 48.375L5.85458 48.6284L5.86562 48.6343L6.00572 48.375ZM6.12452 48.4392L5.98442 48.6985H5.98442L6.12452 48.4392ZM6.36213 48.5676L6.22191 48.8271L6.23294 48.8325L6.36213 48.5676ZM6.60476 48.6859L6.47556 48.9508L6.4758 48.951L6.60476 48.6859ZM6.72635 48.7451L6.59738 49.0102L6.60184 49.0122L6.72635 48.7451ZM6.85017 48.7993L6.73312 49.0697H6.73313L6.85017 48.7993ZM7.09782 48.9064L6.98071 49.1771L6.98988 49.1807L7.09782 48.9064ZM8.11853 49.2575L8.20077 48.9745L8.19575 48.9731L8.11853 49.2575ZM10.2397 49.6281L10.2173 49.922L10.2188 49.9221L10.2397 49.6281ZM14.5044 49.2162L14.4334 48.9302L14.4329 48.9303L14.5044 49.2162ZM18.5147 47.7142L18.3839 47.4501L18.3838 47.4501L18.5147 47.7142ZM22.1804 45.5055L22.0099 45.265L22.0098 45.2652L22.1804 45.5055ZM25.4991 42.8061L25.6986 43.0231L25.6986 43.023L25.4991 42.8061ZM27.0324 41.3147L27.2438 41.52L27.244 41.5199L27.0324 41.3147ZM28.482 39.7417L28.7037 39.936L28.7039 39.9358L28.482 39.7417ZM33.464 32.803L33.7183 32.9521L33.7184 32.9519L33.464 32.803ZM37.0761 25.0611L37.354 25.1593L37.3541 25.159L37.0761 25.0611ZM38.2803 20.9563L37.9933 20.8895L37.9932 20.8897L38.2803 20.9563ZM38.9909 16.7359L39.2842 16.7653L39.2842 16.7651L38.9909 16.7359ZM39.0824 12.4547L39.3765 12.4359L39.3765 12.4358L39.0824 12.4547ZM38.3523 8.23157L38.0697 8.31529L38.0698 8.31571L38.3523 8.23157ZM37.5853 6.22325L37.3184 6.34825L37.3187 6.3488L37.5853 6.22325ZM36.4955 4.36731L36.2521 4.5337L36.2561 4.53927L36.4955 4.36731ZM36.3343 4.15074L36.5675 3.97051L36.5668 3.96963L36.3343 4.15074ZM36.1692 3.93752L36.3985 3.75232L36.3938 3.74678L36.1692 3.93752ZM35.8195 3.5267L35.6011 3.72475L35.6047 3.72853L35.8195 3.5267ZM35.6382 3.32687L35.8566 3.12871L35.8488 3.12069L35.6382 3.32687ZM35.4491 3.13374L35.6597 2.92756L35.6588 2.92664L35.4491 3.13374ZM35.3543 3.03774L35.5641 2.83051L35.5566 2.82342L35.3543 3.03774ZM35.2561 2.94508L35.4584 2.73076L35.4578 2.73016L35.2561 2.94508ZM35.0592 2.76032L35.2611 2.54521L35.2516 2.53706L35.0592 2.76032ZM34.8545 2.58394L35.0469 2.36067L35.0459 2.35981L34.8545 2.58394ZM34.7519 2.49631L34.9434 2.27202L34.9346 2.26505L34.7519 2.49631ZM34.434 2.24513L34.6168 2.01368L34.607 2.00653L34.434 2.24513ZM34.2153 2.08661L34.3883 1.848L34.3875 1.84742L34.2153 2.08661ZM34.106 2.0079L34.2783 1.76852L34.2681 1.7618L34.106 2.0079ZM33.768 1.78519L33.9303 1.53884L33.919 1.53209L33.768 1.78519ZM33.536 1.64676L33.385 1.89986L33.385 1.89986L33.536 1.64676ZM33.4199 1.57755L33.5711 1.32422L33.56 1.31826L33.4199 1.57755ZM33.3011 1.51336L33.4412 1.25407V1.25407L33.3011 1.51336ZM33.0635 1.38498L33.2037 1.12546L33.1927 1.12009L33.0635 1.38498ZM32.8209 1.26665L32.9501 1.00175L32.9498 1.00163L32.8209 1.26665ZM32.6993 1.20748L32.8283 0.94243L32.8238 0.940351L32.6993 1.20748ZM32.5755 1.15334L32.4584 1.42381V1.42381L32.5755 1.15334ZM32.3278 1.04617L32.445 0.775536L32.4358 0.771927L32.3278 1.04617ZM31.3071 0.695073L31.2249 0.978133L31.2299 0.979498L31.3071 0.695073ZM29.1859 0.324444L29.2084 0.0305769L29.2069 0.0304691L29.1859 0.324444ZM24.9213 0.736378L24.9922 1.02243L24.9928 1.02228L24.9213 0.736378ZM20.9109 2.23843L21.0418 2.5025L21.0419 2.50245L20.9109 2.23843ZM17.2453 4.44713L17.4157 4.68757L17.4159 4.68744L17.2453 4.44713ZM13.9266 7.14647L13.7271 6.92952L13.727 6.92957L13.9266 7.14647ZM12.3933 8.63792L12.1818 8.43262L12.1817 8.43274L12.3933 8.63792ZM10.9436 10.2109L10.722 10.0166L10.7218 10.0168L10.9436 10.2109ZM6.17527 17.2751L6.02591 17.5292L6.28033 17.6788L6.42955 17.4241L6.17527 17.2751ZM11.1299 10.3744L10.9083 10.1801L10.9081 10.1804L11.1299 10.3744ZM12.5706 8.81151L12.3592 8.60623L12.359 8.60635L12.5706 8.81151ZM14.0944 7.32955L13.895 7.1126L13.8949 7.11271L14.0944 7.32955ZM17.3886 4.64975L17.5591 4.89013L17.5592 4.89006L17.3886 4.64975ZM21.0208 2.46114L20.8899 2.19707V2.19707L21.0208 2.46114ZM24.9809 0.97751L25.0519 1.26355L25.0525 1.26341L24.9809 0.97751ZM29.1681 0.572274L29.1906 0.27841L29.1891 0.278307L29.1681 0.572274ZM31.2391 0.933972L31.1566 1.21695L31.1617 1.21836L31.2391 0.933972ZM32.2336 1.27613L32.3506 1.00544L32.3411 1.00172L32.2336 1.27613ZM32.4751 1.38051L32.5949 1.11121L32.592 1.10998L32.4751 1.38051ZM32.5956 1.43354L32.7244 1.16845L32.7199 1.16631L32.5956 1.43354ZM32.7138 1.49103L32.5849 1.75608L32.5849 1.75608L32.7138 1.49103ZM32.9503 1.60602L33.0905 1.34647L33.0792 1.34097L32.9503 1.60602ZM33.1818 1.73105L33.3221 1.47188L33.3218 1.47174L33.1818 1.73105ZM33.2972 1.79356L33.4489 1.54054L33.4376 1.5344L33.2972 1.79356ZM33.4099 1.8611L33.2584 2.11388L33.2586 2.11405L33.4099 1.8611ZM33.6358 1.99618L33.7979 1.74974L33.787 1.74323L33.6358 1.99618ZM33.8556 2.14075L34.018 1.89481L34.0175 1.89453L33.8556 2.14075ZM33.9654 2.21331L34.1383 1.97427L34.1278 1.96738L33.9654 2.21331ZM34.072 2.29034L33.8993 2.52917L33.8993 2.52917L34.072 2.29034ZM34.285 2.4444L34.4679 2.2129L34.4577 2.20557L34.285 2.4444ZM34.4914 2.60738L34.6741 2.3761V2.3761L34.4914 2.60738ZM34.5946 2.68888L34.7871 2.46533L34.7773 2.45759L34.5946 2.68888ZM34.6944 2.77484L34.887 2.55176L34.8867 2.55149L34.6944 2.77484ZM34.8936 2.94676L35.0952 2.73149L35.0862 2.72368L34.8936 2.94676ZM35.1814 3.21635L35.3912 3.00913L35.3828 3.00127L35.1814 3.21635ZM35.274 3.31013L35.4846 3.104L35.4837 3.10306L35.274 3.31013ZM35.458 3.49823L35.6767 3.30032L35.6687 3.29211L35.458 3.49823ZM35.6348 3.6936L35.4163 3.89139L35.4199 3.89524L35.6348 3.6936ZM35.9762 4.09437L36.2069 3.91069L36.2004 3.90311L35.9762 4.09437ZM36.1374 4.30257L36.3712 4.12313L36.3696 4.12106L36.1374 4.30257ZM36.2947 4.51411L36.0513 4.68058L36.0558 4.68678L36.2947 4.51411ZM38.1152 8.30469L38.3976 8.22048L38.3974 8.21978L38.1152 8.30469ZM38.8359 12.4726L39.13 12.4538L39.13 12.4535L38.8359 12.4726ZM38.7449 16.7136L39.0382 16.743L39.0382 16.7427L38.7449 16.7136ZM38.0394 20.9022L37.7523 20.8352L37.7523 20.8356L38.0394 20.9022ZM36.843 24.9808L37.1208 25.0789L37.1209 25.0787L36.843 24.9808ZM33.2504 32.6797L33.5046 32.8287L33.5047 32.8286L33.2504 32.6797ZM28.2957 39.5804L28.5173 39.7747L28.5176 39.7745L28.2957 39.5804ZM26.855 41.1433L27.0665 41.3486L27.0666 41.3485L26.855 41.1433ZM25.3312 42.6253L25.5307 42.8422L25.5308 42.8421L25.3312 42.6253ZM22.037 45.3051L21.8665 45.0647L21.8664 45.0648L22.037 45.3051ZM18.4049 47.4937L18.5357 47.7578H18.5357L18.4049 47.4937ZM14.4447 48.9773L14.3737 48.6913L14.3732 48.6914L14.4447 48.9773ZM10.2576 49.3825L10.2351 49.6764L10.2365 49.6765L10.2576 49.3825ZM8.18658 49.0209L8.2691 48.7379L8.26394 48.7365L8.18658 49.0209ZM7.19209 48.6787L7.07509 48.9494L7.08459 48.9531L7.19209 48.6787ZM6.95057 48.5743L6.8308 48.8436L6.83365 48.8448L6.95057 48.5743ZM6.83009 48.5213L6.70121 48.7864L6.7058 48.7885L6.83009 48.5213ZM6.71185 48.4638L6.58298 48.7288H6.58298L6.71185 48.4638ZM6.47535 48.3488L6.33516 48.6083L6.34648 48.6139L6.47535 48.3488ZM6.24388 48.2238L6.10355 48.4829L6.10381 48.4831L6.24388 48.2238ZM6.12842 48.1613L5.97675 48.4143L5.9881 48.4204L6.12842 48.1613ZM6.01575 48.0937L6.16728 47.8409L6.16701 47.8408L6.01575 48.0937ZM5.78986 47.9586L5.62774 48.2051L5.6386 48.2116L5.78986 47.9586ZM5.5701 47.8141L5.40769 48.06L5.40813 48.0603L5.5701 47.8141ZM5.46022 47.7415L5.28738 47.9806L5.29781 47.9874L5.46022 47.7415ZM5.35369 47.6645L5.52637 47.4257H5.52637L5.35369 47.6645ZM5.14062 47.5104L4.95779 47.7419L4.96793 47.7493L5.14062 47.5104ZM4.93424 47.3474L4.75158 47.5787L4.75158 47.5787L4.93424 47.3474ZM4.83106 47.2659L4.63934 47.4901L4.64839 47.4972L4.83106 47.2659ZM4.73122 47.1805L4.53861 47.4036L4.53965 47.4045L4.73122 47.1805ZM4.5321 47.0086L4.33045 47.2239L4.33949 47.2317L4.5321 47.0086ZM4.34023 46.8289L4.54171 46.6138L4.5417 46.6138L4.34023 46.8289ZM4.24429 46.739L4.03441 46.9463L4.04281 46.9541L4.24429 46.739ZM4.1517 46.6453L3.94105 46.8514L3.94198 46.8523L4.1517 46.6453ZM3.96763 46.4571L3.74895 46.6551L3.75699 46.6633L3.96763 46.4571ZM3.79082 46.2618L4.00937 46.064L4.00576 46.0601L3.79082 46.2618ZM3.44947 45.861L3.21877 46.0447L3.22524 46.0523L3.44947 45.861ZM3.28828 45.6528L3.05446 45.8323L3.05608 45.8343L3.28828 45.6528ZM3.13098 45.4413L3.37431 45.2748L3.36983 45.2686L3.13098 45.4413ZM1.31044 41.6507L1.028 41.7349L1.02821 41.7356L1.31044 41.6507ZM0.5898 37.4828L0.295683 37.5016L0.295699 37.5019L0.5898 37.4828ZM0.680716 33.2418L0.387464 33.2124L0.387441 33.2126L0.680716 33.2418ZM1.38629 29.0532L1.67331 29.1202L1.6734 29.1198L1.38629 29.0532ZM2.5827 24.9746L2.30482 24.8764L2.30472 24.8767L2.5827 24.9746ZM6.17527 17.2757L6.42961 17.4246L6.57824 17.1707L6.32464 17.0216L6.17527 17.2757ZM5.96165 17.1501H5.66693V17.3187L5.81228 17.4042L5.96165 17.1501ZM5.96165 17.1495L5.7073 17.0007C4.2583 19.4762 3.02871 22.0847 2.07167 24.7933L2.34956 24.8915L2.62744 24.9896C3.57127 22.3185 4.78469 19.7438 6.216 17.2984L5.96165 17.1495ZM2.34956 24.8915L2.07156 24.7936C1.59484 26.1478 1.18336 27.528 0.85824 28.9297L1.14534 28.9963L1.43243 29.0629C1.75209 27.6848 2.15718 26.3255 2.62755 24.9893L2.34956 24.8915ZM1.14534 28.9963L0.858291 28.9295C0.532272 30.3301 0.285129 31.7521 0.141489 33.1873L0.434743 33.2166L0.727997 33.246C0.868817 31.839 1.11139 30.4421 1.43238 29.0631L1.14534 28.9963ZM0.434743 33.2166L0.141466 33.1875C-0.000995961 34.6222 -0.0434875 36.0713 0.0491528 37.5167L0.343268 37.4979L0.637384 37.479C0.547077 36.07 0.588252 34.6533 0.72802 33.2458L0.434743 33.2166ZM0.343268 37.4979L0.0491607 37.5168C0.142386 38.962 0.374264 40.4065 0.790935 41.8052L1.07339 41.721L1.35584 41.6369C0.953707 40.287 0.728214 38.8871 0.637376 37.4789L0.343268 37.4979ZM1.07339 41.721L0.79081 41.8047C0.998758 42.5066 1.26184 43.1926 1.57367 43.8549L1.84032 43.7293L2.10696 43.6038C1.80748 42.9678 1.55518 42.3097 1.35596 41.6373L1.07339 41.721ZM1.84032 43.7293L1.57342 43.8543C1.88579 44.5213 2.26095 45.1588 2.69083 45.7572L2.93019 45.5853L3.16955 45.4133C2.76055 44.844 2.40392 44.2379 2.10721 43.6043L1.84032 43.7293ZM2.93019 45.5853L2.6869 45.7516C2.74351 45.8344 2.80456 45.9127 2.85819 45.9821L3.09139 45.8018L3.32458 45.6216C3.26778 45.5481 3.21838 45.4846 3.17348 45.4189L2.93019 45.5853ZM3.09139 45.8018L2.85888 45.983C2.90673 46.0444 2.96976 46.1291 3.02718 46.2002L3.25648 46.0151L3.48579 45.8299C3.43054 45.7615 3.38648 45.7011 3.32389 45.6207L3.09139 45.8018ZM3.25648 46.0151L3.03181 46.2058C3.13601 46.3285 3.26198 46.49 3.39143 46.6277L3.6062 46.4259L3.82097 46.2241C3.70389 46.0995 3.61011 45.9762 3.48115 45.8243L3.25648 46.0151ZM3.6062 46.4259L3.38792 46.6239L3.56919 46.8237L3.78748 46.6257L4.00576 46.4277L3.82449 46.2279L3.6062 46.4259ZM3.78748 46.6257L3.57689 46.8319L3.76597 47.025L3.97656 46.8188L4.18715 46.6127L3.99807 46.4195L3.78748 46.6257ZM3.97656 46.8188L3.76687 47.0259L3.86169 47.122L4.07138 46.9149L4.28107 46.7078L4.18625 46.6117L3.97656 46.8188ZM4.07138 46.9149L3.86909 47.1292L3.96725 47.2218L4.16955 47.0075L4.37184 46.7932L4.27368 46.7005L4.07138 46.9149ZM4.16955 47.0075L3.96788 47.2224L4.16477 47.4072L4.36644 47.1923L4.56811 46.9773L4.37122 46.7926L4.16955 47.0075ZM4.36644 47.1923L4.17405 47.4155L4.37875 47.5919L4.57114 47.3686L4.76352 47.1454L4.55882 46.969L4.36644 47.1923ZM4.57114 47.3686L4.37976 47.5928L4.48239 47.6804L4.67377 47.4563L4.86514 47.2321L4.76251 47.1445L4.57114 47.3686ZM4.67377 47.4563L4.49107 47.6875L4.59704 47.7713L4.77975 47.54L4.96245 47.3088L4.85647 47.225L4.67377 47.4563ZM4.77975 47.54L4.59704 47.7713L4.80899 47.9387L4.9917 47.7075L5.1744 47.4762L4.96245 47.3088L4.77975 47.54ZM4.9917 47.7075L4.8187 47.9461L5.03734 48.1046L5.21034 47.866L5.38333 47.6274L5.16469 47.4689L4.9917 47.7075ZM5.21034 47.866L5.03815 48.1052L5.14747 48.1839L5.31966 47.9447L5.49185 47.7055L5.38253 47.6268L5.21034 47.866ZM5.31966 47.9447L5.1575 48.1908L5.27017 48.265L5.43233 48.0189L5.59449 47.7728L5.48182 47.6986L5.31966 47.9447ZM5.43233 48.0189L5.27017 48.265L5.49551 48.4135L5.65767 48.1674L5.81982 47.9213L5.59448 47.7728L5.43233 48.0189ZM5.65767 48.1674L5.50667 48.4205L5.7387 48.5589L5.8897 48.3058L6.0407 48.0527L5.80867 47.9143L5.65767 48.1674ZM5.8897 48.3058L5.7387 48.5589L5.85472 48.6281L6.00572 48.375L6.15671 48.1219L6.04069 48.0527L5.8897 48.3058ZM6.00572 48.375L5.86562 48.6343L5.98442 48.6985L6.12452 48.4392L6.26462 48.1799L6.14581 48.1157L6.00572 48.375ZM6.12452 48.4392L5.98442 48.6985L6.22203 48.8269L6.36213 48.5676L6.50222 48.3083L6.26461 48.1799L6.12452 48.4392ZM6.36213 48.5676L6.23294 48.8325L6.47556 48.9508L6.60476 48.6859L6.73395 48.4211L6.49132 48.3027L6.36213 48.5676ZM6.60476 48.6859L6.4758 48.951L6.5974 49.0101L6.72635 48.7451L6.8553 48.4801L6.73371 48.4209L6.60476 48.6859ZM6.72635 48.7451L6.60184 49.0122C6.64748 49.0335 6.69775 49.0544 6.73312 49.0697L6.85017 48.7993L6.96722 48.5288C6.92005 48.5084 6.88665 48.4947 6.85086 48.478L6.72635 48.7451ZM6.85017 48.7993L6.73313 49.0697L6.98077 49.1769L7.09782 48.9064L7.21487 48.6359L6.96722 48.5288L6.85017 48.7993ZM7.09782 48.9064L6.98988 49.1807C7.32746 49.3135 7.67798 49.4433 8.04132 49.5419L8.11853 49.2575L8.19575 48.9731C7.86411 48.8831 7.53751 48.7628 7.20577 48.6322L7.09782 48.9064ZM8.11853 49.2575L8.03631 49.5405C8.75099 49.7482 9.48491 49.8661 10.2173 49.922L10.2397 49.6281L10.2622 49.3343C9.56219 49.2808 8.86934 49.1687 8.20076 48.9745L8.11853 49.2575ZM10.2397 49.6281L10.2188 49.9221C11.6897 50.0269 13.1637 49.8554 14.5759 49.5021L14.5044 49.2162L14.4329 48.9303C13.0697 49.2714 11.6588 49.4337 10.2607 49.3342L10.2397 49.6281ZM14.5044 49.2162L14.5754 49.5023C15.9902 49.1513 17.3507 48.6205 18.6457 47.9782L18.5147 47.7142L18.3838 47.4501C17.1197 48.0771 15.7996 48.5913 14.4334 48.9302L14.5044 49.2162ZM18.5147 47.7142L18.6456 47.9782C19.9419 47.3358 21.1767 46.5796 22.351 45.7458L22.1804 45.5055L22.0098 45.2652C20.8571 46.0836 19.6488 46.8232 18.3839 47.4501L18.5147 47.7142ZM22.1804 45.5055L22.3508 45.7459C23.5269 44.9122 24.6404 43.996 25.6986 43.0231L25.4991 42.8061L25.2996 42.5892C24.2573 43.5475 23.1631 44.4476 22.0099 45.265L22.1804 45.5055ZM25.4991 42.8061L25.6986 43.023C26.2274 42.5366 26.7434 42.0354 27.2438 41.52L27.0324 41.3147L26.8209 41.1094C26.3285 41.6165 25.8205 42.11 25.2996 42.5892L25.4991 42.8061ZM27.0324 41.3147L27.244 41.5199C27.7439 41.0043 28.2303 40.476 28.7037 39.936L28.482 39.7417L28.2604 39.5475C27.7934 40.0803 27.3137 40.6013 26.8208 41.1095L27.0324 41.3147ZM28.482 39.7417L28.7039 39.9358C30.5947 37.7743 32.2676 35.427 33.7183 32.9521L33.464 32.803L33.2097 32.654C31.7768 35.0988 30.1253 37.4157 28.2602 39.5477L28.482 39.7417ZM33.464 32.803L33.7184 32.9519C35.1674 30.4764 36.397 27.8679 37.354 25.1593L37.0761 25.0611L36.7982 24.963C35.8544 27.6341 34.641 30.2088 33.2097 32.6542L33.464 32.803ZM37.0761 25.0611L37.3541 25.159C37.8308 23.8048 38.2423 22.4246 38.5674 21.0229L38.2803 20.9563L37.9932 20.8897C37.6736 22.2678 37.2685 23.6271 36.7981 24.9633L37.0761 25.0611ZM38.2803 20.9563L38.5674 21.0231C38.8934 19.6225 39.1405 18.2005 39.2842 16.7653L38.9909 16.7359L38.6977 16.7066C38.5568 18.1136 38.3143 19.5104 37.9933 20.8895L38.2803 20.9563ZM38.9909 16.7359L39.2842 16.7651C39.4267 15.3304 39.4691 13.8813 39.3765 12.4359L39.0824 12.4547L38.7883 12.4736C38.8786 13.8826 38.8374 15.2993 38.6976 16.7068L38.9909 16.7359ZM39.0824 12.4547L39.3765 12.4358C39.2833 10.9905 39.0514 9.54606 38.6347 8.14742L38.3523 8.23157L38.0698 8.31571C38.4719 9.66554 38.6974 11.0655 38.7883 12.4737L39.0824 12.4547ZM38.3523 8.23157L38.6348 8.14784C38.4269 7.446 38.1638 6.75999 37.852 6.0977L37.5853 6.22325L37.3187 6.3488C37.6182 6.98482 37.8705 7.64291 38.0697 8.31529L38.3523 8.23157ZM37.5853 6.22325L37.8522 6.09825C37.5399 5.43125 37.1647 4.79375 36.7348 4.19536L36.4955 4.36731L36.2561 4.53927C36.6651 5.10858 37.0217 5.7147 37.3184 6.34825L37.5853 6.22325ZM36.4955 4.36731L36.7388 4.20097C36.6821 4.11817 36.6211 4.03992 36.5675 3.97052L36.3343 4.15074L36.1011 4.33097C36.1579 4.40446 36.2073 4.46798 36.2522 4.53365L36.4955 4.36731ZM36.3343 4.15074L36.5668 3.96963C36.5189 3.9082 36.4559 3.82349 36.3985 3.75237L36.1692 3.93752L35.9399 4.12266C35.9951 4.19109 36.0392 4.2515 36.1018 4.33185L36.3343 4.15074ZM36.1692 3.93752L36.3938 3.74678C36.2896 3.62405 36.1637 3.46263 36.0342 3.32487L35.8195 3.5267L35.6047 3.72853C35.7218 3.85311 35.8155 3.97637 35.9445 4.12826L36.1692 3.93752ZM35.8195 3.5267L36.0377 3.32868L35.8565 3.12886L35.6382 3.32687L35.4199 3.52489L35.6012 3.72472L35.8195 3.5267ZM35.6382 3.32687L35.8488 3.12069L35.6597 2.92756L35.4491 3.13374L35.2385 3.33993L35.4276 3.53305L35.6382 3.32687ZM35.4491 3.13374L35.6588 2.92664L35.564 2.83064L35.3543 3.03774L35.1446 3.24484L35.2394 3.34085L35.4491 3.13374ZM35.3543 3.03774L35.5566 2.82342L35.4584 2.73076L35.2561 2.94508L35.0538 3.1594L35.152 3.25206L35.3543 3.03774ZM35.2561 2.94508L35.4578 2.73016L35.2609 2.54541L35.0592 2.76032L34.8575 2.97524L35.0544 3.16L35.2561 2.94508ZM35.0592 2.76032L35.2516 2.53706L35.0469 2.36067L34.8545 2.58394L34.6621 2.80721L34.8668 2.98359L35.0592 2.76032ZM34.8545 2.58394L35.0459 2.35981L34.9433 2.27218L34.7519 2.49631L34.5605 2.72043L34.6631 2.80807L34.8545 2.58394ZM34.7519 2.49631L34.9346 2.26505L34.8286 2.18133L34.6459 2.41258L34.4632 2.64384L34.5692 2.72756L34.7519 2.49631ZM34.6459 2.41258L34.8286 2.18133L34.6167 2.01387L34.434 2.24513L34.2513 2.47638L34.4632 2.64384L34.6459 2.41258ZM34.434 2.24513L34.607 2.00653L34.3883 1.848L34.2153 2.08661L34.0423 2.32521L34.261 2.48373L34.434 2.24513ZM34.2153 2.08661L34.3875 1.84742L34.2782 1.76872L34.106 2.0079L33.9338 2.24709L34.0431 2.32579L34.2153 2.08661ZM34.106 2.0079L34.2681 1.7618L34.1555 1.68757L33.9933 1.93367L33.8312 2.17977L33.9438 2.254L34.106 2.0079ZM33.9933 1.93367L34.1555 1.68757L33.9301 1.53909L33.768 1.78519L33.6058 2.03129L33.8312 2.17977L33.9933 1.93367ZM33.768 1.78519L33.919 1.53209L33.687 1.39366L33.536 1.64676L33.385 1.89986L33.617 2.03829L33.768 1.78519ZM33.536 1.64676L33.687 1.39366L33.5709 1.32445L33.4199 1.57755L33.2689 1.83065L33.385 1.89986L33.536 1.64676ZM33.4199 1.57755L33.56 1.31826L33.4412 1.25407L33.3011 1.51336L33.161 1.77265L33.2798 1.83684L33.4199 1.57755ZM33.3011 1.51336L33.4412 1.25407L33.2036 1.12569L33.0635 1.38498L32.9234 1.64427L33.161 1.77265L33.3011 1.51336ZM33.0635 1.38498L33.1927 1.12009L32.9501 1.00175L32.8209 1.26665L32.6917 1.53154L32.9343 1.64987L33.0635 1.38498ZM32.8209 1.26665L32.9498 1.00163L32.8283 0.942467L32.6993 1.20748L32.5704 1.47249L32.6919 1.53166L32.8209 1.26665ZM32.6993 1.20748L32.8238 0.940351C32.7782 0.919079 32.7279 0.898164 32.6925 0.882857L32.5755 1.15334L32.4584 1.42381C32.5056 1.44423 32.539 1.45792 32.5748 1.47461L32.6993 1.20748ZM32.5755 1.15334L32.6925 0.882857L32.4449 0.775688L32.3278 1.04617L32.2108 1.31664L32.4584 1.42381L32.5755 1.15334ZM32.3278 1.04617L32.4358 0.771927C32.0982 0.639048 31.7477 0.509283 31.3843 0.410648L31.3071 0.695073L31.2299 0.979498C31.5615 1.06953 31.8881 1.18982 32.2199 1.3204L32.3278 1.04617ZM31.3071 0.695073L31.3893 0.412057C30.6747 0.204417 29.9407 0.0865191 29.2084 0.0305808L29.1859 0.324444L29.1635 0.618307C29.8635 0.671771 30.5563 0.783842 31.2249 0.978089L31.3071 0.695073ZM29.1859 0.324444L29.2069 0.0304691C27.7359 -0.0742676 26.262 0.0971453 24.8497 0.450471L24.9213 0.736378L24.9928 1.02228C26.356 0.681239 27.7668 0.518863 29.165 0.618419L29.1859 0.324444ZM24.9213 0.736378L24.8503 0.450329C23.4354 0.801327 22.0749 1.33208 20.78 1.9744L20.9109 2.23843L21.0419 2.50245C22.3059 1.87548 23.6261 1.36133 24.9922 1.02243L24.9213 0.736378ZM20.9109 2.23843L20.78 1.97436C19.4837 2.61677 18.249 3.37303 17.0746 4.20683L17.2453 4.44713L17.4159 4.68744C18.5686 3.86904 19.7768 3.12938 21.0418 2.5025L20.9109 2.23843ZM17.2453 4.44713L17.0748 4.20669C15.8987 5.04037 14.7853 5.9566 13.7271 6.92952L13.9266 7.14647L14.126 7.36343C15.1684 6.40506 16.2626 5.50498 17.4157 4.68757L17.2453 4.44713ZM13.9266 7.14647L13.727 6.92957C13.1982 7.416 12.6822 7.9172 12.1818 8.43262L12.3933 8.63792L12.6047 8.84322C13.0971 8.33606 13.6052 7.84259 14.1261 7.36338L13.9266 7.14647ZM12.3933 8.63792L12.1817 8.43274C11.6817 8.94825 11.1953 9.47658 10.722 10.0166L10.9436 10.2109L11.1652 10.4051C11.6323 9.87232 12.112 9.35128 12.6048 8.8431L12.3933 8.63792ZM10.9436 10.2109L10.7218 10.0168C8.83093 12.1783 7.15806 14.5255 5.70739 17.0005L5.96165 17.1495L6.21591 17.2986C7.64889 14.8538 9.30032 12.5369 11.1654 10.4049L10.9436 10.2109ZM5.96165 17.1495L5.81228 17.4036L6.02591 17.5292L6.17527 17.2751L6.32464 17.0211L6.11101 16.8955L5.96165 17.1495ZM6.17527 17.2751L6.42955 17.4241C7.85471 14.9922 9.49776 12.6877 11.3517 10.5685L11.1299 10.3744L10.9081 10.1804C9.02839 12.329 7.36388 14.664 5.921 17.1261L6.17527 17.2751ZM11.1299 10.3744L11.3515 10.5687C11.8157 10.0393 12.2926 9.52156 12.7822 9.01668L12.5706 8.81151L12.359 8.60635C11.8625 9.11846 11.3789 9.64342 10.9083 10.1801L11.1299 10.3744ZM12.5706 8.81151L12.7821 9.01679C13.2716 8.51253 13.7763 8.02295 14.294 7.5464L14.0944 7.32955L13.8949 7.11271C13.3696 7.59622 12.8569 8.0935 12.3592 8.60623L12.5706 8.81151ZM14.0944 7.32955L14.2939 7.54651C15.329 6.59486 16.4154 5.70145 17.5591 4.89013L17.3886 4.64975L17.2181 4.40937C16.0516 5.23686 14.9459 6.14636 13.895 7.1126L14.0944 7.32955ZM17.3886 4.64975L17.5592 4.89006C18.7024 4.07836 19.9001 3.3454 21.1516 2.72522L21.0208 2.46114L20.8899 2.19707C19.607 2.83278 18.3829 3.58234 17.218 4.40945L17.3886 4.64975ZM21.0208 2.46114L21.1516 2.72522C22.4024 2.10543 23.7064 1.59743 25.0519 1.26355L24.9809 0.97751L24.9099 0.691466C23.5157 1.03745 22.1714 1.56208 20.8899 2.19707L21.0208 2.46114ZM24.9809 0.97751L25.0525 1.26341C26.3951 0.927379 27.7802 0.768382 29.147 0.86624L29.1681 0.572274L29.1891 0.278307C27.7493 0.175222 26.301 0.343317 24.9094 0.69161L24.9809 0.97751ZM29.1681 0.572274L29.1456 0.866134C29.8302 0.918501 30.5062 1.02726 31.1566 1.21691L31.2391 0.933972L31.3216 0.651037C30.6244 0.447732 29.907 0.333216 29.1906 0.278413L29.1681 0.572274ZM31.2391 0.933972L31.1617 1.21836C31.4844 1.30614 31.802 1.42361 32.1261 1.55055L32.2336 1.27613L32.3411 1.00172C32.0125 0.873018 31.6709 0.746004 31.3164 0.649588L31.2391 0.933972ZM32.2336 1.27613L32.1166 1.54667L32.3582 1.65105L32.4751 1.38051L32.592 1.10998L32.3505 1.0056L32.2336 1.27613ZM32.4751 1.38051L32.3553 1.6498C32.4078 1.67315 32.4326 1.68276 32.4713 1.70077L32.5956 1.43354L32.7199 1.16631C32.6794 1.14748 32.6227 1.1236 32.5948 1.11123L32.4751 1.38051ZM32.5956 1.43354L32.4667 1.69859L32.5849 1.75608L32.7138 1.49103L32.8427 1.22598L32.7244 1.16849L32.5956 1.43354ZM32.7138 1.49103L32.5849 1.75608L32.8214 1.87107L32.9503 1.60602L33.0792 1.34097L32.8427 1.22598L32.7138 1.49103ZM32.9503 1.60602L32.8102 1.86532L33.0417 1.99036L33.1818 1.73105L33.3218 1.47174L33.0904 1.34671L32.9503 1.60602ZM33.1818 1.73105L33.0414 1.99022L33.1569 2.05273L33.2972 1.79356L33.4376 1.5344L33.3221 1.47188L33.1818 1.73105ZM33.2972 1.79356L33.1457 2.04634L33.2584 2.11388L33.4099 1.8611L33.5614 1.60833L33.4488 1.54079L33.2972 1.79356ZM33.4099 1.8611L33.2586 2.11405L33.4845 2.24913L33.6358 1.99618L33.787 1.74323L33.5611 1.60816L33.4099 1.8611ZM33.6358 1.99618L33.4738 2.2424L33.6936 2.38697L33.8556 2.14075L34.0175 1.89453L33.7978 1.74996L33.6358 1.99618ZM33.8556 2.14075L33.6931 2.38668L33.803 2.45925L33.9654 2.21331L34.1278 1.96738L34.018 1.89481L33.8556 2.14075ZM33.9654 2.21331L33.7927 2.45214L33.8993 2.52917L34.072 2.29034L34.2447 2.05152L34.1381 1.97449L33.9654 2.21331ZM34.072 2.29034L33.8993 2.52917L34.1124 2.68323L34.285 2.4444L34.4577 2.20557L34.2446 2.05151L34.072 2.29034ZM34.285 2.4444L34.1024 2.67568L34.3087 2.83867L34.4914 2.60738L34.6741 2.3761L34.4677 2.21311L34.285 2.4444ZM34.4914 2.60738L34.3087 2.83867L34.4119 2.92016L34.5946 2.68888L34.7773 2.45759L34.6741 2.3761L34.4914 2.60738ZM34.5946 2.68888L34.4023 2.91223L34.5021 2.99818L34.6944 2.77484L34.8867 2.55149L34.7869 2.46553L34.5946 2.68888ZM34.6944 2.77484L34.5018 2.99792L34.701 3.16984L34.8936 2.94676L35.0862 2.72368L34.887 2.55176L34.6944 2.77484ZM34.8936 2.94676L34.6921 3.16184L34.8839 3.34158L35.0854 3.12649L35.2869 2.9114L35.095 2.73167L34.8936 2.94676ZM35.0854 3.12649L34.8839 3.34158L34.9799 3.43144L35.1814 3.21635L35.3828 3.00127L35.2869 2.9114L35.0854 3.12649ZM35.1814 3.21635L34.9716 3.42343L35.0642 3.5172L35.274 3.31013L35.4837 3.10306L35.3911 3.00928L35.1814 3.21635ZM35.274 3.31013L35.0633 3.51625L35.2474 3.70436L35.458 3.49823L35.6687 3.29211L35.4846 3.104L35.274 3.31013ZM35.458 3.49823L35.2395 3.696L35.4163 3.89136L35.6348 3.6936L35.8533 3.49583L35.6765 3.30047L35.458 3.49823ZM35.6348 3.6936L35.4199 3.89524C35.5344 4.01728 35.6247 4.13643 35.7519 4.28562L35.9762 4.09437L36.2004 3.90311C36.1001 3.78549 35.9751 3.62555 35.8498 3.49195L35.6348 3.6936ZM35.9762 4.09437L35.7456 4.27794C35.8015 4.34813 35.8433 4.40485 35.9052 4.48407L36.1374 4.30257L36.3696 4.12106C36.3233 4.06186 36.2602 3.97791 36.2067 3.9108L35.9762 4.09437ZM36.1374 4.30257L35.9036 4.482C35.9596 4.55504 36.0075 4.61631 36.0514 4.68052L36.2947 4.51411L36.5379 4.34771C36.4826 4.26679 36.4222 4.18964 36.3712 4.12314L36.1374 4.30257ZM36.2947 4.51411L36.0558 4.68678C36.8572 5.79533 37.4344 7.06463 37.833 8.3896L38.1152 8.30469L38.3974 8.21978C37.984 6.8454 37.3809 5.51361 36.5335 4.34145L36.2947 4.51411ZM38.1152 8.30469L37.8328 8.3889C38.2287 9.71688 38.4515 11.099 38.5418 12.4917L38.8359 12.4726L39.13 12.4535C39.0373 11.0241 38.8082 9.59742 38.3976 8.22048L38.1152 8.30469ZM38.8359 12.4726L38.5417 12.4914C38.6309 13.8849 38.5903 15.2887 38.4517 16.6845L38.7449 16.7136L39.0382 16.7427C39.1796 15.3198 39.2215 13.8836 39.13 12.4538L38.8359 12.4726ZM38.7449 16.7136L38.4517 16.6843C38.312 18.0796 38.0716 19.4664 37.7523 20.8352L38.0394 20.9022L38.3264 20.9691C38.6508 19.5783 38.8957 18.1664 39.0382 16.743L38.7449 16.7136ZM38.0394 20.9022L37.7523 20.8356C37.4348 22.2047 37.0325 23.5551 36.565 24.8829L36.843 24.9808L37.1209 25.0787C37.5949 23.7328 38.0036 22.3615 38.3265 20.9687L38.0394 20.9022ZM36.843 24.9808L36.5651 24.8826C35.6268 27.5381 34.4201 30.0983 32.996 32.5308L33.2504 32.6797L33.5047 32.8286C34.9465 30.3659 36.1694 27.7719 37.1208 25.0789L36.843 24.9808ZM33.2504 32.6797L32.9961 32.5307C31.5709 34.9626 29.9279 37.2672 28.0739 39.3864L28.2957 39.5804L28.5176 39.7745C30.3973 37.6259 32.0618 35.2909 33.5046 32.8287L33.2504 32.6797ZM28.2957 39.5804L28.0741 39.3861C27.6099 39.9156 27.133 40.4333 26.6434 40.9381L26.855 41.1433L27.0666 41.3485C27.5632 40.8364 28.0468 40.3114 28.5173 39.7747L28.2957 39.5804ZM26.855 41.1433L26.6436 40.938C26.1541 41.4423 25.6493 41.9319 25.1316 42.4084L25.3312 42.6253L25.5308 42.8421C26.0561 42.3586 26.5688 41.8613 27.0665 41.3486L26.855 41.1433ZM25.3312 42.6253L25.1317 42.4083C24.0966 43.36 23.0103 44.2534 21.8665 45.0647L22.037 45.3051L22.2076 45.5455C23.3741 44.718 24.4797 43.8085 25.5307 42.8422L25.3312 42.6253ZM22.037 45.3051L21.8664 45.0648C20.7232 45.8765 19.5256 46.6094 18.274 47.2296L18.4049 47.4937L18.5357 47.7578C19.8186 47.122 21.0428 46.3725 22.2077 45.5454L22.037 45.3051ZM18.4049 47.4937L18.274 47.2296C17.0232 47.8494 15.7192 48.3574 14.3737 48.6913L14.4447 48.9773L14.5157 49.2634C15.91 48.9174 17.2543 48.3927 18.5357 47.7578L18.4049 47.4937ZM14.4447 48.9773L14.3732 48.6914C13.0306 49.0274 11.6454 49.1864 10.2786 49.0886L10.2576 49.3825L10.2365 49.6765C11.6764 49.7796 13.1247 49.6115 14.5163 49.2632L14.4447 48.9773ZM10.2576 49.3825L10.28 49.0887C9.59541 49.0363 8.91946 48.9276 8.26909 48.7379L8.18658 49.0209L8.10408 49.3038C8.80127 49.5071 9.51861 49.6216 10.2351 49.6764L10.2576 49.3825ZM8.18658 49.0209L8.26394 48.7365C7.94125 48.6487 7.62363 48.5312 7.29958 48.4043L7.19209 48.6787L7.08459 48.9531C7.41312 49.0818 7.75479 49.2088 8.10922 49.3052L8.18658 49.0209ZM7.19209 48.6787L7.30901 48.4082L7.06749 48.3038L6.95057 48.5743L6.83365 48.8448L7.07516 48.9492L7.19209 48.6787ZM6.95057 48.5743L7.07034 48.305C7.01784 48.2817 6.9931 48.2721 6.95439 48.2541L6.83009 48.5213L6.7058 48.7885C6.74629 48.8073 6.80298 48.8312 6.8308 48.8436L6.95057 48.5743ZM6.83009 48.5213L6.95896 48.2562L6.84071 48.1987L6.71185 48.4638L6.58298 48.7288L6.70123 48.7863L6.83009 48.5213ZM6.71185 48.4638L6.84072 48.1987L6.60422 48.0838L6.47535 48.3488L6.34648 48.6139L6.58298 48.7288L6.71185 48.4638ZM6.47535 48.3488L6.61542 48.0895L6.38395 47.9645L6.24388 48.2238L6.10381 48.4831L6.33528 48.6081L6.47535 48.3488ZM6.24388 48.2238L6.38421 47.9646L6.26875 47.9021L6.12842 48.1613L5.9881 48.4204L6.10355 48.4829L6.24388 48.2238ZM6.12842 48.1613L6.27995 47.9085L6.16728 47.8409L6.01575 48.0937L5.86423 48.3465L5.9769 48.414L6.12842 48.1613ZM6.01575 48.0937L6.16701 47.8408L5.94112 47.7057L5.78986 47.9586L5.6386 48.2116L5.8645 48.3467L6.01575 48.0937ZM5.78986 47.9586L5.95183 47.7124L5.73207 47.5679L5.5701 47.8141L5.40813 48.0603L5.62789 48.2049L5.78986 47.9586ZM5.5701 47.8141L5.73251 47.5681L5.62262 47.4956L5.46022 47.7415L5.29781 47.9874L5.40769 48.06L5.5701 47.8141ZM5.46022 47.7415L5.6329 47.5027L5.52637 47.4257L5.35369 47.6645L5.181 47.9033L5.28753 47.9803L5.46022 47.7415ZM5.35369 47.6645L5.52637 47.4257L5.3133 47.2716L5.14062 47.5104L4.96793 47.7493L5.181 47.9033L5.35369 47.6645ZM5.14062 47.5104L5.32328 47.2791L5.11691 47.1162L4.93424 47.3474L4.75158 47.5787L4.95796 47.7417L5.14062 47.5104ZM4.93424 47.3474L5.11691 47.1162L5.01373 47.0347L4.83106 47.2659L4.64839 47.4972L4.75158 47.5787L4.93424 47.3474ZM4.83106 47.2659L5.02263 47.042L4.92278 46.9566L4.73122 47.1805L4.53965 47.4045L4.63949 47.4899L4.83106 47.2659ZM4.73122 47.1805L4.92382 46.9575L4.7247 46.7855L4.5321 47.0086L4.33949 47.2317L4.53861 47.4036L4.73122 47.1805ZM4.5321 47.0086L4.73358 46.7935L4.54171 46.6138L4.34023 46.8289L4.13874 47.044L4.33061 47.2237L4.5321 47.0086ZM4.34023 46.8289L4.5417 46.6138L4.44577 46.5239L4.24429 46.739L4.04281 46.9541L4.13875 47.044L4.34023 46.8289ZM4.24429 46.739L4.45401 46.532L4.36142 46.4382L4.1517 46.6453L3.94198 46.8523L4.03457 46.9461L4.24429 46.739ZM4.1517 46.6453L4.36235 46.4391L4.17828 46.251L3.96763 46.4571L3.75699 46.6633L3.94105 46.8514L4.1517 46.6453ZM3.96763 46.4571L4.18615 46.2594L4.00934 46.064L3.79082 46.2618L3.57231 46.4595L3.74912 46.6549L3.96763 46.4571ZM3.79082 46.2618L4.00576 46.0601C3.89127 45.9381 3.80095 45.819 3.6737 45.6698L3.44947 45.861L3.22524 46.0523C3.32556 46.1699 3.45054 46.3298 3.57589 46.4634L3.79082 46.2618ZM3.44947 45.861L3.68004 45.6774C3.62415 45.6072 3.5824 45.5505 3.52047 45.4713L3.28828 45.6528L3.05608 45.8343C3.10235 45.8935 3.16547 45.9775 3.2189 46.0446L3.44947 45.861ZM3.28828 45.6528L3.52208 45.4734C3.46603 45.4003 3.41816 45.3391 3.37423 45.2749L3.13098 45.4413L2.88774 45.6077C2.94309 45.6886 3.00343 45.7657 3.05447 45.8322L3.28828 45.6528ZM3.13098 45.4413L3.36983 45.2686C2.56844 44.16 1.99128 42.8907 1.59266 41.5658L1.31044 41.6507L1.02821 41.7356C1.4417 43.11 2.04477 44.4418 2.89214 45.6139L3.13098 45.4413ZM1.31044 41.6507L1.59287 41.5665C1.1969 40.2385 0.974183 38.8564 0.883902 37.4637L0.5898 37.4828L0.295699 37.5019C0.388365 38.9313 0.61744 40.358 1.02801 41.7349L1.31044 41.6507ZM0.5898 37.4828L0.883917 37.464C0.794723 36.0705 0.835342 34.6667 0.973992 33.2709L0.680716 33.2418L0.387441 33.2126C0.246093 34.6356 0.204161 36.0718 0.295683 37.5016L0.5898 37.4828ZM0.680716 33.2418L0.973969 33.2711C1.11368 31.8758 1.35403 30.489 1.67331 29.1202L1.38629 29.0532L1.09928 28.9863C0.774891 30.377 0.529983 31.789 0.387464 33.2124L0.680716 33.2418ZM1.38629 29.0532L1.6734 29.1198C1.99082 27.7506 2.39312 26.4003 2.86069 25.0725L2.5827 24.9746L2.30472 24.8767C1.83078 26.2226 1.42208 27.5939 1.09919 28.9867L1.38629 29.0532ZM2.5827 24.9746L2.86059 25.0728C3.79884 22.4173 5.00555 19.8571 6.42961 17.4246L6.17527 17.2757L5.92094 17.1268C4.47919 19.5895 3.25628 22.1835 2.30482 24.8764L2.5827 24.9746ZM6.17527 17.2757L6.32464 17.0216L6.11101 16.896L5.96165 17.1501L5.81228 17.4042L6.02591 17.5298L6.17527 17.2757ZM5.96165 17.1501H6.25637V17.1495H5.96165H5.66693V17.1501H5.96165Z" fill="var(--stroke-0, white)" mask="url(#path-1-outside-1_0_6)"/>
</g>
</g>
</svg>
