<svg preserveAspectRatio="none" width="100%" height="100%" overflow="visible" style="display: block;" viewBox="0 0 1080.12 32.9487" fill="none" xmlns="http://www.w3.org/2000/svg">
<g id="TEMPO">
<path d="M113.524 32.9487H104.524L112.909 7.20479H0L2.23887 0H236.266L234.028 7.20479H121.865L113.524 32.9487Z" fill="var(--fill-0, white)"/>
<path d="M458.082 32.9487H230.507L241.219 0H468.705L466.598 6.67761H248.067L245.872 13.1356H464.184L462.077 19.8132H243.897L241.702 26.2711H460.321L458.082 32.9487Z" fill="var(--fill-0, white)"/>
<path d="M471.684 32.9487H463.3L474.055 0H484.635L530.466 25.6561L594.515 0H607.114L596.402 32.9487H587.447L595.524 7.60017L532.09 32.9487H526.383L480.157 6.98513L471.684 32.9487Z" fill="var(--fill-0, white)"/>
<path d="M619.686 6.67761L616.525 16.2547H821.579C823.979 16.2547 825.983 15.8593 827.593 15.0685C829.232 14.2778 830.242 12.9598 830.622 11.1147C830.915 9.65031 830.666 8.55202 829.876 7.81983C829.115 7.05835 827.856 6.67761 826.1 6.67761H619.686ZM611.125 32.9487H602.17L612.881 0H828.998C831.456 0 833.549 0.45396 835.275 1.36188C837.031 2.2698 838.29 3.52918 839.051 5.14C839.841 6.72154 840.09 8.50809 839.797 10.4997C839.416 13.1063 838.48 15.3468 836.987 17.2212C835.495 19.0663 833.519 20.4868 831.061 21.4826C828.632 22.4491 825.793 22.9323 822.545 22.9323H614.374L611.125 32.9487Z" fill="var(--fill-0, white)"/>
<path d="M1068.57 30.4446C1065.62 32.114 1062.46 32.9487 1059.09 32.9487H854.431C851.446 32.9487 848.944 32.3337 846.924 31.1036C844.905 29.8442 843.486 28.1162 842.666 25.9197C841.847 23.7231 841.657 21.2629 842.096 18.5391C842.622 15.2882 843.866 12.2423 845.827 9.40137C847.788 6.56046 850.261 4.29066 853.246 2.59197C856.231 0.863989 859.421 0 862.816 0H1067.47C1070.58 0 1073.14 0.629687 1075.16 1.88906C1077.18 3.11915 1078.58 4.83248 1079.37 7.02906C1080.16 9.22564 1080.32 11.7151 1079.85 14.4974C1079.3 17.7777 1078.03 20.8382 1076.04 23.6791C1074.05 26.4908 1071.56 28.7459 1068.57 30.4446ZM851.973 24.6017C853.026 25.7146 854.695 26.2711 856.977 26.2711H1058.12C1059.88 26.2711 1061.67 25.7439 1063.48 24.6896C1065.29 23.6352 1066.87 22.1562 1068.22 20.2525C1069.57 18.3195 1070.46 16.1229 1070.9 13.6627C1071.31 11.2611 1071.05 9.50388 1070.11 8.39094C1069.17 7.24872 1067.67 6.67761 1065.59 6.67761H863.387C861.572 6.67761 859.802 7.20479 858.075 8.25915C856.348 9.31351 854.856 10.8072 853.597 12.7402C852.368 14.6439 851.519 16.8258 851.051 19.286C850.612 21.6876 850.919 23.4595 851.973 24.6017Z" fill="var(--fill-0, white)"/>
</g>
</svg>
