<svg width="840" height="400" viewBox="0 0 840 400" fill="none" xmlns="http://www.w3.org/2000/svg" font-family="ui-monospace, 'JetBrains Mono', monospace">
  <rect class="dgm-bg" width="840" height="400"/>

  <!-- Serial -->
  <text x="40" y="48" font-size="13" letter-spacing="0.04em" fill="currentColor" fill-opacity="0.85">SERIAL EXECUTION</text>
  <text x="40" y="68" font-size="11" fill="currentColor" fill-opacity="0.4">ONE TRANSACTION AT A TIME, 6 BLOCKS OF WALL TIME</text>

  <g font-size="11" text-anchor="middle">
    <rect class="dgm-box" x="40"  y="88" width="110" height="44"/>
    <text x="95"  y="115" fill="currentColor" fill-opacity="0.6">tx 1</text>
    <rect class="dgm-box" x="166" y="88" width="110" height="44"/>
    <text x="221" y="115" fill="currentColor" fill-opacity="0.6">tx 2</text>
    <rect class="dgm-box" x="292" y="88" width="110" height="44"/>
    <text x="347" y="115" fill="currentColor" fill-opacity="0.6">tx 3</text>
    <rect class="dgm-box" x="418" y="88" width="110" height="44"/>
    <text x="473" y="115" fill="currentColor" fill-opacity="0.6">tx 4</text>
    <rect class="dgm-box" x="544" y="88" width="110" height="44"/>
    <text x="599" y="115" fill="currentColor" fill-opacity="0.6">tx 5</text>
    <rect class="dgm-box" x="670" y="88" width="110" height="44"/>
    <text x="725" y="115" fill="currentColor" fill-opacity="0.6">tx 6</text>
  </g>

  <line class="dgm-line-soft" x1="40" y1="172" x2="800" y2="172"/>

  <!-- Parallel -->
  <text x="40" y="212" font-size="13" letter-spacing="0.04em" fill="currentColor" fill-opacity="0.85">PARALLEL EXECUTION (ALLEGRO)</text>
  <text x="40" y="232" font-size="11" fill="currentColor" fill-opacity="0.4">DISJOINT STATE RUNS CONCURRENTLY, 2 BLOCKS OF WALL TIME</text>

  <g font-size="11">
    <text x="40" y="280" fill="currentColor" fill-opacity="0.35">LANE 0</text>
    <text x="40" y="324" fill="currentColor" fill-opacity="0.35">LANE 1</text>
    <text x="40" y="368" fill="currentColor" fill-opacity="0.35">LANE 2</text>
  </g>

  <g class="dgm-accent" font-size="11" text-anchor="middle">
    <rect class="dgm-accent-box" x="120" y="256" width="110" height="32"/>
    <text x="175" y="277">tx 1</text>
    <rect class="dgm-accent-box" x="246" y="256" width="110" height="32"/>
    <text x="301" y="277">tx 4</text>

    <rect class="dgm-accent-box" x="120" y="300" width="110" height="32"/>
    <text x="175" y="321">tx 2</text>
    <rect class="dgm-accent-box" x="246" y="300" width="110" height="32"/>
    <text x="301" y="321">tx 5</text>

    <rect class="dgm-accent-box" x="120" y="344" width="110" height="32"/>
    <text x="175" y="365">tx 3</text>
    <rect class="dgm-accent-box" x="246" y="344" width="110" height="32"/>
    <text x="301" y="365">tx 6</text>
  </g>

  <!-- saved wall time -->
  <rect class="dgm-line" x="372" y="256" width="408" height="120" fill="none" stroke-dasharray="4 4"/>
  <text x="576" y="322" font-size="11" fill="currentColor" fill-opacity="0.35" text-anchor="middle">RECLAIMED BLOCKSPACE</text>
</svg>
