<svg width="840" height="517" viewBox="0 0 520 320" fill="none" xmlns="http://www.w3.org/2000/svg" font-family="var(--font-jetbrains-mono), ui-monospace, monospace">
  <rect width="520" height="320" fill="var(--surface-shell)"/>

  <text x="24" y="34" font-size="10.5" fill="var(--foreground)" opacity="0.9" letter-spacing="0.16em">BASE FEE RESPONDS TO BLOCK USE</text>
  <text x="24" y="52" font-size="7.8" fill="var(--foreground)" opacity="0.42" letter-spacing="0.14em">THE LIVE FEE MOVES BETWEEN THE T7 CAP AND FLOOR</text>
  <text x="174" y="76" font-size="7.3" fill="var(--foreground)" opacity="0.48" letter-spacing="0.17em" text-anchor="middle">BELOW TARGET</text>
  <text x="370" y="76" font-size="7.3" fill="var(--foreground)" opacity="0.48" letter-spacing="0.17em" text-anchor="middle">USAGE RISES</text>

  <line x1="58" y1="100" x2="456" y2="100" stroke="var(--line-strong)"/>
  <line x1="58" y1="226" x2="456" y2="226" stroke="var(--line-strong)" stroke-dasharray="4 4" opacity="0.65"/>
  <text x="24" y="104" font-size="7.2" fill="var(--foreground)" opacity="0.38" letter-spacing="0.12em">CAP</text>
  <text x="24" y="230" font-size="7.2" fill="var(--foreground)" opacity="0.38" letter-spacing="0.12em">FLOOR</text>

  <path class="diagram-flow" d="M58 100L157.5 145.36L257 219.7L356.5 157.96L456 100" stroke="#58b88a" stroke-width="2.5" fill="none"/>

  <g>
    <circle cx="58" cy="100" r="4" fill="#5d88ff"/>
    <text x="58" y="87" font-size="6.6" fill="var(--foreground)" opacity="0.55" letter-spacing="0.12em" text-anchor="middle">AT CAP</text>
  </g>
  <g>
    <circle cx="157.5" cy="145.36" r="4" fill="#58b88a"/>
    <text x="157.5" y="132.36" font-size="6.6" fill="var(--foreground)" opacity="0.55" letter-spacing="0.12em" text-anchor="middle">FALLS</text>
  </g>
  <g>
    <circle cx="257" cy="219.7" r="4" fill="#cde769"/>
    <text x="257" y="206.7" font-size="6.6" fill="var(--foreground)" opacity="0.55" letter-spacing="0.12em" text-anchor="middle">NEAR FLOOR</text>
  </g>
  <g>
    <circle cx="356.5" cy="157.96" r="4" fill="#58b88a"/>
    <text x="356.5" y="144.96" font-size="6.6" fill="var(--foreground)" opacity="0.55" letter-spacing="0.12em" text-anchor="middle">RISES</text>
  </g>
  <g>
    <circle cx="456" cy="100" r="4" fill="#5d88ff"/>
    <text x="456" y="87" font-size="6.6" fill="var(--foreground)" opacity="0.55" letter-spacing="0.12em" text-anchor="middle">AT CAP</text>
  </g>

  <line x1="58" y1="262" x2="456" y2="262" stroke="var(--line-strong)" stroke-dasharray="3 3" opacity="0.45"/>
  <text x="466" y="265" font-size="6.7" fill="var(--foreground)" opacity="0.36" letter-spacing="0.12em">TARGET</text>

  <g>
    <rect x="47" y="253.36" width="22" height="32.64" fill="#5d88ff" opacity="0.2"/>
    <rect x="47" y="253.36" width="22" height="3" fill="#5d88ff"/>
    <text x="58" y="304" font-size="6.6" fill="var(--foreground)" opacity="0.54" letter-spacing="0.1em" text-anchor="middle">START</text>
  </g>
  <g>
    <rect x="146.5" y="271.36" width="22" height="14.64" fill="#58b88a" opacity="0.2"/>
    <rect x="146.5" y="271.36" width="22" height="3" fill="#58b88a"/>
    <text x="157.5" y="304" font-size="6.6" fill="var(--foreground)" opacity="0.54" letter-spacing="0.1em" text-anchor="middle">LOW</text>
  </g>
  <g>
    <rect x="246" y="275.68" width="22" height="10.32" fill="#cde769" opacity="0.2"/>
    <rect x="246" y="275.68" width="22" height="3" fill="#cde769"/>
    <text x="257" y="304" font-size="6.6" fill="var(--foreground)" opacity="0.54" letter-spacing="0.1em" text-anchor="middle">QUIET</text>
  </g>
  <g>
    <rect x="345.5" y="254.8" width="22" height="31.2" fill="#58b88a" opacity="0.2"/>
    <rect x="345.5" y="254.8" width="22" height="3" fill="#58b88a"/>
    <text x="356.5" y="304" font-size="6.6" fill="var(--foreground)" opacity="0.54" letter-spacing="0.1em" text-anchor="middle">BUSY</text>
  </g>
  <g>
    <rect x="445" y="244" width="22" height="42" fill="#5d88ff" opacity="0.2"/>
    <rect x="445" y="244" width="22" height="3" fill="#5d88ff"/>
    <text x="456" y="304" font-size="6.6" fill="var(--foreground)" opacity="0.54" letter-spacing="0.1em" text-anchor="middle">FULL</text>
  </g>

  <text x="260" y="314" font-size="7.6" fill="var(--foreground)" opacity="0.48" letter-spacing="0.14em" text-anchor="middle">LOW BLOCK USAGE PULLS FEES DOWN. BUSIER BLOCKS MOVE FEES BACK UP.</text>
</svg>
