<svg width="1200" height="675" viewBox="0 0 1200 675" fill="none" xmlns="http://www.w3.org/2000/svg">
<g clip-path="url(#clip0_613_303)">
<rect width="1200" height="675" fill="white"/>
<path d="M-414 321C-414 317.686 -411.314 315 -408 315H1679C1682.31 315 1685 317.686 1685 321V855C1685 858.314 1682.31 861 1679 861H-408C-411.314 861 -414 858.314 -414 855V321Z" fill="#F7F7F7"/>
<path d="M374 179H430.811C435.229 179 438.811 182.582 438.811 187V404C438.811 408.418 442.393 412 446.811 412H751.844C756.262 412 759.844 408.418 759.844 404V187C759.844 182.582 763.426 179 767.844 179H825" stroke="black" stroke-width="2" stroke-dasharray="4 4"/>
<rect width="1200" height="105" fill="url(#paint0_linear_613_303)"/>
<path d="M143 360C143 356.686 145.686 354 149 354H414C417.314 354 420 356.686 420 360V463C420 466.314 417.314 469 414 469H149C145.686 469 143 466.314 143 463V360Z" fill="black" fill-opacity="0.05"/>
<rect x="177.5" y="386.5" width="82" height="50" rx="5" fill="black" fill-opacity="0.1"/>
<g opacity="0.3">
<path d="M277.5 402.5L273.5 406.5L277.5 410.5" stroke="black" stroke-width="2" stroke-linecap="round" stroke-linejoin="round"/>
<path d="M273.5 406.5H289.5" stroke="black" stroke-width="2" stroke-linecap="round" stroke-linejoin="round"/>
<path d="M285.5 420.5L289.5 416.5L285.5 412.5" stroke="black" stroke-width="2" stroke-linecap="round" stroke-linejoin="round"/>
<path d="M289.5 416.5H273.5" stroke="black" stroke-width="2" stroke-linecap="round" stroke-linejoin="round"/>
</g>
<rect x="303.5" y="386.5" width="82" height="50" rx="5" fill="black" fill-opacity="0.1"/>
<path d="M-158 360C-158 356.686 -155.314 354 -152 354H113C116.314 354 119 356.686 119 360V463C119 466.314 116.314 469 113 469H-152C-155.314 469 -158 466.314 -158 463V360Z" fill="black" fill-opacity="0.05"/>
<rect x="2.5" y="386.5" width="82" height="50" rx="5" fill="black" fill-opacity="0.1"/>
<path d="M143 498C143 494.686 145.686 492 149 492H414C417.314 492 420 494.686 420 498V601C420 604.314 417.314 607 414 607H149C145.686 607 143 604.314 143 601V498Z" fill="black" fill-opacity="0.05"/>
<rect x="177.5" y="524.5" width="82" height="50" rx="5" fill="black" fill-opacity="0.1"/>
<g opacity="0.3">
<path d="M277.5 540.5L273.5 544.5L277.5 548.5" stroke="black" stroke-width="2" stroke-linecap="round" stroke-linejoin="round"/>
<path d="M273.5 544.5H289.5" stroke="black" stroke-width="2" stroke-linecap="round" stroke-linejoin="round"/>
<path d="M285.5 558.5L289.5 554.5L285.5 550.5" stroke="black" stroke-width="2" stroke-linecap="round" stroke-linejoin="round"/>
<path d="M289.5 554.5H273.5" stroke="black" stroke-width="2" stroke-linecap="round" stroke-linejoin="round"/>
</g>
<rect x="303.5" y="524.5" width="82" height="50" rx="5" fill="black" fill-opacity="0.1"/>
<path d="M461 498C461 494.686 463.686 492 467 492H732C735.314 492 738 494.686 738 498V601C738 604.314 735.314 607 732 607H467C463.686 607 461 604.314 461 601V498Z" fill="black" fill-opacity="0.05"/>
<rect x="495.5" y="524.5" width="82" height="50" rx="5" fill="black" fill-opacity="0.1"/>
<g opacity="0.3">
<path d="M595.5 540.5L591.5 544.5L595.5 548.5" stroke="black" stroke-width="2" stroke-linecap="round" stroke-linejoin="round"/>
<path d="M591.5 544.5H607.5" stroke="black" stroke-width="2" stroke-linecap="round" stroke-linejoin="round"/>
<path d="M603.5 558.5L607.5 554.5L603.5 550.5" stroke="black" stroke-width="2" stroke-linecap="round" stroke-linejoin="round"/>
<path d="M607.5 554.5H591.5" stroke="black" stroke-width="2" stroke-linecap="round" stroke-linejoin="round"/>
</g>
<rect x="621.5" y="524.5" width="82" height="50" rx="5" fill="black" fill-opacity="0.1"/>
<path d="M-158 498C-158 494.686 -155.314 492 -152 492H113C116.314 492 119 494.686 119 498V601C119 604.314 116.314 607 113 607H-152C-155.314 607 -158 604.314 -158 601V498Z" fill="black" fill-opacity="0.05"/>
<rect x="2.5" y="524.5" width="82" height="50" rx="5" fill="black" fill-opacity="0.1"/>
<path d="M143 636C143 632.686 145.686 630 149 630H414C417.314 630 420 632.686 420 636V739C420 742.314 417.314 745 414 745H149C145.686 745 143 742.314 143 739V636Z" fill="black" fill-opacity="0.05"/>
<path d="M-158 636C-158 632.686 -155.314 630 -152 630H113C116.314 630 119 632.686 119 636V739C119 742.314 116.314 745 113 745H-152C-155.314 745 -158 742.314 -158 739V636Z" fill="black" fill-opacity="0.05"/>
<path d="M461 636C461 632.686 463.686 630 467 630H732C735.314 630 738 632.686 738 636V739C738 742.314 735.314 745 732 745H467C463.686 745 461 742.314 461 739V636Z" fill="black" fill-opacity="0.05"/>
<path d="M779 360C779 356.686 781.686 354 785 354H1050C1053.31 354 1056 356.686 1056 360V463C1056 466.314 1053.31 469 1050 469H785C781.686 469 779 466.314 779 463V360Z" fill="black" fill-opacity="0.05"/>
<rect x="813.5" y="386.5" width="82" height="50" rx="5" fill="black" fill-opacity="0.1"/>
<g opacity="0.3">
<path d="M913.5 402.5L909.5 406.5L913.5 410.5" stroke="black" stroke-width="2" stroke-linecap="round" stroke-linejoin="round"/>
<path d="M909.5 406.5H925.5" stroke="black" stroke-width="2" stroke-linecap="round" stroke-linejoin="round"/>
<path d="M921.5 420.5L925.5 416.5L921.5 412.5" stroke="black" stroke-width="2" stroke-linecap="round" stroke-linejoin="round"/>
<path d="M925.5 416.5H909.5" stroke="black" stroke-width="2" stroke-linecap="round" stroke-linejoin="round"/>
</g>
<rect x="939.5" y="386.5" width="82" height="50" rx="5" fill="black" fill-opacity="0.1"/>
<path d="M1081 360C1081 356.686 1083.69 354 1087 354H1352C1355.31 354 1358 356.686 1358 360V463C1358 466.314 1355.31 469 1352 469H1087C1083.69 469 1081 466.314 1081 463V360Z" fill="black" fill-opacity="0.05"/>
<rect x="1115.5" y="386.5" width="82" height="50" rx="5" fill="black" fill-opacity="0.1"/>
<path d="M779 498C779 494.686 781.686 492 785 492H1050C1053.31 492 1056 494.686 1056 498V601C1056 604.314 1053.31 607 1050 607H785C781.686 607 779 604.314 779 601V498Z" fill="black" fill-opacity="0.05"/>
<rect x="813.5" y="524.5" width="82" height="50" rx="5" fill="black" fill-opacity="0.1"/>
<g opacity="0.3">
<path d="M913.5 540.5L909.5 544.5L913.5 548.5" stroke="black" stroke-width="2" stroke-linecap="round" stroke-linejoin="round"/>
<path d="M909.5 544.5H925.5" stroke="black" stroke-width="2" stroke-linecap="round" stroke-linejoin="round"/>
<path d="M921.5 558.5L925.5 554.5L921.5 550.5" stroke="black" stroke-width="2" stroke-linecap="round" stroke-linejoin="round"/>
<path d="M925.5 554.5H909.5" stroke="black" stroke-width="2" stroke-linecap="round" stroke-linejoin="round"/>
</g>
<rect x="939.5" y="524.5" width="82" height="50" rx="5" fill="black" fill-opacity="0.1"/>
<path d="M1081 498C1081 494.686 1083.69 492 1087 492H1352C1355.31 492 1358 494.686 1358 498V601C1358 604.314 1355.31 607 1352 607H1087C1083.69 607 1081 604.314 1081 601V498Z" fill="black" fill-opacity="0.05"/>
<rect x="1115.5" y="524.5" width="82" height="50" rx="5" fill="black" fill-opacity="0.1"/>
<path d="M779 636C779 632.686 781.686 630 785 630H1050C1053.31 630 1056 632.686 1056 636V739C1056 742.314 1053.31 745 1050 745H785C781.686 745 779 742.314 779 739V636Z" fill="black" fill-opacity="0.05"/>
<path d="M1081 636C1081 632.686 1083.69 630 1087 630H1352C1355.31 630 1358 632.686 1358 636V739C1358 742.314 1355.31 745 1352 745H1087C1083.69 745 1081 742.314 1081 739V636Z" fill="black" fill-opacity="0.05"/>
<path d="M413.012 113V114H415C415.68 114 416.326 114.135 416.914 114.379L417.296 113.456C418.762 114.064 419.935 115.237 420.543 116.703L419.621 117.086C419.865 117.674 420 118.32 420 119V120.967H421V124.9H420V128.833H421V132.767H420V136.7H421V140.634H420V144.566H421V148.5H420V152.434H421V156.366H420V160.3H421V164.233H420V168.167H421V172.1H420V176.033H421V179.967H420V183.9H421V187.833H420V191.767H421V195.7H420V199.634H421V203.566H420V207.5H421V211.434H420V215.366H421V219.3H420V223.233H421V227.167H420V231.1H421V235.033H420V237C420 237.68 419.865 238.326 419.621 238.914L420.543 239.296C419.935 240.763 418.763 241.935 417.296 242.543L416.914 241.621C416.326 241.865 415.68 242 415 242H413.012V243H409.035V242H405.059V243H401.082V242H397.105V243H393.129V242H389.152V243H385.176V242H381.199V243H377.223V242H373.246V243H369.27V242H365.293V243H361.316V242H357.34V243H353.363V242H349.387V243H345.41V242H341.434V243H337.457V242H333.48V243H329.504V242H325.527V243H321.551V242H317.574V243H313.598V242H309.621V243H305.645V242H301.668V243H297.691V242H293.715V243H289.738V242H285.762V243H281.785V242H277.809V243H273.832V242H269.855V243H265.879V242H261.902V243H257.926V242H253.949V243H249.973V242H245.996V243H242.02V242H238.043V243H234.066V242H230.09V243H226.113V242H222.137V243H218.16V242H214.184V243H210.207V242H206.23V243H202.254V242H198.277V243H194.301V242H190.324V243H186.348V242H182.371V243H178.395V242H174.418V243H170.441V242H166.465V243H162.488V242H158.512V243H154.535V242H150.559V243H146.582V242H142.605V243H138.629V242H134.652V243H130.676V242H126.699V243H122.723V242H118.746V243H114.77V242H110.793V243H106.816V242H102.84V243H98.8633V242H94.8867V243H90.9102V242H86.9336V243H82.957V242H78.9805V243H75.0039V242H71.0273V243H67.0508V242H63.0742V243H59.0977V242H55.1211V243H51.1445V242H47.168V243H43.1914V242H39.2148V243H35.2383V242H31.2617V243H27.2852V242H23.3086V243H19.332V242H15.3555V243H11.3789V242H7.40234V243H3.42578V242H-0.550781V243H-4.52734V242H-8.50391V243H-12.4805V242H-16.457V243H-20.4336V242H-24.4102V243H-28.3867V242H-32.3633V243H-36.3398V242H-40.3164V243H-44.293V242H-48.2695V243H-52.2461V242H-56.2227V243H-60.1992V242H-64.1758V243H-68.1523V242H-72.1289V243H-76.1055V242H-80.082V243H-84.0586V242H-88.0352V243H-92.0117V242H-94C-94.6798 242 -95.3259 241.865 -95.9141 241.621L-96.2969 242.543C-97.7633 241.935 -98.9359 240.762 -99.5439 239.296L-98.6211 238.914C-98.8345 238.399 -98.965 237.84 -98.9941 237.253L-99 237V235.033H-100V231.1H-99V227.167H-100V223.233H-99V219.3H-100V215.366H-99V211.434H-100V207.5H-99V203.566H-100V199.634H-99V195.7H-100V191.767H-99V187.833H-100V183.9H-99V179.967H-100V176.033H-99V172.1H-100V168.167H-99V164.233H-100V160.3H-99V156.366H-100V152.434H-99V148.5H-100V144.566H-99V140.634H-100V136.7H-99V132.767H-100V128.833H-99V124.9H-100V120.967H-99V119C-99 118.32 -98.865 117.674 -98.6211 117.086L-99.5439 116.703C-98.9358 115.237 -97.7632 114.064 -96.2969 113.456L-95.9141 114.379C-95.3993 114.165 -94.8401 114.035 -94.2529 114.006L-94 114H-92.0117V113H-88.0352V114H-84.0586V113H-80.082V114H-76.1055V113H-72.1289V114H-68.1523V113H-64.1758V114H-60.1992V113H-56.2227V114H-52.2461V113H-48.2695V114H-44.293V113H-40.3164V114H-36.3398V113H-32.3633V114H-28.3867V113H-24.4102V114H-20.4336V113H-16.457V114H-12.4805V113H-8.50391V114H-4.52734V113H-0.550781V114H3.42578V113H7.40234V114H11.3789V113H15.3555V114H19.332V113H23.3086V114H27.2852V113H31.2617V114H35.2383V113H39.2148V114H43.1914V113H47.168V114H51.1445V113H55.1211V114H59.0977V113H63.0742V114H67.0508V113H71.0273V114H75.0039V113H78.9805V114H82.957V113H86.9336V114H90.9102V113H94.8867V114H98.8633V113H102.84V114H106.816V113H110.793V114H114.77V113H118.746V114H122.723V113H126.699V114H130.676V113H134.652V114H138.629V113H142.605V114H146.582V113H150.559V114H154.535V113H158.512V114H162.488V113H166.465V114H170.441V113H174.418V114H178.395V113H182.371V114H186.348V113H190.324V114H194.301V113H198.277V114H202.254V113H206.23V114H210.207V113H214.184V114H218.16V113H222.137V114H226.113V113H230.09V114H234.066V113H238.043V114H242.02V113H245.996V114H249.973V113H253.949V114H257.926V113H261.902V114H265.879V113H269.855V114H273.832V113H277.809V114H281.785V113H285.762V114H289.738V113H293.715V114H297.691V113H301.668V114H305.645V113H309.621V114H313.598V113H317.574V114H321.551V113H325.527V114H329.504V113H333.48V114H337.457V113H341.434V114H345.41V113H349.387V114H353.363V113H357.34V114H361.316V113H365.293V114H369.27V113H373.246V114H377.223V113H381.199V114H385.176V113H389.152V114H393.129V113H397.105V114H401.082V113H405.059V114H409.035V113H413.012Z" stroke="black" stroke-opacity="0.2" stroke-width="2" stroke-dasharray="4 4"/>
<path d="M1444 113V114H1446C1446.68 114 1447.33 114.135 1447.91 114.379L1448.3 113.456C1449.76 114.064 1450.93 115.237 1451.54 116.703L1450.62 117.086C1450.86 117.674 1451 118.32 1451 119V120.967H1452V124.9H1451V128.833H1452V132.767H1451V136.7H1452V140.634H1451V144.566H1452V148.5H1451V152.434H1452V156.366H1451V160.3H1452V164.233H1451V168.167H1452V172.1H1451V176.033H1452V179.967H1451V183.9H1452V187.833H1451V191.767H1452V195.7H1451V199.634H1452V203.566H1451V207.5H1452V211.434H1451V215.366H1452V219.3H1451V223.233H1452V227.167H1451V231.1H1452V235.033H1451V237C1451 237.68 1450.86 238.326 1450.62 238.914L1451.54 239.296C1450.93 240.763 1449.76 241.935 1448.3 242.543L1447.91 241.621C1447.33 241.865 1446.68 242 1446 242H1444V243H1440.01V242H1436.01V243H1432.02V242H1428.03V243H1424.03V242H1420.04V243H1416.04V242H1412.05V243H1408.06V242H1404.06V243H1400.07V242H1396.08V243H1392.08V242H1388.09V243H1384.09V242H1380.1V243H1376.11V242H1372.11V243H1368.12V242H1364.12V243H1360.13V242H1356.14V243H1352.14V242H1348.15V243H1344.15V242H1340.16V243H1336.17V242H1332.17V243H1328.18V242H1324.18V243H1320.19V242H1316.2V243H1312.2V242H1308.21V243H1304.21V242H1300.22V243H1296.23V242H1292.23V243H1288.24V242H1284.24V243H1280.25V242H1276.26V243H1272.26V242H1268.27V243H1264.27V242H1260.28V243H1256.29V242H1252.29V243H1248.3V242H1244.3V243H1240.31V242H1236.32V243H1232.32V242H1228.33V243H1224.33V242H1220.34V243H1216.35V242H1212.35V243H1208.36V242H1204.36V243H1200.37V242H1196.38V243H1192.38V242H1188.39V243H1184.39V242H1180.4V243H1176.41V242H1172.41V243H1168.42V242H1164.42V243H1160.43V242H1156.44V243H1152.44V242H1148.45V243H1144.46V242H1140.46V243H1136.47V242H1132.47V243H1128.48V242H1124.49V243H1120.49V242H1116.5V243H1112.5V242H1108.51V243H1104.51V242H1100.52V243H1096.53V242H1092.53V243H1088.54V242H1084.54V243H1080.55V242H1076.56V243H1072.56V242H1068.57V243H1064.58V242H1060.58V243H1056.59V242H1052.59V243H1048.6V242H1044.61V243H1040.61V242H1036.62V243H1032.62V242H1028.63V243H1024.63V242H1020.64V243H1016.65V242H1012.65V243H1008.66V242H1004.67V243H1000.67V242H996.678V243H992.684V242H988.689V243H984.695V242H980.701V243H976.707V242H972.713V243H968.72V242H964.726V243H960.731V242H956.737V243H952.743V242H948.749V243H944.756V242H940.762V243H936.768V242H932.773V243H928.779V242H924.785V243H920.792V242H916.798V243H912.804V242H908.81V243H904.815V242H900.822V243H896.828V242H892.834V243H888.84V242H884.846V243H880.852V242H876.858V243H872.864V242H868.87V243H864.876V242H860.882V243H856.889V242H852.895V243H848.9V242H844.906V243H840.912V242H836.919V243H832.925V242H828.931V243H824.937V242H820.942V243H816.949V242H812.955V243H808.961V242H804.967V243H800.973V242H796.979V243H792.985V242H788.991V243H784.997V242H783C782.32 242 781.674 241.865 781.086 241.621L780.703 242.543C779.237 241.935 778.064 240.762 777.456 239.296L778.379 238.914C778.165 238.399 778.035 237.84 778.006 237.253L778 237V235.033H777V231.1H778V227.167H777V223.233H778V219.3H777V215.366H778V211.434H777V207.5H778V203.566H777V199.634H778V195.7H777V191.767H778V187.833H777V183.9H778V179.967H777V176.033H778V172.1H777V168.167H778V164.233H777V160.3H778V156.366H777V152.434H778V148.5H777V144.566H778V140.634H777V136.7H778V132.767H777V128.833H778V124.9H777V120.967H778V119C778 118.32 778.135 117.674 778.379 117.086L777.456 116.703C778.064 115.237 779.237 114.064 780.703 113.456L781.086 114.379C781.674 114.135 782.32 114 783 114H784.997V113H788.991V114H792.985V113H796.979V114H800.973V113H804.967V114H808.961V113H812.955V114H816.949V113H820.942V114H824.937V113H828.931V114H832.925V113H836.919V114H840.913V113H844.906V114H848.9V113H852.895V114H856.889V113H860.883V114H864.877V113H868.87V114H872.864V113H876.858V114H880.853V113H884.847V114H888.84V113H892.834V114H896.828V113H900.822V114H904.816V113H908.811V114H912.804V113H916.798V114H920.792V113H924.786V114H928.78V113H932.774V114H936.768V113H940.762V114H944.756V113H948.75V114H952.744V113H956.738V114H960.731V113H964.726V114H968.72V113H972.714V114H976.708V113H980.702V114H984.695V113H988.689V114H992.684V113H996.678V114H1000.67V113H1004.67V114H1008.66V113H1012.65V114H1016.65V113H1020.64V114H1024.64V113H1028.63V114H1032.62V113H1036.62V114H1040.61V113H1044.61V114H1048.6V113H1052.59V114H1056.59V113H1060.58V114H1064.58V113H1068.57V114H1072.56V113H1076.56V114H1080.55V113H1084.54V114H1088.54V113H1092.53V114H1096.53V113H1100.52V114H1104.51V113H1108.51V114H1112.5V113H1116.5V114H1120.49V113H1124.49V114H1128.48V113H1132.47V114H1136.47V113H1140.46V114H1144.46V113H1148.45V114H1152.44V113H1156.44V114H1160.43V113H1164.42V114H1168.42V113H1172.41V114H1176.41V113H1180.4V114H1184.39V113H1188.39V114H1192.38V113H1196.38V114H1200.37V113H1204.37V114H1208.36V113H1212.35V114H1216.35V113H1220.34V114H1224.33V113H1228.33V114H1232.32V113H1236.32V114H1240.31V113H1244.3V114H1248.3V113H1252.29V114H1256.29V113H1260.28V114H1264.27V113H1268.27V114H1272.26V113H1276.26V114H1280.25V113H1284.24V114H1288.24V113H1292.23V114H1296.23V113H1300.22V114H1304.21V113H1308.21V114H1312.2V113H1316.2V114H1320.19V113H1324.18V114H1328.18V113H1332.17V114H1336.17V113H1340.16V114H1344.15V113H1348.15V114H1352.14V113H1356.14V114H1360.13V113H1364.12V114H1368.12V113H1372.11V114H1376.11V113H1380.1V114H1384.09V113H1388.09V114H1392.08V113H1396.08V114H1400.07V113H1404.06V114H1408.06V113H1412.05V114H1416.04V113H1420.04V114H1424.03V113H1428.03V114H1432.02V113H1436.01V114H1440.01V113H1444Z" stroke="black" stroke-opacity="0.2" stroke-width="2" stroke-dasharray="4 4"/>
<path d="M-135 153C-135 149.686 -132.314 147 -129 147H368C371.314 147 374 149.686 374 153V206C374 209.314 371.314 212 368 212H-129C-132.314 212 -135 209.314 -135 206V153Z" fill="#F0F0F0"/>
<path d="M825 153C825 149.686 827.686 147 831 147H1234C1237.31 147 1240 149.686 1240 153V206C1240 209.314 1237.31 212 1234 212H831C827.686 212 825 209.314 825 206V153Z" fill="#F0F0F0"/>
<path d="M864.273 181.419H859.896V189H857.602V169.976H863.983C867.753 169.976 870.113 172.165 870.113 175.698C870.113 178.189 868.729 180.233 866.567 180.945L870.443 189H867.819L864.273 181.419ZM859.896 172.046V179.455H863.667C866.29 179.455 867.767 178.124 867.767 175.75C867.767 173.391 866.316 172.046 863.772 172.046H859.896ZM886.158 186.864V189H874.925V169.976H886.158V172.112H877.259V178.282H885.67V180.325H877.259V186.864H886.158ZM897.364 187.194C899.895 187.194 901.503 185.678 901.569 183.226H903.916C903.916 186.904 901.253 189.396 897.364 189.396C892.895 189.396 890.297 186.376 890.297 181.182V177.794C890.297 172.6 892.895 169.581 897.364 169.581C901.372 169.581 903.85 172.02 903.929 176.08H901.569C901.49 173.509 899.79 171.782 897.351 171.782C894.279 171.782 892.67 173.852 892.67 177.794V181.182C892.67 185.124 894.279 187.194 897.364 187.194ZM919.539 186.864V189H908.306V169.976H919.539V172.112H910.64V178.282H919.051V180.325H910.64V186.864H919.539ZM935.319 189H925.3V186.93H929.149V172.046H925.3V169.976H935.319V172.046H931.47V186.93H935.319V189ZM947.066 186.205L952.023 169.976H954.37L948.239 189H945.761L939.63 169.976H942.069L947 186.205H947.066ZM969.61 186.864V189H958.377V169.976H969.61V172.112H960.711V178.282H969.122V180.325H960.711V186.864H969.61Z" fill="black" fill-opacity="0.5"/>
<path d="M1002.99 186.864V189H991.758V169.976H1002.99V172.112H994.092V178.282H1002.5V180.325H994.092V186.864H1002.99ZM1013.76 187.194C1016.53 187.194 1018.14 185.375 1018.14 182.25V169.976H1020.46V182.395C1020.46 186.772 1017.95 189.396 1013.76 189.396C1009.57 189.396 1007.06 186.772 1007.06 182.395V169.976H1009.38V182.25C1009.38 185.375 1010.99 187.194 1013.76 187.194ZM1031.18 181.419H1026.8V189H1024.51V169.976H1030.89C1034.66 169.976 1037.02 172.165 1037.02 175.698C1037.02 178.189 1035.63 180.233 1033.47 180.945L1037.35 189H1034.72L1031.18 181.419ZM1026.8 172.046V179.455H1030.57C1033.19 179.455 1034.67 178.124 1034.67 175.75C1034.67 173.391 1033.22 172.046 1030.68 172.046H1026.8Z" fill="black"/>
<path d="M211.071 183.938H213.338C213.576 186.021 215.25 187.286 217.781 187.286C220.312 187.286 221.974 185.968 221.974 183.924C221.974 182.276 220.866 181.288 218.295 180.655L216.661 180.246C213.127 179.35 211.532 177.675 211.532 174.92C211.532 171.677 213.971 169.581 217.768 169.581C221.354 169.581 223.819 171.65 223.978 174.814H221.71C221.473 172.85 220.022 171.69 217.781 171.69C215.342 171.69 213.879 172.85 213.879 174.788C213.879 176.436 214.934 177.385 217.412 178.005L219.073 178.427C222.765 179.336 224.32 180.945 224.32 183.806C224.32 187.22 221.75 189.396 217.768 189.396C213.839 189.396 211.269 187.312 211.071 183.938ZM240.193 186.864V189H228.961V169.976H240.193V172.112H231.294V178.282H239.706V180.325H231.294V186.864H240.193ZM246.732 189H244.636V169.976H246.864L255.012 184.781H255.196V169.976H257.292V189H255.091L246.917 174.155H246.732V189ZM261.419 169.976H266.745C272.137 169.976 274.853 173.153 274.853 179.455C274.853 185.81 272.137 189 266.745 189H261.419V169.976ZM263.752 172.112V186.864H266.534C270.568 186.864 272.48 184.504 272.48 179.468C272.48 174.485 270.555 172.112 266.534 172.112H263.752Z" fill="black" fill-opacity="0.5"/>
<path d="M301.036 187.194C303.804 187.194 305.413 185.375 305.413 182.25V169.976H307.733V182.395C307.733 186.772 305.228 189.396 301.036 189.396C296.843 189.396 294.338 186.772 294.338 182.395V169.976H296.659V182.25C296.659 185.375 298.267 187.194 301.036 187.194ZM311.213 183.938H313.481C313.718 186.021 315.393 187.286 317.924 187.286C320.455 187.286 322.116 185.968 322.116 183.924C322.116 182.276 321.009 181.288 318.438 180.655L316.803 180.246C313.27 179.35 311.675 177.675 311.675 174.92C311.675 171.677 314.114 169.581 317.911 169.581C321.497 169.581 323.962 171.65 324.12 174.814H321.853C321.615 172.85 320.165 171.69 317.924 171.69C315.485 171.69 314.021 172.85 314.021 174.788C314.021 176.436 315.076 177.385 317.555 178.005L319.216 178.427C322.907 179.336 324.463 180.945 324.463 183.806C324.463 187.22 321.892 189.396 317.911 189.396C313.982 189.396 311.411 187.312 311.213 183.938ZM328.181 169.976H333.507C338.899 169.976 341.615 173.153 341.615 179.455C341.615 185.81 338.899 189 333.507 189H328.181V169.976ZM330.514 172.112V186.864H333.296C337.33 186.864 339.242 184.504 339.242 179.468C339.242 174.485 337.317 172.112 333.296 172.112H330.514Z" fill="black"/>
<path d="M461 360C461 356.686 463.686 354 467 354H732C735.314 354 738 356.686 738 360V463C738 466.314 735.314 469 732 469H467C463.686 469 461 466.314 461 463V360Z" fill="black"/>
<path d="M493.5 392.5C493.5 389.186 496.186 386.5 499.5 386.5H560.5C563.814 386.5 566.5 389.186 566.5 392.5V430.5C566.5 433.814 563.814 436.5 560.5 436.5H499.5C496.186 436.5 493.5 433.814 493.5 430.5V392.5Z" fill="white" fill-opacity="0.3"/>
<path d="M514.227 418.828C516.791 418.828 518.28 417.143 518.28 414.25V402.885H520.428V414.384C520.428 418.437 518.109 420.866 514.227 420.866C510.345 420.866 508.026 418.437 508.026 414.384V402.885H510.174V414.25C510.174 417.143 511.664 418.828 514.227 418.828ZM523.651 415.812H525.75C525.97 417.741 527.521 418.913 529.864 418.913C532.208 418.913 533.746 417.692 533.746 415.8C533.746 414.274 532.721 413.359 530.34 412.773L528.827 412.395C525.555 411.564 524.078 410.014 524.078 407.463C524.078 404.46 526.336 402.519 529.852 402.519C533.172 402.519 535.455 404.436 535.602 407.365H533.502C533.282 405.546 531.939 404.472 529.864 404.472C527.606 404.472 526.251 405.546 526.251 407.341C526.251 408.867 527.228 409.746 529.522 410.319L531.061 410.71C534.479 411.552 535.919 413.042 535.919 415.69C535.919 418.852 533.539 420.866 529.852 420.866C526.214 420.866 523.834 418.938 523.651 415.812ZM539.361 402.885H544.293C549.286 402.885 551.8 405.827 551.8 411.662C551.8 417.546 549.286 420.5 544.293 420.5H539.361V402.885ZM541.522 404.863V418.522H544.098C547.833 418.522 549.603 416.337 549.603 411.674C549.603 407.06 547.821 404.863 544.098 404.863H541.522Z" fill="white"/>
<path d="M595.5 402.5L591.5 406.5L595.5 410.5" stroke="white" stroke-width="2" stroke-linecap="round" stroke-linejoin="round"/>
<path d="M591.5 406.5H607.5" stroke="white" stroke-width="2" stroke-linecap="round" stroke-linejoin="round"/>
<path d="M603.5 420.5L607.5 416.5L603.5 412.5" stroke="white" stroke-width="2" stroke-linecap="round" stroke-linejoin="round"/>
<path d="M607.5 416.5H591.5" stroke="white" stroke-width="2" stroke-linecap="round" stroke-linejoin="round"/>
<path d="M632.5 392.5C632.5 389.186 635.186 386.5 638.5 386.5H699.5C702.814 386.5 705.5 389.186 705.5 392.5V430.5C705.5 433.814 702.814 436.5 699.5 436.5H638.5C635.186 436.5 632.5 433.814 632.5 430.5V392.5Z" fill="white" fill-opacity="0.3"/>
<path d="M658.708 418.522V420.5H648.308V402.885H658.708V404.863H650.468V410.576H658.256V412.468H650.468V418.522H658.708ZM668.681 418.828C671.245 418.828 672.734 417.143 672.734 414.25V402.885H674.882V414.384C674.882 418.437 672.563 420.866 668.681 420.866C664.799 420.866 662.48 418.437 662.48 414.384V402.885H664.628V414.25C664.628 417.143 666.118 418.828 668.681 418.828ZM684.807 413.481H680.754V420.5H678.63V402.885H684.538C688.029 402.885 690.214 404.912 690.214 408.183C690.214 410.49 688.933 412.382 686.931 413.042L690.52 420.5H688.09L684.807 413.481ZM680.754 404.802V411.662H684.245C686.674 411.662 688.042 410.429 688.042 408.232C688.042 406.047 686.699 404.802 684.343 404.802H680.754Z" fill="white"/>
<rect width="1200" height="105" transform="matrix(1 0 0 -1 0 675)" fill="url(#paint1_linear_613_303)"/>
<rect x="1200" y="-263" width="1200" height="178" transform="rotate(90 1200 -263)" fill="url(#paint2_linear_613_303)"/>
<rect width="1200" height="178" transform="matrix(4.37114e-08 1 1 -4.37114e-08 0 -263)" fill="url(#paint3_linear_613_303)"/>
</g>
<defs>
<linearGradient id="paint0_linear_613_303" x1="600" y1="0" x2="600" y2="105" gradientUnits="userSpaceOnUse">
<stop stop-color="white"/>
<stop offset="1" stop-color="white" stop-opacity="0"/>
</linearGradient>
<linearGradient id="paint1_linear_613_303" x1="600" y1="0" x2="600" y2="105" gradientUnits="userSpaceOnUse">
<stop stop-color="white"/>
<stop offset="1" stop-color="white" stop-opacity="0"/>
</linearGradient>
<linearGradient id="paint2_linear_613_303" x1="1800" y1="-263" x2="1800" y2="-85" gradientUnits="userSpaceOnUse">
<stop stop-color="white"/>
<stop offset="1" stop-color="white" stop-opacity="0"/>
</linearGradient>
<linearGradient id="paint3_linear_613_303" x1="600" y1="0" x2="600" y2="178" gradientUnits="userSpaceOnUse">
<stop stop-color="white"/>
<stop offset="1" stop-color="white" stop-opacity="0"/>
</linearGradient>
<clipPath id="clip0_613_303">
<rect width="1200" height="675" fill="white"/>
</clipPath>
</defs>
</svg>
