<svg width="1200" height="675" viewBox="0 0 1200 675" fill="none" xmlns="http://www.w3.org/2000/svg">
<rect width="1200" height="675" fill="white"/>
<path d="M211.938 499.483C209.808 503.573 205.535 507.148 199.932 509.928C191.72 514.002 180.43 516.5 168 516.5C155.57 516.5 144.28 514.002 136.068 509.928C130.465 507.148 126.192 503.573 124.062 499.483V513.734C124.062 519.416 128.726 524.766 136.735 528.74C144.698 532.691 155.751 535.156 168 535.156C180.249 535.156 191.302 532.691 199.265 528.74C207.274 524.766 211.938 519.416 211.938 513.734V499.483ZM211.938 479.327C209.808 483.417 205.535 486.991 199.932 489.771C191.72 493.845 180.43 496.344 168 496.344C155.57 496.344 144.28 493.845 136.068 489.771C130.465 486.991 126.192 483.417 124.062 479.327V493.578C124.062 499.26 128.726 504.61 136.735 508.584C144.698 512.535 155.751 515 168 515C180.249 515 191.302 512.535 199.265 508.584C207.024 504.734 211.643 499.593 211.924 494.109L211.938 493.578V479.327ZM211.938 459.171C209.808 463.261 205.535 466.835 199.932 469.615C191.72 473.689 180.43 476.187 168 476.188C155.57 476.188 144.28 473.689 136.068 469.615C130.465 466.835 126.192 463.261 124.062 459.171V473.422C124.062 479.104 128.726 484.454 136.735 488.428C144.698 492.379 155.751 494.844 168 494.844C180.249 494.844 191.302 492.379 199.265 488.428C207.024 484.578 211.643 479.437 211.924 473.953L211.938 473.422V459.171ZM211.938 453.266C211.938 447.584 207.274 442.234 199.265 438.26C191.302 434.309 180.249 431.844 168 431.844C155.751 431.844 144.698 434.309 136.735 438.26C128.726 442.234 124.062 447.584 124.062 453.266C124.062 458.948 128.726 464.297 136.735 468.271C144.698 472.222 155.751 474.688 168 474.688C180.249 474.687 191.302 472.222 199.265 468.271C207.274 464.297 211.938 458.948 211.938 453.266ZM213.438 513.734C213.438 520.297 208.096 526.033 199.932 530.084C191.72 534.158 180.43 536.656 168 536.656C155.57 536.656 144.28 534.158 136.068 530.084C127.904 526.033 122.562 520.297 122.562 513.734V453.266C122.562 446.703 127.904 440.967 136.068 436.916C144.28 432.842 155.57 430.344 168 430.344C180.43 430.344 191.72 432.842 199.932 436.916C208.096 440.967 213.438 446.703 213.438 453.266V513.734Z" fill="#2386DD"/>
<path d="M404.25 499.522C402.127 503.613 397.876 507.19 392.301 509.973C384.123 514.054 372.878 516.558 360.5 516.558C348.122 516.558 336.877 514.054 328.699 509.973C323.124 507.19 318.873 503.613 316.75 499.522V513.788C316.75 519.483 321.395 524.843 329.369 528.823C337.298 532.781 348.304 535.25 360.5 535.25C372.696 535.25 383.702 532.781 391.631 528.823C399.605 524.843 404.25 519.483 404.25 513.788V499.522ZM404.25 479.33C402.127 483.421 397.876 486.997 392.301 489.78C384.123 493.862 372.878 496.365 360.5 496.365C348.122 496.365 336.877 493.862 328.699 489.78C323.124 486.997 318.873 483.421 316.75 479.33V493.596C316.75 499.291 321.395 504.651 329.369 508.631C337.298 512.588 348.304 515.058 360.5 515.058C372.696 515.058 383.702 512.588 391.631 508.631C399.605 504.651 404.25 499.291 404.25 493.596V479.33ZM404.25 459.138C402.127 463.229 397.876 466.805 392.301 469.588C384.123 473.67 372.878 476.173 360.5 476.173C348.122 476.173 336.877 473.67 328.699 469.588C323.124 466.805 318.873 463.229 316.75 459.138V473.404L316.764 473.937C317.044 479.432 321.644 484.583 329.369 488.438C337.298 492.396 348.304 494.865 360.5 494.865C372.696 494.865 383.702 492.396 391.631 488.438C399.356 484.583 403.956 479.432 404.236 473.937L404.25 473.404V459.138ZM404.25 453.212C404.25 447.517 399.605 442.157 391.631 438.177C383.702 434.219 372.696 431.75 360.5 431.75C348.304 431.75 337.298 434.219 329.369 438.177C321.395 442.157 316.75 447.517 316.75 453.212C316.75 458.907 321.395 464.266 329.369 468.246C337.298 472.204 348.304 474.673 360.5 474.673C372.696 474.673 383.702 472.204 391.631 468.246C399.605 464.266 404.25 458.907 404.25 453.212ZM405.75 513.788C405.75 520.359 400.433 526.106 392.301 530.165C384.123 534.247 372.878 536.75 360.5 536.75C348.122 536.75 336.877 534.247 328.699 530.165C320.567 526.106 315.25 520.359 315.25 513.788V453.212C315.25 446.641 320.567 440.894 328.699 436.835C336.877 432.753 348.122 430.25 360.5 430.25C372.878 430.25 384.123 432.753 392.301 436.835C400.433 440.894 405.75 446.641 405.75 453.212V513.788Z" fill="#2386DD"/>
<path d="M577.25 499.522C575.127 503.613 570.876 507.19 565.301 509.973C557.123 514.054 545.878 516.558 533.5 516.558C521.122 516.558 509.877 514.054 501.699 509.973C496.124 507.19 491.873 503.613 489.75 499.522V513.788C489.75 519.483 494.395 524.843 502.369 528.823C510.298 532.781 521.304 535.25 533.5 535.25C545.696 535.25 556.702 532.781 564.631 528.823C572.605 524.843 577.25 519.483 577.25 513.788V499.522ZM577.25 479.33C575.127 483.421 570.876 486.997 565.301 489.78C557.123 493.862 545.878 496.365 533.5 496.365C521.122 496.365 509.877 493.862 501.699 489.78C496.124 486.997 491.873 483.421 489.75 479.33V493.596C489.75 499.291 494.395 504.651 502.369 508.631C510.298 512.588 521.304 515.058 533.5 515.058C545.696 515.058 556.702 512.588 564.631 508.631C572.605 504.651 577.25 499.291 577.25 493.596V479.33ZM577.25 459.138C575.127 463.229 570.876 466.805 565.301 469.588C557.123 473.67 545.878 476.173 533.5 476.173C521.122 476.173 509.877 473.67 501.699 469.588C496.124 466.805 491.873 463.229 489.75 459.138V473.404L489.764 473.937C490.044 479.432 494.644 484.583 502.369 488.438C510.298 492.396 521.304 494.865 533.5 494.865C545.696 494.865 556.702 492.396 564.631 488.438C572.356 484.583 576.956 479.432 577.236 473.937L577.25 473.404V459.138ZM577.25 453.212C577.25 447.517 572.605 442.157 564.631 438.177C556.702 434.219 545.696 431.75 533.5 431.75C521.304 431.75 510.298 434.219 502.369 438.177C494.395 442.157 489.75 447.517 489.75 453.212C489.75 458.907 494.395 464.266 502.369 468.246C510.298 472.204 521.304 474.673 533.5 474.673C545.696 474.673 556.702 472.204 564.631 468.246C572.605 464.266 577.25 458.907 577.25 453.212ZM578.75 513.788C578.75 520.359 573.433 526.106 565.301 530.165C557.123 534.247 545.878 536.75 533.5 536.75C521.122 536.75 509.877 534.247 501.699 530.165C493.567 526.106 488.25 520.359 488.25 513.788V453.212C488.25 446.641 493.567 440.894 501.699 436.835C509.877 432.753 521.122 430.25 533.5 430.25C545.878 430.25 557.123 432.753 565.301 436.835C573.433 440.894 578.75 446.641 578.75 453.212V513.788Z" fill="#2386DD"/>
<path d="M750.25 499.522C748.127 503.613 743.876 507.19 738.301 509.973C730.123 514.054 718.878 516.558 706.5 516.558C694.122 516.558 682.877 514.054 674.699 509.973C669.124 507.19 664.873 503.613 662.75 499.522V513.788C662.75 519.483 667.395 524.843 675.369 528.823C683.298 532.781 694.304 535.25 706.5 535.25C718.696 535.25 729.702 532.781 737.631 528.823C745.605 524.843 750.25 519.483 750.25 513.788V499.522ZM750.25 479.33C748.127 483.421 743.876 486.997 738.301 489.78C730.123 493.862 718.878 496.365 706.5 496.365C694.122 496.365 682.877 493.862 674.699 489.78C669.124 486.997 664.873 483.421 662.75 479.33V493.596C662.75 499.291 667.395 504.651 675.369 508.631C683.298 512.588 694.304 515.058 706.5 515.058C718.696 515.058 729.702 512.588 737.631 508.631C745.605 504.651 750.25 499.291 750.25 493.596V479.33ZM750.25 459.138C748.127 463.229 743.876 466.805 738.301 469.588C730.123 473.67 718.878 476.173 706.5 476.173C694.122 476.173 682.877 473.67 674.699 469.588C669.124 466.805 664.873 463.229 662.75 459.138V473.404L662.764 473.937C663.044 479.432 667.644 484.583 675.369 488.438C683.298 492.396 694.304 494.865 706.5 494.865C718.696 494.865 729.702 492.396 737.631 488.438C745.356 484.583 749.956 479.432 750.236 473.937L750.25 473.404V459.138ZM750.25 453.212C750.25 447.517 745.605 442.157 737.631 438.177C729.702 434.219 718.696 431.75 706.5 431.75C694.304 431.75 683.298 434.219 675.369 438.177C667.395 442.157 662.75 447.517 662.75 453.212C662.75 458.907 667.395 464.266 675.369 468.246C683.298 472.204 694.304 474.673 706.5 474.673C718.696 474.673 729.702 472.204 737.631 468.246C745.605 464.266 750.25 458.907 750.25 453.212ZM751.75 513.788C751.75 520.359 746.433 526.106 738.301 530.165C730.123 534.247 718.878 536.75 706.5 536.75C694.122 536.75 682.877 534.247 674.699 530.165C666.567 526.106 661.25 520.359 661.25 513.788V453.212C661.25 446.641 666.567 440.894 674.699 436.835C682.877 432.753 694.122 430.25 706.5 430.25C718.878 430.25 730.123 432.753 738.301 436.835C746.433 440.894 751.75 446.641 751.75 453.212V513.788Z" fill="#2386DD"/>
<path d="M923.25 499.522C921.127 503.613 916.876 507.19 911.301 509.973C903.123 514.054 891.878 516.558 879.5 516.558C867.122 516.558 855.877 514.054 847.699 509.973C842.124 507.19 837.873 503.613 835.75 499.522V513.788C835.75 519.483 840.395 524.843 848.369 528.823C856.298 532.781 867.304 535.25 879.5 535.25C891.696 535.25 902.702 532.781 910.631 528.823C918.605 524.843 923.25 519.483 923.25 513.788V499.522ZM923.25 479.33C921.127 483.421 916.876 486.997 911.301 489.78C903.123 493.862 891.878 496.365 879.5 496.365C867.122 496.365 855.877 493.862 847.699 489.78C842.124 486.997 837.873 483.421 835.75 479.33V493.596C835.75 499.291 840.395 504.651 848.369 508.631C856.298 512.588 867.304 515.058 879.5 515.058C891.696 515.058 902.702 512.588 910.631 508.631C918.605 504.651 923.25 499.291 923.25 493.596V479.33ZM923.25 459.138C921.127 463.229 916.876 466.805 911.301 469.588C903.123 473.67 891.878 476.173 879.5 476.173C867.122 476.173 855.877 473.67 847.699 469.588C842.124 466.805 837.873 463.229 835.75 459.138V473.404L835.764 473.937C836.044 479.432 840.644 484.583 848.369 488.438C856.298 492.396 867.304 494.865 879.5 494.865C891.696 494.865 902.702 492.396 910.631 488.438C918.356 484.583 922.956 479.432 923.236 473.937L923.25 473.404V459.138ZM923.25 453.212C923.25 447.517 918.605 442.157 910.631 438.177C902.702 434.219 891.696 431.75 879.5 431.75C867.304 431.75 856.298 434.219 848.369 438.177C840.395 442.157 835.75 447.517 835.75 453.212C835.75 458.907 840.395 464.266 848.369 468.246C856.298 472.204 867.304 474.673 879.5 474.673C891.696 474.673 902.702 472.204 910.631 468.246C918.605 464.266 923.25 458.907 923.25 453.212ZM924.75 513.788C924.75 520.359 919.433 526.106 911.301 530.165C903.123 534.247 891.878 536.75 879.5 536.75C867.122 536.75 855.877 534.247 847.699 530.165C839.567 526.106 834.25 520.359 834.25 513.788V453.212C834.25 446.641 839.567 440.894 847.699 436.835C855.877 432.753 867.122 430.25 879.5 430.25C891.878 430.25 903.123 432.753 911.301 436.835C919.433 440.894 924.75 446.641 924.75 453.212V513.788Z" fill="#2386DD"/>
<path d="M1096.25 499.522C1094.13 503.613 1089.88 507.19 1084.3 509.973C1076.12 514.054 1064.88 516.558 1052.5 516.558C1040.12 516.558 1028.88 514.054 1020.7 509.973C1015.12 507.19 1010.87 503.613 1008.75 499.522V513.788C1008.75 519.483 1013.4 524.843 1021.37 528.823C1029.3 532.781 1040.3 535.25 1052.5 535.25C1064.7 535.25 1075.7 532.781 1083.63 528.823C1091.6 524.843 1096.25 519.483 1096.25 513.788V499.522ZM1096.25 479.33C1094.13 483.421 1089.88 486.997 1084.3 489.78C1076.12 493.862 1064.88 496.365 1052.5 496.365C1040.12 496.365 1028.88 493.862 1020.7 489.78C1015.12 486.997 1010.87 483.421 1008.75 479.33V493.596C1008.75 499.291 1013.4 504.651 1021.37 508.631C1029.3 512.588 1040.3 515.058 1052.5 515.058C1064.7 515.058 1075.7 512.588 1083.63 508.631C1091.6 504.651 1096.25 499.291 1096.25 493.596V479.33ZM1096.25 459.138C1094.13 463.229 1089.88 466.805 1084.3 469.588C1076.12 473.67 1064.88 476.173 1052.5 476.173C1040.12 476.173 1028.88 473.67 1020.7 469.588C1015.12 466.805 1010.87 463.229 1008.75 459.138V473.404L1008.76 473.937C1009.04 479.432 1013.64 484.583 1021.37 488.438C1029.3 492.396 1040.3 494.865 1052.5 494.865C1064.7 494.865 1075.7 492.396 1083.63 488.438C1091.36 484.583 1095.96 479.432 1096.24 473.937L1096.25 473.404V459.138ZM1096.25 453.212C1096.25 447.517 1091.6 442.157 1083.63 438.177C1075.7 434.219 1064.7 431.75 1052.5 431.75C1040.3 431.75 1029.3 434.219 1021.37 438.177C1013.4 442.157 1008.75 447.517 1008.75 453.212C1008.75 458.907 1013.4 464.266 1021.37 468.246C1029.3 472.204 1040.3 474.673 1052.5 474.673C1064.7 474.673 1075.7 472.204 1083.63 468.246C1091.6 464.266 1096.25 458.907 1096.25 453.212ZM1097.75 513.788C1097.75 520.359 1092.43 526.106 1084.3 530.165C1076.12 534.247 1064.88 536.75 1052.5 536.75C1040.12 536.75 1028.88 534.247 1020.7 530.165C1012.57 526.106 1007.25 520.359 1007.25 513.788V453.212C1007.25 446.641 1012.57 440.894 1020.7 436.835C1028.88 432.753 1040.12 430.25 1052.5 430.25C1064.88 430.25 1076.12 432.753 1084.3 436.835C1092.43 440.894 1097.75 446.641 1097.75 453.212V513.788Z" fill="#2386DD"/>
<path d="M405 392.212C405 404.478 385.075 414.423 360.5 414.423C335.925 414.423 316 404.478 316 392.212M405 392.212C405 379.945 385.075 370 360.5 370C335.925 370 316 379.945 316 392.212M405 392.212V452.788C405 465.055 385.075 475 360.5 475C335.925 475 316 465.055 316 452.788V392.212M405 392.212V412.404ZM316 392.212V412.404ZM405 412.404V432.596C405 444.862 385.075 454.808 360.5 454.808C335.925 454.808 316 444.862 316 432.596V412.404M405 412.404C405 424.67 385.075 434.615 360.5 434.615C335.925 434.615 316 424.67 316 412.404" fill="white"/>
<path d="M404.25 438.522C402.127 442.613 397.876 446.19 392.301 448.973C384.123 453.054 372.878 455.558 360.5 455.558C348.122 455.558 336.877 453.054 328.699 448.973C323.124 446.19 318.873 442.613 316.75 438.522V452.788C316.75 458.483 321.395 463.843 329.369 467.823C337.298 471.781 348.304 474.25 360.5 474.25C372.696 474.25 383.702 471.781 391.631 467.823C399.605 463.843 404.25 458.483 404.25 452.788V438.522ZM404.25 418.33C402.127 422.421 397.876 425.997 392.301 428.78C384.123 432.862 372.878 435.365 360.5 435.365C348.122 435.365 336.877 432.862 328.699 428.78C323.124 425.997 318.873 422.421 316.75 418.33V432.596C316.75 438.291 321.395 443.651 329.369 447.631C337.298 451.588 348.304 454.058 360.5 454.058C372.696 454.058 383.702 451.588 391.631 447.631C399.605 443.651 404.25 438.291 404.25 432.596V418.33ZM404.25 398.138C402.127 402.229 397.876 405.805 392.301 408.588C384.123 412.67 372.878 415.173 360.5 415.173C348.122 415.173 336.877 412.67 328.699 408.588C323.124 405.805 318.873 402.229 316.75 398.138V412.404L316.764 412.937C317.044 418.432 321.644 423.583 329.369 427.438C337.298 431.396 348.304 433.865 360.5 433.865C372.696 433.865 383.702 431.396 391.631 427.438C399.356 423.583 403.956 418.432 404.236 412.937L404.25 412.404V398.138ZM404.25 392.212C404.25 386.517 399.605 381.157 391.631 377.177C383.702 373.219 372.696 370.75 360.5 370.75C348.304 370.75 337.298 373.219 329.369 377.177C321.395 381.157 316.75 386.517 316.75 392.212C316.75 397.907 321.395 403.266 329.369 407.246C337.298 411.204 348.304 413.673 360.5 413.673C372.696 413.673 383.702 411.204 391.631 407.246C399.605 403.266 404.25 397.907 404.25 392.212ZM405.75 452.788C405.75 459.359 400.433 465.106 392.301 469.165C384.123 473.247 372.878 475.75 360.5 475.75C348.122 475.75 336.877 473.247 328.699 469.165C320.567 465.106 315.25 459.359 315.25 452.788V392.212C315.25 385.641 320.567 379.894 328.699 375.835C336.877 371.753 348.122 369.25 360.5 369.25C372.878 369.25 384.123 371.753 392.301 375.835C400.433 379.894 405.75 385.641 405.75 392.212V452.788Z" fill="#2386DD"/>
<path d="M578 392.212C578 404.478 558.075 414.423 533.5 414.423C508.925 414.423 489 404.478 489 392.212M578 392.212C578 379.945 558.075 370 533.5 370C508.925 370 489 379.945 489 392.212M578 392.212V452.788C578 465.055 558.075 475 533.5 475C508.925 475 489 465.055 489 452.788V392.212M578 392.212V412.404ZM489 392.212V412.404ZM578 412.404V432.596C578 444.862 558.075 454.808 533.5 454.808C508.925 454.808 489 444.862 489 432.596V412.404M578 412.404C578 424.67 558.075 434.615 533.5 434.615C508.925 434.615 489 424.67 489 412.404" fill="white"/>
<path d="M577.25 438.522C575.127 442.613 570.876 446.19 565.301 448.973C557.123 453.054 545.878 455.558 533.5 455.558C521.122 455.558 509.877 453.054 501.699 448.973C496.124 446.19 491.873 442.613 489.75 438.522V452.788C489.75 458.483 494.395 463.843 502.369 467.823C510.298 471.781 521.304 474.25 533.5 474.25C545.696 474.25 556.702 471.781 564.631 467.823C572.605 463.843 577.25 458.483 577.25 452.788V438.522ZM577.25 418.33C575.127 422.421 570.876 425.997 565.301 428.78C557.123 432.862 545.878 435.365 533.5 435.365C521.122 435.365 509.877 432.862 501.699 428.78C496.124 425.997 491.873 422.421 489.75 418.33V432.596C489.75 438.291 494.395 443.651 502.369 447.631C510.298 451.588 521.304 454.058 533.5 454.058C545.696 454.058 556.702 451.588 564.631 447.631C572.605 443.651 577.25 438.291 577.25 432.596V418.33ZM577.25 398.138C575.127 402.229 570.876 405.805 565.301 408.588C557.123 412.67 545.878 415.173 533.5 415.173C521.122 415.173 509.877 412.67 501.699 408.588C496.124 405.805 491.873 402.229 489.75 398.138V412.404L489.764 412.937C490.044 418.432 494.644 423.583 502.369 427.438C510.298 431.396 521.304 433.865 533.5 433.865C545.696 433.865 556.702 431.396 564.631 427.438C572.356 423.583 576.956 418.432 577.236 412.937L577.25 412.404V398.138ZM577.25 392.212C577.25 386.517 572.605 381.157 564.631 377.177C556.702 373.219 545.696 370.75 533.5 370.75C521.304 370.75 510.298 373.219 502.369 377.177C494.395 381.157 489.75 386.517 489.75 392.212C489.75 397.907 494.395 403.266 502.369 407.246C510.298 411.204 521.304 413.673 533.5 413.673C545.696 413.673 556.702 411.204 564.631 407.246C572.605 403.266 577.25 397.907 577.25 392.212ZM578.75 452.788C578.75 459.359 573.433 465.106 565.301 469.165C557.123 473.247 545.878 475.75 533.5 475.75C521.122 475.75 509.877 473.247 501.699 469.165C493.567 465.106 488.25 459.359 488.25 452.788V392.212C488.25 385.641 493.567 379.894 501.699 375.835C509.877 371.753 521.122 369.25 533.5 369.25C545.878 369.25 557.123 371.753 565.301 375.835C573.433 379.894 578.75 385.641 578.75 392.212V452.788Z" fill="#2386DD"/>
<path d="M751 392.212C751 404.478 731.075 414.423 706.5 414.423C681.925 414.423 662 404.478 662 392.212M751 392.212C751 379.945 731.075 370 706.5 370C681.925 370 662 379.945 662 392.212M751 392.212V452.788C751 465.055 731.075 475 706.5 475C681.925 475 662 465.055 662 452.788V392.212M751 392.212V412.404ZM662 392.212V412.404ZM751 412.404V432.596C751 444.862 731.075 454.808 706.5 454.808C681.925 454.808 662 444.862 662 432.596V412.404M751 412.404C751 424.67 731.075 434.615 706.5 434.615C681.925 434.615 662 424.67 662 412.404" fill="white"/>
<path d="M750.25 438.522C748.127 442.613 743.876 446.19 738.301 448.973C730.123 453.054 718.878 455.558 706.5 455.558C694.122 455.558 682.877 453.054 674.699 448.973C669.124 446.19 664.873 442.613 662.75 438.522V452.788C662.75 458.483 667.395 463.843 675.369 467.823C683.298 471.781 694.304 474.25 706.5 474.25C718.696 474.25 729.702 471.781 737.631 467.823C745.605 463.843 750.25 458.483 750.25 452.788V438.522ZM750.25 418.33C748.127 422.421 743.876 425.997 738.301 428.78C730.123 432.862 718.878 435.365 706.5 435.365C694.122 435.365 682.877 432.862 674.699 428.78C669.124 425.997 664.873 422.421 662.75 418.33V432.596C662.75 438.291 667.395 443.651 675.369 447.631C683.298 451.588 694.304 454.058 706.5 454.058C718.696 454.058 729.702 451.588 737.631 447.631C745.605 443.651 750.25 438.291 750.25 432.596V418.33ZM750.25 398.138C748.127 402.229 743.876 405.805 738.301 408.588C730.123 412.67 718.878 415.173 706.5 415.173C694.122 415.173 682.877 412.67 674.699 408.588C669.124 405.805 664.873 402.229 662.75 398.138V412.404L662.764 412.937C663.044 418.432 667.644 423.583 675.369 427.438C683.298 431.396 694.304 433.865 706.5 433.865C718.696 433.865 729.702 431.396 737.631 427.438C745.356 423.583 749.956 418.432 750.236 412.937L750.25 412.404V398.138ZM750.25 392.212C750.25 386.517 745.605 381.157 737.631 377.177C729.702 373.219 718.696 370.75 706.5 370.75C694.304 370.75 683.298 373.219 675.369 377.177C667.395 381.157 662.75 386.517 662.75 392.212C662.75 397.907 667.395 403.266 675.369 407.246C683.298 411.204 694.304 413.673 706.5 413.673C718.696 413.673 729.702 411.204 737.631 407.246C745.605 403.266 750.25 397.907 750.25 392.212ZM751.75 452.788C751.75 459.359 746.433 465.106 738.301 469.165C730.123 473.247 718.878 475.75 706.5 475.75C694.122 475.75 682.877 473.247 674.699 469.165C666.567 465.106 661.25 459.359 661.25 452.788V392.212C661.25 385.641 666.567 379.894 674.699 375.835C682.877 371.753 694.122 369.25 706.5 369.25C718.878 369.25 730.123 371.753 738.301 375.835C746.433 379.894 751.75 385.641 751.75 392.212V452.788Z" fill="#2386DD"/>
<path d="M924 392.212C924 404.478 904.075 414.423 879.5 414.423C854.925 414.423 835 404.478 835 392.212M924 392.212C924 379.945 904.075 370 879.5 370C854.925 370 835 379.945 835 392.212M924 392.212V452.788C924 465.055 904.075 475 879.5 475C854.925 475 835 465.055 835 452.788V392.212M924 392.212V412.404ZM835 392.212V412.404ZM924 412.404V432.596C924 444.862 904.075 454.808 879.5 454.808C854.925 454.808 835 444.862 835 432.596V412.404M924 412.404C924 424.67 904.075 434.615 879.5 434.615C854.925 434.615 835 424.67 835 412.404" fill="white"/>
<path d="M923.25 438.522C921.127 442.613 916.876 446.19 911.301 448.973C903.123 453.054 891.878 455.558 879.5 455.558C867.122 455.558 855.877 453.054 847.699 448.973C842.124 446.19 837.873 442.613 835.75 438.522V452.788C835.75 458.483 840.395 463.843 848.369 467.823C856.298 471.781 867.304 474.25 879.5 474.25C891.696 474.25 902.702 471.781 910.631 467.823C918.605 463.843 923.25 458.483 923.25 452.788V438.522ZM923.25 418.33C921.127 422.421 916.876 425.997 911.301 428.78C903.123 432.862 891.878 435.365 879.5 435.365C867.122 435.365 855.877 432.862 847.699 428.78C842.124 425.997 837.873 422.421 835.75 418.33V432.596C835.75 438.291 840.395 443.651 848.369 447.631C856.298 451.588 867.304 454.058 879.5 454.058C891.696 454.058 902.702 451.588 910.631 447.631C918.605 443.651 923.25 438.291 923.25 432.596V418.33ZM923.25 398.138C921.127 402.229 916.876 405.805 911.301 408.588C903.123 412.67 891.878 415.173 879.5 415.173C867.122 415.173 855.877 412.67 847.699 408.588C842.124 405.805 837.873 402.229 835.75 398.138V412.404L835.764 412.937C836.044 418.432 840.644 423.583 848.369 427.438C856.298 431.396 867.304 433.865 879.5 433.865C891.696 433.865 902.702 431.396 910.631 427.438C918.356 423.583 922.956 418.432 923.236 412.937L923.25 412.404V398.138ZM923.25 392.212C923.25 386.517 918.605 381.157 910.631 377.177C902.702 373.219 891.696 370.75 879.5 370.75C867.304 370.75 856.298 373.219 848.369 377.177C840.395 381.157 835.75 386.517 835.75 392.212C835.75 397.907 840.395 403.266 848.369 407.246C856.298 411.204 867.304 413.673 879.5 413.673C891.696 413.673 902.702 411.204 910.631 407.246C918.605 403.266 923.25 397.907 923.25 392.212ZM924.75 452.788C924.75 459.359 919.433 465.106 911.301 469.165C903.123 473.247 891.878 475.75 879.5 475.75C867.122 475.75 855.877 473.247 847.699 469.165C839.567 465.106 834.25 459.359 834.25 452.788V392.212C834.25 385.641 839.567 379.894 847.699 375.835C855.877 371.753 867.122 369.25 879.5 369.25C891.878 369.25 903.123 371.753 911.301 375.835C919.433 379.894 924.75 385.641 924.75 392.212V452.788Z" fill="#2386DD"/>
<path d="M1097 392.212C1097 404.478 1077.07 414.423 1052.5 414.423C1027.93 414.423 1008 404.478 1008 392.212M1097 392.212C1097 379.945 1077.07 370 1052.5 370C1027.93 370 1008 379.945 1008 392.212M1097 392.212V452.788C1097 465.055 1077.07 475 1052.5 475C1027.93 475 1008 465.055 1008 452.788V392.212M1097 392.212V412.404ZM1008 392.212V412.404ZM1097 412.404V432.596C1097 444.862 1077.07 454.808 1052.5 454.808C1027.93 454.808 1008 444.862 1008 432.596V412.404M1097 412.404C1097 424.67 1077.07 434.615 1052.5 434.615C1027.93 434.615 1008 424.67 1008 412.404" fill="white"/>
<path d="M1096.25 438.522C1094.13 442.613 1089.88 446.19 1084.3 448.973C1076.12 453.054 1064.88 455.558 1052.5 455.558C1040.12 455.558 1028.88 453.054 1020.7 448.973C1015.12 446.19 1010.87 442.613 1008.75 438.522V452.788C1008.75 458.483 1013.4 463.843 1021.37 467.823C1029.3 471.781 1040.3 474.25 1052.5 474.25C1064.7 474.25 1075.7 471.781 1083.63 467.823C1091.6 463.843 1096.25 458.483 1096.25 452.788V438.522ZM1096.25 418.33C1094.13 422.421 1089.88 425.997 1084.3 428.78C1076.12 432.862 1064.88 435.365 1052.5 435.365C1040.12 435.365 1028.88 432.862 1020.7 428.78C1015.12 425.997 1010.87 422.421 1008.75 418.33V432.596C1008.75 438.291 1013.4 443.651 1021.37 447.631C1029.3 451.588 1040.3 454.058 1052.5 454.058C1064.7 454.058 1075.7 451.588 1083.63 447.631C1091.6 443.651 1096.25 438.291 1096.25 432.596V418.33ZM1096.25 398.138C1094.13 402.229 1089.88 405.805 1084.3 408.588C1076.12 412.67 1064.88 415.173 1052.5 415.173C1040.12 415.173 1028.88 412.67 1020.7 408.588C1015.12 405.805 1010.87 402.229 1008.75 398.138V412.404L1008.76 412.937C1009.04 418.432 1013.64 423.583 1021.37 427.438C1029.3 431.396 1040.3 433.865 1052.5 433.865C1064.7 433.865 1075.7 431.396 1083.63 427.438C1091.36 423.583 1095.96 418.432 1096.24 412.937L1096.25 412.404V398.138ZM1096.25 392.212C1096.25 386.517 1091.6 381.157 1083.63 377.177C1075.7 373.219 1064.7 370.75 1052.5 370.75C1040.3 370.75 1029.3 373.219 1021.37 377.177C1013.4 381.157 1008.75 386.517 1008.75 392.212C1008.75 397.907 1013.4 403.266 1021.37 407.246C1029.3 411.204 1040.3 413.673 1052.5 413.673C1064.7 413.673 1075.7 411.204 1083.63 407.246C1091.6 403.266 1096.25 397.907 1096.25 392.212ZM1097.75 452.788C1097.75 459.359 1092.43 465.106 1084.3 469.165C1076.12 473.247 1064.88 475.75 1052.5 475.75C1040.12 475.75 1028.88 473.247 1020.7 469.165C1012.57 465.106 1007.25 459.359 1007.25 452.788V392.212C1007.25 385.641 1012.57 379.894 1020.7 375.835C1028.88 371.753 1040.12 369.25 1052.5 369.25C1064.88 369.25 1076.12 371.753 1084.3 375.835C1092.43 379.894 1097.75 385.641 1097.75 392.212V452.788Z" fill="#2386DD"/>
<path d="M578 332.212C578 344.478 558.075 354.423 533.5 354.423C508.925 354.423 489 344.478 489 332.212M578 332.212C578 319.945 558.075 310 533.5 310C508.925 310 489 319.945 489 332.212M578 332.212V392.788C578 405.055 558.075 415 533.5 415C508.925 415 489 405.055 489 392.788V332.212M578 332.212V352.404ZM489 332.212V352.404ZM578 352.404V372.596C578 384.862 558.075 394.808 533.5 394.808C508.925 394.808 489 384.862 489 372.596V352.404M578 352.404C578 364.67 558.075 374.615 533.5 374.615C508.925 374.615 489 364.67 489 352.404" fill="white"/>
<path d="M577.25 378.522C575.127 382.613 570.876 386.19 565.301 388.973C557.123 393.054 545.878 395.558 533.5 395.558C521.122 395.558 509.877 393.054 501.699 388.973C496.124 386.19 491.873 382.613 489.75 378.522V392.788C489.75 398.483 494.395 403.843 502.369 407.823C510.298 411.781 521.304 414.25 533.5 414.25C545.696 414.25 556.702 411.781 564.631 407.823C572.605 403.843 577.25 398.483 577.25 392.788V378.522ZM577.25 358.33C575.127 362.421 570.876 365.997 565.301 368.78C557.123 372.862 545.878 375.365 533.5 375.365C521.122 375.365 509.877 372.862 501.699 368.78C496.124 365.997 491.873 362.421 489.75 358.33V372.596C489.75 378.291 494.395 383.651 502.369 387.631C510.298 391.588 521.304 394.058 533.5 394.058C545.696 394.058 556.702 391.588 564.631 387.631C572.605 383.651 577.25 378.291 577.25 372.596V358.33ZM577.25 338.138C575.127 342.229 570.876 345.805 565.301 348.588C557.123 352.67 545.878 355.173 533.5 355.173C521.122 355.173 509.877 352.67 501.699 348.588C496.124 345.805 491.873 342.229 489.75 338.138V352.404L489.764 352.937C490.044 358.432 494.644 363.583 502.369 367.438C510.298 371.396 521.304 373.865 533.5 373.865C545.696 373.865 556.702 371.396 564.631 367.438C572.356 363.583 576.956 358.432 577.236 352.937L577.25 352.404V338.138ZM577.25 332.212C577.25 326.517 572.605 321.157 564.631 317.177C556.702 313.219 545.696 310.75 533.5 310.75C521.304 310.75 510.298 313.219 502.369 317.177C494.395 321.157 489.75 326.517 489.75 332.212C489.75 337.907 494.395 343.266 502.369 347.246C510.298 351.204 521.304 353.673 533.5 353.673C545.696 353.673 556.702 351.204 564.631 347.246C572.605 343.266 577.25 337.907 577.25 332.212ZM578.75 392.788C578.75 399.359 573.433 405.106 565.301 409.165C557.123 413.247 545.878 415.75 533.5 415.75C521.122 415.75 509.877 413.247 501.699 409.165C493.567 405.106 488.25 399.359 488.25 392.788V332.212C488.25 325.641 493.567 319.894 501.699 315.835C509.877 311.753 521.122 309.25 533.5 309.25C545.878 309.25 557.123 311.753 565.301 315.835C573.433 319.894 578.75 325.641 578.75 332.212V392.788Z" fill="#2386DD"/>
<path d="M751 332.212C751 344.478 731.075 354.423 706.5 354.423C681.925 354.423 662 344.478 662 332.212M751 332.212C751 319.945 731.075 310 706.5 310C681.925 310 662 319.945 662 332.212M751 332.212V392.788C751 405.055 731.075 415 706.5 415C681.925 415 662 405.055 662 392.788V332.212M751 332.212V352.404ZM662 332.212V352.404ZM751 352.404V372.596C751 384.862 731.075 394.808 706.5 394.808C681.925 394.808 662 384.862 662 372.596V352.404M751 352.404C751 364.67 731.075 374.615 706.5 374.615C681.925 374.615 662 364.67 662 352.404" fill="white"/>
<path d="M750.25 378.522C748.127 382.613 743.876 386.19 738.301 388.973C730.123 393.054 718.878 395.558 706.5 395.558C694.122 395.558 682.877 393.054 674.699 388.973C669.124 386.19 664.873 382.613 662.75 378.522V392.788C662.75 398.483 667.395 403.843 675.369 407.823C683.298 411.781 694.304 414.25 706.5 414.25C718.696 414.25 729.702 411.781 737.631 407.823C745.605 403.843 750.25 398.483 750.25 392.788V378.522ZM750.25 358.33C748.127 362.421 743.876 365.997 738.301 368.78C730.123 372.862 718.878 375.365 706.5 375.365C694.122 375.365 682.877 372.862 674.699 368.78C669.124 365.997 664.873 362.421 662.75 358.33V372.596C662.75 378.291 667.395 383.651 675.369 387.631C683.298 391.588 694.304 394.058 706.5 394.058C718.696 394.058 729.702 391.588 737.631 387.631C745.605 383.651 750.25 378.291 750.25 372.596V358.33ZM750.25 338.138C748.127 342.229 743.876 345.805 738.301 348.588C730.123 352.67 718.878 355.173 706.5 355.173C694.122 355.173 682.877 352.67 674.699 348.588C669.124 345.805 664.873 342.229 662.75 338.138V352.404L662.764 352.937C663.044 358.432 667.644 363.583 675.369 367.438C683.298 371.396 694.304 373.865 706.5 373.865C718.696 373.865 729.702 371.396 737.631 367.438C745.356 363.583 749.956 358.432 750.236 352.937L750.25 352.404V338.138ZM750.25 332.212C750.25 326.517 745.605 321.157 737.631 317.177C729.702 313.219 718.696 310.75 706.5 310.75C694.304 310.75 683.298 313.219 675.369 317.177C667.395 321.157 662.75 326.517 662.75 332.212C662.75 337.907 667.395 343.266 675.369 347.246C683.298 351.204 694.304 353.673 706.5 353.673C718.696 353.673 729.702 351.204 737.631 347.246C745.605 343.266 750.25 337.907 750.25 332.212ZM751.75 392.788C751.75 399.359 746.433 405.106 738.301 409.165C730.123 413.247 718.878 415.75 706.5 415.75C694.122 415.75 682.877 413.247 674.699 409.165C666.567 405.106 661.25 399.359 661.25 392.788V332.212C661.25 325.641 666.567 319.894 674.699 315.835C682.877 311.753 694.122 309.25 706.5 309.25C718.878 309.25 730.123 311.753 738.301 315.835C746.433 319.894 751.75 325.641 751.75 332.212V392.788Z" fill="#2386DD"/>
<path d="M924 332.212C924 344.478 904.075 354.423 879.5 354.423C854.925 354.423 835 344.478 835 332.212M924 332.212C924 319.945 904.075 310 879.5 310C854.925 310 835 319.945 835 332.212M924 332.212V392.788C924 405.055 904.075 415 879.5 415C854.925 415 835 405.055 835 392.788V332.212M924 332.212V352.404ZM835 332.212V352.404ZM924 352.404V372.596C924 384.862 904.075 394.808 879.5 394.808C854.925 394.808 835 384.862 835 372.596V352.404M924 352.404C924 364.67 904.075 374.615 879.5 374.615C854.925 374.615 835 364.67 835 352.404" fill="white"/>
<path d="M923.25 378.522C921.127 382.613 916.876 386.19 911.301 388.973C903.123 393.054 891.878 395.558 879.5 395.558C867.122 395.558 855.877 393.054 847.699 388.973C842.124 386.19 837.873 382.613 835.75 378.522V392.788C835.75 398.483 840.395 403.843 848.369 407.823C856.298 411.781 867.304 414.25 879.5 414.25C891.696 414.25 902.702 411.781 910.631 407.823C918.605 403.843 923.25 398.483 923.25 392.788V378.522ZM923.25 358.33C921.127 362.421 916.876 365.997 911.301 368.78C903.123 372.862 891.878 375.365 879.5 375.365C867.122 375.365 855.877 372.862 847.699 368.78C842.124 365.997 837.873 362.421 835.75 358.33V372.596C835.75 378.291 840.395 383.651 848.369 387.631C856.298 391.588 867.304 394.058 879.5 394.058C891.696 394.058 902.702 391.588 910.631 387.631C918.605 383.651 923.25 378.291 923.25 372.596V358.33ZM923.25 338.138C921.127 342.229 916.876 345.805 911.301 348.588C903.123 352.67 891.878 355.173 879.5 355.173C867.122 355.173 855.877 352.67 847.699 348.588C842.124 345.805 837.873 342.229 835.75 338.138V352.404L835.764 352.937C836.044 358.432 840.644 363.583 848.369 367.438C856.298 371.396 867.304 373.865 879.5 373.865C891.696 373.865 902.702 371.396 910.631 367.438C918.356 363.583 922.956 358.432 923.236 352.937L923.25 352.404V338.138ZM923.25 332.212C923.25 326.517 918.605 321.157 910.631 317.177C902.702 313.219 891.696 310.75 879.5 310.75C867.304 310.75 856.298 313.219 848.369 317.177C840.395 321.157 835.75 326.517 835.75 332.212C835.75 337.907 840.395 343.266 848.369 347.246C856.298 351.204 867.304 353.673 879.5 353.673C891.696 353.673 902.702 351.204 910.631 347.246C918.605 343.266 923.25 337.907 923.25 332.212ZM924.75 392.788C924.75 399.359 919.433 405.106 911.301 409.165C903.123 413.247 891.878 415.75 879.5 415.75C867.122 415.75 855.877 413.247 847.699 409.165C839.567 405.106 834.25 399.359 834.25 392.788V332.212C834.25 325.641 839.567 319.894 847.699 315.835C855.877 311.753 867.122 309.25 879.5 309.25C891.878 309.25 903.123 311.753 911.301 315.835C919.433 319.894 924.75 325.641 924.75 332.212V392.788Z" fill="#2386DD"/>
<path d="M1097 332.212C1097 344.478 1077.07 354.423 1052.5 354.423C1027.93 354.423 1008 344.478 1008 332.212M1097 332.212C1097 319.945 1077.07 310 1052.5 310C1027.93 310 1008 319.945 1008 332.212M1097 332.212V392.788C1097 405.055 1077.07 415 1052.5 415C1027.93 415 1008 405.055 1008 392.788V332.212M1097 332.212V352.404ZM1008 332.212V352.404ZM1097 352.404V372.596C1097 384.862 1077.07 394.808 1052.5 394.808C1027.93 394.808 1008 384.862 1008 372.596V352.404M1097 352.404C1097 364.67 1077.07 374.615 1052.5 374.615C1027.93 374.615 1008 364.67 1008 352.404" fill="white"/>
<path d="M1096.25 378.522C1094.13 382.613 1089.88 386.19 1084.3 388.973C1076.12 393.054 1064.88 395.558 1052.5 395.558C1040.12 395.558 1028.88 393.054 1020.7 388.973C1015.12 386.19 1010.87 382.613 1008.75 378.522V392.788C1008.75 398.483 1013.4 403.843 1021.37 407.823C1029.3 411.781 1040.3 414.25 1052.5 414.25C1064.7 414.25 1075.7 411.781 1083.63 407.823C1091.6 403.843 1096.25 398.483 1096.25 392.788V378.522ZM1096.25 358.33C1094.13 362.421 1089.88 365.997 1084.3 368.78C1076.12 372.862 1064.88 375.365 1052.5 375.365C1040.12 375.365 1028.88 372.862 1020.7 368.78C1015.12 365.997 1010.87 362.421 1008.75 358.33V372.596C1008.75 378.291 1013.4 383.651 1021.37 387.631C1029.3 391.588 1040.3 394.058 1052.5 394.058C1064.7 394.058 1075.7 391.588 1083.63 387.631C1091.6 383.651 1096.25 378.291 1096.25 372.596V358.33ZM1096.25 338.138C1094.13 342.229 1089.88 345.805 1084.3 348.588C1076.12 352.67 1064.88 355.173 1052.5 355.173C1040.12 355.173 1028.88 352.67 1020.7 348.588C1015.12 345.805 1010.87 342.229 1008.75 338.138V352.404L1008.76 352.937C1009.04 358.432 1013.64 363.583 1021.37 367.438C1029.3 371.396 1040.3 373.865 1052.5 373.865C1064.7 373.865 1075.7 371.396 1083.63 367.438C1091.36 363.583 1095.96 358.432 1096.24 352.937L1096.25 352.404V338.138ZM1096.25 332.212C1096.25 326.517 1091.6 321.157 1083.63 317.177C1075.7 313.219 1064.7 310.75 1052.5 310.75C1040.3 310.75 1029.3 313.219 1021.37 317.177C1013.4 321.157 1008.75 326.517 1008.75 332.212C1008.75 337.907 1013.4 343.266 1021.37 347.246C1029.3 351.204 1040.3 353.673 1052.5 353.673C1064.7 353.673 1075.7 351.204 1083.63 347.246C1091.6 343.266 1096.25 337.907 1096.25 332.212ZM1097.75 392.788C1097.75 399.359 1092.43 405.106 1084.3 409.165C1076.12 413.247 1064.88 415.75 1052.5 415.75C1040.12 415.75 1028.88 413.247 1020.7 409.165C1012.57 405.106 1007.25 399.359 1007.25 392.788V332.212C1007.25 325.641 1012.57 319.894 1020.7 315.835C1028.88 311.753 1040.12 309.25 1052.5 309.25C1064.88 309.25 1076.12 311.753 1084.3 315.835C1092.43 319.894 1097.75 325.641 1097.75 332.212V392.788Z" fill="#2386DD"/>
<path d="M751 272.212C751 284.478 731.075 294.423 706.5 294.423C681.925 294.423 662 284.478 662 272.212M751 272.212C751 259.945 731.075 250 706.5 250C681.925 250 662 259.945 662 272.212M751 272.212V332.788C751 345.055 731.075 355 706.5 355C681.925 355 662 345.055 662 332.788V272.212M751 272.212V292.404ZM662 272.212V292.404ZM751 292.404V312.596C751 324.862 731.075 334.808 706.5 334.808C681.925 334.808 662 324.862 662 312.596V292.404M751 292.404C751 304.67 731.075 314.615 706.5 314.615C681.925 314.615 662 304.67 662 292.404" fill="white"/>
<path d="M750.25 318.522C748.127 322.613 743.876 326.19 738.301 328.973C730.123 333.054 718.878 335.558 706.5 335.558C694.122 335.558 682.877 333.054 674.699 328.973C669.124 326.19 664.873 322.613 662.75 318.522V332.788C662.75 338.483 667.395 343.843 675.369 347.823C683.298 351.781 694.304 354.25 706.5 354.25C718.696 354.25 729.702 351.781 737.631 347.823C745.605 343.843 750.25 338.483 750.25 332.788V318.522ZM750.25 298.33C748.127 302.421 743.876 305.997 738.301 308.78C730.123 312.862 718.878 315.365 706.5 315.365C694.122 315.365 682.877 312.862 674.699 308.78C669.124 305.997 664.873 302.421 662.75 298.33V312.596C662.75 318.291 667.395 323.651 675.369 327.631C683.298 331.588 694.304 334.058 706.5 334.058C718.696 334.058 729.702 331.588 737.631 327.631C745.605 323.651 750.25 318.291 750.25 312.596V298.33ZM750.25 278.138C748.127 282.229 743.876 285.805 738.301 288.588C730.123 292.67 718.878 295.173 706.5 295.173C694.122 295.173 682.877 292.67 674.699 288.588C669.124 285.805 664.873 282.229 662.75 278.138V292.404L662.764 292.937C663.044 298.432 667.644 303.583 675.369 307.438C683.298 311.396 694.304 313.865 706.5 313.865C718.696 313.865 729.702 311.396 737.631 307.438C745.356 303.583 749.956 298.432 750.236 292.937L750.25 292.404V278.138ZM750.25 272.212C750.25 266.517 745.605 261.157 737.631 257.177C729.702 253.219 718.696 250.75 706.5 250.75C694.304 250.75 683.298 253.219 675.369 257.177C667.395 261.157 662.75 266.517 662.75 272.212C662.75 277.907 667.395 283.266 675.369 287.246C683.298 291.204 694.304 293.673 706.5 293.673C718.696 293.673 729.702 291.204 737.631 287.246C745.605 283.266 750.25 277.907 750.25 272.212ZM751.75 332.788C751.75 339.359 746.433 345.106 738.301 349.165C730.123 353.247 718.878 355.75 706.5 355.75C694.122 355.75 682.877 353.247 674.699 349.165C666.567 345.106 661.25 339.359 661.25 332.788V272.212C661.25 265.641 666.567 259.894 674.699 255.835C682.877 251.753 694.122 249.25 706.5 249.25C718.878 249.25 730.123 251.753 738.301 255.835C746.433 259.894 751.75 265.641 751.75 272.212V332.788Z" fill="#2386DD"/>
<path d="M924 272.212C924 284.478 904.075 294.423 879.5 294.423C854.925 294.423 835 284.478 835 272.212M924 272.212C924 259.945 904.075 250 879.5 250C854.925 250 835 259.945 835 272.212M924 272.212V332.788C924 345.055 904.075 355 879.5 355C854.925 355 835 345.055 835 332.788V272.212M924 272.212V292.404ZM835 272.212V292.404ZM924 292.404V312.596C924 324.862 904.075 334.808 879.5 334.808C854.925 334.808 835 324.862 835 312.596V292.404M924 292.404C924 304.67 904.075 314.615 879.5 314.615C854.925 314.615 835 304.67 835 292.404" fill="white"/>
<path d="M923.25 318.522C921.127 322.613 916.876 326.19 911.301 328.973C903.123 333.054 891.878 335.558 879.5 335.558C867.122 335.558 855.877 333.054 847.699 328.973C842.124 326.19 837.873 322.613 835.75 318.522V332.788C835.75 338.483 840.395 343.843 848.369 347.823C856.298 351.781 867.304 354.25 879.5 354.25C891.696 354.25 902.702 351.781 910.631 347.823C918.605 343.843 923.25 338.483 923.25 332.788V318.522ZM923.25 298.33C921.127 302.421 916.876 305.997 911.301 308.78C903.123 312.862 891.878 315.365 879.5 315.365C867.122 315.365 855.877 312.862 847.699 308.78C842.124 305.997 837.873 302.421 835.75 298.33V312.596C835.75 318.291 840.395 323.651 848.369 327.631C856.298 331.588 867.304 334.058 879.5 334.058C891.696 334.058 902.702 331.588 910.631 327.631C918.605 323.651 923.25 318.291 923.25 312.596V298.33ZM923.25 278.138C921.127 282.229 916.876 285.805 911.301 288.588C903.123 292.67 891.878 295.173 879.5 295.173C867.122 295.173 855.877 292.67 847.699 288.588C842.124 285.805 837.873 282.229 835.75 278.138V292.404L835.764 292.937C836.044 298.432 840.644 303.583 848.369 307.438C856.298 311.396 867.304 313.865 879.5 313.865C891.696 313.865 902.702 311.396 910.631 307.438C918.356 303.583 922.956 298.432 923.236 292.937L923.25 292.404V278.138ZM923.25 272.212C923.25 266.517 918.605 261.157 910.631 257.177C902.702 253.219 891.696 250.75 879.5 250.75C867.304 250.75 856.298 253.219 848.369 257.177C840.395 261.157 835.75 266.517 835.75 272.212C835.75 277.907 840.395 283.266 848.369 287.246C856.298 291.204 867.304 293.673 879.5 293.673C891.696 293.673 902.702 291.204 910.631 287.246C918.605 283.266 923.25 277.907 923.25 272.212ZM924.75 332.788C924.75 339.359 919.433 345.106 911.301 349.165C903.123 353.247 891.878 355.75 879.5 355.75C867.122 355.75 855.877 353.247 847.699 349.165C839.567 345.106 834.25 339.359 834.25 332.788V272.212C834.25 265.641 839.567 259.894 847.699 255.835C855.877 251.753 867.122 249.25 879.5 249.25C891.878 249.25 903.123 251.753 911.301 255.835C919.433 259.894 924.75 265.641 924.75 272.212V332.788Z" fill="#2386DD"/>
<path d="M1097 272.212C1097 284.478 1077.07 294.423 1052.5 294.423C1027.93 294.423 1008 284.478 1008 272.212M1097 272.212C1097 259.945 1077.07 250 1052.5 250C1027.93 250 1008 259.945 1008 272.212M1097 272.212V332.788C1097 345.055 1077.07 355 1052.5 355C1027.93 355 1008 345.055 1008 332.788V272.212M1097 272.212V292.404ZM1008 272.212V292.404ZM1097 292.404V312.596C1097 324.862 1077.07 334.808 1052.5 334.808C1027.93 334.808 1008 324.862 1008 312.596V292.404M1097 292.404C1097 304.67 1077.07 314.615 1052.5 314.615C1027.93 314.615 1008 304.67 1008 292.404" fill="white"/>
<path d="M1096.25 318.522C1094.13 322.613 1089.88 326.19 1084.3 328.973C1076.12 333.054 1064.88 335.558 1052.5 335.558C1040.12 335.558 1028.88 333.054 1020.7 328.973C1015.12 326.19 1010.87 322.613 1008.75 318.522V332.788C1008.75 338.483 1013.4 343.843 1021.37 347.823C1029.3 351.781 1040.3 354.25 1052.5 354.25C1064.7 354.25 1075.7 351.781 1083.63 347.823C1091.6 343.843 1096.25 338.483 1096.25 332.788V318.522ZM1096.25 298.33C1094.13 302.421 1089.88 305.997 1084.3 308.78C1076.12 312.862 1064.88 315.365 1052.5 315.365C1040.12 315.365 1028.88 312.862 1020.7 308.78C1015.12 305.997 1010.87 302.421 1008.75 298.33V312.596C1008.75 318.291 1013.4 323.651 1021.37 327.631C1029.3 331.588 1040.3 334.058 1052.5 334.058C1064.7 334.058 1075.7 331.588 1083.63 327.631C1091.6 323.651 1096.25 318.291 1096.25 312.596V298.33ZM1096.25 278.138C1094.13 282.229 1089.88 285.805 1084.3 288.588C1076.12 292.67 1064.88 295.173 1052.5 295.173C1040.12 295.173 1028.88 292.67 1020.7 288.588C1015.12 285.805 1010.87 282.229 1008.75 278.138V292.404L1008.76 292.937C1009.04 298.432 1013.64 303.583 1021.37 307.438C1029.3 311.396 1040.3 313.865 1052.5 313.865C1064.7 313.865 1075.7 311.396 1083.63 307.438C1091.36 303.583 1095.96 298.432 1096.24 292.937L1096.25 292.404V278.138ZM1096.25 272.212C1096.25 266.517 1091.6 261.157 1083.63 257.177C1075.7 253.219 1064.7 250.75 1052.5 250.75C1040.3 250.75 1029.3 253.219 1021.37 257.177C1013.4 261.157 1008.75 266.517 1008.75 272.212C1008.75 277.907 1013.4 283.266 1021.37 287.246C1029.3 291.204 1040.3 293.673 1052.5 293.673C1064.7 293.673 1075.7 291.204 1083.63 287.246C1091.6 283.266 1096.25 277.907 1096.25 272.212ZM1097.75 332.788C1097.75 339.359 1092.43 345.106 1084.3 349.165C1076.12 353.247 1064.88 355.75 1052.5 355.75C1040.12 355.75 1028.88 353.247 1020.7 349.165C1012.57 345.106 1007.25 339.359 1007.25 332.788V272.212C1007.25 265.641 1012.57 259.894 1020.7 255.835C1028.88 251.753 1040.12 249.25 1052.5 249.25C1064.88 249.25 1076.12 251.753 1084.3 255.835C1092.43 259.894 1097.75 265.641 1097.75 272.212V332.788Z" fill="#2386DD"/>
<path d="M924 211.212C924 223.478 904.075 233.423 879.5 233.423C854.925 233.423 835 223.478 835 211.212M924 211.212C924 198.945 904.075 189 879.5 189C854.925 189 835 198.945 835 211.212M924 211.212V271.788C924 284.055 904.075 294 879.5 294C854.925 294 835 284.055 835 271.788V211.212M924 211.212V231.404ZM835 211.212V231.404ZM924 231.404V251.596C924 263.862 904.075 273.808 879.5 273.808C854.925 273.808 835 263.862 835 251.596V231.404M924 231.404C924 243.67 904.075 253.615 879.5 253.615C854.925 253.615 835 243.67 835 231.404" fill="white"/>
<path d="M923.25 257.522C921.127 261.613 916.876 265.19 911.301 267.973C903.123 272.054 891.878 274.558 879.5 274.558C867.122 274.558 855.877 272.054 847.699 267.973C842.124 265.19 837.873 261.613 835.75 257.522V271.788C835.75 277.483 840.395 282.843 848.369 286.823C856.298 290.781 867.304 293.25 879.5 293.25C891.696 293.25 902.702 290.781 910.631 286.823C918.605 282.843 923.25 277.483 923.25 271.788V257.522ZM923.25 237.33C921.127 241.421 916.876 244.997 911.301 247.78C903.123 251.862 891.878 254.365 879.5 254.365C867.122 254.365 855.877 251.862 847.699 247.78C842.124 244.997 837.873 241.421 835.75 237.33V251.596C835.75 257.291 840.395 262.651 848.369 266.631C856.298 270.588 867.304 273.058 879.5 273.058C891.696 273.058 902.702 270.588 910.631 266.631C918.605 262.651 923.25 257.291 923.25 251.596V237.33ZM923.25 217.138C921.127 221.229 916.876 224.805 911.301 227.588C903.123 231.67 891.878 234.173 879.5 234.173C867.122 234.173 855.877 231.67 847.699 227.588C842.124 224.805 837.873 221.229 835.75 217.138V231.404L835.764 231.937C836.044 237.432 840.644 242.583 848.369 246.438C856.298 250.396 867.304 252.865 879.5 252.865C891.696 252.865 902.702 250.396 910.631 246.438C918.356 242.583 922.956 237.432 923.236 231.937L923.25 231.404V217.138ZM923.25 211.212C923.25 205.517 918.605 200.157 910.631 196.177C902.702 192.219 891.696 189.75 879.5 189.75C867.304 189.75 856.298 192.219 848.369 196.177C840.395 200.157 835.75 205.517 835.75 211.212C835.75 216.907 840.395 222.266 848.369 226.246C856.298 230.204 867.304 232.673 879.5 232.673C891.696 232.673 902.702 230.204 910.631 226.246C918.605 222.266 923.25 216.907 923.25 211.212ZM924.75 271.788C924.75 278.359 919.433 284.106 911.301 288.165C903.123 292.247 891.878 294.75 879.5 294.75C867.122 294.75 855.877 292.247 847.699 288.165C839.567 284.106 834.25 278.359 834.25 271.788V211.212C834.25 204.641 839.567 198.894 847.699 194.835C855.877 190.753 867.122 188.25 879.5 188.25C891.878 188.25 903.123 190.753 911.301 194.835C919.433 198.894 924.75 204.641 924.75 211.212V271.788Z" fill="#2386DD"/>
<path d="M1097 211.212C1097 223.478 1077.07 233.423 1052.5 233.423C1027.93 233.423 1008 223.478 1008 211.212M1097 211.212C1097 198.945 1077.07 189 1052.5 189C1027.93 189 1008 198.945 1008 211.212M1097 211.212V271.788C1097 284.055 1077.07 294 1052.5 294C1027.93 294 1008 284.055 1008 271.788V211.212M1097 211.212V231.404ZM1008 211.212V231.404ZM1097 231.404V251.596C1097 263.862 1077.07 273.808 1052.5 273.808C1027.93 273.808 1008 263.862 1008 251.596V231.404M1097 231.404C1097 243.67 1077.07 253.615 1052.5 253.615C1027.93 253.615 1008 243.67 1008 231.404" fill="white"/>
<path d="M1096.25 257.522C1094.13 261.613 1089.88 265.19 1084.3 267.973C1076.12 272.054 1064.88 274.558 1052.5 274.558C1040.12 274.558 1028.88 272.054 1020.7 267.973C1015.12 265.19 1010.87 261.613 1008.75 257.522V271.788C1008.75 277.483 1013.4 282.843 1021.37 286.823C1029.3 290.781 1040.3 293.25 1052.5 293.25C1064.7 293.25 1075.7 290.781 1083.63 286.823C1091.6 282.843 1096.25 277.483 1096.25 271.788V257.522ZM1096.25 237.33C1094.13 241.421 1089.88 244.997 1084.3 247.78C1076.12 251.862 1064.88 254.365 1052.5 254.365C1040.12 254.365 1028.88 251.862 1020.7 247.78C1015.12 244.997 1010.87 241.421 1008.75 237.33V251.596C1008.75 257.291 1013.4 262.651 1021.37 266.631C1029.3 270.588 1040.3 273.058 1052.5 273.058C1064.7 273.058 1075.7 270.588 1083.63 266.631C1091.6 262.651 1096.25 257.291 1096.25 251.596V237.33ZM1096.25 217.138C1094.13 221.229 1089.88 224.805 1084.3 227.588C1076.12 231.67 1064.88 234.173 1052.5 234.173C1040.12 234.173 1028.88 231.67 1020.7 227.588C1015.12 224.805 1010.87 221.229 1008.75 217.138V231.404L1008.76 231.937C1009.04 237.432 1013.64 242.583 1021.37 246.438C1029.3 250.396 1040.3 252.865 1052.5 252.865C1064.7 252.865 1075.7 250.396 1083.63 246.438C1091.36 242.583 1095.96 237.432 1096.24 231.937L1096.25 231.404V217.138ZM1096.25 211.212C1096.25 205.517 1091.6 200.157 1083.63 196.177C1075.7 192.219 1064.7 189.75 1052.5 189.75C1040.3 189.75 1029.3 192.219 1021.37 196.177C1013.4 200.157 1008.75 205.517 1008.75 211.212C1008.75 216.907 1013.4 222.266 1021.37 226.246C1029.3 230.204 1040.3 232.673 1052.5 232.673C1064.7 232.673 1075.7 230.204 1083.63 226.246C1091.6 222.266 1096.25 216.907 1096.25 211.212ZM1097.75 271.788C1097.75 278.359 1092.43 284.106 1084.3 288.165C1076.12 292.247 1064.88 294.75 1052.5 294.75C1040.12 294.75 1028.88 292.247 1020.7 288.165C1012.57 284.106 1007.25 278.359 1007.25 271.788V211.212C1007.25 204.641 1012.57 198.894 1020.7 194.835C1028.88 190.753 1040.12 188.25 1052.5 188.25C1064.88 188.25 1076.12 190.753 1084.3 194.835C1092.43 198.894 1097.75 204.641 1097.75 211.212V271.788Z" fill="#2386DD"/>
<path d="M1097 150.212C1097 162.478 1077.07 172.423 1052.5 172.423C1027.93 172.423 1008 162.478 1008 150.212M1097 150.212C1097 137.945 1077.07 128 1052.5 128C1027.93 128 1008 137.945 1008 150.212M1097 150.212V210.788C1097 223.055 1077.07 233 1052.5 233C1027.93 233 1008 223.055 1008 210.788V150.212M1097 150.212V170.404ZM1008 150.212V170.404ZM1097 170.404V190.596C1097 202.862 1077.07 212.808 1052.5 212.808C1027.93 212.808 1008 202.862 1008 190.596V170.404M1097 170.404C1097 182.67 1077.07 192.615 1052.5 192.615C1027.93 192.615 1008 182.67 1008 170.404" fill="white"/>
<path d="M1096.25 196.522C1094.13 200.613 1089.88 204.19 1084.3 206.973C1076.12 211.054 1064.88 213.558 1052.5 213.558C1040.12 213.558 1028.88 211.054 1020.7 206.973C1015.12 204.19 1010.87 200.613 1008.75 196.522V210.788C1008.75 216.483 1013.4 221.843 1021.37 225.823C1029.3 229.781 1040.3 232.25 1052.5 232.25C1064.7 232.25 1075.7 229.781 1083.63 225.823C1091.6 221.843 1096.25 216.483 1096.25 210.788V196.522ZM1096.25 176.33C1094.13 180.421 1089.88 183.997 1084.3 186.78C1076.12 190.862 1064.88 193.365 1052.5 193.365C1040.12 193.365 1028.88 190.862 1020.7 186.78C1015.12 183.997 1010.87 180.421 1008.75 176.33V190.596C1008.75 196.291 1013.4 201.651 1021.37 205.631C1029.3 209.588 1040.3 212.058 1052.5 212.058C1064.7 212.058 1075.7 209.588 1083.63 205.631C1091.6 201.651 1096.25 196.291 1096.25 190.596V176.33ZM1096.25 156.138C1094.13 160.229 1089.88 163.805 1084.3 166.588C1076.12 170.67 1064.88 173.173 1052.5 173.173C1040.12 173.173 1028.88 170.67 1020.7 166.588C1015.12 163.805 1010.87 160.229 1008.75 156.138V170.404L1008.76 170.937C1009.04 176.432 1013.64 181.583 1021.37 185.438C1029.3 189.396 1040.3 191.865 1052.5 191.865C1064.7 191.865 1075.7 189.396 1083.63 185.438C1091.36 181.583 1095.96 176.432 1096.24 170.937L1096.25 170.404V156.138ZM1096.25 150.212C1096.25 144.517 1091.6 139.157 1083.63 135.177C1075.7 131.219 1064.7 128.75 1052.5 128.75C1040.3 128.75 1029.3 131.219 1021.37 135.177C1013.4 139.157 1008.75 144.517 1008.75 150.212C1008.75 155.907 1013.4 161.266 1021.37 165.246C1029.3 169.204 1040.3 171.673 1052.5 171.673C1064.7 171.673 1075.7 169.204 1083.63 165.246C1091.6 161.266 1096.25 155.907 1096.25 150.212ZM1097.75 210.788C1097.75 217.359 1092.43 223.106 1084.3 227.165C1076.12 231.247 1064.88 233.75 1052.5 233.75C1040.12 233.75 1028.88 231.247 1020.7 227.165C1012.57 223.106 1007.25 217.359 1007.25 210.788V150.212C1007.25 143.641 1012.57 137.894 1020.7 133.835C1028.88 129.753 1040.12 127.25 1052.5 127.25C1064.88 127.25 1076.12 129.753 1084.3 133.835C1092.43 137.894 1097.75 143.641 1097.75 150.212V210.788Z" fill="#2386DD"/>
</svg>
