<svg width="1200" height="675" viewBox="0 0 1200 675" fill="none" xmlns="http://www.w3.org/2000/svg">
<g clip-path="url(#clip0_2134_301)">
<rect width="1200" height="675" fill="white"/>
<path d="M-414 321C-414 317.686 -411.314 315 -408 315H1679C1682.31 315 1685 317.686 1685 321V855C1685 858.314 1682.31 861 1679 861H-408C-411.314 861 -414 858.314 -414 855V321Z" fill="#F7F7F7"/>
<path d="M374 179H430.811C435.229 179 438.811 182.582 438.811 187V404C438.811 408.418 442.393 412 446.811 412H751.844C756.262 412 759.844 408.418 759.844 404V187C759.844 182.582 763.426 179 767.844 179H825" stroke="black" stroke-width="2" stroke-dasharray="4 4"/>
<rect width="1200" height="105" fill="url(#paint0_linear_2134_301)"/>
<path d="M143 360C143 356.686 145.686 354 149 354H414C417.314 354 420 356.686 420 360V463C420 466.314 417.314 469 414 469H149C145.686 469 143 466.314 143 463V360Z" fill="black" fill-opacity="0.05"/>
<rect x="177.5" y="386.5" width="82" height="50" rx="5" fill="black" fill-opacity="0.1"/>
<g opacity="0.3">
<path d="M277.5 402.5L273.5 406.5L277.5 410.5" stroke="black" stroke-width="2" stroke-linecap="round" stroke-linejoin="round"/>
<path d="M273.5 406.5H289.5" stroke="black" stroke-width="2" stroke-linecap="round" stroke-linejoin="round"/>
<path d="M285.5 420.5L289.5 416.5L285.5 412.5" stroke="black" stroke-width="2" stroke-linecap="round" stroke-linejoin="round"/>
<path d="M289.5 416.5H273.5" stroke="black" stroke-width="2" stroke-linecap="round" stroke-linejoin="round"/>
</g>
<rect x="303.5" y="386.5" width="82" height="50" rx="5" fill="black" fill-opacity="0.1"/>
<path d="M-158 360C-158 356.686 -155.314 354 -152 354H113C116.314 354 119 356.686 119 360V463C119 466.314 116.314 469 113 469H-152C-155.314 469 -158 466.314 -158 463V360Z" fill="black" fill-opacity="0.05"/>
<rect x="2.5" y="386.5" width="82" height="50" rx="5" fill="black" fill-opacity="0.1"/>
<path d="M143 498C143 494.686 145.686 492 149 492H414C417.314 492 420 494.686 420 498V601C420 604.314 417.314 607 414 607H149C145.686 607 143 604.314 143 601V498Z" fill="black" fill-opacity="0.05"/>
<rect x="177.5" y="524.5" width="82" height="50" rx="5" fill="black" fill-opacity="0.1"/>
<g opacity="0.3">
<path d="M277.5 540.5L273.5 544.5L277.5 548.5" stroke="black" stroke-width="2" stroke-linecap="round" stroke-linejoin="round"/>
<path d="M273.5 544.5H289.5" stroke="black" stroke-width="2" stroke-linecap="round" stroke-linejoin="round"/>
<path d="M285.5 558.5L289.5 554.5L285.5 550.5" stroke="black" stroke-width="2" stroke-linecap="round" stroke-linejoin="round"/>
<path d="M289.5 554.5H273.5" stroke="black" stroke-width="2" stroke-linecap="round" stroke-linejoin="round"/>
</g>
<rect x="303.5" y="524.5" width="82" height="50" rx="5" fill="black" fill-opacity="0.1"/>
<path d="M461 498C461 494.686 463.686 492 467 492H732C735.314 492 738 494.686 738 498V601C738 604.314 735.314 607 732 607H467C463.686 607 461 604.314 461 601V498Z" fill="black" fill-opacity="0.05"/>
<rect x="495.5" y="524.5" width="82" height="50" rx="5" fill="black" fill-opacity="0.1"/>
<g opacity="0.3">
<path d="M595.5 540.5L591.5 544.5L595.5 548.5" stroke="black" stroke-width="2" stroke-linecap="round" stroke-linejoin="round"/>
<path d="M591.5 544.5H607.5" stroke="black" stroke-width="2" stroke-linecap="round" stroke-linejoin="round"/>
<path d="M603.5 558.5L607.5 554.5L603.5 550.5" stroke="black" stroke-width="2" stroke-linecap="round" stroke-linejoin="round"/>
<path d="M607.5 554.5H591.5" stroke="black" stroke-width="2" stroke-linecap="round" stroke-linejoin="round"/>
</g>
<rect x="621.5" y="524.5" width="82" height="50" rx="5" fill="black" fill-opacity="0.1"/>
<path d="M-158 498C-158 494.686 -155.314 492 -152 492H113C116.314 492 119 494.686 119 498V601C119 604.314 116.314 607 113 607H-152C-155.314 607 -158 604.314 -158 601V498Z" fill="black" fill-opacity="0.05"/>
<rect x="2.5" y="524.5" width="82" height="50" rx="5" fill="black" fill-opacity="0.1"/>
<path d="M143 636C143 632.686 145.686 630 149 630H414C417.314 630 420 632.686 420 636V739C420 742.314 417.314 745 414 745H149C145.686 745 143 742.314 143 739V636Z" fill="black" fill-opacity="0.05"/>
<path d="M-158 636C-158 632.686 -155.314 630 -152 630H113C116.314 630 119 632.686 119 636V739C119 742.314 116.314 745 113 745H-152C-155.314 745 -158 742.314 -158 739V636Z" fill="black" fill-opacity="0.05"/>
<path d="M461 636C461 632.686 463.686 630 467 630H732C735.314 630 738 632.686 738 636V739C738 742.314 735.314 745 732 745H467C463.686 745 461 742.314 461 739V636Z" fill="black" fill-opacity="0.05"/>
<path d="M779 360C779 356.686 781.686 354 785 354H1050C1053.31 354 1056 356.686 1056 360V463C1056 466.314 1053.31 469 1050 469H785C781.686 469 779 466.314 779 463V360Z" fill="black" fill-opacity="0.05"/>
<rect x="813.5" y="386.5" width="82" height="50" rx="5" fill="black" fill-opacity="0.1"/>
<g opacity="0.3">
<path d="M913.5 402.5L909.5 406.5L913.5 410.5" stroke="black" stroke-width="2" stroke-linecap="round" stroke-linejoin="round"/>
<path d="M909.5 406.5H925.5" stroke="black" stroke-width="2" stroke-linecap="round" stroke-linejoin="round"/>
<path d="M921.5 420.5L925.5 416.5L921.5 412.5" stroke="black" stroke-width="2" stroke-linecap="round" stroke-linejoin="round"/>
<path d="M925.5 416.5H909.5" stroke="black" stroke-width="2" stroke-linecap="round" stroke-linejoin="round"/>
</g>
<rect x="939.5" y="386.5" width="82" height="50" rx="5" fill="black" fill-opacity="0.1"/>
<path d="M1081 360C1081 356.686 1083.69 354 1087 354H1352C1355.31 354 1358 356.686 1358 360V463C1358 466.314 1355.31 469 1352 469H1087C1083.69 469 1081 466.314 1081 463V360Z" fill="black" fill-opacity="0.05"/>
<rect x="1115.5" y="386.5" width="82" height="50" rx="5" fill="black" fill-opacity="0.1"/>
<path d="M779 498C779 494.686 781.686 492 785 492H1050C1053.31 492 1056 494.686 1056 498V601C1056 604.314 1053.31 607 1050 607H785C781.686 607 779 604.314 779 601V498Z" fill="black" fill-opacity="0.05"/>
<rect x="813.5" y="524.5" width="82" height="50" rx="5" fill="black" fill-opacity="0.1"/>
<g opacity="0.3">
<path d="M913.5 540.5L909.5 544.5L913.5 548.5" stroke="black" stroke-width="2" stroke-linecap="round" stroke-linejoin="round"/>
<path d="M909.5 544.5H925.5" stroke="black" stroke-width="2" stroke-linecap="round" stroke-linejoin="round"/>
<path d="M921.5 558.5L925.5 554.5L921.5 550.5" stroke="black" stroke-width="2" stroke-linecap="round" stroke-linejoin="round"/>
<path d="M925.5 554.5H909.5" stroke="black" stroke-width="2" stroke-linecap="round" stroke-linejoin="round"/>
</g>
<rect x="939.5" y="524.5" width="82" height="50" rx="5" fill="black" fill-opacity="0.1"/>
<path d="M1081 498C1081 494.686 1083.69 492 1087 492H1352C1355.31 492 1358 494.686 1358 498V601C1358 604.314 1355.31 607 1352 607H1087C1083.69 607 1081 604.314 1081 601V498Z" fill="black" fill-opacity="0.05"/>
<rect x="1115.5" y="524.5" width="82" height="50" rx="5" fill="black" fill-opacity="0.1"/>
<path d="M779 636C779 632.686 781.686 630 785 630H1050C1053.31 630 1056 632.686 1056 636V739C1056 742.314 1053.31 745 1050 745H785C781.686 745 779 742.314 779 739V636Z" fill="black" fill-opacity="0.05"/>
<path d="M1081 636C1081 632.686 1083.69 630 1087 630H1352C1355.31 630 1358 632.686 1358 636V739C1358 742.314 1355.31 745 1352 745H1087C1083.69 745 1081 742.314 1081 739V636Z" fill="black" fill-opacity="0.05"/>
<path d="M413.012 113V114H415C415.68 114 416.326 114.135 416.914 114.379L417.296 113.456C418.762 114.064 419.935 115.237 420.543 116.703L419.621 117.086C419.865 117.674 420 118.32 420 119V120.967H421V124.9H420V128.833H421V132.767H420V136.7H421V140.634H420V144.566H421V148.5H420V152.434H421V156.366H420V160.3H421V164.233H420V168.167H421V172.1H420V176.033H421V179.967H420V183.9H421V187.833H420V191.767H421V195.7H420V199.634H421V203.566H420V207.5H421V211.434H420V215.366H421V219.3H420V223.233H421V227.167H420V231.1H421V235.033H420V237C420 237.68 419.865 238.326 419.621 238.914L420.543 239.296C419.935 240.763 418.763 241.935 417.296 242.543L416.914 241.621C416.326 241.865 415.68 242 415 242H413.012V243H409.035V242H405.059V243H401.082V242H397.105V243H393.129V242H389.152V243H385.176V242H381.199V243H377.223V242H373.246V243H369.27V242H365.293V243H361.316V242H357.34V243H353.363V242H349.387V243H345.41V242H341.434V243H337.457V242H333.48V243H329.504V242H325.527V243H321.551V242H317.574V243H313.598V242H309.621V243H305.645V242H301.668V243H297.691V242H293.715V243H289.738V242H285.762V243H281.785V242H277.809V243H273.832V242H269.855V243H265.879V242H261.902V243H257.926V242H253.949V243H249.973V242H245.996V243H242.02V242H238.043V243H234.066V242H230.09V243H226.113V242H222.137V243H218.16V242H214.184V243H210.207V242H206.23V243H202.254V242H198.277V243H194.301V242H190.324V243H186.348V242H182.371V243H178.395V242H174.418V243H170.441V242H166.465V243H162.488V242H158.512V243H154.535V242H150.559V243H146.582V242H142.605V243H138.629V242H134.652V243H130.676V242H126.699V243H122.723V242H118.746V243H114.77V242H110.793V243H106.816V242H102.84V243H98.8633V242H94.8867V243H90.9102V242H86.9336V243H82.957V242H78.9805V243H75.0039V242H71.0273V243H67.0508V242H63.0742V243H59.0977V242H55.1211V243H51.1445V242H47.168V243H43.1914V242H39.2148V243H35.2383V242H31.2617V243H27.2852V242H23.3086V243H19.332V242H15.3555V243H11.3789V242H7.40234V243H3.42578V242H-0.550781V243H-4.52734V242H-8.50391V243H-12.4805V242H-16.457V243H-20.4336V242H-24.4102V243H-28.3867V242H-32.3633V243H-36.3398V242H-40.3164V243H-44.293V242H-48.2695V243H-52.2461V242H-56.2227V243H-60.1992V242H-64.1758V243H-68.1523V242H-72.1289V243H-76.1055V242H-80.082V243H-84.0586V242H-88.0352V243H-92.0117V242H-94C-94.6798 242 -95.3259 241.865 -95.9141 241.621L-96.2969 242.543C-97.7633 241.935 -98.9359 240.762 -99.5439 239.296L-98.6211 238.914C-98.865 238.326 -99 237.68 -99 237V235.033H-100V231.1H-99V227.167H-100V223.233H-99V219.3H-100V215.366H-99V211.434H-100V207.5H-99V203.566H-100V199.634H-99V195.7H-100V191.767H-99V187.833H-100V183.9H-99V179.967H-100V176.033H-99V172.1H-100V168.167H-99V164.233H-100V160.3H-99V156.366H-100V152.434H-99V148.5H-100V144.566H-99V140.634H-100V136.7H-99V132.767H-100V128.833H-99V124.9H-100V120.967H-99V119C-99 118.32 -98.865 117.674 -98.6211 117.086L-99.5439 116.703C-98.9358 115.237 -97.7632 114.064 -96.2969 113.456L-95.9141 114.379C-95.3259 114.135 -94.6798 114 -94 114H-92.0117V113H-88.0352V114H-84.0586V113H-80.082V114H-76.1055V113H-72.1289V114H-68.1523V113H-64.1758V114H-60.1992V113H-56.2227V114H-52.2461V113H-48.2695V114H-44.293V113H-40.3164V114H-36.3398V113H-32.3633V114H-28.3867V113H-24.4102V114H-20.4336V113H-16.457V114H-12.4805V113H-8.50391V114H-4.52734V113H-0.550781V114H3.42578V113H7.40234V114H11.3789V113H15.3555V114H19.332V113H23.3086V114H27.2852V113H31.2617V114H35.2383V113H39.2148V114H43.1914V113H47.168V114H51.1445V113H55.1211V114H59.0977V113H63.0742V114H67.0508V113H71.0273V114H75.0039V113H78.9805V114H82.957V113H86.9336V114H90.9102V113H94.8867V114H98.8633V113H102.84V114H106.816V113H110.793V114H114.77V113H118.746V114H122.723V113H126.699V114H130.676V113H134.652V114H138.629V113H142.605V114H146.582V113H150.559V114H154.535V113H158.512V114H162.488V113H166.465V114H170.441V113H174.418V114H178.395V113H182.371V114H186.348V113H190.324V114H194.301V113H198.277V114H202.254V113H206.23V114H210.207V113H214.184V114H218.16V113H222.137V114H226.113V113H230.09V114H234.066V113H238.043V114H242.02V113H245.996V114H249.973V113H253.949V114H257.926V113H261.902V114H265.879V113H269.855V114H273.832V113H277.809V114H281.785V113H285.762V114H289.738V113H293.715V114H297.691V113H301.668V114H305.645V113H309.621V114H313.598V113H317.574V114H321.551V113H325.527V114H329.504V113H333.48V114H337.457V113H341.434V114H345.41V113H349.387V114H353.363V113H357.34V114H361.316V113H365.293V114H369.27V113H373.246V114H377.223V113H381.199V114H385.176V113H389.152V114H393.129V113H397.105V114H401.082V113H405.059V114H409.035V113H413.012Z" stroke="black" stroke-opacity="0.2" stroke-width="2" stroke-dasharray="4 4"/>
<path d="M1444 113V114H1446C1446.68 114 1447.33 114.135 1447.91 114.379L1448.3 113.456C1449.76 114.064 1450.93 115.237 1451.54 116.703L1450.62 117.086C1450.86 117.674 1451 118.32 1451 119V120.967H1452V124.9H1451V128.833H1452V132.767H1451V136.7H1452V140.634H1451V144.566H1452V148.5H1451V152.434H1452V156.366H1451V160.3H1452V164.233H1451V168.167H1452V172.1H1451V176.033H1452V179.967H1451V183.9H1452V187.833H1451V191.767H1452V195.7H1451V199.634H1452V203.566H1451V207.5H1452V211.434H1451V215.366H1452V219.3H1451V223.233H1452V227.167H1451V231.1H1452V235.033H1451V237C1451 237.68 1450.86 238.326 1450.62 238.914L1451.54 239.296C1450.93 240.763 1449.76 241.935 1448.3 242.543L1447.91 241.621C1447.33 241.865 1446.68 242 1446 242H1444V243H1440.01V242H1436.01V243H1432.02V242H1428.03V243H1424.03V242H1420.04V243H1416.04V242H1412.05V243H1408.06V242H1404.06V243H1400.07V242H1396.08V243H1392.08V242H1388.09V243H1384.09V242H1380.1V243H1376.11V242H1372.11V243H1368.12V242H1364.12V243H1360.13V242H1356.14V243H1352.14V242H1348.15V243H1344.15V242H1340.16V243H1336.17V242H1332.17V243H1328.18V242H1324.18V243H1320.19V242H1316.2V243H1312.2V242H1308.21V243H1304.21V242H1300.22V243H1296.23V242H1292.23V243H1288.24V242H1284.24V243H1280.25V242H1276.26V243H1272.26V242H1268.27V243H1264.27V242H1260.28V243H1256.29V242H1252.29V243H1248.3V242H1244.3V243H1240.31V242H1236.32V243H1232.32V242H1228.33V243H1224.33V242H1220.34V243H1216.35V242H1212.35V243H1208.36V242H1204.37V243H1200.37V242H1196.38V243H1192.38V242H1188.39V243H1184.39V242H1180.4V243H1176.41V242H1172.41V243H1168.42V242H1164.42V243H1160.43V242H1156.44V243H1152.44V242H1148.45V243H1144.46V242H1140.46V243H1136.47V242H1132.47V243H1128.48V242H1124.49V243H1120.49V242H1116.5V243H1112.5V242H1108.51V243H1104.51V242H1100.52V243H1096.53V242H1092.53V243H1088.54V242H1084.54V243H1080.55V242H1076.56V243H1072.56V242H1068.57V243H1064.58V242H1060.58V243H1056.59V242H1052.59V243H1048.6V242H1044.61V243H1040.61V242H1036.62V243H1032.62V242H1028.63V243H1024.64V242H1020.64V243H1016.65V242H1012.65V243H1008.66V242H1004.67V243H1000.67V242H996.678V243H992.684V242H988.689V243H984.695V242H980.702V243H976.708V242H972.714V243H968.72V242H964.726V243H960.731V242H956.738V243H952.744V242H948.75V243H944.756V242H940.762V243H936.768V242H932.774V243H928.78V242H924.786V243H920.792V242H916.798V243H912.804V242H908.811V243H904.816V242H900.822V243H896.828V242H892.834V243H888.841V242H884.847V243H880.853V242H876.858V243H872.864V242H868.87V243H864.877V242H860.883V243H856.889V242H852.895V243H848.9V242H844.906V243H840.913V242H836.919V243H832.925V242H828.931V243H824.937V242H820.942V243H816.949V242H812.955V243H808.961V242H804.967V243H800.973V242H796.979V243H792.985V242H788.991V243H784.997V242H783C782.32 242 781.674 241.865 781.086 241.621L780.703 242.543C779.237 241.935 778.064 240.762 777.456 239.296L778.379 238.914C778.135 238.326 778 237.68 778 237V235.033H777V231.1H778V227.167H777V223.233H778V219.3H777V215.366H778V211.434H777V207.5H778V203.566H777V199.634H778V195.7H777V191.767H778V187.833H777V183.9H778V179.967H777V176.033H778V172.1H777V168.167H778V164.233H777V160.3H778V156.366H777V152.434H778V148.5H777V144.566H778V140.634H777V136.7H778V132.767H777V128.833H778V124.9H777V120.967H778V119C778 118.32 778.135 117.674 778.379 117.086L777.456 116.703C778.064 115.237 779.237 114.064 780.703 113.456L781.086 114.379C781.674 114.135 782.32 114 783 114H784.997V113H788.991V114H792.985V113H796.979V114H800.973V113H804.967V114H808.961V113H812.955V114H816.949V113H820.942V114H824.937V113H828.931V114H832.925V113H836.919V114H840.912V113H844.906V114H848.9V113H852.895V114H856.889V113H860.882V114H864.876V113H868.87V114H872.864V113H876.858V114H880.852V113H884.846V114H888.84V113H892.834V114H896.828V113H900.822V114H904.815V113H908.81V114H912.804V113H916.798V114H920.792V113H924.785V114H928.779V113H932.773V114H936.768V113H940.762V114H944.756V113H948.749V114H952.743V113H956.737V114H960.731V113H964.726V114H968.72V113H972.713V114H976.707V113H980.701V114H984.695V113H988.689V114H992.684V113H996.678V114H1000.67V113H1004.67V114H1008.66V113H1012.65V114H1016.65V113H1020.64V114H1024.63V113H1028.63V114H1032.62V113H1036.62V114H1040.61V113H1044.61V114H1048.6V113H1052.59V114H1056.59V113H1060.58V114H1064.58V113H1068.57V114H1072.56V113H1076.56V114H1080.55V113H1084.54V114H1088.54V113H1092.53V114H1096.53V113H1100.52V114H1104.51V113H1108.51V114H1112.5V113H1116.5V114H1120.49V113H1124.49V114H1128.48V113H1132.47V114H1136.47V113H1140.46V114H1144.46V113H1148.45V114H1152.44V113H1156.44V114H1160.43V113H1164.42V114H1168.42V113H1172.41V114H1176.41V113H1180.4V114H1184.39V113H1188.39V114H1192.38V113H1196.38V114H1200.37V113H1204.36V114H1208.36V113H1212.35V114H1216.35V113H1220.34V114H1224.33V113H1228.33V114H1232.32V113H1236.32V114H1240.31V113H1244.3V114H1248.3V113H1252.29V114H1256.29V113H1260.28V114H1264.27V113H1268.27V114H1272.26V113H1276.26V114H1280.25V113H1284.24V114H1288.24V113H1292.23V114H1296.23V113H1300.22V114H1304.21V113H1308.21V114H1312.2V113H1316.2V114H1320.19V113H1324.18V114H1328.18V113H1332.17V114H1336.17V113H1340.16V114H1344.15V113H1348.15V114H1352.14V113H1356.14V114H1360.13V113H1364.12V114H1368.12V113H1372.11V114H1376.11V113H1380.1V114H1384.09V113H1388.09V114H1392.08V113H1396.08V114H1400.07V113H1404.06V114H1408.06V113H1412.05V114H1416.04V113H1420.04V114H1424.03V113H1428.03V114H1432.02V113H1436.01V114H1440.01V113H1444Z" stroke="black" stroke-opacity="0.2" stroke-width="2" stroke-dasharray="4 4"/>
<path d="M-135 153C-135 149.686 -132.314 147 -129 147H368C371.314 147 374 149.686 374 153V206C374 209.314 371.314 212 368 212H-129C-132.314 212 -135 209.314 -135 206V153Z" fill="#F0F0F0"/>
<path d="M825 153C825 149.686 827.686 147 831 147H1234C1237.31 147 1240 149.686 1240 153V206C1240 209.314 1237.31 212 1234 212H831C827.686 212 825 209.314 825 206V153Z" fill="#F0F0F0"/>
<path d="M856.428 181.419H852.051V189H849.757V169.976H856.138C859.908 169.976 862.268 172.165 862.268 175.698C862.268 178.189 860.884 180.233 858.722 180.945L862.598 189H859.974L856.428 181.419ZM852.051 172.046V179.455H855.821C858.445 179.455 859.921 178.124 859.921 175.75C859.921 173.391 858.471 172.046 855.927 172.046H852.051ZM878.312 186.864V189H867.08V169.976H878.312V172.112H869.414V178.282H877.825V180.325H869.414V186.864H878.312ZM889.519 187.194C892.05 187.194 893.658 185.678 893.724 183.226H896.071C896.071 186.904 893.408 189.396 889.519 189.396C885.049 189.396 882.452 186.376 882.452 181.182V177.794C882.452 172.6 885.049 169.581 889.519 169.581C893.526 169.581 896.005 172.02 896.084 176.08H893.724C893.645 173.509 891.944 171.782 889.505 171.782C886.434 171.782 884.825 173.852 884.825 177.794V181.182C884.825 185.124 886.434 187.194 889.519 187.194ZM911.693 186.864V189H900.461V169.976H911.693V172.112H902.794V178.282H911.206V180.325H902.794V186.864H911.693ZM927.474 189H917.455V186.93H921.304V172.046H917.455V169.976H927.474V172.046H923.625V186.93H927.474V189ZM939.221 186.205L944.178 169.976H946.524L940.394 189H937.916L931.785 169.976H934.224L939.155 186.205H939.221ZM961.765 186.864V189H950.532V169.976H961.765V172.112H952.866V178.282H961.277V180.325H952.866V186.864H961.765Z" fill="black" fill-opacity="0.5"/>
<path d="M989.226 187.194C991.995 187.194 993.603 185.375 993.603 182.25V169.976H995.923V182.395C995.923 186.772 993.418 189.396 989.226 189.396C985.034 189.396 982.529 186.772 982.529 182.395V169.976H984.849V182.25C984.849 185.375 986.458 187.194 989.226 187.194ZM999.404 183.938H1001.67C1001.91 186.021 1003.58 187.286 1006.11 187.286C1008.65 187.286 1010.31 185.968 1010.31 183.924C1010.31 182.276 1009.2 181.288 1006.63 180.655L1004.99 180.246C1001.46 179.35 999.865 177.675 999.865 174.92C999.865 171.677 1002.3 169.581 1006.1 169.581C1009.69 169.581 1012.15 171.65 1012.31 174.814H1010.04C1009.81 172.85 1008.36 171.69 1006.11 171.69C1003.68 171.69 1002.21 172.85 1002.21 174.788C1002.21 176.436 1003.27 177.385 1005.75 178.005L1007.41 178.427C1011.1 179.336 1012.65 180.945 1012.65 183.806C1012.65 187.22 1010.08 189.396 1006.1 189.396C1002.17 189.396 999.602 187.312 999.404 183.938ZM1016.37 169.976H1021.7C1027.09 169.976 1029.81 173.153 1029.81 179.455C1029.81 185.81 1027.09 189 1021.7 189H1016.37V169.976ZM1018.7 172.112V186.864H1021.49C1025.52 186.864 1027.43 184.504 1027.43 179.468C1027.43 174.485 1025.51 172.112 1021.49 172.112H1018.7ZM1039.65 189H1033.43V169.976H1039.59C1043.09 169.976 1045.2 171.729 1045.2 174.683C1045.2 176.779 1043.85 178.506 1041.93 178.835V179.033C1044.49 179.284 1046.17 181.143 1046.17 183.687C1046.17 187.022 1043.74 189 1039.65 189ZM1035.74 171.98V178.189H1038.7C1041.41 178.189 1042.86 177.095 1042.86 175.091C1042.86 173.101 1041.49 171.98 1039.06 171.98H1035.74ZM1035.74 186.983H1039.15C1042.17 186.983 1043.75 185.796 1043.75 183.529C1043.75 181.288 1042.16 180.127 1039.07 180.127H1035.74V186.983Z" fill="black"/>
<path d="M203.226 183.938H205.493C205.73 186.021 207.405 187.286 209.936 187.286C212.467 187.286 214.128 185.968 214.128 183.924C214.128 182.276 213.021 181.288 210.45 180.655L208.815 180.246C205.282 179.35 203.687 177.675 203.687 174.92C203.687 171.677 206.126 169.581 209.923 169.581C213.509 169.581 215.974 171.65 216.132 174.814H213.865C213.627 172.85 212.177 171.69 209.936 171.69C207.497 171.69 206.034 172.85 206.034 174.788C206.034 176.436 207.088 177.385 209.567 178.005L211.228 178.427C214.919 179.336 216.475 180.945 216.475 183.806C216.475 187.22 213.904 189.396 209.923 189.396C205.994 189.396 203.423 187.312 203.226 183.938ZM232.348 186.864V189H221.116V169.976H232.348V172.112H223.449V178.282H231.86V180.325H223.449V186.864H232.348ZM238.887 189H236.791V169.976H239.019L247.167 184.781H247.351V169.976H249.447V189H247.246L239.072 174.155H238.887V189ZM253.574 169.976H258.9C264.292 169.976 267.008 173.153 267.008 179.455C267.008 185.81 264.292 189 258.9 189H253.574V169.976ZM255.907 172.112V186.864H258.689C262.723 186.864 264.635 184.504 264.635 179.468C264.635 174.485 262.71 172.112 258.689 172.112H255.907Z" fill="black" fill-opacity="0.5"/>
<path d="M293.19 187.194C295.959 187.194 297.567 185.375 297.567 182.25V169.976H299.888V182.395C299.888 186.772 297.383 189.396 293.19 189.396C288.998 189.396 286.493 186.772 286.493 182.395V169.976H288.813V182.25C288.813 185.375 290.422 187.194 293.19 187.194ZM303.368 183.938H305.636C305.873 186.021 307.547 187.286 310.079 187.286C312.61 187.286 314.271 185.968 314.271 183.924C314.271 182.276 313.164 181.288 310.593 180.655L308.958 180.246C305.425 179.35 303.83 177.675 303.83 174.92C303.83 171.677 306.269 169.581 310.065 169.581C313.651 169.581 316.117 171.65 316.275 174.814H314.007C313.77 172.85 312.32 171.69 310.079 171.69C307.64 171.69 306.176 172.85 306.176 174.788C306.176 176.436 307.231 177.385 309.709 178.005L311.371 178.427C315.062 179.336 316.618 180.945 316.618 183.806C316.618 187.22 314.047 189.396 310.065 189.396C306.137 189.396 303.566 187.312 303.368 183.938ZM320.335 169.976H325.662C331.054 169.976 333.77 173.153 333.77 179.455C333.77 185.81 331.054 189 325.662 189H320.335V169.976ZM322.669 172.112V186.864H325.451C329.485 186.864 331.396 184.504 331.396 179.468C331.396 174.485 329.472 172.112 325.451 172.112H322.669ZM348.179 189L346.531 183.542H339.913L338.252 189H335.892L342.022 169.976H344.501L350.631 189H348.179ZM343.196 172.771L340.52 181.551H345.925L343.262 172.771H343.196Z" fill="black"/>
<path d="M461 360C461 356.686 463.686 354 467 354H732C735.314 354 738 356.686 738 360V463C738 466.314 735.314 469 732 469H467C463.686 469 461 466.314 461 463V360Z" fill="black"/>
<path d="M495.5 392.5C495.5 389.186 498.186 386.5 501.5 386.5H571.5C574.814 386.5 577.5 389.186 577.5 392.5V430.5C577.5 433.814 574.814 436.5 571.5 436.5H501.5C498.186 436.5 495.5 433.814 495.5 430.5V392.5Z" fill="white" fill-opacity="0.3"/>
<path d="M513.227 418.828C515.791 418.828 517.28 417.143 517.28 414.25V402.885H519.428V414.384C519.428 418.437 517.109 420.866 513.227 420.866C509.345 420.866 507.026 418.437 507.026 414.384V402.885H509.174V414.25C509.174 417.143 510.664 418.828 513.227 418.828ZM522.651 415.812H524.75C524.97 417.741 526.521 418.913 528.864 418.913C531.208 418.913 532.746 417.692 532.746 415.8C532.746 414.274 531.721 413.359 529.34 412.773L527.827 412.395C524.555 411.564 523.078 410.014 523.078 407.463C523.078 404.46 525.336 402.519 528.852 402.519C532.172 402.519 534.455 404.436 534.602 407.365H532.502C532.282 405.546 530.939 404.472 528.864 404.472C526.606 404.472 525.251 405.546 525.251 407.341C525.251 408.867 526.228 409.746 528.522 410.319L530.061 410.71C533.479 411.552 534.919 413.042 534.919 415.69C534.919 418.852 532.539 420.866 528.852 420.866C525.214 420.866 522.834 418.938 522.651 415.812ZM538.361 402.885H543.293C548.286 402.885 550.8 405.827 550.8 411.662C550.8 417.546 548.286 420.5 543.293 420.5H538.361V402.885ZM540.522 404.863V418.522H543.098C546.833 418.522 548.603 416.337 548.603 411.674C548.603 407.06 546.821 404.863 543.098 404.863H540.522ZM564.143 420.5L562.617 415.446H556.489L554.951 420.5H552.766L558.442 402.885H560.737L566.413 420.5H564.143ZM559.528 405.473L557.05 413.603H562.055L559.589 405.473H559.528Z" fill="white"/>
<path d="M595.5 402.5L591.5 406.5L595.5 410.5" stroke="white" stroke-width="2" stroke-linecap="round" stroke-linejoin="round"/>
<path d="M591.5 406.5H607.5" stroke="white" stroke-width="2" stroke-linecap="round" stroke-linejoin="round"/>
<path d="M603.5 420.5L607.5 416.5L603.5 412.5" stroke="white" stroke-width="2" stroke-linecap="round" stroke-linejoin="round"/>
<path d="M607.5 416.5H591.5" stroke="white" stroke-width="2" stroke-linecap="round" stroke-linejoin="round"/>
<path d="M621.5 392.5C621.5 389.186 624.186 386.5 627.5 386.5H697.5C700.814 386.5 703.5 389.186 703.5 392.5V430.5C703.5 433.814 700.814 436.5 697.5 436.5H627.5C624.186 436.5 621.5 433.814 621.5 430.5V392.5Z" fill="white" fill-opacity="0.3"/>
<path d="M639.227 418.828C641.791 418.828 643.28 417.143 643.28 414.25V402.885H645.428V414.384C645.428 418.437 643.109 420.866 639.227 420.866C635.345 420.866 633.026 418.437 633.026 414.384V402.885H635.174V414.25C635.174 417.143 636.664 418.828 639.227 418.828ZM648.651 415.812H650.75C650.97 417.741 652.521 418.913 654.864 418.913C657.208 418.913 658.746 417.692 658.746 415.8C658.746 414.274 657.721 413.359 655.34 412.773L653.827 412.395C650.555 411.564 649.078 410.014 649.078 407.463C649.078 404.46 651.336 402.519 654.852 402.519C658.172 402.519 660.455 404.436 660.602 407.365H658.502C658.282 405.546 656.939 404.472 654.864 404.472C652.606 404.472 651.251 405.546 651.251 407.341C651.251 408.867 652.228 409.746 654.522 410.319L656.061 410.71C659.479 411.552 660.919 413.042 660.919 415.69C660.919 418.852 658.539 420.866 654.852 420.866C651.214 420.866 648.834 418.938 648.651 415.812ZM664.361 402.885H669.293C674.286 402.885 676.8 405.827 676.8 411.662C676.8 417.546 674.286 420.5 669.293 420.5H664.361V402.885ZM666.522 404.863V418.522H669.098C672.833 418.522 674.603 416.337 674.603 411.674C674.603 407.06 672.821 404.863 669.098 404.863H666.522ZM685.919 420.5H680.157V402.885H685.858C689.105 402.885 691.058 404.509 691.058 407.243C691.058 409.184 689.801 410.783 688.031 411.088V411.271C690.399 411.503 691.949 413.225 691.949 415.581C691.949 418.669 689.703 420.5 685.919 420.5ZM682.293 404.741V410.49H685.04C687.542 410.49 688.885 409.477 688.885 407.622C688.885 405.778 687.616 404.741 685.37 404.741H682.293ZM682.293 418.632H685.455C688.25 418.632 689.715 417.534 689.715 415.434C689.715 413.359 688.238 412.285 685.382 412.285H682.293V418.632Z" fill="white"/>
<rect width="1200" height="105" transform="matrix(1 0 0 -1 0 675)" fill="url(#paint1_linear_2134_301)"/>
<rect x="1200" y="-263" width="1200" height="178" transform="rotate(90 1200 -263)" fill="url(#paint2_linear_2134_301)"/>
<rect width="1200" height="178" transform="matrix(4.37114e-08 1 1 -4.37114e-08 0 -263)" fill="url(#paint3_linear_2134_301)"/>
</g>
<defs>
<linearGradient id="paint0_linear_2134_301" x1="600" y1="0" x2="600" y2="105" gradientUnits="userSpaceOnUse">
<stop stop-color="white"/>
<stop offset="1" stop-color="white" stop-opacity="0"/>
</linearGradient>
<linearGradient id="paint1_linear_2134_301" x1="600" y1="0" x2="600" y2="105" gradientUnits="userSpaceOnUse">
<stop stop-color="white"/>
<stop offset="1" stop-color="white" stop-opacity="0"/>
</linearGradient>
<linearGradient id="paint2_linear_2134_301" x1="1800" y1="-263" x2="1800" y2="-85" gradientUnits="userSpaceOnUse">
<stop stop-color="white"/>
<stop offset="1" stop-color="white" stop-opacity="0"/>
</linearGradient>
<linearGradient id="paint3_linear_2134_301" x1="600" y1="0" x2="600" y2="178" gradientUnits="userSpaceOnUse">
<stop stop-color="white"/>
<stop offset="1" stop-color="white" stop-opacity="0"/>
</linearGradient>
<clipPath id="clip0_2134_301">
<rect width="1200" height="675" fill="white"/>
</clipPath>
</defs>
</svg>
