<svg width="1200" height="675" viewBox="0 0 1200 675" fill="none" xmlns="http://www.w3.org/2000/svg">
<g clip-path="url(#clip0_515_21890)">
<rect width="1200" height="675" fill="white"/>
<rect x="67" y="94" width="331.297" height="690" rx="27" fill="#F3F3F3"/>
<rect x="433.852" y="94" width="331.297" height="690" rx="27" fill="#F3F3F3"/>
<rect x="800.703" y="94" width="331.297" height="690" rx="27" fill="#2386DD" fill-opacity="0.1"/>
<path opacity="0.5" d="M118.322 195.111V159.611H131.072C135.339 159.611 138.556 160.378 140.722 161.911C142.889 163.444 143.972 165.878 143.972 169.211C143.972 170.711 143.656 172.028 143.022 173.161C142.389 174.294 141.456 175.194 140.222 175.861C139.022 176.494 137.589 176.828 135.922 176.861L135.872 176.661C138.906 176.728 141.256 177.561 142.922 179.161C144.622 180.728 145.472 182.794 145.472 185.361C145.472 188.594 144.389 191.028 142.222 192.661C140.056 194.294 136.972 195.111 132.972 195.111H118.322ZM123.722 190.261H132.822C135.056 190.261 136.789 189.811 138.022 188.911C139.289 187.978 139.922 186.628 139.922 184.861C139.922 183.128 139.289 181.778 138.022 180.811C136.789 179.844 135.056 179.361 132.822 179.361H123.722V190.261ZM123.722 174.761H130.972C133.339 174.761 135.172 174.311 136.472 173.411C137.772 172.511 138.422 171.244 138.422 169.611C138.422 167.878 137.789 166.594 136.522 165.761C135.289 164.894 133.439 164.461 130.972 164.461H123.722V174.761ZM159.256 195.711C156.489 195.711 154.272 195.078 152.606 193.811C150.972 192.544 150.156 190.761 150.156 188.461C150.156 186.161 150.839 184.378 152.206 183.111C153.606 181.811 155.756 180.878 158.656 180.311L167.806 178.561C167.806 176.494 167.322 174.961 166.356 173.961C165.389 172.928 163.956 172.411 162.056 172.411C160.356 172.411 159.022 172.794 158.056 173.561C157.089 174.294 156.422 175.394 156.056 176.861L150.606 176.511C151.106 173.844 152.339 171.744 154.306 170.211C156.306 168.678 158.889 167.911 162.056 167.911C165.656 167.911 168.389 168.878 170.256 170.811C172.156 172.711 173.106 175.394 173.106 178.861V189.211C173.106 189.844 173.206 190.294 173.406 190.561C173.639 190.794 174.006 190.911 174.506 190.911H175.456V195.111C175.289 195.144 175.022 195.178 174.656 195.211C174.289 195.244 173.906 195.261 173.506 195.261C172.372 195.261 171.389 195.078 170.556 194.711C169.756 194.344 169.156 193.744 168.756 192.911C168.356 192.044 168.156 190.894 168.156 189.461L168.706 189.711C168.439 190.878 167.856 191.911 166.956 192.811C166.089 193.711 164.972 194.428 163.606 194.961C162.272 195.461 160.822 195.711 159.256 195.711ZM160.106 191.511C161.706 191.511 163.072 191.211 164.206 190.611C165.339 189.978 166.222 189.111 166.856 188.011C167.489 186.911 167.806 185.661 167.806 184.261V182.561L160.006 184.061C158.406 184.361 157.272 184.844 156.606 185.511C155.972 186.144 155.656 186.961 155.656 187.961C155.656 189.094 156.039 189.978 156.806 190.611C157.606 191.211 158.706 191.511 160.106 191.511ZM189.985 195.711C187.485 195.711 185.369 195.328 183.635 194.561C181.935 193.794 180.619 192.744 179.685 191.411C178.752 190.044 178.219 188.478 178.085 186.711L183.535 186.461C183.802 187.928 184.435 189.094 185.435 189.961C186.435 190.828 187.952 191.261 189.985 191.261C191.652 191.261 192.969 190.994 193.935 190.461C194.902 189.928 195.385 189.078 195.385 187.911C195.385 187.278 195.219 186.744 194.885 186.311C194.585 185.844 193.985 185.461 193.085 185.161C192.185 184.828 190.852 184.511 189.085 184.211C186.452 183.711 184.385 183.128 182.885 182.461C181.385 181.794 180.319 180.944 179.685 179.911C179.052 178.878 178.735 177.628 178.735 176.161C178.735 173.728 179.635 171.744 181.435 170.211C183.269 168.678 185.902 167.911 189.335 167.911C191.635 167.911 193.569 168.311 195.135 169.111C196.702 169.878 197.919 170.928 198.785 172.261C199.685 173.561 200.252 175.028 200.485 176.661L195.035 176.961C194.869 176.028 194.535 175.228 194.035 174.561C193.569 173.861 192.935 173.328 192.135 172.961C191.335 172.561 190.385 172.361 189.285 172.361C187.585 172.361 186.319 172.694 185.485 173.361C184.652 174.028 184.235 174.894 184.235 175.961C184.235 176.761 184.419 177.411 184.785 177.911C185.185 178.411 185.819 178.828 186.685 179.161C187.552 179.461 188.702 179.728 190.135 179.961C192.902 180.428 195.069 181.011 196.635 181.711C198.202 182.378 199.302 183.211 199.935 184.211C200.569 185.211 200.885 186.428 200.885 187.861C200.885 189.528 200.419 190.944 199.485 192.111C198.552 193.278 197.269 194.178 195.635 194.811C194.002 195.411 192.119 195.711 189.985 195.711ZM206.249 195.111V168.511H211.549V195.111H206.249ZM206.149 164.661V159.361H211.649V164.661H206.149ZM229.504 195.711C226.97 195.711 224.754 195.144 222.854 194.011C220.954 192.878 219.487 191.261 218.454 189.161C217.42 187.061 216.904 184.611 216.904 181.811C216.904 179.011 217.42 176.578 218.454 174.511C219.487 172.411 220.954 170.794 222.854 169.661C224.754 168.494 226.97 167.911 229.504 167.911C231.67 167.911 233.587 168.294 235.254 169.061C236.954 169.794 238.32 170.878 239.354 172.311C240.42 173.744 241.104 175.494 241.404 177.561L235.854 177.861C235.587 176.128 234.887 174.811 233.754 173.911C232.62 172.978 231.204 172.511 229.504 172.511C227.27 172.511 225.52 173.344 224.254 175.011C223.02 176.644 222.404 178.911 222.404 181.811C222.404 184.711 223.02 186.994 224.254 188.661C225.52 190.294 227.27 191.111 229.504 191.111C231.204 191.111 232.62 190.644 233.754 189.711C234.887 188.744 235.587 187.294 235.854 185.361L241.404 185.661C241.104 187.694 240.42 189.461 239.354 190.961C238.32 192.461 236.954 193.628 235.254 194.461C233.587 195.294 231.67 195.711 229.504 195.711Z" fill="black"/>
<path opacity="0.5" d="M485.554 195.111V159.611H498.804C502.871 159.611 506.037 160.594 508.304 162.561C510.571 164.494 511.704 167.194 511.704 170.661C511.704 172.961 511.187 174.961 510.154 176.661C509.121 178.328 507.637 179.611 505.704 180.511C503.804 181.378 501.504 181.811 498.804 181.811H490.954V195.111H485.554ZM490.954 176.911H498.654C501.087 176.911 502.937 176.394 504.204 175.361C505.471 174.294 506.104 172.728 506.104 170.661C506.104 168.628 505.471 167.111 504.204 166.111C502.937 165.078 501.087 164.561 498.654 164.561H490.954V176.911ZM517.426 195.111V168.511H522.276L522.476 175.561L522.026 175.411C522.392 173.011 523.126 171.261 524.226 170.161C525.359 169.061 526.876 168.511 528.776 168.511H531.326V173.261H528.776C527.442 173.261 526.326 173.478 525.426 173.911C524.526 174.344 523.842 175.011 523.376 175.911C522.942 176.811 522.726 177.978 522.726 179.411V195.111H517.426ZM546.052 195.711C543.518 195.711 541.302 195.144 539.402 194.011C537.502 192.878 536.035 191.261 535.002 189.161C533.968 187.061 533.452 184.611 533.452 181.811C533.452 178.978 533.968 176.528 535.002 174.461C536.035 172.394 537.502 170.794 539.402 169.661C541.302 168.494 543.518 167.911 546.052 167.911C548.585 167.911 550.802 168.494 552.702 169.661C554.602 170.794 556.068 172.394 557.102 174.461C558.135 176.528 558.652 178.978 558.652 181.811C558.652 184.611 558.135 187.061 557.102 189.161C556.068 191.261 554.602 192.878 552.702 194.011C550.802 195.144 548.585 195.711 546.052 195.711ZM546.052 191.111C548.318 191.111 550.068 190.294 551.302 188.661C552.535 186.994 553.152 184.711 553.152 181.811C553.152 178.911 552.535 176.644 551.302 175.011C550.068 173.344 548.318 172.511 546.052 172.511C543.818 172.511 542.068 173.344 540.802 175.011C539.568 176.644 538.952 178.911 538.952 181.811C538.952 184.711 539.568 186.994 540.802 188.661C542.068 190.294 543.818 191.111 546.052 191.111Z" fill="black"/>
<path d="M850.516 195V159.5H863.766C867.832 159.5 870.999 160.483 873.266 162.45C875.532 164.383 876.666 167.083 876.666 170.55C876.666 172.85 876.149 174.85 875.116 176.55C874.082 178.217 872.599 179.5 870.666 180.4C868.766 181.267 866.466 181.7 863.766 181.7H855.916V195H850.516ZM855.916 176.8H863.616C866.049 176.8 867.899 176.283 869.166 175.25C870.432 174.183 871.066 172.617 871.066 170.55C871.066 168.517 870.432 167 869.166 166C867.899 164.967 866.049 164.45 863.616 164.45H855.916V176.8ZM882.388 195V168.4H887.238L887.438 175.45L886.988 175.3C887.354 172.9 888.088 171.15 889.188 170.05C890.321 168.95 891.838 168.4 893.738 168.4H896.288V173.15H893.738C892.404 173.15 891.288 173.367 890.388 173.8C889.488 174.233 888.804 174.9 888.338 175.8C887.904 176.7 887.688 177.867 887.688 179.3V195H882.388ZM911.013 195.6C908.413 195.6 906.163 195.033 904.263 193.9C902.397 192.767 900.947 191.15 899.913 189.05C898.913 186.95 898.413 184.5 898.413 181.7C898.413 178.9 898.913 176.467 899.913 174.4C900.947 172.3 902.397 170.683 904.263 169.55C906.13 168.383 908.33 167.8 910.863 167.8C913.263 167.8 915.38 168.367 917.213 169.5C919.047 170.6 920.463 172.2 921.463 174.3C922.497 176.4 923.013 178.933 923.013 181.9V183.25H903.913C904.047 185.85 904.73 187.8 905.963 189.1C907.23 190.4 908.93 191.05 911.063 191.05C912.63 191.05 913.93 190.683 914.963 189.95C915.997 189.217 916.713 188.233 917.113 187L922.613 187.35C921.913 189.817 920.53 191.817 918.463 193.35C916.43 194.85 913.947 195.6 911.013 195.6ZM903.913 179.25H917.413C917.247 176.883 916.563 175.133 915.363 174C914.197 172.867 912.697 172.3 910.863 172.3C908.963 172.3 907.397 172.9 906.163 174.1C904.963 175.267 904.213 176.983 903.913 179.25ZM928.384 195V168.4H933.234L933.384 175L932.784 174.8C933.084 173.333 933.6 172.083 934.334 171.05C935.1 170.017 936.034 169.217 937.134 168.65C938.234 168.083 939.434 167.8 940.734 167.8C943 167.8 944.85 168.45 946.284 169.75C947.717 171.017 948.617 172.767 948.984 175H948.134C948.434 173.433 948.934 172.133 949.634 171.1C950.367 170.033 951.3 169.217 952.434 168.65C953.567 168.083 954.85 167.8 956.284 167.8C958.15 167.8 959.734 168.2 961.034 169C962.367 169.767 963.367 170.9 964.034 172.4C964.734 173.9 965.084 175.733 965.084 177.9V195H959.784V179.2C959.784 176.9 959.367 175.167 958.534 174C957.7 172.833 956.434 172.25 954.734 172.25C953.634 172.25 952.667 172.533 951.834 173.1C951 173.667 950.35 174.483 949.884 175.55C949.45 176.617 949.234 177.9 949.234 179.4V195H944.184V179.4C944.184 177.133 943.8 175.383 943.034 174.15C942.3 172.883 941.034 172.25 939.234 172.25C938.1 172.25 937.117 172.533 936.284 173.1C935.484 173.667 934.85 174.5 934.384 175.6C933.917 176.667 933.684 177.933 933.684 179.4V195H928.384ZM972.134 195V168.4H977.434V195H972.134ZM972.034 164.55V159.25H977.534V164.55H972.034ZM992.749 195.6C990.082 195.6 987.949 194.717 986.349 192.95C984.782 191.15 983.999 188.667 983.999 185.5V168.4H989.299V184.15C989.299 186.55 989.716 188.317 990.549 189.45C991.382 190.583 992.649 191.15 994.349 191.15C996.282 191.15 997.782 190.533 998.849 189.3C999.949 188.033 1000.5 186.267 1000.5 184V168.4H1005.8V195H1000.85L1000.75 188.05L1001.5 188.35C1001.03 190.683 1000.05 192.483 998.549 193.75C997.049 194.983 995.116 195.6 992.749 195.6ZM1013.3 195V168.4H1018.15L1018.3 175L1017.7 174.8C1018 173.333 1018.51 172.083 1019.25 171.05C1020.01 170.017 1020.95 169.217 1022.05 168.65C1023.15 168.083 1024.35 167.8 1025.65 167.8C1027.91 167.8 1029.76 168.45 1031.2 169.75C1032.63 171.017 1033.53 172.767 1033.9 175H1033.05C1033.35 173.433 1033.85 172.133 1034.55 171.1C1035.28 170.033 1036.21 169.217 1037.35 168.65C1038.48 168.083 1039.76 167.8 1041.2 167.8C1043.06 167.8 1044.65 168.2 1045.95 169C1047.28 169.767 1048.28 170.9 1048.95 172.4C1049.65 173.9 1050 175.733 1050 177.9V195H1044.7V179.2C1044.7 176.9 1044.28 175.167 1043.45 174C1042.61 172.833 1041.35 172.25 1039.65 172.25C1038.55 172.25 1037.58 172.533 1036.75 173.1C1035.91 173.667 1035.26 174.483 1034.8 175.55C1034.36 176.617 1034.15 177.9 1034.15 179.4V195H1029.1V179.4C1029.1 177.133 1028.71 175.383 1027.95 174.15C1027.21 172.883 1025.95 172.25 1024.15 172.25C1023.01 172.25 1022.03 172.533 1021.2 173.1C1020.4 173.667 1019.76 174.5 1019.3 175.6C1018.83 176.667 1018.6 177.933 1018.6 179.4V195H1013.3Z" fill="#2386DD"/>
<rect x="96.0898" y="539.093" width="273.118" height="78.7963" rx="39.3981" fill="white"/>
<path d="M160.357 591.101V565.291H162.503V591.101H160.357ZM161.662 588.955C160.116 588.955 158.762 588.665 157.602 588.085C156.462 587.486 155.553 586.674 154.876 585.649C154.2 584.605 153.803 583.406 153.687 582.053L156.239 581.879C156.375 582.884 156.665 583.735 157.109 584.431C157.573 585.127 158.182 585.659 158.936 586.026C159.71 586.374 160.638 586.548 161.72 586.548C162.668 586.548 163.47 586.432 164.127 586.2C164.804 585.949 165.316 585.591 165.664 585.127C166.012 584.644 166.186 584.064 166.186 583.387C166.186 582.749 166.041 582.188 165.751 581.705C165.461 581.222 164.901 580.777 164.069 580.371C163.238 579.965 162.02 579.569 160.415 579.182C158.869 578.776 157.631 578.341 156.703 577.877C155.775 577.394 155.108 576.814 154.702 576.137C154.316 575.441 154.122 574.59 154.122 573.585C154.122 572.464 154.393 571.478 154.934 570.627C155.476 569.757 156.239 569.08 157.225 568.597C158.231 568.114 159.429 567.872 160.821 567.872C162.291 567.872 163.557 568.152 164.62 568.713C165.684 569.254 166.525 570.008 167.143 570.975C167.781 571.942 168.178 573.044 168.332 574.281L165.751 574.455C165.655 573.643 165.403 572.918 164.997 572.28C164.591 571.642 164.031 571.149 163.315 570.801C162.619 570.434 161.769 570.25 160.763 570.25C159.507 570.25 158.511 570.55 157.776 571.149C157.042 571.748 156.674 572.531 156.674 573.498C156.674 574.117 156.819 574.639 157.109 575.064C157.399 575.47 157.921 575.828 158.675 576.137C159.449 576.446 160.541 576.775 161.952 577.123C163.634 577.548 164.968 578.051 165.954 578.631C166.96 579.192 167.675 579.859 168.1 580.632C168.526 581.386 168.738 582.246 168.738 583.213C168.738 584.373 168.429 585.388 167.81 586.258C167.211 587.109 166.38 587.776 165.316 588.259C164.253 588.723 163.035 588.955 161.662 588.955ZM175.783 588.491V573.237H171.491V571.091H173.231C173.985 571.091 174.584 570.994 175.029 570.801C175.493 570.608 175.821 570.279 176.015 569.815C176.208 569.351 176.305 568.713 176.305 567.901H178.277V588.491H175.783ZM190.508 588.955C189.058 588.955 187.802 588.713 186.738 588.23C185.694 587.747 184.863 587.07 184.244 586.2C183.645 585.33 183.297 584.325 183.2 583.184L185.81 583.01C185.965 584.17 186.458 585.05 187.289 585.649C188.14 586.229 189.213 586.519 190.508 586.519C191.958 586.519 193.109 586.113 193.959 585.301C194.81 584.47 195.235 583.329 195.235 581.879C195.235 580.912 195.042 580.081 194.655 579.385C194.288 578.67 193.747 578.119 193.031 577.732C192.316 577.345 191.456 577.152 190.45 577.152C189.503 577.152 188.643 577.355 187.869 577.761C187.096 578.167 186.545 578.737 186.216 579.472H183.548L184.911 567.901H196.453V570.337H187.202L186.274 577.935L185.81 577.471C186.12 576.872 186.526 576.379 187.028 575.992C187.55 575.586 188.14 575.286 188.797 575.093C189.474 574.88 190.18 574.774 190.914 574.774C192.287 574.774 193.495 575.083 194.539 575.702C195.583 576.301 196.395 577.142 196.975 578.225C197.555 579.288 197.845 580.506 197.845 581.879C197.845 583.252 197.536 584.479 196.917 585.562C196.299 586.625 195.438 587.457 194.336 588.056C193.234 588.655 191.958 588.955 190.508 588.955ZM208.024 591.681L216.579 566.741H218.899L210.344 591.681H208.024ZM230.367 588.491V573.121H232.6L232.687 577.007L232.339 576.891C232.513 576.04 232.813 575.315 233.238 574.716C233.683 574.097 234.224 573.624 234.862 573.295C235.5 572.947 236.206 572.773 236.979 572.773C238.313 572.773 239.396 573.14 240.227 573.875C241.078 574.61 241.61 575.634 241.822 576.949L241.358 576.92C241.513 576.031 241.793 575.286 242.199 574.687C242.625 574.068 243.166 573.595 243.823 573.266C244.481 572.937 245.235 572.773 246.085 572.773C247.187 572.773 248.115 573.005 248.869 573.469C249.623 573.914 250.194 574.571 250.58 575.441C250.967 576.311 251.16 577.365 251.16 578.602V588.491H248.724V579.124C248.724 577.732 248.454 576.688 247.912 575.992C247.371 575.277 246.569 574.919 245.505 574.919C244.79 574.919 244.162 575.093 243.62 575.441C243.098 575.789 242.692 576.292 242.402 576.949C242.112 577.587 241.967 578.37 241.967 579.298V588.491H239.531V579.298C239.531 577.925 239.29 576.852 238.806 576.079C238.323 575.306 237.511 574.919 236.37 574.919C235.655 574.919 235.027 575.093 234.485 575.441C233.963 575.789 233.548 576.292 233.238 576.949C232.948 577.606 232.803 578.389 232.803 579.298V588.491H230.367ZM261.462 588.839C260.051 588.839 258.813 588.51 257.75 587.853C256.687 587.196 255.865 586.268 255.285 585.069C254.705 583.851 254.415 582.43 254.415 580.806C254.415 579.163 254.705 577.742 255.285 576.543C255.865 575.344 256.687 574.416 257.75 573.759C258.813 573.102 260.051 572.773 261.462 572.773C262.873 572.773 264.101 573.102 265.145 573.759C266.208 574.416 267.03 575.344 267.61 576.543C268.19 577.742 268.48 579.163 268.48 580.806C268.48 582.43 268.19 583.851 267.61 585.069C267.03 586.268 266.208 587.196 265.145 587.853C264.101 588.51 262.873 588.839 261.462 588.839ZM261.462 586.519C262.873 586.519 263.966 586.016 264.739 585.011C265.532 583.986 265.928 582.585 265.928 580.806C265.928 579.027 265.532 577.635 264.739 576.63C263.966 575.605 262.873 575.093 261.462 575.093C260.051 575.093 258.949 575.605 258.156 576.63C257.363 577.635 256.967 579.027 256.967 580.806C256.967 582.585 257.363 583.986 258.156 585.011C258.949 586.016 260.051 586.519 261.462 586.519ZM271.8 588.491V573.121H274.033L274.12 577.036L273.83 576.775C274.023 575.866 274.362 575.122 274.845 574.542C275.328 573.943 275.908 573.498 276.585 573.208C277.281 572.918 278.025 572.773 278.818 572.773C279.997 572.773 280.964 573.034 281.718 573.556C282.491 574.078 283.062 574.784 283.429 575.673C283.816 576.543 284.009 577.519 284.009 578.602V588.491H281.573V579.298C281.573 578.351 281.457 577.558 281.225 576.92C281.012 576.263 280.664 575.77 280.181 575.441C279.698 575.093 279.069 574.919 278.296 574.919C277.117 574.919 276.14 575.296 275.367 576.05C274.613 576.785 274.236 577.867 274.236 579.298V588.491H271.8ZM293.115 588.491C291.723 588.491 290.689 588.172 290.012 587.534C289.355 586.896 289.026 585.9 289.026 584.547V569.525H291.462V584.489C291.462 585.185 291.617 585.668 291.926 585.939C292.236 586.21 292.709 586.345 293.347 586.345H295.551V588.491H293.115ZM286.764 575.267V573.121H295.551V575.267H286.764ZM298.676 588.491V567.901H301.112V576.514L300.822 576.456C301.015 575.605 301.344 574.909 301.808 574.368C302.272 573.827 302.842 573.43 303.519 573.179C304.196 572.908 304.94 572.773 305.752 572.773C306.854 572.773 307.782 573.024 308.536 573.527C309.309 574.01 309.889 574.697 310.276 575.586C310.682 576.456 310.885 577.461 310.885 578.602V588.491H308.449V579.298C308.449 577.809 308.178 576.707 307.637 575.992C307.115 575.277 306.313 574.919 305.23 574.919C303.993 574.919 302.997 575.296 302.243 576.05C301.489 576.804 301.112 577.896 301.112 579.327V588.491H298.676Z" fill="black"/>
<rect x="462.941" y="539.093" width="273.118" height="78.7963" rx="39.3981" fill="white"/>
<path d="M523.343 591.101V565.291H525.489V591.101H523.343ZM524.648 588.955C523.101 588.955 521.748 588.665 520.588 588.085C519.447 587.486 518.539 586.674 517.862 585.649C517.185 584.605 516.789 583.406 516.673 582.053L519.225 581.879C519.36 582.884 519.65 583.735 520.095 584.431C520.559 585.127 521.168 585.659 521.922 586.026C522.695 586.374 523.623 586.548 524.706 586.548C525.653 586.548 526.456 586.432 527.113 586.2C527.79 585.949 528.302 585.591 528.65 585.127C528.998 584.644 529.172 584.064 529.172 583.387C529.172 582.749 529.027 582.188 528.737 581.705C528.447 581.222 527.886 580.777 527.055 580.371C526.224 579.965 525.006 579.569 523.401 579.182C521.854 578.776 520.617 578.341 519.689 577.877C518.761 577.394 518.094 576.814 517.688 576.137C517.301 575.441 517.108 574.59 517.108 573.585C517.108 572.464 517.379 571.478 517.92 570.627C518.461 569.757 519.225 569.08 520.211 568.597C521.216 568.114 522.415 567.872 523.807 567.872C525.276 567.872 526.543 568.152 527.606 568.713C528.669 569.254 529.51 570.008 530.129 570.975C530.767 571.942 531.163 573.044 531.318 574.281L528.737 574.455C528.64 573.643 528.389 572.918 527.983 572.28C527.577 571.642 527.016 571.149 526.301 570.801C525.605 570.434 524.754 570.25 523.749 570.25C522.492 570.25 521.497 570.55 520.762 571.149C520.027 571.748 519.66 572.531 519.66 573.498C519.66 574.117 519.805 574.639 520.095 575.064C520.385 575.47 520.907 575.828 521.661 576.137C522.434 576.446 523.527 576.775 524.938 577.123C526.62 577.548 527.954 578.051 528.94 578.631C529.945 579.192 530.661 579.859 531.086 580.632C531.511 581.386 531.724 582.246 531.724 583.213C531.724 584.373 531.415 585.388 530.796 586.258C530.197 587.109 529.365 587.776 528.302 588.259C527.239 588.723 526.021 588.955 524.648 588.955ZM542.045 588.955C539.764 588.955 538.005 588.423 536.767 587.36C535.53 586.277 534.863 584.885 534.766 583.184L537.347 583.01C537.463 584.267 537.947 585.166 538.797 585.707C539.667 586.248 540.75 586.519 542.045 586.519C542.935 586.519 543.756 586.403 544.51 586.171C545.264 585.92 545.873 585.523 546.337 584.982C546.801 584.421 547.033 583.677 547.033 582.749C547.033 581.376 546.579 580.371 545.67 579.733C544.762 579.095 543.563 578.776 542.074 578.776H540.45V576.34H542.074C543.292 576.34 544.298 576.098 545.09 575.615C545.902 575.132 546.308 574.3 546.308 573.121C546.308 572.058 545.96 571.255 545.264 570.714C544.588 570.153 543.563 569.873 542.19 569.873C540.837 569.873 539.812 570.134 539.116 570.656C538.44 571.178 538.034 571.893 537.898 572.802L535.288 572.628C535.482 571.081 536.168 569.834 537.347 568.887C538.527 567.92 540.141 567.437 542.19 567.437C543.582 567.437 544.781 567.669 545.786 568.133C546.792 568.578 547.565 569.216 548.106 570.047C548.648 570.878 548.918 571.864 548.918 573.005C548.918 574.281 548.512 575.315 547.7 576.108C546.908 576.881 545.728 577.413 544.162 577.703V577.181C545.844 577.374 547.178 577.974 548.164 578.979C549.15 579.984 549.643 581.241 549.643 582.749C549.643 584.064 549.315 585.185 548.657 586.113C548.019 587.041 547.13 587.747 545.989 588.23C544.849 588.713 543.534 588.955 542.045 588.955ZM560.701 588.955C559.038 588.955 557.598 588.52 556.38 587.65C555.162 586.78 554.214 585.543 553.538 583.938C552.88 582.333 552.552 580.429 552.552 578.225C552.552 576.021 552.88 574.117 553.538 572.512C554.214 570.888 555.162 569.641 556.38 568.771C557.598 567.882 559.038 567.437 560.701 567.437C562.383 567.437 563.833 567.882 565.051 568.771C566.269 569.641 567.206 570.878 567.864 572.483C568.54 574.088 568.879 576.002 568.879 578.225C568.879 580.429 568.54 582.333 567.864 583.938C567.206 585.543 566.269 586.78 565.051 587.65C563.833 588.52 562.383 588.955 560.701 588.955ZM560.701 586.519C562.479 586.519 563.852 585.804 564.819 584.373C565.785 582.923 566.269 580.874 566.269 578.225C566.269 576.446 566.046 574.938 565.602 573.701C565.176 572.444 564.548 571.497 563.717 570.859C562.905 570.202 561.899 569.873 560.701 569.873C559.521 569.873 558.516 570.202 557.685 570.859C556.873 571.497 556.244 572.444 555.8 573.701C555.374 574.938 555.162 576.446 555.162 578.225C555.162 580.874 555.645 582.923 556.612 584.373C557.578 585.804 558.941 586.519 560.701 586.519ZM578.741 591.681L587.296 566.741H589.616L581.061 591.681H578.741ZM601.085 588.491V573.121H603.318L603.405 577.007L603.057 576.891C603.231 576.04 603.53 575.315 603.956 574.716C604.4 574.097 604.942 573.624 605.58 573.295C606.218 572.947 606.923 572.773 607.697 572.773C609.031 572.773 610.113 573.14 610.945 573.875C611.795 574.61 612.327 575.634 612.54 576.949L612.076 576.92C612.23 576.031 612.511 575.286 612.917 574.687C613.342 574.068 613.883 573.595 614.541 573.266C615.198 572.937 615.952 572.773 616.803 572.773C617.905 572.773 618.833 573.005 619.587 573.469C620.341 573.914 620.911 574.571 621.298 575.441C621.684 576.311 621.878 577.365 621.878 578.602V588.491H619.442V579.124C619.442 577.732 619.171 576.688 618.63 575.992C618.088 575.277 617.286 574.919 616.223 574.919C615.507 574.919 614.879 575.093 614.338 575.441C613.816 575.789 613.41 576.292 613.12 576.949C612.83 577.587 612.685 578.37 612.685 579.298V588.491H610.249V579.298C610.249 577.925 610.007 576.852 609.524 576.079C609.04 575.306 608.228 574.919 607.088 574.919C606.372 574.919 605.744 575.093 605.203 575.441C604.681 575.789 604.265 576.292 603.956 576.949C603.666 577.606 603.521 578.389 603.521 579.298V588.491H601.085ZM632.179 588.839C630.768 588.839 629.531 588.51 628.467 587.853C627.404 587.196 626.582 586.268 626.002 585.069C625.422 583.851 625.132 582.43 625.132 580.806C625.132 579.163 625.422 577.742 626.002 576.543C626.582 575.344 627.404 574.416 628.467 573.759C629.531 573.102 630.768 572.773 632.179 572.773C633.591 572.773 634.818 573.102 635.862 573.759C636.926 574.416 637.747 575.344 638.327 576.543C638.907 577.742 639.197 579.163 639.197 580.806C639.197 582.43 638.907 583.851 638.327 585.069C637.747 586.268 636.926 587.196 635.862 587.853C634.818 588.51 633.591 588.839 632.179 588.839ZM632.179 586.519C633.591 586.519 634.683 586.016 635.456 585.011C636.249 583.986 636.645 582.585 636.645 580.806C636.645 579.027 636.249 577.635 635.456 576.63C634.683 575.605 633.591 575.093 632.179 575.093C630.768 575.093 629.666 575.605 628.873 576.63C628.081 577.635 627.684 579.027 627.684 580.806C627.684 582.585 628.081 583.986 628.873 585.011C629.666 586.016 630.768 586.519 632.179 586.519ZM642.517 588.491V573.121H644.75L644.837 577.036L644.547 576.775C644.741 575.866 645.079 575.122 645.562 574.542C646.046 573.943 646.626 573.498 647.302 573.208C647.998 572.918 648.743 572.773 649.535 572.773C650.715 572.773 651.681 573.034 652.435 573.556C653.209 574.078 653.779 574.784 654.146 575.673C654.533 576.543 654.726 577.519 654.726 578.602V588.491H652.29V579.298C652.29 578.351 652.174 577.558 651.942 576.92C651.73 576.263 651.382 575.77 650.898 575.441C650.415 575.093 649.787 574.919 649.013 574.919C647.834 574.919 646.858 575.296 646.084 576.05C645.33 576.785 644.953 577.867 644.953 579.298V588.491H642.517ZM663.833 588.491C662.441 588.491 661.406 588.172 660.73 587.534C660.072 586.896 659.744 585.9 659.744 584.547V569.525H662.18V584.489C662.18 585.185 662.334 585.668 662.644 585.939C662.953 586.21 663.427 586.345 664.065 586.345H666.269V588.491H663.833ZM657.482 575.267V573.121H666.269V575.267H657.482ZM669.393 588.491V567.901H671.829V576.514L671.539 576.456C671.733 575.605 672.061 574.909 672.525 574.368C672.989 573.827 673.56 573.43 674.236 573.179C674.913 572.908 675.657 572.773 676.469 572.773C677.571 572.773 678.499 573.024 679.253 573.527C680.027 574.01 680.607 574.697 680.993 575.586C681.399 576.456 681.602 577.461 681.602 578.602V588.491H679.166V579.298C679.166 577.809 678.896 576.707 678.354 575.992C677.832 575.277 677.03 574.919 675.947 574.919C674.71 574.919 673.714 575.296 672.96 576.05C672.206 576.804 671.829 577.896 671.829 579.327V588.491H669.393Z" fill="black"/>
<rect x="829.792" y="539.093" width="273.118" height="78.7963" rx="39.3981" fill="#2386DD"/>
<path d="M884.048 591.101V565.291H886.194V591.101H884.048ZM885.353 588.955C883.807 588.955 882.453 588.665 881.293 588.085C880.153 587.486 879.244 586.674 878.567 585.649C877.891 584.605 877.494 583.406 877.378 582.053L879.93 581.879C880.066 582.884 880.356 583.735 880.8 584.431C881.264 585.127 881.873 585.659 882.627 586.026C883.401 586.374 884.329 586.548 885.411 586.548C886.359 586.548 887.161 586.432 887.818 586.2C888.495 585.949 889.007 585.591 889.355 585.127C889.703 584.644 889.877 584.064 889.877 583.387C889.877 582.749 889.732 582.188 889.442 581.705C889.152 581.222 888.592 580.777 887.76 580.371C886.929 579.965 885.711 579.569 884.106 579.182C882.56 578.776 881.322 578.341 880.394 577.877C879.466 577.394 878.799 576.814 878.393 576.137C878.007 575.441 877.813 574.59 877.813 573.585C877.813 572.464 878.084 571.478 878.625 570.627C879.167 569.757 879.93 569.08 880.916 568.597C881.922 568.114 883.12 567.872 884.512 567.872C885.982 567.872 887.248 568.152 888.311 568.713C889.375 569.254 890.216 570.008 890.834 570.975C891.472 571.942 891.869 573.044 892.023 574.281L889.442 574.455C889.346 573.643 889.094 572.918 888.688 572.28C888.282 571.642 887.722 571.149 887.006 570.801C886.31 570.434 885.46 570.25 884.454 570.25C883.198 570.25 882.202 570.55 881.467 571.149C880.733 571.748 880.365 572.531 880.365 573.498C880.365 574.117 880.51 574.639 880.8 575.064C881.09 575.47 881.612 575.828 882.366 576.137C883.14 576.446 884.232 576.775 885.643 577.123C887.325 577.548 888.659 578.051 889.645 578.631C890.651 579.192 891.366 579.859 891.791 580.632C892.217 581.386 892.429 582.246 892.429 583.213C892.429 584.373 892.12 585.388 891.501 586.258C890.902 587.109 890.071 587.776 889.007 588.259C887.944 588.723 886.726 588.955 885.353 588.955ZM899.473 588.491V573.237H895.181V571.091H896.921C897.675 571.091 898.275 570.994 898.719 570.801C899.183 570.608 899.512 570.279 899.705 569.815C899.899 569.351 899.995 568.713 899.995 567.901H901.967V588.491H899.473ZM914.467 588.955C912.804 588.955 911.364 588.52 910.146 587.65C908.928 586.78 907.981 585.543 907.304 583.938C906.647 582.333 906.318 580.429 906.318 578.225C906.318 576.021 906.647 574.117 907.304 572.512C907.981 570.888 908.928 569.641 910.146 568.771C911.364 567.882 912.804 567.437 914.467 567.437C916.149 567.437 917.599 567.882 918.817 568.771C920.035 569.641 920.973 570.878 921.63 572.483C922.307 574.088 922.645 576.002 922.645 578.225C922.645 580.429 922.307 582.333 921.63 583.938C920.973 585.543 920.035 586.78 918.817 587.65C917.599 588.52 916.149 588.955 914.467 588.955ZM914.467 586.519C916.246 586.519 917.618 585.804 918.585 584.373C919.552 582.923 920.035 580.874 920.035 578.225C920.035 576.446 919.813 574.938 919.368 573.701C918.943 572.444 918.314 571.497 917.483 570.859C916.671 570.202 915.666 569.873 914.467 569.873C913.288 569.873 912.282 570.202 911.451 570.859C910.639 571.497 910.011 572.444 909.566 573.701C909.141 574.938 908.928 576.446 908.928 578.225C908.928 580.874 909.411 582.923 910.378 584.373C911.345 585.804 912.708 586.519 914.467 586.519ZM933.697 588.955C932.034 588.955 930.594 588.52 929.376 587.65C928.158 586.78 927.21 585.543 926.534 583.938C925.876 582.333 925.548 580.429 925.548 578.225C925.548 576.021 925.876 574.117 926.534 572.512C927.21 570.888 928.158 569.641 929.376 568.771C930.594 567.882 932.034 567.437 933.697 567.437C935.379 567.437 936.829 567.882 938.047 568.771C939.265 569.641 940.202 570.878 940.86 572.483C941.536 574.088 941.875 576.002 941.875 578.225C941.875 580.429 941.536 582.333 940.86 583.938C940.202 585.543 939.265 586.78 938.047 587.65C936.829 588.52 935.379 588.955 933.697 588.955ZM933.697 586.519C935.475 586.519 936.848 585.804 937.815 584.373C938.781 582.923 939.265 580.874 939.265 578.225C939.265 576.446 939.042 574.938 938.598 573.701C938.172 572.444 937.544 571.497 936.713 570.859C935.901 570.202 934.895 569.873 933.697 569.873C932.517 569.873 931.512 570.202 930.681 570.859C929.869 571.497 929.24 572.444 928.796 573.701C928.37 574.938 928.158 576.446 928.158 578.225C928.158 580.874 928.641 582.923 929.608 584.373C930.574 585.804 931.937 586.519 933.697 586.519ZM951.737 591.681L960.292 566.741H962.612L954.057 591.681H951.737ZM974.081 588.491V573.121H976.314L976.401 577.007L976.053 576.891C976.227 576.04 976.526 575.315 976.952 574.716C977.396 574.097 977.938 573.624 978.576 573.295C979.214 572.947 979.919 572.773 980.693 572.773C982.027 572.773 983.109 573.14 983.941 573.875C984.791 574.61 985.323 575.634 985.536 576.949L985.072 576.92C985.226 576.031 985.507 575.286 985.913 574.687C986.338 574.068 986.879 573.595 987.537 573.266C988.194 572.937 988.948 572.773 989.799 572.773C990.901 572.773 991.829 573.005 992.583 573.469C993.337 573.914 993.907 574.571 994.294 575.441C994.68 576.311 994.874 577.365 994.874 578.602V588.491H992.438V579.124C992.438 577.732 992.167 576.688 991.626 575.992C991.084 575.277 990.282 574.919 989.219 574.919C988.503 574.919 987.875 575.093 987.334 575.441C986.812 575.789 986.406 576.292 986.116 576.949C985.826 577.587 985.681 578.37 985.681 579.298V588.491H983.245V579.298C983.245 577.925 983.003 576.852 982.52 576.079C982.036 575.306 981.224 574.919 980.084 574.919C979.368 574.919 978.74 575.093 978.199 575.441C977.677 575.789 977.261 576.292 976.952 576.949C976.662 577.606 976.517 578.389 976.517 579.298V588.491H974.081ZM1005.18 588.839C1003.76 588.839 1002.53 588.51 1001.46 587.853C1000.4 587.196 999.579 586.268 998.999 585.069C998.419 583.851 998.129 582.43 998.129 580.806C998.129 579.163 998.419 577.742 998.999 576.543C999.579 575.344 1000.4 574.416 1001.46 573.759C1002.53 573.102 1003.76 572.773 1005.18 572.773C1006.59 572.773 1007.81 573.102 1008.86 573.759C1009.92 574.416 1010.74 575.344 1011.32 576.543C1011.9 577.742 1012.19 579.163 1012.19 580.806C1012.19 582.43 1011.9 583.851 1011.32 585.069C1010.74 586.268 1009.92 587.196 1008.86 587.853C1007.81 588.51 1006.59 588.839 1005.18 588.839ZM1005.18 586.519C1006.59 586.519 1007.68 586.016 1008.45 585.011C1009.25 583.986 1009.64 582.585 1009.64 580.806C1009.64 579.027 1009.25 577.635 1008.45 576.63C1007.68 575.605 1006.59 575.093 1005.18 575.093C1003.76 575.093 1002.66 575.605 1001.87 576.63C1001.08 577.635 1000.68 579.027 1000.68 580.806C1000.68 582.585 1001.08 583.986 1001.87 585.011C1002.66 586.016 1003.76 586.519 1005.18 586.519ZM1015.51 588.491V573.121H1017.75L1017.83 577.036L1017.54 576.775C1017.74 575.866 1018.08 575.122 1018.56 574.542C1019.04 573.943 1019.62 573.498 1020.3 573.208C1020.99 572.918 1021.74 572.773 1022.53 572.773C1023.71 572.773 1024.68 573.034 1025.43 573.556C1026.2 574.078 1026.78 574.784 1027.14 575.673C1027.53 576.543 1027.72 577.519 1027.72 578.602V588.491H1025.29V579.298C1025.29 578.351 1025.17 577.558 1024.94 576.92C1024.73 576.263 1024.38 575.77 1023.89 575.441C1023.41 575.093 1022.78 574.919 1022.01 574.919C1020.83 574.919 1019.85 575.296 1019.08 576.05C1018.33 576.785 1017.95 577.867 1017.95 579.298V588.491H1015.51ZM1036.83 588.491C1035.44 588.491 1034.4 588.172 1033.73 587.534C1033.07 586.896 1032.74 585.9 1032.74 584.547V569.525H1035.18V584.489C1035.18 585.185 1035.33 585.668 1035.64 585.939C1035.95 586.21 1036.42 586.345 1037.06 586.345H1039.26V588.491H1036.83ZM1030.48 575.267V573.121H1039.26V575.267H1030.48ZM1042.39 588.491V567.901H1044.83V576.514L1044.54 576.456C1044.73 575.605 1045.06 574.909 1045.52 574.368C1045.99 573.827 1046.56 573.43 1047.23 573.179C1047.91 572.908 1048.65 572.773 1049.47 572.773C1050.57 572.773 1051.5 573.024 1052.25 573.527C1053.02 574.01 1053.6 574.697 1053.99 575.586C1054.4 576.456 1054.6 577.461 1054.6 578.602V588.491H1052.16V579.298C1052.16 577.809 1051.89 576.707 1051.35 575.992C1050.83 575.277 1050.03 574.919 1048.94 574.919C1047.71 574.919 1046.71 575.296 1045.96 576.05C1045.2 576.804 1044.83 577.896 1044.83 579.327V588.491H1042.39Z" fill="white"/>
<rect x="115.482" y="238.815" width="87" height="29" rx="14.5" fill="#D9D9D9"/>
<rect x="115.482" y="282.815" width="212" height="29" rx="14.5" fill="#D9D9D9"/>
<rect x="115.482" y="326.815" width="87" height="29" rx="14.5" fill="#D9D9D9"/>
<rect x="115.482" y="370.815" width="212" height="29" rx="14.5" fill="#D9D9D9"/>
<rect x="115.482" y="414.815" width="53" height="29" rx="14.5" fill="#D9D9D9"/>
<rect x="115.482" y="458.815" width="115" height="29" rx="14.5" fill="#D9D9D9"/>
<rect x="480.718" y="238.815" width="114" height="29" rx="14.5" fill="#D9D9D9"/>
<rect x="480.718" y="282.815" width="211" height="29" rx="14.5" fill="#D9D9D9"/>
<rect x="480.718" y="326.815" width="86" height="29" rx="14.5" fill="#D9D9D9"/>
<rect x="480.718" y="370.815" width="86" height="29" rx="14.5" fill="#D9D9D9"/>
<rect x="480.718" y="414.815" width="53" height="29" rx="14.5" fill="#D9D9D9"/>
<rect x="480.718" y="458.815" width="86" height="29" rx="14.5" fill="#D9D9D9"/>
<rect opacity="0.9" x="845.953" y="238.815" width="86" height="29" rx="14.5" fill="#2386DD" fill-opacity="0.2"/>
<rect opacity="0.9" x="845.953" y="282.815" width="115" height="29" rx="14.5" fill="#2386DD" fill-opacity="0.2"/>
<rect opacity="0.9" x="845.953" y="326.815" width="86" height="29" rx="14.5" fill="#2386DD" fill-opacity="0.2"/>
<rect opacity="0.9" x="845.953" y="370.815" width="53" height="29" rx="14.5" fill="#2386DD" fill-opacity="0.2"/>
<rect opacity="0.9" x="845.953" y="414.815" width="211" height="29" rx="14.5" fill="#2386DD" fill-opacity="0.2"/>
<rect opacity="0.9" x="845.953" y="458.815" width="115" height="29" rx="14.5" fill="#2386DD" fill-opacity="0.2"/>
<rect width="1200" height="105" fill="url(#paint0_linear_515_21890)"/>
<rect width="1200" height="105" transform="matrix(1 0 0 -1 0 675)" fill="url(#paint1_linear_515_21890)"/>
<path d="M0 0L-2.95052e-05 675L100 675L100 4.37114e-06L0 0Z" fill="url(#paint2_linear_515_21890)"/>
<path d="M1200 0L1200 675L1118 675L1118 3.58434e-06L1200 0Z" fill="url(#paint3_linear_515_21890)"/>
</g>
<defs>
<linearGradient id="paint0_linear_515_21890" x1="600" y1="0" x2="600" y2="105" gradientUnits="userSpaceOnUse">
<stop stop-color="white"/>
<stop offset="1" stop-color="white" stop-opacity="0"/>
</linearGradient>
<linearGradient id="paint1_linear_515_21890" x1="600" y1="0" x2="600" y2="105" gradientUnits="userSpaceOnUse">
<stop stop-color="white"/>
<stop offset="1" stop-color="white" stop-opacity="0"/>
</linearGradient>
<linearGradient id="paint2_linear_515_21890" x1="-1.47526e-05" y1="337.5" x2="100" y2="337.5" gradientUnits="userSpaceOnUse">
<stop stop-color="white"/>
<stop offset="1" stop-color="white" stop-opacity="0"/>
</linearGradient>
<linearGradient id="paint3_linear_515_21890" x1="1200" y1="337.5" x2="1118" y2="337.5" gradientUnits="userSpaceOnUse">
<stop stop-color="white"/>
<stop offset="1" stop-color="white" stop-opacity="0"/>
</linearGradient>
<clipPath id="clip0_515_21890">
<rect width="1200" height="675" fill="white"/>
</clipPath>
</defs>
</svg>
