<svg width="1742" height="675" viewBox="0 0 1742 675" fill="none" xmlns="http://www.w3.org/2000/svg">
<g clip-path="url(#clip0_611_2)">
<rect width="1742" height="675" fill="white"/>
<path opacity="0.15" d="M1759.5 45.5002L-33.5 45.5002M1759.5 90.5002L-33.5 90.5002M1759.5 135.5L-33.5 135.5M1759.5 180.5L-33.5 180.5M1759.5 225.5L-33.5 225.5M1759.5 270.5L-33.5 270.5M1759.5 315.5L-33.5 315.5M1759.5 359.5L-33.5 359.5M1759.5 404.5L-33.5 404.5M1759.5 449.5L-33.5 449.5M1759.5 494.5L-33.5 494.5M1759.5 539.5H-33.5M1759.5 584.5H-33.5M1759.5 629.5H-33.5M1759.5 674.5H-33.5M0 1V675M45 1V675M90 1V675M135 1V675M180 1V675M225 1V675M270 1V675M315 1V675M360 1V675M405 1V675M450 1V675M495 1V675M540 1V675M585 1V675M630 1V675M675 1V675M720 1V675M765 1V675M810 1V675M855 1V675M900 1V675M945 1V675M990 1V675M1035 1V675M1080 1V675M1125 1V675M1170 1V675M1215 1V675M1260 1V675M1305 1V675M1350 1V675M1395 1V675M1440 1V675M1485 1V675M1530 1V675M1575 1V675M1620 1V675M1665 1V675M1710 1V675M1742 1V675M1232 436.5C1232 636.151 1070.15 798 870.5 798C670.849 798 509 636.151 509 436.5C509 236.849 670.849 75 870.5 75C1070.15 75 1232 236.849 1232 436.5Z" stroke="#2386DD" stroke-width="2"/>
<path d="M1233.69 434.103C1233.69 634.858 1070.95 797.603 870.192 797.603C669.437 797.603 506.692 634.858 506.692 434.103C506.692 233.347 669.437 70.6025 870.192 70.6025C1070.95 70.6025 1233.69 233.347 1233.69 434.103Z" fill="white"/>
<path d="M1233.69 434.103C1233.69 634.858 1070.95 797.603 870.192 797.603C669.437 797.603 506.692 634.858 506.692 434.103C506.692 233.347 669.437 70.6025 870.192 70.6025C1070.95 70.6025 1233.69 233.347 1233.69 434.103Z" fill="#2386DD" fill-opacity="0.03"/>
<path d="M1236 437C1236 648.249 1065.53 830 854 830C642.475 830 471 658.749 471 447.5C471 236.251 644.475 64 856 64C1067.53 64 1236 225.751 1236 437Z" fill="white"/>
<path d="M1236 437C1236 648.249 1065.53 830 854 830C642.475 830 471 658.749 471 447.5C471 236.251 644.475 64 856 64C1067.53 64 1236 225.751 1236 437Z" fill="#2386DD" fill-opacity="0.12"/>
<path d="M1233.69 434.103C1233.69 634.858 1070.95 797.603 870.192 797.603C669.437 797.603 506.692 634.858 506.692 434.103C506.692 233.347 669.437 70.6025 870.192 70.6025C1070.95 70.6025 1233.69 233.347 1233.69 434.103Z" stroke="#2386DD" stroke-width="2"/>
<path d="M1236 437C1236 648.249 1065.53 830 854 830C642.475 830 471 658.749 471 447.5C471 236.251 644.475 64 856 64C1067.53 64 1236 225.751 1236 437Z" stroke="#2386DD" stroke-width="2" opacity="0.5"/>
<rect width="1742" height="64.9999" transform="matrix(-4.37114e-08 -1 -1 4.37114e-08 1742 1209)" fill="url(#paint0_linear_611_2)"/>
<rect width="1742" height="70" fill="url(#paint1_linear_611_2)"/>
<rect y="1209" width="1743" height="78.0001" transform="rotate(-90 0 1209)" fill="url(#paint2_linear_611_2)"/>
<ellipse cx="871.5" cy="436.5" rx="363.5" ry="361.5" fill="white"/>
<circle cx="870.692" cy="437.603" r="317" stroke="#2386DD" stroke-width="2"/>
<g opacity="0.45">
<path d="M1113.36 654.628L1135.05 674.238L1133.22 676.255L1111.53 656.646L1113.36 654.628Z" fill="#2386DD"/>
<path d="M1099.96 668.714L1120.45 689.568L1118.51 691.475L1098.02 670.62L1099.96 668.714Z" fill="#2386DD"/>
<path d="M1085.76 681.966L1104.96 704.014L1102.91 705.801L1083.7 683.752L1085.76 681.966Z" fill="#2386DD"/>
<path d="M1070.78 694.352L1088.64 717.502L1086.49 719.164L1068.63 696.013L1070.78 694.352Z" fill="#2386DD"/>
<path d="M1055.09 705.829L1071.55 729.997L1069.3 731.528L1052.84 707.36L1055.09 705.829Z" fill="#2386DD"/>
<path d="M1038.76 716.348L1053.74 741.457L1051.4 742.851L1036.42 717.741L1038.76 716.348Z" fill="#2386DD"/>
<path d="M1021.81 725.889L1035.3 751.833L1032.88 753.087L1019.4 727.143L1021.81 725.889Z" fill="#2386DD"/>
<path d="M1004.35 734.394L1016.25 761.106L1013.76 762.212L1001.87 735.501L1004.35 734.394Z" fill="#2386DD"/>
<path d="M986.392 741.856L996.703 769.218L994.158 770.177L983.847 742.815L986.392 741.856Z" fill="#2386DD"/>
<path d="M968.049 748.229L976.688 776.163L974.089 776.967L965.451 749.032L968.049 748.229Z" fill="#2386DD"/>
<path d="M949.339 753.495L956.307 781.893L953.665 782.541L946.697 754.144L949.339 753.495Z" fill="#2386DD"/>
<path d="M930.359 757.636L935.612 786.401L932.937 786.889L927.684 758.125L930.359 757.636Z" fill="#2386DD"/>
<path d="M911.172 760.627L914.678 789.656L911.977 789.982L908.472 760.953L911.172 760.627Z" fill="#2386DD"/>
<path d="M891.824 762.462L893.599 791.649L890.884 791.814L889.109 762.628L891.824 762.462Z" fill="#2386DD"/>
<path d="M872.427 763.131L872.417 792.371L869.697 792.37L869.707 763.13L872.427 763.131Z" fill="#2386DD"/>
<path d="M853.006 762.623L851.246 791.81L848.531 791.647L850.291 762.46L853.006 762.623Z" fill="#2386DD"/>
<path d="M833.644 760.957L830.152 789.988L827.452 789.663L830.943 760.633L833.644 760.957Z" fill="#2386DD"/>
<path d="M814.423 758.14L809.197 786.909L806.52 786.423L811.747 757.654L814.423 758.14Z" fill="#2386DD"/>
<path d="M795.401 754.177L788.466 782.583L785.824 781.937L792.759 753.532L795.401 754.177Z" fill="#2386DD"/>
<path d="M776.626 749.09L768.047 777.043L765.446 776.245L774.025 748.292L776.626 749.09Z" fill="#2386DD"/>
<path d="M758.171 742.919L747.988 770.328L745.438 769.381L755.621 741.972L758.171 742.919Z" fill="#2386DD"/>
<path d="M740.168 735.683L728.322 762.416L725.835 761.314L737.682 734.581L740.168 735.683Z" fill="#2386DD"/>
<path d="M722.603 727.357L709.196 753.342L706.778 752.095L720.185 726.11L722.603 727.357Z" fill="#2386DD"/>
<path d="M705.571 718.007L690.636 743.145L688.297 741.756L703.233 716.618L705.571 718.007Z" fill="#2386DD"/>
<path d="M689.157 707.659L672.708 731.834L670.46 730.304L686.908 706.129L689.157 707.659Z" fill="#2386DD"/>
<path d="M673.355 696.317L655.523 719.49L653.368 717.831L671.2 694.658L673.355 696.317Z" fill="#2386DD"/>
<path d="M658.311 684.085L639.072 706.103L637.024 704.313L656.263 682.295L658.311 684.085Z" fill="#2386DD"/>
<path d="M643.979 670.919L623.5 691.789L621.559 689.884L642.038 669.013L643.979 670.919Z" fill="#2386DD"/>
<path d="M630.501 656.97L608.772 676.536L606.951 674.515L628.681 654.949L630.501 656.97Z" fill="#2386DD"/>
<path d="M617.841 642.188L595.019 660.467L593.319 658.344L616.141 640.065L617.841 642.188Z" fill="#2386DD"/>
<path d="M606.113 626.727L582.215 643.576L580.648 641.353L604.545 624.504L606.113 626.727Z" fill="#2386DD"/>
<path d="M595.298 610.547L570.467 625.987L569.031 623.677L593.862 608.237L595.298 610.547Z" fill="#2386DD"/>
<path d="M585.484 593.8L559.759 607.7L558.466 605.307L584.19 591.407L585.484 593.8Z" fill="#2386DD"/>
<path d="M576.664 576.455L550.177 588.841L549.024 586.377L575.512 573.991L576.664 576.455Z" fill="#2386DD"/>
<path d="M568.904 558.661L541.713 569.414L540.713 566.885L567.904 556.132L568.904 558.661Z" fill="#2386DD"/>
<path d="M562.208 540.399L534.435 549.546L533.585 546.962L561.357 537.816L562.208 540.399Z" fill="#2386DD"/>
<path d="M556.619 521.807L528.343 529.251L527.65 526.621L555.927 519.177L556.619 521.807Z" fill="#2386DD"/>
<path d="M552.151 502.889L523.483 508.647L522.948 505.98L551.615 500.222L552.151 502.889Z" fill="#2386DD"/>
<path d="M548.823 483.757L519.86 487.774L519.486 485.08L548.449 481.063L548.823 483.757Z" fill="#2386DD"/>
<path d="M546.655 464.457L517.502 466.723L517.292 464.011L546.444 461.746L546.655 464.457Z" fill="#2386DD"/>
<path d="M545.645 445.049L516.41 445.579L516.36 442.859L545.596 442.329L545.645 445.049Z" fill="#2386DD"/>
<path d="M545.808 425.65L516.595 424.379L516.714 421.661L545.926 422.933L545.808 425.65Z" fill="#2386DD"/>
<path d="M547.142 406.245L518.054 403.27L518.33 400.564L547.419 403.539L547.142 406.245Z" fill="#2386DD"/>
<path d="M549.623 386.994L520.77 382.252L521.211 379.568L550.064 384.31L549.623 386.994Z" fill="#2386DD"/>
<path d="M553.263 367.898L524.74 361.459L525.339 358.806L553.862 365.244L553.263 367.898Z" fill="#2386DD"/>
<path d="M558.018 349.023L529.913 340.954L530.664 338.34L558.768 346.408L558.018 349.023Z" fill="#2386DD"/>
<path d="M563.86 330.502L536.293 320.753L537.2 318.189L564.767 327.938L563.86 330.502Z" fill="#2386DD"/>
<path d="M570.806 312.35L543.866 300.982L544.924 298.476L571.864 309.844L570.806 312.35Z" fill="#2386DD"/>
<path d="M578.816 294.626L552.587 281.703L553.789 279.263L580.018 292.186L578.816 294.626Z" fill="#2386DD"/>
<path d="M587.848 277.473L562.477 262.937L563.829 260.577L589.2 275.113L587.848 277.473Z" fill="#2386DD"/>
<path d="M597.939 260.843L573.46 244.852L574.947 242.575L599.427 258.566L597.939 260.843Z" fill="#2386DD"/>
<path d="M608.977 244.884L585.523 227.422L587.148 225.24L610.601 242.702L608.977 244.884Z" fill="#2386DD"/>
<path d="M620.978 229.597L598.603 210.773L600.354 208.692L622.729 227.516L620.978 229.597Z" fill="#2386DD"/>
<path d="M633.862 215.064L612.661 194.928L614.534 192.955L635.736 213.092L633.862 215.064Z" fill="#2386DD"/>
<path d="M647.6 201.326L627.641 179.958L629.629 178.101L649.588 199.47L647.6 201.326Z" fill="#2386DD"/>
<path d="M662.138 188.427L643.482 165.912L645.577 164.176L664.232 186.692L662.138 188.427Z" fill="#2386DD"/>
<path d="M677.411 176.423L660.138 152.83L662.333 151.223L679.606 174.816L677.411 176.423Z" fill="#2386DD"/>
<path d="M693.386 165.338L677.531 140.77L679.817 139.295L695.671 163.864L693.386 165.338Z" fill="#2386DD"/>
<path d="M709.974 155.231L695.622 129.756L697.992 128.42L712.344 153.896L709.974 155.231Z" fill="#2386DD"/>
<path d="M727.153 146.117L714.32 119.844L716.764 118.65L729.597 144.923L727.153 146.117Z" fill="#2386DD"/>
<path d="M744.819 138.049L733.592 111.05L736.103 110.005L747.33 137.004L744.819 138.049Z" fill="#2386DD"/>
<path d="M762.959 131.036L753.333 103.427L755.901 102.531L765.528 130.141L762.959 131.036Z" fill="#2386DD"/>
<path d="M781.45 125.128L773.521 96.9835L776.139 96.2458L784.068 124.39L781.45 125.128Z" fill="#2386DD"/>
<path d="M800.299 120.325L794.026 91.7661L796.683 91.1826L802.956 119.742L800.299 120.325Z" fill="#2386DD"/>
<path d="M819.349 116.669L814.85 87.7772L817.538 87.3587L822.036 116.251L819.349 116.669Z" fill="#2386DD"/>
<path d="M838.642 114.158L835.83 85.0535L838.537 84.7919L841.349 113.896L838.642 114.158Z" fill="#2386DD"/>
<path d="M857.982 112.813L856.992 83.5893L859.71 83.4972L860.7 112.72L857.982 112.813Z" fill="#2386DD"/>
<path d="M877.429 112.645L878.153 83.4138L880.872 83.4812L880.148 112.712L877.429 112.645Z" fill="#2386DD"/>
<path d="M896.819 113.632L899.313 84.4983L902.023 84.7303L899.529 113.864L896.819 113.632Z" fill="#2386DD"/>
<path d="M916.121 115.789L920.363 86.8583L923.055 87.253L918.812 116.184L916.121 115.789Z" fill="#2386DD"/>
<path d="M935.295 119.092L941.21 90.4568L943.873 91.007L937.959 119.642L935.295 119.092Z" fill="#2386DD"/>
<path d="M954.209 123.512L961.834 95.2844L964.46 95.9938L956.834 124.222L954.209 123.512Z" fill="#2386DD"/>
<path d="M972.846 129.057L982.118 101.326L984.697 102.188L975.426 129.92L972.846 129.057Z" fill="#2386DD"/>
<path d="M991.139 135.686L1002 108.54L1004.53 109.55L993.664 136.697L991.139 135.686Z" fill="#2386DD"/>
<path d="M1008.95 143.37L1021.47 116.943L1023.93 118.108L1011.41 144.534L1008.95 143.37Z" fill="#2386DD"/>
<path d="M1026.3 152.135L1040.36 126.496L1042.75 127.803L1028.69 153.442L1026.3 152.135Z" fill="#2386DD"/>
<path d="M1043.09 161.91L1058.66 137.16L1060.96 138.608L1045.39 163.359L1043.09 161.91Z" fill="#2386DD"/>
<path d="M1059.24 172.672L1076.29 148.919L1078.5 150.505L1061.45 174.258L1059.24 172.672Z" fill="#2386DD"/>
<path d="M1074.75 184.408L1093.16 161.695L1095.27 163.408L1076.86 186.121L1074.75 184.408Z" fill="#2386DD"/>
<path d="M1089.48 197.02L1109.27 175.489L1111.27 177.33L1091.49 198.86L1089.48 197.02Z" fill="#2386DD"/>
<path d="M1103.48 210.541L1124.48 190.187L1126.37 192.14L1105.38 212.494L1103.48 210.541Z" fill="#2386DD"/>
<path d="M1116.6 224.819L1138.82 205.808L1140.59 207.874L1118.37 226.886L1116.6 224.819Z" fill="#2386DD"/>
<path d="M1128.89 239.919L1152.16 222.211L1153.81 224.376L1130.54 242.084L1128.89 239.919Z" fill="#2386DD"/>
<path d="M1140.23 255.663L1164.54 239.421L1166.05 241.682L1141.74 257.925L1140.23 255.663Z" fill="#2386DD"/>
<path d="M1150.64 272.113L1175.85 257.292L1177.22 259.637L1152.02 274.458L1150.64 272.113Z" fill="#2386DD"/>
<path d="M1160.03 289.094L1186.1 275.845L1187.33 278.27L1161.26 291.519L1160.03 289.094Z" fill="#2386DD"/>
<path d="M1168.42 306.659L1195.2 294.933L1196.3 297.425L1169.51 309.151L1168.42 306.659Z" fill="#2386DD"/>
<path d="M1175.73 324.635L1203.18 314.57L1204.12 317.124L1176.67 327.189L1175.73 324.635Z" fill="#2386DD"/>
<path d="M1181.97 343.064L1209.96 334.611L1210.75 337.215L1182.75 345.668L1181.97 343.064Z" fill="#2386DD"/>
<path d="M1187.09 361.784L1215.54 355.058L1216.17 357.705L1187.71 364.431L1187.09 361.784Z" fill="#2386DD"/>
<path d="M1191.08 380.813L1219.88 375.774L1220.35 378.453L1191.55 383.492L1191.08 380.813Z" fill="#2386DD"/>
<path d="M1193.92 400.016L1222.98 396.736L1223.28 399.439L1194.23 402.719L1193.92 400.016Z" fill="#2386DD"/>
<path d="M1195.6 419.368L1224.8 417.837L1224.94 420.554L1195.74 422.085L1195.6 419.368Z" fill="#2386DD"/>
<path d="M1196.12 438.793L1225.36 439.005L1225.34 441.725L1196.1 441.513L1196.12 438.793Z" fill="#2386DD"/>
<path d="M1195.47 458.185L1224.64 460.191L1224.45 462.905L1195.28 460.898L1195.47 458.185Z" fill="#2386DD"/>
<path d="M1193.65 477.551L1222.65 481.256L1222.31 483.954L1193.3 480.249L1193.65 477.551Z" fill="#2386DD"/>
<path d="M1190.68 496.738L1219.41 502.196L1218.9 504.868L1190.18 499.41L1190.68 496.738Z" fill="#2386DD"/>
<path d="M1186.57 515.734L1214.92 522.886L1214.26 525.523L1185.9 518.372L1186.57 515.734Z" fill="#2386DD"/>
<path d="M1181.34 534.477L1209.23 543.259L1208.41 545.853L1180.52 537.072L1181.34 534.477Z" fill="#2386DD"/>
<path d="M1175.03 552.865L1202.36 563.278L1201.39 565.82L1174.06 555.407L1175.03 552.865Z" fill="#2386DD"/>
<path d="M1167.65 570.843L1194.31 582.86L1193.19 585.34L1166.53 573.322L1167.65 570.843Z" fill="#2386DD"/>
<path d="M1159.21 588.337L1185.1 601.935L1183.83 604.343L1157.95 590.745L1159.21 588.337Z" fill="#2386DD"/>
<path d="M1149.74 605.268L1174.74 620.432L1173.33 622.757L1148.33 607.593L1149.74 605.268Z" fill="#2386DD"/>
<path d="M1139.24 621.615L1163.29 638.246L1161.74 640.483L1137.69 623.853L1139.24 621.615Z" fill="#2386DD"/>
<path d="M1127.78 637.308L1150.79 655.343L1149.12 657.484L1126.1 639.449L1127.78 637.308Z" fill="#2386DD"/>
</g>
<path d="M732.648 679.382C733.061 679.62 733.332 679.976 733.461 680.451C733.59 680.927 733.536 681.371 733.299 681.785C733.061 682.198 732.705 682.47 732.23 682.598C731.754 682.727 731.31 682.673 730.896 682.436C730.483 682.199 730.212 681.842 730.083 681.367C729.954 680.891 730.008 680.447 730.245 680.033C730.482 679.62 730.839 679.349 731.314 679.22C731.79 679.091 732.234 679.145 732.648 679.382Z" fill="#2386DD"/>
<path d="M765.78 686.483L758.98 702.298L764.463 704.655L763.55 706.778L750.413 701.129L751.325 699.007L756.808 701.364L763.607 685.549L765.78 686.483Z" fill="#2386DD"/>
<path d="M787.05 694.46L780.585 712.883L769.375 708.95L770.14 706.77L779.118 709.921L781.203 703.978L772.536 700.937L773.283 698.809L781.95 701.851L784.053 695.857L774.868 692.633L775.632 690.453L787.05 694.46Z" fill="#2386DD"/>
<path d="M805.004 699.614L799.783 718.428L796.55 717.531L794.373 699.461L789.872 715.677L787.593 715.045L792.815 696.231L796.048 697.128L798.225 715.199L802.725 698.982L805.004 699.614Z" fill="#2386DD"/>
<path d="M817.698 702.37L814.212 719.229L820.056 720.437L819.588 722.699L805.584 719.803L806.052 717.541L811.896 718.75L815.382 701.891L817.698 702.37Z" fill="#2386DD"/>
<path d="M834.173 704.67C835.535 704.857 836.705 705.305 837.681 706.013C838.657 706.72 839.395 707.608 839.896 708.677C840.395 709.763 840.608 710.967 840.538 712.29L838.063 712.117C838.068 711.136 837.908 710.282 837.583 709.552C837.239 708.82 836.755 708.236 836.131 707.798C835.488 707.358 834.712 707.076 833.804 706.951C832.896 706.827 832.118 706.831 831.471 706.964C830.821 707.115 830.312 707.387 829.943 707.781C829.554 708.19 829.317 708.703 829.232 709.321C829.147 709.938 829.219 710.494 829.447 710.988C829.654 711.498 830.121 712.006 830.847 712.513C831.555 713.017 832.634 713.582 834.084 714.207C835.376 714.773 836.408 715.34 837.181 715.909C837.936 716.476 838.46 717.112 838.751 717.818C839.025 718.522 839.095 719.355 838.963 720.318C838.813 721.408 838.428 722.326 837.807 723.074C837.165 723.837 836.332 724.379 835.307 724.701C834.28 725.041 833.103 725.12 831.777 724.938C830.451 724.756 829.354 724.327 828.484 723.653C827.612 722.996 826.967 722.167 826.549 721.166C826.114 720.162 825.904 719.06 825.921 717.86L828.395 718.033C828.397 718.829 828.529 719.551 828.792 720.197C829.052 720.862 829.458 721.408 830.01 721.836C830.562 722.263 831.274 722.537 832.146 722.657C833.345 722.821 834.338 722.662 835.126 722.178C835.912 721.712 836.369 721.016 836.496 720.09C836.578 719.491 836.52 718.974 836.32 718.539C836.1 718.12 835.676 717.71 835.046 717.309C834.414 716.926 833.513 716.479 832.344 715.966C830.823 715.313 829.637 714.651 828.786 713.979C827.916 713.304 827.334 712.558 827.04 711.74C826.724 710.938 826.64 710.001 826.787 708.93C826.927 707.912 827.332 707.052 828.002 706.348C828.673 705.645 829.537 705.144 830.596 704.845C831.655 704.546 832.847 704.488 834.173 704.67Z" fill="#2386DD"/>
<path d="M858.21 707.345L856.869 726.824L845.017 726.009L845.176 723.704L854.669 724.357L855.101 718.075L845.938 717.444L846.092 715.195L855.256 715.825L855.692 709.487L845.98 708.819L846.138 706.515L858.21 707.345Z" fill="#2386DD"/>
<path d="M871.746 707.541L871.706 724.756L877.674 724.77L877.668 727.08L863.368 727.046L863.374 724.736L869.341 724.75L869.381 707.535L871.746 707.541Z" fill="#2386DD"/>
<path d="M912.985 704.295L915.519 723.655L912.192 724.09L903.137 708.302L905.321 724.99L902.976 725.296L900.442 705.937L903.769 705.501L912.824 721.29L910.64 704.602L912.985 704.295Z" fill="#2386DD"/>
<path d="M924.503 701.677C926.013 701.376 927.376 701.505 928.591 702.067C929.788 702.631 930.814 703.604 931.67 704.985C932.507 706.37 933.138 708.122 933.562 710.244C933.992 712.401 934.087 714.28 933.846 715.88C933.587 717.483 933.013 718.776 932.125 719.757C931.218 720.742 930.01 721.385 928.5 721.687C926.99 721.989 925.636 721.857 924.439 721.292C923.224 720.731 922.198 719.758 921.36 718.374C920.505 716.993 919.862 715.224 919.431 713.067C919.007 710.945 918.925 709.083 919.184 707.479C919.425 705.879 919.999 704.587 920.905 703.602C921.794 702.621 922.993 701.979 924.503 701.677ZM924.956 703.943C923.967 704.14 923.188 704.595 922.62 705.307C922.037 706.04 921.681 707.018 921.551 708.24C921.422 709.463 921.524 710.91 921.858 712.582C922.192 714.254 922.653 715.629 923.243 716.708C923.836 717.805 924.542 718.58 925.362 719.033C926.163 719.49 927.059 719.619 928.048 719.422C929.036 719.224 929.822 718.759 930.405 718.026C930.969 717.296 931.315 716.311 931.441 715.07C931.571 713.848 931.468 712.401 931.134 710.729C930.8 709.057 930.339 707.681 929.749 706.603C929.16 705.524 928.464 704.756 927.663 704.299C926.847 703.864 925.944 703.745 924.956 703.943Z" fill="#2386DD"/>
<path d="M964.53 690.837L972.894 708.609L970.553 709.413L962.947 692.834L963.207 692.744L966.354 708.527L963.961 709.348L956.756 694.957L957.016 694.868L961.189 712.625L958.848 713.428L954.541 694.263L957.923 693.103L964.845 707.01L964.22 707.224L961.148 691.997L964.53 690.837Z" fill="#2386DD"/>
<path d="M976.286 685.647C977.706 685.051 979.068 684.908 980.37 685.217C981.655 685.533 982.854 686.283 983.966 687.467C985.062 688.657 986.028 690.25 986.864 692.246C987.714 694.275 988.18 696.097 988.261 697.713C988.325 699.336 988.019 700.717 987.343 701.855C986.65 703 985.594 703.87 984.173 704.466C982.753 705.061 981.4 705.2 980.115 704.884C978.812 704.575 977.613 703.826 976.518 702.635C975.406 701.451 974.424 699.845 973.574 697.816C972.738 695.82 972.288 694.011 972.224 692.388C972.143 690.772 972.449 689.392 973.142 688.247C973.818 687.108 974.866 686.242 976.286 685.647ZM977.179 687.777C976.249 688.167 975.576 688.767 975.16 689.577C974.735 690.411 974.58 691.441 974.695 692.664C974.81 693.888 975.198 695.286 975.857 696.859C976.516 698.431 977.241 699.688 978.033 700.628C978.831 701.586 979.678 702.205 980.571 702.487C981.447 702.775 982.35 702.725 983.28 702.335C984.21 701.945 984.888 701.333 985.314 700.499C985.722 699.672 985.865 698.638 985.743 697.397C985.628 696.173 985.24 694.775 984.581 693.202C983.922 691.63 983.197 690.373 982.405 689.433C981.613 688.493 980.779 687.878 979.903 687.589C979.017 687.325 978.109 687.387 977.179 687.777Z" fill="#2386DD"/>
<path d="M998.566 675.617L1007.29 693.083L1004.29 694.583L990.57 682.625L998.093 697.68L995.977 698.738L987.25 681.272L990.251 679.772L1003.97 691.729L996.45 676.674L998.566 675.617Z" fill="#2386DD"/>
<path d="M1024.44 669.785C1024.84 669.525 1025.28 669.445 1025.76 669.546C1026.24 669.648 1026.61 669.898 1026.87 670.297C1027.13 670.696 1027.21 671.137 1027.11 671.619C1027.01 672.101 1026.76 672.473 1026.36 672.733C1025.96 672.994 1025.52 673.073 1025.04 672.972C1024.56 672.87 1024.19 672.62 1023.93 672.221C1023.66 671.822 1023.59 671.381 1023.69 670.899C1023.79 670.417 1024.04 670.046 1024.44 669.785Z" fill="#2386DD"/>
<path d="M1044.34 644.039C1045.4 643.158 1046.51 642.594 1047.69 642.348C1048.88 642.103 1050.03 642.154 1051.16 642.502C1052.3 642.865 1053.33 643.517 1054.26 644.46L1052.47 646.173C1051.75 645.51 1051.01 645.053 1050.25 644.803C1049.47 644.564 1048.72 644.529 1047.97 644.697C1047.21 644.876 1046.48 645.259 1045.78 645.847C1045.08 646.435 1044.56 647.013 1044.22 647.582C1043.89 648.164 1043.75 648.724 1043.8 649.262C1043.84 649.825 1044.06 650.346 1044.46 650.824C1044.86 651.302 1045.31 651.623 1045.83 651.787C1046.35 651.977 1047.04 651.973 1047.9 651.777C1048.75 651.593 1049.9 651.175 1051.34 650.523C1052.62 649.949 1053.74 649.567 1054.68 649.378C1055.61 649.201 1056.43 649.242 1057.15 649.501C1057.85 649.773 1058.52 650.281 1059.14 651.027C1059.84 651.871 1060.26 652.774 1060.4 653.737C1060.53 654.725 1060.37 655.706 1059.92 656.681C1059.48 657.67 1058.75 658.593 1057.72 659.451C1056.69 660.309 1055.64 660.833 1054.55 661.022C1053.48 661.225 1052.43 661.145 1051.41 660.78C1050.38 660.427 1049.42 659.84 1048.54 659.019L1050.34 657.306C1050.93 657.84 1051.55 658.228 1052.2 658.469C1052.87 658.724 1053.55 658.791 1054.24 658.67C1054.92 658.55 1055.61 658.207 1056.28 657.643C1057.21 656.867 1057.76 656.025 1057.93 655.117C1058.12 654.222 1057.91 653.416 1057.31 652.698C1056.92 652.234 1056.5 651.929 1056.04 651.785C1055.59 651.665 1055 651.704 1054.28 651.9C1053.57 652.109 1052.63 652.474 1051.47 652.995C1049.96 653.68 1048.67 654.111 1047.6 654.288C1046.52 654.477 1045.57 654.406 1044.77 654.074C1043.96 653.767 1043.21 653.199 1042.52 652.369C1041.86 651.581 1041.5 650.702 1041.43 649.733C1041.36 648.764 1041.57 647.787 1042.06 646.803C1042.56 645.818 1043.31 644.897 1044.34 644.039Z" fill="#2386DD"/>
<path d="M1059.19 631.249L1071.08 643.698L1075.4 639.576L1076.99 641.246L1066.65 651.123L1065.06 649.453L1069.37 645.331L1057.48 632.882L1059.19 631.249Z" fill="#2386DD"/>
<path d="M1075.24 614.401L1089.65 627.574L1087.39 630.051L1070.29 623.811L1082.71 635.166L1081.12 636.911L1066.7 623.739L1068.97 621.262L1086.07 627.502L1073.64 616.147L1075.24 614.401Z" fill="#2386DD"/>
<path d="M1086.31 600.744L1101.57 612.929L1094.15 622.212L1092.35 620.77L1098.29 613.336L1093.36 609.405L1087.63 616.582L1085.87 615.175L1091.6 607.998L1086.64 604.034L1080.56 611.64L1078.76 610.199L1086.31 600.744Z" fill="#2386DD"/>
<path d="M1095.92 591.108L1110.43 596.747L1110.3 596.928L1096.1 587.008L1097.45 585.069L1113.46 596.249L1111.41 599.18L1096.04 593.14L1096.67 592.239L1107.63 604.591L1105.59 607.522L1089.58 596.342L1090.93 594.403L1105.14 604.323L1105.01 604.503L1094.72 592.822L1095.92 591.108Z" fill="#2386DD"/>
<path d="M1103.93 574.48L1110.76 578.589L1123.75 579.402L1122.36 581.712L1112.24 580.826L1117.77 589.348L1116.38 591.658L1109.54 580.616L1102.71 576.507L1103.93 574.48Z" fill="#2386DD"/>
<path d="M1115.56 552.913L1130.2 567.136L1128.74 569.972L1108.66 566.31L1109.82 564.061L1127.56 567.572L1114.4 555.162L1115.56 552.913ZM1119.13 558.122L1120.8 559.914L1117.4 566.514L1114.97 566.189L1119.13 558.122Z" fill="#2386DD"/>
<path d="M1122.12 537.911L1140.03 545.683L1137.67 551.132C1137.13 552.377 1136.44 553.367 1135.6 554.102C1134.76 554.837 1133.82 555.278 1132.78 555.425C1131.75 555.579 1130.67 555.409 1129.52 554.912C1128.38 554.416 1127.51 553.737 1126.9 552.875C1126.31 552.02 1126 551.035 1125.97 549.92C1125.93 548.806 1126.18 547.626 1126.72 546.381L1128.14 543.102L1121.18 540.081L1122.12 537.911ZM1130.26 544.021L1128.95 547.049C1128.34 548.461 1128.17 549.628 1128.45 550.549C1128.75 551.477 1129.43 552.175 1130.51 552.642C1131.6 553.116 1132.58 553.141 1133.45 552.716C1134.31 552.292 1135.05 551.373 1135.66 549.96L1136.97 546.933L1130.26 544.021Z" fill="#2386DD"/>
<path d="M1133.39 503.466L1152.19 508.739L1150.94 513.187C1150.48 514.811 1149.72 516.12 1148.64 517.112C1147.57 518.127 1146.24 518.763 1144.65 519.02C1143.07 519.3 1141.27 519.157 1139.26 518.593C1137.24 518.028 1135.63 517.215 1134.43 516.153C1133.22 515.109 1132.42 513.876 1132.04 512.455C1131.65 511.052 1131.68 509.538 1132.14 507.914L1133.39 503.466ZM1134.97 506.367L1134.4 508.406C1133.89 510.241 1134.08 511.828 1134.98 513.166C1135.89 514.527 1137.54 515.541 1139.92 516.21C1142.31 516.878 1144.24 516.869 1145.73 516.182C1147.23 515.517 1148.24 514.267 1148.75 512.431L1149.32 510.392L1134.97 506.367Z" fill="#2386DD"/>
<path d="M1137.21 486.026L1156.32 490.033L1155.84 492.348L1137.81 488.566L1139.23 487.657L1136.99 498.342L1134.73 497.868L1137.21 486.026Z" fill="#2386DD"/>
<path d="M1140.04 467.281L1159.37 469.999L1158.54 475.881C1158.26 477.914 1157.51 479.448 1156.31 480.483C1155.13 481.52 1153.64 481.912 1151.84 481.66C1150.94 481.532 1150.16 481.21 1149.51 480.693C1148.88 480.178 1148.41 479.566 1148.1 478.856C1147.79 478.147 1147.66 477.443 1147.7 476.745L1148.04 476.682C1147.79 477.961 1147.35 478.88 1146.71 479.439C1146.08 480.016 1145.13 480.272 1143.88 480.207L1138.26 479.917L1138.59 477.575L1143.91 477.851C1144.52 477.88 1145.02 477.803 1145.41 477.618C1145.83 477.454 1146.15 477.138 1146.38 476.671C1146.63 476.224 1146.81 475.583 1146.93 474.748L1147.49 470.718L1139.71 469.623L1140.04 467.281ZM1149.78 471.039L1149.28 474.579C1149.1 475.923 1149.25 476.991 1149.75 477.783C1150.27 478.578 1151.08 479.053 1152.19 479.209C1153.31 479.367 1154.23 479.134 1154.92 478.51C1155.62 477.886 1156.07 476.903 1156.26 475.559L1156.75 472.019L1149.78 471.039Z" fill="#2386DD"/>
<path d="M1140.57 455.483C1140.68 453.947 1141.17 452.667 1142.03 451.645C1142.89 450.64 1144.1 449.909 1145.66 449.451C1147.22 449.011 1149.08 448.868 1151.23 449.023C1153.43 449.18 1155.26 449.587 1156.74 450.244C1158.22 450.92 1159.31 451.816 1160.02 452.933C1160.73 454.068 1161.03 455.404 1160.92 456.94C1160.81 458.476 1160.33 459.746 1159.46 460.75C1158.6 461.773 1157.39 462.504 1155.83 462.944C1154.28 463.402 1152.4 463.553 1150.2 463.396C1148.05 463.241 1146.23 462.826 1144.75 462.151C1143.27 461.494 1142.18 460.597 1141.47 459.462C1140.76 458.345 1140.46 457.019 1140.57 455.483ZM1142.87 455.648C1142.8 456.653 1143.03 457.525 1143.57 458.261C1144.12 459.018 1144.97 459.621 1146.11 460.07C1147.26 460.52 1148.68 460.805 1150.38 460.927C1152.08 461.049 1153.53 460.969 1154.73 460.687C1155.94 460.406 1156.88 459.931 1157.53 459.261C1158.18 458.609 1158.55 457.781 1158.62 456.775C1158.69 455.769 1158.45 454.888 1157.9 454.132C1157.34 453.393 1156.49 452.799 1155.32 452.348C1154.18 451.899 1152.76 451.613 1151.06 451.491C1149.36 451.37 1147.91 451.45 1146.71 451.732C1145.51 452.014 1144.59 452.48 1143.94 453.132C1143.3 453.803 1142.95 454.642 1142.87 455.648Z" fill="#2386DD"/>
<path d="M1141.68 432.12L1161.21 430.076L1161.2 432.551L1143.04 434.272L1143.04 433.997L1158.98 436.224L1158.97 438.754L1143.01 440.817L1143.01 440.542L1161.15 442.45L1161.14 444.925L1141.62 442.68L1141.64 439.105L1157.05 437.149L1157.05 437.809L1141.66 435.695L1141.68 432.12Z" fill="#2386DD"/>
<path d="M1138.63 395.788L1158 393.31L1158.3 395.656L1140.02 397.994L1141.07 396.668L1142.46 407.497L1140.17 407.79L1138.63 395.788Z" fill="#2386DD"/>
<path d="M1134.92 375.968L1155.22 378.024L1155.84 381.153L1137.83 390.754L1137.34 388.271L1153.43 380.003L1135.41 378.45L1134.92 375.968ZM1140.95 377.835L1143.37 378.199L1144.81 385.484L1142.7 386.739L1140.95 377.835Z" fill="#2386DD"/>
<path d="M1130.73 360.137L1149.6 355.093L1152.66 366.569L1150.43 367.166L1147.97 357.974L1141.89 359.601L1144.26 368.474L1142.09 369.057L1139.71 360.184L1133.58 361.825L1136.09 371.229L1133.86 371.826L1130.73 360.137Z" fill="#2386DD"/>
<path d="M1124.88 342.398L1143.37 336.116L1145.28 341.74C1145.94 343.684 1145.96 345.389 1145.36 346.853C1144.77 348.312 1143.62 349.333 1141.9 349.917C1141.03 350.212 1140.19 350.275 1139.38 350.106C1138.58 349.931 1137.89 349.595 1137.29 349.1C1136.7 348.605 1136.26 348.037 1135.99 347.395L1136.26 347.184C1136.61 348.44 1136.63 349.461 1136.32 350.245C1136.01 351.047 1135.28 351.701 1134.14 352.206L1128.98 354.479L1128.22 352.24L1133.1 350.09C1133.65 349.843 1134.07 349.548 1134.34 349.204C1134.63 348.872 1134.78 348.445 1134.77 347.924C1134.79 347.413 1134.67 346.759 1134.4 345.96L1133.09 342.107L1125.64 344.637L1124.88 342.398ZM1135.27 341.364L1136.42 344.748C1136.86 346.033 1137.48 346.916 1138.28 347.399C1139.1 347.875 1140.04 347.934 1141.1 347.574C1142.18 347.208 1142.89 346.589 1143.23 345.718C1143.57 344.846 1143.53 343.768 1143.09 342.484L1141.94 339.099L1135.27 341.364Z" fill="#2386DD"/>
<path d="M1110.09 309.308L1127.58 300.629L1130.22 305.95C1131.14 307.789 1131.39 309.475 1130.98 311.007C1130.59 312.531 1129.59 313.696 1127.96 314.503C1127.14 314.91 1126.31 315.084 1125.49 315.024C1124.67 314.956 1123.94 314.716 1123.29 314.304C1122.63 313.892 1122.13 313.386 1121.77 312.787L1122.01 312.541C1122.53 313.74 1122.68 314.749 1122.47 315.568C1122.27 316.404 1121.64 317.148 1120.57 317.801L1115.76 320.738L1114.71 318.619L1119.26 315.841C1119.78 315.523 1120.15 315.176 1120.37 314.799C1120.62 314.431 1120.7 313.989 1120.63 313.472C1120.58 312.963 1120.37 312.331 1120 311.576L1118.19 307.93L1111.14 311.426L1110.09 309.308ZM1120.26 306.903L1121.85 310.106C1122.45 311.321 1123.18 312.115 1124.04 312.486C1124.92 312.85 1125.86 312.783 1126.86 312.286C1127.88 311.78 1128.5 311.073 1128.72 310.164C1128.95 309.254 1128.76 308.192 1128.15 306.977L1126.57 303.774L1120.26 306.903Z" fill="#2386DD"/>
<path d="M1103.87 299.272C1103.09 297.943 1102.77 296.612 1102.9 295.281C1103.05 293.965 1103.63 292.677 1104.66 291.419C1105.69 290.176 1107.15 289.008 1109.01 287.916C1110.91 286.805 1112.66 286.103 1114.25 285.81C1115.85 285.532 1117.26 285.653 1118.47 286.173C1119.7 286.709 1120.7 287.641 1121.48 288.97C1122.26 290.3 1122.58 291.622 1122.43 292.938C1122.3 294.27 1121.71 295.557 1120.68 296.8C1119.65 298.059 1118.19 299.244 1116.29 300.355C1114.42 301.447 1112.69 302.132 1111.09 302.409C1109.49 302.703 1108.09 302.582 1106.86 302.046C1105.64 301.526 1104.64 300.601 1103.87 299.272ZM1105.86 298.106C1106.37 298.976 1107.05 299.564 1107.91 299.869C1108.79 300.181 1109.84 300.199 1111.03 299.923C1112.23 299.647 1113.57 299.079 1115.04 298.218C1116.51 297.357 1117.66 296.472 1118.49 295.564C1119.33 294.645 1119.83 293.725 1119.99 292.802C1120.16 291.896 1120 291.007 1119.49 290.137C1118.98 289.266 1118.28 288.675 1117.4 288.363C1116.52 288.068 1115.48 288.062 1114.27 288.347C1113.07 288.623 1111.73 289.191 1110.26 290.052C1108.79 290.913 1107.64 291.798 1106.81 292.707C1105.99 293.616 1105.49 294.523 1105.32 295.43C1105.17 296.344 1105.35 297.235 1105.86 298.106Z" fill="#2386DD"/>
<path d="M1091.45 279.196L1107.6 268.235L1114.4 278.249L1112.53 279.515L1106.39 270.457L1108.02 270.81L1100.6 275.843L1100.92 274.162L1106.79 282.81L1104.92 284.076L1099.06 275.428L1100.74 275.75L1092.77 281.153L1091.45 279.196Z" fill="#2386DD"/>
<path d="M1081.79 253.615C1081.48 253.254 1081.34 252.828 1081.38 252.337C1081.41 251.846 1081.61 251.444 1081.97 251.133C1082.33 250.821 1082.76 250.683 1083.25 250.719C1083.74 250.755 1084.14 250.953 1084.45 251.313C1084.76 251.674 1084.9 252.1 1084.87 252.591C1084.83 253.083 1084.63 253.484 1084.27 253.796C1083.91 254.108 1083.49 254.245 1082.99 254.21C1082.5 254.174 1082.1 253.976 1081.79 253.615Z" fill="#2386DD"/>
<path d="M1053.68 237.269C1052.67 236.339 1051.96 235.305 1051.56 234.168C1051.16 233.03 1051.06 231.879 1051.26 230.716C1051.47 229.539 1051.98 228.428 1052.79 227.381L1054.73 228.933C1054.16 229.736 1053.81 230.53 1053.66 231.314C1053.52 232.112 1053.59 232.868 1053.85 233.583C1054.13 234.311 1054.61 234.985 1055.28 235.605C1055.96 236.225 1056.6 236.665 1057.21 236.924C1057.83 237.17 1058.4 237.236 1058.93 237.123C1059.48 237.009 1059.97 236.722 1060.39 236.263C1060.81 235.804 1061.07 235.306 1061.16 234.77C1061.28 234.233 1061.19 233.549 1060.88 232.719C1060.59 231.901 1060.02 230.822 1059.19 229.483C1058.45 228.281 1057.92 227.227 1057.61 226.319C1057.31 225.423 1057.25 224.602 1057.41 223.856C1057.59 223.122 1058 222.397 1058.66 221.681C1059.4 220.871 1060.24 220.335 1061.18 220.075C1062.14 219.813 1063.14 219.842 1064.16 220.162C1065.2 220.468 1066.21 221.073 1067.2 221.978C1068.18 222.884 1068.84 223.861 1069.17 224.911C1069.51 225.947 1069.57 226.996 1069.34 228.057C1069.13 229.13 1068.67 230.155 1067.98 231.132L1066.04 229.579C1066.49 228.924 1066.8 228.256 1066.95 227.575C1067.11 226.88 1067.09 226.2 1066.88 225.534C1066.67 224.868 1066.24 224.238 1065.59 223.643C1064.7 222.824 1063.8 222.39 1062.87 222.338C1061.96 222.273 1061.19 222.585 1060.56 223.274C1060.15 223.719 1059.9 224.178 1059.82 224.648C1059.76 225.118 1059.87 225.697 1060.16 226.385C1060.47 227.06 1060.95 227.941 1061.62 229.028C1062.5 230.431 1063.09 231.651 1063.41 232.689C1063.74 233.739 1063.79 234.684 1063.57 235.524C1063.37 236.363 1062.91 237.18 1062.18 237.977C1061.48 238.733 1060.66 239.21 1059.71 239.406C1058.76 239.602 1057.76 239.522 1056.72 239.164C1055.68 238.806 1054.67 238.174 1053.68 237.269Z" fill="#2386DD"/>
<path d="M1039.93 225.499C1038.86 224.638 1038.09 223.652 1037.62 222.543C1037.14 221.434 1036.97 220.293 1037.09 219.119C1037.22 217.931 1037.66 216.788 1038.4 215.691L1040.43 217.113C1039.92 217.95 1039.62 218.766 1039.52 219.559C1039.44 220.363 1039.55 221.113 1039.86 221.81C1040.19 222.518 1040.71 223.159 1041.42 223.733C1042.14 224.308 1042.81 224.704 1043.43 224.924C1044.07 225.128 1044.64 225.157 1045.16 225.009C1045.71 224.859 1046.17 224.541 1046.56 224.055C1046.95 223.569 1047.18 223.056 1047.24 222.515C1047.32 221.971 1047.18 221.295 1046.82 220.487C1046.47 219.69 1045.84 218.65 1044.92 217.368C1044.1 216.218 1043.51 215.2 1043.14 214.315C1042.78 213.441 1042.66 212.626 1042.77 211.87C1042.9 211.126 1043.27 210.375 1043.88 209.618C1044.57 208.761 1045.37 208.171 1046.29 207.85C1047.23 207.526 1048.23 207.49 1049.27 207.741C1050.33 207.979 1051.38 208.517 1052.42 209.355C1053.46 210.194 1054.18 211.126 1054.58 212.152C1054.99 213.164 1055.12 214.206 1054.96 215.279C1054.82 216.364 1054.43 217.417 1053.8 218.438L1051.76 217.015C1052.17 216.332 1052.43 215.646 1052.54 214.956C1052.66 214.252 1052.59 213.574 1052.34 212.924C1052.08 212.273 1051.61 211.672 1050.93 211.121C1049.99 210.363 1049.05 209.988 1048.13 209.998C1047.21 209.993 1046.46 210.354 1045.88 211.083C1045.5 211.555 1045.28 212.028 1045.23 212.503C1045.2 212.975 1045.36 213.546 1045.69 214.213C1046.03 214.867 1046.58 215.715 1047.32 216.756C1048.28 218.098 1048.96 219.276 1049.34 220.291C1049.74 221.317 1049.86 222.256 1049.69 223.109C1049.55 223.959 1049.14 224.806 1048.46 225.649C1047.81 226.449 1047.02 226.978 1046.09 227.236C1045.15 227.495 1044.15 227.479 1043.09 227.19C1042.03 226.901 1040.98 226.338 1039.93 225.499Z" fill="#2386DD"/>
<path d="M1020.72 210.802L1031.94 194.819L1041.66 201.644L1040.34 203.534L1032.55 198.069L1028.93 203.224L1036.45 208.5L1035.15 210.346L1027.64 205.07L1023.99 210.27L1031.96 215.862L1030.63 217.752L1020.72 210.802Z" fill="#2386DD"/>
<path d="M1005.54 201.411L1015.65 184.709L1017.67 185.934L1008.13 201.695L1007.75 200.047L1017.08 205.703L1015.89 207.678L1005.54 201.411Z" fill="#2386DD"/>
<path d="M988.799 192.516L997.798 175.188L1000.78 176.734L999.169 194.864L1006.93 179.928L1009.02 181.018L1000.03 198.346L997.049 196.8L998.654 178.67L990.898 193.606L988.799 192.516Z" fill="#2386DD"/>
<path d="M977.855 188.078C976.443 187.462 975.4 186.576 974.724 185.421C974.064 184.273 973.779 182.888 973.867 181.266C973.971 179.652 974.456 177.853 975.322 175.87C976.202 173.854 977.198 172.258 978.311 171.084C979.44 169.917 980.65 169.184 981.94 168.887C983.247 168.597 984.606 168.76 986.017 169.376C987.429 169.992 988.464 170.874 989.123 172.022C989.799 173.177 990.085 174.562 989.98 176.177C989.892 177.799 989.408 179.618 988.528 181.634C987.663 183.617 986.666 185.192 985.536 186.359C984.423 187.534 983.213 188.266 981.907 188.556C980.617 188.853 979.266 188.694 977.855 188.078ZM978.779 185.961C979.703 186.364 980.602 186.436 981.475 186.177C982.372 185.909 983.223 185.31 984.029 184.381C984.834 183.453 985.578 182.207 986.26 180.644C986.942 179.082 987.35 177.689 987.483 176.467C987.624 175.229 987.487 174.189 987.074 173.348C986.678 172.515 986.017 171.897 985.093 171.494C984.169 171.09 983.258 171.023 982.361 171.291C981.48 171.567 980.634 172.178 979.821 173.123C979.016 174.052 978.272 175.298 977.59 176.86C976.908 178.423 976.5 179.815 976.367 181.037C976.234 182.259 976.365 183.287 976.762 184.12C977.182 184.944 977.855 185.557 978.779 185.961Z" fill="#2386DD"/>
<path d="M955.464 179.01L956.242 176.835L960.825 178.473L965.843 164.438L961.259 162.8L962.037 160.625L973.431 164.698L972.653 166.873L968.07 165.234L963.052 179.27L967.636 180.908L966.858 183.083L955.464 179.01Z" fill="#2386DD"/>
<path d="M944.054 176.075C942.732 175.7 941.636 175.094 940.769 174.256C939.901 173.419 939.294 172.437 938.947 171.309C938.605 170.164 938.561 168.941 938.816 167.642L941.242 168.159C941.1 169.129 941.139 169.997 941.36 170.765C941.598 171.538 941.995 172.184 942.553 172.705C943.128 173.23 943.856 173.618 944.738 173.868C945.62 174.119 946.391 174.223 947.05 174.182C947.715 174.123 948.258 173.924 948.677 173.586C949.12 173.235 949.427 172.76 949.597 172.16C949.767 171.561 949.774 171 949.617 170.479C949.482 169.946 949.091 169.377 948.443 168.774C947.812 168.176 946.823 167.466 945.474 166.645C944.274 165.904 943.331 165.198 942.645 164.526C941.977 163.86 941.547 163.157 941.357 162.417C941.185 161.682 941.231 160.847 941.496 159.912C941.797 158.854 942.307 157.998 943.026 157.345C943.768 156.679 944.668 156.258 945.728 156.083C946.793 155.889 947.969 155.976 949.257 156.341C950.544 156.707 951.572 157.284 952.338 158.074C953.11 158.845 953.633 159.756 953.907 160.806C954.198 161.86 954.252 162.981 954.067 164.167L951.641 163.65C951.751 162.862 951.721 162.129 951.551 161.452C951.386 160.757 951.06 160.16 950.573 159.659C950.086 159.159 949.42 158.789 948.573 158.548C947.409 158.218 946.403 158.237 945.555 158.606C944.712 158.958 944.163 159.583 943.907 160.483C943.742 161.065 943.728 161.585 943.865 162.043C944.024 162.488 944.387 162.953 944.955 163.438C945.527 163.906 946.357 164.475 947.443 165.145C948.857 166.004 949.939 166.826 950.688 167.611C951.455 168.4 951.928 169.22 952.105 170.071C952.306 170.909 952.258 171.849 951.963 172.889C951.682 173.877 951.161 174.672 950.399 175.275C949.637 175.879 948.711 176.254 947.621 176.402C946.531 176.55 945.342 176.441 944.054 176.075Z" fill="#2386DD"/>
<path d="M926.483 171.75C925.138 171.464 924.005 170.932 923.083 170.155C922.161 169.377 921.49 168.438 921.069 167.336C920.651 166.216 920.526 164.999 920.693 163.685L923.148 164.039C923.072 165.016 923.169 165.88 923.44 166.632C923.729 167.387 924.169 168.005 924.76 168.487C925.368 168.973 926.121 169.312 927.018 169.503C927.914 169.693 928.69 169.746 929.346 169.661C930.005 169.558 930.533 169.323 930.93 168.958C931.348 168.578 931.622 168.084 931.752 167.474C931.881 166.865 931.851 166.305 931.659 165.796C931.49 165.272 931.061 164.731 930.374 164.172C929.705 163.617 928.67 162.975 927.27 162.246C926.023 161.587 925.035 160.945 924.306 160.321C923.594 159.701 923.119 159.028 922.88 158.302C922.659 157.581 922.65 156.744 922.852 155.794C923.081 154.718 923.533 153.83 924.207 153.13C924.902 152.416 925.773 151.936 926.819 151.69C927.868 151.427 929.048 151.434 930.357 151.713C931.666 151.992 932.729 152.499 933.547 153.236C934.369 153.954 934.951 154.828 935.294 155.857C935.655 156.89 935.784 158.005 935.679 159.201L933.224 158.847C933.28 158.053 933.201 157.323 932.987 156.659C932.776 155.977 932.411 155.403 931.892 154.936C931.372 154.469 930.682 154.144 929.822 153.961C928.638 153.709 927.636 153.795 926.814 154.22C925.997 154.627 925.49 155.288 925.296 156.202C925.17 156.794 925.19 157.314 925.357 157.762C925.546 158.195 925.94 158.635 926.538 159.081C927.14 159.51 928.006 160.022 929.135 160.619C930.603 161.381 931.737 162.129 932.537 162.862C933.355 163.598 933.881 164.385 934.115 165.222C934.371 166.045 934.386 166.986 934.161 168.044C933.947 169.048 933.48 169.876 932.76 170.529C932.04 171.181 931.141 171.618 930.063 171.838C928.985 172.058 927.792 172.029 926.483 171.75Z" fill="#2386DD"/>
<path d="M902.434 167.288L902.76 165.001L907.578 165.688L909.684 150.933L904.865 150.245L905.191 147.959L917.17 149.667L916.844 151.954L912.025 151.267L909.92 166.022L914.739 166.71L914.412 168.997L902.434 167.288Z" fill="#2386DD"/>
<path d="M889.52 163.969L886.972 148.611L887.191 148.628L885.9 165.905L883.542 165.729L884.996 146.258L888.562 146.524L891.204 162.826L890.108 162.744L895.143 147.016L898.708 147.282L897.254 166.753L894.895 166.577L896.186 149.3L896.405 149.316L891.604 164.125L889.52 163.969Z" fill="#2386DD"/>
<path d="M865.961 165.493L866.121 145.969L872.061 146.018C874.115 146.034 875.733 146.57 876.916 147.625C878.099 148.661 878.683 150.087 878.668 151.902C878.661 152.819 878.443 153.633 878.016 154.344C877.588 155.037 877.043 155.583 876.38 155.981C875.716 156.379 875.036 156.602 874.339 156.652L874.232 156.321C875.533 156.405 876.502 156.724 877.139 157.28C877.795 157.835 878.172 158.736 878.272 159.984L878.721 165.598L876.356 165.578L875.932 160.267C875.882 159.662 875.739 159.175 875.504 158.806C875.287 158.419 874.932 158.141 874.438 157.972C873.963 157.785 873.304 157.688 872.461 157.681L868.391 157.648L868.326 165.513L865.961 165.493ZM868.41 155.338L871.985 155.367C873.341 155.378 874.379 155.084 875.099 154.485C875.819 153.868 876.184 153 876.193 151.882C876.203 150.745 875.852 149.871 875.142 149.26C874.432 148.65 873.399 148.339 872.042 148.327L868.467 148.298L868.41 155.338Z" fill="#2386DD"/>
<path d="M848.402 166.386L847.27 146.893L859.13 146.204L859.264 148.511L849.765 149.062L850.13 155.349L859.3 154.817L859.43 157.068L850.261 157.601L850.629 163.942L860.348 163.378L860.482 165.684L848.402 166.386Z" fill="#2386DD"/>
<path d="M830.392 168.473L827.968 149.099L833.862 148.362C835.208 148.193 836.411 148.283 837.471 148.631C838.53 148.979 839.389 149.564 840.046 150.387C840.701 151.192 841.106 152.213 841.261 153.45C841.416 154.687 841.276 155.786 840.842 156.745C840.405 157.687 839.716 158.457 838.775 159.055C837.833 159.653 836.69 160.036 835.344 160.205L831.796 160.648L832.738 168.18L830.392 168.473ZM831.509 158.356L834.784 157.947C836.312 157.755 837.401 157.305 838.051 156.596C838.699 155.868 838.951 154.922 838.805 153.758C838.657 152.575 838.181 151.72 837.375 151.193C836.57 150.665 835.404 150.497 833.876 150.688L830.601 151.098L831.509 158.356Z" fill="#2386DD"/>
<path d="M803.515 165.415C803.051 165.527 802.609 165.455 802.189 165.198C801.768 164.942 801.502 164.582 801.39 164.119C801.277 163.655 801.35 163.213 801.606 162.793C801.863 162.372 802.222 162.106 802.686 161.994C803.149 161.881 803.591 161.953 804.011 162.21C804.432 162.467 804.698 162.826 804.811 163.29C804.923 163.753 804.851 164.195 804.594 164.615C804.338 165.036 803.978 165.302 803.515 165.415Z" fill="#2386DD"/>
<path d="M769.778 184.899L763.004 166.586L766.151 165.422L778.489 178.803L772.651 163.018L774.869 162.198L781.643 180.51L778.496 181.674L766.157 168.294L771.996 184.078L769.778 184.899Z" fill="#2386DD"/>
<path d="M753.678 191.963L745.704 174.14L756.548 169.288L757.491 171.397L748.806 175.283L751.378 181.031L759.762 177.28L760.683 179.338L752.299 183.09L754.894 188.888L763.78 184.912L764.723 187.021L753.678 191.963Z" fill="#2386DD"/>
<path d="M737.582 200.306L728.439 183.054L733.688 180.272C734.887 179.637 736.043 179.294 737.157 179.243C738.272 179.192 739.282 179.435 740.189 179.971C741.087 180.491 741.827 181.302 742.411 182.404C742.995 183.505 743.254 184.582 743.189 185.633C743.115 186.668 742.744 187.632 742.076 188.525C741.408 189.419 740.475 190.183 739.276 190.818L736.117 192.492L739.671 199.199L737.582 200.306ZM735.036 190.451L737.952 188.906C739.312 188.185 740.171 187.377 740.527 186.483C740.875 185.573 740.774 184.599 740.224 183.562C739.666 182.509 738.917 181.879 737.978 181.672C737.038 181.464 735.887 181.721 734.527 182.442L731.611 183.988L735.036 190.451Z" fill="#2386DD"/>
<path d="M727.228 207.053C725.919 207.865 724.598 208.222 723.263 208.122C721.944 208.013 720.642 207.462 719.356 206.469C718.086 205.467 716.881 204.046 715.74 202.208C714.58 200.339 713.832 198.613 713.496 197.03C713.177 195.438 713.261 194.026 713.748 192.796C714.251 191.555 715.157 190.529 716.466 189.717C717.774 188.905 719.088 188.553 720.407 188.662C721.742 188.761 723.044 189.312 724.314 190.315C725.599 191.308 726.822 192.739 727.983 194.608C729.124 196.446 729.854 198.161 730.174 199.754C730.509 201.337 730.425 202.748 729.922 203.989C729.434 205.219 728.536 206.241 727.228 207.053ZM726.009 205.09C726.866 204.558 727.436 203.86 727.718 202.994C728.007 202.103 727.997 201.062 727.69 199.872C727.382 198.681 726.779 197.362 725.88 195.913C724.981 194.465 724.066 193.339 723.135 192.535C722.195 191.716 721.262 191.238 720.336 191.102C719.425 190.955 718.541 191.148 717.684 191.679C716.827 192.211 716.255 192.923 715.966 193.814C715.694 194.695 715.716 195.739 716.033 196.945C716.34 198.135 716.943 199.454 717.843 200.903C718.742 202.351 719.657 203.478 720.587 204.281C721.517 205.084 722.438 205.559 723.349 205.706C724.266 205.827 725.153 205.622 726.009 205.09Z" fill="#2386DD"/>
<path d="M696.386 218.191C696.012 218.487 695.581 218.607 695.092 218.55C694.602 218.494 694.209 218.279 693.913 217.905C693.617 217.532 693.497 217.101 693.553 216.611C693.61 216.122 693.825 215.729 694.198 215.433C694.572 215.137 695.003 215.017 695.492 215.073C695.982 215.13 696.375 215.344 696.671 215.718C696.967 216.091 697.087 216.523 697.031 217.012C696.974 217.501 696.759 217.894 696.386 218.191Z" fill="#2386DD"/>
<path d="M677.546 246.365L665.364 234.201L661.147 238.424L659.513 236.792L669.617 226.673L671.252 228.305L667.035 232.528L679.217 244.691L677.546 246.365Z" fill="#2386DD"/>
<path d="M661.905 263.59L647.182 250.766L649.385 248.236L666.628 254.064L653.937 243.01L655.49 241.227L670.214 254.051L668.01 256.581L650.767 250.753L663.458 261.807L661.905 263.59Z" fill="#2386DD"/>
<path d="M650.087 278.901L638.151 262.347L640.084 259.809L659.217 266.911L657.684 268.924L640.824 262.377L651.62 276.888L650.087 278.901ZM647.484 273.151L646.146 271.095L650.644 265.188L652.981 265.931L647.484 273.151Z" fill="#2386DD"/>
<path d="M643.534 288.692L629.19 279.173L625.89 284.145L623.966 282.868L631.873 270.953L633.798 272.23L630.498 277.202L644.841 286.722L643.534 288.692Z" fill="#2386DD"/>
<path d="M635.264 303.125C634.583 304.32 633.733 305.238 632.713 305.881C631.693 306.523 630.594 306.878 629.416 306.946C628.222 307.004 627.024 306.754 625.823 306.196L626.905 303.964C627.813 304.334 628.666 304.503 629.464 304.473C630.271 304.426 630.994 304.195 631.632 303.778C632.28 303.345 632.83 302.73 633.284 301.934C633.738 301.137 634.024 300.414 634.141 299.763C634.243 299.104 634.179 298.529 633.951 298.041C633.716 297.527 633.328 297.116 632.787 296.807C632.245 296.499 631.702 296.359 631.159 296.387C630.609 296.39 629.963 296.634 629.223 297.119C628.491 297.588 627.565 298.38 626.446 299.493C625.439 300.481 624.529 301.228 623.713 301.734C622.906 302.224 622.121 302.473 621.357 302.481C620.602 302.473 619.802 302.228 618.958 301.747C618.002 301.203 617.293 300.503 616.83 299.649C616.361 298.769 616.167 297.794 616.25 296.723C616.317 295.643 616.682 294.521 617.344 293.358C618.007 292.195 618.813 291.336 619.763 290.78C620.697 290.215 621.706 289.925 622.791 289.91C623.884 289.879 624.985 290.094 626.093 290.557L625.011 292.789C624.272 292.494 623.553 292.349 622.855 292.352C622.141 292.346 621.483 292.52 620.881 292.873C620.279 293.226 619.76 293.785 619.324 294.549C618.725 295.601 618.503 296.582 618.659 297.494C618.799 298.397 619.275 299.079 620.088 299.542C620.613 299.842 621.115 299.98 621.592 299.956C622.063 299.908 622.602 299.666 623.208 299.231C623.799 298.787 624.55 298.118 625.46 297.223C626.632 296.055 627.689 295.201 628.629 294.66C629.579 294.104 630.488 293.842 631.357 293.872C632.219 293.878 633.12 294.149 634.06 294.684C634.952 295.193 635.599 295.889 636.003 296.773C636.407 297.657 636.55 298.646 636.433 299.74C636.316 300.834 635.927 301.962 635.264 303.125Z" fill="#2386DD"/>
<path d="M623.567 324.92L606.003 316.39L607.469 313.372L625.635 314.49L610.496 307.138L611.529 305.011L629.093 313.54L627.627 316.558L609.461 315.44L624.6 322.792L623.567 324.92Z" fill="#2386DD"/>
<path d="M616.738 341.419L614.597 340.551L616.426 336.04L602.613 330.44L600.784 334.95L598.644 334.082L603.19 322.869L605.331 323.737L603.502 328.248L617.315 333.849L619.144 329.338L621.284 330.206L616.738 341.419Z" fill="#2386DD"/>
<path d="M601.085 363.161C600.958 363.62 600.68 363.971 600.251 364.214C599.823 364.457 599.379 364.515 598.919 364.388C598.46 364.261 598.109 363.983 597.866 363.555C597.623 363.126 597.565 362.682 597.692 362.223C597.819 361.763 598.097 361.412 598.525 361.169C598.954 360.926 599.398 360.868 599.857 360.995C600.317 361.122 600.668 361.4 600.911 361.829C601.154 362.257 601.212 362.701 601.085 363.161Z" fill="#2386DD"/>
<path d="M603.121 395.929C602.887 397.451 602.298 398.687 601.354 399.636C600.413 400.567 599.147 401.197 597.557 401.527C595.969 401.839 594.106 401.83 591.968 401.501C589.794 401.166 587.996 400.611 586.576 399.836C585.159 399.042 584.142 398.06 583.524 396.889C582.91 395.7 582.72 394.344 582.954 392.822C583.189 391.3 583.777 390.074 584.718 389.143C585.661 388.194 586.927 387.563 588.515 387.252C590.105 386.922 591.988 386.924 594.162 387.259C596.3 387.588 598.078 388.15 599.495 388.943C600.916 389.718 601.933 390.701 602.547 391.89C603.165 393.061 603.356 394.407 603.121 395.929ZM600.838 395.577C600.992 394.581 600.832 393.694 600.358 392.916C599.869 392.117 599.073 391.447 597.969 390.906C596.865 390.365 595.47 389.965 593.785 389.705C592.1 389.446 590.65 389.408 589.434 389.591C588.201 389.772 587.231 390.17 586.524 390.785C585.82 391.381 585.391 392.178 585.237 393.174C585.084 394.171 585.252 395.068 585.741 395.867C586.233 396.648 587.04 397.31 588.162 397.854C589.265 398.395 590.66 398.795 592.345 399.055C594.03 399.314 595.48 399.352 596.696 399.169C597.911 398.985 598.871 398.595 599.575 397.998C600.264 397.381 600.685 396.574 600.838 395.577Z" fill="#2386DD"/>
<path d="M600.081 419.618L580.628 417.935L581.14 412.017C581.257 410.666 581.597 409.508 582.158 408.545C582.72 407.581 583.472 406.864 584.415 406.394C585.339 405.921 586.422 405.739 587.664 405.846C588.906 405.954 589.951 406.32 590.798 406.946C591.628 407.569 592.236 408.404 592.624 409.45C593.012 410.496 593.148 411.694 593.031 413.046L592.723 416.608L600.285 417.262L600.081 419.618ZM590.421 416.408L590.706 413.121C590.839 411.586 590.626 410.427 590.068 409.643C589.492 408.857 588.62 408.413 587.451 408.312C586.263 408.21 585.328 408.497 584.643 409.174C583.959 409.85 583.551 410.956 583.418 412.49L583.134 415.778L590.421 416.408Z" fill="#2386DD"/>
<path d="M597.456 432.97L582.263 436.361L582.267 436.141L599.589 436.477L599.543 438.842L580.021 438.463L580.091 434.889L596.222 431.351L596.201 432.451L580.219 428.29L580.288 424.716L599.809 425.094L599.763 427.459L582.442 427.123L582.446 426.903L597.497 430.88L597.456 432.97Z" fill="#2386DD"/>
<path d="M600.272 455.859L580.769 456.801L580.196 444.935L582.504 444.823L582.963 454.327L589.253 454.023L588.81 444.849L591.062 444.74L591.505 453.915L597.85 453.608L597.381 443.884L599.688 443.773L600.272 455.859Z" fill="#2386DD"/>
<path d="M601.654 469.326L584.552 471.291L585.233 477.22L582.938 477.483L581.306 463.277L583.601 463.013L584.282 468.942L601.384 466.976L601.654 469.326Z" fill="#2386DD"/>
<path d="M608.557 503.667C608.933 505.16 608.871 506.528 608.371 507.769C607.866 508.993 606.945 510.066 605.608 510.988C604.267 511.893 602.547 512.61 600.449 513.138C598.316 513.675 596.444 513.863 594.834 513.701C593.22 513.521 591.901 513.012 590.876 512.173C589.848 511.317 589.146 510.142 588.77 508.649C588.394 507.155 588.458 505.797 588.963 504.573C589.463 503.332 590.384 502.258 591.726 501.354C593.062 500.431 594.798 499.701 596.931 499.164C599.029 498.636 600.885 498.462 602.499 498.641C604.109 498.803 605.429 499.312 606.457 500.169C607.481 501.007 608.181 502.173 608.557 503.667ZM606.317 504.231C606.071 503.253 605.578 502.498 604.839 501.966C604.078 501.42 603.084 501.113 601.856 501.043C600.629 500.974 599.189 501.148 597.535 501.564C595.882 501.98 594.531 502.51 593.483 503.152C592.417 503.798 591.678 504.542 591.265 505.383C590.849 506.206 590.764 507.107 591.01 508.085C591.256 509.062 591.76 509.824 592.521 510.37C593.278 510.898 594.279 511.194 595.524 511.259C596.751 511.328 598.191 511.154 599.845 510.738C601.498 510.322 602.849 509.792 603.897 509.15C604.946 508.508 605.678 507.776 606.095 506.952C606.489 506.116 606.563 505.209 606.317 504.231Z" fill="#2386DD"/>
<path d="M613.562 522.302L597.189 527.618L599.032 533.294L596.834 534.007L592.419 520.406L594.616 519.693L596.459 525.369L612.832 520.053L613.562 522.302Z" fill="#2386DD"/>
<path d="M629.267 559.976L611.665 568.426L609.666 564.261C608.936 562.741 608.648 561.252 608.803 559.795C608.933 558.329 609.512 556.973 610.541 555.727C611.545 554.472 612.989 553.392 614.873 552.488C616.758 551.583 618.503 551.132 620.11 551.133C621.71 551.118 623.122 551.517 624.347 552.333C625.564 553.131 626.538 554.291 627.268 555.811L629.267 559.976ZM626.161 558.844L625.245 556.935C624.42 555.216 623.227 554.151 621.668 553.741C620.083 553.322 618.176 553.648 615.945 554.719C613.713 555.79 612.266 557.075 611.602 558.573C610.914 560.063 610.983 561.667 611.808 563.386L612.724 565.294L626.161 558.844Z" fill="#2386DD"/>
<path d="M638.041 575.842L621.041 585.446L615.198 575.102L617.209 573.966L621.889 582.25L627.372 579.153L622.854 571.156L624.818 570.047L629.335 578.044L634.866 574.919L630.078 566.443L632.089 565.307L638.041 575.842Z" fill="#2386DD"/>
<path d="M645.325 587.221L638.662 591.604L632.306 602.959L630.825 600.707L636.005 591.968L625.929 593.263L624.448 591.012L637.362 589.628L644.025 585.246L645.325 587.221Z" fill="#2386DD"/>
<path d="M655.557 600.752C656.489 601.978 656.969 603.26 656.996 604.599C657.012 605.922 656.586 607.271 655.719 608.644C654.84 610.003 653.54 611.337 651.818 612.646C650.067 613.978 648.419 614.885 646.875 615.368C645.32 615.837 643.906 615.887 642.635 615.517C641.353 615.133 640.246 614.328 639.314 613.103C638.382 611.877 637.908 610.602 637.892 609.278C637.864 607.94 638.29 606.592 639.169 605.233C640.036 603.859 641.345 602.507 643.096 601.175C644.819 599.866 646.457 598.977 648.012 598.509C649.557 598.025 650.97 597.976 652.252 598.36C653.523 598.729 654.625 599.527 655.557 600.752ZM653.718 602.151C653.108 601.348 652.358 600.847 651.47 600.647C650.555 600.444 649.52 600.552 648.364 600.97C647.208 601.389 645.952 602.114 644.594 603.146C643.237 604.178 642.203 605.195 641.49 606.197C640.764 607.21 640.376 608.184 640.327 609.119C640.267 610.04 640.542 610.902 641.153 611.704C641.763 612.507 642.525 613.01 643.44 613.213C644.343 613.401 645.38 613.281 646.55 612.851C647.706 612.433 648.963 611.708 650.32 610.676C651.677 609.644 652.712 608.627 653.424 607.625C654.136 606.623 654.522 605.662 654.582 604.741C654.616 603.817 654.328 602.953 653.718 602.151Z" fill="#2386DD"/>
<path d="M670.307 619.186L655.585 632.012L654.032 630.229L667.924 618.125L667.788 619.812L660.616 611.58L662.358 610.063L670.307 619.186Z" fill="#2386DD"/>
<path d="M683.161 632.359L669.323 646.133L665.132 641.923C664.175 640.961 663.51 639.955 663.137 638.904C662.763 637.853 662.701 636.816 662.949 635.793C663.185 634.782 663.745 633.837 664.628 632.957C665.512 632.078 666.466 631.516 667.491 631.272C668.502 631.041 669.533 631.115 670.582 631.493C671.631 631.872 672.634 632.542 673.591 633.503L676.113 636.037L681.493 630.683L683.161 632.359ZM674.476 637.667L672.148 635.328C671.062 634.236 670.039 633.651 669.08 633.571C668.108 633.503 667.206 633.884 666.374 634.712C665.53 635.552 665.145 636.452 665.221 637.412C665.296 638.371 665.877 639.397 666.964 640.488L669.292 642.827L674.476 637.667Z" fill="#2386DD"/>
<path d="M696.692 644.426L683.834 659.12L674.894 651.296L676.415 649.558L683.576 655.824L687.723 651.085L680.811 645.036L682.296 643.339L689.208 649.388L693.391 644.607L686.065 638.196L687.587 636.458L696.692 644.426Z" fill="#2386DD"/>
<path d="M710.976 655.594L699.084 671.08L695.42 668.266C694.082 667.239 693.153 666.04 692.634 664.67C692.088 663.304 691.993 661.832 692.348 660.256C692.678 658.683 693.479 657.068 694.752 655.41C696.025 653.752 697.379 652.561 698.813 651.837C700.233 651.101 701.674 650.821 703.135 650.995C704.582 651.158 705.974 651.753 707.312 652.78L710.976 655.594ZM707.693 655.986L706.014 654.696C704.501 653.535 702.957 653.123 701.38 653.461C699.777 653.802 698.222 654.954 696.715 656.917C695.208 658.88 694.496 660.68 694.58 662.316C694.638 663.956 695.424 665.357 696.936 666.518L698.615 667.808L707.693 655.986Z" fill="#2386DD"/>
<rect width="1742" height="79" transform="matrix(1 0 0 -1 0 675)" fill="url(#paint3_linear_611_2)"/>
<path d="M1016.43 318.103C1020.33 318.103 1023.15 321.885 1021.89 325.61L997.184 398.622C995.873 402.501 992.195 405.1 988.076 405.101H916.168C913.311 405.101 910.796 406.902 909.905 409.54V409.541L856.734 566.624C855.465 570.382 851.977 572.938 848.015 573.095L847.63 573.103H770.681C766.779 573.103 763.956 569.32 765.217 565.595L818.335 408.653C818.916 406.935 817.627 405.107 815.713 405.106H743.958C740.057 405.106 737.233 401.324 738.494 397.599L763.204 324.581C764.514 320.702 768.189 318.103 772.309 318.103H1016.43Z" fill="white" stroke="#2386DD" stroke-width="3"/>
</g>
<defs>
<linearGradient id="paint0_linear_611_2" x1="871" y1="0" x2="871" y2="64.9999" gradientUnits="userSpaceOnUse">
<stop stop-color="white"/>
<stop offset="1" stop-color="white" stop-opacity="0"/>
</linearGradient>
<linearGradient id="paint1_linear_611_2" x1="871" y1="0" x2="871" y2="70" gradientUnits="userSpaceOnUse">
<stop stop-color="white"/>
<stop offset="1" stop-color="white" stop-opacity="0"/>
</linearGradient>
<linearGradient id="paint2_linear_611_2" x1="871.5" y1="1209" x2="871.5" y2="1287" gradientUnits="userSpaceOnUse">
<stop stop-color="white"/>
<stop offset="1" stop-color="white" stop-opacity="0"/>
</linearGradient>
<linearGradient id="paint3_linear_611_2" x1="871" y1="0" x2="871" y2="79" gradientUnits="userSpaceOnUse">
<stop stop-color="white"/>
<stop offset="1" stop-color="white" stop-opacity="0"/>
</linearGradient>
<clipPath id="clip0_611_2">
<rect width="1742" height="675" fill="white"/>
</clipPath>
</defs>
</svg>
