<svg width="1200" height="675" viewBox="0 0 1200 675" fill="none" xmlns="http://www.w3.org/2000/svg">
<g clip-path="url(#clip0_617_948)">
<rect width="1200" height="675" fill="white"/>
<g opacity="0.3">
<path d="M299 67.9902V112.844H277.85V137.714H258.738V262.253H277.85V287.128H299V331.935H-56V287.128H-34.8496V262.253H-15.7383V137.714H-34.8496V112.844H-56V67.9902L121.5 1.06836L299 67.9902ZM-46.0996 322.03H289.1V297.023H-46.0996V322.03ZM-24.9502 287.128H37.8828V272.152H-24.9502V287.128ZM47.7832 137.714H28.6719V262.253H47.7832V287.128H80.1836V262.253H99.2949V137.714H80.1836V112.844H47.7832V137.714ZM90.084 287.128H152.916V272.152H90.084V287.128ZM162.816 137.714H143.705V262.253H162.816V287.128H195.217V262.253H214.328V137.714H195.217V112.844H162.816V137.714ZM205.117 287.124H267.95V272.148H205.117V287.124ZM-5.83789 262.253H18.7715V137.714H-5.83789V262.253ZM109.195 262.253H133.805V137.714H109.195V262.253ZM224.229 262.253H248.838V261.253L248.834 138.714V137.714H224.229V262.253ZM-24.9502 127.814H37.8828V112.844H-24.9502V127.814ZM90.084 127.814H152.916V112.844H90.084V127.814ZM205.117 127.814H267.95V112.844H205.117V127.814ZM289.1 74.8379L288.453 74.5938L121.853 11.7812L121.5 11.6484L121.147 11.7812L-45.4531 74.5938L-46.0996 74.8379V102.943H289.1V74.8379Z" stroke="black" stroke-width="2"/>
</g>
<g opacity="0.3">
<path d="M901 400.99V445.844H922.15V470.714H941.262V595.253H922.15V620.128H901V664.935H1256V620.128H1234.85V595.253H1215.74V470.714H1234.85V445.844H1256V400.99L1078.5 334.068L901 400.99ZM1246.1 655.03H910.9V630.023H1246.1V655.03ZM1224.95 620.128H1162.12V605.152H1224.95V620.128ZM1152.22 470.714H1171.33V595.253H1152.22V620.128H1119.82V595.253H1100.71V470.714H1119.82V445.844H1152.22V470.714ZM1109.92 620.128H1047.08V605.152H1109.92V620.128ZM1037.18 470.714H1056.29V595.253H1037.18V620.128H1004.78V595.253H985.672V470.714H1004.78V445.844H1037.18V470.714ZM994.883 620.124H932.05V605.148H994.883V620.124ZM1205.84 595.253H1181.23V470.714H1205.84V595.253ZM1090.8 595.253H1066.2V470.714H1090.8V595.253ZM975.771 595.253H951.162V594.253L951.166 471.714V470.714H975.771V595.253ZM1224.95 460.814H1162.12V445.844H1224.95V460.814ZM1109.92 460.814H1047.08V445.844H1109.92V460.814ZM994.883 460.814H932.05V445.844H994.883V460.814ZM910.9 407.838L911.547 407.594L1078.15 344.781L1078.5 344.648L1078.85 344.781L1245.45 407.594L1246.1 407.838V435.943H910.9V407.838Z" stroke="black" stroke-width="2"/>
</g>
<rect opacity="0.3" x="375" y="154" width="451" height="558" rx="13" stroke="black" stroke-width="2"/>
<rect width="1200" height="129" fill="url(#paint0_linear_617_948)"/>
<rect width="1200" height="129" transform="matrix(1 0 0 -1 0 675)" fill="url(#paint1_linear_617_948)"/>
<path d="M0 0L-2.95052e-05 675L100 675L100 4.37114e-06L0 0Z" fill="url(#paint2_linear_617_948)"/>
<path d="M1200 0L1200 675L1118 675L1118 3.58434e-06L1200 0Z" fill="url(#paint3_linear_617_948)"/>
<rect x="417" y="253" width="163" height="8" fill="#D9D9D9"/>
<rect width="163" height="8" transform="matrix(1 0 0 -1 417 613)" fill="#D9D9D9"/>
<rect x="417" y="285" width="319" height="8" fill="#D9D9D9"/>
<rect width="319" height="8" transform="matrix(1 0 0 -1 417 581)" fill="#D9D9D9"/>
<rect x="417" y="317" width="188" height="8" fill="#D9D9D9"/>
<rect width="188" height="8" transform="matrix(1 0 0 -1 417 549)" fill="#D9D9D9"/>
<rect opacity="0.3" x="417" y="349" width="125" height="8" fill="#2386DD"/>
<rect width="125" height="8" transform="matrix(1 0 0 -1 417 517)" fill="#D9D9D9"/>
<rect opacity="0.7" x="417" y="381" width="199" height="8" fill="#2386DD"/>
<rect opacity="0.3" width="199" height="8" transform="matrix(1 0 0 -1 417 485)" fill="#2386DD"/>
<rect x="417" y="413" width="319" height="8" fill="#2386DD"/>
<rect opacity="0.7" width="199" height="8" transform="matrix(1 0 0 -1 417 453)" fill="#2386DD"/>
<path opacity="0.5" d="M525.89 213V193.83H531.722C533.738 193.83 535.331 194.343 536.501 195.369C537.671 196.377 538.256 197.772 538.256 199.554C538.256 200.454 538.049 201.255 537.635 201.957C537.221 202.641 536.69 203.181 536.042 203.577C535.394 203.973 534.728 204.198 534.044 204.252L533.936 203.928C535.214 204 536.168 204.306 536.798 204.846C537.446 205.386 537.824 206.268 537.932 207.492L538.418 213H536.096L535.637 207.789C535.583 207.195 535.439 206.718 535.205 206.358C534.989 205.98 534.638 205.71 534.152 205.548C533.684 205.368 533.036 205.278 532.208 205.278H528.212V213H525.89ZM528.212 203.01H531.722C533.054 203.01 534.071 202.713 534.773 202.119C535.475 201.507 535.826 200.652 535.826 199.554C535.826 198.438 535.475 197.583 534.773 196.989C534.071 196.395 533.054 196.098 531.722 196.098H528.212V203.01ZM547.749 213.432C545.733 213.432 544.149 212.793 542.997 211.515C541.845 210.237 541.269 208.5 541.269 206.304V193.83H543.591V206.304C543.591 207.888 543.942 209.094 544.644 209.922C545.364 210.75 546.399 211.164 547.749 211.164C549.099 211.164 550.125 210.75 550.827 209.922C551.547 209.094 551.907 207.888 551.907 206.304V193.83H554.229V206.304C554.229 208.5 553.653 210.237 552.501 211.515C551.349 212.793 549.765 213.432 547.749 213.432ZM557.999 213V193.83H560.321V211.92L559.16 210.732H569.879V213H557.999ZM573.378 213V193.83H585.042V196.098H575.7V202.281H584.718V204.495H575.7V210.732H585.258V213H573.378ZM594.995 213.432C593.645 213.432 592.448 213.153 591.404 212.595C590.36 212.037 589.523 211.272 588.893 210.3C588.263 209.31 587.894 208.167 587.786 206.871L590.216 206.709C590.342 207.663 590.612 208.473 591.026 209.139C591.458 209.805 592.007 210.309 592.673 210.651C593.357 210.993 594.149 211.164 595.049 211.164C595.949 211.164 596.705 211.056 597.317 210.84C597.929 210.606 598.388 210.273 598.694 209.841C599.018 209.391 599.18 208.86 599.18 208.248C599.18 207.636 599.036 207.105 598.748 206.655C598.478 206.187 597.956 205.755 597.182 205.359C596.426 204.963 595.301 204.558 593.807 204.144C592.475 203.766 591.395 203.352 590.567 202.902C589.757 202.452 589.163 201.903 588.785 201.255C588.425 200.607 588.245 199.806 588.245 198.852C588.245 197.772 588.497 196.827 589.001 196.017C589.523 195.189 590.261 194.55 591.215 194.1C592.169 193.632 593.303 193.398 594.617 193.398C595.931 193.398 597.056 193.668 597.992 194.208C598.928 194.73 599.666 195.45 600.206 196.368C600.764 197.286 601.115 198.33 601.259 199.5L598.829 199.662C598.721 198.888 598.496 198.204 598.154 197.61C597.812 196.998 597.344 196.521 596.75 196.179C596.156 195.837 595.427 195.666 594.563 195.666C593.375 195.666 592.43 195.954 591.728 196.53C591.026 197.088 590.675 197.826 590.675 198.744C590.675 199.338 590.801 199.833 591.053 200.229C591.323 200.607 591.791 200.949 592.457 201.255C593.123 201.543 594.059 201.858 595.265 202.2C596.831 202.632 598.073 203.118 598.991 203.658C599.927 204.198 600.593 204.846 600.989 205.602C601.403 206.34 601.61 207.24 601.61 208.302C601.61 209.31 601.331 210.201 600.773 210.975C600.215 211.749 599.441 212.352 598.451 212.784C597.461 213.216 596.309 213.432 594.995 213.432ZM604.677 213V193.83H616.341V196.098H606.999V202.281H616.017V204.495H606.999V210.732H616.557V213H604.677ZM624.836 213V196.098H618.977V193.83H633.017V196.098H627.158V213H624.836Z" fill="black"/>
<path d="M423.939 213V196.098H418.08V193.83H432.12V196.098H426.261V213H423.939ZM434.809 213V210.732H439.588V196.098H434.809V193.83H446.689V196.098H441.91V210.732H446.689V213H434.809ZM450.729 213V193.83H456.561C457.893 193.83 459.054 194.064 460.044 194.532C461.034 195 461.799 195.675 462.339 196.557C462.879 197.421 463.149 198.465 463.149 199.689C463.149 200.913 462.879 201.966 462.339 202.848C461.799 203.712 461.034 204.378 460.044 204.846C459.054 205.314 457.893 205.548 456.561 205.548H453.051V213H450.729ZM453.051 203.28H456.291C457.803 203.28 458.919 202.974 459.639 202.362C460.359 201.732 460.719 200.841 460.719 199.689C460.719 198.519 460.359 197.628 459.639 197.016C458.919 196.404 457.803 196.098 456.291 196.098H453.051V203.28ZM467.728 206.196V204.063H476.368V206.196H467.728ZM480.948 213C480.948 211.65 481.155 210.435 481.569 209.355C482.001 208.257 482.748 207.213 483.81 206.223C484.89 205.233 486.384 204.234 488.292 203.226C489.174 202.758 489.885 202.326 490.425 201.93C490.965 201.534 491.361 201.111 491.613 200.661C491.865 200.211 491.991 199.662 491.991 199.014C491.991 198.348 491.847 197.772 491.559 197.286C491.271 196.782 490.839 196.386 490.263 196.098C489.705 195.81 489.003 195.666 488.157 195.666C486.807 195.666 485.736 196.017 484.944 196.719C484.17 197.421 483.684 198.42 483.486 199.716L481.056 199.554C481.272 197.682 481.992 196.188 483.216 195.072C484.44 193.956 486.087 193.398 488.157 193.398C489.471 193.398 490.596 193.632 491.532 194.1C492.468 194.568 493.179 195.225 493.665 196.071C494.169 196.899 494.421 197.862 494.421 198.96C494.421 199.932 494.259 200.778 493.935 201.498C493.611 202.2 493.062 202.857 492.288 203.469C491.532 204.081 490.488 204.738 489.156 205.44C488.004 206.052 487.032 206.673 486.24 207.303C485.466 207.933 484.872 208.545 484.458 209.139C484.062 209.715 483.846 210.246 483.81 210.732H494.448V213H480.948ZM498.487 210.246L506.047 196.476L508.207 196.584L500.647 210.354L498.487 210.246ZM503.347 213.432C501.961 213.432 500.755 213.027 499.729 212.217C498.721 211.407 497.947 210.255 497.407 208.761C496.867 207.267 496.597 205.494 496.597 203.442C496.597 201.372 496.867 199.59 497.407 198.096C497.947 196.602 498.721 195.45 499.729 194.64C500.755 193.812 501.961 193.398 503.347 193.398C504.751 193.398 505.957 193.812 506.965 194.64C507.973 195.45 508.747 196.602 509.287 198.096C509.827 199.59 510.097 201.372 510.097 203.442C510.097 205.494 509.827 207.267 509.287 208.761C508.747 210.255 507.973 211.407 506.965 212.217C505.957 213.027 504.751 213.432 503.347 213.432ZM503.347 211.164C504.247 211.164 505.012 210.849 505.642 210.219C506.29 209.589 506.785 208.698 507.127 207.546C507.487 206.376 507.667 205.008 507.667 203.442C507.667 201.84 507.487 200.463 507.127 199.311C506.785 198.141 506.29 197.241 505.642 196.611C505.012 195.981 504.247 195.666 503.347 195.666C502.465 195.666 501.7 195.981 501.052 196.611C500.404 197.241 499.9 198.141 499.54 199.311C499.198 200.463 499.027 201.84 499.027 203.442C499.027 205.008 499.198 206.376 499.54 207.546C499.9 208.698 500.404 209.589 501.052 210.219C501.7 210.849 502.465 211.164 503.347 211.164Z" fill="black"/>
<path opacity="0.3" d="M300 306H337.135C341.001 306 344.135 309.134 344.135 313V413C344.135 416.866 347.269 420 351.135 420H374" stroke="black" stroke-width="2"/>
<path opacity="0.3" d="M940 541H879.009C875.143 541 872.009 537.866 872.009 534V420C872.009 416.134 868.875 413 865.009 413H826" stroke="black" stroke-width="2"/>
<rect opacity="0.2" x="375" y="269" width="451" height="304" fill="url(#paint4_linear_617_948)"/>
</g>
<defs>
<linearGradient id="paint0_linear_617_948" x1="600" y1="0" x2="600" y2="129" gradientUnits="userSpaceOnUse">
<stop stop-color="white"/>
<stop offset="1" stop-color="white" stop-opacity="0"/>
</linearGradient>
<linearGradient id="paint1_linear_617_948" x1="600" y1="0" x2="600" y2="129" gradientUnits="userSpaceOnUse">
<stop stop-color="white"/>
<stop offset="1" stop-color="white" stop-opacity="0"/>
</linearGradient>
<linearGradient id="paint2_linear_617_948" x1="-1.47526e-05" y1="337.5" x2="100" y2="337.5" gradientUnits="userSpaceOnUse">
<stop stop-color="white"/>
<stop offset="1" stop-color="white" stop-opacity="0"/>
</linearGradient>
<linearGradient id="paint3_linear_617_948" x1="1200" y1="337.5" x2="1118" y2="337.5" gradientUnits="userSpaceOnUse">
<stop stop-color="white"/>
<stop offset="1" stop-color="white" stop-opacity="0"/>
</linearGradient>
<linearGradient id="paint4_linear_617_948" x1="600.5" y1="269" x2="600.5" y2="573" gradientUnits="userSpaceOnUse">
<stop stop-color="#2386DD" stop-opacity="0"/>
<stop offset="0.5" stop-color="#2386DD" stop-opacity="0.5"/>
<stop offset="1" stop-color="#2386DD" stop-opacity="0"/>
</linearGradient>
<clipPath id="clip0_617_948">
<rect width="1200" height="675" fill="white"/>
</clipPath>
</defs>
</svg>
