<svg width="1200" height="675" viewBox="0 0 1200 675" fill="none" xmlns="http://www.w3.org/2000/svg">
<g clip-path="url(#clip0_616_668)">
<rect width="1200" height="675" fill="white"/>
<rect width="101" height="99" transform="translate(550 295)" fill="white"/>
<path fill-rule="evenodd" clip-rule="evenodd" d="M651 394H550V295H651V394ZM584.412 322.473C583.799 322.473 583.256 322.857 583.062 323.427L578.722 336.192C578.56 336.668 578.921 337.158 579.432 337.158H592.036C592.546 337.158 592.907 337.649 592.746 338.125L583.416 365.561C583.254 366.037 583.615 366.527 584.126 366.527H597.642C598.255 366.527 598.798 366.143 598.991 365.573L608.331 338.112C608.524 337.542 609.068 337.157 609.681 337.157H622.311C622.924 337.157 623.468 336.772 623.661 336.203L628.001 323.439C628.163 322.963 627.802 322.473 627.291 322.473H584.412Z" fill="#2386DD"/>
<path d="M872.061 428.061C872.646 427.475 872.646 426.525 872.061 425.939L862.515 416.393C861.929 415.808 860.979 415.808 860.393 416.393C859.808 416.979 859.808 417.929 860.393 418.515L868.879 427L860.393 435.485C859.808 436.071 859.808 437.021 860.393 437.607C860.979 438.192 861.929 438.192 862.515 437.607L872.061 428.061ZM651 349V350.5H653.832V349V347.5H651V349ZM659.495 349V350.5H665.159V349V347.5H659.495V349ZM670.822 349V350.5H676.486V349V347.5H670.822V349ZM682.149 349V350.5H687.813V349V347.5H682.149V349ZM693.476 349V350.5H696.308V349V347.5H693.476V349ZM696.308 349V350.5H699.329V349V347.5H696.308V349ZM705.371 349V350.5H711.413V349V347.5H705.371V349ZM717.456 349V350.5H723.498V349V347.5H717.456V349ZM729.54 349V350.5H735.582V349V347.5H729.54V349ZM741.625 349V350.5H747.667V349V347.5H741.625V349ZM753.709 349V350.5H759.751V349V347.5H753.709V349ZM765.794 349V350.5H771.836V349V347.5H765.794V349ZM777.878 349V350.5H783.92V349V347.5H777.878V349ZM789.963 349V350.5H796.005V349V347.5H789.963V349ZM802.047 349V350.5H808.09V349V347.5H802.047V349ZM814.132 349V350.5H817.153V349V347.5H814.132V349ZM817.153 349V350.5C817.429 350.5 817.653 350.724 817.653 351H819.153H820.653C820.653 349.067 819.086 347.5 817.153 347.5V349ZM819.153 351H817.653V354.083H819.153H820.653V351H819.153ZM819.153 360.25H817.653V366.417H819.153H820.653V360.25H819.153ZM819.153 372.583H817.653V378.75H819.153H820.653V372.583H819.153ZM819.153 384.917H817.653V391.083H819.153H820.653V384.917H819.153ZM819.153 397.25H817.653V403.417H819.153H820.653V397.25H819.153ZM819.153 409.583H817.653V415.75H819.153H820.653V409.583H819.153ZM819.153 421.917H817.653V425H819.153H820.653V421.917H819.153ZM819.153 425H817.653C817.653 426.933 819.22 428.5 821.153 428.5V427V425.5C820.877 425.5 820.653 425.276 820.653 425H819.153ZM821.153 427V428.5H824.268V427V425.5H821.153V427ZM830.499 427V428.5H836.73V427V425.5H830.499V427ZM842.961 427V428.5H849.192V427V425.5H842.961V427ZM855.423 427V428.5H861.654V427V425.5H855.423V427ZM867.885 427V428.5H871V427V425.5H867.885V427Z" fill="#2386DD"/>
<path d="M550 349L406.717 349C405.612 349 404.717 348.105 404.717 347L404.717 297C404.717 295.895 403.822 295 402.717 295L350 295" stroke="#2386DD" stroke-width="3" stroke-dasharray="6 6"/>
<path opacity="0.3" d="M600 515.5L600 394" stroke="black" stroke-width="2" stroke-dasharray="6 6"/>
<path opacity="0.3" d="M600 295.5L600 174" stroke="black" stroke-width="2" stroke-dasharray="6 6"/>
<rect opacity="0.12" x="403" y="515" width="423" height="423" rx="20" stroke="black" stroke-width="2"/>
<g opacity="0.4">
<path d="M439 549C439 545.686 441.686 543 445 543H475C478.314 543 481 545.686 481 549V579C481 582.314 478.314 585 475 585H445C441.686 585 439 582.314 439 579V549Z" fill="#D9D9D9"/>
<path d="M501 549C501 545.686 503.686 543 507 543H537C540.314 543 543 545.686 543 549V579C543 582.314 540.314 585 537 585H507C503.686 585 501 582.314 501 579V549Z" fill="#D9D9D9"/>
<path d="M563 549C563 545.686 565.686 543 569 543H599C602.314 543 605 545.686 605 549V579C605 582.314 602.314 585 599 585H569C565.686 585 563 582.314 563 579V549Z" fill="#D9D9D9"/>
<path d="M625 549C625 545.686 627.686 543 631 543H661C664.314 543 667 545.686 667 549V579C667 582.314 664.314 585 661 585H631C627.686 585 625 582.314 625 579V549Z" fill="#D9D9D9"/>
<path d="M687 549C687 545.686 689.686 543 693 543H723C726.314 543 729 545.686 729 549V579C729 582.314 726.314 585 723 585H693C689.686 585 687 582.314 687 579V549Z" fill="#D9D9D9"/>
<path d="M749 549C749 545.686 751.686 543 755 543H785C788.314 543 791 545.686 791 549V579C791 582.314 788.314 585 785 585H755C751.686 585 749 582.314 749 579V549Z" fill="#D9D9D9"/>
<path d="M439 614C439 610.686 441.686 608 445 608H475C478.314 608 481 610.686 481 614V644C481 647.314 478.314 650 475 650H445C441.686 650 439 647.314 439 644V614Z" fill="#D9D9D9"/>
<path d="M501 614C501 610.686 503.686 608 507 608H537C540.314 608 543 610.686 543 614V644C543 647.314 540.314 650 537 650H507C503.686 650 501 647.314 501 644V614Z" fill="#D9D9D9"/>
<path d="M563 614C563 610.686 565.686 608 569 608H599C602.314 608 605 610.686 605 614V644C605 647.314 602.314 650 599 650H569C565.686 650 563 647.314 563 644V614Z" fill="#D9D9D9"/>
<path d="M625 614C625 610.686 627.686 608 631 608H661C664.314 608 667 610.686 667 614V644C667 647.314 664.314 650 661 650H631C627.686 650 625 647.314 625 644V614Z" fill="#D9D9D9"/>
<path d="M687 614C687 610.686 689.686 608 693 608H723C726.314 608 729 610.686 729 614V644C729 647.314 726.314 650 723 650H693C689.686 650 687 647.314 687 644V614Z" fill="#D9D9D9"/>
<path d="M749 614C749 610.686 751.686 608 755 608H785C788.314 608 791 610.686 791 614V644C791 647.314 788.314 650 785 650H755C751.686 650 749 647.314 749 644V614Z" fill="#D9D9D9"/>
<path d="M439 679C439 675.686 441.686 673 445 673H475C478.314 673 481 675.686 481 679V709C481 712.314 478.314 715 475 715H445C441.686 715 439 712.314 439 709V679Z" fill="#D9D9D9"/>
<path d="M501 679C501 675.686 503.686 673 507 673H537C540.314 673 543 675.686 543 679V709C543 712.314 540.314 715 537 715H507C503.686 715 501 712.314 501 709V679Z" fill="#D9D9D9"/>
<path d="M563 679C563 675.686 565.686 673 569 673H599C602.314 673 605 675.686 605 679V709C605 712.314 602.314 715 599 715H569C565.686 715 563 712.314 563 709V679Z" fill="#D9D9D9"/>
<path d="M625 679C625 675.686 627.686 673 631 673H661C664.314 673 667 675.686 667 679V709C667 712.314 664.314 715 661 715H631C627.686 715 625 712.314 625 709V679Z" fill="#D9D9D9"/>
<path d="M687 679C687 675.686 689.686 673 693 673H723C726.314 673 729 675.686 729 679V709C729 712.314 726.314 715 723 715H693C689.686 715 687 712.314 687 709V679Z" fill="#D9D9D9"/>
<path d="M749 679C749 675.686 751.686 673 755 673H785C788.314 673 791 675.686 791 679V709C791 712.314 788.314 715 785 715H755C751.686 715 749 712.314 749 709V679Z" fill="#D9D9D9"/>
<path d="M439 744C439 740.686 441.686 738 445 738H475C478.314 738 481 740.686 481 744V774C481 777.314 478.314 780 475 780H445C441.686 780 439 777.314 439 774V744Z" fill="#D9D9D9"/>
<path d="M501 744C501 740.686 503.686 738 507 738H537C540.314 738 543 740.686 543 744V774C543 777.314 540.314 780 537 780H507C503.686 780 501 777.314 501 774V744Z" fill="#D9D9D9"/>
<path d="M563 744C563 740.686 565.686 738 569 738H599C602.314 738 605 740.686 605 744V774C605 777.314 602.314 780 599 780H569C565.686 780 563 777.314 563 774V744Z" fill="#D9D9D9"/>
<path d="M625 744C625 740.686 627.686 738 631 738H661C664.314 738 667 740.686 667 744V774C667 777.314 664.314 780 661 780H631C627.686 780 625 777.314 625 774V744Z" fill="#D9D9D9"/>
<path d="M687 744C687 740.686 689.686 738 693 738H723C726.314 738 729 740.686 729 744V774C729 777.314 726.314 780 723 780H693C689.686 780 687 777.314 687 774V744Z" fill="#D9D9D9"/>
<path d="M749 744C749 740.686 751.686 738 755 738H785C788.314 738 791 740.686 791 744V774C791 777.314 788.314 780 785 780H755C751.686 780 749 777.314 749 774V744Z" fill="#D9D9D9"/>
<path d="M439 809C439 805.686 441.686 803 445 803H475C478.314 803 481 805.686 481 809V839C481 842.314 478.314 845 475 845H445C441.686 845 439 842.314 439 839V809Z" fill="#D9D9D9"/>
<path d="M501 809C501 805.686 503.686 803 507 803H537C540.314 803 543 805.686 543 809V839C543 842.314 540.314 845 537 845H507C503.686 845 501 842.314 501 839V809Z" fill="#D9D9D9"/>
<path d="M563 809C563 805.686 565.686 803 569 803H599C602.314 803 605 805.686 605 809V839C605 842.314 602.314 845 599 845H569C565.686 845 563 842.314 563 839V809Z" fill="#D9D9D9"/>
<path d="M625 809C625 805.686 627.686 803 631 803H661C664.314 803 667 805.686 667 809V839C667 842.314 664.314 845 661 845H631C627.686 845 625 842.314 625 839V809Z" fill="#D9D9D9"/>
<path d="M687 809C687 805.686 689.686 803 693 803H723C726.314 803 729 805.686 729 809V839C729 842.314 726.314 845 723 845H693C689.686 845 687 842.314 687 839V809Z" fill="#D9D9D9"/>
<path d="M749 809C749 805.686 751.686 803 755 803H785C788.314 803 791 805.686 791 809V839C791 842.314 788.314 845 785 845H755C751.686 845 749 842.314 749 839V809Z" fill="#D9D9D9"/>
<path d="M439 874C439 870.686 441.686 868 445 868H475C478.314 868 481 870.686 481 874V904C481 907.314 478.314 910 475 910H445C441.686 910 439 907.314 439 904V874Z" fill="#D9D9D9"/>
<path d="M501 874C501 870.686 503.686 868 507 868H537C540.314 868 543 870.686 543 874V904C543 907.314 540.314 910 537 910H507C503.686 910 501 907.314 501 904V874Z" fill="#D9D9D9"/>
<path d="M563 874C563 870.686 565.686 868 569 868H599C602.314 868 605 870.686 605 874V904C605 907.314 602.314 910 599 910H569C565.686 910 563 907.314 563 904V874Z" fill="#D9D9D9"/>
<path d="M625 874C625 870.686 627.686 868 631 868H661C664.314 868 667 870.686 667 874V904C667 907.314 664.314 910 661 910H631C627.686 910 625 907.314 625 904V874Z" fill="#D9D9D9"/>
<path d="M687 874C687 870.686 689.686 868 693 868H723C726.314 868 729 870.686 729 874V904C729 907.314 726.314 910 723 910H693C689.686 910 687 907.314 687 904V874Z" fill="#D9D9D9"/>
<path d="M749 874C749 870.686 751.686 868 755 868H785C788.314 868 791 870.686 791 874V904C791 907.314 788.314 910 785 910H755C751.686 910 749 907.314 749 904V874Z" fill="#D9D9D9"/>
</g>
<rect opacity="0.12" x="886" y="115" width="423" height="423" rx="20" stroke="black" stroke-width="2"/>
<rect opacity="0.12" x="403" y="-254" width="423" height="423" rx="20" stroke="black" stroke-width="2"/>
<path opacity="0.1" d="M914 409C914 405.686 916.686 403 920 403H950C953.314 403 956 405.686 956 409V439C956 442.314 953.314 445 950 445H920C916.686 445 914 442.314 914 439V409Z" fill="#2386DD"/>
<path opacity="0.6" d="M1100 409C1100 405.686 1102.69 403 1106 403H1136C1139.31 403 1142 405.686 1142 409V439C1142 442.314 1139.31 445 1136 445H1106C1102.69 445 1100 442.314 1100 439V409Z" fill="#2386DD"/>
<path opacity="0.4" d="M1038 474C1038 470.686 1040.69 468 1044 468H1074C1077.31 468 1080 470.686 1080 474V504C1080 507.314 1077.31 510 1074 510H1044C1040.69 510 1038 507.314 1038 504V474Z" fill="#D9D9D9"/>
<path opacity="0.5" d="M1038 409C1038 405.686 1040.69 403 1044 403H1074C1077.31 403 1080 405.686 1080 409V439C1080 442.314 1077.31 445 1074 445H1044C1040.69 445 1038 442.314 1038 439V409Z" fill="#2386DD"/>
<path opacity="0.4" d="M976 409C976 405.686 978.686 403 982 403H1012C1015.31 403 1018 405.686 1018 409V439C1018 442.314 1015.31 445 1012 445H982C978.686 445 976 442.314 976 439V409Z" fill="#2386DD"/>
<g opacity="0.4">
<path d="M914 149C914 145.686 916.686 143 920 143H950C953.314 143 956 145.686 956 149V179C956 182.314 953.314 185 950 185H920C916.686 185 914 182.314 914 179V149Z" fill="#D9D9D9"/>
<path d="M1038 149C1038 145.686 1040.69 143 1044 143H1074C1077.31 143 1080 145.686 1080 149V179C1080 182.314 1077.31 185 1074 185H1044C1040.69 185 1038 182.314 1038 179V149Z" fill="#D9D9D9"/>
<path d="M1100 149C1100 145.686 1102.69 143 1106 143H1136C1139.31 143 1142 145.686 1142 149V179C1142 182.314 1139.31 185 1136 185H1106C1102.69 185 1100 182.314 1100 179V149Z" fill="#D9D9D9"/>
<path d="M1162 149C1162 145.686 1164.69 143 1168 143H1198C1201.31 143 1204 145.686 1204 149V179C1204 182.314 1201.31 185 1198 185H1168C1164.69 185 1162 182.314 1162 179V149Z" fill="#D9D9D9"/>
<path d="M914 214C914 210.686 916.686 208 920 208H950C953.314 208 956 210.686 956 214V244C956 247.314 953.314 250 950 250H920C916.686 250 914 247.314 914 244V214Z" fill="#D9D9D9"/>
<path d="M976 214C976 210.686 978.686 208 982 208H1012C1015.31 208 1018 210.686 1018 214V244C1018 247.314 1015.31 250 1012 250H982C978.686 250 976 247.314 976 244V214Z" fill="#D9D9D9"/>
<path d="M1038 214C1038 210.686 1040.69 208 1044 208H1074C1077.31 208 1080 210.686 1080 214V244C1080 247.314 1077.31 250 1074 250H1044C1040.69 250 1038 247.314 1038 244V214Z" fill="#D9D9D9"/>
<path d="M1100 214C1100 210.686 1102.69 208 1106 208H1136C1139.31 208 1142 210.686 1142 214V244C1142 247.314 1139.31 250 1136 250H1106C1102.69 250 1100 247.314 1100 244V214Z" fill="#D9D9D9"/>
<path d="M1162 214C1162 210.686 1164.69 208 1168 208H1198C1201.31 208 1204 210.686 1204 214V244C1204 247.314 1201.31 250 1198 250H1168C1164.69 250 1162 247.314 1162 244V214Z" fill="#D9D9D9"/>
<path d="M1224 214C1224 210.686 1226.69 208 1230 208H1260C1263.31 208 1266 210.686 1266 214V244C1266 247.314 1263.31 250 1260 250H1230C1226.69 250 1224 247.314 1224 244V214Z" fill="#D9D9D9"/>
<path d="M914 279C914 275.686 916.686 273 920 273H950C953.314 273 956 275.686 956 279V309C956 312.314 953.314 315 950 315H920C916.686 315 914 312.314 914 309V279Z" fill="#D9D9D9"/>
<path d="M976 279C976 275.686 978.686 273 982 273H1012C1015.31 273 1018 275.686 1018 279V309C1018 312.314 1015.31 315 1012 315H982C978.686 315 976 312.314 976 309V279Z" fill="#D9D9D9"/>
<path d="M1038 279C1038 275.686 1040.69 273 1044 273H1074C1077.31 273 1080 275.686 1080 279V309C1080 312.314 1077.31 315 1074 315H1044C1040.69 315 1038 312.314 1038 309V279Z" fill="#D9D9D9"/>
<path d="M1100 279C1100 275.686 1102.69 273 1106 273H1136C1139.31 273 1142 275.686 1142 279V309C1142 312.314 1139.31 315 1136 315H1106C1102.69 315 1100 312.314 1100 309V279Z" fill="#D9D9D9"/>
<path d="M1162 279C1162 275.686 1164.69 273 1168 273H1198C1201.31 273 1204 275.686 1204 279V309C1204 312.314 1201.31 315 1198 315H1168C1164.69 315 1162 312.314 1162 309V279Z" fill="#D9D9D9"/>
<path d="M1224 279C1224 275.686 1226.69 273 1230 273H1260C1263.31 273 1266 275.686 1266 279V309C1266 312.314 1263.31 315 1260 315H1230C1226.69 315 1224 312.314 1224 309V279Z" fill="#D9D9D9"/>
<path d="M1038 344C1038 340.686 1040.69 338 1044 338H1074C1077.31 338 1080 340.686 1080 344V374C1080 377.314 1077.31 380 1074 380H1044C1040.69 380 1038 377.314 1038 374V344Z" fill="#D9D9D9"/>
<path d="M1100 344C1100 340.686 1102.69 338 1106 338H1136C1139.31 338 1142 340.686 1142 344V374C1142 377.314 1139.31 380 1136 380H1106C1102.69 380 1100 377.314 1100 374V344Z" fill="#D9D9D9"/>
<path d="M1162 344C1162 340.686 1164.69 338 1168 338H1198C1201.31 338 1204 340.686 1204 344V374C1204 377.314 1201.31 380 1198 380H1168C1164.69 380 1162 377.314 1162 374V344Z" fill="#D9D9D9"/>
<path d="M1224 344C1224 340.686 1226.69 338 1230 338H1260C1263.31 338 1266 340.686 1266 344V374C1266 377.314 1263.31 380 1260 380H1230C1226.69 380 1224 377.314 1224 374V344Z" fill="#D9D9D9"/>
<path d="M1162 409C1162 405.686 1164.69 403 1168 403H1198C1201.31 403 1204 405.686 1204 409V439C1204 442.314 1201.31 445 1198 445H1168C1164.69 445 1162 442.314 1162 439V409Z" fill="#D9D9D9"/>
<path d="M1224 409C1224 405.686 1226.69 403 1230 403H1260C1263.31 403 1266 405.686 1266 409V439C1266 442.314 1263.31 445 1260 445H1230C1226.69 445 1224 442.314 1224 439V409Z" fill="#D9D9D9"/>
<path d="M914 474C914 470.686 916.686 468 920 468H950C953.314 468 956 470.686 956 474V504C956 507.314 953.314 510 950 510H920C916.686 510 914 507.314 914 504V474Z" fill="#D9D9D9"/>
<path d="M976 474C976 470.686 978.686 468 982 468H1012C1015.31 468 1018 470.686 1018 474V504C1018 507.314 1015.31 510 1012 510H982C978.686 510 976 507.314 976 504V474Z" fill="#D9D9D9"/>
<path d="M1100 474C1100 470.686 1102.69 468 1106 468H1136C1139.31 468 1142 470.686 1142 474V504C1142 507.314 1139.31 510 1136 510H1106C1102.69 510 1100 507.314 1100 504V474Z" fill="#D9D9D9"/>
<path d="M1162 474C1162 470.686 1164.69 468 1168 468H1198C1201.31 468 1204 470.686 1204 474V504C1204 507.314 1201.31 510 1198 510H1168C1164.69 510 1162 507.314 1162 504V474Z" fill="#D9D9D9"/>
<path d="M1224 474C1224 470.686 1226.69 468 1230 468H1260C1263.31 468 1266 470.686 1266 474V504C1266 507.314 1263.31 510 1260 510H1230C1226.69 510 1224 507.314 1224 504V474Z" fill="#D9D9D9"/>
<path d="M976 344C976 340.686 978.686 338 982 338H1012C1015.31 338 1018 340.686 1018 344V374C1018 377.314 1015.31 380 1012 380H982C978.686 380 976 377.314 976 374V344Z" fill="#D9D9D9"/>
<path d="M914 344C914 340.686 916.686 338 920 338H950C953.314 338 956 340.686 956 344V374C956 377.314 953.314 380 950 380H920C916.686 380 914 377.314 914 374V344Z" fill="#D9D9D9"/>
</g>
<g opacity="0.4">
<path d="M439 -220C439 -223.314 441.686 -226 445 -226H475C478.314 -226 481 -223.314 481 -220V-190C481 -186.686 478.314 -184 475 -184H445C441.686 -184 439 -186.686 439 -190V-220Z" fill="#D9D9D9"/>
<path d="M501 -220C501 -223.314 503.686 -226 507 -226H537C540.314 -226 543 -223.314 543 -220V-190C543 -186.686 540.314 -184 537 -184H507C503.686 -184 501 -186.686 501 -190V-220Z" fill="#D9D9D9"/>
<path d="M563 -220C563 -223.314 565.686 -226 569 -226H599C602.314 -226 605 -223.314 605 -220V-190C605 -186.686 602.314 -184 599 -184H569C565.686 -184 563 -186.686 563 -190V-220Z" fill="#D9D9D9"/>
<path d="M625 -220C625 -223.314 627.686 -226 631 -226H661C664.314 -226 667 -223.314 667 -220V-190C667 -186.686 664.314 -184 661 -184H631C627.686 -184 625 -186.686 625 -190V-220Z" fill="#D9D9D9"/>
<path d="M687 -220C687 -223.314 689.686 -226 693 -226H723C726.314 -226 729 -223.314 729 -220V-190C729 -186.686 726.314 -184 723 -184H693C689.686 -184 687 -186.686 687 -190V-220Z" fill="#D9D9D9"/>
<path d="M439 -155C439 -158.314 441.686 -161 445 -161H475C478.314 -161 481 -158.314 481 -155V-125C481 -121.686 478.314 -119 475 -119H445C441.686 -119 439 -121.686 439 -125V-155Z" fill="#D9D9D9"/>
<path d="M501 -155C501 -158.314 503.686 -161 507 -161H537C540.314 -161 543 -158.314 543 -155V-125C543 -121.686 540.314 -119 537 -119H507C503.686 -119 501 -121.686 501 -125V-155Z" fill="#D9D9D9"/>
<path d="M563 -155C563 -158.314 565.686 -161 569 -161H599C602.314 -161 605 -158.314 605 -155V-125C605 -121.686 602.314 -119 599 -119H569C565.686 -119 563 -121.686 563 -125V-155Z" fill="#D9D9D9"/>
<path d="M625 -155C625 -158.314 627.686 -161 631 -161H661C664.314 -161 667 -158.314 667 -155V-125C667 -121.686 664.314 -119 661 -119H631C627.686 -119 625 -121.686 625 -125V-155Z" fill="#D9D9D9"/>
<path d="M687 -155C687 -158.314 689.686 -161 693 -161H723C726.314 -161 729 -158.314 729 -155V-125C729 -121.686 726.314 -119 723 -119H693C689.686 -119 687 -121.686 687 -125V-155Z" fill="#D9D9D9"/>
<path d="M749 -155C749 -158.314 751.686 -161 755 -161H785C788.314 -161 791 -158.314 791 -155V-125C791 -121.686 788.314 -119 785 -119H755C751.686 -119 749 -121.686 749 -125V-155Z" fill="#D9D9D9"/>
<path d="M439 -90C439 -93.3137 441.686 -96 445 -96H475C478.314 -96 481 -93.3137 481 -90V-60C481 -56.6863 478.314 -54 475 -54H445C441.686 -54 439 -56.6863 439 -60V-90Z" fill="#D9D9D9"/>
<path d="M501 -90C501 -93.3137 503.686 -96 507 -96H537C540.314 -96 543 -93.3137 543 -90V-60C543 -56.6863 540.314 -54 537 -54H507C503.686 -54 501 -56.6863 501 -60V-90Z" fill="#D9D9D9"/>
<path d="M563 -90C563 -93.3137 565.686 -96 569 -96H599C602.314 -96 605 -93.3137 605 -90V-60C605 -56.6863 602.314 -54 599 -54H569C565.686 -54 563 -56.6863 563 -60V-90Z" fill="#D9D9D9"/>
<path d="M625 -90C625 -93.3137 627.686 -96 631 -96H661C664.314 -96 667 -93.3137 667 -90V-60C667 -56.6863 664.314 -54 661 -54H631C627.686 -54 625 -56.6863 625 -60V-90Z" fill="#D9D9D9"/>
<path d="M687 -90C687 -93.3137 689.686 -96 693 -96H723C726.314 -96 729 -93.3137 729 -90V-60C729 -56.6863 726.314 -54 723 -54H693C689.686 -54 687 -56.6863 687 -60V-90Z" fill="#D9D9D9"/>
<path d="M749 -90C749 -93.3137 751.686 -96 755 -96H785C788.314 -96 791 -93.3137 791 -90V-60C791 -56.6863 788.314 -54 785 -54H755C751.686 -54 749 -56.6863 749 -60V-90Z" fill="#D9D9D9"/>
<path d="M439 -25C439 -28.3137 441.686 -31 445 -31H475C478.314 -31 481 -28.3137 481 -25V5C481 8.31371 478.314 11 475 11H445C441.686 11 439 8.31371 439 5V-25Z" fill="#D9D9D9"/>
<path d="M501 -25C501 -28.3137 503.686 -31 507 -31H537C540.314 -31 543 -28.3137 543 -25V5C543 8.31371 540.314 11 537 11H507C503.686 11 501 8.31371 501 5V-25Z" fill="#D9D9D9"/>
<path d="M563 -25C563 -28.3137 565.686 -31 569 -31H599C602.314 -31 605 -28.3137 605 -25V5C605 8.31371 602.314 11 599 11H569C565.686 11 563 8.31371 563 5V-25Z" fill="#D9D9D9"/>
<path d="M625 -25C625 -28.3137 627.686 -31 631 -31H661C664.314 -31 667 -28.3137 667 -25V5C667 8.31371 664.314 11 661 11H631C627.686 11 625 8.31371 625 5V-25Z" fill="#D9D9D9"/>
<path d="M687 -25C687 -28.3137 689.686 -31 693 -31H723C726.314 -31 729 -28.3137 729 -25V5C729 8.31371 726.314 11 723 11H693C689.686 11 687 8.31371 687 5V-25Z" fill="#D9D9D9"/>
<path d="M749 -25C749 -28.3137 751.686 -31 755 -31H785C788.314 -31 791 -28.3137 791 -25V5C791 8.31371 788.314 11 785 11H755C751.686 11 749 8.31371 749 5V-25Z" fill="#D9D9D9"/>
<path d="M439 40C439 36.6863 441.686 34 445 34H475C478.314 34 481 36.6863 481 40V70C481 73.3137 478.314 76 475 76H445C441.686 76 439 73.3137 439 70V40Z" fill="#D9D9D9"/>
<path d="M501 40C501 36.6863 503.686 34 507 34H537C540.314 34 543 36.6863 543 40V70C543 73.3137 540.314 76 537 76H507C503.686 76 501 73.3137 501 70V40Z" fill="#D9D9D9"/>
<path d="M563 40C563 36.6863 565.686 34 569 34H599C602.314 34 605 36.6863 605 40V70C605 73.3137 602.314 76 599 76H569C565.686 76 563 73.3137 563 70V40Z" fill="#D9D9D9"/>
<path d="M625 40C625 36.6863 627.686 34 631 34H661C664.314 34 667 36.6863 667 40V70C667 73.3137 664.314 76 661 76H631C627.686 76 625 73.3137 625 70V40Z" fill="#D9D9D9"/>
<path d="M687 40C687 36.6863 689.686 34 693 34H723C726.314 34 729 36.6863 729 40V70C729 73.3137 726.314 76 723 76H693C689.686 76 687 73.3137 687 70V40Z" fill="#D9D9D9"/>
<path d="M749 40C749 36.6863 751.686 34 755 34H785C788.314 34 791 36.6863 791 40V70C791 73.3137 788.314 76 785 76H755C751.686 76 749 73.3137 749 70V40Z" fill="#D9D9D9"/>
<path d="M439 105C439 101.686 441.686 99 445 99H475C478.314 99 481 101.686 481 105V135C481 138.314 478.314 141 475 141H445C441.686 141 439 138.314 439 135V105Z" fill="#D9D9D9"/>
<path d="M501 105C501 101.686 503.686 99 507 99H537C540.314 99 543 101.686 543 105V135C543 138.314 540.314 141 537 141H507C503.686 141 501 138.314 501 135V105Z" fill="#D9D9D9"/>
<path d="M563 105C563 101.686 565.686 99 569 99H599C602.314 99 605 101.686 605 105V135C605 138.314 602.314 141 599 141H569C565.686 141 563 138.314 563 135V105Z" fill="#D9D9D9"/>
<path d="M625 105C625 101.686 627.686 99 631 99H661C664.314 99 667 101.686 667 105V135C667 138.314 664.314 141 661 141H631C627.686 141 625 138.314 625 135V105Z" fill="#D9D9D9"/>
<path d="M687 105C687 101.686 689.686 99 693 99H723C726.314 99 729 101.686 729 105V135C729 138.314 726.314 141 723 141H693C689.686 141 687 138.314 687 135V105Z" fill="#D9D9D9"/>
<path d="M749 105C749 101.686 751.686 99 755 99H785C788.314 99 791 101.686 791 105V135C791 138.314 788.314 141 785 141H755C751.686 141 749 138.314 749 135V105Z" fill="#D9D9D9"/>
</g>
<rect opacity="0.12" x="-72" y="115" width="423" height="423" rx="20" stroke="black" stroke-width="2"/>
<g opacity="0.4">
<path d="M-25 151C-25 147.686 -22.3137 145 -19 145H11C14.3137 145 17 147.686 17 151V181C17 184.314 14.3137 187 11 187H-19C-22.3137 187 -25 184.314 -25 181V151Z" fill="#D9D9D9"/>
<path d="M37 151C37 147.686 39.6863 145 43 145H73C76.3137 145 79 147.686 79 151V181C79 184.314 76.3137 187 73 187H43C39.6863 187 37 184.314 37 181V151Z" fill="#D9D9D9"/>
<path d="M99 151C99 147.686 101.686 145 105 145H135C138.314 145 141 147.686 141 151V181C141 184.314 138.314 187 135 187H105C101.686 187 99 184.314 99 181V151Z" fill="#D9D9D9"/>
<path d="M161 151C161 147.686 163.686 145 167 145H197C200.314 145 203 147.686 203 151V181C203 184.314 200.314 187 197 187H167C163.686 187 161 184.314 161 181V151Z" fill="#D9D9D9"/>
<path d="M223 151C223 147.686 225.686 145 229 145H259C262.314 145 265 147.686 265 151V181C265 184.314 262.314 187 259 187H229C225.686 187 223 184.314 223 181V151Z" fill="#D9D9D9"/>
<path d="M285 151C285 147.686 287.686 145 291 145H321C324.314 145 327 147.686 327 151V181C327 184.314 324.314 187 321 187H291C287.686 187 285 184.314 285 181V151Z" fill="#D9D9D9"/>
<path d="M-25 216C-25 212.686 -22.3137 210 -19 210H11C14.3137 210 17 212.686 17 216V246C17 249.314 14.3137 252 11 252H-19C-22.3137 252 -25 249.314 -25 246V216Z" fill="#D9D9D9"/>
<path d="M37 216C37 212.686 39.6863 210 43 210H73C76.3137 210 79 212.686 79 216V246C79 249.314 76.3137 252 73 252H43C39.6863 252 37 249.314 37 246V216Z" fill="#D9D9D9"/>
<path d="M99 216C99 212.686 101.686 210 105 210H135C138.314 210 141 212.686 141 216V246C141 249.314 138.314 252 135 252H105C101.686 252 99 249.314 99 246V216Z" fill="#D9D9D9"/>
<path d="M161 216C161 212.686 163.686 210 167 210H197C200.314 210 203 212.686 203 216V246C203 249.314 200.314 252 197 252H167C163.686 252 161 249.314 161 246V216Z" fill="#D9D9D9"/>
<path d="M223 216C223 212.686 225.686 210 229 210H259C262.314 210 265 212.686 265 216V246C265 249.314 262.314 252 259 252H229C225.686 252 223 249.314 223 246V216Z" fill="#D9D9D9"/>
<path d="M285 216C285 212.686 287.686 210 291 210H321C324.314 210 327 212.686 327 216V246C327 249.314 324.314 252 321 252H291C287.686 252 285 249.314 285 246V216Z" fill="#D9D9D9"/>
<path d="M-25 281C-25 277.686 -22.3137 275 -19 275H11C14.3137 275 17 277.686 17 281V311C17 314.314 14.3137 317 11 317H-19C-22.3137 317 -25 314.314 -25 311V281Z" fill="#D9D9D9"/>
<path d="M37 281C37 277.686 39.6863 275 43 275H73C76.3137 275 79 277.686 79 281V311C79 314.314 76.3137 317 73 317H43C39.6863 317 37 314.314 37 311V281Z" fill="#D9D9D9"/>
<path d="M-25 346C-25 342.686 -22.3137 340 -19 340H11C14.3137 340 17 342.686 17 346V376C17 379.314 14.3137 382 11 382H-19C-22.3137 382 -25 379.314 -25 376V346Z" fill="#D9D9D9"/>
<path d="M37 346C37 342.686 39.6863 340 43 340H73C76.3137 340 79 342.686 79 346V376C79 379.314 76.3137 382 73 382H43C39.6863 382 37 379.314 37 376V346Z" fill="#D9D9D9"/>
<path d="M99 346C99 342.686 101.686 340 105 340H135C138.314 340 141 342.686 141 346V376C141 379.314 138.314 382 135 382H105C101.686 382 99 379.314 99 376V346Z" fill="#D9D9D9"/>
<path d="M161 346C161 342.686 163.686 340 167 340H197C200.314 340 203 342.686 203 346V376C203 379.314 200.314 382 197 382H167C163.686 382 161 379.314 161 376V346Z" fill="#D9D9D9"/>
<path d="M223 346C223 342.686 225.686 340 229 340H259C262.314 340 265 342.686 265 346V376C265 379.314 262.314 382 259 382H229C225.686 382 223 379.314 223 376V346Z" fill="#D9D9D9"/>
<path d="M285 346C285 342.686 287.686 340 291 340H321C324.314 340 327 342.686 327 346V376C327 379.314 324.314 382 321 382H291C287.686 382 285 379.314 285 376V346Z" fill="#D9D9D9"/>
<path d="M-25 411C-25 407.686 -22.3137 405 -19 405H11C14.3137 405 17 407.686 17 411V441C17 444.314 14.3137 447 11 447H-19C-22.3137 447 -25 444.314 -25 441V411Z" fill="#D9D9D9"/>
<path d="M37 411C37 407.686 39.6863 405 43 405H73C76.3137 405 79 407.686 79 411V441C79 444.314 76.3137 447 73 447H43C39.6863 447 37 444.314 37 441V411Z" fill="#D9D9D9"/>
<path d="M99 411C99 407.686 101.686 405 105 405H135C138.314 405 141 407.686 141 411V441C141 444.314 138.314 447 135 447H105C101.686 447 99 444.314 99 441V411Z" fill="#D9D9D9"/>
<path d="M161 411C161 407.686 163.686 405 167 405H197C200.314 405 203 407.686 203 411V441C203 444.314 200.314 447 197 447H167C163.686 447 161 444.314 161 441V411Z" fill="#D9D9D9"/>
<path d="M223 411C223 407.686 225.686 405 229 405H259C262.314 405 265 407.686 265 411V441C265 444.314 262.314 447 259 447H229C225.686 447 223 444.314 223 441V411Z" fill="#D9D9D9"/>
<path d="M285 411C285 407.686 287.686 405 291 405H321C324.314 405 327 407.686 327 411V441C327 444.314 324.314 447 321 447H291C287.686 447 285 444.314 285 441V411Z" fill="#D9D9D9"/>
<path d="M-25 476C-25 472.686 -22.3137 470 -19 470H11C14.3137 470 17 472.686 17 476V506C17 509.314 14.3137 512 11 512H-19C-22.3137 512 -25 509.314 -25 506V476Z" fill="#D9D9D9"/>
<path d="M37 476C37 472.686 39.6863 470 43 470H73C76.3137 470 79 472.686 79 476V506C79 509.314 76.3137 512 73 512H43C39.6863 512 37 509.314 37 506V476Z" fill="#D9D9D9"/>
<path d="M99 476C99 472.686 101.686 470 105 470H135C138.314 470 141 472.686 141 476V506C141 509.314 138.314 512 135 512H105C101.686 512 99 509.314 99 506V476Z" fill="#D9D9D9"/>
<path d="M161 476C161 472.686 163.686 470 167 470H197C200.314 470 203 472.686 203 476V506C203 509.314 200.314 512 197 512H167C163.686 512 161 509.314 161 506V476Z" fill="#D9D9D9"/>
<path d="M223 476C223 472.686 225.686 470 229 470H259C262.314 470 265 472.686 265 476V506C265 509.314 262.314 512 259 512H229C225.686 512 223 509.314 223 506V476Z" fill="#D9D9D9"/>
<path d="M285 476C285 472.686 287.686 470 291 470H321C324.314 470 327 472.686 327 476V506C327 509.314 324.314 512 321 512H291C287.686 512 285 509.314 285 506V476Z" fill="#D9D9D9"/>
</g>
<path opacity="0.6" d="M99 281C99 277.686 101.686 275 105 275H135C138.314 275 141 277.686 141 281V311C141 314.314 138.314 317 135 317H105C101.686 317 99 314.314 99 311V281Z" fill="#2386DD"/>
<path opacity="0.1" d="M285 281C285 277.686 287.686 275 291 275H321C324.314 275 327 277.686 327 281V311C327 314.314 324.314 317 321 317H291C287.686 317 285 314.314 285 311V281Z" fill="#2386DD"/>
<path opacity="0.2" d="M223 281C223 277.686 225.686 275 229 275H259C262.314 275 265 277.686 265 281V311C265 314.314 262.314 317 259 317H229C225.686 317 223 314.314 223 311V281Z" fill="#2386DD"/>
<path opacity="0.4" d="M161 281C161 277.686 163.686 275 167 275H197C200.314 275 203 277.686 203 281V311C203 314.314 200.314 317 197 317H167C163.686 317 161 314.314 161 311V281Z" fill="#2386DD"/>
<rect width="1200" height="129" fill="url(#paint0_linear_616_668)"/>
<rect width="1200" height="129" transform="matrix(1 0 0 -1 0 675)" fill="url(#paint1_linear_616_668)"/>
<path d="M0 0L-2.95052e-05 675L100 675L100 4.37114e-06L0 0Z" fill="url(#paint2_linear_616_668)"/>
<path d="M1200 0L1200 675L1118 675L1118 3.58434e-06L1200 0Z" fill="url(#paint3_linear_616_668)"/>
<path opacity="0.4" d="M976 149C976 145.686 978.686 143 982 143H1012C1015.31 143 1018 145.686 1018 149V179C1018 182.314 1015.31 185 1012 185H982C978.686 185 976 182.314 976 179V149Z" fill="#D9D9D9"/>
</g>
<defs>
<linearGradient id="paint0_linear_616_668" x1="600" y1="0" x2="600" y2="129" gradientUnits="userSpaceOnUse">
<stop stop-color="white"/>
<stop offset="1" stop-color="white" stop-opacity="0"/>
</linearGradient>
<linearGradient id="paint1_linear_616_668" x1="600" y1="0" x2="600" y2="129" gradientUnits="userSpaceOnUse">
<stop stop-color="white"/>
<stop offset="1" stop-color="white" stop-opacity="0"/>
</linearGradient>
<linearGradient id="paint2_linear_616_668" x1="-1.47526e-05" y1="337.5" x2="100" y2="337.5" gradientUnits="userSpaceOnUse">
<stop stop-color="white"/>
<stop offset="1" stop-color="white" stop-opacity="0"/>
</linearGradient>
<linearGradient id="paint3_linear_616_668" x1="1200" y1="337.5" x2="1118" y2="337.5" gradientUnits="userSpaceOnUse">
<stop stop-color="white"/>
<stop offset="1" stop-color="white" stop-opacity="0"/>
</linearGradient>
<clipPath id="clip0_616_668">
<rect width="1200" height="675" fill="white"/>
</clipPath>
</defs>
</svg>
