<svg width="1200" height="675" viewBox="0 0 1200 675" fill="none" xmlns="http://www.w3.org/2000/svg">
<g clip-path="url(#clip0_2134_882)">
<rect width="1200" height="675" fill="white"/>
<path d="M146 73C146 59.7452 156.745 49 170 49H1136C1149.25 49 1160 59.7452 1160 73V675H146V73Z" fill="#D9D9D9"/>
<path d="M171 93C171 84.1635 178.163 77 187 77H1118C1126.84 77 1134 84.1634 1134 93V727H171V93Z" fill="white"/>
<path d="M49 228C49 192.654 77.6538 164 113 164H485C520.346 164 549 192.654 549 228V675H49V228Z" fill="#D9D9D9"/>
<rect opacity="0.3" x="651" y="120" width="436" height="169" rx="22" fill="#D9D9D9"/>
<path d="M75 235C75 210.699 94.6995 191 119 191H479C503.301 191 523 210.699 523 235V726H75V235Z" fill="white"/>
<rect opacity="0.3" x="183" y="348" width="213" height="212" rx="22" fill="#D9D9D9"/>
<g opacity="0.3">
<path d="M240.25 426.917V416.083C240.25 413.21 241.391 410.455 243.423 408.423C245.455 406.391 248.21 405.25 251.083 405.25H261.917" stroke="black" stroke-width="7" stroke-linecap="round" stroke-linejoin="round"/>
<path d="M316.082 405.25H326.915C329.789 405.25 332.544 406.391 334.576 408.423C336.607 410.455 337.749 413.21 337.749 416.083V426.917" stroke="black" stroke-width="7" stroke-linecap="round" stroke-linejoin="round"/>
<path d="M337.749 481.083V491.916C337.749 494.79 336.607 497.545 334.576 499.577C332.544 501.608 329.789 502.75 326.915 502.75H316.082" stroke="black" stroke-width="7" stroke-linecap="round" stroke-linejoin="round"/>
<path d="M261.917 502.75H251.083C248.21 502.75 245.455 501.608 243.423 499.577C241.391 497.545 240.25 494.79 240.25 491.916V481.083" stroke="black" stroke-width="7" stroke-linecap="round" stroke-linejoin="round"/>
<path d="M267.332 464.833C267.332 464.833 275.457 475.666 288.999 475.666C302.54 475.666 310.665 464.833 310.665 464.833" stroke="black" stroke-width="7" stroke-linecap="round" stroke-linejoin="round"/>
<path d="M272.75 437.75H272.802" stroke="black" stroke-width="7" stroke-linecap="round" stroke-linejoin="round"/>
<path d="M305.25 437.75H305.302" stroke="black" stroke-width="7" stroke-linecap="round" stroke-linejoin="round"/>
</g>
<g opacity="0.3">
<path d="M732.5 194.583C730.444 194.583 728.473 195.417 727.02 196.902C725.566 198.386 724.75 200.4 724.75 202.5C724.75 206.537 724.362 212.435 723.742 218.333" stroke="black" stroke-width="6" stroke-linecap="round" stroke-linejoin="round"/>
<path d="M740.25 206.934C740.25 216.354 740.25 232.188 736.375 242.084" stroke="black" stroke-width="6" stroke-linecap="round" stroke-linejoin="round"/>
<path d="M753 238.204C753.465 235.829 754.666 229.1 754.937 226.25" stroke="black" stroke-width="6" stroke-linecap="round" stroke-linejoin="round"/>
<path d="M693.75 202.5C693.75 194.192 696.309 186.095 701.064 179.356C705.82 172.616 712.531 167.575 720.246 164.948C727.962 162.321 736.291 162.24 744.054 164.717C751.817 167.195 758.62 172.104 763.5 178.75" stroke="black" stroke-width="6" stroke-linecap="round" stroke-linejoin="round"/>
<path d="M693.75 218.333H693.793" stroke="black" stroke-width="6" stroke-linecap="round" stroke-linejoin="round"/>
<path d="M770.477 218.333C771.252 210.416 770.984 197.14 770.477 194.583" stroke="black" stroke-width="6" stroke-linecap="round" stroke-linejoin="round"/>
<path d="M705.375 232.187C707.312 226.25 709.25 214.375 709.25 202.5C709.246 199.804 709.692 197.126 710.568 194.583" stroke="black" stroke-width="6" stroke-linecap="round" stroke-linejoin="round"/>
<path d="M719.52 242.084C720.333 239.471 721.263 236.859 721.728 234.167" stroke="black" stroke-width="6" stroke-linecap="round" stroke-linejoin="round"/>
<path d="M720.875 181.916C724.411 179.831 728.421 178.734 732.504 178.734C736.586 178.735 740.597 179.834 744.131 181.92C747.666 184.006 750.601 187.007 752.641 190.619C754.68 194.232 755.753 198.329 755.75 202.5V210.416" stroke="black" stroke-width="6" stroke-linecap="round" stroke-linejoin="round"/>
</g>
<rect opacity="0.6" x="807" y="162" width="230" height="19" rx="9.5" fill="#D9D9D9"/>
<rect opacity="0.6" x="807" y="196" width="152" height="20" rx="10" fill="#D9D9D9"/>
<rect opacity="0.6" x="807" y="231" width="202" height="19" rx="9.5" fill="#D9D9D9"/>
<circle cx="364" cy="234" r="16" fill="#D9D9D9"/>
<rect x="212" y="219" width="120" height="30" rx="15" fill="#D9D9D9"/>
<rect width="1200" height="105" fill="url(#paint0_linear_2134_882)"/>
<path d="M0 0L-2.95052e-05 675L146 675L146 6.38186e-06L0 0Z" fill="url(#paint1_linear_2134_882)"/>
<path d="M1200 0L1200 675L1027 675L1027 7.56207e-06L1200 0Z" fill="url(#paint2_linear_2134_882)"/>
<rect width="1200" height="105" transform="matrix(1 0 0 -1 0 675)" fill="url(#paint3_linear_2134_882)"/>
</g>
<defs>
<linearGradient id="paint0_linear_2134_882" x1="600" y1="0" x2="600" y2="105" gradientUnits="userSpaceOnUse">
<stop stop-color="white"/>
<stop offset="1" stop-color="white" stop-opacity="0"/>
</linearGradient>
<linearGradient id="paint1_linear_2134_882" x1="-1.47526e-05" y1="337.5" x2="146" y2="337.5" gradientUnits="userSpaceOnUse">
<stop stop-color="white"/>
<stop offset="1" stop-color="white" stop-opacity="0"/>
</linearGradient>
<linearGradient id="paint2_linear_2134_882" x1="1200" y1="337.5" x2="1027" y2="337.5" gradientUnits="userSpaceOnUse">
<stop stop-color="white"/>
<stop offset="1" stop-color="white" stop-opacity="0"/>
</linearGradient>
<linearGradient id="paint3_linear_2134_882" x1="600" y1="0" x2="600" y2="105" gradientUnits="userSpaceOnUse">
<stop stop-color="white"/>
<stop offset="1" stop-color="white" stop-opacity="0"/>
</linearGradient>
<clipPath id="clip0_2134_882">
<rect width="1200" height="675" fill="white"/>
</clipPath>
</defs>
</svg>
