<svg xmlns="http://www.w3.org/2000/svg" width="960" height="720" viewBox="0 0 480 360" role="img" data-illustration="interface" aria-labelledby="title description"><title id="title">A stablecoin payment receipt</title><desc id="description">Illustrative payment receipt showing 25 OUSD received with the reference Invoice 1042.</desc><path d="M376 40 c30.17 0 45.255 0 54.627 9.373  c9.373 9.373 9.373 24.458 9.373 54.627 L440 256 c0 30.17 0 45.255 -9.373 54.627  c-9.373 9.373 -24.458 9.373 -54.627 9.373 L104 320 c-30.17 0 -45.255 0 -54.627 -9.373  c-9.373 -9.373 -9.373 -24.458 -9.373 -54.627 L40 104 c0 -30.17 0 -45.255 9.373 -54.627  c9.373 -9.373 24.458 -9.373 54.627 -9.373Z" fill="var(--tempo-art-surface, #F5F5F5)" stroke="none" stroke-width="1" vector-effect="non-scaling-stroke"/><text x="80" y="84" fill="var(--tempo-art-secondary, #707070)" font-family="Pilat" font-size="16" font-weight="400" text-anchor="start" letter-spacing="0">Payment received</text><path d="M367 73l8 8 16-18" fill="none" stroke="var(--tempo-art-ink, #000000)" stroke-width="1.5" vector-effect="non-scaling-stroke"/><text x="80" y="139" fill="var(--tempo-art-ink, #000000)" font-family="Pilat" font-size="32" font-weight="400" text-anchor="start" letter-spacing="-0.32">25.00 OUSD</text><text x="80" y="182" fill="var(--tempo-art-secondary, #707070)" font-family="Pilat" font-size="14" font-weight="400" text-anchor="start" letter-spacing="0">From</text><text x="400" y="182" fill="var(--tempo-art-ink, #000000)" font-family="JetBrains Mono" font-size="14" font-weight="400" text-anchor="end" letter-spacing="0">0x84a2…f19c</text><text x="80" y="216" fill="var(--tempo-art-secondary, #707070)" font-family="Pilat" font-size="14" font-weight="400" text-anchor="start" letter-spacing="0">To</text><text x="400" y="216" fill="var(--tempo-art-ink, #000000)" font-family="JetBrains Mono" font-size="14" font-weight="400" text-anchor="end" letter-spacing="0">0x7b31…92e4</text><path d="M80 242H400" fill="none" stroke="var(--tempo-art-divider, #EBEBEB)" stroke-width="1" vector-effect="non-scaling-stroke"/><text x="80" y="280" fill="var(--tempo-art-secondary, #707070)" font-family="Pilat" font-size="14" font-weight="400" text-anchor="start" letter-spacing="0">Reference</text><text x="400" y="280" fill="var(--tempo-art-ink, #000000)" font-family="Pilat" font-size="16" font-weight="400" text-anchor="end" letter-spacing="0">Invoice 1042</text></svg>
